%
M48
M72
T01C0.02362
T02C0.02756
T03C0.03543
T04C0.03937
T05C0.04000
T06C0.11800
T07C0.12598
%
T01
X130000Y106000
X185000Y136000
X150000Y51000
X75000Y51000
X150000Y126000
X160000Y126000
T02
X70000Y96000
X60000Y96000
X60000Y71000
X70000Y71000
T03
X90000Y111000
X90000Y141000
X105000Y111000
X105000Y141000
X120000Y111000
X120000Y141000
X80000Y131000
X80000Y161000
T04
X25000Y56000
X25000Y66000
X25000Y76000
T05
X110000Y181000
X100000Y181000
X90000Y181000
X80000Y181000
X185000Y41000
X185000Y51000
X185000Y61000
X185000Y71000
X70000Y16000
X70000Y26000
X70000Y36000
X105000Y16000
X105000Y26000
X105000Y36000
X140000Y16000
X140000Y26000
X140000Y36000
X137200Y184900
X162800Y184900
X137200Y167100
X162800Y167100
T06
X58937Y141000
X35315Y141000
X47126Y122496
T07
X20748Y182102
X186102Y182102
X186102Y16748
X20748Y16748
M30
