G75*
%MOIN*%
%OFA0B0*%
%FSLAX25Y25*%
%IPPOS*%
%LPD*%
%AMOC8*
5,1,8,0,0,1.08239X$1,22.5*
%
%ADD10C,0.00000*%
D10*
X0005000Y0001000D02*
X0005000Y0197850D01*
X0201850Y0197850D01*
X0201850Y0001000D01*
X0005000Y0001000D01*
X0014449Y0016748D02*
X0014451Y0016906D01*
X0014457Y0017064D01*
X0014467Y0017222D01*
X0014481Y0017380D01*
X0014499Y0017537D01*
X0014520Y0017694D01*
X0014546Y0017850D01*
X0014576Y0018006D01*
X0014609Y0018161D01*
X0014647Y0018314D01*
X0014688Y0018467D01*
X0014733Y0018619D01*
X0014782Y0018770D01*
X0014835Y0018919D01*
X0014891Y0019067D01*
X0014951Y0019213D01*
X0015015Y0019358D01*
X0015083Y0019501D01*
X0015154Y0019643D01*
X0015228Y0019783D01*
X0015306Y0019920D01*
X0015388Y0020056D01*
X0015472Y0020190D01*
X0015561Y0020321D01*
X0015652Y0020450D01*
X0015747Y0020577D01*
X0015844Y0020702D01*
X0015945Y0020824D01*
X0016049Y0020943D01*
X0016156Y0021060D01*
X0016266Y0021174D01*
X0016379Y0021285D01*
X0016494Y0021394D01*
X0016612Y0021499D01*
X0016733Y0021601D01*
X0016856Y0021701D01*
X0016982Y0021797D01*
X0017110Y0021890D01*
X0017240Y0021980D01*
X0017373Y0022066D01*
X0017508Y0022150D01*
X0017644Y0022229D01*
X0017783Y0022306D01*
X0017924Y0022378D01*
X0018066Y0022448D01*
X0018210Y0022513D01*
X0018356Y0022575D01*
X0018503Y0022633D01*
X0018652Y0022688D01*
X0018802Y0022739D01*
X0018953Y0022786D01*
X0019105Y0022829D01*
X0019258Y0022868D01*
X0019413Y0022904D01*
X0019568Y0022935D01*
X0019724Y0022963D01*
X0019880Y0022987D01*
X0020037Y0023007D01*
X0020195Y0023023D01*
X0020352Y0023035D01*
X0020511Y0023043D01*
X0020669Y0023047D01*
X0020827Y0023047D01*
X0020985Y0023043D01*
X0021144Y0023035D01*
X0021301Y0023023D01*
X0021459Y0023007D01*
X0021616Y0022987D01*
X0021772Y0022963D01*
X0021928Y0022935D01*
X0022083Y0022904D01*
X0022238Y0022868D01*
X0022391Y0022829D01*
X0022543Y0022786D01*
X0022694Y0022739D01*
X0022844Y0022688D01*
X0022993Y0022633D01*
X0023140Y0022575D01*
X0023286Y0022513D01*
X0023430Y0022448D01*
X0023572Y0022378D01*
X0023713Y0022306D01*
X0023852Y0022229D01*
X0023988Y0022150D01*
X0024123Y0022066D01*
X0024256Y0021980D01*
X0024386Y0021890D01*
X0024514Y0021797D01*
X0024640Y0021701D01*
X0024763Y0021601D01*
X0024884Y0021499D01*
X0025002Y0021394D01*
X0025117Y0021285D01*
X0025230Y0021174D01*
X0025340Y0021060D01*
X0025447Y0020943D01*
X0025551Y0020824D01*
X0025652Y0020702D01*
X0025749Y0020577D01*
X0025844Y0020450D01*
X0025935Y0020321D01*
X0026024Y0020190D01*
X0026108Y0020056D01*
X0026190Y0019920D01*
X0026268Y0019783D01*
X0026342Y0019643D01*
X0026413Y0019501D01*
X0026481Y0019358D01*
X0026545Y0019213D01*
X0026605Y0019067D01*
X0026661Y0018919D01*
X0026714Y0018770D01*
X0026763Y0018619D01*
X0026808Y0018467D01*
X0026849Y0018314D01*
X0026887Y0018161D01*
X0026920Y0018006D01*
X0026950Y0017850D01*
X0026976Y0017694D01*
X0026997Y0017537D01*
X0027015Y0017380D01*
X0027029Y0017222D01*
X0027039Y0017064D01*
X0027045Y0016906D01*
X0027047Y0016748D01*
X0027045Y0016590D01*
X0027039Y0016432D01*
X0027029Y0016274D01*
X0027015Y0016116D01*
X0026997Y0015959D01*
X0026976Y0015802D01*
X0026950Y0015646D01*
X0026920Y0015490D01*
X0026887Y0015335D01*
X0026849Y0015182D01*
X0026808Y0015029D01*
X0026763Y0014877D01*
X0026714Y0014726D01*
X0026661Y0014577D01*
X0026605Y0014429D01*
X0026545Y0014283D01*
X0026481Y0014138D01*
X0026413Y0013995D01*
X0026342Y0013853D01*
X0026268Y0013713D01*
X0026190Y0013576D01*
X0026108Y0013440D01*
X0026024Y0013306D01*
X0025935Y0013175D01*
X0025844Y0013046D01*
X0025749Y0012919D01*
X0025652Y0012794D01*
X0025551Y0012672D01*
X0025447Y0012553D01*
X0025340Y0012436D01*
X0025230Y0012322D01*
X0025117Y0012211D01*
X0025002Y0012102D01*
X0024884Y0011997D01*
X0024763Y0011895D01*
X0024640Y0011795D01*
X0024514Y0011699D01*
X0024386Y0011606D01*
X0024256Y0011516D01*
X0024123Y0011430D01*
X0023988Y0011346D01*
X0023852Y0011267D01*
X0023713Y0011190D01*
X0023572Y0011118D01*
X0023430Y0011048D01*
X0023286Y0010983D01*
X0023140Y0010921D01*
X0022993Y0010863D01*
X0022844Y0010808D01*
X0022694Y0010757D01*
X0022543Y0010710D01*
X0022391Y0010667D01*
X0022238Y0010628D01*
X0022083Y0010592D01*
X0021928Y0010561D01*
X0021772Y0010533D01*
X0021616Y0010509D01*
X0021459Y0010489D01*
X0021301Y0010473D01*
X0021144Y0010461D01*
X0020985Y0010453D01*
X0020827Y0010449D01*
X0020669Y0010449D01*
X0020511Y0010453D01*
X0020352Y0010461D01*
X0020195Y0010473D01*
X0020037Y0010489D01*
X0019880Y0010509D01*
X0019724Y0010533D01*
X0019568Y0010561D01*
X0019413Y0010592D01*
X0019258Y0010628D01*
X0019105Y0010667D01*
X0018953Y0010710D01*
X0018802Y0010757D01*
X0018652Y0010808D01*
X0018503Y0010863D01*
X0018356Y0010921D01*
X0018210Y0010983D01*
X0018066Y0011048D01*
X0017924Y0011118D01*
X0017783Y0011190D01*
X0017644Y0011267D01*
X0017508Y0011346D01*
X0017373Y0011430D01*
X0017240Y0011516D01*
X0017110Y0011606D01*
X0016982Y0011699D01*
X0016856Y0011795D01*
X0016733Y0011895D01*
X0016612Y0011997D01*
X0016494Y0012102D01*
X0016379Y0012211D01*
X0016266Y0012322D01*
X0016156Y0012436D01*
X0016049Y0012553D01*
X0015945Y0012672D01*
X0015844Y0012794D01*
X0015747Y0012919D01*
X0015652Y0013046D01*
X0015561Y0013175D01*
X0015472Y0013306D01*
X0015388Y0013440D01*
X0015306Y0013576D01*
X0015228Y0013713D01*
X0015154Y0013853D01*
X0015083Y0013995D01*
X0015015Y0014138D01*
X0014951Y0014283D01*
X0014891Y0014429D01*
X0014835Y0014577D01*
X0014782Y0014726D01*
X0014733Y0014877D01*
X0014688Y0015029D01*
X0014647Y0015182D01*
X0014609Y0015335D01*
X0014576Y0015490D01*
X0014546Y0015646D01*
X0014520Y0015802D01*
X0014499Y0015959D01*
X0014481Y0016116D01*
X0014467Y0016274D01*
X0014457Y0016432D01*
X0014451Y0016590D01*
X0014449Y0016748D01*
X0179803Y0016748D02*
X0179805Y0016906D01*
X0179811Y0017064D01*
X0179821Y0017222D01*
X0179835Y0017380D01*
X0179853Y0017537D01*
X0179874Y0017694D01*
X0179900Y0017850D01*
X0179930Y0018006D01*
X0179963Y0018161D01*
X0180001Y0018314D01*
X0180042Y0018467D01*
X0180087Y0018619D01*
X0180136Y0018770D01*
X0180189Y0018919D01*
X0180245Y0019067D01*
X0180305Y0019213D01*
X0180369Y0019358D01*
X0180437Y0019501D01*
X0180508Y0019643D01*
X0180582Y0019783D01*
X0180660Y0019920D01*
X0180742Y0020056D01*
X0180826Y0020190D01*
X0180915Y0020321D01*
X0181006Y0020450D01*
X0181101Y0020577D01*
X0181198Y0020702D01*
X0181299Y0020824D01*
X0181403Y0020943D01*
X0181510Y0021060D01*
X0181620Y0021174D01*
X0181733Y0021285D01*
X0181848Y0021394D01*
X0181966Y0021499D01*
X0182087Y0021601D01*
X0182210Y0021701D01*
X0182336Y0021797D01*
X0182464Y0021890D01*
X0182594Y0021980D01*
X0182727Y0022066D01*
X0182862Y0022150D01*
X0182998Y0022229D01*
X0183137Y0022306D01*
X0183278Y0022378D01*
X0183420Y0022448D01*
X0183564Y0022513D01*
X0183710Y0022575D01*
X0183857Y0022633D01*
X0184006Y0022688D01*
X0184156Y0022739D01*
X0184307Y0022786D01*
X0184459Y0022829D01*
X0184612Y0022868D01*
X0184767Y0022904D01*
X0184922Y0022935D01*
X0185078Y0022963D01*
X0185234Y0022987D01*
X0185391Y0023007D01*
X0185549Y0023023D01*
X0185706Y0023035D01*
X0185865Y0023043D01*
X0186023Y0023047D01*
X0186181Y0023047D01*
X0186339Y0023043D01*
X0186498Y0023035D01*
X0186655Y0023023D01*
X0186813Y0023007D01*
X0186970Y0022987D01*
X0187126Y0022963D01*
X0187282Y0022935D01*
X0187437Y0022904D01*
X0187592Y0022868D01*
X0187745Y0022829D01*
X0187897Y0022786D01*
X0188048Y0022739D01*
X0188198Y0022688D01*
X0188347Y0022633D01*
X0188494Y0022575D01*
X0188640Y0022513D01*
X0188784Y0022448D01*
X0188926Y0022378D01*
X0189067Y0022306D01*
X0189206Y0022229D01*
X0189342Y0022150D01*
X0189477Y0022066D01*
X0189610Y0021980D01*
X0189740Y0021890D01*
X0189868Y0021797D01*
X0189994Y0021701D01*
X0190117Y0021601D01*
X0190238Y0021499D01*
X0190356Y0021394D01*
X0190471Y0021285D01*
X0190584Y0021174D01*
X0190694Y0021060D01*
X0190801Y0020943D01*
X0190905Y0020824D01*
X0191006Y0020702D01*
X0191103Y0020577D01*
X0191198Y0020450D01*
X0191289Y0020321D01*
X0191378Y0020190D01*
X0191462Y0020056D01*
X0191544Y0019920D01*
X0191622Y0019783D01*
X0191696Y0019643D01*
X0191767Y0019501D01*
X0191835Y0019358D01*
X0191899Y0019213D01*
X0191959Y0019067D01*
X0192015Y0018919D01*
X0192068Y0018770D01*
X0192117Y0018619D01*
X0192162Y0018467D01*
X0192203Y0018314D01*
X0192241Y0018161D01*
X0192274Y0018006D01*
X0192304Y0017850D01*
X0192330Y0017694D01*
X0192351Y0017537D01*
X0192369Y0017380D01*
X0192383Y0017222D01*
X0192393Y0017064D01*
X0192399Y0016906D01*
X0192401Y0016748D01*
X0192399Y0016590D01*
X0192393Y0016432D01*
X0192383Y0016274D01*
X0192369Y0016116D01*
X0192351Y0015959D01*
X0192330Y0015802D01*
X0192304Y0015646D01*
X0192274Y0015490D01*
X0192241Y0015335D01*
X0192203Y0015182D01*
X0192162Y0015029D01*
X0192117Y0014877D01*
X0192068Y0014726D01*
X0192015Y0014577D01*
X0191959Y0014429D01*
X0191899Y0014283D01*
X0191835Y0014138D01*
X0191767Y0013995D01*
X0191696Y0013853D01*
X0191622Y0013713D01*
X0191544Y0013576D01*
X0191462Y0013440D01*
X0191378Y0013306D01*
X0191289Y0013175D01*
X0191198Y0013046D01*
X0191103Y0012919D01*
X0191006Y0012794D01*
X0190905Y0012672D01*
X0190801Y0012553D01*
X0190694Y0012436D01*
X0190584Y0012322D01*
X0190471Y0012211D01*
X0190356Y0012102D01*
X0190238Y0011997D01*
X0190117Y0011895D01*
X0189994Y0011795D01*
X0189868Y0011699D01*
X0189740Y0011606D01*
X0189610Y0011516D01*
X0189477Y0011430D01*
X0189342Y0011346D01*
X0189206Y0011267D01*
X0189067Y0011190D01*
X0188926Y0011118D01*
X0188784Y0011048D01*
X0188640Y0010983D01*
X0188494Y0010921D01*
X0188347Y0010863D01*
X0188198Y0010808D01*
X0188048Y0010757D01*
X0187897Y0010710D01*
X0187745Y0010667D01*
X0187592Y0010628D01*
X0187437Y0010592D01*
X0187282Y0010561D01*
X0187126Y0010533D01*
X0186970Y0010509D01*
X0186813Y0010489D01*
X0186655Y0010473D01*
X0186498Y0010461D01*
X0186339Y0010453D01*
X0186181Y0010449D01*
X0186023Y0010449D01*
X0185865Y0010453D01*
X0185706Y0010461D01*
X0185549Y0010473D01*
X0185391Y0010489D01*
X0185234Y0010509D01*
X0185078Y0010533D01*
X0184922Y0010561D01*
X0184767Y0010592D01*
X0184612Y0010628D01*
X0184459Y0010667D01*
X0184307Y0010710D01*
X0184156Y0010757D01*
X0184006Y0010808D01*
X0183857Y0010863D01*
X0183710Y0010921D01*
X0183564Y0010983D01*
X0183420Y0011048D01*
X0183278Y0011118D01*
X0183137Y0011190D01*
X0182998Y0011267D01*
X0182862Y0011346D01*
X0182727Y0011430D01*
X0182594Y0011516D01*
X0182464Y0011606D01*
X0182336Y0011699D01*
X0182210Y0011795D01*
X0182087Y0011895D01*
X0181966Y0011997D01*
X0181848Y0012102D01*
X0181733Y0012211D01*
X0181620Y0012322D01*
X0181510Y0012436D01*
X0181403Y0012553D01*
X0181299Y0012672D01*
X0181198Y0012794D01*
X0181101Y0012919D01*
X0181006Y0013046D01*
X0180915Y0013175D01*
X0180826Y0013306D01*
X0180742Y0013440D01*
X0180660Y0013576D01*
X0180582Y0013713D01*
X0180508Y0013853D01*
X0180437Y0013995D01*
X0180369Y0014138D01*
X0180305Y0014283D01*
X0180245Y0014429D01*
X0180189Y0014577D01*
X0180136Y0014726D01*
X0180087Y0014877D01*
X0180042Y0015029D01*
X0180001Y0015182D01*
X0179963Y0015335D01*
X0179930Y0015490D01*
X0179900Y0015646D01*
X0179874Y0015802D01*
X0179853Y0015959D01*
X0179835Y0016116D01*
X0179821Y0016274D01*
X0179811Y0016432D01*
X0179805Y0016590D01*
X0179803Y0016748D01*
X0179803Y0182102D02*
X0179805Y0182260D01*
X0179811Y0182418D01*
X0179821Y0182576D01*
X0179835Y0182734D01*
X0179853Y0182891D01*
X0179874Y0183048D01*
X0179900Y0183204D01*
X0179930Y0183360D01*
X0179963Y0183515D01*
X0180001Y0183668D01*
X0180042Y0183821D01*
X0180087Y0183973D01*
X0180136Y0184124D01*
X0180189Y0184273D01*
X0180245Y0184421D01*
X0180305Y0184567D01*
X0180369Y0184712D01*
X0180437Y0184855D01*
X0180508Y0184997D01*
X0180582Y0185137D01*
X0180660Y0185274D01*
X0180742Y0185410D01*
X0180826Y0185544D01*
X0180915Y0185675D01*
X0181006Y0185804D01*
X0181101Y0185931D01*
X0181198Y0186056D01*
X0181299Y0186178D01*
X0181403Y0186297D01*
X0181510Y0186414D01*
X0181620Y0186528D01*
X0181733Y0186639D01*
X0181848Y0186748D01*
X0181966Y0186853D01*
X0182087Y0186955D01*
X0182210Y0187055D01*
X0182336Y0187151D01*
X0182464Y0187244D01*
X0182594Y0187334D01*
X0182727Y0187420D01*
X0182862Y0187504D01*
X0182998Y0187583D01*
X0183137Y0187660D01*
X0183278Y0187732D01*
X0183420Y0187802D01*
X0183564Y0187867D01*
X0183710Y0187929D01*
X0183857Y0187987D01*
X0184006Y0188042D01*
X0184156Y0188093D01*
X0184307Y0188140D01*
X0184459Y0188183D01*
X0184612Y0188222D01*
X0184767Y0188258D01*
X0184922Y0188289D01*
X0185078Y0188317D01*
X0185234Y0188341D01*
X0185391Y0188361D01*
X0185549Y0188377D01*
X0185706Y0188389D01*
X0185865Y0188397D01*
X0186023Y0188401D01*
X0186181Y0188401D01*
X0186339Y0188397D01*
X0186498Y0188389D01*
X0186655Y0188377D01*
X0186813Y0188361D01*
X0186970Y0188341D01*
X0187126Y0188317D01*
X0187282Y0188289D01*
X0187437Y0188258D01*
X0187592Y0188222D01*
X0187745Y0188183D01*
X0187897Y0188140D01*
X0188048Y0188093D01*
X0188198Y0188042D01*
X0188347Y0187987D01*
X0188494Y0187929D01*
X0188640Y0187867D01*
X0188784Y0187802D01*
X0188926Y0187732D01*
X0189067Y0187660D01*
X0189206Y0187583D01*
X0189342Y0187504D01*
X0189477Y0187420D01*
X0189610Y0187334D01*
X0189740Y0187244D01*
X0189868Y0187151D01*
X0189994Y0187055D01*
X0190117Y0186955D01*
X0190238Y0186853D01*
X0190356Y0186748D01*
X0190471Y0186639D01*
X0190584Y0186528D01*
X0190694Y0186414D01*
X0190801Y0186297D01*
X0190905Y0186178D01*
X0191006Y0186056D01*
X0191103Y0185931D01*
X0191198Y0185804D01*
X0191289Y0185675D01*
X0191378Y0185544D01*
X0191462Y0185410D01*
X0191544Y0185274D01*
X0191622Y0185137D01*
X0191696Y0184997D01*
X0191767Y0184855D01*
X0191835Y0184712D01*
X0191899Y0184567D01*
X0191959Y0184421D01*
X0192015Y0184273D01*
X0192068Y0184124D01*
X0192117Y0183973D01*
X0192162Y0183821D01*
X0192203Y0183668D01*
X0192241Y0183515D01*
X0192274Y0183360D01*
X0192304Y0183204D01*
X0192330Y0183048D01*
X0192351Y0182891D01*
X0192369Y0182734D01*
X0192383Y0182576D01*
X0192393Y0182418D01*
X0192399Y0182260D01*
X0192401Y0182102D01*
X0192399Y0181944D01*
X0192393Y0181786D01*
X0192383Y0181628D01*
X0192369Y0181470D01*
X0192351Y0181313D01*
X0192330Y0181156D01*
X0192304Y0181000D01*
X0192274Y0180844D01*
X0192241Y0180689D01*
X0192203Y0180536D01*
X0192162Y0180383D01*
X0192117Y0180231D01*
X0192068Y0180080D01*
X0192015Y0179931D01*
X0191959Y0179783D01*
X0191899Y0179637D01*
X0191835Y0179492D01*
X0191767Y0179349D01*
X0191696Y0179207D01*
X0191622Y0179067D01*
X0191544Y0178930D01*
X0191462Y0178794D01*
X0191378Y0178660D01*
X0191289Y0178529D01*
X0191198Y0178400D01*
X0191103Y0178273D01*
X0191006Y0178148D01*
X0190905Y0178026D01*
X0190801Y0177907D01*
X0190694Y0177790D01*
X0190584Y0177676D01*
X0190471Y0177565D01*
X0190356Y0177456D01*
X0190238Y0177351D01*
X0190117Y0177249D01*
X0189994Y0177149D01*
X0189868Y0177053D01*
X0189740Y0176960D01*
X0189610Y0176870D01*
X0189477Y0176784D01*
X0189342Y0176700D01*
X0189206Y0176621D01*
X0189067Y0176544D01*
X0188926Y0176472D01*
X0188784Y0176402D01*
X0188640Y0176337D01*
X0188494Y0176275D01*
X0188347Y0176217D01*
X0188198Y0176162D01*
X0188048Y0176111D01*
X0187897Y0176064D01*
X0187745Y0176021D01*
X0187592Y0175982D01*
X0187437Y0175946D01*
X0187282Y0175915D01*
X0187126Y0175887D01*
X0186970Y0175863D01*
X0186813Y0175843D01*
X0186655Y0175827D01*
X0186498Y0175815D01*
X0186339Y0175807D01*
X0186181Y0175803D01*
X0186023Y0175803D01*
X0185865Y0175807D01*
X0185706Y0175815D01*
X0185549Y0175827D01*
X0185391Y0175843D01*
X0185234Y0175863D01*
X0185078Y0175887D01*
X0184922Y0175915D01*
X0184767Y0175946D01*
X0184612Y0175982D01*
X0184459Y0176021D01*
X0184307Y0176064D01*
X0184156Y0176111D01*
X0184006Y0176162D01*
X0183857Y0176217D01*
X0183710Y0176275D01*
X0183564Y0176337D01*
X0183420Y0176402D01*
X0183278Y0176472D01*
X0183137Y0176544D01*
X0182998Y0176621D01*
X0182862Y0176700D01*
X0182727Y0176784D01*
X0182594Y0176870D01*
X0182464Y0176960D01*
X0182336Y0177053D01*
X0182210Y0177149D01*
X0182087Y0177249D01*
X0181966Y0177351D01*
X0181848Y0177456D01*
X0181733Y0177565D01*
X0181620Y0177676D01*
X0181510Y0177790D01*
X0181403Y0177907D01*
X0181299Y0178026D01*
X0181198Y0178148D01*
X0181101Y0178273D01*
X0181006Y0178400D01*
X0180915Y0178529D01*
X0180826Y0178660D01*
X0180742Y0178794D01*
X0180660Y0178930D01*
X0180582Y0179067D01*
X0180508Y0179207D01*
X0180437Y0179349D01*
X0180369Y0179492D01*
X0180305Y0179637D01*
X0180245Y0179783D01*
X0180189Y0179931D01*
X0180136Y0180080D01*
X0180087Y0180231D01*
X0180042Y0180383D01*
X0180001Y0180536D01*
X0179963Y0180689D01*
X0179930Y0180844D01*
X0179900Y0181000D01*
X0179874Y0181156D01*
X0179853Y0181313D01*
X0179835Y0181470D01*
X0179821Y0181628D01*
X0179811Y0181786D01*
X0179805Y0181944D01*
X0179803Y0182102D01*
X0014449Y0182102D02*
X0014451Y0182260D01*
X0014457Y0182418D01*
X0014467Y0182576D01*
X0014481Y0182734D01*
X0014499Y0182891D01*
X0014520Y0183048D01*
X0014546Y0183204D01*
X0014576Y0183360D01*
X0014609Y0183515D01*
X0014647Y0183668D01*
X0014688Y0183821D01*
X0014733Y0183973D01*
X0014782Y0184124D01*
X0014835Y0184273D01*
X0014891Y0184421D01*
X0014951Y0184567D01*
X0015015Y0184712D01*
X0015083Y0184855D01*
X0015154Y0184997D01*
X0015228Y0185137D01*
X0015306Y0185274D01*
X0015388Y0185410D01*
X0015472Y0185544D01*
X0015561Y0185675D01*
X0015652Y0185804D01*
X0015747Y0185931D01*
X0015844Y0186056D01*
X0015945Y0186178D01*
X0016049Y0186297D01*
X0016156Y0186414D01*
X0016266Y0186528D01*
X0016379Y0186639D01*
X0016494Y0186748D01*
X0016612Y0186853D01*
X0016733Y0186955D01*
X0016856Y0187055D01*
X0016982Y0187151D01*
X0017110Y0187244D01*
X0017240Y0187334D01*
X0017373Y0187420D01*
X0017508Y0187504D01*
X0017644Y0187583D01*
X0017783Y0187660D01*
X0017924Y0187732D01*
X0018066Y0187802D01*
X0018210Y0187867D01*
X0018356Y0187929D01*
X0018503Y0187987D01*
X0018652Y0188042D01*
X0018802Y0188093D01*
X0018953Y0188140D01*
X0019105Y0188183D01*
X0019258Y0188222D01*
X0019413Y0188258D01*
X0019568Y0188289D01*
X0019724Y0188317D01*
X0019880Y0188341D01*
X0020037Y0188361D01*
X0020195Y0188377D01*
X0020352Y0188389D01*
X0020511Y0188397D01*
X0020669Y0188401D01*
X0020827Y0188401D01*
X0020985Y0188397D01*
X0021144Y0188389D01*
X0021301Y0188377D01*
X0021459Y0188361D01*
X0021616Y0188341D01*
X0021772Y0188317D01*
X0021928Y0188289D01*
X0022083Y0188258D01*
X0022238Y0188222D01*
X0022391Y0188183D01*
X0022543Y0188140D01*
X0022694Y0188093D01*
X0022844Y0188042D01*
X0022993Y0187987D01*
X0023140Y0187929D01*
X0023286Y0187867D01*
X0023430Y0187802D01*
X0023572Y0187732D01*
X0023713Y0187660D01*
X0023852Y0187583D01*
X0023988Y0187504D01*
X0024123Y0187420D01*
X0024256Y0187334D01*
X0024386Y0187244D01*
X0024514Y0187151D01*
X0024640Y0187055D01*
X0024763Y0186955D01*
X0024884Y0186853D01*
X0025002Y0186748D01*
X0025117Y0186639D01*
X0025230Y0186528D01*
X0025340Y0186414D01*
X0025447Y0186297D01*
X0025551Y0186178D01*
X0025652Y0186056D01*
X0025749Y0185931D01*
X0025844Y0185804D01*
X0025935Y0185675D01*
X0026024Y0185544D01*
X0026108Y0185410D01*
X0026190Y0185274D01*
X0026268Y0185137D01*
X0026342Y0184997D01*
X0026413Y0184855D01*
X0026481Y0184712D01*
X0026545Y0184567D01*
X0026605Y0184421D01*
X0026661Y0184273D01*
X0026714Y0184124D01*
X0026763Y0183973D01*
X0026808Y0183821D01*
X0026849Y0183668D01*
X0026887Y0183515D01*
X0026920Y0183360D01*
X0026950Y0183204D01*
X0026976Y0183048D01*
X0026997Y0182891D01*
X0027015Y0182734D01*
X0027029Y0182576D01*
X0027039Y0182418D01*
X0027045Y0182260D01*
X0027047Y0182102D01*
X0027045Y0181944D01*
X0027039Y0181786D01*
X0027029Y0181628D01*
X0027015Y0181470D01*
X0026997Y0181313D01*
X0026976Y0181156D01*
X0026950Y0181000D01*
X0026920Y0180844D01*
X0026887Y0180689D01*
X0026849Y0180536D01*
X0026808Y0180383D01*
X0026763Y0180231D01*
X0026714Y0180080D01*
X0026661Y0179931D01*
X0026605Y0179783D01*
X0026545Y0179637D01*
X0026481Y0179492D01*
X0026413Y0179349D01*
X0026342Y0179207D01*
X0026268Y0179067D01*
X0026190Y0178930D01*
X0026108Y0178794D01*
X0026024Y0178660D01*
X0025935Y0178529D01*
X0025844Y0178400D01*
X0025749Y0178273D01*
X0025652Y0178148D01*
X0025551Y0178026D01*
X0025447Y0177907D01*
X0025340Y0177790D01*
X0025230Y0177676D01*
X0025117Y0177565D01*
X0025002Y0177456D01*
X0024884Y0177351D01*
X0024763Y0177249D01*
X0024640Y0177149D01*
X0024514Y0177053D01*
X0024386Y0176960D01*
X0024256Y0176870D01*
X0024123Y0176784D01*
X0023988Y0176700D01*
X0023852Y0176621D01*
X0023713Y0176544D01*
X0023572Y0176472D01*
X0023430Y0176402D01*
X0023286Y0176337D01*
X0023140Y0176275D01*
X0022993Y0176217D01*
X0022844Y0176162D01*
X0022694Y0176111D01*
X0022543Y0176064D01*
X0022391Y0176021D01*
X0022238Y0175982D01*
X0022083Y0175946D01*
X0021928Y0175915D01*
X0021772Y0175887D01*
X0021616Y0175863D01*
X0021459Y0175843D01*
X0021301Y0175827D01*
X0021144Y0175815D01*
X0020985Y0175807D01*
X0020827Y0175803D01*
X0020669Y0175803D01*
X0020511Y0175807D01*
X0020352Y0175815D01*
X0020195Y0175827D01*
X0020037Y0175843D01*
X0019880Y0175863D01*
X0019724Y0175887D01*
X0019568Y0175915D01*
X0019413Y0175946D01*
X0019258Y0175982D01*
X0019105Y0176021D01*
X0018953Y0176064D01*
X0018802Y0176111D01*
X0018652Y0176162D01*
X0018503Y0176217D01*
X0018356Y0176275D01*
X0018210Y0176337D01*
X0018066Y0176402D01*
X0017924Y0176472D01*
X0017783Y0176544D01*
X0017644Y0176621D01*
X0017508Y0176700D01*
X0017373Y0176784D01*
X0017240Y0176870D01*
X0017110Y0176960D01*
X0016982Y0177053D01*
X0016856Y0177149D01*
X0016733Y0177249D01*
X0016612Y0177351D01*
X0016494Y0177456D01*
X0016379Y0177565D01*
X0016266Y0177676D01*
X0016156Y0177790D01*
X0016049Y0177907D01*
X0015945Y0178026D01*
X0015844Y0178148D01*
X0015747Y0178273D01*
X0015652Y0178400D01*
X0015561Y0178529D01*
X0015472Y0178660D01*
X0015388Y0178794D01*
X0015306Y0178930D01*
X0015228Y0179067D01*
X0015154Y0179207D01*
X0015083Y0179349D01*
X0015015Y0179492D01*
X0014951Y0179637D01*
X0014891Y0179783D01*
X0014835Y0179931D01*
X0014782Y0180080D01*
X0014733Y0180231D01*
X0014688Y0180383D01*
X0014647Y0180536D01*
X0014609Y0180689D01*
X0014576Y0180844D01*
X0014546Y0181000D01*
X0014520Y0181156D01*
X0014499Y0181313D01*
X0014481Y0181470D01*
X0014467Y0181628D01*
X0014457Y0181786D01*
X0014451Y0181944D01*
X0014449Y0182102D01*
M02*
