%
M48
M72
T01C0.0236
T02C0.0276
T03C0.0354
T04C0.0394
T05C0.0400
T06C0.1180
T07C0.1260
%
T01
X7500Y5100
X13000Y10600
X15000Y12600
X16000Y12600
X18500Y13600
X15000Y5100
T02
X7000Y7100
X6000Y7100
X6000Y9600
X7000Y9600
T03
X9000Y11100
X10500Y11100
X12000Y11100
X12000Y14100
X10500Y14100
X9000Y14100
X8000Y13100
X8000Y16100
T04
X2500Y7600
X2500Y6600
X2500Y5600
T05
X7000Y3600
X7000Y2600
X7000Y1600
X10500Y1600
X10500Y2600
X10500Y3600
X14000Y3600
X14000Y2600
X14000Y1600
X18500Y4100
X18500Y5100
X18500Y6100
X18500Y7100
X16280Y16710
X16280Y18490
X13720Y18490
X13720Y16710
X11000Y18100
X10000Y18100
X9000Y18100
X8000Y18100
T06
X5894Y14100
X4713Y12250
X3531Y14100
T07
X2075Y1675
X18610Y1675
X18610Y18210
X2075Y18210
M30
