G75*
%MOIN*%
%OFA0B0*%
%FSLAX25Y25*%
%IPPOS*%
%LPD*%
%AMOC8*
5,1,8,0,0,1.08239X$1,22.5*
%
%ADD10C,0.00000*%
%ADD11C,0.00300*%
%ADD12C,0.00600*%
%ADD13C,0.00200*%
%ADD14C,0.00800*%
%ADD15C,0.00100*%
%ADD16C,0.00500*%
%ADD17R,0.04000X0.40000*%
%ADD18R,0.07874X0.42520*%
D10*
X0005000Y0001000D02*
X0005000Y0197850D01*
X0201850Y0197850D01*
X0201850Y0001000D01*
X0005000Y0001000D01*
X0014449Y0016748D02*
X0014451Y0016906D01*
X0014457Y0017064D01*
X0014467Y0017222D01*
X0014481Y0017380D01*
X0014499Y0017537D01*
X0014520Y0017694D01*
X0014546Y0017850D01*
X0014576Y0018006D01*
X0014609Y0018161D01*
X0014647Y0018314D01*
X0014688Y0018467D01*
X0014733Y0018619D01*
X0014782Y0018770D01*
X0014835Y0018919D01*
X0014891Y0019067D01*
X0014951Y0019213D01*
X0015015Y0019358D01*
X0015083Y0019501D01*
X0015154Y0019643D01*
X0015228Y0019783D01*
X0015306Y0019920D01*
X0015388Y0020056D01*
X0015472Y0020190D01*
X0015561Y0020321D01*
X0015652Y0020450D01*
X0015747Y0020577D01*
X0015844Y0020702D01*
X0015945Y0020824D01*
X0016049Y0020943D01*
X0016156Y0021060D01*
X0016266Y0021174D01*
X0016379Y0021285D01*
X0016494Y0021394D01*
X0016612Y0021499D01*
X0016733Y0021601D01*
X0016856Y0021701D01*
X0016982Y0021797D01*
X0017110Y0021890D01*
X0017240Y0021980D01*
X0017373Y0022066D01*
X0017508Y0022150D01*
X0017644Y0022229D01*
X0017783Y0022306D01*
X0017924Y0022378D01*
X0018066Y0022448D01*
X0018210Y0022513D01*
X0018356Y0022575D01*
X0018503Y0022633D01*
X0018652Y0022688D01*
X0018802Y0022739D01*
X0018953Y0022786D01*
X0019105Y0022829D01*
X0019258Y0022868D01*
X0019413Y0022904D01*
X0019568Y0022935D01*
X0019724Y0022963D01*
X0019880Y0022987D01*
X0020037Y0023007D01*
X0020195Y0023023D01*
X0020352Y0023035D01*
X0020511Y0023043D01*
X0020669Y0023047D01*
X0020827Y0023047D01*
X0020985Y0023043D01*
X0021144Y0023035D01*
X0021301Y0023023D01*
X0021459Y0023007D01*
X0021616Y0022987D01*
X0021772Y0022963D01*
X0021928Y0022935D01*
X0022083Y0022904D01*
X0022238Y0022868D01*
X0022391Y0022829D01*
X0022543Y0022786D01*
X0022694Y0022739D01*
X0022844Y0022688D01*
X0022993Y0022633D01*
X0023140Y0022575D01*
X0023286Y0022513D01*
X0023430Y0022448D01*
X0023572Y0022378D01*
X0023713Y0022306D01*
X0023852Y0022229D01*
X0023988Y0022150D01*
X0024123Y0022066D01*
X0024256Y0021980D01*
X0024386Y0021890D01*
X0024514Y0021797D01*
X0024640Y0021701D01*
X0024763Y0021601D01*
X0024884Y0021499D01*
X0025002Y0021394D01*
X0025117Y0021285D01*
X0025230Y0021174D01*
X0025340Y0021060D01*
X0025447Y0020943D01*
X0025551Y0020824D01*
X0025652Y0020702D01*
X0025749Y0020577D01*
X0025844Y0020450D01*
X0025935Y0020321D01*
X0026024Y0020190D01*
X0026108Y0020056D01*
X0026190Y0019920D01*
X0026268Y0019783D01*
X0026342Y0019643D01*
X0026413Y0019501D01*
X0026481Y0019358D01*
X0026545Y0019213D01*
X0026605Y0019067D01*
X0026661Y0018919D01*
X0026714Y0018770D01*
X0026763Y0018619D01*
X0026808Y0018467D01*
X0026849Y0018314D01*
X0026887Y0018161D01*
X0026920Y0018006D01*
X0026950Y0017850D01*
X0026976Y0017694D01*
X0026997Y0017537D01*
X0027015Y0017380D01*
X0027029Y0017222D01*
X0027039Y0017064D01*
X0027045Y0016906D01*
X0027047Y0016748D01*
X0027045Y0016590D01*
X0027039Y0016432D01*
X0027029Y0016274D01*
X0027015Y0016116D01*
X0026997Y0015959D01*
X0026976Y0015802D01*
X0026950Y0015646D01*
X0026920Y0015490D01*
X0026887Y0015335D01*
X0026849Y0015182D01*
X0026808Y0015029D01*
X0026763Y0014877D01*
X0026714Y0014726D01*
X0026661Y0014577D01*
X0026605Y0014429D01*
X0026545Y0014283D01*
X0026481Y0014138D01*
X0026413Y0013995D01*
X0026342Y0013853D01*
X0026268Y0013713D01*
X0026190Y0013576D01*
X0026108Y0013440D01*
X0026024Y0013306D01*
X0025935Y0013175D01*
X0025844Y0013046D01*
X0025749Y0012919D01*
X0025652Y0012794D01*
X0025551Y0012672D01*
X0025447Y0012553D01*
X0025340Y0012436D01*
X0025230Y0012322D01*
X0025117Y0012211D01*
X0025002Y0012102D01*
X0024884Y0011997D01*
X0024763Y0011895D01*
X0024640Y0011795D01*
X0024514Y0011699D01*
X0024386Y0011606D01*
X0024256Y0011516D01*
X0024123Y0011430D01*
X0023988Y0011346D01*
X0023852Y0011267D01*
X0023713Y0011190D01*
X0023572Y0011118D01*
X0023430Y0011048D01*
X0023286Y0010983D01*
X0023140Y0010921D01*
X0022993Y0010863D01*
X0022844Y0010808D01*
X0022694Y0010757D01*
X0022543Y0010710D01*
X0022391Y0010667D01*
X0022238Y0010628D01*
X0022083Y0010592D01*
X0021928Y0010561D01*
X0021772Y0010533D01*
X0021616Y0010509D01*
X0021459Y0010489D01*
X0021301Y0010473D01*
X0021144Y0010461D01*
X0020985Y0010453D01*
X0020827Y0010449D01*
X0020669Y0010449D01*
X0020511Y0010453D01*
X0020352Y0010461D01*
X0020195Y0010473D01*
X0020037Y0010489D01*
X0019880Y0010509D01*
X0019724Y0010533D01*
X0019568Y0010561D01*
X0019413Y0010592D01*
X0019258Y0010628D01*
X0019105Y0010667D01*
X0018953Y0010710D01*
X0018802Y0010757D01*
X0018652Y0010808D01*
X0018503Y0010863D01*
X0018356Y0010921D01*
X0018210Y0010983D01*
X0018066Y0011048D01*
X0017924Y0011118D01*
X0017783Y0011190D01*
X0017644Y0011267D01*
X0017508Y0011346D01*
X0017373Y0011430D01*
X0017240Y0011516D01*
X0017110Y0011606D01*
X0016982Y0011699D01*
X0016856Y0011795D01*
X0016733Y0011895D01*
X0016612Y0011997D01*
X0016494Y0012102D01*
X0016379Y0012211D01*
X0016266Y0012322D01*
X0016156Y0012436D01*
X0016049Y0012553D01*
X0015945Y0012672D01*
X0015844Y0012794D01*
X0015747Y0012919D01*
X0015652Y0013046D01*
X0015561Y0013175D01*
X0015472Y0013306D01*
X0015388Y0013440D01*
X0015306Y0013576D01*
X0015228Y0013713D01*
X0015154Y0013853D01*
X0015083Y0013995D01*
X0015015Y0014138D01*
X0014951Y0014283D01*
X0014891Y0014429D01*
X0014835Y0014577D01*
X0014782Y0014726D01*
X0014733Y0014877D01*
X0014688Y0015029D01*
X0014647Y0015182D01*
X0014609Y0015335D01*
X0014576Y0015490D01*
X0014546Y0015646D01*
X0014520Y0015802D01*
X0014499Y0015959D01*
X0014481Y0016116D01*
X0014467Y0016274D01*
X0014457Y0016432D01*
X0014451Y0016590D01*
X0014449Y0016748D01*
X0179803Y0016748D02*
X0179805Y0016906D01*
X0179811Y0017064D01*
X0179821Y0017222D01*
X0179835Y0017380D01*
X0179853Y0017537D01*
X0179874Y0017694D01*
X0179900Y0017850D01*
X0179930Y0018006D01*
X0179963Y0018161D01*
X0180001Y0018314D01*
X0180042Y0018467D01*
X0180087Y0018619D01*
X0180136Y0018770D01*
X0180189Y0018919D01*
X0180245Y0019067D01*
X0180305Y0019213D01*
X0180369Y0019358D01*
X0180437Y0019501D01*
X0180508Y0019643D01*
X0180582Y0019783D01*
X0180660Y0019920D01*
X0180742Y0020056D01*
X0180826Y0020190D01*
X0180915Y0020321D01*
X0181006Y0020450D01*
X0181101Y0020577D01*
X0181198Y0020702D01*
X0181299Y0020824D01*
X0181403Y0020943D01*
X0181510Y0021060D01*
X0181620Y0021174D01*
X0181733Y0021285D01*
X0181848Y0021394D01*
X0181966Y0021499D01*
X0182087Y0021601D01*
X0182210Y0021701D01*
X0182336Y0021797D01*
X0182464Y0021890D01*
X0182594Y0021980D01*
X0182727Y0022066D01*
X0182862Y0022150D01*
X0182998Y0022229D01*
X0183137Y0022306D01*
X0183278Y0022378D01*
X0183420Y0022448D01*
X0183564Y0022513D01*
X0183710Y0022575D01*
X0183857Y0022633D01*
X0184006Y0022688D01*
X0184156Y0022739D01*
X0184307Y0022786D01*
X0184459Y0022829D01*
X0184612Y0022868D01*
X0184767Y0022904D01*
X0184922Y0022935D01*
X0185078Y0022963D01*
X0185234Y0022987D01*
X0185391Y0023007D01*
X0185549Y0023023D01*
X0185706Y0023035D01*
X0185865Y0023043D01*
X0186023Y0023047D01*
X0186181Y0023047D01*
X0186339Y0023043D01*
X0186498Y0023035D01*
X0186655Y0023023D01*
X0186813Y0023007D01*
X0186970Y0022987D01*
X0187126Y0022963D01*
X0187282Y0022935D01*
X0187437Y0022904D01*
X0187592Y0022868D01*
X0187745Y0022829D01*
X0187897Y0022786D01*
X0188048Y0022739D01*
X0188198Y0022688D01*
X0188347Y0022633D01*
X0188494Y0022575D01*
X0188640Y0022513D01*
X0188784Y0022448D01*
X0188926Y0022378D01*
X0189067Y0022306D01*
X0189206Y0022229D01*
X0189342Y0022150D01*
X0189477Y0022066D01*
X0189610Y0021980D01*
X0189740Y0021890D01*
X0189868Y0021797D01*
X0189994Y0021701D01*
X0190117Y0021601D01*
X0190238Y0021499D01*
X0190356Y0021394D01*
X0190471Y0021285D01*
X0190584Y0021174D01*
X0190694Y0021060D01*
X0190801Y0020943D01*
X0190905Y0020824D01*
X0191006Y0020702D01*
X0191103Y0020577D01*
X0191198Y0020450D01*
X0191289Y0020321D01*
X0191378Y0020190D01*
X0191462Y0020056D01*
X0191544Y0019920D01*
X0191622Y0019783D01*
X0191696Y0019643D01*
X0191767Y0019501D01*
X0191835Y0019358D01*
X0191899Y0019213D01*
X0191959Y0019067D01*
X0192015Y0018919D01*
X0192068Y0018770D01*
X0192117Y0018619D01*
X0192162Y0018467D01*
X0192203Y0018314D01*
X0192241Y0018161D01*
X0192274Y0018006D01*
X0192304Y0017850D01*
X0192330Y0017694D01*
X0192351Y0017537D01*
X0192369Y0017380D01*
X0192383Y0017222D01*
X0192393Y0017064D01*
X0192399Y0016906D01*
X0192401Y0016748D01*
X0192399Y0016590D01*
X0192393Y0016432D01*
X0192383Y0016274D01*
X0192369Y0016116D01*
X0192351Y0015959D01*
X0192330Y0015802D01*
X0192304Y0015646D01*
X0192274Y0015490D01*
X0192241Y0015335D01*
X0192203Y0015182D01*
X0192162Y0015029D01*
X0192117Y0014877D01*
X0192068Y0014726D01*
X0192015Y0014577D01*
X0191959Y0014429D01*
X0191899Y0014283D01*
X0191835Y0014138D01*
X0191767Y0013995D01*
X0191696Y0013853D01*
X0191622Y0013713D01*
X0191544Y0013576D01*
X0191462Y0013440D01*
X0191378Y0013306D01*
X0191289Y0013175D01*
X0191198Y0013046D01*
X0191103Y0012919D01*
X0191006Y0012794D01*
X0190905Y0012672D01*
X0190801Y0012553D01*
X0190694Y0012436D01*
X0190584Y0012322D01*
X0190471Y0012211D01*
X0190356Y0012102D01*
X0190238Y0011997D01*
X0190117Y0011895D01*
X0189994Y0011795D01*
X0189868Y0011699D01*
X0189740Y0011606D01*
X0189610Y0011516D01*
X0189477Y0011430D01*
X0189342Y0011346D01*
X0189206Y0011267D01*
X0189067Y0011190D01*
X0188926Y0011118D01*
X0188784Y0011048D01*
X0188640Y0010983D01*
X0188494Y0010921D01*
X0188347Y0010863D01*
X0188198Y0010808D01*
X0188048Y0010757D01*
X0187897Y0010710D01*
X0187745Y0010667D01*
X0187592Y0010628D01*
X0187437Y0010592D01*
X0187282Y0010561D01*
X0187126Y0010533D01*
X0186970Y0010509D01*
X0186813Y0010489D01*
X0186655Y0010473D01*
X0186498Y0010461D01*
X0186339Y0010453D01*
X0186181Y0010449D01*
X0186023Y0010449D01*
X0185865Y0010453D01*
X0185706Y0010461D01*
X0185549Y0010473D01*
X0185391Y0010489D01*
X0185234Y0010509D01*
X0185078Y0010533D01*
X0184922Y0010561D01*
X0184767Y0010592D01*
X0184612Y0010628D01*
X0184459Y0010667D01*
X0184307Y0010710D01*
X0184156Y0010757D01*
X0184006Y0010808D01*
X0183857Y0010863D01*
X0183710Y0010921D01*
X0183564Y0010983D01*
X0183420Y0011048D01*
X0183278Y0011118D01*
X0183137Y0011190D01*
X0182998Y0011267D01*
X0182862Y0011346D01*
X0182727Y0011430D01*
X0182594Y0011516D01*
X0182464Y0011606D01*
X0182336Y0011699D01*
X0182210Y0011795D01*
X0182087Y0011895D01*
X0181966Y0011997D01*
X0181848Y0012102D01*
X0181733Y0012211D01*
X0181620Y0012322D01*
X0181510Y0012436D01*
X0181403Y0012553D01*
X0181299Y0012672D01*
X0181198Y0012794D01*
X0181101Y0012919D01*
X0181006Y0013046D01*
X0180915Y0013175D01*
X0180826Y0013306D01*
X0180742Y0013440D01*
X0180660Y0013576D01*
X0180582Y0013713D01*
X0180508Y0013853D01*
X0180437Y0013995D01*
X0180369Y0014138D01*
X0180305Y0014283D01*
X0180245Y0014429D01*
X0180189Y0014577D01*
X0180136Y0014726D01*
X0180087Y0014877D01*
X0180042Y0015029D01*
X0180001Y0015182D01*
X0179963Y0015335D01*
X0179930Y0015490D01*
X0179900Y0015646D01*
X0179874Y0015802D01*
X0179853Y0015959D01*
X0179835Y0016116D01*
X0179821Y0016274D01*
X0179811Y0016432D01*
X0179805Y0016590D01*
X0179803Y0016748D01*
X0179803Y0182102D02*
X0179805Y0182260D01*
X0179811Y0182418D01*
X0179821Y0182576D01*
X0179835Y0182734D01*
X0179853Y0182891D01*
X0179874Y0183048D01*
X0179900Y0183204D01*
X0179930Y0183360D01*
X0179963Y0183515D01*
X0180001Y0183668D01*
X0180042Y0183821D01*
X0180087Y0183973D01*
X0180136Y0184124D01*
X0180189Y0184273D01*
X0180245Y0184421D01*
X0180305Y0184567D01*
X0180369Y0184712D01*
X0180437Y0184855D01*
X0180508Y0184997D01*
X0180582Y0185137D01*
X0180660Y0185274D01*
X0180742Y0185410D01*
X0180826Y0185544D01*
X0180915Y0185675D01*
X0181006Y0185804D01*
X0181101Y0185931D01*
X0181198Y0186056D01*
X0181299Y0186178D01*
X0181403Y0186297D01*
X0181510Y0186414D01*
X0181620Y0186528D01*
X0181733Y0186639D01*
X0181848Y0186748D01*
X0181966Y0186853D01*
X0182087Y0186955D01*
X0182210Y0187055D01*
X0182336Y0187151D01*
X0182464Y0187244D01*
X0182594Y0187334D01*
X0182727Y0187420D01*
X0182862Y0187504D01*
X0182998Y0187583D01*
X0183137Y0187660D01*
X0183278Y0187732D01*
X0183420Y0187802D01*
X0183564Y0187867D01*
X0183710Y0187929D01*
X0183857Y0187987D01*
X0184006Y0188042D01*
X0184156Y0188093D01*
X0184307Y0188140D01*
X0184459Y0188183D01*
X0184612Y0188222D01*
X0184767Y0188258D01*
X0184922Y0188289D01*
X0185078Y0188317D01*
X0185234Y0188341D01*
X0185391Y0188361D01*
X0185549Y0188377D01*
X0185706Y0188389D01*
X0185865Y0188397D01*
X0186023Y0188401D01*
X0186181Y0188401D01*
X0186339Y0188397D01*
X0186498Y0188389D01*
X0186655Y0188377D01*
X0186813Y0188361D01*
X0186970Y0188341D01*
X0187126Y0188317D01*
X0187282Y0188289D01*
X0187437Y0188258D01*
X0187592Y0188222D01*
X0187745Y0188183D01*
X0187897Y0188140D01*
X0188048Y0188093D01*
X0188198Y0188042D01*
X0188347Y0187987D01*
X0188494Y0187929D01*
X0188640Y0187867D01*
X0188784Y0187802D01*
X0188926Y0187732D01*
X0189067Y0187660D01*
X0189206Y0187583D01*
X0189342Y0187504D01*
X0189477Y0187420D01*
X0189610Y0187334D01*
X0189740Y0187244D01*
X0189868Y0187151D01*
X0189994Y0187055D01*
X0190117Y0186955D01*
X0190238Y0186853D01*
X0190356Y0186748D01*
X0190471Y0186639D01*
X0190584Y0186528D01*
X0190694Y0186414D01*
X0190801Y0186297D01*
X0190905Y0186178D01*
X0191006Y0186056D01*
X0191103Y0185931D01*
X0191198Y0185804D01*
X0191289Y0185675D01*
X0191378Y0185544D01*
X0191462Y0185410D01*
X0191544Y0185274D01*
X0191622Y0185137D01*
X0191696Y0184997D01*
X0191767Y0184855D01*
X0191835Y0184712D01*
X0191899Y0184567D01*
X0191959Y0184421D01*
X0192015Y0184273D01*
X0192068Y0184124D01*
X0192117Y0183973D01*
X0192162Y0183821D01*
X0192203Y0183668D01*
X0192241Y0183515D01*
X0192274Y0183360D01*
X0192304Y0183204D01*
X0192330Y0183048D01*
X0192351Y0182891D01*
X0192369Y0182734D01*
X0192383Y0182576D01*
X0192393Y0182418D01*
X0192399Y0182260D01*
X0192401Y0182102D01*
X0192399Y0181944D01*
X0192393Y0181786D01*
X0192383Y0181628D01*
X0192369Y0181470D01*
X0192351Y0181313D01*
X0192330Y0181156D01*
X0192304Y0181000D01*
X0192274Y0180844D01*
X0192241Y0180689D01*
X0192203Y0180536D01*
X0192162Y0180383D01*
X0192117Y0180231D01*
X0192068Y0180080D01*
X0192015Y0179931D01*
X0191959Y0179783D01*
X0191899Y0179637D01*
X0191835Y0179492D01*
X0191767Y0179349D01*
X0191696Y0179207D01*
X0191622Y0179067D01*
X0191544Y0178930D01*
X0191462Y0178794D01*
X0191378Y0178660D01*
X0191289Y0178529D01*
X0191198Y0178400D01*
X0191103Y0178273D01*
X0191006Y0178148D01*
X0190905Y0178026D01*
X0190801Y0177907D01*
X0190694Y0177790D01*
X0190584Y0177676D01*
X0190471Y0177565D01*
X0190356Y0177456D01*
X0190238Y0177351D01*
X0190117Y0177249D01*
X0189994Y0177149D01*
X0189868Y0177053D01*
X0189740Y0176960D01*
X0189610Y0176870D01*
X0189477Y0176784D01*
X0189342Y0176700D01*
X0189206Y0176621D01*
X0189067Y0176544D01*
X0188926Y0176472D01*
X0188784Y0176402D01*
X0188640Y0176337D01*
X0188494Y0176275D01*
X0188347Y0176217D01*
X0188198Y0176162D01*
X0188048Y0176111D01*
X0187897Y0176064D01*
X0187745Y0176021D01*
X0187592Y0175982D01*
X0187437Y0175946D01*
X0187282Y0175915D01*
X0187126Y0175887D01*
X0186970Y0175863D01*
X0186813Y0175843D01*
X0186655Y0175827D01*
X0186498Y0175815D01*
X0186339Y0175807D01*
X0186181Y0175803D01*
X0186023Y0175803D01*
X0185865Y0175807D01*
X0185706Y0175815D01*
X0185549Y0175827D01*
X0185391Y0175843D01*
X0185234Y0175863D01*
X0185078Y0175887D01*
X0184922Y0175915D01*
X0184767Y0175946D01*
X0184612Y0175982D01*
X0184459Y0176021D01*
X0184307Y0176064D01*
X0184156Y0176111D01*
X0184006Y0176162D01*
X0183857Y0176217D01*
X0183710Y0176275D01*
X0183564Y0176337D01*
X0183420Y0176402D01*
X0183278Y0176472D01*
X0183137Y0176544D01*
X0182998Y0176621D01*
X0182862Y0176700D01*
X0182727Y0176784D01*
X0182594Y0176870D01*
X0182464Y0176960D01*
X0182336Y0177053D01*
X0182210Y0177149D01*
X0182087Y0177249D01*
X0181966Y0177351D01*
X0181848Y0177456D01*
X0181733Y0177565D01*
X0181620Y0177676D01*
X0181510Y0177790D01*
X0181403Y0177907D01*
X0181299Y0178026D01*
X0181198Y0178148D01*
X0181101Y0178273D01*
X0181006Y0178400D01*
X0180915Y0178529D01*
X0180826Y0178660D01*
X0180742Y0178794D01*
X0180660Y0178930D01*
X0180582Y0179067D01*
X0180508Y0179207D01*
X0180437Y0179349D01*
X0180369Y0179492D01*
X0180305Y0179637D01*
X0180245Y0179783D01*
X0180189Y0179931D01*
X0180136Y0180080D01*
X0180087Y0180231D01*
X0180042Y0180383D01*
X0180001Y0180536D01*
X0179963Y0180689D01*
X0179930Y0180844D01*
X0179900Y0181000D01*
X0179874Y0181156D01*
X0179853Y0181313D01*
X0179835Y0181470D01*
X0179821Y0181628D01*
X0179811Y0181786D01*
X0179805Y0181944D01*
X0179803Y0182102D01*
X0014449Y0182102D02*
X0014451Y0182260D01*
X0014457Y0182418D01*
X0014467Y0182576D01*
X0014481Y0182734D01*
X0014499Y0182891D01*
X0014520Y0183048D01*
X0014546Y0183204D01*
X0014576Y0183360D01*
X0014609Y0183515D01*
X0014647Y0183668D01*
X0014688Y0183821D01*
X0014733Y0183973D01*
X0014782Y0184124D01*
X0014835Y0184273D01*
X0014891Y0184421D01*
X0014951Y0184567D01*
X0015015Y0184712D01*
X0015083Y0184855D01*
X0015154Y0184997D01*
X0015228Y0185137D01*
X0015306Y0185274D01*
X0015388Y0185410D01*
X0015472Y0185544D01*
X0015561Y0185675D01*
X0015652Y0185804D01*
X0015747Y0185931D01*
X0015844Y0186056D01*
X0015945Y0186178D01*
X0016049Y0186297D01*
X0016156Y0186414D01*
X0016266Y0186528D01*
X0016379Y0186639D01*
X0016494Y0186748D01*
X0016612Y0186853D01*
X0016733Y0186955D01*
X0016856Y0187055D01*
X0016982Y0187151D01*
X0017110Y0187244D01*
X0017240Y0187334D01*
X0017373Y0187420D01*
X0017508Y0187504D01*
X0017644Y0187583D01*
X0017783Y0187660D01*
X0017924Y0187732D01*
X0018066Y0187802D01*
X0018210Y0187867D01*
X0018356Y0187929D01*
X0018503Y0187987D01*
X0018652Y0188042D01*
X0018802Y0188093D01*
X0018953Y0188140D01*
X0019105Y0188183D01*
X0019258Y0188222D01*
X0019413Y0188258D01*
X0019568Y0188289D01*
X0019724Y0188317D01*
X0019880Y0188341D01*
X0020037Y0188361D01*
X0020195Y0188377D01*
X0020352Y0188389D01*
X0020511Y0188397D01*
X0020669Y0188401D01*
X0020827Y0188401D01*
X0020985Y0188397D01*
X0021144Y0188389D01*
X0021301Y0188377D01*
X0021459Y0188361D01*
X0021616Y0188341D01*
X0021772Y0188317D01*
X0021928Y0188289D01*
X0022083Y0188258D01*
X0022238Y0188222D01*
X0022391Y0188183D01*
X0022543Y0188140D01*
X0022694Y0188093D01*
X0022844Y0188042D01*
X0022993Y0187987D01*
X0023140Y0187929D01*
X0023286Y0187867D01*
X0023430Y0187802D01*
X0023572Y0187732D01*
X0023713Y0187660D01*
X0023852Y0187583D01*
X0023988Y0187504D01*
X0024123Y0187420D01*
X0024256Y0187334D01*
X0024386Y0187244D01*
X0024514Y0187151D01*
X0024640Y0187055D01*
X0024763Y0186955D01*
X0024884Y0186853D01*
X0025002Y0186748D01*
X0025117Y0186639D01*
X0025230Y0186528D01*
X0025340Y0186414D01*
X0025447Y0186297D01*
X0025551Y0186178D01*
X0025652Y0186056D01*
X0025749Y0185931D01*
X0025844Y0185804D01*
X0025935Y0185675D01*
X0026024Y0185544D01*
X0026108Y0185410D01*
X0026190Y0185274D01*
X0026268Y0185137D01*
X0026342Y0184997D01*
X0026413Y0184855D01*
X0026481Y0184712D01*
X0026545Y0184567D01*
X0026605Y0184421D01*
X0026661Y0184273D01*
X0026714Y0184124D01*
X0026763Y0183973D01*
X0026808Y0183821D01*
X0026849Y0183668D01*
X0026887Y0183515D01*
X0026920Y0183360D01*
X0026950Y0183204D01*
X0026976Y0183048D01*
X0026997Y0182891D01*
X0027015Y0182734D01*
X0027029Y0182576D01*
X0027039Y0182418D01*
X0027045Y0182260D01*
X0027047Y0182102D01*
X0027045Y0181944D01*
X0027039Y0181786D01*
X0027029Y0181628D01*
X0027015Y0181470D01*
X0026997Y0181313D01*
X0026976Y0181156D01*
X0026950Y0181000D01*
X0026920Y0180844D01*
X0026887Y0180689D01*
X0026849Y0180536D01*
X0026808Y0180383D01*
X0026763Y0180231D01*
X0026714Y0180080D01*
X0026661Y0179931D01*
X0026605Y0179783D01*
X0026545Y0179637D01*
X0026481Y0179492D01*
X0026413Y0179349D01*
X0026342Y0179207D01*
X0026268Y0179067D01*
X0026190Y0178930D01*
X0026108Y0178794D01*
X0026024Y0178660D01*
X0025935Y0178529D01*
X0025844Y0178400D01*
X0025749Y0178273D01*
X0025652Y0178148D01*
X0025551Y0178026D01*
X0025447Y0177907D01*
X0025340Y0177790D01*
X0025230Y0177676D01*
X0025117Y0177565D01*
X0025002Y0177456D01*
X0024884Y0177351D01*
X0024763Y0177249D01*
X0024640Y0177149D01*
X0024514Y0177053D01*
X0024386Y0176960D01*
X0024256Y0176870D01*
X0024123Y0176784D01*
X0023988Y0176700D01*
X0023852Y0176621D01*
X0023713Y0176544D01*
X0023572Y0176472D01*
X0023430Y0176402D01*
X0023286Y0176337D01*
X0023140Y0176275D01*
X0022993Y0176217D01*
X0022844Y0176162D01*
X0022694Y0176111D01*
X0022543Y0176064D01*
X0022391Y0176021D01*
X0022238Y0175982D01*
X0022083Y0175946D01*
X0021928Y0175915D01*
X0021772Y0175887D01*
X0021616Y0175863D01*
X0021459Y0175843D01*
X0021301Y0175827D01*
X0021144Y0175815D01*
X0020985Y0175807D01*
X0020827Y0175803D01*
X0020669Y0175803D01*
X0020511Y0175807D01*
X0020352Y0175815D01*
X0020195Y0175827D01*
X0020037Y0175843D01*
X0019880Y0175863D01*
X0019724Y0175887D01*
X0019568Y0175915D01*
X0019413Y0175946D01*
X0019258Y0175982D01*
X0019105Y0176021D01*
X0018953Y0176064D01*
X0018802Y0176111D01*
X0018652Y0176162D01*
X0018503Y0176217D01*
X0018356Y0176275D01*
X0018210Y0176337D01*
X0018066Y0176402D01*
X0017924Y0176472D01*
X0017783Y0176544D01*
X0017644Y0176621D01*
X0017508Y0176700D01*
X0017373Y0176784D01*
X0017240Y0176870D01*
X0017110Y0176960D01*
X0016982Y0177053D01*
X0016856Y0177149D01*
X0016733Y0177249D01*
X0016612Y0177351D01*
X0016494Y0177456D01*
X0016379Y0177565D01*
X0016266Y0177676D01*
X0016156Y0177790D01*
X0016049Y0177907D01*
X0015945Y0178026D01*
X0015844Y0178148D01*
X0015747Y0178273D01*
X0015652Y0178400D01*
X0015561Y0178529D01*
X0015472Y0178660D01*
X0015388Y0178794D01*
X0015306Y0178930D01*
X0015228Y0179067D01*
X0015154Y0179207D01*
X0015083Y0179349D01*
X0015015Y0179492D01*
X0014951Y0179637D01*
X0014891Y0179783D01*
X0014835Y0179931D01*
X0014782Y0180080D01*
X0014733Y0180231D01*
X0014688Y0180383D01*
X0014647Y0180536D01*
X0014609Y0180689D01*
X0014576Y0180844D01*
X0014546Y0181000D01*
X0014520Y0181156D01*
X0014499Y0181313D01*
X0014481Y0181470D01*
X0014467Y0181628D01*
X0014457Y0181786D01*
X0014451Y0181944D01*
X0014449Y0182102D01*
D11*
X0080148Y0175138D02*
X0083050Y0173203D01*
X0083050Y0175138D02*
X0080148Y0173203D01*
X0080148Y0172192D02*
X0080148Y0170257D01*
X0080148Y0171224D02*
X0083050Y0171224D01*
X0090148Y0171708D02*
X0090148Y0170257D01*
X0093050Y0170257D01*
X0092083Y0170257D02*
X0092083Y0171708D01*
X0091599Y0172192D01*
X0090631Y0172192D01*
X0090148Y0171708D01*
X0090148Y0173203D02*
X0093050Y0175138D01*
X0093050Y0173203D02*
X0090148Y0175138D01*
X0093050Y0172192D02*
X0092083Y0171224D01*
X0100148Y0170257D02*
X0102083Y0170257D01*
X0103050Y0171224D01*
X0102083Y0172192D01*
X0100148Y0172192D01*
X0100631Y0173203D02*
X0100148Y0173687D01*
X0100148Y0174655D01*
X0100631Y0175138D01*
X0101115Y0175138D01*
X0101599Y0174655D01*
X0102083Y0175138D01*
X0102566Y0175138D01*
X0103050Y0174655D01*
X0103050Y0173687D01*
X0102566Y0173203D01*
X0101599Y0174171D02*
X0101599Y0174655D01*
X0102083Y0169245D02*
X0102566Y0169245D01*
X0103050Y0168762D01*
X0103050Y0167794D01*
X0102566Y0167310D01*
X0101599Y0168278D02*
X0101599Y0168762D01*
X0102083Y0169245D01*
X0101599Y0168762D02*
X0101115Y0169245D01*
X0100631Y0169245D01*
X0100148Y0168762D01*
X0100148Y0167794D01*
X0100631Y0167310D01*
X0110148Y0167794D02*
X0110631Y0167310D01*
X0112566Y0167310D01*
X0113050Y0167794D01*
X0113050Y0168762D01*
X0112566Y0169245D01*
X0111599Y0169245D01*
X0111599Y0168278D01*
X0110631Y0169245D02*
X0110148Y0168762D01*
X0110148Y0167794D01*
X0110148Y0170257D02*
X0113050Y0172192D01*
X0110148Y0172192D01*
X0110148Y0173203D02*
X0110148Y0174655D01*
X0110631Y0175138D01*
X0112566Y0175138D01*
X0113050Y0174655D01*
X0113050Y0173203D01*
X0110148Y0173203D01*
X0110148Y0170257D02*
X0113050Y0170257D01*
X0113097Y0124052D02*
X0113097Y0121150D01*
X0113097Y0122117D02*
X0114548Y0123085D01*
X0113097Y0122117D02*
X0114548Y0121150D01*
X0112085Y0121150D02*
X0110150Y0121150D01*
X0111117Y0121150D02*
X0111117Y0124052D01*
X0110150Y0123085D01*
X0099548Y0123085D02*
X0098097Y0122117D01*
X0099548Y0121150D01*
X0098097Y0121150D02*
X0098097Y0124052D01*
X0096117Y0124052D02*
X0095150Y0123085D01*
X0096117Y0124052D02*
X0096117Y0121150D01*
X0095150Y0121150D02*
X0097085Y0121150D01*
X0084548Y0121150D02*
X0083097Y0122117D01*
X0084548Y0123085D01*
X0083097Y0124052D02*
X0083097Y0121150D01*
X0082085Y0121150D02*
X0080150Y0121150D01*
X0081117Y0121150D02*
X0081117Y0124052D01*
X0080150Y0123085D01*
X0054138Y0090852D02*
X0052203Y0090852D01*
X0052203Y0087950D01*
X0051192Y0088434D02*
X0051192Y0089401D01*
X0051192Y0088434D02*
X0050708Y0087950D01*
X0050224Y0087950D01*
X0049741Y0088434D01*
X0049741Y0087466D01*
X0049257Y0086983D01*
X0049741Y0088434D02*
X0049741Y0089401D01*
X0048245Y0090369D02*
X0048245Y0088434D01*
X0047762Y0087950D01*
X0046794Y0087950D01*
X0046310Y0088434D01*
X0048245Y0090369D01*
X0047762Y0090852D01*
X0046794Y0090852D01*
X0046310Y0090369D01*
X0046310Y0088434D01*
X0045299Y0087950D02*
X0043364Y0087950D01*
X0044331Y0087950D02*
X0044331Y0090852D01*
X0043364Y0089885D01*
X0052203Y0089401D02*
X0053171Y0089401D01*
X0049138Y0065852D02*
X0047203Y0065852D01*
X0047203Y0062950D01*
X0046192Y0063434D02*
X0046192Y0064401D01*
X0046192Y0063434D02*
X0045708Y0062950D01*
X0045224Y0062950D01*
X0044741Y0063434D01*
X0044741Y0062466D01*
X0044257Y0061983D01*
X0044741Y0063434D02*
X0044741Y0064401D01*
X0043245Y0065369D02*
X0043245Y0063434D01*
X0042762Y0062950D01*
X0041794Y0062950D01*
X0041310Y0063434D01*
X0043245Y0065369D01*
X0042762Y0065852D01*
X0041794Y0065852D01*
X0041310Y0065369D01*
X0041310Y0063434D01*
X0040299Y0063434D02*
X0040299Y0065369D01*
X0038364Y0063434D01*
X0038848Y0062950D01*
X0039815Y0062950D01*
X0040299Y0063434D01*
X0040299Y0065369D02*
X0039815Y0065852D01*
X0038848Y0065852D01*
X0038364Y0065369D01*
X0038364Y0063434D01*
X0037352Y0062950D02*
X0035417Y0062950D01*
X0036385Y0062950D02*
X0036385Y0065852D01*
X0035417Y0064885D01*
X0047203Y0064401D02*
X0048171Y0064401D01*
X0160417Y0060369D02*
X0160417Y0058434D01*
X0160901Y0057950D01*
X0161869Y0057950D01*
X0162352Y0058434D01*
X0162352Y0059401D01*
X0161385Y0059401D01*
X0162352Y0060369D02*
X0161869Y0060852D01*
X0160901Y0060852D01*
X0160417Y0060369D01*
X0163364Y0060852D02*
X0163364Y0057950D01*
X0163364Y0058917D02*
X0164815Y0058917D01*
X0165299Y0059401D01*
X0165299Y0060369D01*
X0164815Y0060852D01*
X0163364Y0060852D01*
X0164331Y0058917D02*
X0165299Y0057950D01*
X0166310Y0057950D02*
X0168245Y0057950D01*
X0169257Y0057950D02*
X0171192Y0057950D01*
X0172203Y0057950D02*
X0172203Y0060852D01*
X0174138Y0057950D01*
X0174138Y0060852D01*
X0171192Y0060852D02*
X0169257Y0060852D01*
X0169257Y0057950D01*
X0169257Y0059401D02*
X0170224Y0059401D01*
X0168245Y0060852D02*
X0166310Y0060852D01*
X0166310Y0057950D01*
X0166310Y0059401D02*
X0167278Y0059401D01*
X0166310Y0050852D02*
X0166310Y0047950D01*
X0168245Y0047950D01*
X0169257Y0048434D02*
X0169741Y0047950D01*
X0170708Y0047950D01*
X0171192Y0048434D01*
X0171192Y0050852D01*
X0172203Y0050852D02*
X0172203Y0047950D01*
X0174138Y0047950D01*
X0173171Y0049401D02*
X0172203Y0049401D01*
X0172203Y0050852D02*
X0174138Y0050852D01*
X0169257Y0050852D02*
X0169257Y0048434D01*
X0165299Y0048434D02*
X0164815Y0047950D01*
X0163364Y0047950D01*
X0163364Y0050852D01*
X0164815Y0050852D01*
X0165299Y0050369D01*
X0165299Y0049885D01*
X0164815Y0049401D01*
X0163364Y0049401D01*
X0164815Y0049401D02*
X0165299Y0048917D01*
X0165299Y0048434D01*
X0167278Y0040852D02*
X0167278Y0037950D01*
X0168245Y0037950D02*
X0166310Y0037950D01*
X0165299Y0039401D02*
X0163364Y0039401D01*
X0164331Y0038434D02*
X0164331Y0040369D01*
X0166310Y0039885D02*
X0167278Y0040852D01*
X0169257Y0040369D02*
X0169741Y0040852D01*
X0170708Y0040852D01*
X0171192Y0040369D01*
X0171192Y0039885D01*
X0169257Y0037950D01*
X0171192Y0037950D01*
X0172203Y0038917D02*
X0172203Y0040852D01*
X0172203Y0038917D02*
X0173171Y0037950D01*
X0174138Y0038917D01*
X0174138Y0040852D01*
X0173655Y0067950D02*
X0174138Y0068434D01*
X0174138Y0070369D01*
X0173655Y0070852D01*
X0172203Y0070852D01*
X0172203Y0067950D01*
X0173655Y0067950D01*
X0171192Y0067950D02*
X0169257Y0067950D01*
X0169257Y0070852D01*
X0171192Y0070852D01*
X0170224Y0069401D02*
X0169257Y0069401D01*
X0168245Y0069401D02*
X0167762Y0068917D01*
X0166310Y0068917D01*
X0166310Y0067950D02*
X0166310Y0070852D01*
X0167762Y0070852D01*
X0168245Y0070369D01*
X0168245Y0069401D01*
X0167278Y0068917D02*
X0168245Y0067950D01*
D12*
X0167560Y0077206D02*
X0166493Y0077206D01*
X0166493Y0078273D01*
X0167560Y0078273D01*
X0167560Y0077206D01*
X0169715Y0077206D02*
X0169715Y0081476D01*
X0172918Y0081476D01*
X0173986Y0080408D01*
X0173986Y0077206D01*
X0176161Y0077206D02*
X0178296Y0077206D01*
X0177228Y0077206D02*
X0177228Y0083611D01*
X0176161Y0083611D01*
X0164317Y0081476D02*
X0160047Y0077206D01*
X0157872Y0079341D02*
X0153602Y0079341D01*
X0153602Y0080408D02*
X0153602Y0078273D01*
X0154669Y0077206D01*
X0156804Y0077206D01*
X0157872Y0079341D02*
X0157872Y0080408D01*
X0156804Y0081476D01*
X0154669Y0081476D01*
X0153602Y0080408D01*
X0151426Y0080408D02*
X0151426Y0078273D01*
X0150359Y0077206D01*
X0147156Y0077206D01*
X0147156Y0075070D02*
X0147156Y0081476D01*
X0150359Y0081476D01*
X0151426Y0080408D01*
X0144981Y0081476D02*
X0141778Y0081476D01*
X0140711Y0080408D01*
X0141778Y0079341D01*
X0143913Y0079341D01*
X0144981Y0078273D01*
X0143913Y0077206D01*
X0140711Y0077206D01*
X0138535Y0077206D02*
X0138535Y0081476D01*
X0134265Y0081476D02*
X0134265Y0078273D01*
X0135333Y0077206D01*
X0138535Y0077206D01*
X0132090Y0077206D02*
X0132090Y0081476D01*
X0129955Y0083611D01*
X0127820Y0081476D01*
X0127820Y0077206D01*
X0127820Y0080408D02*
X0132090Y0080408D01*
X0160047Y0081476D02*
X0164317Y0077206D01*
D13*
X0164316Y0073744D02*
X0164683Y0073744D01*
X0164316Y0073744D02*
X0163582Y0073010D01*
X0163582Y0072276D02*
X0163582Y0073744D01*
X0162840Y0073377D02*
X0162840Y0073010D01*
X0161372Y0073010D01*
X0161372Y0072643D02*
X0161372Y0073377D01*
X0161739Y0073744D01*
X0162473Y0073744D01*
X0162840Y0073377D01*
X0162473Y0072276D02*
X0161739Y0072276D01*
X0161372Y0072643D01*
X0160633Y0072276D02*
X0159899Y0072276D01*
X0160266Y0072276D02*
X0160266Y0074478D01*
X0159899Y0074478D01*
X0158793Y0074478D02*
X0158793Y0072276D01*
X0158426Y0072276D02*
X0159160Y0072276D01*
X0157684Y0072643D02*
X0157684Y0073377D01*
X0157317Y0073744D01*
X0156583Y0073744D01*
X0156216Y0073377D01*
X0156216Y0072643D01*
X0156583Y0072276D01*
X0157317Y0072276D01*
X0157684Y0072643D01*
X0158426Y0074478D02*
X0158793Y0074478D01*
X0155475Y0073744D02*
X0155108Y0073744D01*
X0154374Y0073010D01*
X0154374Y0072276D02*
X0154374Y0073744D01*
X0153635Y0073744D02*
X0152901Y0073744D01*
X0153268Y0074111D02*
X0153268Y0072643D01*
X0153635Y0072276D01*
X0152159Y0072276D02*
X0152159Y0073377D01*
X0151792Y0073744D01*
X0150691Y0073744D01*
X0150691Y0072276D01*
X0149949Y0072643D02*
X0149949Y0073377D01*
X0149582Y0073744D01*
X0148848Y0073744D01*
X0148481Y0073377D01*
X0148481Y0072643D01*
X0148848Y0072276D01*
X0149582Y0072276D01*
X0149949Y0072643D01*
X0148846Y0070878D02*
X0149213Y0070511D01*
X0147745Y0069043D01*
X0148112Y0068676D01*
X0148846Y0068676D01*
X0149213Y0069043D01*
X0149213Y0070511D01*
X0148846Y0070878D02*
X0148112Y0070878D01*
X0147745Y0070511D01*
X0147745Y0069043D01*
X0147007Y0069043D02*
X0147007Y0068676D01*
X0146640Y0068676D01*
X0146640Y0069043D01*
X0147007Y0069043D01*
X0145898Y0068676D02*
X0144430Y0068676D01*
X0145164Y0068676D02*
X0145164Y0070878D01*
X0144430Y0070144D01*
X0142953Y0072276D02*
X0143320Y0072643D01*
X0143320Y0074111D01*
X0142953Y0074478D01*
X0141852Y0074478D01*
X0141852Y0072276D01*
X0142953Y0072276D01*
X0141110Y0072276D02*
X0139642Y0072276D01*
X0139642Y0074478D01*
X0141110Y0074478D01*
X0140376Y0073377D02*
X0139642Y0073377D01*
X0138900Y0072276D02*
X0137432Y0072276D01*
X0137432Y0074478D01*
X0136694Y0071245D02*
X0136694Y0070878D01*
X0136694Y0070144D02*
X0136694Y0068676D01*
X0136327Y0068676D02*
X0137061Y0068676D01*
X0137800Y0069043D02*
X0137800Y0069777D01*
X0138167Y0070144D01*
X0138901Y0070144D01*
X0139268Y0069777D01*
X0139268Y0069043D01*
X0138901Y0068676D01*
X0138167Y0068676D01*
X0137800Y0069043D01*
X0136694Y0070144D02*
X0136327Y0070144D01*
X0135585Y0070144D02*
X0134484Y0070144D01*
X0134117Y0069777D01*
X0134484Y0069410D01*
X0135218Y0069410D01*
X0135585Y0069043D01*
X0135218Y0068676D01*
X0134117Y0068676D01*
X0133377Y0070144D02*
X0133010Y0070144D01*
X0132276Y0069410D01*
X0132276Y0068676D02*
X0132276Y0070144D01*
X0131534Y0069777D02*
X0131534Y0069410D01*
X0130066Y0069410D01*
X0130066Y0069043D02*
X0130066Y0069777D01*
X0130433Y0070144D01*
X0131167Y0070144D01*
X0131534Y0069777D01*
X0131167Y0068676D02*
X0130433Y0068676D01*
X0130066Y0069043D01*
X0129324Y0069410D02*
X0129324Y0070878D01*
X0129324Y0072276D02*
X0128590Y0073010D01*
X0127856Y0072276D01*
X0127856Y0074478D01*
X0129324Y0074478D02*
X0129324Y0072276D01*
X0130066Y0072276D02*
X0130800Y0072276D01*
X0130433Y0072276D02*
X0130433Y0073744D01*
X0130066Y0073744D01*
X0130433Y0074478D02*
X0130433Y0074845D01*
X0131539Y0074478D02*
X0131539Y0072276D01*
X0131539Y0073377D02*
X0132273Y0073377D01*
X0131539Y0074478D02*
X0133007Y0074478D01*
X0133749Y0073744D02*
X0134116Y0073744D01*
X0134116Y0072276D01*
X0133749Y0072276D02*
X0134483Y0072276D01*
X0134116Y0074478D02*
X0134116Y0074845D01*
X0129324Y0069410D02*
X0128590Y0068676D01*
X0127856Y0069410D01*
X0127856Y0070878D01*
X0127856Y0067278D02*
X0128957Y0067278D01*
X0129324Y0066911D01*
X0129324Y0066177D01*
X0128957Y0065810D01*
X0127856Y0065810D01*
X0127856Y0065076D02*
X0127856Y0067278D01*
X0128590Y0065810D02*
X0129324Y0065076D01*
X0130066Y0065443D02*
X0130066Y0066177D01*
X0130433Y0066544D01*
X0131167Y0066544D01*
X0131534Y0066177D01*
X0131534Y0065810D01*
X0130066Y0065810D01*
X0130066Y0065443D02*
X0130433Y0065076D01*
X0131167Y0065076D01*
X0132276Y0066544D02*
X0133010Y0065076D01*
X0133744Y0066544D01*
X0136695Y0066544D02*
X0136695Y0065076D01*
X0136695Y0066177D02*
X0138163Y0066177D01*
X0138163Y0066544D02*
X0138163Y0065076D01*
X0138163Y0066544D02*
X0137429Y0067278D01*
X0136695Y0066544D01*
X0140010Y0068676D02*
X0140010Y0070144D01*
X0141111Y0070144D01*
X0141478Y0069777D01*
X0141478Y0068676D01*
X0146272Y0072643D02*
X0146639Y0072276D01*
X0147739Y0072276D01*
X0147739Y0073744D02*
X0146639Y0073744D01*
X0146272Y0073377D01*
X0146272Y0072643D01*
D14*
X0141500Y0046000D02*
X0132000Y0046000D01*
X0128000Y0046000D01*
X0128000Y0006000D01*
X0132000Y0006000D01*
X0132000Y0046000D01*
X0141500Y0046000D02*
X0141615Y0046001D01*
X0141730Y0045998D01*
X0141845Y0045991D01*
X0141960Y0045980D01*
X0142074Y0045965D01*
X0142188Y0045947D01*
X0142301Y0045925D01*
X0142414Y0045899D01*
X0142525Y0045869D01*
X0142635Y0045835D01*
X0142745Y0045798D01*
X0142852Y0045757D01*
X0142959Y0045712D01*
X0143063Y0045664D01*
X0143167Y0045612D01*
X0143268Y0045557D01*
X0143367Y0045498D01*
X0143465Y0045437D01*
X0143560Y0045371D01*
X0143653Y0045303D01*
X0143743Y0045232D01*
X0143831Y0045157D01*
X0143917Y0045080D01*
X0144000Y0045000D01*
X0144080Y0044917D01*
X0144157Y0044831D01*
X0144232Y0044743D01*
X0144303Y0044653D01*
X0144371Y0044560D01*
X0144437Y0044465D01*
X0144498Y0044367D01*
X0144557Y0044268D01*
X0144612Y0044167D01*
X0144664Y0044063D01*
X0144712Y0043959D01*
X0144757Y0043852D01*
X0144798Y0043745D01*
X0144835Y0043635D01*
X0144869Y0043525D01*
X0144899Y0043414D01*
X0144925Y0043301D01*
X0144947Y0043188D01*
X0144965Y0043074D01*
X0144980Y0042960D01*
X0144991Y0042845D01*
X0144998Y0042730D01*
X0145001Y0042615D01*
X0145000Y0042500D01*
X0145000Y0041000D01*
X0145000Y0011000D02*
X0145000Y0009500D01*
X0145001Y0009385D01*
X0144998Y0009270D01*
X0144991Y0009155D01*
X0144980Y0009040D01*
X0144965Y0008926D01*
X0144947Y0008812D01*
X0144925Y0008699D01*
X0144899Y0008586D01*
X0144869Y0008475D01*
X0144835Y0008365D01*
X0144798Y0008255D01*
X0144757Y0008148D01*
X0144712Y0008041D01*
X0144664Y0007937D01*
X0144612Y0007833D01*
X0144557Y0007732D01*
X0144498Y0007633D01*
X0144437Y0007535D01*
X0144371Y0007440D01*
X0144303Y0007347D01*
X0144232Y0007257D01*
X0144157Y0007169D01*
X0144080Y0007083D01*
X0144000Y0007000D01*
X0143917Y0006920D01*
X0143831Y0006843D01*
X0143743Y0006768D01*
X0143653Y0006697D01*
X0143560Y0006629D01*
X0143465Y0006563D01*
X0143367Y0006502D01*
X0143268Y0006443D01*
X0143167Y0006388D01*
X0143063Y0006336D01*
X0142959Y0006288D01*
X0142852Y0006243D01*
X0142745Y0006202D01*
X0142635Y0006165D01*
X0142525Y0006131D01*
X0142414Y0006101D01*
X0142301Y0006075D01*
X0142188Y0006053D01*
X0142074Y0006035D01*
X0141960Y0006020D01*
X0141845Y0006009D01*
X0141730Y0006002D01*
X0141615Y0005999D01*
X0141500Y0006000D01*
X0132000Y0006000D01*
X0110000Y0009500D02*
X0110000Y0011000D01*
X0110000Y0009500D02*
X0110001Y0009385D01*
X0109998Y0009270D01*
X0109991Y0009155D01*
X0109980Y0009040D01*
X0109965Y0008926D01*
X0109947Y0008812D01*
X0109925Y0008699D01*
X0109899Y0008586D01*
X0109869Y0008475D01*
X0109835Y0008365D01*
X0109798Y0008255D01*
X0109757Y0008148D01*
X0109712Y0008041D01*
X0109664Y0007937D01*
X0109612Y0007833D01*
X0109557Y0007732D01*
X0109498Y0007633D01*
X0109437Y0007535D01*
X0109371Y0007440D01*
X0109303Y0007347D01*
X0109232Y0007257D01*
X0109157Y0007169D01*
X0109080Y0007083D01*
X0109000Y0007000D01*
X0108917Y0006920D01*
X0108831Y0006843D01*
X0108743Y0006768D01*
X0108653Y0006697D01*
X0108560Y0006629D01*
X0108465Y0006563D01*
X0108367Y0006502D01*
X0108268Y0006443D01*
X0108167Y0006388D01*
X0108063Y0006336D01*
X0107959Y0006288D01*
X0107852Y0006243D01*
X0107745Y0006202D01*
X0107635Y0006165D01*
X0107525Y0006131D01*
X0107414Y0006101D01*
X0107301Y0006075D01*
X0107188Y0006053D01*
X0107074Y0006035D01*
X0106960Y0006020D01*
X0106845Y0006009D01*
X0106730Y0006002D01*
X0106615Y0005999D01*
X0106500Y0006000D01*
X0097000Y0006000D01*
X0093000Y0006000D01*
X0093000Y0046000D01*
X0097000Y0046000D01*
X0097000Y0006000D01*
X0075000Y0009500D02*
X0075000Y0011000D01*
X0075000Y0009500D02*
X0075001Y0009385D01*
X0074998Y0009270D01*
X0074991Y0009155D01*
X0074980Y0009040D01*
X0074965Y0008926D01*
X0074947Y0008812D01*
X0074925Y0008699D01*
X0074899Y0008586D01*
X0074869Y0008475D01*
X0074835Y0008365D01*
X0074798Y0008255D01*
X0074757Y0008148D01*
X0074712Y0008041D01*
X0074664Y0007937D01*
X0074612Y0007833D01*
X0074557Y0007732D01*
X0074498Y0007633D01*
X0074437Y0007535D01*
X0074371Y0007440D01*
X0074303Y0007347D01*
X0074232Y0007257D01*
X0074157Y0007169D01*
X0074080Y0007083D01*
X0074000Y0007000D01*
X0073917Y0006920D01*
X0073831Y0006843D01*
X0073743Y0006768D01*
X0073653Y0006697D01*
X0073560Y0006629D01*
X0073465Y0006563D01*
X0073367Y0006502D01*
X0073268Y0006443D01*
X0073167Y0006388D01*
X0073063Y0006336D01*
X0072959Y0006288D01*
X0072852Y0006243D01*
X0072745Y0006202D01*
X0072635Y0006165D01*
X0072525Y0006131D01*
X0072414Y0006101D01*
X0072301Y0006075D01*
X0072188Y0006053D01*
X0072074Y0006035D01*
X0071960Y0006020D01*
X0071845Y0006009D01*
X0071730Y0006002D01*
X0071615Y0005999D01*
X0071500Y0006000D01*
X0062000Y0006000D01*
X0058000Y0006000D01*
X0058000Y0046000D01*
X0062000Y0046000D01*
X0062000Y0006000D01*
X0075000Y0041000D02*
X0075000Y0042500D01*
X0075001Y0042615D01*
X0074998Y0042730D01*
X0074991Y0042845D01*
X0074980Y0042960D01*
X0074965Y0043074D01*
X0074947Y0043188D01*
X0074925Y0043301D01*
X0074899Y0043414D01*
X0074869Y0043525D01*
X0074835Y0043635D01*
X0074798Y0043745D01*
X0074757Y0043852D01*
X0074712Y0043959D01*
X0074664Y0044063D01*
X0074612Y0044167D01*
X0074557Y0044268D01*
X0074498Y0044367D01*
X0074437Y0044465D01*
X0074371Y0044560D01*
X0074303Y0044653D01*
X0074232Y0044743D01*
X0074157Y0044831D01*
X0074080Y0044917D01*
X0074000Y0045000D01*
X0073917Y0045080D01*
X0073831Y0045157D01*
X0073743Y0045232D01*
X0073653Y0045303D01*
X0073560Y0045371D01*
X0073465Y0045437D01*
X0073367Y0045498D01*
X0073268Y0045557D01*
X0073167Y0045612D01*
X0073063Y0045664D01*
X0072959Y0045712D01*
X0072852Y0045757D01*
X0072745Y0045798D01*
X0072635Y0045835D01*
X0072525Y0045869D01*
X0072414Y0045899D01*
X0072301Y0045925D01*
X0072188Y0045947D01*
X0072074Y0045965D01*
X0071960Y0045980D01*
X0071845Y0045991D01*
X0071730Y0045998D01*
X0071615Y0046001D01*
X0071500Y0046000D01*
X0062000Y0046000D01*
X0052205Y0071000D02*
X0052209Y0071314D01*
X0052220Y0071628D01*
X0052240Y0071941D01*
X0052267Y0072254D01*
X0052301Y0072566D01*
X0052343Y0072877D01*
X0052393Y0073187D01*
X0052451Y0073496D01*
X0052516Y0073803D01*
X0052588Y0074109D01*
X0052668Y0074413D01*
X0052756Y0074714D01*
X0052851Y0075014D01*
X0052953Y0075311D01*
X0053062Y0075605D01*
X0053179Y0075896D01*
X0053303Y0076185D01*
X0053433Y0076471D01*
X0053571Y0076753D01*
X0053716Y0077032D01*
X0053867Y0077307D01*
X0054025Y0077578D01*
X0054190Y0077845D01*
X0054361Y0078109D01*
X0054539Y0078367D01*
X0054723Y0078622D01*
X0054913Y0078872D01*
X0055109Y0079117D01*
X0055312Y0079357D01*
X0055520Y0079593D01*
X0055733Y0079823D01*
X0055953Y0080047D01*
X0056177Y0080267D01*
X0056407Y0080480D01*
X0056643Y0080688D01*
X0056883Y0080891D01*
X0057128Y0081087D01*
X0057378Y0081277D01*
X0057633Y0081461D01*
X0057891Y0081639D01*
X0058155Y0081810D01*
X0058422Y0081975D01*
X0058693Y0082133D01*
X0058968Y0082284D01*
X0059247Y0082429D01*
X0059529Y0082567D01*
X0059815Y0082697D01*
X0060104Y0082821D01*
X0060395Y0082938D01*
X0060689Y0083047D01*
X0060986Y0083149D01*
X0061286Y0083244D01*
X0061587Y0083332D01*
X0061891Y0083412D01*
X0062197Y0083484D01*
X0062504Y0083549D01*
X0062813Y0083607D01*
X0063123Y0083657D01*
X0063434Y0083699D01*
X0063746Y0083733D01*
X0064059Y0083760D01*
X0064372Y0083780D01*
X0064686Y0083791D01*
X0065000Y0083795D01*
X0065314Y0083791D01*
X0065628Y0083780D01*
X0065941Y0083760D01*
X0066254Y0083733D01*
X0066566Y0083699D01*
X0066877Y0083657D01*
X0067187Y0083607D01*
X0067496Y0083549D01*
X0067803Y0083484D01*
X0068109Y0083412D01*
X0068413Y0083332D01*
X0068714Y0083244D01*
X0069014Y0083149D01*
X0069311Y0083047D01*
X0069605Y0082938D01*
X0069896Y0082821D01*
X0070185Y0082697D01*
X0070471Y0082567D01*
X0070753Y0082429D01*
X0071032Y0082284D01*
X0071307Y0082133D01*
X0071578Y0081975D01*
X0071845Y0081810D01*
X0072109Y0081639D01*
X0072367Y0081461D01*
X0072622Y0081277D01*
X0072872Y0081087D01*
X0073117Y0080891D01*
X0073357Y0080688D01*
X0073593Y0080480D01*
X0073823Y0080267D01*
X0074047Y0080047D01*
X0074267Y0079823D01*
X0074480Y0079593D01*
X0074688Y0079357D01*
X0074891Y0079117D01*
X0075087Y0078872D01*
X0075277Y0078622D01*
X0075461Y0078367D01*
X0075639Y0078109D01*
X0075810Y0077845D01*
X0075975Y0077578D01*
X0076133Y0077307D01*
X0076284Y0077032D01*
X0076429Y0076753D01*
X0076567Y0076471D01*
X0076697Y0076185D01*
X0076821Y0075896D01*
X0076938Y0075605D01*
X0077047Y0075311D01*
X0077149Y0075014D01*
X0077244Y0074714D01*
X0077332Y0074413D01*
X0077412Y0074109D01*
X0077484Y0073803D01*
X0077549Y0073496D01*
X0077607Y0073187D01*
X0077657Y0072877D01*
X0077699Y0072566D01*
X0077733Y0072254D01*
X0077760Y0071941D01*
X0077780Y0071628D01*
X0077791Y0071314D01*
X0077795Y0071000D01*
X0077791Y0070686D01*
X0077780Y0070372D01*
X0077760Y0070059D01*
X0077733Y0069746D01*
X0077699Y0069434D01*
X0077657Y0069123D01*
X0077607Y0068813D01*
X0077549Y0068504D01*
X0077484Y0068197D01*
X0077412Y0067891D01*
X0077332Y0067587D01*
X0077244Y0067286D01*
X0077149Y0066986D01*
X0077047Y0066689D01*
X0076938Y0066395D01*
X0076821Y0066104D01*
X0076697Y0065815D01*
X0076567Y0065529D01*
X0076429Y0065247D01*
X0076284Y0064968D01*
X0076133Y0064693D01*
X0075975Y0064422D01*
X0075810Y0064155D01*
X0075639Y0063891D01*
X0075461Y0063633D01*
X0075277Y0063378D01*
X0075087Y0063128D01*
X0074891Y0062883D01*
X0074688Y0062643D01*
X0074480Y0062407D01*
X0074267Y0062177D01*
X0074047Y0061953D01*
X0073823Y0061733D01*
X0073593Y0061520D01*
X0073357Y0061312D01*
X0073117Y0061109D01*
X0072872Y0060913D01*
X0072622Y0060723D01*
X0072367Y0060539D01*
X0072109Y0060361D01*
X0071845Y0060190D01*
X0071578Y0060025D01*
X0071307Y0059867D01*
X0071032Y0059716D01*
X0070753Y0059571D01*
X0070471Y0059433D01*
X0070185Y0059303D01*
X0069896Y0059179D01*
X0069605Y0059062D01*
X0069311Y0058953D01*
X0069014Y0058851D01*
X0068714Y0058756D01*
X0068413Y0058668D01*
X0068109Y0058588D01*
X0067803Y0058516D01*
X0067496Y0058451D01*
X0067187Y0058393D01*
X0066877Y0058343D01*
X0066566Y0058301D01*
X0066254Y0058267D01*
X0065941Y0058240D01*
X0065628Y0058220D01*
X0065314Y0058209D01*
X0065000Y0058205D01*
X0064686Y0058209D01*
X0064372Y0058220D01*
X0064059Y0058240D01*
X0063746Y0058267D01*
X0063434Y0058301D01*
X0063123Y0058343D01*
X0062813Y0058393D01*
X0062504Y0058451D01*
X0062197Y0058516D01*
X0061891Y0058588D01*
X0061587Y0058668D01*
X0061286Y0058756D01*
X0060986Y0058851D01*
X0060689Y0058953D01*
X0060395Y0059062D01*
X0060104Y0059179D01*
X0059815Y0059303D01*
X0059529Y0059433D01*
X0059247Y0059571D01*
X0058968Y0059716D01*
X0058693Y0059867D01*
X0058422Y0060025D01*
X0058155Y0060190D01*
X0057891Y0060361D01*
X0057633Y0060539D01*
X0057378Y0060723D01*
X0057128Y0060913D01*
X0056883Y0061109D01*
X0056643Y0061312D01*
X0056407Y0061520D01*
X0056177Y0061733D01*
X0055953Y0061953D01*
X0055733Y0062177D01*
X0055520Y0062407D01*
X0055312Y0062643D01*
X0055109Y0062883D01*
X0054913Y0063128D01*
X0054723Y0063378D01*
X0054539Y0063633D01*
X0054361Y0063891D01*
X0054190Y0064155D01*
X0054025Y0064422D01*
X0053867Y0064693D01*
X0053716Y0064968D01*
X0053571Y0065247D01*
X0053433Y0065529D01*
X0053303Y0065815D01*
X0053179Y0066104D01*
X0053062Y0066395D01*
X0052953Y0066689D01*
X0052851Y0066986D01*
X0052756Y0067286D01*
X0052668Y0067587D01*
X0052588Y0067891D01*
X0052516Y0068197D01*
X0052451Y0068504D01*
X0052393Y0068813D01*
X0052343Y0069123D01*
X0052301Y0069434D01*
X0052267Y0069746D01*
X0052240Y0070059D01*
X0052220Y0070372D01*
X0052209Y0070686D01*
X0052205Y0071000D01*
X0057500Y0076000D02*
X0062500Y0076000D01*
X0055157Y0096000D02*
X0055160Y0096242D01*
X0055169Y0096483D01*
X0055184Y0096724D01*
X0055204Y0096965D01*
X0055231Y0097205D01*
X0055264Y0097444D01*
X0055302Y0097683D01*
X0055346Y0097920D01*
X0055396Y0098157D01*
X0055452Y0098392D01*
X0055514Y0098625D01*
X0055581Y0098857D01*
X0055654Y0099088D01*
X0055732Y0099316D01*
X0055817Y0099542D01*
X0055906Y0099767D01*
X0056001Y0099989D01*
X0056102Y0100208D01*
X0056208Y0100426D01*
X0056319Y0100640D01*
X0056436Y0100852D01*
X0056557Y0101060D01*
X0056684Y0101266D01*
X0056816Y0101468D01*
X0056953Y0101668D01*
X0057094Y0101863D01*
X0057240Y0102056D01*
X0057391Y0102244D01*
X0057547Y0102429D01*
X0057707Y0102610D01*
X0057871Y0102787D01*
X0058040Y0102960D01*
X0058213Y0103129D01*
X0058390Y0103293D01*
X0058571Y0103453D01*
X0058756Y0103609D01*
X0058944Y0103760D01*
X0059137Y0103906D01*
X0059332Y0104047D01*
X0059532Y0104184D01*
X0059734Y0104316D01*
X0059940Y0104443D01*
X0060148Y0104564D01*
X0060360Y0104681D01*
X0060574Y0104792D01*
X0060792Y0104898D01*
X0061011Y0104999D01*
X0061233Y0105094D01*
X0061458Y0105183D01*
X0061684Y0105268D01*
X0061912Y0105346D01*
X0062143Y0105419D01*
X0062375Y0105486D01*
X0062608Y0105548D01*
X0062843Y0105604D01*
X0063080Y0105654D01*
X0063317Y0105698D01*
X0063556Y0105736D01*
X0063795Y0105769D01*
X0064035Y0105796D01*
X0064276Y0105816D01*
X0064517Y0105831D01*
X0064758Y0105840D01*
X0065000Y0105843D01*
X0065242Y0105840D01*
X0065483Y0105831D01*
X0065724Y0105816D01*
X0065965Y0105796D01*
X0066205Y0105769D01*
X0066444Y0105736D01*
X0066683Y0105698D01*
X0066920Y0105654D01*
X0067157Y0105604D01*
X0067392Y0105548D01*
X0067625Y0105486D01*
X0067857Y0105419D01*
X0068088Y0105346D01*
X0068316Y0105268D01*
X0068542Y0105183D01*
X0068767Y0105094D01*
X0068989Y0104999D01*
X0069208Y0104898D01*
X0069426Y0104792D01*
X0069640Y0104681D01*
X0069852Y0104564D01*
X0070060Y0104443D01*
X0070266Y0104316D01*
X0070468Y0104184D01*
X0070668Y0104047D01*
X0070863Y0103906D01*
X0071056Y0103760D01*
X0071244Y0103609D01*
X0071429Y0103453D01*
X0071610Y0103293D01*
X0071787Y0103129D01*
X0071960Y0102960D01*
X0072129Y0102787D01*
X0072293Y0102610D01*
X0072453Y0102429D01*
X0072609Y0102244D01*
X0072760Y0102056D01*
X0072906Y0101863D01*
X0073047Y0101668D01*
X0073184Y0101468D01*
X0073316Y0101266D01*
X0073443Y0101060D01*
X0073564Y0100852D01*
X0073681Y0100640D01*
X0073792Y0100426D01*
X0073898Y0100208D01*
X0073999Y0099989D01*
X0074094Y0099767D01*
X0074183Y0099542D01*
X0074268Y0099316D01*
X0074346Y0099088D01*
X0074419Y0098857D01*
X0074486Y0098625D01*
X0074548Y0098392D01*
X0074604Y0098157D01*
X0074654Y0097920D01*
X0074698Y0097683D01*
X0074736Y0097444D01*
X0074769Y0097205D01*
X0074796Y0096965D01*
X0074816Y0096724D01*
X0074831Y0096483D01*
X0074840Y0096242D01*
X0074843Y0096000D01*
X0074840Y0095758D01*
X0074831Y0095517D01*
X0074816Y0095276D01*
X0074796Y0095035D01*
X0074769Y0094795D01*
X0074736Y0094556D01*
X0074698Y0094317D01*
X0074654Y0094080D01*
X0074604Y0093843D01*
X0074548Y0093608D01*
X0074486Y0093375D01*
X0074419Y0093143D01*
X0074346Y0092912D01*
X0074268Y0092684D01*
X0074183Y0092458D01*
X0074094Y0092233D01*
X0073999Y0092011D01*
X0073898Y0091792D01*
X0073792Y0091574D01*
X0073681Y0091360D01*
X0073564Y0091148D01*
X0073443Y0090940D01*
X0073316Y0090734D01*
X0073184Y0090532D01*
X0073047Y0090332D01*
X0072906Y0090137D01*
X0072760Y0089944D01*
X0072609Y0089756D01*
X0072453Y0089571D01*
X0072293Y0089390D01*
X0072129Y0089213D01*
X0071960Y0089040D01*
X0071787Y0088871D01*
X0071610Y0088707D01*
X0071429Y0088547D01*
X0071244Y0088391D01*
X0071056Y0088240D01*
X0070863Y0088094D01*
X0070668Y0087953D01*
X0070468Y0087816D01*
X0070266Y0087684D01*
X0070060Y0087557D01*
X0069852Y0087436D01*
X0069640Y0087319D01*
X0069426Y0087208D01*
X0069208Y0087102D01*
X0068989Y0087001D01*
X0068767Y0086906D01*
X0068542Y0086817D01*
X0068316Y0086732D01*
X0068088Y0086654D01*
X0067857Y0086581D01*
X0067625Y0086514D01*
X0067392Y0086452D01*
X0067157Y0086396D01*
X0066920Y0086346D01*
X0066683Y0086302D01*
X0066444Y0086264D01*
X0066205Y0086231D01*
X0065965Y0086204D01*
X0065724Y0086184D01*
X0065483Y0086169D01*
X0065242Y0086160D01*
X0065000Y0086157D01*
X0064758Y0086160D01*
X0064517Y0086169D01*
X0064276Y0086184D01*
X0064035Y0086204D01*
X0063795Y0086231D01*
X0063556Y0086264D01*
X0063317Y0086302D01*
X0063080Y0086346D01*
X0062843Y0086396D01*
X0062608Y0086452D01*
X0062375Y0086514D01*
X0062143Y0086581D01*
X0061912Y0086654D01*
X0061684Y0086732D01*
X0061458Y0086817D01*
X0061233Y0086906D01*
X0061011Y0087001D01*
X0060792Y0087102D01*
X0060574Y0087208D01*
X0060360Y0087319D01*
X0060148Y0087436D01*
X0059940Y0087557D01*
X0059734Y0087684D01*
X0059532Y0087816D01*
X0059332Y0087953D01*
X0059137Y0088094D01*
X0058944Y0088240D01*
X0058756Y0088391D01*
X0058571Y0088547D01*
X0058390Y0088707D01*
X0058213Y0088871D01*
X0058040Y0089040D01*
X0057871Y0089213D01*
X0057707Y0089390D01*
X0057547Y0089571D01*
X0057391Y0089756D01*
X0057240Y0089944D01*
X0057094Y0090137D01*
X0056953Y0090332D01*
X0056816Y0090532D01*
X0056684Y0090734D01*
X0056557Y0090940D01*
X0056436Y0091148D01*
X0056319Y0091360D01*
X0056208Y0091574D01*
X0056102Y0091792D01*
X0056001Y0092011D01*
X0055906Y0092233D01*
X0055817Y0092458D01*
X0055732Y0092684D01*
X0055654Y0092912D01*
X0055581Y0093143D01*
X0055514Y0093375D01*
X0055452Y0093608D01*
X0055396Y0093843D01*
X0055346Y0094080D01*
X0055302Y0094317D01*
X0055264Y0094556D01*
X0055231Y0094795D01*
X0055204Y0095035D01*
X0055184Y0095276D01*
X0055169Y0095517D01*
X0055160Y0095758D01*
X0055157Y0096000D01*
X0058000Y0101500D02*
X0062000Y0101500D01*
X0058937Y0123283D02*
X0056181Y0123283D01*
X0058937Y0123283D02*
X0058937Y0131551D01*
X0077000Y0136000D02*
X0080000Y0136000D01*
X0080000Y0135000D01*
X0080000Y0136000D02*
X0083000Y0136000D01*
X0083000Y0156000D01*
X0080000Y0156000D01*
X0080000Y0157000D01*
X0080000Y0156000D02*
X0077000Y0156000D01*
X0077000Y0136000D01*
X0087000Y0136000D02*
X0090000Y0136000D01*
X0090000Y0137000D01*
X0090000Y0136000D02*
X0093000Y0136000D01*
X0093000Y0116000D01*
X0090000Y0116000D01*
X0090000Y0115000D01*
X0090000Y0116000D02*
X0087000Y0116000D01*
X0087000Y0136000D01*
X0102000Y0136000D02*
X0105000Y0136000D01*
X0105000Y0137000D01*
X0105000Y0136000D02*
X0108000Y0136000D01*
X0108000Y0116000D01*
X0105000Y0116000D01*
X0105000Y0115000D01*
X0105000Y0116000D02*
X0102000Y0116000D01*
X0102000Y0136000D01*
X0117000Y0136000D02*
X0120000Y0136000D01*
X0120000Y0137000D01*
X0120000Y0136000D02*
X0123000Y0136000D01*
X0123000Y0116000D01*
X0120000Y0116000D01*
X0120000Y0115000D01*
X0120000Y0116000D02*
X0117000Y0116000D01*
X0117000Y0136000D01*
X0141500Y0164000D02*
X0158500Y0164000D01*
X0162000Y0172000D02*
X0162000Y0179929D01*
X0158500Y0188000D02*
X0141500Y0188000D01*
X0138000Y0180047D02*
X0138000Y0172000D01*
X0143000Y0176000D02*
X0143002Y0176172D01*
X0143008Y0176343D01*
X0143019Y0176515D01*
X0143034Y0176686D01*
X0143053Y0176857D01*
X0143076Y0177027D01*
X0143103Y0177197D01*
X0143135Y0177366D01*
X0143170Y0177534D01*
X0143210Y0177701D01*
X0143254Y0177867D01*
X0143301Y0178032D01*
X0143353Y0178196D01*
X0143409Y0178358D01*
X0143469Y0178519D01*
X0143533Y0178679D01*
X0143601Y0178837D01*
X0143672Y0178993D01*
X0143747Y0179147D01*
X0143827Y0179300D01*
X0143909Y0179450D01*
X0143996Y0179599D01*
X0144086Y0179745D01*
X0144180Y0179889D01*
X0144277Y0180031D01*
X0144378Y0180170D01*
X0144482Y0180307D01*
X0144589Y0180441D01*
X0144700Y0180572D01*
X0144813Y0180701D01*
X0144930Y0180827D01*
X0145050Y0180950D01*
X0145173Y0181070D01*
X0145299Y0181187D01*
X0145428Y0181300D01*
X0145559Y0181411D01*
X0145693Y0181518D01*
X0145830Y0181622D01*
X0145969Y0181723D01*
X0146111Y0181820D01*
X0146255Y0181914D01*
X0146401Y0182004D01*
X0146550Y0182091D01*
X0146700Y0182173D01*
X0146853Y0182253D01*
X0147007Y0182328D01*
X0147163Y0182399D01*
X0147321Y0182467D01*
X0147481Y0182531D01*
X0147642Y0182591D01*
X0147804Y0182647D01*
X0147968Y0182699D01*
X0148133Y0182746D01*
X0148299Y0182790D01*
X0148466Y0182830D01*
X0148634Y0182865D01*
X0148803Y0182897D01*
X0148973Y0182924D01*
X0149143Y0182947D01*
X0149314Y0182966D01*
X0149485Y0182981D01*
X0149657Y0182992D01*
X0149828Y0182998D01*
X0150000Y0183000D01*
X0150172Y0182998D01*
X0150343Y0182992D01*
X0150515Y0182981D01*
X0150686Y0182966D01*
X0150857Y0182947D01*
X0151027Y0182924D01*
X0151197Y0182897D01*
X0151366Y0182865D01*
X0151534Y0182830D01*
X0151701Y0182790D01*
X0151867Y0182746D01*
X0152032Y0182699D01*
X0152196Y0182647D01*
X0152358Y0182591D01*
X0152519Y0182531D01*
X0152679Y0182467D01*
X0152837Y0182399D01*
X0152993Y0182328D01*
X0153147Y0182253D01*
X0153300Y0182173D01*
X0153450Y0182091D01*
X0153599Y0182004D01*
X0153745Y0181914D01*
X0153889Y0181820D01*
X0154031Y0181723D01*
X0154170Y0181622D01*
X0154307Y0181518D01*
X0154441Y0181411D01*
X0154572Y0181300D01*
X0154701Y0181187D01*
X0154827Y0181070D01*
X0154950Y0180950D01*
X0155070Y0180827D01*
X0155187Y0180701D01*
X0155300Y0180572D01*
X0155411Y0180441D01*
X0155518Y0180307D01*
X0155622Y0180170D01*
X0155723Y0180031D01*
X0155820Y0179889D01*
X0155914Y0179745D01*
X0156004Y0179599D01*
X0156091Y0179450D01*
X0156173Y0179300D01*
X0156253Y0179147D01*
X0156328Y0178993D01*
X0156399Y0178837D01*
X0156467Y0178679D01*
X0156531Y0178519D01*
X0156591Y0178358D01*
X0156647Y0178196D01*
X0156699Y0178032D01*
X0156746Y0177867D01*
X0156790Y0177701D01*
X0156830Y0177534D01*
X0156865Y0177366D01*
X0156897Y0177197D01*
X0156924Y0177027D01*
X0156947Y0176857D01*
X0156966Y0176686D01*
X0156981Y0176515D01*
X0156992Y0176343D01*
X0156998Y0176172D01*
X0157000Y0176000D01*
X0156998Y0175828D01*
X0156992Y0175657D01*
X0156981Y0175485D01*
X0156966Y0175314D01*
X0156947Y0175143D01*
X0156924Y0174973D01*
X0156897Y0174803D01*
X0156865Y0174634D01*
X0156830Y0174466D01*
X0156790Y0174299D01*
X0156746Y0174133D01*
X0156699Y0173968D01*
X0156647Y0173804D01*
X0156591Y0173642D01*
X0156531Y0173481D01*
X0156467Y0173321D01*
X0156399Y0173163D01*
X0156328Y0173007D01*
X0156253Y0172853D01*
X0156173Y0172700D01*
X0156091Y0172550D01*
X0156004Y0172401D01*
X0155914Y0172255D01*
X0155820Y0172111D01*
X0155723Y0171969D01*
X0155622Y0171830D01*
X0155518Y0171693D01*
X0155411Y0171559D01*
X0155300Y0171428D01*
X0155187Y0171299D01*
X0155070Y0171173D01*
X0154950Y0171050D01*
X0154827Y0170930D01*
X0154701Y0170813D01*
X0154572Y0170700D01*
X0154441Y0170589D01*
X0154307Y0170482D01*
X0154170Y0170378D01*
X0154031Y0170277D01*
X0153889Y0170180D01*
X0153745Y0170086D01*
X0153599Y0169996D01*
X0153450Y0169909D01*
X0153300Y0169827D01*
X0153147Y0169747D01*
X0152993Y0169672D01*
X0152837Y0169601D01*
X0152679Y0169533D01*
X0152519Y0169469D01*
X0152358Y0169409D01*
X0152196Y0169353D01*
X0152032Y0169301D01*
X0151867Y0169254D01*
X0151701Y0169210D01*
X0151534Y0169170D01*
X0151366Y0169135D01*
X0151197Y0169103D01*
X0151027Y0169076D01*
X0150857Y0169053D01*
X0150686Y0169034D01*
X0150515Y0169019D01*
X0150343Y0169008D01*
X0150172Y0169002D01*
X0150000Y0169000D01*
X0149828Y0169002D01*
X0149657Y0169008D01*
X0149485Y0169019D01*
X0149314Y0169034D01*
X0149143Y0169053D01*
X0148973Y0169076D01*
X0148803Y0169103D01*
X0148634Y0169135D01*
X0148466Y0169170D01*
X0148299Y0169210D01*
X0148133Y0169254D01*
X0147968Y0169301D01*
X0147804Y0169353D01*
X0147642Y0169409D01*
X0147481Y0169469D01*
X0147321Y0169533D01*
X0147163Y0169601D01*
X0147007Y0169672D01*
X0146853Y0169747D01*
X0146700Y0169827D01*
X0146550Y0169909D01*
X0146401Y0169996D01*
X0146255Y0170086D01*
X0146111Y0170180D01*
X0145969Y0170277D01*
X0145830Y0170378D01*
X0145693Y0170482D01*
X0145559Y0170589D01*
X0145428Y0170700D01*
X0145299Y0170813D01*
X0145173Y0170930D01*
X0145050Y0171050D01*
X0144930Y0171173D01*
X0144813Y0171299D01*
X0144700Y0171428D01*
X0144589Y0171559D01*
X0144482Y0171693D01*
X0144378Y0171830D01*
X0144277Y0171969D01*
X0144180Y0172111D01*
X0144086Y0172255D01*
X0143996Y0172401D01*
X0143909Y0172550D01*
X0143827Y0172700D01*
X0143747Y0172853D01*
X0143672Y0173007D01*
X0143601Y0173163D01*
X0143533Y0173321D01*
X0143469Y0173481D01*
X0143409Y0173642D01*
X0143353Y0173804D01*
X0143301Y0173968D01*
X0143254Y0174133D01*
X0143210Y0174299D01*
X0143170Y0174466D01*
X0143135Y0174634D01*
X0143103Y0174803D01*
X0143076Y0174973D01*
X0143053Y0175143D01*
X0143034Y0175314D01*
X0143019Y0175485D01*
X0143008Y0175657D01*
X0143002Y0175828D01*
X0143000Y0176000D01*
X0115000Y0178500D02*
X0112500Y0176000D01*
X0107500Y0176000D01*
X0105000Y0178500D01*
X0102500Y0176000D01*
X0097500Y0176000D01*
X0095000Y0178500D01*
X0092500Y0176000D01*
X0087500Y0176000D01*
X0085000Y0178500D01*
X0082500Y0176000D01*
X0077500Y0176000D01*
X0075000Y0178500D01*
X0075000Y0183500D01*
X0077500Y0186000D01*
X0082500Y0186000D01*
X0085000Y0183500D01*
X0087500Y0186000D01*
X0092500Y0186000D01*
X0095000Y0183500D01*
X0097500Y0186000D01*
X0102500Y0186000D01*
X0105000Y0183500D01*
X0107500Y0186000D01*
X0112500Y0186000D01*
X0115000Y0183500D01*
X0115000Y0178500D01*
X0058937Y0158717D02*
X0058937Y0150449D01*
X0058937Y0158717D02*
X0016811Y0158717D01*
X0016811Y0123283D01*
X0037677Y0123283D01*
X0032500Y0086000D02*
X0017500Y0086000D01*
X0017500Y0046000D01*
X0015000Y0046000D01*
X0015000Y0086000D01*
X0017500Y0086000D01*
X0032500Y0086000D02*
X0032500Y0046000D01*
X0017500Y0046000D01*
X0097000Y0046000D02*
X0106500Y0046000D01*
X0106615Y0046001D01*
X0106730Y0045998D01*
X0106845Y0045991D01*
X0106960Y0045980D01*
X0107074Y0045965D01*
X0107188Y0045947D01*
X0107301Y0045925D01*
X0107414Y0045899D01*
X0107525Y0045869D01*
X0107635Y0045835D01*
X0107745Y0045798D01*
X0107852Y0045757D01*
X0107959Y0045712D01*
X0108063Y0045664D01*
X0108167Y0045612D01*
X0108268Y0045557D01*
X0108367Y0045498D01*
X0108465Y0045437D01*
X0108560Y0045371D01*
X0108653Y0045303D01*
X0108743Y0045232D01*
X0108831Y0045157D01*
X0108917Y0045080D01*
X0109000Y0045000D01*
X0109080Y0044917D01*
X0109157Y0044831D01*
X0109232Y0044743D01*
X0109303Y0044653D01*
X0109371Y0044560D01*
X0109437Y0044465D01*
X0109498Y0044367D01*
X0109557Y0044268D01*
X0109612Y0044167D01*
X0109664Y0044063D01*
X0109712Y0043959D01*
X0109757Y0043852D01*
X0109798Y0043745D01*
X0109835Y0043635D01*
X0109869Y0043525D01*
X0109899Y0043414D01*
X0109925Y0043301D01*
X0109947Y0043188D01*
X0109965Y0043074D01*
X0109980Y0042960D01*
X0109991Y0042845D01*
X0109998Y0042730D01*
X0110001Y0042615D01*
X0110000Y0042500D01*
X0110000Y0041000D01*
X0180000Y0038500D02*
X0182500Y0036000D01*
X0187500Y0036000D01*
X0190000Y0038500D01*
X0190000Y0043500D01*
X0187500Y0046000D01*
X0190000Y0048500D01*
X0190000Y0053500D01*
X0187500Y0056000D01*
X0190000Y0058500D01*
X0190000Y0063500D01*
X0187500Y0066000D01*
X0190000Y0068500D01*
X0190000Y0073500D01*
X0187500Y0076000D01*
X0182500Y0076000D01*
X0180000Y0073500D01*
X0180000Y0068500D01*
X0182500Y0066000D01*
X0180000Y0063500D01*
X0180000Y0058500D01*
X0182500Y0056000D01*
X0180000Y0053500D01*
X0180000Y0048500D01*
X0182500Y0046000D01*
X0180000Y0043500D01*
X0180000Y0038500D01*
D15*
X0114950Y0116050D02*
X0113449Y0116050D01*
X0113449Y0116801D01*
X0113699Y0117051D01*
X0114199Y0117051D01*
X0114450Y0116801D01*
X0114450Y0116050D01*
X0114450Y0116550D02*
X0114950Y0117051D01*
X0114700Y0117523D02*
X0114950Y0117773D01*
X0114950Y0118274D01*
X0114700Y0118524D01*
X0114450Y0118524D01*
X0114199Y0118274D01*
X0114199Y0118024D01*
X0114199Y0118274D02*
X0113949Y0118524D01*
X0113699Y0118524D01*
X0113449Y0118274D01*
X0113449Y0117773D01*
X0113699Y0117523D01*
X0099950Y0117523D02*
X0098949Y0118524D01*
X0098699Y0118524D01*
X0098449Y0118274D01*
X0098449Y0117773D01*
X0098699Y0117523D01*
X0098699Y0117051D02*
X0099199Y0117051D01*
X0099450Y0116801D01*
X0099450Y0116050D01*
X0099950Y0116050D02*
X0098449Y0116050D01*
X0098449Y0116801D01*
X0098699Y0117051D01*
X0099450Y0116550D02*
X0099950Y0117051D01*
X0099950Y0117523D02*
X0099950Y0118524D01*
X0084950Y0118524D02*
X0084950Y0117523D01*
X0084950Y0117051D02*
X0084450Y0116550D01*
X0084450Y0116801D02*
X0084450Y0116050D01*
X0084950Y0116050D02*
X0083449Y0116050D01*
X0083449Y0116801D01*
X0083699Y0117051D01*
X0084199Y0117051D01*
X0084450Y0116801D01*
X0083949Y0117523D02*
X0083449Y0118024D01*
X0084950Y0118024D01*
X0074950Y0136050D02*
X0073449Y0136050D01*
X0073449Y0136801D01*
X0073699Y0137051D01*
X0074199Y0137051D01*
X0074450Y0136801D01*
X0074450Y0136050D01*
X0074450Y0136550D02*
X0074950Y0137051D01*
X0074199Y0137523D02*
X0074199Y0138524D01*
X0073449Y0138274D02*
X0074199Y0137523D01*
X0073449Y0138274D02*
X0074950Y0138274D01*
X0063524Y0103551D02*
X0063524Y0102050D01*
X0064024Y0102050D02*
X0063023Y0102050D01*
X0062551Y0102300D02*
X0062301Y0102050D01*
X0061800Y0102050D01*
X0061550Y0102300D01*
X0061550Y0103301D01*
X0061800Y0103551D01*
X0062301Y0103551D01*
X0062551Y0103301D01*
X0063023Y0103051D02*
X0063524Y0103551D01*
X0063773Y0079051D02*
X0063523Y0078801D01*
X0063773Y0079051D02*
X0064274Y0079051D01*
X0064524Y0078801D01*
X0064524Y0078551D01*
X0063523Y0077550D01*
X0064524Y0077550D01*
X0063051Y0077800D02*
X0062801Y0077550D01*
X0062300Y0077550D01*
X0062050Y0077800D01*
X0062050Y0078801D01*
X0062300Y0079051D01*
X0062801Y0079051D01*
X0063051Y0078801D01*
X0026550Y0149175D02*
X0026550Y0149675D01*
X0026550Y0149425D02*
X0025049Y0149425D01*
X0025049Y0149175D02*
X0025049Y0149675D01*
X0025049Y0150157D02*
X0026550Y0151158D01*
X0025049Y0151158D01*
X0025049Y0151630D02*
X0025049Y0152381D01*
X0025299Y0152631D01*
X0025799Y0152631D01*
X0026050Y0152381D01*
X0026050Y0151630D01*
X0026550Y0151630D02*
X0025049Y0151630D01*
X0025049Y0150157D02*
X0026550Y0150157D01*
X0026300Y0153103D02*
X0025049Y0153103D01*
X0025049Y0154104D02*
X0026300Y0154104D01*
X0026550Y0153854D01*
X0026550Y0153354D01*
X0026300Y0153103D01*
X0025049Y0154577D02*
X0025049Y0155578D01*
X0025049Y0155077D02*
X0026550Y0155077D01*
D16*
X0101738Y0169801D02*
X0102489Y0169050D01*
X0103239Y0169050D01*
X0103990Y0169801D01*
X0103990Y0173554D01*
X0103239Y0173554D02*
X0104741Y0173554D01*
X0106342Y0173554D02*
X0108594Y0173554D01*
X0109345Y0172803D01*
X0109345Y0171302D01*
X0108594Y0170551D01*
X0106342Y0170551D01*
X0106342Y0169050D02*
X0106342Y0173554D01*
X0110946Y0172053D02*
X0112447Y0173554D01*
X0112447Y0169050D01*
X0110946Y0169050D02*
X0113949Y0169050D01*
X0131496Y0156000D02*
X0200000Y0156000D01*
X0200000Y0107969D01*
X0131496Y0107969D01*
X0131496Y0156000D01*
X0132283Y0145764D02*
X0132283Y0126866D01*
X0151969Y0126866D01*
X0151969Y0145764D01*
X0132283Y0145764D01*
X0157480Y0145764D02*
X0157480Y0126866D01*
X0177165Y0126866D01*
X0177165Y0145764D01*
X0157480Y0145764D01*
X0156693Y0122929D02*
X0146457Y0122929D01*
X0146457Y0113480D01*
X0156693Y0113480D01*
X0156693Y0122929D01*
X0173797Y0069645D02*
X0175298Y0069645D01*
X0176049Y0068895D01*
X0176049Y0066643D01*
X0177550Y0066643D02*
X0173046Y0066643D01*
X0173046Y0068895D01*
X0173797Y0069645D01*
X0173046Y0065075D02*
X0173046Y0063574D01*
X0173046Y0064324D02*
X0177550Y0064324D01*
X0177550Y0063574D02*
X0177550Y0065075D01*
X0177550Y0061972D02*
X0176049Y0060471D01*
X0176049Y0061222D02*
X0176049Y0058970D01*
X0177550Y0058970D02*
X0173046Y0058970D01*
X0173046Y0061222D01*
X0173797Y0061972D01*
X0175298Y0061972D01*
X0176049Y0061222D01*
X0173046Y0057368D02*
X0173046Y0054366D01*
X0173046Y0055867D02*
X0177550Y0055867D01*
X0176799Y0052764D02*
X0177550Y0052014D01*
X0177550Y0050512D01*
X0176799Y0049762D01*
X0176799Y0048160D02*
X0173797Y0048160D01*
X0173046Y0047410D01*
X0173046Y0045158D01*
X0177550Y0045158D01*
X0177550Y0047410D01*
X0176799Y0048160D01*
X0174547Y0049762D02*
X0175298Y0050512D01*
X0175298Y0052014D01*
X0176049Y0052764D01*
X0176799Y0052764D01*
X0174547Y0049762D02*
X0173797Y0049762D01*
X0173046Y0050512D01*
X0173046Y0052014D01*
X0173797Y0052764D01*
X0173046Y0043556D02*
X0173046Y0040554D01*
X0177550Y0040554D01*
X0177550Y0043556D01*
X0175298Y0042055D02*
X0175298Y0040554D01*
X0177550Y0038953D02*
X0177550Y0035950D01*
X0173046Y0035950D01*
X0126250Y0022106D02*
X0126250Y0020605D01*
X0125499Y0019854D01*
X0125499Y0018253D02*
X0126250Y0017502D01*
X0126250Y0016001D01*
X0125499Y0015250D01*
X0122497Y0015250D01*
X0121746Y0016001D01*
X0121746Y0017502D01*
X0122497Y0018253D01*
X0125499Y0018253D01*
X0126250Y0018253D02*
X0124749Y0016751D01*
X0122497Y0019854D02*
X0121746Y0020605D01*
X0121746Y0022106D01*
X0122497Y0022856D01*
X0123247Y0022856D01*
X0123998Y0022106D01*
X0124749Y0022856D01*
X0125499Y0022856D01*
X0126250Y0022106D01*
X0123998Y0022106D02*
X0123998Y0021355D01*
X0091250Y0019854D02*
X0088247Y0022856D01*
X0087497Y0022856D01*
X0086746Y0022106D01*
X0086746Y0020605D01*
X0087497Y0019854D01*
X0087497Y0018253D02*
X0090499Y0018253D01*
X0091250Y0017502D01*
X0091250Y0016001D01*
X0090499Y0015250D01*
X0087497Y0015250D01*
X0086746Y0016001D01*
X0086746Y0017502D01*
X0087497Y0018253D01*
X0089749Y0016751D02*
X0091250Y0018253D01*
X0091250Y0019854D02*
X0091250Y0022856D01*
X0056250Y0022856D02*
X0056250Y0019854D01*
X0056250Y0021355D02*
X0051746Y0021355D01*
X0053247Y0019854D01*
X0052497Y0018253D02*
X0055499Y0018253D01*
X0056250Y0017502D01*
X0056250Y0016001D01*
X0055499Y0015250D01*
X0052497Y0015250D01*
X0051746Y0016001D01*
X0051746Y0017502D01*
X0052497Y0018253D01*
X0054749Y0016751D02*
X0056250Y0018253D01*
X0140250Y0191250D02*
X0140250Y0195754D01*
X0142502Y0195754D01*
X0143253Y0195003D01*
X0143253Y0193502D01*
X0142502Y0192751D01*
X0140250Y0192751D01*
X0144854Y0192751D02*
X0147106Y0192751D01*
X0147856Y0193502D01*
X0147856Y0195003D01*
X0147106Y0195754D01*
X0144854Y0195754D01*
X0144854Y0191250D01*
X0146355Y0192751D02*
X0147856Y0191250D01*
X0149458Y0192001D02*
X0150208Y0191250D01*
X0151710Y0191250D01*
X0152460Y0192001D01*
X0152460Y0195003D01*
X0151710Y0195754D01*
X0150208Y0195754D01*
X0149458Y0195003D01*
X0149458Y0192001D01*
X0154062Y0192001D02*
X0154062Y0195003D01*
X0154812Y0195754D01*
X0156314Y0195754D01*
X0157064Y0195003D01*
X0157064Y0193502D02*
X0155563Y0193502D01*
X0157064Y0193502D02*
X0157064Y0192001D01*
X0156314Y0191250D01*
X0154812Y0191250D01*
X0154062Y0192001D01*
X0158666Y0192751D02*
X0160918Y0192751D01*
X0161668Y0193502D01*
X0161668Y0195003D01*
X0160918Y0195754D01*
X0158666Y0195754D01*
X0158666Y0191250D01*
X0160167Y0192751D02*
X0161668Y0191250D01*
X0163270Y0191250D02*
X0163270Y0194253D01*
X0164771Y0195754D01*
X0166272Y0194253D01*
X0166272Y0191250D01*
X0167874Y0191250D02*
X0167874Y0195754D01*
X0169375Y0194253D01*
X0170876Y0195754D01*
X0170876Y0191250D01*
X0166272Y0193502D02*
X0163270Y0193502D01*
D17*
X0130000Y0026000D03*
X0095000Y0026000D03*
X0060000Y0026000D03*
D18*
X0193701Y0132378D03*
M02*
