%
M48
M72
T01C0.0120
T02C0.0360
T03C0.0394
T04C0.0400
T05C0.0520
T06C0.1102
T07C0.1260
%
T01
X18020Y7000
X14027Y16818
X14775Y5282
X16133Y10361
X16074Y10834
X15248Y4633
X15287Y5164
X18220Y7782
X16488Y4101
X16291Y9790
X14106Y9790
X13082Y10814
X16606Y9790
X13555Y10656
X13082Y11129
X13850Y8885
X14460Y10263
X14106Y9082
X17669Y6082
X16822Y4101
X16901Y4436
X15326Y8216
X12984Y9219
X15090Y8412
X11941Y10027
X14893Y7901
X12866Y6011
X12078Y5912
X11704Y10911
X14854Y7330
X12767Y5007
X11760Y5440
X11662Y12979
X13594Y11070
T02
X10676Y13258
X10676Y14258
T03
X6960Y20558
X6960Y21558
X7960Y20558
X7960Y21558
X8960Y20558
X8960Y21558
X9960Y20558
X9960Y21558
X10960Y20558
X10960Y21558
X11960Y20558
X11960Y21558
X12960Y20558
X12960Y21558
X13960Y20558
X13960Y21558
X14960Y20558
X14960Y21558
X15960Y20558
X15960Y21558
X16960Y20558
X16960Y21558
X17960Y20558
X17960Y21558
X18960Y20558
X18960Y21558
X10960Y19558
X11960Y19558
X8960Y18558
X8960Y19558
X9960Y18558
X9960Y19558
X10960Y18558
X11960Y18558
X16960Y1558
X16960Y2558
T04
X26826Y21308
X27826Y21308
X28826Y21308
X7276Y14558
X7276Y13558
X7276Y12558
X7276Y11558
X7276Y15958
X7276Y16958
X7276Y17958
X7276Y18958
X24476Y2258
X25476Y2258
X24476Y3258
X25476Y3258
X24476Y4258
X25476Y4258
X12426Y14558
X12526Y13558
X12426Y12558
X12526Y11558
X12426Y10558
X12526Y9558
X12426Y8558
X12526Y7558
X12426Y6558
X12526Y5558
X12426Y4558
X12526Y3558
X12426Y2558
X12526Y1558
T05
X22476Y10558
T06
X7370Y8558
X8708Y6668
T07
X9830Y8558
M30
