G75*
%MOIN*%
%OFA0B0*%
%FSLAX24Y24*%
%IPPOS*%
%LPD*%
%AMOC8*
5,1,8,0,0,1.08239X$1,22.5*
%
%ADD10C,0.0000*%
%ADD11R,0.0315X0.0315*%
%ADD12R,0.0591X0.0512*%
%ADD13R,0.1181X0.0591*%
%ADD14R,0.0512X0.0591*%
%ADD15R,0.0460X0.0630*%
%ADD16R,0.0630X0.0709*%
D10*
X005976Y000558D02*
X029476Y000558D01*
X029476Y005558D01*
X023476Y005558D01*
X023476Y011558D01*
X013476Y011558D01*
X013476Y016058D01*
X029376Y016058D01*
X029376Y022658D01*
X026176Y022658D01*
X026176Y017658D01*
X021776Y017658D01*
X021776Y022558D01*
X005976Y022558D01*
X005976Y000558D01*
D11*
X018581Y003358D03*
X019171Y003358D03*
X009871Y010858D03*
X009281Y010858D03*
D12*
X010476Y011184D03*
X010476Y011932D03*
D13*
X016114Y009314D03*
X016114Y008527D03*
X016114Y007739D03*
X016114Y006952D03*
X016114Y006164D03*
X016114Y005377D03*
X016114Y004590D03*
X022413Y004590D03*
X022413Y005377D03*
X022413Y006164D03*
X022413Y006952D03*
X022413Y007739D03*
X022413Y008527D03*
X022413Y009314D03*
D14*
X017850Y003558D03*
X017102Y003558D03*
D15*
X017176Y011058D03*
X017776Y011058D03*
D16*
X015527Y011058D03*
X014425Y011058D03*
X014527Y004458D03*
X013425Y004458D03*
M02*
