G75*
%MOIN*%
%OFA0B0*%
%FSLAX24Y24*%
%IPPOS*%
%LPD*%
%AMOC8*
5,1,8,0,0,1.08239X$1,22.5*
%
%ADD10C,0.0000*%
%ADD11R,0.0500X0.0220*%
%ADD12R,0.0220X0.0500*%
%ADD13R,0.0630X0.0710*%
%ADD14R,0.0709X0.0630*%
D10*
X005976Y000558D02*
X029476Y000558D01*
X029476Y005558D01*
X023476Y005558D01*
X023476Y011558D01*
X013476Y011558D01*
X013476Y016058D01*
X029376Y016058D01*
X029376Y022658D01*
X026176Y022658D01*
X026176Y017658D01*
X021776Y017658D01*
X021776Y022558D01*
X005976Y022558D01*
X005976Y000558D01*
D11*
X015286Y005456D03*
X015286Y005771D03*
X015286Y006086D03*
X015286Y006401D03*
X015286Y006716D03*
X015286Y007031D03*
X015286Y007345D03*
X015286Y007660D03*
X018666Y007660D03*
X018666Y007345D03*
X018666Y007031D03*
X018666Y006716D03*
X018666Y006401D03*
X018666Y006086D03*
X018666Y005771D03*
X018666Y005456D03*
D12*
X018078Y004868D03*
X017763Y004868D03*
X017448Y004868D03*
X017133Y004868D03*
X016819Y004868D03*
X016504Y004868D03*
X016189Y004868D03*
X015874Y004868D03*
X015874Y008248D03*
X016189Y008248D03*
X016504Y008248D03*
X016819Y008248D03*
X017133Y008248D03*
X017448Y008248D03*
X017763Y008248D03*
X018078Y008248D03*
D13*
X014536Y017058D03*
X013416Y017058D03*
D14*
X018476Y002609D03*
X019476Y002609D03*
X019476Y001507D03*
X018476Y001507D03*
M02*
