G75*
%MOIN*%
%OFA0B0*%
%FSLAX24Y24*%
%IPPOS*%
%LPD*%
%AMOC8*
5,1,8,0,0,1.08239X$1,22.5*
%
%ADD10C,0.0000*%
%ADD11C,0.0160*%
%ADD12C,0.0030*%
%ADD13C,0.0050*%
%ADD14C,0.0040*%
%ADD15C,0.0060*%
%ADD16C,0.0080*%
%ADD17R,0.0098X0.0098*%
%ADD18C,0.0020*%
%ADD19C,0.0010*%
D10*
X005976Y000558D02*
X029476Y000558D01*
X029476Y005558D01*
X023476Y005558D01*
X023476Y011558D01*
X013476Y011558D01*
X013476Y016058D01*
X029376Y016058D01*
X029376Y022658D01*
X026176Y022658D01*
X026176Y017658D01*
X021776Y017658D01*
X021776Y022558D01*
X005976Y022558D01*
X005976Y000558D01*
D11*
X006476Y010958D02*
X007724Y010958D01*
X007813Y010995D02*
X007976Y011158D01*
X007978Y011175D01*
X007982Y011192D01*
X007989Y011208D01*
X007999Y011222D01*
X008012Y011235D01*
X008026Y011245D01*
X008042Y011252D01*
X008059Y011256D01*
X008076Y011258D01*
X009976Y011258D01*
X009976Y014933D01*
X009976Y015183D02*
X009976Y019958D01*
X009974Y019975D01*
X009970Y019992D01*
X009963Y020008D01*
X009953Y020022D01*
X009940Y020035D01*
X009926Y020045D01*
X009910Y020052D01*
X009893Y020056D01*
X009876Y020058D01*
X006476Y020058D01*
X006476Y015058D02*
X011351Y015058D01*
X007812Y010995D02*
X007797Y010982D01*
X007781Y010972D01*
X007763Y010964D01*
X007744Y010960D01*
X007724Y010958D01*
X026176Y018858D02*
X029176Y018858D01*
X029193Y018860D01*
X029210Y018864D01*
X029226Y018871D01*
X029240Y018881D01*
X029253Y018894D01*
X029263Y018908D01*
X029270Y018924D01*
X029274Y018941D01*
X029276Y018958D01*
X029276Y020758D01*
X026176Y020758D02*
X026176Y018858D01*
D12*
X026511Y019103D02*
X026608Y019103D01*
X026559Y019103D02*
X026559Y019393D01*
X026511Y019393D02*
X026608Y019393D01*
X026707Y019393D02*
X026853Y019393D01*
X026901Y019345D01*
X026901Y019248D01*
X026853Y019200D01*
X026707Y019200D01*
X026707Y019103D02*
X026707Y019393D01*
X026804Y019200D02*
X026901Y019103D01*
X027002Y019103D02*
X027002Y019393D01*
X027147Y019393D01*
X027196Y019345D01*
X027196Y019248D01*
X027147Y019200D01*
X027002Y019200D01*
X027099Y019200D02*
X027196Y019103D01*
X027297Y019103D02*
X027297Y019393D01*
X027490Y019393D01*
X027591Y019345D02*
X027591Y019151D01*
X027640Y019103D01*
X027736Y019103D01*
X027785Y019151D01*
X027886Y019103D02*
X027886Y019393D01*
X028080Y019393D01*
X028181Y019393D02*
X028277Y019393D01*
X028229Y019393D02*
X028229Y019103D01*
X028181Y019103D02*
X028277Y019103D01*
X028377Y019200D02*
X028474Y019103D01*
X028571Y019200D01*
X028571Y019393D01*
X028672Y019393D02*
X028672Y019103D01*
X028865Y019103D01*
X028966Y019103D02*
X028966Y019393D01*
X029112Y019393D01*
X029160Y019345D01*
X029160Y019248D01*
X029112Y019200D01*
X028966Y019200D01*
X029063Y019200D02*
X029160Y019103D01*
X028865Y019393D02*
X028672Y019393D01*
X028672Y019248D02*
X028769Y019248D01*
X028377Y019200D02*
X028377Y019393D01*
X028080Y019103D02*
X027886Y019103D01*
X027886Y019248D02*
X027983Y019248D01*
X027785Y019345D02*
X027736Y019393D01*
X027640Y019393D01*
X027591Y019345D01*
X027393Y019248D02*
X027297Y019248D01*
X027297Y019103D02*
X027490Y019103D01*
X027639Y019689D02*
X027833Y019689D01*
X027881Y019737D01*
X027881Y019834D01*
X027833Y019883D01*
X027736Y019883D01*
X027736Y019786D01*
X027639Y019883D02*
X027591Y019834D01*
X027591Y019737D01*
X027639Y019689D01*
X027591Y019984D02*
X027881Y020177D01*
X027591Y020177D01*
X027591Y020278D02*
X027591Y020424D01*
X027639Y020472D01*
X027833Y020472D01*
X027881Y020424D01*
X027881Y020278D01*
X027591Y020278D01*
X027591Y019984D02*
X027881Y019984D01*
X028591Y020032D02*
X028639Y019984D01*
X028833Y019984D01*
X028881Y020032D01*
X028881Y020129D01*
X028833Y020177D01*
X028833Y020278D02*
X028881Y020327D01*
X028881Y020424D01*
X028833Y020472D01*
X028833Y020278D02*
X028639Y020278D01*
X028591Y020327D01*
X028591Y020424D01*
X028639Y020472D01*
X028639Y020177D02*
X028591Y020129D01*
X028591Y020032D01*
X028591Y019883D02*
X028784Y019883D01*
X028881Y019786D01*
X028784Y019689D01*
X028591Y019689D01*
X026881Y019689D02*
X026881Y019834D01*
X026833Y019883D01*
X026639Y019883D01*
X026591Y019834D01*
X026591Y019689D01*
X026881Y019689D01*
X026881Y019984D02*
X026687Y019984D01*
X026591Y020081D01*
X026687Y020177D01*
X026881Y020177D01*
X026736Y020177D02*
X026736Y019984D01*
X026591Y020278D02*
X026591Y020472D01*
X026591Y020375D02*
X026881Y020375D01*
X013961Y011261D02*
X013961Y011068D01*
X013961Y011164D02*
X013671Y011164D01*
X013767Y011068D01*
X013719Y010967D02*
X013671Y010918D01*
X013671Y010821D01*
X013719Y010773D01*
X013913Y010773D01*
X013961Y010821D01*
X013961Y010918D01*
X013913Y010967D01*
X014491Y010567D02*
X014588Y010663D01*
X014588Y010373D01*
X014684Y010373D02*
X014491Y010373D01*
X014786Y010421D02*
X014786Y010615D01*
X014834Y010663D01*
X014931Y010663D01*
X014979Y010615D01*
X014786Y010421D01*
X014834Y010373D01*
X014931Y010373D01*
X014979Y010421D01*
X014979Y010615D01*
X015080Y010615D02*
X015129Y010663D01*
X015225Y010663D01*
X015274Y010615D01*
X015080Y010421D01*
X015129Y010373D01*
X015225Y010373D01*
X015274Y010421D01*
X015274Y010615D01*
X015375Y010567D02*
X015520Y010567D01*
X015568Y010518D01*
X015568Y010373D01*
X015375Y010373D02*
X015375Y010567D01*
X015080Y010615D02*
X015080Y010421D01*
X011261Y010773D02*
X010971Y010773D01*
X010971Y010918D01*
X011019Y010967D01*
X011116Y010967D01*
X011164Y010918D01*
X011164Y010773D01*
X011164Y010870D02*
X011261Y010967D01*
X011261Y011068D02*
X011067Y011261D01*
X011019Y011261D01*
X010971Y011213D01*
X010971Y011116D01*
X011019Y011068D01*
X011261Y011068D02*
X011261Y011261D01*
X011268Y012373D02*
X011172Y012470D01*
X011220Y012470D02*
X011075Y012470D01*
X011075Y012373D02*
X011075Y012663D01*
X011220Y012663D01*
X011268Y012615D01*
X011268Y012518D01*
X011220Y012470D01*
X010974Y012421D02*
X010974Y012615D01*
X010780Y012421D01*
X010829Y012373D01*
X010925Y012373D01*
X010974Y012421D01*
X010780Y012421D02*
X010780Y012615D01*
X010829Y012663D01*
X010925Y012663D01*
X010974Y012615D01*
X010679Y012615D02*
X010679Y012567D01*
X010631Y012518D01*
X010534Y012518D01*
X010486Y012567D01*
X010486Y012615D01*
X010534Y012663D01*
X010631Y012663D01*
X010679Y012615D01*
X010631Y012518D02*
X010679Y012470D01*
X010679Y012421D01*
X010631Y012373D01*
X010534Y012373D01*
X010486Y012421D01*
X010486Y012470D01*
X010534Y012518D01*
X010384Y012470D02*
X010336Y012518D01*
X010191Y012518D01*
X010191Y012421D01*
X010239Y012373D01*
X010336Y012373D01*
X010384Y012421D01*
X010384Y012470D01*
X010288Y012615D02*
X010191Y012518D01*
X010288Y012615D02*
X010384Y012663D01*
X008774Y012573D02*
X008629Y012718D01*
X008580Y012670D02*
X008774Y012863D01*
X008580Y012863D02*
X008580Y012573D01*
X008479Y012573D02*
X008286Y012573D01*
X008286Y012863D01*
X008184Y012815D02*
X008136Y012863D01*
X008039Y012863D01*
X007991Y012815D01*
X007991Y012621D01*
X008039Y012573D01*
X008136Y012573D01*
X008184Y012621D01*
X008136Y011863D02*
X008039Y011863D01*
X007991Y011815D01*
X007991Y011621D01*
X008039Y011573D01*
X008136Y011573D01*
X008184Y011621D01*
X008184Y011718D01*
X008088Y011718D01*
X008184Y011815D02*
X008136Y011863D01*
X008286Y011863D02*
X008479Y011573D01*
X008479Y011863D01*
X008580Y011863D02*
X008725Y011863D01*
X008774Y011815D01*
X008774Y011621D01*
X008725Y011573D01*
X008580Y011573D01*
X008580Y011863D01*
X008286Y011863D02*
X008286Y011573D01*
X008301Y011043D02*
X008107Y011043D01*
X008107Y010753D01*
X008301Y010753D01*
X008402Y010753D02*
X008547Y010753D01*
X008595Y010801D01*
X008595Y010995D01*
X008547Y011043D01*
X008402Y011043D01*
X008402Y010753D01*
X008204Y010898D02*
X008107Y010898D01*
X008006Y010753D02*
X007812Y010753D01*
X007812Y011043D01*
X008696Y010995D02*
X008745Y011043D01*
X008841Y011043D01*
X008890Y010995D01*
X008890Y010947D01*
X008696Y010753D01*
X008890Y010753D01*
X008382Y013573D02*
X008286Y013573D01*
X008334Y013573D02*
X008334Y013863D01*
X008286Y013863D02*
X008382Y013863D01*
X008184Y013815D02*
X008136Y013863D01*
X007991Y013863D01*
X007991Y013573D01*
X008136Y013573D01*
X008184Y013621D01*
X008184Y013815D01*
X008088Y014573D02*
X008184Y014670D01*
X008184Y014863D01*
X008286Y014815D02*
X008286Y014621D01*
X008334Y014573D01*
X008431Y014573D01*
X008479Y014621D01*
X008580Y014621D02*
X008629Y014573D01*
X008725Y014573D01*
X008774Y014621D01*
X008580Y014621D02*
X008580Y014815D01*
X008629Y014863D01*
X008725Y014863D01*
X008774Y014815D01*
X008479Y014815D02*
X008431Y014863D01*
X008334Y014863D01*
X008286Y014815D01*
X007991Y014863D02*
X007991Y014670D01*
X008088Y014573D01*
X008039Y016073D02*
X008136Y016073D01*
X008184Y016121D01*
X008184Y016218D01*
X008088Y016218D01*
X008184Y016315D02*
X008136Y016363D01*
X008039Y016363D01*
X007991Y016315D01*
X007991Y016121D01*
X008039Y016073D01*
X008286Y016073D02*
X008286Y016363D01*
X008479Y016073D01*
X008479Y016363D01*
X008580Y016363D02*
X008580Y016073D01*
X008725Y016073D01*
X008774Y016121D01*
X008774Y016315D01*
X008725Y016363D01*
X008580Y016363D01*
X008580Y017073D02*
X008580Y017267D01*
X008677Y017363D01*
X008774Y017267D01*
X008774Y017073D01*
X008774Y017218D02*
X008580Y017218D01*
X008479Y017121D02*
X008479Y017315D01*
X008431Y017363D01*
X008286Y017363D01*
X008286Y017073D01*
X008431Y017073D01*
X008479Y017121D01*
X008184Y017121D02*
X008136Y017073D01*
X008039Y017073D01*
X007991Y017121D01*
X008039Y017218D02*
X008136Y017218D01*
X008184Y017170D01*
X008184Y017121D01*
X008039Y017218D02*
X007991Y017267D01*
X007991Y017315D01*
X008039Y017363D01*
X008136Y017363D01*
X008184Y017315D01*
X008136Y018073D02*
X008039Y018073D01*
X007991Y018121D01*
X007991Y018315D01*
X008039Y018363D01*
X008136Y018363D01*
X008184Y018315D01*
X008184Y018218D02*
X008088Y018218D01*
X008184Y018218D02*
X008184Y018121D01*
X008136Y018073D01*
X008286Y018073D02*
X008286Y018363D01*
X008479Y018073D01*
X008479Y018363D01*
X008580Y018363D02*
X008580Y018073D01*
X008725Y018073D01*
X008774Y018121D01*
X008774Y018315D01*
X008725Y018363D01*
X008580Y018363D01*
X008629Y019073D02*
X008725Y019073D01*
X008774Y019121D01*
X008629Y019073D02*
X008580Y019121D01*
X008580Y019315D01*
X008629Y019363D01*
X008725Y019363D01*
X008774Y019315D01*
X008479Y019315D02*
X008431Y019363D01*
X008334Y019363D01*
X008286Y019315D01*
X008286Y019121D01*
X008334Y019073D01*
X008431Y019073D01*
X008479Y019121D01*
X008184Y019170D02*
X008184Y019363D01*
X007991Y019363D02*
X007991Y019170D01*
X008088Y019073D01*
X008184Y019170D01*
X021491Y010975D02*
X021781Y010975D01*
X021781Y010878D02*
X021781Y011072D01*
X021587Y010878D02*
X021491Y010975D01*
X021491Y010777D02*
X021491Y010584D01*
X021491Y010681D02*
X021781Y010681D01*
X021781Y010483D02*
X021491Y010483D01*
X021491Y010289D02*
X021781Y010483D01*
X021781Y010289D02*
X021491Y010289D01*
X021587Y010188D02*
X021781Y010188D01*
X021636Y010188D02*
X021636Y009994D01*
X021587Y009994D02*
X021491Y010091D01*
X021587Y010188D01*
X021587Y009994D02*
X021781Y009994D01*
X013841Y005243D02*
X013696Y005098D01*
X013890Y005098D01*
X013841Y004953D02*
X013841Y005243D01*
X013595Y005195D02*
X013547Y005243D01*
X013450Y005243D01*
X013402Y005195D01*
X013402Y005001D01*
X013450Y004953D01*
X013547Y004953D01*
X013595Y005001D01*
X014136Y003963D02*
X013991Y003818D01*
X014184Y003818D01*
X014136Y003673D02*
X014136Y003963D01*
X014334Y003721D02*
X014334Y003673D01*
X014382Y003673D01*
X014382Y003721D01*
X014334Y003721D01*
X014382Y003673D02*
X014286Y003576D01*
X014482Y003673D02*
X014482Y003721D01*
X014676Y003915D01*
X014676Y003963D01*
X014482Y003963D01*
X014825Y003818D02*
X014825Y003721D01*
X014825Y003625D01*
X014777Y003576D01*
X014873Y003673D02*
X014922Y003673D01*
X014970Y003721D01*
X014970Y003818D01*
X015071Y003818D02*
X015168Y003818D01*
X015071Y003673D02*
X015071Y003963D01*
X015265Y003963D01*
X014873Y003673D02*
X014825Y003721D01*
X015857Y003398D02*
X016002Y003398D01*
X016051Y003350D01*
X016051Y003301D01*
X016002Y003253D01*
X015905Y003253D01*
X015857Y003301D01*
X015857Y003398D01*
X015954Y003495D01*
X016051Y003543D01*
X016152Y003495D02*
X016200Y003543D01*
X016297Y003543D01*
X016345Y003495D01*
X016345Y003447D01*
X016297Y003398D01*
X016200Y003398D01*
X016152Y003447D01*
X016152Y003495D01*
X016200Y003398D02*
X016152Y003350D01*
X016152Y003301D01*
X016200Y003253D01*
X016297Y003253D01*
X016345Y003301D01*
X016345Y003350D01*
X016297Y003398D01*
X016446Y003301D02*
X016640Y003495D01*
X016640Y003301D01*
X016591Y003253D01*
X016495Y003253D01*
X016446Y003301D01*
X016446Y003495D01*
X016495Y003543D01*
X016591Y003543D01*
X016640Y003495D01*
X017652Y003043D02*
X017797Y003043D01*
X017845Y002995D01*
X017845Y002898D01*
X017797Y002850D01*
X017652Y002850D01*
X017748Y002850D02*
X017845Y002753D01*
X017946Y002801D02*
X017995Y002753D01*
X018091Y002753D01*
X018140Y002801D01*
X018140Y002850D01*
X018091Y002898D01*
X018043Y002898D01*
X018091Y002898D02*
X018140Y002947D01*
X018140Y002995D01*
X018091Y003043D01*
X017995Y003043D01*
X017946Y002995D01*
X017652Y003043D02*
X017652Y002753D01*
X019691Y003423D02*
X019691Y003713D01*
X019836Y003713D01*
X019884Y003665D01*
X019884Y003568D01*
X019836Y003520D01*
X019691Y003520D01*
X019986Y003568D02*
X020131Y003568D01*
X020179Y003520D01*
X020179Y003471D01*
X020131Y003423D01*
X019986Y003423D01*
X019986Y003713D01*
X020131Y003713D01*
X020179Y003665D01*
X020179Y003617D01*
X020131Y003568D01*
X020280Y003617D02*
X020377Y003713D01*
X020377Y003423D01*
X020280Y003423D02*
X020474Y003423D01*
X011694Y002620D02*
X011549Y002523D01*
X011694Y002427D01*
X011549Y002427D02*
X011549Y002717D01*
X011448Y002620D02*
X011303Y002620D01*
X011255Y002572D01*
X011255Y002475D01*
X011303Y002427D01*
X011448Y002427D01*
X011153Y002523D02*
X010960Y002523D01*
X010960Y002475D02*
X010960Y002572D01*
X011008Y002620D01*
X011105Y002620D01*
X011153Y002572D01*
X011153Y002523D01*
X011105Y002427D02*
X011008Y002427D01*
X010960Y002475D01*
X010859Y002427D02*
X010859Y002572D01*
X010810Y002620D01*
X010714Y002620D01*
X010665Y002572D01*
X010564Y002669D02*
X010516Y002717D01*
X010419Y002717D01*
X010371Y002669D01*
X010371Y002475D01*
X010419Y002427D01*
X010516Y002427D01*
X010564Y002475D01*
X010665Y002427D02*
X010665Y002717D01*
X010663Y002878D02*
X010566Y002878D01*
X010518Y002926D01*
X010518Y003023D01*
X010566Y003071D01*
X010663Y003071D01*
X010711Y003023D01*
X010711Y002926D01*
X010663Y002878D01*
X010813Y002926D02*
X010861Y002878D01*
X010909Y002926D01*
X010958Y002878D01*
X011006Y002926D01*
X011006Y003071D01*
X011107Y003023D02*
X011156Y003071D01*
X011252Y003071D01*
X011301Y003023D01*
X011301Y002975D01*
X011107Y002975D01*
X011107Y003023D02*
X011107Y002926D01*
X011156Y002878D01*
X011252Y002878D01*
X011402Y002878D02*
X011402Y003071D01*
X011402Y002975D02*
X011499Y003071D01*
X011547Y003071D01*
X011154Y003523D02*
X011106Y003523D01*
X011009Y003426D01*
X011009Y003329D02*
X011009Y003523D01*
X010908Y003474D02*
X010908Y003426D01*
X010714Y003426D01*
X010714Y003474D02*
X010763Y003523D01*
X010859Y003523D01*
X010908Y003474D01*
X010859Y003329D02*
X010763Y003329D01*
X010714Y003377D01*
X010714Y003474D01*
X010613Y003474D02*
X010613Y003377D01*
X010565Y003329D01*
X010420Y003329D01*
X010420Y003232D02*
X010420Y003523D01*
X010565Y003523D01*
X010613Y003474D01*
X010319Y003474D02*
X010319Y003329D01*
X010222Y003329D02*
X010222Y003474D01*
X010270Y003523D01*
X010319Y003474D01*
X010222Y003474D02*
X010173Y003523D01*
X010125Y003523D01*
X010125Y003329D01*
X010024Y003329D02*
X010024Y003523D01*
X009830Y003523D02*
X009830Y003377D01*
X009879Y003329D01*
X010024Y003329D01*
X010223Y003168D02*
X010368Y003168D01*
X010417Y003120D01*
X010417Y003023D01*
X010368Y002975D01*
X010223Y002975D01*
X010223Y002878D02*
X010223Y003168D01*
X009829Y003071D02*
X009732Y003071D01*
X009781Y003120D02*
X009781Y002926D01*
X009829Y002878D01*
X009631Y002878D02*
X009486Y002878D01*
X009438Y002926D01*
X009438Y003023D01*
X009486Y003071D01*
X009631Y003071D01*
X009632Y003329D02*
X009681Y003377D01*
X009681Y003619D01*
X009729Y003619D02*
X009632Y003619D01*
X009583Y003780D02*
X009535Y003829D01*
X009535Y004022D01*
X009487Y003974D02*
X009583Y003974D01*
X009385Y003974D02*
X009240Y003974D01*
X009192Y003925D01*
X009240Y003877D01*
X009337Y003877D01*
X009385Y003829D01*
X009337Y003780D01*
X009192Y003780D01*
X009092Y003619D02*
X008946Y003619D01*
X008946Y003329D01*
X008946Y003426D02*
X009092Y003426D01*
X009140Y003474D01*
X009140Y003571D01*
X009092Y003619D01*
X009043Y003426D02*
X009140Y003329D01*
X009191Y003071D02*
X009288Y003071D01*
X009336Y003023D01*
X009336Y002975D01*
X009143Y002975D01*
X009143Y003023D02*
X009191Y003071D01*
X009143Y003023D02*
X009143Y002926D01*
X009191Y002878D01*
X009288Y002878D01*
X009486Y002765D02*
X009486Y002717D01*
X009486Y002620D02*
X009486Y002427D01*
X009438Y002427D02*
X009534Y002427D01*
X009634Y002427D02*
X009779Y002427D01*
X009827Y002475D01*
X009827Y002572D01*
X009779Y002620D01*
X009634Y002620D01*
X009634Y002330D01*
X009682Y002169D02*
X009779Y002169D01*
X009827Y002121D01*
X009827Y002072D01*
X009634Y002072D01*
X009634Y002024D02*
X009634Y002121D01*
X009682Y002169D01*
X009533Y002169D02*
X009533Y002024D01*
X009484Y001975D01*
X009436Y002024D01*
X009388Y001975D01*
X009339Y002024D01*
X009339Y002169D01*
X009238Y002121D02*
X009190Y002169D01*
X009093Y002169D01*
X009045Y002121D01*
X009045Y002024D01*
X009093Y001975D01*
X009190Y001975D01*
X009238Y002024D01*
X009238Y002121D01*
X008943Y002121D02*
X008895Y002072D01*
X008750Y002072D01*
X008750Y001975D02*
X008750Y002266D01*
X008895Y002266D01*
X008943Y002217D01*
X008943Y002121D01*
X008846Y002427D02*
X008749Y002427D01*
X008701Y002475D01*
X008749Y002572D02*
X008846Y002572D01*
X008894Y002523D01*
X008894Y002475D01*
X008846Y002427D01*
X008749Y002572D02*
X008701Y002620D01*
X008701Y002669D01*
X008749Y002717D01*
X008846Y002717D01*
X008894Y002669D01*
X008996Y002620D02*
X009092Y002620D01*
X009044Y002669D02*
X009044Y002475D01*
X009092Y002427D01*
X009192Y002427D02*
X009192Y002620D01*
X009192Y002523D02*
X009289Y002620D01*
X009337Y002620D01*
X009438Y002620D02*
X009486Y002620D01*
X009929Y002475D02*
X009977Y002475D01*
X009977Y002427D01*
X009929Y002427D01*
X009929Y002475D01*
X009929Y002169D02*
X009929Y001975D01*
X009929Y002072D02*
X010025Y002169D01*
X010074Y002169D01*
X009779Y001975D02*
X009682Y001975D01*
X009634Y002024D01*
X009631Y001718D02*
X009486Y001718D01*
X009438Y001669D01*
X009438Y001573D01*
X009486Y001524D01*
X009631Y001524D01*
X009732Y001573D02*
X009781Y001524D01*
X009877Y001524D01*
X009926Y001573D01*
X009926Y001669D01*
X009877Y001718D01*
X009781Y001718D01*
X009732Y001669D01*
X009732Y001573D01*
X010027Y001524D02*
X010027Y001718D01*
X010172Y001718D01*
X010220Y001669D01*
X010220Y001524D01*
X010321Y001524D02*
X010321Y001718D01*
X010467Y001718D01*
X010515Y001669D01*
X010515Y001524D01*
X010616Y001573D02*
X010616Y001669D01*
X010664Y001718D01*
X010761Y001718D01*
X010810Y001669D01*
X010810Y001621D01*
X010616Y001621D01*
X010616Y001573D02*
X010664Y001524D01*
X010761Y001524D01*
X010911Y001573D02*
X010959Y001524D01*
X011104Y001524D01*
X011254Y001573D02*
X011302Y001524D01*
X011254Y001573D02*
X011254Y001766D01*
X011302Y001718D02*
X011205Y001718D01*
X011104Y001718D02*
X010959Y001718D01*
X010911Y001669D01*
X010911Y001573D01*
X010860Y001975D02*
X010957Y002072D01*
X010957Y002266D01*
X010763Y002266D02*
X010763Y002072D01*
X010860Y001975D01*
X010662Y002024D02*
X010614Y001975D01*
X010517Y001975D01*
X010469Y002024D01*
X010469Y002121D02*
X010566Y002169D01*
X010614Y002169D01*
X010662Y002121D01*
X010662Y002024D01*
X010469Y002121D02*
X010469Y002266D01*
X010662Y002266D01*
X010813Y002926D02*
X010813Y003071D01*
X009632Y003329D02*
X009584Y003329D01*
X009536Y003377D01*
X009042Y003023D02*
X008993Y003071D01*
X008848Y003071D01*
X008848Y002878D01*
X008747Y002878D02*
X008747Y003023D01*
X008699Y003071D01*
X008554Y003071D01*
X008554Y002878D01*
X008452Y002926D02*
X008452Y003023D01*
X008404Y003071D01*
X008307Y003071D01*
X008259Y003023D01*
X008259Y002926D01*
X008307Y002878D01*
X008404Y002878D01*
X008452Y002926D01*
X008257Y002717D02*
X008112Y002717D01*
X008112Y002427D01*
X008257Y002427D01*
X008305Y002475D01*
X008305Y002669D01*
X008257Y002717D01*
X008158Y002878D02*
X008013Y002878D01*
X007964Y002926D01*
X007964Y003023D01*
X008013Y003071D01*
X008158Y003071D01*
X008062Y003281D02*
X008256Y003281D01*
X008357Y003329D02*
X008357Y003619D01*
X008502Y003619D01*
X008551Y003571D01*
X008551Y003474D01*
X008502Y003426D01*
X008357Y003426D01*
X008652Y003329D02*
X008652Y003619D01*
X008602Y003780D02*
X008602Y004022D01*
X008650Y004071D01*
X008750Y003974D02*
X008798Y003974D01*
X008798Y003780D01*
X008750Y003780D02*
X008847Y003780D01*
X008946Y003780D02*
X008946Y003974D01*
X008946Y003877D02*
X009043Y003974D01*
X009092Y003974D01*
X009093Y004231D02*
X009238Y004231D01*
X009339Y004280D02*
X009388Y004328D01*
X009533Y004328D01*
X009533Y004377D02*
X009533Y004231D01*
X009388Y004231D01*
X009339Y004280D01*
X009388Y004425D02*
X009484Y004425D01*
X009533Y004377D01*
X009634Y004425D02*
X009634Y004231D01*
X009634Y004328D02*
X009731Y004425D01*
X009779Y004425D01*
X009879Y004377D02*
X009879Y004280D01*
X009928Y004231D01*
X010025Y004231D01*
X010073Y004328D02*
X009879Y004328D01*
X009879Y004377D02*
X009928Y004425D01*
X010025Y004425D01*
X010073Y004377D01*
X010073Y004328D01*
X010174Y004377D02*
X010271Y004377D01*
X010223Y004473D02*
X010271Y004522D01*
X010223Y004473D02*
X010223Y004231D01*
X010371Y004280D02*
X010371Y004425D01*
X010371Y004280D02*
X010419Y004231D01*
X010564Y004231D01*
X010564Y004425D01*
X010665Y004522D02*
X010714Y004522D01*
X010714Y004231D01*
X010762Y004231D02*
X010665Y004231D01*
X009238Y004425D02*
X009093Y004425D01*
X009045Y004377D01*
X009045Y004280D01*
X009093Y004231D01*
X008798Y004119D02*
X008798Y004071D01*
X008650Y003925D02*
X008554Y003925D01*
X008600Y004231D02*
X008504Y004231D01*
X008455Y004280D01*
X008455Y004377D01*
X008504Y004425D01*
X008600Y004425D01*
X008649Y004377D01*
X008649Y004328D01*
X008455Y004328D01*
X008354Y004280D02*
X008354Y004377D01*
X008306Y004425D01*
X008161Y004425D01*
X008161Y004522D02*
X008161Y004231D01*
X008306Y004231D01*
X008354Y004280D01*
X008158Y004071D02*
X007964Y004071D01*
X007964Y003780D01*
X008158Y003780D01*
X008061Y003925D02*
X007964Y003925D01*
X007863Y003877D02*
X007863Y004071D01*
X007670Y004071D02*
X007670Y003877D01*
X007766Y003780D01*
X007863Y003877D01*
X007866Y003619D02*
X007963Y003619D01*
X007914Y003619D02*
X007914Y003329D01*
X007866Y003329D02*
X007963Y003329D01*
X007765Y003474D02*
X007716Y003426D01*
X007571Y003426D01*
X007571Y003329D02*
X007571Y003619D01*
X007716Y003619D01*
X007765Y003571D01*
X007765Y003474D01*
X007520Y003071D02*
X007568Y003023D01*
X007568Y002878D01*
X007522Y002717D02*
X007522Y002427D01*
X007716Y002427D01*
X007817Y002427D02*
X008010Y002427D01*
X008111Y002314D02*
X008111Y002266D01*
X008111Y002169D02*
X008111Y001975D01*
X008159Y001975D02*
X008062Y001975D01*
X008062Y002169D02*
X008111Y002169D01*
X008259Y002121D02*
X008356Y002121D01*
X008307Y002217D02*
X008356Y002266D01*
X008307Y002217D02*
X008307Y001975D01*
X008259Y001815D02*
X008259Y001524D01*
X008159Y001524D02*
X008111Y001573D01*
X008111Y001766D01*
X008159Y001718D02*
X008062Y001718D01*
X008259Y001669D02*
X008307Y001718D01*
X008404Y001718D01*
X008452Y001669D01*
X008452Y001524D01*
X008554Y001573D02*
X008554Y001669D01*
X008602Y001718D01*
X008699Y001718D01*
X008747Y001669D01*
X008747Y001621D01*
X008554Y001621D01*
X008554Y001573D02*
X008602Y001524D01*
X008699Y001524D01*
X008848Y001524D02*
X008848Y001718D01*
X008993Y001718D01*
X009042Y001669D01*
X009042Y001524D01*
X009045Y001267D02*
X009093Y001267D01*
X009141Y001218D01*
X009190Y001267D01*
X009238Y001218D01*
X009238Y001073D01*
X009141Y001073D02*
X009141Y001218D01*
X009045Y001267D02*
X009045Y001073D01*
X008943Y001073D02*
X008943Y001267D01*
X008750Y001267D02*
X008750Y001121D01*
X008798Y001073D01*
X008943Y001073D01*
X008600Y001121D02*
X008600Y001363D01*
X008552Y001363D02*
X008649Y001363D01*
X008600Y001121D02*
X008552Y001073D01*
X008504Y001073D01*
X008455Y001121D01*
X008060Y001073D02*
X007963Y001170D01*
X008011Y001170D02*
X007866Y001170D01*
X007866Y001073D02*
X007866Y001363D01*
X008011Y001363D01*
X008060Y001315D01*
X008060Y001218D01*
X008011Y001170D01*
X007765Y001073D02*
X007765Y001363D01*
X007571Y001363D02*
X007571Y001073D01*
X007668Y001170D01*
X007765Y001073D01*
X007470Y001218D02*
X007470Y001315D01*
X007422Y001363D01*
X007277Y001363D01*
X007277Y001073D01*
X007277Y001170D02*
X007422Y001170D01*
X007470Y001218D01*
X007176Y001025D02*
X006982Y001025D01*
X006882Y001073D02*
X006786Y001073D01*
X006834Y001073D02*
X006834Y001363D01*
X006786Y001363D02*
X006882Y001363D01*
X006684Y001315D02*
X006684Y001218D01*
X006636Y001170D01*
X006491Y001170D01*
X006491Y001073D02*
X006491Y001363D01*
X006636Y001363D01*
X006684Y001315D01*
X006736Y001524D02*
X006736Y001766D01*
X006784Y001815D01*
X006784Y001669D02*
X006687Y001669D01*
X006588Y001524D02*
X006491Y001524D01*
X006539Y001524D02*
X006539Y001815D01*
X006491Y001815D02*
X006588Y001815D01*
X006588Y001975D02*
X006539Y002024D01*
X006539Y002217D01*
X006491Y002169D02*
X006588Y002169D01*
X006687Y002169D02*
X006687Y002024D01*
X006736Y001975D01*
X006784Y002024D01*
X006833Y001975D01*
X006881Y002024D01*
X006881Y002169D01*
X006982Y002169D02*
X007030Y002169D01*
X007030Y001975D01*
X006982Y001975D02*
X007079Y001975D01*
X007179Y002024D02*
X007227Y001975D01*
X007372Y001975D01*
X007473Y002024D02*
X007522Y001975D01*
X007618Y001975D01*
X007667Y002072D02*
X007473Y002072D01*
X007473Y002024D02*
X007473Y002121D01*
X007522Y002169D01*
X007618Y002169D01*
X007667Y002121D01*
X007667Y002072D01*
X007667Y001815D02*
X007667Y001621D01*
X007570Y001524D01*
X007473Y001621D01*
X007473Y001815D01*
X007372Y001815D02*
X007179Y001815D01*
X007179Y001669D01*
X007275Y001718D01*
X007324Y001718D01*
X007372Y001669D01*
X007372Y001573D01*
X007324Y001524D01*
X007227Y001524D01*
X007179Y001573D01*
X007179Y002024D02*
X007179Y002121D01*
X007227Y002169D01*
X007372Y002169D01*
X007030Y002266D02*
X007030Y002314D01*
X006982Y002427D02*
X006982Y002620D01*
X006982Y002523D02*
X007079Y002620D01*
X007127Y002620D01*
X006881Y002572D02*
X006833Y002620D01*
X006736Y002620D01*
X006687Y002572D01*
X006687Y002475D01*
X006736Y002427D01*
X006833Y002427D01*
X006881Y002475D01*
X006881Y002572D01*
X006588Y002572D02*
X006491Y002572D01*
X006539Y002669D02*
X006588Y002717D01*
X006539Y002669D02*
X006539Y002427D01*
X006588Y002878D02*
X006588Y003168D01*
X006684Y003168D02*
X006491Y003168D01*
X006588Y003329D02*
X006539Y003377D01*
X006539Y003571D01*
X006491Y003523D02*
X006588Y003523D01*
X006687Y003474D02*
X006736Y003523D01*
X006833Y003523D01*
X006881Y003474D01*
X006881Y003329D01*
X006982Y003377D02*
X006982Y003474D01*
X007030Y003523D01*
X007127Y003523D01*
X007176Y003474D01*
X007176Y003426D01*
X006982Y003426D01*
X006982Y003377D02*
X007030Y003329D01*
X007127Y003329D01*
X007129Y003071D02*
X007225Y003071D01*
X007274Y003023D01*
X007274Y002975D01*
X007080Y002975D01*
X007080Y003023D02*
X007129Y003071D01*
X007080Y003023D02*
X007080Y002926D01*
X007129Y002878D01*
X007225Y002878D01*
X007375Y002878D02*
X007375Y003071D01*
X007520Y003071D01*
X006979Y003023D02*
X006979Y002878D01*
X006979Y003023D02*
X006931Y003071D01*
X006834Y003071D01*
X006786Y003023D01*
X006786Y003168D02*
X006786Y002878D01*
X006687Y003329D02*
X006687Y003619D01*
X006684Y003780D02*
X006588Y003877D01*
X006636Y003877D02*
X006491Y003877D01*
X006491Y003780D02*
X006491Y004071D01*
X006636Y004071D01*
X006684Y004022D01*
X006684Y003925D01*
X006636Y003877D01*
X006786Y003925D02*
X006882Y003925D01*
X006786Y003780D02*
X006979Y003780D01*
X007080Y003780D02*
X007080Y004071D01*
X007177Y003974D01*
X007274Y004071D01*
X007274Y003780D01*
X007375Y003829D02*
X007423Y003780D01*
X007520Y003780D01*
X007568Y003829D01*
X007568Y004022D01*
X007520Y004071D01*
X007423Y004071D01*
X007375Y004022D01*
X007375Y003829D01*
X007422Y004231D02*
X007470Y004280D01*
X007422Y004328D01*
X007325Y004328D01*
X007277Y004377D01*
X007325Y004425D01*
X007470Y004425D01*
X007571Y004377D02*
X007620Y004425D01*
X007716Y004425D01*
X007765Y004377D01*
X007765Y004328D01*
X007571Y004328D01*
X007571Y004280D02*
X007571Y004377D01*
X007571Y004280D02*
X007620Y004231D01*
X007716Y004231D01*
X007422Y004231D02*
X007277Y004231D01*
X007176Y004231D02*
X007176Y004377D01*
X007127Y004425D01*
X007030Y004425D01*
X007030Y004328D02*
X007176Y004328D01*
X007176Y004231D02*
X007030Y004231D01*
X006982Y004280D01*
X007030Y004328D01*
X006882Y004231D02*
X006786Y004231D01*
X006834Y004231D02*
X006834Y004522D01*
X006786Y004522D01*
X006684Y004473D02*
X006684Y004377D01*
X006636Y004328D01*
X006491Y004328D01*
X006491Y004231D02*
X006491Y004522D01*
X006636Y004522D01*
X006684Y004473D01*
X006786Y004071D02*
X006786Y003780D01*
X006786Y004071D02*
X006979Y004071D01*
X008652Y003329D02*
X008749Y003426D01*
X008845Y003329D01*
X008845Y003619D01*
X009042Y003023D02*
X009042Y002878D01*
X008010Y002717D02*
X007817Y002717D01*
X007817Y002427D01*
X007817Y002572D02*
X007914Y002572D01*
X009339Y001267D02*
X009484Y001267D01*
X009533Y001218D01*
X009533Y001121D01*
X009484Y001073D01*
X009339Y001073D01*
X009339Y000976D02*
X009339Y001267D01*
X009634Y001218D02*
X009682Y001267D01*
X009779Y001267D01*
X009827Y001218D01*
X009827Y001170D01*
X009634Y001170D01*
X009634Y001218D02*
X009634Y001121D01*
X009682Y001073D01*
X009779Y001073D01*
X009929Y001073D02*
X009929Y001267D01*
X010025Y001267D02*
X010074Y001267D01*
X010025Y001267D02*
X009929Y001170D01*
X010174Y001218D02*
X010174Y001412D01*
X010174Y001121D02*
X010174Y001073D01*
X010281Y005373D02*
X010528Y005743D01*
X010649Y005620D02*
X010773Y005743D01*
X010773Y005373D01*
X010896Y005373D02*
X010649Y005373D01*
X011018Y005373D02*
X011265Y005620D01*
X011265Y005682D01*
X011203Y005743D01*
X011079Y005743D01*
X011018Y005682D01*
X011018Y005373D02*
X011265Y005373D01*
X011386Y005497D02*
X011509Y005373D01*
X011633Y005497D01*
X011633Y005743D01*
X011386Y005743D02*
X011386Y005497D01*
X010160Y005620D02*
X010036Y005373D01*
X009913Y005620D01*
X009791Y005558D02*
X009791Y005435D01*
X009730Y005373D01*
X009606Y005373D01*
X009544Y005435D01*
X009544Y005558D02*
X009668Y005620D01*
X009730Y005620D01*
X009791Y005558D01*
X009791Y005743D02*
X009544Y005743D01*
X009544Y005558D01*
X009054Y005620D02*
X008993Y005620D01*
X008869Y005497D01*
X008748Y005497D02*
X008501Y005497D01*
X008501Y005558D02*
X008501Y005435D01*
X008563Y005373D01*
X008686Y005373D01*
X008748Y005497D02*
X008748Y005558D01*
X008686Y005620D01*
X008563Y005620D01*
X008501Y005558D01*
X008379Y005620D02*
X008379Y005435D01*
X008318Y005373D01*
X008256Y005435D01*
X008194Y005373D01*
X008133Y005435D01*
X008133Y005620D01*
X008011Y005558D02*
X008011Y005435D01*
X007949Y005373D01*
X007826Y005373D01*
X007764Y005435D01*
X007764Y005558D01*
X007826Y005620D01*
X007949Y005620D01*
X008011Y005558D01*
X007643Y005558D02*
X007581Y005497D01*
X007396Y005497D01*
X007396Y005373D02*
X007396Y005743D01*
X007581Y005743D01*
X007643Y005682D01*
X007643Y005558D01*
X007274Y005435D02*
X007274Y005682D01*
X007213Y005743D01*
X007028Y005743D01*
X007028Y005373D01*
X007213Y005373D01*
X007274Y005435D01*
X006906Y005373D02*
X006659Y005373D01*
X006659Y005743D01*
X006906Y005743D01*
X006783Y005558D02*
X006659Y005558D01*
X006538Y005373D02*
X006291Y005373D01*
X006291Y005743D01*
X008869Y005620D02*
X008869Y005373D01*
D13*
X016114Y003802D02*
X016114Y010101D01*
X022413Y010101D01*
X022413Y003802D01*
X016114Y003802D01*
X016460Y003058D02*
X016460Y001058D01*
X017460Y001058D01*
X017460Y003058D01*
X016460Y003058D01*
X016075Y001783D02*
X016075Y001333D01*
X015925Y001333D02*
X016225Y001333D01*
X015925Y001633D02*
X016075Y001783D01*
X020294Y004393D02*
X020398Y004393D01*
X020439Y004395D01*
X020479Y004400D01*
X020518Y004410D01*
X020557Y004423D01*
X020594Y004439D01*
X020630Y004459D01*
X020663Y004482D01*
X020694Y004508D01*
X020723Y004537D01*
X020749Y004568D01*
X020772Y004601D01*
X020792Y004637D01*
X020808Y004674D01*
X020821Y004713D01*
X020831Y004752D01*
X020836Y004792D01*
X020838Y004833D01*
X020838Y008967D01*
X020836Y009012D01*
X020831Y009057D01*
X020821Y009101D01*
X020809Y009144D01*
X020792Y009186D01*
X020772Y009226D01*
X020749Y009265D01*
X020723Y009301D01*
X020694Y009335D01*
X020662Y009367D01*
X020628Y009396D01*
X020592Y009422D01*
X020553Y009445D01*
X020513Y009465D01*
X020471Y009482D01*
X020428Y009494D01*
X020384Y009504D01*
X020339Y009509D01*
X020294Y009511D01*
X020253Y009509D01*
X020213Y009504D01*
X020174Y009494D01*
X020135Y009481D01*
X020098Y009465D01*
X020062Y009445D01*
X020029Y009422D01*
X019998Y009396D01*
X019969Y009367D01*
X019943Y009336D01*
X019920Y009303D01*
X019900Y009267D01*
X019884Y009230D01*
X019871Y009191D01*
X019861Y009152D01*
X019856Y009112D01*
X019854Y009071D01*
X019854Y004833D01*
X019856Y004792D01*
X019861Y004752D01*
X019871Y004713D01*
X019884Y004674D01*
X019900Y004637D01*
X019920Y004601D01*
X019943Y004568D01*
X019969Y004537D01*
X019998Y004508D01*
X020029Y004482D01*
X020062Y004459D01*
X020098Y004439D01*
X020135Y004423D01*
X020174Y004410D01*
X020213Y004400D01*
X020253Y004395D01*
X020294Y004393D01*
X017742Y006361D02*
X017744Y006423D01*
X017750Y006486D01*
X017760Y006547D01*
X017774Y006608D01*
X017791Y006668D01*
X017812Y006727D01*
X017838Y006784D01*
X017866Y006839D01*
X017898Y006893D01*
X017934Y006944D01*
X017972Y006994D01*
X018014Y007040D01*
X018058Y007084D01*
X018106Y007125D01*
X018155Y007163D01*
X018207Y007197D01*
X018261Y007228D01*
X018317Y007256D01*
X018375Y007280D01*
X018434Y007301D01*
X018494Y007317D01*
X018555Y007330D01*
X018617Y007339D01*
X018679Y007344D01*
X018742Y007345D01*
X018804Y007342D01*
X018866Y007335D01*
X018928Y007324D01*
X018988Y007309D01*
X019048Y007291D01*
X019106Y007269D01*
X019163Y007243D01*
X019218Y007213D01*
X019271Y007180D01*
X019322Y007144D01*
X019370Y007105D01*
X019416Y007062D01*
X019459Y007017D01*
X019499Y006969D01*
X019536Y006919D01*
X019570Y006866D01*
X019601Y006812D01*
X019627Y006756D01*
X019651Y006698D01*
X019670Y006638D01*
X019686Y006578D01*
X019698Y006516D01*
X019706Y006455D01*
X019710Y006392D01*
X019710Y006330D01*
X019706Y006267D01*
X019698Y006206D01*
X019686Y006144D01*
X019670Y006084D01*
X019651Y006024D01*
X019627Y005966D01*
X019601Y005910D01*
X019570Y005856D01*
X019536Y005803D01*
X019499Y005753D01*
X019459Y005705D01*
X019416Y005660D01*
X019370Y005617D01*
X019322Y005578D01*
X019271Y005542D01*
X019218Y005509D01*
X019163Y005479D01*
X019106Y005453D01*
X019048Y005431D01*
X018988Y005413D01*
X018928Y005398D01*
X018866Y005387D01*
X018804Y005380D01*
X018742Y005377D01*
X018679Y005378D01*
X018617Y005383D01*
X018555Y005392D01*
X018494Y005405D01*
X018434Y005421D01*
X018375Y005442D01*
X018317Y005466D01*
X018261Y005494D01*
X018207Y005525D01*
X018155Y005559D01*
X018106Y005597D01*
X018058Y005638D01*
X018014Y005682D01*
X017972Y005728D01*
X017934Y005778D01*
X017898Y005829D01*
X017866Y005883D01*
X017838Y005938D01*
X017812Y005995D01*
X017791Y006054D01*
X017774Y006114D01*
X017760Y006175D01*
X017750Y006236D01*
X017744Y006299D01*
X017742Y006361D01*
X017885Y007936D02*
X017885Y008330D01*
X018476Y008330D01*
X018476Y007936D01*
X017885Y007936D01*
X017689Y008723D02*
X018279Y008723D01*
X018279Y009117D01*
X017689Y009117D01*
X017689Y008723D01*
X018673Y008723D02*
X018673Y009511D01*
X019067Y009511D01*
X019067Y008723D01*
X018673Y008723D01*
X009939Y015378D02*
X009863Y015303D01*
X009713Y015303D01*
X009638Y015378D01*
X009638Y015678D01*
X009713Y015753D01*
X009863Y015753D01*
X009939Y015678D01*
X009478Y015678D02*
X009478Y015603D01*
X009178Y015303D01*
X009478Y015303D01*
X009021Y015303D02*
X008871Y015303D01*
X008946Y015303D02*
X008946Y015753D01*
X008871Y015753D02*
X009021Y015753D01*
X009178Y015678D02*
X009253Y015753D01*
X009403Y015753D01*
X009478Y015678D01*
X008460Y018058D02*
X012460Y018058D01*
X012460Y020058D01*
X008460Y020058D01*
X008460Y018058D01*
X008225Y019333D02*
X007925Y019333D01*
X008075Y019333D02*
X008075Y019783D01*
X007925Y019633D01*
X007058Y019467D02*
X006758Y019467D01*
X006908Y019467D02*
X006908Y019918D01*
X006758Y019768D01*
X006460Y020058D02*
X006460Y022058D01*
X019460Y022058D01*
X019460Y020058D01*
X006460Y020058D01*
X006596Y020194D02*
X006596Y020922D01*
X007324Y020922D01*
X007324Y020194D02*
X006596Y020194D01*
X012585Y018708D02*
X012585Y018633D01*
X012660Y018558D01*
X012810Y018558D01*
X012885Y018483D01*
X012885Y018408D01*
X012810Y018333D01*
X012660Y018333D01*
X012585Y018408D01*
X012585Y018483D01*
X012660Y018558D01*
X012810Y018558D02*
X012885Y018633D01*
X012885Y018708D01*
X012810Y018783D01*
X012660Y018783D01*
X012585Y018708D01*
X019599Y021355D02*
X019900Y021655D01*
X019900Y021730D01*
X019825Y021806D01*
X019674Y021806D01*
X019599Y021730D01*
X019599Y021355D02*
X019900Y021355D01*
X020060Y021430D02*
X020135Y021355D01*
X020285Y021355D01*
X020360Y021430D01*
X020360Y021505D01*
X020285Y021580D01*
X020060Y021580D01*
X020060Y021430D01*
X020060Y021580D02*
X020210Y021730D01*
X020360Y021806D01*
X007324Y020922D02*
X007321Y020558D01*
X007324Y020194D01*
D14*
X009536Y014544D02*
X009656Y014544D01*
X009716Y014484D01*
X009716Y014304D01*
X009836Y014304D02*
X009476Y014304D01*
X009476Y014484D01*
X009536Y014544D01*
X009476Y014178D02*
X009476Y014058D01*
X009476Y014118D02*
X009836Y014118D01*
X009836Y014058D02*
X009836Y014178D01*
X009836Y013930D02*
X009716Y013810D01*
X009716Y013870D02*
X009716Y013690D01*
X009836Y013690D02*
X009476Y013690D01*
X009476Y013870D01*
X009536Y013930D01*
X009656Y013930D01*
X009716Y013870D01*
X009476Y013562D02*
X009476Y013321D01*
X009476Y013441D02*
X009836Y013441D01*
X009776Y013193D02*
X009836Y013133D01*
X009836Y013013D01*
X009776Y012953D01*
X009776Y012825D02*
X009536Y012825D01*
X009476Y012765D01*
X009476Y012585D01*
X009836Y012585D01*
X009836Y012765D01*
X009776Y012825D01*
X009596Y012953D02*
X009656Y013013D01*
X009656Y013133D01*
X009716Y013193D01*
X009776Y013193D01*
X009536Y013193D02*
X009476Y013133D01*
X009476Y013013D01*
X009536Y012953D01*
X009596Y012953D01*
X009476Y012457D02*
X009476Y012216D01*
X009836Y012216D01*
X009836Y012457D01*
X009656Y012336D02*
X009656Y012216D01*
X009836Y012088D02*
X009836Y011848D01*
X009476Y011848D01*
X011346Y012878D02*
X011346Y013058D01*
X011406Y013118D01*
X011526Y013118D01*
X011586Y013058D01*
X011586Y012878D01*
X011706Y012878D02*
X011346Y012878D01*
X011346Y013246D02*
X011346Y013366D01*
X011346Y013306D02*
X011706Y013306D01*
X011706Y013246D02*
X011706Y013366D01*
X011706Y013492D02*
X011346Y013492D01*
X011346Y013672D01*
X011406Y013732D01*
X011526Y013732D01*
X011586Y013672D01*
X011586Y013492D01*
X011706Y013860D02*
X011346Y013860D01*
X011346Y014100D02*
X011706Y014100D01*
X011586Y013980D01*
X011706Y013860D01*
X011706Y014229D02*
X011346Y014229D01*
X011346Y014409D01*
X011406Y014469D01*
X011526Y014469D01*
X011586Y014409D01*
X011586Y014229D01*
X011586Y014349D02*
X011706Y014469D01*
X018246Y011088D02*
X018246Y010728D01*
X018246Y010848D02*
X018426Y010848D01*
X018486Y010908D01*
X018486Y011028D01*
X018426Y011088D01*
X018246Y011088D01*
X018366Y010848D02*
X018486Y010728D01*
X018614Y010728D02*
X018855Y010728D01*
X018983Y010788D02*
X019043Y010728D01*
X019163Y010728D01*
X019223Y010788D01*
X019223Y010848D01*
X019163Y010908D01*
X019043Y010908D01*
X018983Y010968D01*
X018983Y011028D01*
X019043Y011088D01*
X019163Y011088D01*
X019223Y011028D01*
X019351Y011088D02*
X019351Y010728D01*
X019591Y010728D01*
X019471Y010908D02*
X019351Y010908D01*
X019351Y011088D02*
X019591Y011088D01*
X019719Y011088D02*
X019959Y011088D01*
X019839Y011088D02*
X019839Y010728D01*
X020088Y010728D02*
X020328Y010908D01*
X020088Y011088D01*
X020456Y011088D02*
X020636Y011088D01*
X020696Y011028D01*
X020696Y010908D01*
X020636Y010848D01*
X020456Y010848D01*
X020456Y010728D02*
X020456Y011088D01*
X020824Y011088D02*
X020944Y011088D01*
X020884Y011088D02*
X020884Y010728D01*
X020824Y010728D02*
X020944Y010728D01*
X018855Y011088D02*
X018614Y011088D01*
X018614Y010728D01*
X018614Y010908D02*
X018734Y010908D01*
X020147Y007999D02*
X020070Y007923D01*
X020070Y007769D01*
X020147Y007692D01*
X020147Y007999D02*
X020224Y007999D01*
X020531Y007692D01*
X020531Y007999D01*
X020531Y007539D02*
X020531Y007232D01*
X020531Y007079D02*
X020070Y007079D01*
X020224Y006925D01*
X020070Y006772D01*
X020531Y006772D01*
X020301Y006465D02*
X020301Y006311D01*
X020301Y006158D02*
X020377Y006081D01*
X020377Y005851D01*
X020377Y006004D02*
X020531Y006158D01*
X020531Y006311D02*
X020070Y006311D01*
X020070Y006618D01*
X020147Y006158D02*
X020301Y006158D01*
X020147Y006158D02*
X020070Y006081D01*
X020070Y005851D01*
X020531Y005851D01*
X020224Y007232D02*
X020070Y007386D01*
X020531Y007386D01*
X020527Y002119D02*
X020527Y001759D01*
X020467Y001759D02*
X020587Y001759D01*
X020713Y001759D02*
X020953Y001759D01*
X021081Y001759D02*
X021321Y001759D01*
X021449Y001759D02*
X021629Y001759D01*
X021689Y001819D01*
X021689Y002059D01*
X021629Y002119D01*
X021449Y002119D01*
X021449Y001759D01*
X021081Y001759D02*
X021081Y002119D01*
X020953Y002119D02*
X020713Y002119D01*
X020713Y001759D01*
X020713Y001939D02*
X020833Y001939D01*
X020587Y002119D02*
X020467Y002119D01*
X020339Y002119D02*
X020339Y001759D01*
X020339Y001939D02*
X020099Y001939D01*
X019971Y001879D02*
X019971Y001819D01*
X019910Y001759D01*
X019790Y001759D01*
X019730Y001819D01*
X019790Y001939D02*
X019910Y001939D01*
X019971Y001879D01*
X020099Y001759D02*
X020099Y002119D01*
X019971Y002059D02*
X019910Y002119D01*
X019790Y002119D01*
X019730Y002059D01*
X019730Y001999D01*
X019790Y001939D01*
X019602Y001699D02*
X019362Y001699D01*
X019237Y001759D02*
X019116Y001759D01*
X019177Y001759D02*
X019177Y002119D01*
X019237Y002119D02*
X019116Y002119D01*
X018988Y002059D02*
X018988Y001999D01*
X018928Y001939D01*
X018748Y001939D01*
X018748Y001759D02*
X018928Y001759D01*
X018988Y001819D01*
X018988Y001879D01*
X018928Y001939D01*
X018988Y002059D02*
X018928Y002119D01*
X018748Y002119D01*
X018748Y001759D01*
X018620Y001759D02*
X018620Y002119D01*
X018500Y001999D01*
X018380Y002119D01*
X018380Y001759D01*
X018252Y001759D02*
X018252Y001999D01*
X018132Y002119D01*
X018012Y001999D01*
X018012Y001759D01*
X017883Y001759D02*
X017643Y002119D01*
X017883Y002119D02*
X017643Y001759D01*
X017628Y001369D02*
X017868Y001009D01*
X017997Y001009D02*
X017997Y001369D01*
X018177Y001369D01*
X018237Y001309D01*
X018237Y001189D01*
X018177Y001129D01*
X017997Y001129D01*
X017868Y001369D02*
X017628Y001009D01*
X018365Y001009D02*
X018485Y001009D01*
X018425Y001009D02*
X018425Y001369D01*
X018365Y001369D02*
X018485Y001369D01*
X018610Y001369D02*
X018851Y001009D01*
X018610Y001009D02*
X018851Y001369D01*
X019347Y001369D02*
X019347Y001009D01*
X019527Y001009D01*
X019587Y001069D01*
X019587Y001309D01*
X019527Y001369D01*
X019347Y001369D01*
X019715Y001189D02*
X019775Y001249D01*
X019896Y001249D01*
X019956Y001189D01*
X019956Y001129D01*
X019715Y001129D01*
X019715Y001069D02*
X019715Y001189D01*
X019715Y001069D02*
X019775Y001009D01*
X019896Y001009D01*
X020084Y001249D02*
X020204Y001009D01*
X020324Y001249D01*
X020452Y001189D02*
X020512Y001249D01*
X020632Y001249D01*
X020692Y001189D01*
X020692Y001129D01*
X020452Y001129D01*
X020452Y001069D02*
X020452Y001189D01*
X020452Y001069D02*
X020512Y001009D01*
X020632Y001009D01*
X020820Y001009D02*
X020940Y001009D01*
X020880Y001009D02*
X020880Y001369D01*
X020820Y001369D01*
X021066Y001189D02*
X021066Y001069D01*
X021126Y001009D01*
X021246Y001009D01*
X021306Y001069D01*
X021306Y001189D01*
X021246Y001249D01*
X021126Y001249D01*
X021066Y001189D01*
X021434Y001249D02*
X021434Y000889D01*
X021434Y001009D02*
X021614Y001009D01*
X021674Y001069D01*
X021674Y001189D01*
X021614Y001249D01*
X021434Y001249D01*
X021802Y001249D02*
X021863Y001249D01*
X021923Y001189D01*
X021983Y001249D01*
X022043Y001189D01*
X022043Y001009D01*
X021923Y001009D02*
X021923Y001189D01*
X021802Y001249D02*
X021802Y001009D01*
X022171Y001069D02*
X022171Y001189D01*
X022231Y001249D01*
X022351Y001249D01*
X022411Y001189D01*
X022411Y001129D01*
X022171Y001129D01*
X022171Y001069D02*
X022231Y001009D01*
X022351Y001009D01*
X022539Y001009D02*
X022539Y001249D01*
X022719Y001249D01*
X022779Y001189D01*
X022779Y001009D01*
X022967Y001069D02*
X023028Y001009D01*
X022967Y001069D02*
X022967Y001309D01*
X022907Y001249D02*
X023028Y001249D01*
X023521Y001009D02*
X023762Y001369D01*
X024258Y001309D02*
X024318Y001369D01*
X024438Y001369D01*
X024498Y001309D01*
X024498Y001249D01*
X024258Y001009D01*
X024498Y001009D01*
X024626Y001069D02*
X024866Y001309D01*
X024866Y001069D01*
X024806Y001009D01*
X024686Y001009D01*
X024626Y001069D01*
X024626Y001309D01*
X024686Y001369D01*
X024806Y001369D01*
X024866Y001309D01*
X024995Y001249D02*
X025115Y001369D01*
X025115Y001009D01*
X024995Y001009D02*
X025235Y001009D01*
X025363Y001189D02*
X025603Y001189D01*
X025543Y001009D02*
X025543Y001369D01*
X025363Y001189D01*
X022978Y001759D02*
X022738Y001759D01*
X022858Y001759D02*
X022858Y002119D01*
X022738Y001999D01*
X022614Y001819D02*
X022614Y001759D01*
X022554Y001759D01*
X022554Y001819D01*
X022614Y001819D01*
X022426Y001759D02*
X022186Y001759D01*
X022306Y001759D02*
X022306Y002119D01*
X022186Y001999D01*
X022058Y001699D02*
X021817Y001699D01*
X018252Y001939D02*
X018012Y001939D01*
D15*
X018026Y010658D02*
X016926Y010658D01*
X016909Y010660D01*
X016892Y010664D01*
X016876Y010671D01*
X016862Y010681D01*
X016849Y010694D01*
X016839Y010708D01*
X016832Y010724D01*
X016828Y010741D01*
X016826Y010758D01*
X016826Y011358D01*
X016828Y011375D01*
X016832Y011392D01*
X016839Y011408D01*
X016849Y011422D01*
X016862Y011435D01*
X016876Y011445D01*
X016892Y011452D01*
X016909Y011456D01*
X016926Y011458D01*
X018026Y011458D01*
X018043Y011456D01*
X018060Y011452D01*
X018076Y011445D01*
X018090Y011435D01*
X018103Y011422D01*
X018113Y011408D01*
X018120Y011392D01*
X018124Y011375D01*
X018126Y011358D01*
X018126Y010758D01*
X018124Y010741D01*
X018120Y010724D01*
X018113Y010708D01*
X018103Y010694D01*
X018090Y010681D01*
X018076Y010671D01*
X018060Y010664D01*
X018043Y010660D01*
X018026Y010658D01*
X011176Y012858D02*
X011076Y012758D01*
X010276Y012758D01*
X010176Y012858D01*
X010176Y013658D01*
X010276Y013758D01*
X010176Y013858D01*
X010176Y014658D01*
X010276Y014758D01*
X011076Y014758D01*
X011176Y014658D01*
X011176Y013858D01*
X011076Y013758D01*
X011176Y013658D01*
X011176Y012858D01*
X007776Y012808D02*
X007776Y012308D01*
X007526Y012058D01*
X007776Y011808D01*
X007776Y011308D01*
X007526Y011058D01*
X007026Y011058D01*
X006776Y011308D01*
X006776Y011808D01*
X007026Y012058D01*
X006776Y012308D01*
X006776Y012808D01*
X007026Y013058D01*
X006776Y013308D01*
X006776Y013808D01*
X007026Y014058D01*
X006776Y014308D01*
X006776Y014808D01*
X007026Y015058D01*
X007526Y015058D01*
X007776Y014808D01*
X007776Y014308D01*
X007526Y014058D01*
X007776Y013808D01*
X007776Y013308D01*
X007526Y013058D01*
X007026Y013058D01*
X007526Y013058D02*
X007776Y012808D01*
X007526Y012058D02*
X007026Y012058D01*
X007026Y014058D02*
X007526Y014058D01*
X007526Y015458D02*
X007026Y015458D01*
X006776Y015708D01*
X006776Y016208D01*
X007026Y016458D01*
X006776Y016708D01*
X006776Y017208D01*
X007026Y017458D01*
X007526Y017458D01*
X007776Y017208D01*
X007776Y016708D01*
X007526Y016458D01*
X007776Y016208D01*
X007776Y015708D01*
X007526Y015458D01*
X007526Y016458D02*
X007026Y016458D01*
X007026Y017458D02*
X006776Y017708D01*
X006776Y018208D01*
X007026Y018458D01*
X006776Y018708D01*
X006776Y019208D01*
X007026Y019458D01*
X007526Y019458D01*
X007776Y019208D01*
X007776Y018708D01*
X007526Y018458D01*
X007776Y018208D01*
X007776Y017708D01*
X007526Y017458D01*
X007526Y018458D02*
X007026Y018458D01*
D16*
X005775Y010330D02*
X005775Y006786D01*
X007783Y006786D01*
X009633Y006786D02*
X010067Y006786D01*
X010067Y007613D01*
X010067Y009582D02*
X010067Y010330D01*
X005775Y010330D01*
D17*
X009527Y010858D03*
X018925Y003358D03*
D18*
X017481Y004556D02*
X017334Y004556D01*
X017334Y004777D01*
X017260Y004777D02*
X017113Y004777D01*
X017113Y004556D01*
X017260Y004556D01*
X017186Y004667D02*
X017113Y004667D01*
X017039Y004630D02*
X017039Y004593D01*
X017002Y004556D01*
X016929Y004556D01*
X016892Y004593D01*
X016929Y004667D02*
X017002Y004667D01*
X017039Y004630D01*
X017039Y004740D02*
X017002Y004777D01*
X016929Y004777D01*
X016892Y004740D01*
X016892Y004703D01*
X016929Y004667D01*
X016818Y004667D02*
X016818Y004556D01*
X016818Y004667D02*
X016781Y004703D01*
X016671Y004703D01*
X016671Y004556D01*
X016732Y005344D02*
X016695Y005381D01*
X016732Y005344D02*
X016805Y005344D01*
X016842Y005381D01*
X016842Y005417D01*
X016805Y005454D01*
X016732Y005454D01*
X016695Y005491D01*
X016695Y005527D01*
X016732Y005564D01*
X016805Y005564D01*
X016842Y005527D01*
X016916Y005527D02*
X016916Y005381D01*
X016953Y005344D01*
X017026Y005344D01*
X017063Y005381D01*
X017137Y005417D02*
X017284Y005564D01*
X017137Y005564D02*
X017137Y005344D01*
X017174Y005454D02*
X017284Y005344D01*
X017063Y005527D02*
X017026Y005564D01*
X016953Y005564D01*
X016916Y005527D01*
X016879Y006131D02*
X016805Y006131D01*
X016769Y006168D01*
X016805Y006241D02*
X016879Y006241D01*
X016916Y006205D01*
X016916Y006168D01*
X016879Y006131D01*
X016990Y006131D02*
X017100Y006131D01*
X017137Y006168D01*
X017137Y006315D01*
X017100Y006351D01*
X016990Y006351D01*
X016990Y006131D01*
X016916Y006315D02*
X016879Y006351D01*
X016805Y006351D01*
X016769Y006315D01*
X016769Y006278D01*
X016805Y006241D01*
X017211Y006131D02*
X017284Y006131D01*
X017247Y006131D02*
X017247Y006351D01*
X017211Y006351D02*
X017284Y006351D01*
X017260Y006919D02*
X017260Y007139D01*
X017334Y007139D02*
X017481Y007139D01*
X017407Y007139D02*
X017407Y006919D01*
X017260Y006919D02*
X017113Y007139D01*
X017113Y006919D01*
X017039Y006919D02*
X016966Y006919D01*
X017002Y006919D02*
X017002Y007139D01*
X016966Y007139D02*
X017039Y007139D01*
X016891Y007029D02*
X016855Y007065D01*
X016745Y007065D01*
X016745Y006919D01*
X016891Y006919D02*
X016891Y007029D01*
X016916Y007706D02*
X016916Y007926D01*
X017063Y007706D01*
X017063Y007926D01*
X017137Y007926D02*
X017247Y007926D01*
X017284Y007890D01*
X017284Y007743D01*
X017247Y007706D01*
X017137Y007706D01*
X017137Y007926D01*
X016842Y007890D02*
X016805Y007926D01*
X016732Y007926D01*
X016695Y007890D01*
X016695Y007743D01*
X016732Y007706D01*
X016805Y007706D01*
X016842Y007743D01*
X016842Y007816D01*
X016768Y007816D01*
X016768Y008493D02*
X016842Y008567D01*
X016842Y008714D01*
X016916Y008604D02*
X016953Y008640D01*
X017063Y008640D01*
X017063Y008714D02*
X017063Y008493D01*
X016953Y008493D01*
X016916Y008530D01*
X016916Y008604D01*
X016768Y008493D02*
X016695Y008567D01*
X016695Y008714D01*
X017137Y008604D02*
X017137Y008530D01*
X017174Y008493D01*
X017284Y008493D01*
X017284Y008714D01*
X017284Y008640D02*
X017174Y008640D01*
X017137Y008604D01*
X017210Y009281D02*
X017210Y009501D01*
X017137Y009501D02*
X017284Y009501D01*
X017063Y009501D02*
X017063Y009281D01*
X016916Y009501D01*
X016916Y009281D01*
X016842Y009281D02*
X016842Y009428D01*
X016768Y009501D01*
X016695Y009428D01*
X016695Y009281D01*
X016695Y009391D02*
X016842Y009391D01*
X020842Y008443D02*
X020842Y008297D01*
X020842Y008443D02*
X020952Y008443D01*
X020989Y008407D01*
X020989Y008297D01*
X021063Y008297D02*
X021063Y008517D01*
X021173Y008517D01*
X021210Y008480D01*
X021210Y008407D01*
X021173Y008370D01*
X021063Y008370D01*
X021137Y008370D02*
X021210Y008297D01*
X021284Y008297D02*
X021431Y008297D01*
X021505Y008333D02*
X021542Y008297D01*
X021615Y008297D01*
X021652Y008333D01*
X021652Y008370D01*
X021615Y008407D01*
X021542Y008407D01*
X021505Y008443D01*
X021505Y008480D01*
X021542Y008517D01*
X021615Y008517D01*
X021652Y008480D01*
X021431Y008517D02*
X021284Y008517D01*
X021284Y008297D01*
X021284Y008407D02*
X021358Y008407D01*
X021284Y007926D02*
X021284Y007706D01*
X021431Y007706D01*
X021505Y007706D02*
X021505Y007926D01*
X021542Y007816D02*
X021652Y007706D01*
X021505Y007779D02*
X021652Y007926D01*
X021210Y007890D02*
X021173Y007926D01*
X021100Y007926D01*
X021063Y007890D01*
X021063Y007743D01*
X021100Y007706D01*
X021173Y007706D01*
X021210Y007743D01*
X021173Y007139D02*
X021100Y007139D01*
X021063Y007102D01*
X021063Y006955D01*
X021100Y006919D01*
X021173Y006919D01*
X021210Y006955D01*
X021284Y006919D02*
X021431Y006919D01*
X021505Y006919D02*
X021505Y007139D01*
X021542Y007029D02*
X021652Y006919D01*
X021505Y006992D02*
X021652Y007139D01*
X021284Y007139D02*
X021284Y006919D01*
X021210Y007102D02*
X021173Y007139D01*
X020989Y007102D02*
X020952Y007139D01*
X020842Y007139D01*
X020842Y006919D01*
X020952Y006919D01*
X020989Y006955D01*
X020989Y007102D01*
X021063Y006351D02*
X021210Y006351D01*
X021284Y006315D02*
X021284Y006278D01*
X021321Y006241D01*
X021394Y006241D01*
X021431Y006205D01*
X021431Y006168D01*
X021394Y006131D01*
X021321Y006131D01*
X021284Y006168D01*
X021284Y006315D02*
X021321Y006351D01*
X021394Y006351D01*
X021431Y006315D01*
X021505Y006351D02*
X021505Y006131D01*
X021505Y006205D02*
X021652Y006351D01*
X021542Y006241D02*
X021652Y006131D01*
X021137Y006241D02*
X021063Y006241D01*
X021063Y006131D02*
X021063Y006351D01*
X021137Y005367D02*
X021210Y005367D01*
X021174Y005367D02*
X021174Y005147D01*
X021210Y005147D02*
X021137Y005147D01*
X021063Y005147D02*
X021063Y005257D01*
X021026Y005294D01*
X020916Y005294D01*
X020916Y005147D01*
X021284Y005147D02*
X021284Y005367D01*
X021394Y005367D01*
X021431Y005330D01*
X021431Y005257D01*
X021394Y005220D01*
X021284Y005220D01*
X021358Y005220D02*
X021431Y005147D01*
X021505Y005184D02*
X021542Y005147D01*
X021615Y005147D01*
X021652Y005184D01*
X021652Y005330D01*
X021615Y005367D01*
X021542Y005367D01*
X021505Y005330D01*
X021505Y005184D01*
X021579Y005220D02*
X021652Y005147D01*
X021615Y004777D02*
X021652Y004740D01*
X021652Y004593D01*
X021615Y004556D01*
X021542Y004556D01*
X021505Y004593D01*
X021505Y004740D01*
X021542Y004777D01*
X021615Y004777D01*
X021431Y004740D02*
X021394Y004777D01*
X021284Y004777D01*
X021284Y004556D01*
X021394Y004556D01*
X021431Y004593D01*
X021431Y004740D01*
X021210Y004740D02*
X021173Y004777D01*
X021100Y004777D01*
X021063Y004740D01*
X021063Y004703D01*
X021100Y004667D01*
X021173Y004667D01*
X021210Y004630D01*
X021210Y004593D01*
X021173Y004556D01*
X021100Y004556D01*
X021063Y004593D01*
X021100Y009281D02*
X021173Y009281D01*
X021210Y009318D01*
X021210Y009391D01*
X021137Y009391D01*
X021210Y009464D02*
X021173Y009501D01*
X021100Y009501D01*
X021063Y009464D01*
X021063Y009318D01*
X021100Y009281D01*
X021284Y009281D02*
X021284Y009501D01*
X021431Y009281D01*
X021431Y009501D01*
X021505Y009501D02*
X021615Y009501D01*
X021652Y009464D01*
X021652Y009318D01*
X021615Y009281D01*
X021505Y009281D01*
X021505Y009501D01*
D19*
X019973Y003063D02*
X019973Y002913D01*
X019923Y002913D02*
X020023Y002913D01*
X019923Y003013D02*
X019973Y003063D01*
X019876Y003038D02*
X019851Y003063D01*
X019776Y003063D01*
X019776Y002913D01*
X019851Y002913D01*
X019876Y002938D01*
X019876Y003038D01*
X019728Y003063D02*
X019628Y003063D01*
X019628Y002913D01*
X019728Y002913D01*
X019678Y002988D02*
X019628Y002988D01*
X019581Y002913D02*
X019481Y002913D01*
X019481Y003063D01*
M02*
