  0
SECTION
  2
HEADER
  9
$ACADVER
  1
AC1009
  9
$MEASUREMENT
 70
     1
  0
ENDSEC
  0
SECTION
  2
ENTITIES
  0
LWPOLYLINE
  8
0
 62
7
 90
5
 70
1
 10
31.750000
 20
3.208438
 10
30.851562
 20
3.208438
 10
30.851562
 20
1.611563
 10
32.648438
 20
1.611563
 10
32.648438
 20
3.208438
  0
LWPOLYLINE
  8
0
 62
7
 90
5
 70
1
 10
31.750000
 20
6.008438
 10
30.851562
 20
6.008438
 10
30.851562
 20
4.411562
 10
32.648438
 20
4.411562
 10
32.648438
 20
6.008438
  0
LWPOLYLINE
  8
0
 62
7
 90
5
 70
1
 10
34.290000
 20
3.208438
 10
33.391562
 20
3.208438
 10
33.391562
 20
1.611563
 10
35.188437
 20
1.611563
 10
35.188437
 20
3.208438
  0
LWPOLYLINE
  8
0
 62
7
 90
5
 70
1
 10
34.290000
 20
6.008438
 10
33.391562
 20
6.008438
 10
33.391562
 20
4.411562
 10
35.188437
 20
4.411562
 10
35.188437
 20
6.008438
  0
LWPOLYLINE
  8
0
 62
7
 90
5
 70
1
 10
31.599162
 20
18.040000
 10
31.599162
 20
17.762162
 10
32.866037
 20
17.762162
 10
32.866037
 20
18.317837
 10
31.599162
 20
18.317837
  0
LWPOLYLINE
  8
0
 62
7
 90
5
 70
1
 10
31.599162
 20
17.240000
 10
31.599162
 20
16.962162
 10
32.866037
 20
16.962162
 10
32.866037
 20
17.517837
 10
31.599162
 20
17.517837
  0
LWPOLYLINE
  8
0
 62
7
 90
5
 70
1
 10
31.599162
 20
16.440000
 10
31.599162
 20
16.162163
 10
32.866037
 20
16.162163
 10
32.866037
 20
16.717838
 10
31.599162
 20
16.717838
  0
LWPOLYLINE
  8
0
 62
7
 90
5
 70
1
 10
31.599162
 20
15.640000
 10
31.599162
 20
15.362163
 10
32.866037
 20
15.362163
 10
32.866037
 20
15.917838
 10
31.599162
 20
15.917838
  0
LWPOLYLINE
  8
0
 62
7
 90
5
 70
1
 10
31.599162
 20
14.840000
 10
31.599162
 20
14.562162
 10
32.866037
 20
14.562162
 10
32.866037
 20
15.117838
 10
31.599162
 20
15.117838
  0
LWPOLYLINE
  8
0
 62
7
 90
5
 70
1
 10
31.599162
 20
14.040000
 10
31.599162
 20
13.762162
 10
32.866037
 20
13.762162
 10
32.866037
 20
14.317837
 10
31.599162
 20
14.317837
  0
LWPOLYLINE
  8
0
 62
7
 90
5
 70
1
 10
31.599162
 20
13.240000
 10
31.599162
 20
12.962162
 10
32.866037
 20
12.962162
 10
32.866037
 20
13.517838
 10
31.599162
 20
13.517838
  0
LWPOLYLINE
  8
0
 62
7
 90
5
 70
1
 10
31.599162
 20
12.440000
 10
31.599162
 20
12.162162
 10
32.866037
 20
12.162162
 10
32.866037
 20
12.717837
 10
31.599162
 20
12.717837
  0
LWPOLYLINE
  8
0
 62
7
 90
5
 70
1
 10
30.462162
 20
10.947400
 10
30.462162
 20
10.313963
 10
31.017837
 20
10.313963
 10
31.017837
 20
11.580837
 10
30.462162
 20
11.580837
  0
LWPOLYLINE
  8
0
 62
7
 90
5
 70
1
 10
29.662163
 20
10.947400
 10
29.662163
 20
10.313963
 10
30.217838
 20
10.313963
 10
30.217838
 20
11.580837
 10
29.662163
 20
11.580837
  0
LWPOLYLINE
  8
0
 62
7
 90
5
 70
1
 10
28.862163
 20
10.947400
 10
28.862163
 20
10.313963
 10
29.417838
 20
10.313963
 10
29.417838
 20
11.580837
 10
28.862163
 20
11.580837
  0
LWPOLYLINE
  8
0
 62
7
 90
5
 70
1
 10
28.062162
 20
10.947400
 10
28.062162
 20
10.313963
 10
28.617838
 20
10.313963
 10
28.617838
 20
11.580837
 10
28.062162
 20
11.580837
  0
LWPOLYLINE
  8
0
 62
7
 90
5
 70
1
 10
27.262162
 20
10.947400
 10
27.262162
 20
10.313963
 10
27.817837
 20
10.313963
 10
27.817837
 20
11.580837
 10
27.262162
 20
11.580837
  0
LWPOLYLINE
  8
0
 62
7
 90
5
 70
1
 10
26.462162
 20
10.947400
 10
26.462162
 20
10.313963
 10
27.017837
 20
10.313963
 10
27.017837
 20
11.580837
 10
26.462162
 20
11.580837
  0
LWPOLYLINE
  8
0
 62
7
 90
5
 70
1
 10
25.662163
 20
10.947400
 10
25.662163
 20
10.313963
 10
26.217838
 20
10.313963
 10
26.217838
 20
11.580837
 10
25.662163
 20
11.580837
  0
LWPOLYLINE
  8
0
 62
7
 90
5
 70
1
 10
24.862163
 20
10.947400
 10
24.862163
 20
10.313963
 10
25.417838
 20
10.313963
 10
25.417838
 20
11.580837
 10
24.862163
 20
11.580837
  0
LWPOLYLINE
  8
0
 62
7
 90
5
 70
1
 10
23.013963
 20
12.440000
 10
23.013963
 20
12.162162
 10
24.280838
 20
12.162162
 10
24.280838
 20
12.717837
 10
23.013963
 20
12.717837
  0
LWPOLYLINE
  8
0
 62
7
 90
5
 70
1
 10
23.013963
 20
13.240000
 10
23.013963
 20
12.962162
 10
24.280838
 20
12.962162
 10
24.280838
 20
13.517838
 10
23.013963
 20
13.517838
  0
LWPOLYLINE
  8
0
 62
7
 90
5
 70
1
 10
23.013963
 20
14.040000
 10
23.013963
 20
13.762162
 10
24.280838
 20
13.762162
 10
24.280838
 20
14.317837
 10
23.013963
 20
14.317837
  0
LWPOLYLINE
  8
0
 62
7
 90
5
 70
1
 10
23.013963
 20
14.840000
 10
23.013963
 20
14.562162
 10
24.280838
 20
14.562162
 10
24.280838
 20
15.117838
 10
23.013963
 20
15.117838
  0
LWPOLYLINE
  8
0
 62
7
 90
5
 70
1
 10
23.013963
 20
15.640000
 10
23.013963
 20
15.362163
 10
24.280838
 20
15.362163
 10
24.280838
 20
15.917838
 10
23.013963
 20
15.917838
  0
LWPOLYLINE
  8
0
 62
7
 90
5
 70
1
 10
23.013963
 20
16.440000
 10
23.013963
 20
16.162163
 10
24.280838
 20
16.162163
 10
24.280838
 20
16.717838
 10
23.013963
 20
16.717838
  0
LWPOLYLINE
  8
0
 62
7
 90
5
 70
1
 10
23.013963
 20
17.240000
 10
23.013963
 20
16.962162
 10
24.280838
 20
16.962162
 10
24.280838
 20
17.517837
 10
23.013963
 20
17.517837
  0
LWPOLYLINE
  8
0
 62
7
 90
5
 70
1
 10
23.013963
 20
18.040000
 10
23.013963
 20
17.762162
 10
24.280838
 20
17.762162
 10
24.280838
 20
18.317837
 10
23.013963
 20
18.317837
  0
LWPOLYLINE
  8
0
 62
7
 90
5
 70
1
 10
24.862163
 20
19.532600
 10
24.862163
 20
18.899162
 10
25.417838
 20
18.899162
 10
25.417838
 20
20.166037
 10
24.862163
 20
20.166037
  0
LWPOLYLINE
  8
0
 62
7
 90
5
 70
1
 10
25.662163
 20
19.532600
 10
25.662163
 20
18.899162
 10
26.217838
 20
18.899162
 10
26.217838
 20
20.166037
 10
25.662163
 20
20.166037
  0
LWPOLYLINE
  8
0
 62
7
 90
5
 70
1
 10
26.462162
 20
19.532600
 10
26.462162
 20
18.899162
 10
27.017837
 20
18.899162
 10
27.017837
 20
20.166037
 10
26.462162
 20
20.166037
  0
LWPOLYLINE
  8
0
 62
7
 90
5
 70
1
 10
27.262162
 20
19.532600
 10
27.262162
 20
18.899162
 10
27.817837
 20
18.899162
 10
27.817837
 20
20.166037
 10
27.262162
 20
20.166037
  0
LWPOLYLINE
  8
0
 62
7
 90
5
 70
1
 10
28.062162
 20
19.532600
 10
28.062162
 20
18.899162
 10
28.617838
 20
18.899162
 10
28.617838
 20
20.166037
 10
28.062162
 20
20.166037
  0
LWPOLYLINE
  8
0
 62
7
 90
5
 70
1
 10
28.862163
 20
19.532600
 10
28.862163
 20
18.899162
 10
29.417838
 20
18.899162
 10
29.417838
 20
20.166037
 10
28.862163
 20
20.166037
  0
LWPOLYLINE
  8
0
 62
7
 90
5
 70
1
 10
29.662163
 20
19.532600
 10
29.662163
 20
18.899162
 10
30.217838
 20
18.899162
 10
30.217838
 20
20.166037
 10
29.662163
 20
20.166037
  0
LWPOLYLINE
  8
0
 62
7
 90
5
 70
1
 10
30.462162
 20
19.532600
 10
30.462162
 20
18.899162
 10
31.017837
 20
18.899162
 10
31.017837
 20
20.166037
 10
30.462162
 20
20.166037
  0
LWPOLYLINE
  8
0
 62
7
 90
5
 70
1
 10
19.696437
 20
41.910000
 10
19.696437
 20
42.809937
 10
18.099563
 20
42.809937
 10
18.099563
 20
41.010062
 10
19.696437
 20
41.010062
  0
LWPOLYLINE
  8
0
 62
7
 90
5
 70
1
 10
22.540437
 20
41.910000
 10
22.540437
 20
42.809937
 10
20.943563
 20
42.809937
 10
20.943563
 20
41.010062
 10
22.540437
 20
41.010062
  0
ENDSEC
  0
EOF
