  0
SECTION
  2
HEADER
  9
$ACADVER
  1
AC1009
  9
$MEASUREMENT
 70
     1
  0
ENDSEC
  0
SECTION
  2
ENTITIES
  0
LWPOLYLINE
  8
0
 62
7
 90
5
 70
1
 10
15.841563
 20
3.810000
 10
15.841563
 20
2.911563
 10
17.438437
 20
2.911563
 10
17.438437
 20
4.708438
 10
15.841563
 20
4.708438
  0
LWPOLYLINE
  8
0
 62
7
 90
5
 70
1
 10
13.041562
 20
3.810000
 10
13.041562
 20
2.911563
 10
14.638438
 20
2.911563
 10
14.638438
 20
4.708438
 10
13.041562
 20
4.708438
  0
LWPOLYLINE
  8
0
 62
7
 90
5
 70
1
 10
11.430000
 20
21.473438
 10
10.931563
 20
21.473438
 10
10.931563
 20
19.476562
 10
11.928437
 20
19.476562
 10
11.928437
 20
21.473438
  0
LWPOLYLINE
  8
0
 62
7
 90
5
 70
1
 10
11.430000
 20
18.623438
 10
10.931563
 20
18.623438
 10
10.931563
 20
16.626562
 10
11.928437
 20
16.626562
 10
11.928437
 20
18.623438
  0
LWPOLYLINE
  8
0
 62
7
 90
5
 70
1
 10
20.841562
 20
5.560000
 10
20.841562
 20
4.811562
 10
22.338438
 20
4.811562
 10
22.338438
 20
6.308437
 10
20.841562
 20
6.308437
  0
LWPOLYLINE
  8
0
 62
7
 90
5
 70
1
 10
20.841562
 20
2.060000
 10
20.841562
 20
1.311562
 10
22.338438
 20
1.311562
 10
22.338438
 20
2.808438
 10
20.841562
 20
2.808438
  0
LWPOLYLINE
  8
0
 62
7
 90
5
 70
1
 10
24.128438
 20
17.780000
 10
24.128438
 20
18.540437
 10
20.321563
 20
18.540437
 10
20.321563
 20
17.019563
 10
24.128438
 20
17.019563
  0
LWPOLYLINE
  8
0
 62
7
 90
5
 70
1
 10
24.128438
 20
15.240000
 10
24.128438
 20
16.000438
 10
20.321563
 20
16.000438
 10
20.321563
 20
14.479563
 10
24.128438
 20
14.479563
  0
LWPOLYLINE
  8
0
 62
7
 90
5
 70
1
 10
24.128438
 20
12.700000
 10
24.128438
 20
13.460437
 10
20.321563
 20
13.460437
 10
20.321563
 20
11.939562
 10
24.128438
 20
11.939562
  0
LWPOLYLINE
  8
0
 62
7
 90
5
 70
1
 10
33.115000
 20
20.638438
 10
28.616563
 20
20.638438
 10
28.616563
 20
9.841563
 10
37.613438
 20
9.841563
 10
37.613438
 20
20.638438
  0
LWPOLYLINE
  8
0
 62
7
 90
5
 70
1
 10
15.886437
 20
12.700000
 10
15.886437
 20
13.599937
 10
14.289562
 20
13.599937
 10
14.289562
 20
11.800062
 10
15.886437
 20
11.800062
  0
LWPOLYLINE
  8
0
 62
7
 90
5
 70
1
 10
18.730437
 20
12.700000
 10
18.730437
 20
13.599937
 10
17.133563
 20
13.599937
 10
17.133563
 20
11.800062
 10
18.730437
 20
11.800062
  0
LWPOLYLINE
  8
0
 62
7
 90
5
 70
1
 10
17.133563
 20
20.320000
 10
17.133563
 20
19.420063
 10
18.730437
 20
19.420063
 10
18.730437
 20
21.219938
 10
17.133563
 20
21.219938
  0
LWPOLYLINE
  8
0
 62
7
 90
5
 70
1
 10
14.289562
 20
20.320000
 10
14.289562
 20
19.420063
 10
15.886437
 20
19.420063
 10
15.886437
 20
21.219938
 10
14.289562
 20
21.219938
  0
LWPOLYLINE
  8
0
 62
7
 90
5
 70
1
 10
17.133563
 20
16.510000
 10
17.133563
 20
15.610063
 10
18.730437
 20
15.610063
 10
18.730437
 20
17.409938
 10
17.133563
 20
17.409938
  0
LWPOLYLINE
  8
0
 62
7
 90
5
 70
1
 10
14.289562
 20
16.510000
 10
14.289562
 20
15.610063
 10
15.886437
 20
15.610063
 10
15.886437
 20
17.409938
 10
14.289562
 20
17.409938
  0
ENDSEC
  0
EOF
