G75*
%MOIN*%
%OFA0B0*%
%FSLAX24Y24*%
%IPPOS*%
%LPD*%
%AMOC8*
5,1,8,0,0,1.08239X$1,22.5*
%
%ADD10C,0.0000*%
%ADD11R,0.0634X0.0634*%
%ADD12C,0.0700*%
%ADD13C,0.0634*%
%ADD14R,0.0800X0.0800*%
%ADD15C,0.0800*%
%ADD16C,0.0600*%
%ADD17C,0.1700*%
%ADD18C,0.1542*%
%ADD19C,0.0640*%
%ADD20R,0.0355X0.0355*%
%ADD21R,0.0631X0.0552*%
%ADD22OC8,0.0640*%
%ADD23R,0.1221X0.0631*%
%ADD24C,0.0780*%
%ADD25R,0.0552X0.0631*%
%ADD26OC8,0.1040*%
%ADD27R,0.0500X0.0670*%
%ADD28R,0.0060X0.0720*%
%ADD29R,0.0670X0.0749*%
D10*
X005976Y000558D02*
X029476Y000558D01*
X029476Y005558D01*
X023476Y005558D01*
X023476Y011558D01*
X013476Y011558D01*
X013476Y016058D01*
X029376Y016058D01*
X029376Y022658D01*
X026176Y022658D01*
X026176Y017658D01*
X021776Y017658D01*
X021776Y022558D01*
X005976Y022558D01*
X005976Y000558D01*
D11*
X006960Y020558D03*
D12*
X006960Y021558D03*
X008960Y021558D03*
X008960Y019558D03*
D13*
X009960Y019558D03*
X010960Y019558D03*
X011960Y019558D03*
X011960Y018558D03*
X010960Y018558D03*
X009960Y018558D03*
X008960Y018558D03*
X008960Y020558D03*
X009960Y020558D03*
X010960Y020558D03*
X011960Y020558D03*
X012960Y020558D03*
X013960Y020558D03*
X014960Y020558D03*
X015960Y020558D03*
X016960Y020558D03*
X017960Y020558D03*
X018960Y020558D03*
X018960Y021558D03*
X017960Y021558D03*
X016960Y021558D03*
X015960Y021558D03*
X014960Y021558D03*
X013960Y021558D03*
X012960Y021558D03*
X011960Y021558D03*
X010960Y021558D03*
X009960Y021558D03*
X007960Y021558D03*
X007960Y020558D03*
X016960Y002558D03*
X016960Y001558D03*
D14*
X026826Y021308D03*
D15*
X027826Y021308D03*
X028826Y021308D03*
D16*
X010956Y014258D02*
X010396Y014258D01*
X010396Y013258D02*
X010956Y013258D01*
D17*
X009830Y008558D03*
D18*
X007370Y008558D03*
X008708Y006668D03*
D19*
X007576Y011558D02*
X006976Y011558D01*
X006976Y012558D02*
X007576Y012558D01*
X007576Y013558D02*
X006976Y013558D01*
X006976Y014558D02*
X007576Y014558D01*
X007576Y015958D02*
X006976Y015958D01*
X006976Y016958D02*
X007576Y016958D01*
X007576Y017958D02*
X006976Y017958D01*
X006976Y018958D02*
X007576Y018958D01*
D20*
X009281Y010858D03*
X009871Y010858D03*
X018581Y003358D03*
X019171Y003358D03*
D21*
X010476Y011184D03*
X010476Y011932D03*
D22*
X024476Y004258D03*
X025476Y004258D03*
X025476Y003258D03*
X024476Y003258D03*
X024476Y002258D03*
X025476Y002258D03*
D23*
X022413Y004590D03*
X022413Y005377D03*
X022413Y006164D03*
X022413Y006952D03*
X022413Y007739D03*
X022413Y008527D03*
X022413Y009314D03*
X016114Y009314D03*
X016114Y008527D03*
X016114Y007739D03*
X016114Y006952D03*
X016114Y006164D03*
X016114Y005377D03*
X016114Y004590D03*
D24*
X012426Y004558D03*
X012526Y003558D03*
X012426Y002558D03*
X012526Y001558D03*
X012526Y005558D03*
X012426Y006558D03*
X012526Y007558D03*
X012426Y008558D03*
X012526Y009558D03*
X012426Y010558D03*
X012526Y011558D03*
X012426Y012558D03*
X012526Y013558D03*
X012426Y014558D03*
D25*
X017102Y003558D03*
X017850Y003558D03*
D26*
X022476Y010558D03*
D27*
X017776Y011058D03*
X017176Y011058D03*
D28*
X017476Y011058D03*
D29*
X015527Y011058D03*
X014425Y011058D03*
X014527Y004458D03*
X013425Y004458D03*
M02*
