G75*
%MOIN*%
%OFA0B0*%
%FSLAX24Y24*%
%IPPOS*%
%LPD*%
%AMOC8*
5,1,8,0,0,1.08239X$1,22.5*
%
%ADD10C,0.0000*%
%ADD11R,0.0594X0.0594*%
%ADD12C,0.0660*%
%ADD13C,0.0594*%
%ADD14R,0.0760X0.0760*%
%ADD15C,0.0760*%
%ADD16C,0.0560*%
%ADD17C,0.1660*%
%ADD18C,0.1502*%
%ADD19C,0.0600*%
%ADD20OC8,0.0600*%
%ADD21C,0.0740*%
%ADD22R,0.0500X0.0220*%
%ADD23R,0.0220X0.0500*%
%ADD24R,0.0630X0.0710*%
%ADD25R,0.0709X0.0630*%
%ADD26R,0.1024X0.0315*%
%ADD27OC8,0.1000*%
%ADD28C,0.0080*%
%ADD29C,0.0240*%
%ADD30C,0.0100*%
%ADD31C,0.0200*%
%ADD32C,0.0400*%
D10*
X005976Y000558D02*
X029476Y000558D01*
X029476Y005558D01*
X023476Y005558D01*
X023476Y011558D01*
X013476Y011558D01*
X013476Y016058D01*
X029376Y016058D01*
X029376Y022658D01*
X026176Y022658D01*
X026176Y017658D01*
X021776Y017658D01*
X021776Y022558D01*
X005976Y022558D01*
X005976Y000558D01*
D11*
X006960Y020558D03*
D12*
X006960Y021558D03*
X008960Y021558D03*
X008960Y019558D03*
D13*
X009960Y019558D03*
X010960Y019558D03*
X011960Y019558D03*
X011960Y018558D03*
X010960Y018558D03*
X009960Y018558D03*
X008960Y018558D03*
X008960Y020558D03*
X009960Y020558D03*
X010960Y020558D03*
X011960Y020558D03*
X012960Y020558D03*
X013960Y020558D03*
X014960Y020558D03*
X015960Y020558D03*
X016960Y020558D03*
X017960Y020558D03*
X018960Y020558D03*
X018960Y021558D03*
X017960Y021558D03*
X016960Y021558D03*
X015960Y021558D03*
X014960Y021558D03*
X013960Y021558D03*
X012960Y021558D03*
X011960Y021558D03*
X010960Y021558D03*
X009960Y021558D03*
X007960Y021558D03*
X007960Y020558D03*
X016960Y002558D03*
X016960Y001558D03*
D14*
X026826Y021308D03*
D15*
X027826Y021308D03*
X028826Y021308D03*
D16*
X010956Y014258D02*
X010396Y014258D01*
X010396Y013258D02*
X010956Y013258D01*
D17*
X009830Y008558D03*
D18*
X007370Y008558D03*
X008708Y006668D03*
D19*
X007576Y011558D02*
X006976Y011558D01*
X006976Y012558D02*
X007576Y012558D01*
X007576Y013558D02*
X006976Y013558D01*
X006976Y014558D02*
X007576Y014558D01*
X007576Y015958D02*
X006976Y015958D01*
X006976Y016958D02*
X007576Y016958D01*
X007576Y017958D02*
X006976Y017958D01*
X006976Y018958D02*
X007576Y018958D01*
D20*
X024476Y004258D03*
X025476Y004258D03*
X025476Y003258D03*
X024476Y003258D03*
X024476Y002258D03*
X025476Y002258D03*
D21*
X012526Y001558D03*
X012426Y002558D03*
X012526Y003558D03*
X012426Y004558D03*
X012526Y005558D03*
X012426Y006558D03*
X012526Y007558D03*
X012426Y008558D03*
X012526Y009558D03*
X012426Y010558D03*
X012526Y011558D03*
X012426Y012558D03*
X012526Y013558D03*
X012426Y014558D03*
D22*
X015286Y007660D03*
X015286Y007345D03*
X015286Y007031D03*
X015286Y006716D03*
X015286Y006401D03*
X015286Y006086D03*
X015286Y005771D03*
X015286Y005456D03*
X018666Y005456D03*
X018666Y005771D03*
X018666Y006086D03*
X018666Y006401D03*
X018666Y006716D03*
X018666Y007031D03*
X018666Y007345D03*
X018666Y007660D03*
D23*
X018078Y008248D03*
X017763Y008248D03*
X017448Y008248D03*
X017133Y008248D03*
X016819Y008248D03*
X016504Y008248D03*
X016189Y008248D03*
X015874Y008248D03*
X015874Y004868D03*
X016189Y004868D03*
X016504Y004868D03*
X016819Y004868D03*
X017133Y004868D03*
X017448Y004868D03*
X017763Y004868D03*
X018078Y004868D03*
D24*
X014536Y017058D03*
X013416Y017058D03*
D25*
X018476Y002609D03*
X019476Y002609D03*
X019476Y001507D03*
X018476Y001507D03*
D26*
X019976Y005468D03*
X019976Y006058D03*
X019976Y006649D03*
D27*
X022476Y010558D03*
D28*
X018614Y008235D02*
X016252Y010597D01*
X014775Y010597D01*
X014480Y010302D01*
X014460Y010263D01*
X014460Y009436D01*
X014106Y009082D01*
X013889Y008845D02*
X013850Y008885D01*
X013889Y008845D02*
X016409Y008845D01*
X016803Y008452D01*
X016803Y008255D01*
X016819Y008248D01*
X017078Y008294D02*
X017133Y008248D01*
X017078Y008294D02*
X017078Y008649D01*
X016015Y009712D01*
X016015Y010243D01*
X016133Y010361D01*
X016074Y010834D02*
X017106Y010834D01*
X023661Y004279D01*
X024460Y004279D01*
X024476Y004258D01*
X024933Y002684D02*
X024519Y002271D01*
X024476Y002258D01*
X025051Y002212D02*
X024401Y001562D01*
X019500Y001562D01*
X019476Y001507D01*
X019460Y001523D01*
X018968Y001523D01*
X018968Y004633D01*
X017866Y005735D01*
X017866Y005775D01*
X015287Y005775D01*
X015286Y005771D01*
X015248Y005755D01*
X015070Y005755D01*
X014775Y005460D01*
X014775Y005282D01*
X014834Y004869D02*
X012649Y007054D01*
X012236Y007054D01*
X011504Y006523D01*
X011504Y001680D01*
X012354Y001031D01*
X024815Y001031D01*
X025878Y002094D01*
X025878Y002448D01*
X025641Y002684D01*
X024933Y002684D01*
X025051Y002212D02*
X025464Y002212D01*
X025476Y002258D01*
X019972Y005460D02*
X019976Y005468D01*
X019972Y005460D02*
X018673Y005460D01*
X018666Y005456D01*
X018666Y005771D02*
X018673Y005775D01*
X018870Y005775D01*
X019342Y006247D01*
X019342Y006267D01*
X019716Y006641D01*
X019972Y006641D01*
X019976Y006649D01*
X018666Y006716D02*
X018653Y006700D01*
X018417Y006700D01*
X018319Y006601D01*
X018020Y007000D01*
X017669Y007182D02*
X017669Y006082D01*
X018161Y005775D02*
X018299Y005912D01*
X018279Y005932D01*
X018279Y006562D01*
X018319Y006601D01*
X018456Y006070D02*
X018653Y006070D01*
X018666Y006086D01*
X018456Y006070D02*
X018299Y005912D01*
X018161Y005775D02*
X017866Y005775D01*
X017763Y004868D02*
X017748Y004849D01*
X017748Y004495D01*
X016822Y003570D01*
X012531Y003570D01*
X012526Y003558D01*
X012885Y003865D02*
X012708Y004042D01*
X012334Y004042D01*
X011839Y003747D01*
X011839Y002940D01*
X012413Y002566D01*
X012426Y002558D01*
X012610Y002074D02*
X012236Y002074D01*
X011681Y002428D01*
X011681Y004023D01*
X012413Y004554D01*
X012426Y004558D01*
X012767Y005007D02*
X012689Y005086D01*
X012315Y005086D01*
X011760Y005440D01*
X012078Y005912D02*
X012196Y006031D01*
X012846Y006031D01*
X012866Y006011D01*
X014834Y004869D02*
X015838Y004869D01*
X015874Y004868D01*
X016133Y004810D02*
X016189Y004868D01*
X016133Y004810D02*
X016133Y004574D01*
X016074Y004515D01*
X015366Y004515D01*
X015248Y004633D01*
X015287Y005164D02*
X015287Y005440D01*
X015286Y005456D01*
X016488Y004849D02*
X016504Y004868D01*
X016488Y004849D02*
X016488Y004101D01*
X016822Y004101D02*
X016881Y004101D01*
X017137Y004357D01*
X017137Y004849D01*
X017133Y004868D01*
X017433Y004849D02*
X017448Y004868D01*
X017433Y004849D02*
X017433Y004397D01*
X016901Y003865D01*
X012885Y003865D01*
X013948Y003412D02*
X012610Y002074D01*
X013948Y003412D02*
X016881Y003412D01*
X018063Y004594D01*
X018063Y004849D01*
X018078Y004868D01*
X016901Y004436D02*
X016822Y004515D01*
X016822Y004849D01*
X016819Y004868D01*
X017669Y007182D02*
X018417Y007330D01*
X018653Y007330D01*
X018666Y007345D01*
X018666Y007660D02*
X018614Y007704D01*
X018614Y008235D01*
X018082Y008235D02*
X018082Y007920D01*
X018220Y007782D01*
X018653Y007664D02*
X018666Y007660D01*
X018082Y008235D02*
X018078Y008248D01*
X017763Y008248D02*
X017748Y008255D01*
X017748Y008649D01*
X016606Y009790D01*
X016291Y009790D02*
X017433Y008649D01*
X017433Y008255D01*
X017448Y008248D01*
X016504Y008248D02*
X016488Y008255D01*
X016488Y008452D01*
X016291Y008649D01*
X012511Y008649D01*
X012433Y008570D01*
X012426Y008558D01*
X014106Y009790D02*
X013082Y010814D01*
X013082Y011129D02*
X013555Y010656D01*
X013594Y011070D02*
X013476Y011070D01*
X013004Y011542D01*
X013004Y015912D01*
X010405Y018511D01*
X010405Y020105D01*
X009992Y020519D01*
X009960Y020558D01*
X009559Y020735D02*
X009815Y020991D01*
X014126Y020991D01*
X014736Y020381D01*
X014960Y020558D01*
X014952Y020558D01*
X014539Y020145D01*
X014539Y017074D01*
X014536Y017058D01*
X014500Y017290D01*
X014027Y016818D01*
X013416Y017058D02*
X013358Y017034D01*
X013358Y016149D01*
X013299Y016090D01*
X013299Y011483D01*
X013476Y011306D01*
X015602Y011306D01*
X016074Y010834D01*
X012526Y011558D02*
X012511Y011542D01*
X012236Y011542D01*
X011704Y010911D01*
X012413Y010558D02*
X012426Y010558D01*
X012413Y010558D02*
X012413Y010499D01*
X011941Y010027D01*
X015090Y008412D02*
X015130Y008452D01*
X015405Y008452D01*
X015602Y008255D01*
X015858Y008255D01*
X015874Y008248D01*
X016173Y008235D02*
X016189Y008248D01*
X016173Y008235D02*
X016173Y008038D01*
X016015Y007881D01*
X015661Y007881D01*
X015326Y008216D01*
X014893Y007901D02*
X015130Y007664D01*
X015267Y007664D01*
X015286Y007660D01*
X015286Y007345D02*
X015267Y007330D01*
X014854Y007330D01*
X012426Y012558D02*
X012413Y012566D01*
X012275Y012566D01*
X011662Y012979D01*
X007276Y012558D02*
X006960Y012566D01*
X006252Y013275D01*
X006252Y021503D01*
X006763Y022015D01*
X014067Y022015D01*
X014362Y021719D01*
X014362Y021582D01*
X014815Y021129D01*
X016960Y021129D01*
X017531Y020558D01*
X017960Y020558D01*
X014539Y017074D02*
X014539Y017007D01*
X028133Y017007D01*
X028712Y020086D01*
X028712Y021306D01*
X028826Y021308D01*
X009559Y020735D02*
X009559Y019515D01*
X008968Y018924D01*
X008968Y018570D01*
X008960Y018558D01*
X007925Y020519D02*
X006507Y019101D01*
X006507Y017743D01*
X007275Y016975D01*
X007276Y016958D01*
X007925Y020519D02*
X007960Y020558D01*
X018476Y001523D02*
X018476Y001507D01*
X018476Y001523D02*
X018968Y001523D01*
D29*
X016822Y004101D03*
X016488Y004101D03*
X016901Y004436D03*
X015248Y004633D03*
X015287Y005164D03*
X014775Y005282D03*
X012866Y006011D03*
X012078Y005912D03*
X011760Y005440D03*
X012767Y005007D03*
X014854Y007330D03*
X014893Y007901D03*
X015326Y008216D03*
X015090Y008412D03*
X014106Y009082D03*
X013850Y008885D03*
X012984Y009219D03*
X014106Y009790D03*
X014460Y010263D03*
X013555Y010656D03*
X013594Y011070D03*
X013082Y011129D03*
X013082Y010814D03*
X011704Y010911D03*
X011941Y010027D03*
X016133Y010361D03*
X016074Y010834D03*
X016291Y009790D03*
X016606Y009790D03*
X018220Y007782D03*
X018020Y007000D03*
X017669Y006082D03*
X011662Y012979D03*
X014027Y016818D03*
D30*
X014037Y017068D02*
X013977Y017068D01*
X013886Y017030D01*
X013861Y017005D01*
X013861Y017467D01*
X013785Y017543D01*
X013047Y017543D01*
X012971Y017467D01*
X012971Y016649D01*
X013047Y016573D01*
X013188Y016573D01*
X013188Y016219D01*
X013129Y016160D01*
X013129Y016028D01*
X011025Y018131D01*
X011045Y018131D01*
X011202Y018196D01*
X011322Y018316D01*
X011387Y018473D01*
X011387Y018643D01*
X011322Y018800D01*
X011202Y018920D01*
X011045Y018985D01*
X010875Y018985D01*
X010718Y018920D01*
X010598Y018800D01*
X010575Y018744D01*
X010575Y019372D01*
X010575Y019372D01*
X010598Y019316D01*
X010718Y019196D01*
X010875Y019131D01*
X011045Y019131D01*
X011202Y019196D01*
X011322Y019316D01*
X011387Y019473D01*
X011387Y019643D01*
X011322Y019800D01*
X011202Y019920D01*
X011045Y019985D01*
X010875Y019985D01*
X010718Y019920D01*
X010598Y019800D01*
X010575Y019744D01*
X010575Y020176D01*
X010355Y020396D01*
X010387Y020473D01*
X010387Y020643D01*
X010322Y020800D01*
X010301Y020821D01*
X010599Y020821D01*
X010578Y020792D01*
X010546Y020730D01*
X010524Y020663D01*
X010515Y020606D01*
X010912Y020606D01*
X010912Y020510D01*
X010515Y020510D01*
X010524Y020453D01*
X010546Y020387D01*
X010578Y020324D01*
X010619Y020267D01*
X010669Y020217D01*
X010726Y020176D01*
X010789Y020144D01*
X010856Y020122D01*
X010912Y020113D01*
X010912Y020510D01*
X011009Y020510D01*
X011009Y020606D01*
X011405Y020606D01*
X011396Y020663D01*
X011374Y020730D01*
X011342Y020792D01*
X011321Y020821D01*
X011620Y020821D01*
X011598Y020800D01*
X011533Y020643D01*
X011533Y020473D01*
X011598Y020316D01*
X011718Y020196D01*
X011875Y020131D01*
X012045Y020131D01*
X012202Y020196D01*
X012322Y020316D01*
X012387Y020473D01*
X012387Y020643D01*
X012322Y020800D01*
X012301Y020821D01*
X012620Y020821D01*
X012598Y020800D01*
X012533Y020643D01*
X012533Y020473D01*
X012598Y020316D01*
X012718Y020196D01*
X012875Y020131D01*
X013045Y020131D01*
X013202Y020196D01*
X013322Y020316D01*
X013387Y020473D01*
X013387Y020643D01*
X013322Y020800D01*
X013301Y020821D01*
X013620Y020821D01*
X013598Y020800D01*
X013533Y020643D01*
X013533Y020473D01*
X013598Y020316D01*
X013718Y020196D01*
X013875Y020131D01*
X014045Y020131D01*
X014202Y020196D01*
X014322Y020316D01*
X014387Y020473D01*
X014387Y020489D01*
X014515Y020361D01*
X014369Y020215D01*
X014369Y017543D01*
X014167Y017543D01*
X014091Y017467D01*
X014091Y017122D01*
X014037Y017068D01*
X014075Y017106D02*
X013861Y017106D01*
X013861Y017008D02*
X013863Y017008D01*
X013861Y017205D02*
X014091Y017205D01*
X014091Y017303D02*
X013861Y017303D01*
X013861Y017402D02*
X014091Y017402D01*
X014124Y017500D02*
X013828Y017500D01*
X014369Y017599D02*
X011558Y017599D01*
X011459Y017697D02*
X014369Y017697D01*
X014369Y017796D02*
X011361Y017796D01*
X011262Y017894D02*
X014369Y017894D01*
X014369Y017993D02*
X011164Y017993D01*
X011065Y018091D02*
X014369Y018091D01*
X014369Y018190D02*
X012213Y018190D01*
X012194Y018176D02*
X012251Y018217D01*
X012301Y018267D01*
X012342Y018324D01*
X012374Y018387D01*
X014369Y018387D01*
X014369Y018485D02*
X012401Y018485D01*
X012405Y018510D02*
X012009Y018510D01*
X012009Y018606D01*
X012405Y018606D01*
X012396Y018663D01*
X012374Y018730D01*
X012342Y018792D01*
X012301Y018849D01*
X012251Y018899D01*
X012194Y018940D01*
X012132Y018972D01*
X012065Y018994D01*
X012009Y019003D01*
X012009Y018607D01*
X011912Y018607D01*
X011912Y019003D01*
X011856Y018994D01*
X011789Y018972D01*
X011726Y018940D01*
X011669Y018899D01*
X011619Y018849D01*
X011578Y018792D01*
X011546Y018730D01*
X011524Y018663D01*
X011515Y018606D01*
X011912Y018606D01*
X011912Y018510D01*
X011515Y018510D01*
X011524Y018453D01*
X011546Y018387D01*
X011351Y018387D01*
X011387Y018485D02*
X011519Y018485D01*
X011546Y018387D02*
X011578Y018324D01*
X011619Y018267D01*
X011669Y018217D01*
X011726Y018176D01*
X011789Y018144D01*
X011856Y018122D01*
X011912Y018113D01*
X011912Y018510D01*
X012009Y018510D01*
X012009Y018113D01*
X012065Y018122D01*
X012132Y018144D01*
X012194Y018176D01*
X012316Y018288D02*
X014369Y018288D01*
X014369Y018584D02*
X012009Y018584D01*
X011912Y018584D02*
X011387Y018584D01*
X011371Y018682D02*
X011531Y018682D01*
X011572Y018781D02*
X011330Y018781D01*
X011243Y018879D02*
X011649Y018879D01*
X011805Y018978D02*
X011063Y018978D01*
X010858Y018978D02*
X010575Y018978D01*
X010575Y019076D02*
X014369Y019076D01*
X014369Y018978D02*
X012115Y018978D01*
X012009Y018978D02*
X011912Y018978D01*
X011912Y018879D02*
X012009Y018879D01*
X012009Y018781D02*
X011912Y018781D01*
X011912Y018682D02*
X012009Y018682D01*
X012009Y018485D02*
X011912Y018485D01*
X011912Y018387D02*
X012009Y018387D01*
X012009Y018288D02*
X011912Y018288D01*
X011912Y018190D02*
X012009Y018190D01*
X011707Y018190D02*
X011186Y018190D01*
X011294Y018288D02*
X011604Y018288D01*
X012374Y018387D02*
X012396Y018453D01*
X012405Y018510D01*
X012390Y018682D02*
X014369Y018682D01*
X014369Y018781D02*
X012348Y018781D01*
X012271Y018879D02*
X014369Y018879D01*
X014709Y018879D02*
X021626Y018879D01*
X021626Y018781D02*
X014709Y018781D01*
X014709Y018682D02*
X021626Y018682D01*
X021626Y018584D02*
X014709Y018584D01*
X014709Y018485D02*
X021626Y018485D01*
X021626Y018387D02*
X014709Y018387D01*
X014709Y018288D02*
X021626Y018288D01*
X021626Y018190D02*
X014709Y018190D01*
X014709Y018091D02*
X021626Y018091D01*
X021626Y017993D02*
X014709Y017993D01*
X014709Y017894D02*
X021626Y017894D01*
X021626Y017796D02*
X014709Y017796D01*
X014709Y017697D02*
X021626Y017697D01*
X021626Y017599D02*
X014709Y017599D01*
X014709Y017543D02*
X014709Y020074D01*
X014798Y020163D01*
X014875Y020131D01*
X015045Y020131D01*
X015202Y020196D01*
X015322Y020316D01*
X015387Y020473D01*
X015387Y020643D01*
X015322Y020800D01*
X015202Y020920D01*
X015108Y020959D01*
X015813Y020959D01*
X015718Y020920D01*
X015598Y020800D01*
X015533Y020643D01*
X015533Y020473D01*
X015598Y020316D01*
X015718Y020196D01*
X015875Y020131D01*
X016045Y020131D01*
X016202Y020196D01*
X016322Y020316D01*
X016387Y020473D01*
X016387Y020643D01*
X016322Y020800D01*
X016202Y020920D01*
X016108Y020959D01*
X016813Y020959D01*
X016718Y020920D01*
X016598Y020800D01*
X016533Y020643D01*
X016533Y020473D01*
X016598Y020316D01*
X016718Y020196D01*
X016875Y020131D01*
X017045Y020131D01*
X017202Y020196D01*
X017322Y020316D01*
X017384Y020465D01*
X017461Y020388D01*
X017569Y020388D01*
X017598Y020316D01*
X017718Y020196D01*
X017875Y020131D01*
X018045Y020131D01*
X018202Y020196D01*
X018322Y020316D01*
X018387Y020473D01*
X018387Y020643D01*
X018322Y020800D01*
X018202Y020920D01*
X018045Y020985D01*
X017875Y020985D01*
X017718Y020920D01*
X017598Y020800D01*
X017578Y020751D01*
X017153Y021176D01*
X017202Y021196D01*
X017322Y021316D01*
X017387Y021473D01*
X017387Y021643D01*
X017322Y021800D01*
X017202Y021920D01*
X017045Y021985D01*
X016875Y021985D01*
X016718Y021920D01*
X016598Y021800D01*
X016533Y021643D01*
X016533Y021473D01*
X016598Y021316D01*
X016616Y021299D01*
X016324Y021299D01*
X016342Y021324D01*
X016374Y021387D01*
X016396Y021453D01*
X016405Y021510D01*
X016009Y021510D01*
X016009Y021606D01*
X016405Y021606D01*
X016396Y021663D01*
X016374Y021730D01*
X016342Y021792D01*
X016301Y021849D01*
X016251Y021899D01*
X016194Y021940D01*
X016132Y021972D01*
X016065Y021994D01*
X016009Y022003D01*
X016009Y021607D01*
X015912Y021607D01*
X015912Y022003D01*
X015856Y021994D01*
X015789Y021972D01*
X015726Y021940D01*
X015669Y021899D01*
X015619Y021849D01*
X015578Y021792D01*
X015546Y021730D01*
X015524Y021663D01*
X015515Y021606D01*
X015912Y021606D01*
X015912Y021510D01*
X015515Y021510D01*
X015524Y021453D01*
X015546Y021387D01*
X015578Y021324D01*
X015596Y021299D01*
X015305Y021299D01*
X015322Y021316D01*
X015387Y021473D01*
X015387Y021643D01*
X015322Y021800D01*
X015202Y021920D01*
X015045Y021985D01*
X014875Y021985D01*
X014718Y021920D01*
X014598Y021800D01*
X014536Y021648D01*
X014532Y021652D01*
X014532Y021790D01*
X014237Y022085D01*
X014137Y022185D01*
X006693Y022185D01*
X006181Y021673D01*
X006126Y021618D01*
X006126Y022408D01*
X021626Y022408D01*
X021626Y017596D01*
X021714Y017508D01*
X026238Y017508D01*
X026326Y017596D01*
X026326Y020864D01*
X026392Y020798D01*
X027260Y020798D01*
X027336Y020874D01*
X027336Y021102D01*
X027373Y021030D01*
X027422Y020963D01*
X027481Y020904D01*
X027548Y020855D01*
X027623Y020817D01*
X027702Y020791D01*
X027776Y020779D01*
X027776Y021258D01*
X027876Y021258D01*
X027876Y020779D01*
X027950Y020791D01*
X028029Y020817D01*
X028104Y020855D01*
X028171Y020904D01*
X028230Y020963D01*
X028279Y021030D01*
X028317Y021105D01*
X028335Y021160D01*
X028394Y021019D01*
X028537Y020876D01*
X028542Y020874D01*
X028542Y020101D01*
X027992Y017177D01*
X014981Y017177D01*
X014981Y017467D01*
X014905Y017543D01*
X014709Y017543D01*
X014948Y017500D02*
X028053Y017500D01*
X028035Y017402D02*
X014981Y017402D01*
X014981Y017303D02*
X028016Y017303D01*
X027998Y017205D02*
X014981Y017205D01*
X013188Y016515D02*
X012641Y016515D01*
X012543Y016614D02*
X013007Y016614D01*
X012971Y016712D02*
X012444Y016712D01*
X012346Y016811D02*
X012971Y016811D01*
X012971Y016909D02*
X012247Y016909D01*
X012149Y017008D02*
X012971Y017008D01*
X012971Y017106D02*
X012050Y017106D01*
X011952Y017205D02*
X012971Y017205D01*
X012971Y017303D02*
X011853Y017303D01*
X011755Y017402D02*
X012971Y017402D01*
X013004Y017500D02*
X011656Y017500D01*
X011372Y017303D02*
X008706Y017303D01*
X008706Y017205D02*
X011471Y017205D01*
X011569Y017106D02*
X008706Y017106D01*
X008706Y017008D02*
X011668Y017008D01*
X011766Y016909D02*
X008706Y016909D01*
X008706Y016811D02*
X011865Y016811D01*
X011963Y016712D02*
X008706Y016712D01*
X008706Y016614D02*
X012062Y016614D01*
X012160Y016515D02*
X008706Y016515D01*
X008706Y016417D02*
X012259Y016417D01*
X012357Y016318D02*
X008706Y016318D01*
X008706Y016220D02*
X012456Y016220D01*
X012554Y016121D02*
X008706Y016121D01*
X008706Y016023D02*
X012653Y016023D01*
X012751Y015924D02*
X008706Y015924D01*
X008706Y015826D02*
X012834Y015826D01*
X012834Y015842D02*
X012834Y014882D01*
X012823Y014897D01*
X012765Y014955D01*
X012699Y015003D01*
X012626Y015040D01*
X012548Y015065D01*
X012476Y015077D01*
X012476Y014608D01*
X012376Y014608D01*
X012376Y014508D01*
X012476Y014508D01*
X012476Y014058D01*
X012427Y014058D01*
X012243Y013982D01*
X012102Y013841D01*
X012026Y013658D01*
X012026Y013459D01*
X012102Y013275D01*
X012243Y013134D01*
X012427Y013058D01*
X012625Y013058D01*
X012809Y013134D01*
X012834Y013159D01*
X012834Y012858D01*
X012709Y012982D01*
X012525Y013058D01*
X012327Y013058D01*
X012143Y012982D01*
X012070Y012909D01*
X011912Y013016D01*
X011912Y013029D01*
X011874Y013121D01*
X011803Y013191D01*
X011712Y013229D01*
X011612Y013229D01*
X011520Y013191D01*
X011450Y013121D01*
X011412Y013029D01*
X011412Y012930D01*
X011450Y012838D01*
X011520Y012767D01*
X011612Y012729D01*
X011712Y012729D01*
X011722Y012734D01*
X011926Y012596D01*
X011926Y012459D01*
X012002Y012275D01*
X012143Y012134D01*
X012327Y012058D01*
X012525Y012058D01*
X012709Y012134D01*
X012834Y012259D01*
X012834Y011958D01*
X012809Y011982D01*
X012625Y012058D01*
X012427Y012058D01*
X012243Y011982D01*
X012102Y011841D01*
X012026Y011658D01*
X012026Y011557D01*
X011693Y011161D01*
X011655Y011161D01*
X011563Y011123D01*
X011492Y011052D01*
X011454Y010961D01*
X011454Y010861D01*
X011492Y010769D01*
X011563Y010699D01*
X011655Y010661D01*
X011754Y010661D01*
X011846Y010699D01*
X011916Y010769D01*
X011954Y010861D01*
X011954Y010944D01*
X012173Y011204D01*
X012243Y011134D01*
X012427Y011058D01*
X012625Y011058D01*
X012809Y011134D01*
X012832Y011157D01*
X012832Y011079D01*
X012870Y010987D01*
X012886Y010971D01*
X012870Y010956D01*
X012832Y010864D01*
X012832Y010859D01*
X012709Y010982D01*
X012525Y011058D01*
X012327Y011058D01*
X012143Y010982D01*
X012002Y010841D01*
X011926Y010658D01*
X011926Y010459D01*
X011986Y010313D01*
X011950Y010277D01*
X011891Y010277D01*
X011799Y010239D01*
X011729Y010168D01*
X011691Y010076D01*
X011691Y009977D01*
X011729Y009885D01*
X011799Y009815D01*
X011891Y009777D01*
X011990Y009777D01*
X012082Y009815D01*
X012097Y009830D01*
X012026Y009658D01*
X012026Y009459D01*
X012102Y009275D01*
X012243Y009134D01*
X012427Y009058D01*
X012625Y009058D01*
X012757Y009113D01*
X012772Y009078D01*
X012842Y009008D01*
X012934Y008969D01*
X013034Y008969D01*
X013125Y009008D01*
X013196Y009078D01*
X013234Y009170D01*
X013234Y009269D01*
X013196Y009361D01*
X013125Y009431D01*
X013034Y009469D01*
X013026Y009469D01*
X013026Y009658D01*
X012950Y009841D01*
X012809Y009982D01*
X012625Y010058D01*
X012427Y010058D01*
X012243Y009982D01*
X012157Y009896D01*
X012191Y009977D01*
X012191Y010036D01*
X012246Y010091D01*
X012327Y010058D01*
X012525Y010058D01*
X012709Y010134D01*
X012850Y010275D01*
X012926Y010459D01*
X012926Y010617D01*
X012941Y010602D01*
X013033Y010564D01*
X013092Y010564D01*
X013856Y009800D01*
X013856Y009741D01*
X013894Y009649D01*
X013964Y009578D01*
X014056Y009540D01*
X014156Y009540D01*
X014248Y009578D01*
X014290Y009621D01*
X014290Y009506D01*
X014115Y009332D01*
X014056Y009332D01*
X013964Y009294D01*
X013894Y009223D01*
X013857Y009135D01*
X013800Y009135D01*
X013708Y009097D01*
X013638Y009026D01*
X013600Y008935D01*
X013600Y008835D01*
X013607Y008819D01*
X012859Y008819D01*
X012850Y008841D01*
X012709Y008982D01*
X012525Y009058D01*
X012327Y009058D01*
X012143Y008982D01*
X012002Y008841D01*
X011926Y008658D01*
X011926Y008459D01*
X012002Y008275D01*
X012143Y008134D01*
X012327Y008058D01*
X012525Y008058D01*
X012709Y008134D01*
X012850Y008275D01*
X012926Y008459D01*
X012926Y008479D01*
X014847Y008479D01*
X014840Y008462D01*
X014840Y008363D01*
X014878Y008271D01*
X014949Y008200D01*
X015040Y008162D01*
X015078Y008162D01*
X015114Y008074D01*
X015185Y008004D01*
X015277Y007966D01*
X015336Y007966D01*
X015401Y007900D01*
X015143Y007900D01*
X015143Y007950D01*
X015105Y008042D01*
X015035Y008113D01*
X014943Y008151D01*
X014844Y008151D01*
X014752Y008113D01*
X014681Y008042D01*
X014643Y007950D01*
X014643Y007851D01*
X014681Y007759D01*
X014752Y007689D01*
X014844Y007651D01*
X014903Y007651D01*
X014906Y007647D01*
X014906Y007579D01*
X014904Y007580D01*
X014804Y007580D01*
X014712Y007542D01*
X014642Y007471D01*
X014604Y007379D01*
X014604Y007280D01*
X014642Y007188D01*
X014712Y007118D01*
X014804Y007080D01*
X014904Y007080D01*
X014906Y007081D01*
X014906Y006900D01*
X014896Y006883D01*
X014886Y006845D01*
X014886Y006721D01*
X015281Y006721D01*
X015281Y006711D01*
X014886Y006711D01*
X014886Y006586D01*
X014896Y006548D01*
X014906Y006531D01*
X014906Y005831D01*
X014900Y005825D01*
X014605Y005530D01*
X014605Y005466D01*
X014563Y005424D01*
X014550Y005393D01*
X012819Y007125D01*
X012809Y007134D01*
X012950Y007275D01*
X013026Y007459D01*
X013026Y007658D01*
X012950Y007841D01*
X012809Y007982D01*
X012625Y008058D01*
X012427Y008058D01*
X012243Y007982D01*
X012102Y007841D01*
X012026Y007658D01*
X012026Y007459D01*
X012102Y007275D01*
X012159Y007218D01*
X012125Y007184D01*
X011449Y006693D01*
X011434Y006693D01*
X011394Y006652D01*
X011347Y006619D01*
X011345Y006604D01*
X011334Y006593D01*
X011334Y006536D01*
X011325Y006480D01*
X011334Y006467D01*
X011334Y001738D01*
X011327Y001727D01*
X011334Y001669D01*
X011334Y001610D01*
X011343Y001601D01*
X011345Y001588D01*
X011392Y001552D01*
X011434Y001510D01*
X011447Y001510D01*
X012242Y000902D01*
X012284Y000861D01*
X012296Y000861D01*
X012307Y000853D01*
X012365Y000861D01*
X024885Y000861D01*
X025948Y001924D01*
X026048Y002023D01*
X026048Y002518D01*
X025811Y002754D01*
X025712Y002854D01*
X025680Y002854D01*
X025906Y003080D01*
X025906Y003436D01*
X025654Y003688D01*
X025298Y003688D01*
X025046Y003436D01*
X025046Y003080D01*
X025272Y002854D01*
X024862Y002854D01*
X024675Y002667D01*
X024654Y002688D01*
X024298Y002688D01*
X024046Y002436D01*
X024046Y002080D01*
X024298Y001828D01*
X024427Y001828D01*
X024331Y001732D01*
X019960Y001732D01*
X019960Y001876D01*
X019884Y001952D01*
X019138Y001952D01*
X019138Y002144D01*
X019426Y002144D01*
X019426Y002559D01*
X019526Y002559D01*
X019526Y002144D01*
X019850Y002144D01*
X019888Y002155D01*
X019922Y002174D01*
X019950Y002202D01*
X019970Y002236D01*
X019980Y002275D01*
X019980Y002559D01*
X019526Y002559D01*
X019526Y002659D01*
X019980Y002659D01*
X019980Y002944D01*
X019970Y002982D01*
X019950Y003016D01*
X019922Y003044D01*
X019888Y003064D01*
X019850Y003074D01*
X019526Y003074D01*
X019526Y002659D01*
X019426Y002659D01*
X019426Y003074D01*
X019138Y003074D01*
X019138Y004703D01*
X018626Y005216D01*
X018970Y005216D01*
X019044Y005290D01*
X019334Y005290D01*
X019334Y005256D01*
X019410Y005180D01*
X020542Y005180D01*
X020618Y005256D01*
X020618Y005679D01*
X020542Y005755D01*
X020524Y005755D01*
X020546Y005761D01*
X020580Y005781D01*
X020608Y005808D01*
X020628Y005843D01*
X020638Y005881D01*
X020638Y006029D01*
X020005Y006029D01*
X020005Y006087D01*
X020638Y006087D01*
X020638Y006235D01*
X020628Y006273D01*
X020608Y006308D01*
X020580Y006336D01*
X020546Y006355D01*
X020524Y006361D01*
X020542Y006361D01*
X020618Y006437D01*
X020618Y006860D01*
X020542Y006936D01*
X019410Y006936D01*
X019334Y006860D01*
X019334Y006499D01*
X019272Y006437D01*
X019272Y006437D01*
X019172Y006337D01*
X019172Y006317D01*
X019046Y006191D01*
X019046Y006216D01*
X019056Y006233D01*
X019066Y006271D01*
X019126Y006271D01*
X019066Y006271D02*
X019066Y006396D01*
X018671Y006396D01*
X018671Y006406D01*
X018661Y006406D01*
X018661Y006476D01*
X018671Y006476D01*
X018671Y006406D01*
X019066Y006406D01*
X019066Y006530D01*
X019056Y006568D01*
X019046Y006585D01*
X019046Y006846D01*
X019056Y006863D01*
X019066Y006901D01*
X019066Y007026D01*
X018671Y007026D01*
X018671Y007036D01*
X018661Y007036D01*
X018661Y007105D01*
X018671Y007105D01*
X018671Y007036D01*
X019066Y007036D01*
X019066Y007160D01*
X019056Y007198D01*
X019046Y007215D01*
X019046Y007824D01*
X018970Y007900D01*
X018784Y007900D01*
X018784Y008306D01*
X016426Y010664D01*
X017035Y010664D01*
X023591Y004109D01*
X024046Y004109D01*
X024046Y004080D01*
X024298Y003828D01*
X024654Y003828D01*
X024906Y004080D01*
X024906Y004436D01*
X024654Y004688D01*
X024298Y004688D01*
X024058Y004449D01*
X023731Y004449D01*
X017276Y010904D01*
X017176Y011004D01*
X016258Y011004D01*
X016216Y011046D01*
X016124Y011084D01*
X016065Y011084D01*
X015740Y011408D01*
X023326Y011408D01*
X023326Y005496D01*
X023414Y005408D01*
X029326Y005408D01*
X029326Y000708D01*
X006126Y000708D01*
X006126Y013160D01*
X006181Y013105D01*
X006181Y013105D01*
X006574Y012712D01*
X006546Y012644D01*
X006546Y012473D01*
X006611Y012314D01*
X006732Y012194D01*
X006890Y012128D01*
X007662Y012128D01*
X007820Y012194D01*
X007941Y012314D01*
X008006Y012473D01*
X008006Y012644D01*
X007941Y012802D01*
X007820Y012923D01*
X007662Y012988D01*
X006890Y012988D01*
X006811Y012955D01*
X006422Y013345D01*
X006422Y017589D01*
X006710Y017300D01*
X006611Y017202D01*
X006546Y017044D01*
X006546Y016873D01*
X006611Y016714D01*
X006732Y016594D01*
X006890Y016528D01*
X007662Y016528D01*
X007820Y016594D01*
X007941Y016714D01*
X008006Y016873D01*
X008006Y017044D01*
X007941Y017202D01*
X007820Y017323D01*
X007662Y017388D01*
X007103Y017388D01*
X006983Y017508D01*
X007226Y017508D01*
X007226Y017908D01*
X007326Y017908D01*
X007326Y017508D01*
X007611Y017508D01*
X007681Y017519D01*
X007749Y017541D01*
X007812Y017573D01*
X007869Y017615D01*
X007919Y017665D01*
X007961Y017722D01*
X007993Y017785D01*
X008015Y017853D01*
X008024Y017908D01*
X007326Y017908D01*
X007326Y018008D01*
X008024Y018008D01*
X008015Y018063D01*
X007993Y018131D01*
X007961Y018194D01*
X007919Y018251D01*
X007869Y018301D01*
X007812Y018343D01*
X007749Y018375D01*
X007681Y018397D01*
X007611Y018408D01*
X007326Y018408D01*
X007326Y018008D01*
X007226Y018008D01*
X007226Y018408D01*
X006941Y018408D01*
X006871Y018397D01*
X006803Y018375D01*
X006740Y018343D01*
X006683Y018301D01*
X006677Y018296D01*
X006677Y018648D01*
X006732Y018594D01*
X006890Y018528D01*
X007662Y018528D01*
X007820Y018594D01*
X007941Y018714D01*
X008006Y018873D01*
X008006Y019044D01*
X007941Y019202D01*
X007820Y019323D01*
X007662Y019388D01*
X007035Y019388D01*
X007806Y020160D01*
X007875Y020131D01*
X008045Y020131D01*
X008202Y020196D01*
X008246Y020240D01*
X008246Y015423D01*
X008381Y015289D01*
X010114Y013556D01*
X010048Y013490D01*
X009986Y013340D01*
X009986Y013177D01*
X010048Y013026D01*
X010164Y012910D01*
X010314Y012848D01*
X011038Y012848D01*
X011188Y012910D01*
X011304Y013026D01*
X011366Y013177D01*
X011366Y013340D01*
X011304Y013490D01*
X011188Y013606D01*
X011038Y013668D01*
X010652Y013668D01*
X010472Y013848D01*
X011038Y013848D01*
X011188Y013910D01*
X011304Y014026D01*
X011366Y014177D01*
X011366Y014340D01*
X011304Y014490D01*
X011188Y014606D01*
X011038Y014668D01*
X010314Y014668D01*
X010164Y014606D01*
X010048Y014490D01*
X009986Y014340D01*
X009986Y014334D01*
X008706Y015614D01*
X008706Y018209D01*
X008718Y018196D01*
X008875Y018131D01*
X009045Y018131D01*
X009202Y018196D01*
X009322Y018316D01*
X009387Y018473D01*
X009387Y018643D01*
X009322Y018800D01*
X009203Y018919D01*
X009599Y019315D01*
X009718Y019196D01*
X009875Y019131D01*
X010045Y019131D01*
X010202Y019196D01*
X010235Y019229D01*
X010235Y018887D01*
X010202Y018920D01*
X010045Y018985D01*
X009875Y018985D01*
X009718Y018920D01*
X009598Y018800D01*
X009533Y018643D01*
X009533Y018473D01*
X009598Y018316D01*
X009718Y018196D01*
X009875Y018131D01*
X010045Y018131D01*
X010202Y018196D01*
X010322Y018316D01*
X010333Y018343D01*
X010335Y018341D01*
X012834Y015842D01*
X012834Y015727D02*
X008706Y015727D01*
X008706Y015629D02*
X012834Y015629D01*
X012834Y015530D02*
X008790Y015530D01*
X008888Y015432D02*
X012834Y015432D01*
X012834Y015333D02*
X008987Y015333D01*
X009085Y015235D02*
X012834Y015235D01*
X012834Y015136D02*
X009184Y015136D01*
X009282Y015038D02*
X012222Y015038D01*
X012226Y015040D02*
X012153Y015003D01*
X012087Y014955D01*
X012029Y014897D01*
X011981Y014831D01*
X011944Y014758D01*
X011919Y014680D01*
X011907Y014608D01*
X012376Y014608D01*
X012376Y015077D01*
X012304Y015065D01*
X012226Y015040D01*
X012376Y015038D02*
X012476Y015038D01*
X012476Y014939D02*
X012376Y014939D01*
X012376Y014841D02*
X012476Y014841D01*
X012476Y014742D02*
X012376Y014742D01*
X012376Y014644D02*
X012476Y014644D01*
X012376Y014545D02*
X011249Y014545D01*
X011322Y014447D02*
X011917Y014447D01*
X011919Y014436D02*
X011944Y014358D01*
X011981Y014286D01*
X012029Y014219D01*
X012087Y014161D01*
X012153Y014113D01*
X012226Y014076D01*
X012304Y014051D01*
X012376Y014040D01*
X012376Y014508D01*
X011907Y014508D01*
X011919Y014436D01*
X011949Y014348D02*
X011362Y014348D01*
X011366Y014250D02*
X012007Y014250D01*
X012101Y014151D02*
X011355Y014151D01*
X011315Y014053D02*
X012299Y014053D01*
X012376Y014053D02*
X012413Y014053D01*
X012376Y014151D02*
X012476Y014151D01*
X012476Y014250D02*
X012376Y014250D01*
X012376Y014348D02*
X012476Y014348D01*
X012476Y014447D02*
X012376Y014447D01*
X011939Y014742D02*
X009578Y014742D01*
X009676Y014644D02*
X010255Y014644D01*
X010103Y014545D02*
X009775Y014545D01*
X009873Y014447D02*
X010030Y014447D01*
X009989Y014348D02*
X009972Y014348D01*
X009617Y014053D02*
X008948Y014053D01*
X008850Y014151D02*
X009518Y014151D01*
X009420Y014250D02*
X008751Y014250D01*
X008653Y014348D02*
X009321Y014348D01*
X009223Y014447D02*
X008554Y014447D01*
X008456Y014545D02*
X009124Y014545D01*
X009026Y014644D02*
X008357Y014644D01*
X008259Y014742D02*
X008927Y014742D01*
X008829Y014841D02*
X008156Y014841D01*
X008163Y014838D02*
X008042Y014888D01*
X007854Y014888D01*
X007820Y014923D01*
X007662Y014988D01*
X006890Y014988D01*
X006732Y014923D01*
X006611Y014802D01*
X006546Y014644D01*
X006422Y014644D01*
X006422Y014742D02*
X006587Y014742D01*
X006546Y014644D02*
X006546Y014473D01*
X006611Y014314D01*
X006732Y014194D01*
X006890Y014128D01*
X007662Y014128D01*
X007820Y014194D01*
X007847Y014221D01*
X008646Y013421D01*
X008646Y009347D01*
X008696Y009225D01*
X008959Y008963D01*
X008870Y008749D01*
X008870Y008367D01*
X009017Y008014D01*
X009287Y007744D01*
X009639Y007598D01*
X010021Y007598D01*
X010374Y007744D01*
X010644Y008014D01*
X010790Y008367D01*
X010790Y008749D01*
X010644Y009102D01*
X010374Y009372D01*
X010021Y009518D01*
X009639Y009518D01*
X009426Y009429D01*
X009306Y009549D01*
X009306Y013624D01*
X009256Y013745D01*
X009163Y013838D01*
X008163Y014838D01*
X007780Y014939D02*
X008730Y014939D01*
X008632Y015038D02*
X006422Y015038D01*
X006422Y015136D02*
X008533Y015136D01*
X008435Y015235D02*
X006422Y015235D01*
X006422Y015333D02*
X008336Y015333D01*
X008246Y015432D02*
X006422Y015432D01*
X006422Y015530D02*
X006886Y015530D01*
X006890Y015528D02*
X006732Y015594D01*
X006611Y015714D01*
X006546Y015873D01*
X006546Y016044D01*
X006611Y016202D01*
X006732Y016323D01*
X006890Y016388D01*
X007662Y016388D01*
X007820Y016323D01*
X007941Y016202D01*
X008006Y016044D01*
X008006Y015873D01*
X007941Y015714D01*
X007820Y015594D01*
X007662Y015528D01*
X006890Y015528D01*
X006697Y015629D02*
X006422Y015629D01*
X006422Y015727D02*
X006606Y015727D01*
X006565Y015826D02*
X006422Y015826D01*
X006422Y015924D02*
X006546Y015924D01*
X006546Y016023D02*
X006422Y016023D01*
X006422Y016121D02*
X006578Y016121D01*
X006629Y016220D02*
X006422Y016220D01*
X006422Y016318D02*
X006728Y016318D01*
X006712Y016614D02*
X006422Y016614D01*
X006422Y016712D02*
X006614Y016712D01*
X006572Y016811D02*
X006422Y016811D01*
X006422Y016909D02*
X006546Y016909D01*
X006546Y017008D02*
X006422Y017008D01*
X006422Y017106D02*
X006572Y017106D01*
X006614Y017205D02*
X006422Y017205D01*
X006422Y017303D02*
X006707Y017303D01*
X006609Y017402D02*
X006422Y017402D01*
X006422Y017500D02*
X006510Y017500D01*
X006991Y017500D02*
X008246Y017500D01*
X008246Y017402D02*
X007089Y017402D01*
X007226Y017599D02*
X007326Y017599D01*
X007326Y017697D02*
X007226Y017697D01*
X007226Y017796D02*
X007326Y017796D01*
X007326Y017894D02*
X007226Y017894D01*
X007326Y017993D02*
X008246Y017993D01*
X008246Y018091D02*
X008006Y018091D01*
X007963Y018190D02*
X008246Y018190D01*
X008246Y018288D02*
X007882Y018288D01*
X007713Y018387D02*
X008246Y018387D01*
X008246Y018485D02*
X006677Y018485D01*
X006677Y018387D02*
X006839Y018387D01*
X006756Y018584D02*
X006677Y018584D01*
X007226Y018387D02*
X007326Y018387D01*
X007326Y018288D02*
X007226Y018288D01*
X007226Y018190D02*
X007326Y018190D01*
X007326Y018091D02*
X007226Y018091D01*
X007796Y018584D02*
X008246Y018584D01*
X008246Y018682D02*
X007908Y018682D01*
X007968Y018781D02*
X008246Y018781D01*
X008246Y018879D02*
X008006Y018879D01*
X008006Y018978D02*
X008246Y018978D01*
X008246Y019076D02*
X007993Y019076D01*
X007952Y019175D02*
X008246Y019175D01*
X008246Y019273D02*
X007869Y019273D01*
X007701Y019372D02*
X008246Y019372D01*
X008246Y019470D02*
X007117Y019470D01*
X007215Y019569D02*
X008246Y019569D01*
X008246Y019667D02*
X007314Y019667D01*
X007412Y019766D02*
X008246Y019766D01*
X008246Y019864D02*
X007511Y019864D01*
X007609Y019963D02*
X008246Y019963D01*
X008246Y020061D02*
X007708Y020061D01*
X007806Y020160D02*
X007807Y020160D01*
X008114Y020160D02*
X008246Y020160D01*
X008706Y020160D02*
X008807Y020160D01*
X008875Y020131D02*
X008718Y020196D01*
X008706Y020209D01*
X008706Y019951D01*
X008869Y020018D01*
X009052Y020018D01*
X009221Y019948D01*
X009350Y019819D01*
X009389Y019726D01*
X009389Y020806D01*
X009645Y021062D01*
X009744Y021161D01*
X009803Y021161D01*
X009718Y021196D01*
X009598Y021316D01*
X009533Y021473D01*
X009533Y021643D01*
X009598Y021800D01*
X009643Y021845D01*
X009345Y021845D01*
X009371Y021810D01*
X009405Y021742D01*
X009428Y021670D01*
X009439Y021606D01*
X009009Y021606D01*
X009009Y021510D01*
X009439Y021510D01*
X009428Y021446D01*
X009405Y021374D01*
X009371Y021306D01*
X009326Y021245D01*
X009273Y021192D01*
X009212Y021148D01*
X009144Y021113D01*
X009073Y021090D01*
X009009Y021080D01*
X009009Y021510D01*
X008912Y021510D01*
X008482Y021510D01*
X008492Y021446D01*
X008515Y021374D01*
X008550Y021306D01*
X008594Y021245D01*
X008648Y021192D01*
X008709Y021148D01*
X008776Y021113D01*
X008848Y021090D01*
X008912Y021080D01*
X008912Y021510D01*
X008912Y021606D01*
X008482Y021606D01*
X008492Y021670D01*
X008515Y021742D01*
X008550Y021810D01*
X008575Y021845D01*
X008277Y021845D01*
X008322Y021800D01*
X008387Y021643D01*
X008387Y021473D01*
X008322Y021316D01*
X008271Y021265D01*
X008571Y020965D01*
X008667Y020869D01*
X008718Y020920D01*
X008875Y020985D01*
X009045Y020985D01*
X009202Y020920D01*
X009322Y020800D01*
X009387Y020643D01*
X009387Y020473D01*
X009322Y020316D01*
X009202Y020196D01*
X009045Y020131D01*
X008875Y020131D01*
X008706Y020061D02*
X009389Y020061D01*
X009389Y019963D02*
X009186Y019963D01*
X009305Y019864D02*
X009389Y019864D01*
X009389Y019766D02*
X009372Y019766D01*
X008735Y019963D02*
X008706Y019963D01*
X009114Y020160D02*
X009389Y020160D01*
X009389Y020258D02*
X009264Y020258D01*
X009339Y020357D02*
X009389Y020357D01*
X009380Y020455D02*
X009389Y020455D01*
X009387Y020554D02*
X009389Y020554D01*
X009383Y020652D02*
X009389Y020652D01*
X009389Y020751D02*
X009342Y020751D01*
X009273Y020849D02*
X009432Y020849D01*
X009531Y020948D02*
X009135Y020948D01*
X009206Y021145D02*
X009728Y021145D01*
X009672Y021243D02*
X009324Y021243D01*
X009389Y021342D02*
X009588Y021342D01*
X009547Y021440D02*
X009427Y021440D01*
X009533Y021539D02*
X009009Y021539D01*
X009009Y021607D02*
X009009Y021845D01*
X008912Y021845D01*
X008912Y021607D01*
X009009Y021607D01*
X009009Y021637D02*
X008912Y021637D01*
X008912Y021539D02*
X008387Y021539D01*
X008387Y021637D02*
X008487Y021637D01*
X008513Y021736D02*
X008349Y021736D01*
X008288Y021834D02*
X008567Y021834D01*
X008912Y021834D02*
X009009Y021834D01*
X009009Y021736D02*
X008912Y021736D01*
X008912Y021440D02*
X009009Y021440D01*
X009009Y021342D02*
X008912Y021342D01*
X008912Y021243D02*
X009009Y021243D01*
X009009Y021145D02*
X008912Y021145D01*
X008714Y021145D02*
X008392Y021145D01*
X008293Y021243D02*
X008596Y021243D01*
X008532Y021342D02*
X008333Y021342D01*
X008373Y021440D02*
X008494Y021440D01*
X008490Y021046D02*
X009629Y021046D01*
X009533Y021637D02*
X009434Y021637D01*
X009407Y021736D02*
X009572Y021736D01*
X009633Y021834D02*
X009353Y021834D01*
X008785Y020948D02*
X008589Y020948D01*
X010342Y020751D02*
X010557Y020751D01*
X010523Y020652D02*
X010383Y020652D01*
X010387Y020554D02*
X010912Y020554D01*
X010912Y020607D02*
X010912Y020821D01*
X011009Y020821D01*
X011009Y020607D01*
X010912Y020607D01*
X010912Y020652D02*
X011009Y020652D01*
X011009Y020554D02*
X011533Y020554D01*
X011537Y020652D02*
X011398Y020652D01*
X011364Y020751D02*
X011578Y020751D01*
X011405Y020510D02*
X011009Y020510D01*
X011009Y020113D01*
X011065Y020122D01*
X011132Y020144D01*
X011194Y020176D01*
X011251Y020217D01*
X011301Y020267D01*
X011342Y020324D01*
X011374Y020387D01*
X011396Y020453D01*
X011405Y020510D01*
X011396Y020455D02*
X011541Y020455D01*
X011582Y020357D02*
X011359Y020357D01*
X011292Y020258D02*
X011657Y020258D01*
X011807Y020160D02*
X011163Y020160D01*
X011009Y020160D02*
X010912Y020160D01*
X010912Y020258D02*
X011009Y020258D01*
X011009Y020357D02*
X010912Y020357D01*
X010912Y020455D02*
X011009Y020455D01*
X011009Y020751D02*
X010912Y020751D01*
X010524Y020455D02*
X010380Y020455D01*
X010394Y020357D02*
X010561Y020357D01*
X010628Y020258D02*
X010493Y020258D01*
X010575Y020160D02*
X010758Y020160D01*
X010821Y019963D02*
X010575Y019963D01*
X010575Y020061D02*
X014369Y020061D01*
X014369Y019963D02*
X012151Y019963D01*
X012132Y019972D02*
X012065Y019994D01*
X012009Y020003D01*
X012009Y019607D01*
X011912Y019607D01*
X011912Y020003D01*
X011856Y019994D01*
X011789Y019972D01*
X011726Y019940D01*
X011669Y019899D01*
X011619Y019849D01*
X011578Y019792D01*
X011546Y019730D01*
X011524Y019663D01*
X011515Y019606D01*
X011912Y019606D01*
X011912Y019510D01*
X011515Y019510D01*
X011524Y019453D01*
X011546Y019387D01*
X011578Y019324D01*
X011619Y019267D01*
X011669Y019217D01*
X011726Y019176D01*
X011789Y019144D01*
X011856Y019122D01*
X011912Y019113D01*
X011912Y019510D01*
X012009Y019510D01*
X012009Y019606D01*
X012405Y019606D01*
X012396Y019663D01*
X012374Y019730D01*
X012342Y019792D01*
X012301Y019849D01*
X012251Y019899D01*
X012194Y019940D01*
X012132Y019972D01*
X012009Y019963D02*
X011912Y019963D01*
X011912Y019864D02*
X012009Y019864D01*
X012009Y019766D02*
X011912Y019766D01*
X011912Y019667D02*
X012009Y019667D01*
X012009Y019569D02*
X014369Y019569D01*
X014369Y019667D02*
X012395Y019667D01*
X012356Y019766D02*
X014369Y019766D01*
X014369Y019864D02*
X012286Y019864D01*
X012405Y019510D02*
X012009Y019510D01*
X012009Y019113D01*
X012065Y019122D01*
X012132Y019144D01*
X012194Y019176D01*
X012251Y019217D01*
X012301Y019267D01*
X012342Y019324D01*
X012374Y019387D01*
X012396Y019453D01*
X012405Y019510D01*
X012399Y019470D02*
X014369Y019470D01*
X014369Y019372D02*
X012367Y019372D01*
X012306Y019273D02*
X014369Y019273D01*
X014369Y019175D02*
X012192Y019175D01*
X012009Y019175D02*
X011912Y019175D01*
X011912Y019273D02*
X012009Y019273D01*
X012009Y019372D02*
X011912Y019372D01*
X011912Y019470D02*
X012009Y019470D01*
X011912Y019569D02*
X011387Y019569D01*
X011377Y019667D02*
X011526Y019667D01*
X011564Y019766D02*
X011336Y019766D01*
X011258Y019864D02*
X011634Y019864D01*
X011770Y019963D02*
X011099Y019963D01*
X010663Y019864D02*
X010575Y019864D01*
X010575Y019766D02*
X010584Y019766D01*
X010575Y019273D02*
X010642Y019273D01*
X010575Y019175D02*
X010771Y019175D01*
X011150Y019175D02*
X011729Y019175D01*
X011615Y019273D02*
X011279Y019273D01*
X011345Y019372D02*
X011554Y019372D01*
X011522Y019470D02*
X011386Y019470D01*
X010235Y019175D02*
X010150Y019175D01*
X010235Y019076D02*
X009360Y019076D01*
X009262Y018978D02*
X009858Y018978D01*
X010063Y018978D02*
X010235Y018978D01*
X010575Y018879D02*
X010678Y018879D01*
X010590Y018781D02*
X010575Y018781D01*
X010387Y018288D02*
X010294Y018288D01*
X010186Y018190D02*
X010486Y018190D01*
X010584Y018091D02*
X008706Y018091D01*
X008706Y017993D02*
X010683Y017993D01*
X010781Y017894D02*
X008706Y017894D01*
X008706Y017796D02*
X010880Y017796D01*
X010978Y017697D02*
X008706Y017697D01*
X008706Y017599D02*
X011077Y017599D01*
X011175Y017500D02*
X008706Y017500D01*
X008706Y017402D02*
X011274Y017402D01*
X009734Y018190D02*
X009186Y018190D01*
X009294Y018288D02*
X009627Y018288D01*
X009569Y018387D02*
X009351Y018387D01*
X009387Y018485D02*
X009533Y018485D01*
X009533Y018584D02*
X009387Y018584D01*
X009371Y018682D02*
X009550Y018682D01*
X009590Y018781D02*
X009330Y018781D01*
X009243Y018879D02*
X009678Y018879D01*
X009771Y019175D02*
X009459Y019175D01*
X009557Y019273D02*
X009642Y019273D01*
X008734Y018190D02*
X008706Y018190D01*
X008246Y017894D02*
X008021Y017894D01*
X007996Y017796D02*
X008246Y017796D01*
X008246Y017697D02*
X007943Y017697D01*
X007847Y017599D02*
X008246Y017599D01*
X008246Y017303D02*
X007839Y017303D01*
X007938Y017205D02*
X008246Y017205D01*
X008246Y017106D02*
X007980Y017106D01*
X008006Y017008D02*
X008246Y017008D01*
X008246Y016909D02*
X008006Y016909D01*
X007980Y016811D02*
X008246Y016811D01*
X008246Y016712D02*
X007938Y016712D01*
X007840Y016614D02*
X008246Y016614D01*
X008246Y016515D02*
X006422Y016515D01*
X006422Y016417D02*
X008246Y016417D01*
X008246Y016318D02*
X007824Y016318D01*
X007923Y016220D02*
X008246Y016220D01*
X008246Y016121D02*
X007974Y016121D01*
X008006Y016023D02*
X008246Y016023D01*
X008246Y015924D02*
X008006Y015924D01*
X007987Y015826D02*
X008246Y015826D01*
X008246Y015727D02*
X007946Y015727D01*
X007855Y015629D02*
X008246Y015629D01*
X008246Y015530D02*
X007666Y015530D01*
X006772Y014939D02*
X006422Y014939D01*
X006422Y014841D02*
X006650Y014841D01*
X006546Y014545D02*
X006422Y014545D01*
X006422Y014447D02*
X006557Y014447D01*
X006598Y014348D02*
X006422Y014348D01*
X006422Y014250D02*
X006676Y014250D01*
X006835Y014151D02*
X006422Y014151D01*
X006422Y014053D02*
X008015Y014053D01*
X007916Y014151D02*
X007717Y014151D01*
X007662Y013988D02*
X007820Y013923D01*
X007941Y013802D01*
X008006Y013644D01*
X008006Y013473D01*
X007941Y013314D01*
X007820Y013194D01*
X007662Y013128D01*
X006890Y013128D01*
X006732Y013194D01*
X006611Y013314D01*
X006546Y013473D01*
X006546Y013644D01*
X006611Y013802D01*
X006732Y013923D01*
X006890Y013988D01*
X007662Y013988D01*
X007744Y013954D02*
X008113Y013954D01*
X008212Y013856D02*
X007887Y013856D01*
X007959Y013757D02*
X008310Y013757D01*
X008409Y013659D02*
X008000Y013659D01*
X008006Y013560D02*
X008507Y013560D01*
X008606Y013462D02*
X008001Y013462D01*
X007961Y013363D02*
X008646Y013363D01*
X008646Y013265D02*
X007891Y013265D01*
X007753Y013166D02*
X008646Y013166D01*
X008646Y013068D02*
X006699Y013068D01*
X006600Y013166D02*
X006799Y013166D01*
X006661Y013265D02*
X006502Y013265D01*
X006422Y013363D02*
X006591Y013363D01*
X006551Y013462D02*
X006422Y013462D01*
X006422Y013560D02*
X006546Y013560D01*
X006552Y013659D02*
X006422Y013659D01*
X006422Y013757D02*
X006593Y013757D01*
X006665Y013856D02*
X006422Y013856D01*
X006422Y013954D02*
X006808Y013954D01*
X006797Y012969D02*
X006845Y012969D01*
X006514Y012772D02*
X006126Y012772D01*
X006126Y012674D02*
X006558Y012674D01*
X006546Y012575D02*
X006126Y012575D01*
X006126Y012477D02*
X006546Y012477D01*
X006585Y012378D02*
X006126Y012378D01*
X006126Y012280D02*
X006646Y012280D01*
X006762Y012181D02*
X006126Y012181D01*
X006126Y012083D02*
X008646Y012083D01*
X008646Y012181D02*
X007790Y012181D01*
X007906Y012280D02*
X008646Y012280D01*
X008646Y012378D02*
X007967Y012378D01*
X008006Y012477D02*
X008646Y012477D01*
X008646Y012575D02*
X008006Y012575D01*
X007994Y012674D02*
X008646Y012674D01*
X008646Y012772D02*
X007953Y012772D01*
X007872Y012871D02*
X008646Y012871D01*
X008646Y012969D02*
X007707Y012969D01*
X006415Y012871D02*
X006126Y012871D01*
X006126Y012969D02*
X006317Y012969D01*
X006218Y013068D02*
X006126Y013068D01*
X006126Y011984D02*
X006831Y011984D01*
X006803Y011975D02*
X006871Y011997D01*
X006941Y012008D01*
X007226Y012008D01*
X007226Y011608D01*
X007226Y011508D01*
X007326Y011508D01*
X007326Y011108D01*
X007611Y011108D01*
X007681Y011119D01*
X007749Y011141D01*
X007812Y011173D01*
X007869Y011215D01*
X007919Y011265D01*
X007961Y011322D01*
X007993Y011385D01*
X008015Y011453D01*
X008024Y011508D01*
X007326Y011508D01*
X007326Y011608D01*
X008024Y011608D01*
X008015Y011663D01*
X007993Y011731D01*
X007961Y011794D01*
X007919Y011851D01*
X007869Y011901D01*
X007812Y011943D01*
X007749Y011975D01*
X007681Y011997D01*
X007611Y012008D01*
X007326Y012008D01*
X007326Y011608D01*
X007226Y011608D01*
X006528Y011608D01*
X006537Y011663D01*
X006559Y011731D01*
X006591Y011794D01*
X006633Y011851D01*
X006683Y011901D01*
X006740Y011943D01*
X006803Y011975D01*
X006667Y011886D02*
X006126Y011886D01*
X006126Y011787D02*
X006588Y011787D01*
X006545Y011689D02*
X006126Y011689D01*
X006126Y011590D02*
X007226Y011590D01*
X007226Y011508D02*
X006528Y011508D01*
X006537Y011453D01*
X006559Y011385D01*
X006591Y011322D01*
X006633Y011265D01*
X006683Y011215D01*
X006740Y011173D01*
X006803Y011141D01*
X006871Y011119D01*
X006941Y011108D01*
X007226Y011108D01*
X007226Y011508D01*
X007226Y011492D02*
X007326Y011492D01*
X007326Y011590D02*
X008646Y011590D01*
X008646Y011492D02*
X008021Y011492D01*
X007996Y011393D02*
X008646Y011393D01*
X008646Y011295D02*
X007941Y011295D01*
X007843Y011196D02*
X008646Y011196D01*
X008646Y011098D02*
X006126Y011098D01*
X006126Y011196D02*
X006709Y011196D01*
X006611Y011295D02*
X006126Y011295D01*
X006126Y011393D02*
X006556Y011393D01*
X006531Y011492D02*
X006126Y011492D01*
X006126Y010999D02*
X008646Y010999D01*
X008646Y010901D02*
X006126Y010901D01*
X006126Y010802D02*
X008646Y010802D01*
X008646Y010704D02*
X006126Y010704D01*
X006126Y010605D02*
X008646Y010605D01*
X008646Y010507D02*
X006126Y010507D01*
X006126Y010408D02*
X008646Y010408D01*
X008646Y010310D02*
X006126Y010310D01*
X006126Y010211D02*
X008646Y010211D01*
X008646Y010113D02*
X006126Y010113D01*
X006126Y010014D02*
X008646Y010014D01*
X008646Y009916D02*
X006126Y009916D01*
X006126Y009817D02*
X008646Y009817D01*
X008646Y009719D02*
X006126Y009719D01*
X006126Y009620D02*
X008646Y009620D01*
X008646Y009522D02*
X006126Y009522D01*
X006126Y009423D02*
X007116Y009423D01*
X007079Y009413D02*
X006970Y009368D01*
X006868Y009309D01*
X006774Y009237D01*
X006691Y009154D01*
X006619Y009060D01*
X006560Y008958D01*
X006514Y008848D01*
X006484Y008734D01*
X006469Y008617D01*
X006469Y008608D01*
X007320Y008608D01*
X007320Y009459D01*
X007311Y009459D01*
X007193Y009444D01*
X007079Y009413D01*
X006895Y009325D02*
X006126Y009325D01*
X006126Y009226D02*
X006763Y009226D01*
X006671Y009128D02*
X006126Y009128D01*
X006126Y009029D02*
X006601Y009029D01*
X006549Y008931D02*
X006126Y008931D01*
X006126Y008832D02*
X006510Y008832D01*
X006484Y008734D02*
X006126Y008734D01*
X006126Y008635D02*
X006471Y008635D01*
X006469Y008508D02*
X006469Y008499D01*
X006484Y008382D01*
X006514Y008268D01*
X006560Y008159D01*
X006619Y008056D01*
X006691Y007963D01*
X006774Y007879D01*
X006868Y007807D01*
X006970Y007748D01*
X007079Y007703D01*
X007193Y007672D01*
X007311Y007657D01*
X007320Y007657D01*
X007320Y008508D01*
X007420Y008508D01*
X007420Y008608D01*
X008271Y008608D01*
X008271Y008617D01*
X008255Y008734D01*
X008225Y008848D01*
X008180Y008958D01*
X008121Y009060D01*
X008049Y009154D01*
X007965Y009237D01*
X007871Y009309D01*
X007769Y009368D01*
X007660Y009413D01*
X007546Y009444D01*
X007429Y009459D01*
X007420Y009459D01*
X007420Y008608D01*
X007320Y008608D01*
X007320Y008508D01*
X006469Y008508D01*
X006477Y008438D02*
X006126Y008438D01*
X006126Y008340D02*
X006495Y008340D01*
X006526Y008241D02*
X006126Y008241D01*
X006126Y008143D02*
X006569Y008143D01*
X006628Y008044D02*
X006126Y008044D01*
X006126Y007946D02*
X006708Y007946D01*
X006816Y007847D02*
X006126Y007847D01*
X006126Y007749D02*
X006969Y007749D01*
X007320Y007749D02*
X007420Y007749D01*
X007420Y007657D02*
X007429Y007657D01*
X007546Y007672D01*
X007660Y007703D01*
X007769Y007748D01*
X007871Y007807D01*
X007965Y007879D01*
X008049Y007963D01*
X008121Y008056D01*
X008180Y008159D01*
X008225Y008268D01*
X008255Y008382D01*
X008271Y008499D01*
X008271Y008508D01*
X007420Y008508D01*
X007420Y007657D01*
X007420Y007847D02*
X007320Y007847D01*
X007320Y007946D02*
X007420Y007946D01*
X007420Y008044D02*
X007320Y008044D01*
X007320Y008143D02*
X007420Y008143D01*
X007420Y008241D02*
X007320Y008241D01*
X007320Y008340D02*
X007420Y008340D01*
X007420Y008438D02*
X007320Y008438D01*
X007320Y008537D02*
X006126Y008537D01*
X006126Y007650D02*
X009514Y007650D01*
X009282Y007749D02*
X007770Y007749D01*
X007923Y007847D02*
X009184Y007847D01*
X009085Y007946D02*
X008032Y007946D01*
X008111Y008044D02*
X009004Y008044D01*
X008963Y008143D02*
X008170Y008143D01*
X008214Y008241D02*
X008923Y008241D01*
X008882Y008340D02*
X008244Y008340D01*
X008263Y008438D02*
X008870Y008438D01*
X008870Y008537D02*
X007420Y008537D01*
X007420Y008635D02*
X007320Y008635D01*
X007320Y008734D02*
X007420Y008734D01*
X007420Y008832D02*
X007320Y008832D01*
X007320Y008931D02*
X007420Y008931D01*
X007420Y009029D02*
X007320Y009029D01*
X007320Y009128D02*
X007420Y009128D01*
X007420Y009226D02*
X007320Y009226D01*
X007320Y009325D02*
X007420Y009325D01*
X007420Y009423D02*
X007320Y009423D01*
X007623Y009423D02*
X008646Y009423D01*
X008655Y009325D02*
X007844Y009325D01*
X007976Y009226D02*
X008696Y009226D01*
X008794Y009128D02*
X008069Y009128D01*
X008138Y009029D02*
X008893Y009029D01*
X008946Y008931D02*
X008191Y008931D01*
X008229Y008832D02*
X008905Y008832D01*
X008870Y008734D02*
X008256Y008734D01*
X008269Y008635D02*
X008870Y008635D01*
X009333Y009522D02*
X012026Y009522D01*
X012026Y009620D02*
X009306Y009620D01*
X009306Y009719D02*
X012051Y009719D01*
X012085Y009817D02*
X012092Y009817D01*
X012165Y009916D02*
X012176Y009916D01*
X012191Y010014D02*
X012320Y010014D01*
X012657Y010113D02*
X013543Y010113D01*
X013445Y010211D02*
X012786Y010211D01*
X012864Y010310D02*
X013346Y010310D01*
X013248Y010408D02*
X012905Y010408D01*
X012926Y010507D02*
X013149Y010507D01*
X012938Y010605D02*
X012926Y010605D01*
X012848Y010901D02*
X012791Y010901D01*
X012865Y010999D02*
X012668Y010999D01*
X012721Y011098D02*
X012832Y011098D01*
X012331Y011098D02*
X012084Y011098D01*
X012167Y011196D02*
X012181Y011196D01*
X012184Y010999D02*
X012001Y010999D01*
X011954Y010901D02*
X012061Y010901D01*
X011986Y010802D02*
X011930Y010802D01*
X011945Y010704D02*
X011851Y010704D01*
X011926Y010605D02*
X009306Y010605D01*
X009306Y010507D02*
X011926Y010507D01*
X011947Y010408D02*
X009306Y010408D01*
X009306Y010310D02*
X011983Y010310D01*
X011772Y010211D02*
X009306Y010211D01*
X009306Y010113D02*
X011706Y010113D01*
X011691Y010014D02*
X009306Y010014D01*
X009306Y009916D02*
X011716Y009916D01*
X011796Y009817D02*
X009306Y009817D01*
X010250Y009423D02*
X012041Y009423D01*
X012081Y009325D02*
X010421Y009325D01*
X010520Y009226D02*
X012151Y009226D01*
X012259Y009128D02*
X010618Y009128D01*
X010674Y009029D02*
X012257Y009029D01*
X012091Y008931D02*
X010715Y008931D01*
X010756Y008832D02*
X011998Y008832D01*
X011957Y008734D02*
X010790Y008734D01*
X010790Y008635D02*
X011926Y008635D01*
X011926Y008537D02*
X010790Y008537D01*
X010790Y008438D02*
X011934Y008438D01*
X011975Y008340D02*
X010779Y008340D01*
X010738Y008241D02*
X012036Y008241D01*
X012134Y008143D02*
X010697Y008143D01*
X010656Y008044D02*
X012393Y008044D01*
X012206Y007946D02*
X010575Y007946D01*
X010477Y007847D02*
X012108Y007847D01*
X012064Y007749D02*
X010378Y007749D01*
X010147Y007650D02*
X012026Y007650D01*
X012026Y007552D02*
X008894Y007552D01*
X008884Y007554D02*
X008767Y007569D01*
X008758Y007569D01*
X008758Y006718D01*
X009609Y006718D01*
X009609Y006727D01*
X009594Y006844D01*
X009563Y006959D01*
X009518Y007068D01*
X009459Y007170D01*
X009387Y007264D01*
X009304Y007347D01*
X009210Y007419D01*
X009108Y007478D01*
X008999Y007523D01*
X008884Y007554D01*
X008758Y007552D02*
X008658Y007552D01*
X008658Y007569D02*
X008649Y007569D01*
X008532Y007554D01*
X008418Y007523D01*
X008309Y007478D01*
X008207Y007419D01*
X008113Y007347D01*
X008029Y007264D01*
X007957Y007170D01*
X007898Y007068D01*
X007853Y006959D01*
X007823Y006844D01*
X007807Y006727D01*
X007807Y006718D01*
X008658Y006718D01*
X008658Y006618D01*
X008758Y006618D01*
X008758Y005767D01*
X008767Y005767D01*
X008884Y005783D01*
X008999Y005813D01*
X009108Y005858D01*
X009210Y005917D01*
X009304Y005989D01*
X009387Y006073D01*
X009459Y006167D01*
X009518Y006269D01*
X009563Y006378D01*
X009594Y006492D01*
X009609Y006609D01*
X009609Y006618D01*
X008758Y006618D01*
X008758Y006718D01*
X008658Y006718D01*
X008658Y007569D01*
X008658Y007453D02*
X008758Y007453D01*
X008758Y007355D02*
X008658Y007355D01*
X008658Y007256D02*
X008758Y007256D01*
X008758Y007158D02*
X008658Y007158D01*
X008658Y007059D02*
X008758Y007059D01*
X008758Y006961D02*
X008658Y006961D01*
X008658Y006862D02*
X008758Y006862D01*
X008758Y006764D02*
X008658Y006764D01*
X008658Y006665D02*
X006126Y006665D01*
X006126Y006567D02*
X007813Y006567D01*
X007807Y006609D02*
X007823Y006492D01*
X007853Y006378D01*
X007898Y006269D01*
X007957Y006167D01*
X008029Y006073D01*
X008113Y005989D01*
X008207Y005917D01*
X008309Y005858D01*
X008418Y005813D01*
X008532Y005783D01*
X008649Y005767D01*
X008658Y005767D01*
X008658Y006618D01*
X007807Y006618D01*
X007807Y006609D01*
X007829Y006468D02*
X006126Y006468D01*
X006126Y006370D02*
X007857Y006370D01*
X007897Y006271D02*
X006126Y006271D01*
X006126Y006173D02*
X007954Y006173D01*
X008028Y006074D02*
X006126Y006074D01*
X006126Y005976D02*
X008131Y005976D01*
X008276Y005877D02*
X006126Y005877D01*
X006126Y005779D02*
X008562Y005779D01*
X008658Y005779D02*
X008758Y005779D01*
X008854Y005779D02*
X011334Y005779D01*
X011334Y005877D02*
X009140Y005877D01*
X009286Y005976D02*
X011334Y005976D01*
X011334Y006074D02*
X009388Y006074D01*
X009463Y006173D02*
X011334Y006173D01*
X011334Y006271D02*
X009519Y006271D01*
X009560Y006370D02*
X011334Y006370D01*
X011334Y006468D02*
X009588Y006468D01*
X009604Y006567D02*
X011334Y006567D01*
X011406Y006665D02*
X008758Y006665D01*
X008758Y006567D02*
X008658Y006567D01*
X008658Y006468D02*
X008758Y006468D01*
X008758Y006370D02*
X008658Y006370D01*
X008658Y006271D02*
X008758Y006271D01*
X008758Y006173D02*
X008658Y006173D01*
X008658Y006074D02*
X008758Y006074D01*
X008758Y005976D02*
X008658Y005976D01*
X008658Y005877D02*
X008758Y005877D01*
X009605Y006764D02*
X011547Y006764D01*
X011682Y006862D02*
X009589Y006862D01*
X009563Y006961D02*
X011818Y006961D01*
X011953Y007059D02*
X009522Y007059D01*
X009466Y007158D02*
X012089Y007158D01*
X012121Y007256D02*
X009393Y007256D01*
X009294Y007355D02*
X012069Y007355D01*
X012028Y007453D02*
X009151Y007453D01*
X008523Y007552D02*
X006126Y007552D01*
X006126Y007453D02*
X008265Y007453D01*
X008122Y007355D02*
X006126Y007355D01*
X006126Y007256D02*
X008023Y007256D01*
X007950Y007158D02*
X006126Y007158D01*
X006126Y007059D02*
X007895Y007059D01*
X007854Y006961D02*
X006126Y006961D01*
X006126Y006862D02*
X007827Y006862D01*
X007812Y006764D02*
X006126Y006764D01*
X006126Y005680D02*
X011334Y005680D01*
X011334Y005582D02*
X006126Y005582D01*
X006126Y005483D02*
X011334Y005483D01*
X011334Y005385D02*
X006126Y005385D01*
X006126Y005286D02*
X011334Y005286D01*
X011334Y005188D02*
X006126Y005188D01*
X006126Y005089D02*
X011334Y005089D01*
X011334Y004991D02*
X006126Y004991D01*
X006126Y004892D02*
X011334Y004892D01*
X011334Y004794D02*
X006126Y004794D01*
X006126Y004695D02*
X011334Y004695D01*
X011334Y004597D02*
X006126Y004597D01*
X006126Y004498D02*
X011334Y004498D01*
X011334Y004400D02*
X006126Y004400D01*
X006126Y004301D02*
X011334Y004301D01*
X011334Y004203D02*
X006126Y004203D01*
X006126Y004104D02*
X011334Y004104D01*
X011334Y004006D02*
X006126Y004006D01*
X006126Y003907D02*
X011334Y003907D01*
X011334Y003809D02*
X006126Y003809D01*
X006126Y003710D02*
X011334Y003710D01*
X011334Y003612D02*
X006126Y003612D01*
X006126Y003513D02*
X011334Y003513D01*
X011334Y003415D02*
X006126Y003415D01*
X006126Y003316D02*
X011334Y003316D01*
X011334Y003218D02*
X006126Y003218D01*
X006126Y003119D02*
X011334Y003119D01*
X011334Y003021D02*
X006126Y003021D01*
X006126Y002922D02*
X011334Y002922D01*
X011334Y002824D02*
X006126Y002824D01*
X006126Y002725D02*
X011334Y002725D01*
X011334Y002627D02*
X006126Y002627D01*
X006126Y002528D02*
X011334Y002528D01*
X011334Y002430D02*
X006126Y002430D01*
X006126Y002331D02*
X011334Y002331D01*
X011334Y002233D02*
X006126Y002233D01*
X006126Y002134D02*
X011334Y002134D01*
X011334Y002036D02*
X006126Y002036D01*
X006126Y001937D02*
X011334Y001937D01*
X011334Y001839D02*
X006126Y001839D01*
X006126Y001740D02*
X011334Y001740D01*
X011334Y001642D02*
X006126Y001642D01*
X006126Y001543D02*
X011401Y001543D01*
X011533Y001445D02*
X006126Y001445D01*
X006126Y001346D02*
X011661Y001346D01*
X011790Y001248D02*
X006126Y001248D01*
X006126Y001149D02*
X011919Y001149D01*
X012048Y001051D02*
X006126Y001051D01*
X006126Y000952D02*
X012177Y000952D01*
X012305Y000854D02*
X006126Y000854D01*
X006126Y000755D02*
X029326Y000755D01*
X029326Y000854D02*
X012313Y000854D01*
X012876Y001201D02*
X012950Y001275D01*
X013026Y001459D01*
X013026Y001658D01*
X012950Y001841D01*
X012809Y001982D01*
X012773Y001997D01*
X012780Y002003D01*
X014019Y003242D01*
X016952Y003242D01*
X017051Y003342D01*
X018133Y004424D01*
X018198Y004488D01*
X018242Y004488D01*
X018318Y004564D01*
X018318Y005042D01*
X018798Y004562D01*
X018798Y003074D01*
X018526Y003074D01*
X018526Y002659D01*
X018426Y002659D01*
X018426Y002559D01*
X018526Y002559D01*
X018526Y002144D01*
X018798Y002144D01*
X018798Y001952D01*
X018068Y001952D01*
X017992Y001876D01*
X017992Y001201D01*
X017206Y001201D01*
X017322Y001316D01*
X017387Y001473D01*
X017387Y001643D01*
X017322Y001800D01*
X017202Y001920D01*
X017045Y001985D01*
X016875Y001985D01*
X016718Y001920D01*
X016598Y001800D01*
X016533Y001643D01*
X016533Y001473D01*
X016598Y001316D01*
X016714Y001201D01*
X012876Y001201D01*
X012923Y001248D02*
X016667Y001248D01*
X016586Y001346D02*
X012979Y001346D01*
X013020Y001445D02*
X016545Y001445D01*
X016533Y001543D02*
X013026Y001543D01*
X013026Y001642D02*
X016533Y001642D01*
X016574Y001740D02*
X012992Y001740D01*
X012951Y001839D02*
X016637Y001839D01*
X016760Y001937D02*
X012854Y001937D01*
X012812Y002036D02*
X018798Y002036D01*
X018798Y002134D02*
X017101Y002134D01*
X017132Y002144D02*
X017194Y002176D01*
X017251Y002217D01*
X017301Y002267D01*
X017342Y002324D01*
X017374Y002387D01*
X017396Y002453D01*
X017405Y002510D01*
X017009Y002510D01*
X017009Y002606D01*
X017405Y002606D01*
X017396Y002663D01*
X017374Y002730D01*
X017342Y002792D01*
X017301Y002849D01*
X017251Y002899D01*
X017194Y002940D01*
X017132Y002972D01*
X017065Y002994D01*
X017009Y003003D01*
X017009Y002607D01*
X016912Y002607D01*
X016912Y003003D01*
X016856Y002994D01*
X016789Y002972D01*
X016726Y002940D01*
X016669Y002899D01*
X016619Y002849D01*
X016578Y002792D01*
X016546Y002730D01*
X016524Y002663D01*
X016515Y002606D01*
X016912Y002606D01*
X016912Y002510D01*
X016515Y002510D01*
X016524Y002453D01*
X016546Y002387D01*
X016578Y002324D01*
X016619Y002267D01*
X016669Y002217D01*
X016726Y002176D01*
X016789Y002144D01*
X016856Y002122D01*
X016912Y002113D01*
X016912Y002510D01*
X017009Y002510D01*
X017009Y002113D01*
X017065Y002122D01*
X017132Y002144D01*
X017009Y002134D02*
X016912Y002134D01*
X016819Y002134D02*
X012911Y002134D01*
X013009Y002233D02*
X016654Y002233D01*
X016574Y002331D02*
X013108Y002331D01*
X013206Y002430D02*
X016532Y002430D01*
X016519Y002627D02*
X013403Y002627D01*
X013502Y002725D02*
X016545Y002725D01*
X016601Y002824D02*
X013600Y002824D01*
X013699Y002922D02*
X016701Y002922D01*
X016912Y002922D02*
X017009Y002922D01*
X017009Y002824D02*
X016912Y002824D01*
X016912Y002725D02*
X017009Y002725D01*
X017009Y002627D02*
X016912Y002627D01*
X016912Y002528D02*
X013305Y002528D01*
X013797Y003021D02*
X018006Y003021D01*
X018002Y003016D02*
X017982Y002982D01*
X017972Y002944D01*
X017972Y002659D01*
X018426Y002659D01*
X018426Y003074D01*
X018102Y003074D01*
X018064Y003064D01*
X018030Y003044D01*
X018002Y003016D01*
X017972Y002922D02*
X017219Y002922D01*
X017320Y002824D02*
X017972Y002824D01*
X017972Y002725D02*
X017376Y002725D01*
X017402Y002627D02*
X018426Y002627D01*
X018426Y002559D02*
X017972Y002559D01*
X017972Y002275D01*
X017982Y002236D01*
X018002Y002202D01*
X018030Y002174D01*
X018064Y002155D01*
X018102Y002144D01*
X018426Y002144D01*
X018426Y002559D01*
X018426Y002528D02*
X018526Y002528D01*
X018526Y002430D02*
X018426Y002430D01*
X018426Y002331D02*
X018526Y002331D01*
X018526Y002233D02*
X018426Y002233D01*
X017984Y002233D02*
X017267Y002233D01*
X017346Y002331D02*
X017972Y002331D01*
X017972Y002430D02*
X017388Y002430D01*
X017009Y002430D02*
X016912Y002430D01*
X016912Y002331D02*
X017009Y002331D01*
X017009Y002233D02*
X016912Y002233D01*
X017161Y001937D02*
X018053Y001937D01*
X017992Y001839D02*
X017283Y001839D01*
X017347Y001740D02*
X017992Y001740D01*
X017992Y001642D02*
X017387Y001642D01*
X017387Y001543D02*
X017992Y001543D01*
X017992Y001445D02*
X017375Y001445D01*
X017334Y001346D02*
X017992Y001346D01*
X017992Y001248D02*
X017253Y001248D01*
X019138Y002036D02*
X024090Y002036D01*
X024046Y002134D02*
X019138Y002134D01*
X019426Y002233D02*
X019526Y002233D01*
X019526Y002331D02*
X019426Y002331D01*
X019426Y002430D02*
X019526Y002430D01*
X019526Y002528D02*
X019426Y002528D01*
X019526Y002627D02*
X024236Y002627D01*
X024138Y002528D02*
X019980Y002528D01*
X019980Y002430D02*
X024046Y002430D01*
X024046Y002331D02*
X019980Y002331D01*
X019968Y002233D02*
X024046Y002233D01*
X024189Y001937D02*
X019899Y001937D01*
X019960Y001839D02*
X024287Y001839D01*
X024339Y001740D02*
X019960Y001740D01*
X019980Y002725D02*
X024733Y002725D01*
X024654Y002828D02*
X024906Y003080D01*
X024906Y003436D01*
X024654Y003688D01*
X024298Y003688D01*
X024046Y003436D01*
X024046Y003080D01*
X024298Y002828D01*
X024654Y002828D01*
X024748Y002922D02*
X025204Y002922D01*
X025105Y003021D02*
X024847Y003021D01*
X024906Y003119D02*
X025046Y003119D01*
X025046Y003218D02*
X024906Y003218D01*
X024906Y003316D02*
X025046Y003316D01*
X025046Y003415D02*
X024906Y003415D01*
X024829Y003513D02*
X025123Y003513D01*
X025221Y003612D02*
X024731Y003612D01*
X024733Y003907D02*
X025191Y003907D01*
X025289Y003809D02*
X019138Y003809D01*
X019138Y003907D02*
X024219Y003907D01*
X024120Y004006D02*
X019138Y004006D01*
X019138Y004104D02*
X024046Y004104D01*
X024108Y004498D02*
X023682Y004498D01*
X023583Y004597D02*
X024206Y004597D01*
X023485Y004695D02*
X025277Y004695D01*
X025290Y004708D02*
X025026Y004444D01*
X025026Y004308D01*
X025426Y004308D01*
X025426Y004208D01*
X025526Y004208D01*
X025526Y003808D01*
X025662Y003808D01*
X025926Y004072D01*
X025926Y004208D01*
X025526Y004208D01*
X025526Y004308D01*
X025926Y004308D01*
X025926Y004444D01*
X025662Y004708D01*
X025526Y004708D01*
X025526Y004308D01*
X025426Y004308D01*
X025426Y004708D01*
X025290Y004708D01*
X025426Y004695D02*
X025526Y004695D01*
X025526Y004597D02*
X025426Y004597D01*
X025426Y004498D02*
X025526Y004498D01*
X025526Y004400D02*
X025426Y004400D01*
X025426Y004301D02*
X024906Y004301D01*
X024906Y004203D02*
X025026Y004203D01*
X025026Y004208D02*
X025026Y004072D01*
X025290Y003808D01*
X025426Y003808D01*
X025426Y004208D01*
X025026Y004208D01*
X025026Y004104D02*
X024906Y004104D01*
X024832Y004006D02*
X025092Y004006D01*
X025426Y004006D02*
X025526Y004006D01*
X025526Y004104D02*
X025426Y004104D01*
X025426Y004203D02*
X025526Y004203D01*
X025526Y004301D02*
X029326Y004301D01*
X029326Y004203D02*
X025926Y004203D01*
X025926Y004104D02*
X029326Y004104D01*
X029326Y004006D02*
X025860Y004006D01*
X025761Y003907D02*
X029326Y003907D01*
X029326Y003809D02*
X025663Y003809D01*
X025526Y003809D02*
X025426Y003809D01*
X025426Y003907D02*
X025526Y003907D01*
X025731Y003612D02*
X029326Y003612D01*
X029326Y003710D02*
X019138Y003710D01*
X019138Y003612D02*
X024221Y003612D01*
X024123Y003513D02*
X019138Y003513D01*
X019138Y003415D02*
X024046Y003415D01*
X024046Y003316D02*
X019138Y003316D01*
X019138Y003218D02*
X024046Y003218D01*
X024046Y003119D02*
X019138Y003119D01*
X019426Y003021D02*
X019526Y003021D01*
X019526Y002922D02*
X019426Y002922D01*
X019426Y002824D02*
X019526Y002824D01*
X019526Y002725D02*
X019426Y002725D01*
X019980Y002824D02*
X024832Y002824D01*
X024204Y002922D02*
X019980Y002922D01*
X019946Y003021D02*
X024105Y003021D01*
X025748Y002922D02*
X029326Y002922D01*
X029326Y002824D02*
X025742Y002824D01*
X025841Y002725D02*
X029326Y002725D01*
X029326Y002627D02*
X025939Y002627D01*
X026038Y002528D02*
X029326Y002528D01*
X029326Y002430D02*
X026048Y002430D01*
X026048Y002331D02*
X029326Y002331D01*
X029326Y002233D02*
X026048Y002233D01*
X026048Y002134D02*
X029326Y002134D01*
X029326Y002036D02*
X026048Y002036D01*
X025962Y001937D02*
X029326Y001937D01*
X029326Y001839D02*
X025863Y001839D01*
X025765Y001740D02*
X029326Y001740D01*
X029326Y001642D02*
X025666Y001642D01*
X025568Y001543D02*
X029326Y001543D01*
X029326Y001445D02*
X025469Y001445D01*
X025371Y001346D02*
X029326Y001346D01*
X029326Y001248D02*
X025272Y001248D01*
X025174Y001149D02*
X029326Y001149D01*
X029326Y001051D02*
X025075Y001051D01*
X024977Y000952D02*
X029326Y000952D01*
X029326Y003021D02*
X025847Y003021D01*
X025906Y003119D02*
X029326Y003119D01*
X029326Y003218D02*
X025906Y003218D01*
X025906Y003316D02*
X029326Y003316D01*
X029326Y003415D02*
X025906Y003415D01*
X025829Y003513D02*
X029326Y003513D01*
X029326Y004400D02*
X025926Y004400D01*
X025872Y004498D02*
X029326Y004498D01*
X029326Y004597D02*
X025774Y004597D01*
X025675Y004695D02*
X029326Y004695D01*
X029326Y004794D02*
X023386Y004794D01*
X023288Y004892D02*
X029326Y004892D01*
X029326Y004991D02*
X023189Y004991D01*
X023091Y005089D02*
X029326Y005089D01*
X029326Y005188D02*
X022992Y005188D01*
X022894Y005286D02*
X029326Y005286D01*
X029326Y005385D02*
X022795Y005385D01*
X022697Y005483D02*
X023339Y005483D01*
X023326Y005582D02*
X022598Y005582D01*
X022500Y005680D02*
X023326Y005680D01*
X023326Y005779D02*
X022401Y005779D01*
X022303Y005877D02*
X023326Y005877D01*
X023326Y005976D02*
X022204Y005976D01*
X022106Y006074D02*
X023326Y006074D01*
X023326Y006173D02*
X022007Y006173D01*
X021909Y006271D02*
X023326Y006271D01*
X023326Y006370D02*
X021810Y006370D01*
X021712Y006468D02*
X023326Y006468D01*
X023326Y006567D02*
X021613Y006567D01*
X021515Y006665D02*
X023326Y006665D01*
X023326Y006764D02*
X021416Y006764D01*
X021318Y006862D02*
X023326Y006862D01*
X023326Y006961D02*
X021219Y006961D01*
X021121Y007059D02*
X023326Y007059D01*
X023326Y007158D02*
X021022Y007158D01*
X020924Y007256D02*
X023326Y007256D01*
X023326Y007355D02*
X020825Y007355D01*
X020727Y007453D02*
X023326Y007453D01*
X023326Y007552D02*
X020628Y007552D01*
X020530Y007650D02*
X023326Y007650D01*
X023326Y007749D02*
X020431Y007749D01*
X020333Y007847D02*
X023326Y007847D01*
X023326Y007946D02*
X020234Y007946D01*
X020136Y008044D02*
X023326Y008044D01*
X023326Y008143D02*
X020037Y008143D01*
X019939Y008241D02*
X023326Y008241D01*
X023326Y008340D02*
X019840Y008340D01*
X019742Y008438D02*
X023326Y008438D01*
X023326Y008537D02*
X019643Y008537D01*
X019545Y008635D02*
X023326Y008635D01*
X023326Y008734D02*
X019446Y008734D01*
X019348Y008832D02*
X023326Y008832D01*
X023326Y008931D02*
X019249Y008931D01*
X019151Y009029D02*
X023326Y009029D01*
X023326Y009128D02*
X019052Y009128D01*
X018954Y009226D02*
X023326Y009226D01*
X023326Y009325D02*
X018855Y009325D01*
X018757Y009423D02*
X023326Y009423D01*
X023326Y009522D02*
X018658Y009522D01*
X018560Y009620D02*
X023326Y009620D01*
X023326Y009719D02*
X018461Y009719D01*
X018363Y009817D02*
X023326Y009817D01*
X023326Y009916D02*
X018264Y009916D01*
X018166Y010014D02*
X022129Y010014D01*
X022215Y009928D02*
X021846Y010297D01*
X021846Y010819D01*
X022215Y011188D01*
X022737Y011188D01*
X023106Y010819D01*
X023106Y010297D01*
X022737Y009928D01*
X022215Y009928D01*
X022031Y010113D02*
X018067Y010113D01*
X017969Y010211D02*
X021932Y010211D01*
X021846Y010310D02*
X017870Y010310D01*
X017772Y010408D02*
X021846Y010408D01*
X021846Y010507D02*
X017673Y010507D01*
X017575Y010605D02*
X021846Y010605D01*
X021846Y010704D02*
X017476Y010704D01*
X017378Y010802D02*
X021846Y010802D01*
X021928Y010901D02*
X017279Y010901D01*
X017181Y010999D02*
X022026Y010999D01*
X022125Y011098D02*
X016051Y011098D01*
X015952Y011196D02*
X023326Y011196D01*
X023326Y011098D02*
X022827Y011098D01*
X022926Y010999D02*
X023326Y010999D01*
X023326Y010901D02*
X023024Y010901D01*
X023106Y010802D02*
X023326Y010802D01*
X023326Y010704D02*
X023106Y010704D01*
X023106Y010605D02*
X023326Y010605D01*
X023326Y010507D02*
X023106Y010507D01*
X023106Y010408D02*
X023326Y010408D01*
X023326Y010310D02*
X023106Y010310D01*
X023020Y010211D02*
X023326Y010211D01*
X023326Y010113D02*
X022921Y010113D01*
X022823Y010014D02*
X023326Y010014D01*
X023326Y011295D02*
X015854Y011295D01*
X015755Y011393D02*
X023326Y011393D01*
X018867Y008832D02*
X018257Y008832D01*
X018159Y008931D02*
X018769Y008931D01*
X018670Y009029D02*
X018060Y009029D01*
X017962Y009128D02*
X018572Y009128D01*
X018473Y009226D02*
X017863Y009226D01*
X017765Y009325D02*
X018375Y009325D01*
X018276Y009423D02*
X017666Y009423D01*
X017568Y009522D02*
X018178Y009522D01*
X018079Y009620D02*
X017469Y009620D01*
X017371Y009719D02*
X017981Y009719D01*
X017882Y009817D02*
X017272Y009817D01*
X017174Y009916D02*
X017784Y009916D01*
X017685Y010014D02*
X017075Y010014D01*
X016977Y010113D02*
X017587Y010113D01*
X017488Y010211D02*
X016878Y010211D01*
X016780Y010310D02*
X017390Y010310D01*
X017291Y010408D02*
X016681Y010408D01*
X016583Y010507D02*
X017193Y010507D01*
X017094Y010605D02*
X016484Y010605D01*
X014290Y009620D02*
X014289Y009620D01*
X014290Y009522D02*
X013026Y009522D01*
X013026Y009620D02*
X013923Y009620D01*
X013865Y009719D02*
X013001Y009719D01*
X012960Y009817D02*
X013839Y009817D01*
X013740Y009916D02*
X012876Y009916D01*
X012732Y010014D02*
X013642Y010014D01*
X013134Y009423D02*
X014207Y009423D01*
X014039Y009325D02*
X013211Y009325D01*
X013234Y009226D02*
X013897Y009226D01*
X013783Y009128D02*
X013216Y009128D01*
X013147Y009029D02*
X013641Y009029D01*
X013600Y008931D02*
X012761Y008931D01*
X012821Y009029D02*
X012595Y009029D01*
X012854Y008832D02*
X013601Y008832D01*
X012917Y008438D02*
X014840Y008438D01*
X014850Y008340D02*
X012877Y008340D01*
X012816Y008241D02*
X014908Y008241D01*
X014962Y008143D02*
X015086Y008143D01*
X015103Y008044D02*
X015144Y008044D01*
X015143Y007946D02*
X015356Y007946D01*
X015666Y007711D02*
X016086Y007711D01*
X016185Y007810D01*
X016243Y007868D01*
X017912Y007868D01*
X017912Y007850D01*
X017970Y007792D01*
X017970Y007733D01*
X018008Y007641D01*
X018078Y007571D01*
X018170Y007532D01*
X018270Y007532D01*
X018286Y007539D01*
X018286Y007477D01*
X017652Y007352D01*
X017598Y007352D01*
X017585Y007338D01*
X017567Y007335D01*
X017537Y007290D01*
X017499Y007252D01*
X017499Y007233D01*
X017488Y007218D01*
X017499Y007165D01*
X017499Y006265D01*
X017457Y006223D01*
X017419Y006131D01*
X017419Y006032D01*
X017455Y005945D01*
X015666Y005945D01*
X015666Y006531D01*
X015676Y006548D01*
X015686Y006586D01*
X015686Y006711D01*
X015291Y006711D01*
X015291Y006721D01*
X015686Y006721D01*
X015686Y006845D01*
X015676Y006883D01*
X015666Y006900D01*
X015666Y007711D01*
X015666Y007650D02*
X018004Y007650D01*
X017970Y007749D02*
X016123Y007749D01*
X016222Y007847D02*
X017915Y007847D01*
X018124Y007552D02*
X015666Y007552D01*
X015666Y007453D02*
X018165Y007453D01*
X017667Y007355D02*
X015666Y007355D01*
X015666Y007256D02*
X017503Y007256D01*
X017499Y007158D02*
X015666Y007158D01*
X015666Y007059D02*
X017499Y007059D01*
X017499Y006961D02*
X015666Y006961D01*
X015681Y006862D02*
X017499Y006862D01*
X017499Y006764D02*
X015686Y006764D01*
X015686Y006665D02*
X017499Y006665D01*
X017499Y006567D02*
X015681Y006567D01*
X015666Y006468D02*
X017499Y006468D01*
X017499Y006370D02*
X015666Y006370D01*
X015666Y006271D02*
X017499Y006271D01*
X017436Y006173D02*
X015666Y006173D01*
X015666Y006074D02*
X017419Y006074D01*
X017442Y005976D02*
X015666Y005976D01*
X014906Y005976D02*
X013968Y005976D01*
X013870Y006074D02*
X014906Y006074D01*
X014906Y006173D02*
X013771Y006173D01*
X013673Y006271D02*
X014906Y006271D01*
X014906Y006370D02*
X013574Y006370D01*
X013476Y006468D02*
X014906Y006468D01*
X014891Y006567D02*
X013377Y006567D01*
X013279Y006665D02*
X014886Y006665D01*
X014886Y006764D02*
X013180Y006764D01*
X013082Y006862D02*
X014890Y006862D01*
X014906Y006961D02*
X012983Y006961D01*
X012885Y007059D02*
X014906Y007059D01*
X014673Y007158D02*
X012833Y007158D01*
X012931Y007256D02*
X014614Y007256D01*
X014604Y007355D02*
X012983Y007355D01*
X013024Y007453D02*
X014634Y007453D01*
X014736Y007552D02*
X013026Y007552D01*
X013026Y007650D02*
X014903Y007650D01*
X014692Y007749D02*
X012988Y007749D01*
X012944Y007847D02*
X014645Y007847D01*
X014643Y007946D02*
X012846Y007946D01*
X012659Y008044D02*
X014683Y008044D01*
X014824Y008143D02*
X012718Y008143D01*
X014067Y005877D02*
X014906Y005877D01*
X014854Y005779D02*
X014165Y005779D01*
X014264Y005680D02*
X014755Y005680D01*
X014657Y005582D02*
X014362Y005582D01*
X014461Y005483D02*
X014605Y005483D01*
X017321Y003612D02*
X018798Y003612D01*
X018798Y003710D02*
X017420Y003710D01*
X017518Y003809D02*
X018798Y003809D01*
X018798Y003907D02*
X017617Y003907D01*
X017715Y004006D02*
X018798Y004006D01*
X018798Y004104D02*
X017814Y004104D01*
X017912Y004203D02*
X018798Y004203D01*
X018798Y004301D02*
X018011Y004301D01*
X018109Y004400D02*
X018798Y004400D01*
X018798Y004498D02*
X018252Y004498D01*
X018318Y004597D02*
X018764Y004597D01*
X018665Y004695D02*
X018318Y004695D01*
X018318Y004794D02*
X018567Y004794D01*
X018468Y004892D02*
X018318Y004892D01*
X018318Y004991D02*
X018370Y004991D01*
X018654Y005188D02*
X019403Y005188D01*
X019334Y005286D02*
X019040Y005286D01*
X018752Y005089D02*
X022610Y005089D01*
X022709Y004991D02*
X018851Y004991D01*
X018949Y004892D02*
X022807Y004892D01*
X022906Y004794D02*
X019048Y004794D01*
X019138Y004695D02*
X023004Y004695D01*
X023103Y004597D02*
X019138Y004597D01*
X019138Y004498D02*
X023201Y004498D01*
X023300Y004400D02*
X019138Y004400D01*
X019138Y004301D02*
X023398Y004301D01*
X023497Y004203D02*
X019138Y004203D01*
X018133Y004424D02*
X018133Y004424D01*
X018798Y003513D02*
X017223Y003513D01*
X017124Y003415D02*
X018798Y003415D01*
X018798Y003316D02*
X017026Y003316D01*
X017051Y003342D02*
X017051Y003342D01*
X017009Y002528D02*
X017972Y002528D01*
X018426Y002725D02*
X018526Y002725D01*
X018526Y002824D02*
X018426Y002824D01*
X018426Y002922D02*
X018526Y002922D01*
X018526Y003021D02*
X018426Y003021D01*
X018798Y003119D02*
X013896Y003119D01*
X013994Y003218D02*
X018798Y003218D01*
X020549Y005188D02*
X022512Y005188D01*
X022413Y005286D02*
X020618Y005286D01*
X020618Y005385D02*
X022315Y005385D01*
X022216Y005483D02*
X020618Y005483D01*
X020618Y005582D02*
X022118Y005582D01*
X022019Y005680D02*
X020617Y005680D01*
X020576Y005779D02*
X021921Y005779D01*
X021822Y005877D02*
X020637Y005877D01*
X020638Y005976D02*
X021724Y005976D01*
X021625Y006074D02*
X020005Y006074D01*
X019303Y006468D02*
X019066Y006468D01*
X019066Y006370D02*
X019205Y006370D01*
X019334Y006567D02*
X019056Y006567D01*
X019046Y006665D02*
X019334Y006665D01*
X019334Y006764D02*
X019046Y006764D01*
X019055Y006862D02*
X019336Y006862D01*
X019066Y006961D02*
X020739Y006961D01*
X020837Y006862D02*
X020616Y006862D01*
X020618Y006764D02*
X020936Y006764D01*
X021034Y006665D02*
X020618Y006665D01*
X020618Y006567D02*
X021133Y006567D01*
X021231Y006468D02*
X020618Y006468D01*
X020550Y006370D02*
X021330Y006370D01*
X021428Y006271D02*
X020628Y006271D01*
X020638Y006173D02*
X021527Y006173D01*
X020640Y007059D02*
X019066Y007059D01*
X019066Y007158D02*
X020542Y007158D01*
X020443Y007256D02*
X019046Y007256D01*
X019046Y007355D02*
X020345Y007355D01*
X020246Y007453D02*
X019046Y007453D01*
X019046Y007552D02*
X020148Y007552D01*
X020049Y007650D02*
X019046Y007650D01*
X019046Y007749D02*
X019951Y007749D01*
X019852Y007847D02*
X019023Y007847D01*
X018784Y007946D02*
X019754Y007946D01*
X019655Y008044D02*
X018784Y008044D01*
X018784Y008143D02*
X019557Y008143D01*
X019458Y008241D02*
X018784Y008241D01*
X018750Y008340D02*
X019360Y008340D01*
X019261Y008438D02*
X018651Y008438D01*
X018553Y008537D02*
X019163Y008537D01*
X019064Y008635D02*
X018454Y008635D01*
X018356Y008734D02*
X018966Y008734D01*
X018671Y007059D02*
X018661Y007059D01*
X018661Y007036D02*
X018270Y007036D01*
X018270Y007026D01*
X018661Y007026D01*
X018661Y007036D01*
X018661Y007026D02*
X018661Y006956D01*
X018671Y006956D01*
X018671Y007026D01*
X018661Y007026D01*
X018661Y006961D02*
X018671Y006961D01*
X018661Y006468D02*
X018671Y006468D01*
X018661Y006406D02*
X018449Y006406D01*
X018449Y006396D01*
X018661Y006396D01*
X018661Y006406D01*
X018661Y006396D02*
X018661Y006326D01*
X018671Y006326D01*
X018671Y006396D01*
X018661Y006396D01*
X018661Y006370D02*
X018671Y006370D01*
X024746Y004597D02*
X025178Y004597D01*
X025080Y004498D02*
X024844Y004498D01*
X024906Y004400D02*
X025026Y004400D01*
X012834Y011984D02*
X012804Y011984D01*
X012834Y012083D02*
X012585Y012083D01*
X012756Y012181D02*
X012834Y012181D01*
X012267Y012083D02*
X009306Y012083D01*
X009306Y012181D02*
X012096Y012181D01*
X012000Y012280D02*
X009306Y012280D01*
X009306Y012378D02*
X011959Y012378D01*
X011926Y012477D02*
X009306Y012477D01*
X009306Y012575D02*
X011926Y012575D01*
X011811Y012674D02*
X009306Y012674D01*
X009306Y012772D02*
X011515Y012772D01*
X011436Y012871D02*
X011092Y012871D01*
X011247Y012969D02*
X011412Y012969D01*
X011428Y013068D02*
X011321Y013068D01*
X011362Y013166D02*
X011495Y013166D01*
X011366Y013265D02*
X012112Y013265D01*
X012066Y013363D02*
X011356Y013363D01*
X011315Y013462D02*
X012026Y013462D01*
X012026Y013560D02*
X011234Y013560D01*
X011060Y013659D02*
X012026Y013659D01*
X012067Y013757D02*
X010563Y013757D01*
X010109Y013560D02*
X009306Y013560D01*
X009306Y013462D02*
X010037Y013462D01*
X009996Y013363D02*
X009306Y013363D01*
X009306Y013265D02*
X009986Y013265D01*
X009990Y013166D02*
X009306Y013166D01*
X009306Y013068D02*
X010031Y013068D01*
X010105Y012969D02*
X009306Y012969D01*
X009306Y012871D02*
X010260Y012871D01*
X010011Y013659D02*
X009292Y013659D01*
X009244Y013757D02*
X009912Y013757D01*
X009814Y013856D02*
X009145Y013856D01*
X009047Y013954D02*
X009715Y013954D01*
X009479Y014841D02*
X011989Y014841D01*
X012072Y014939D02*
X009381Y014939D01*
X011097Y014644D02*
X011913Y014644D01*
X012630Y015038D02*
X012834Y015038D01*
X012834Y014939D02*
X012780Y014939D01*
X012215Y013954D02*
X011232Y013954D01*
X011056Y013856D02*
X012116Y013856D01*
X012211Y013166D02*
X011829Y013166D01*
X011896Y013068D02*
X012404Y013068D01*
X012648Y013068D02*
X012834Y013068D01*
X012834Y012969D02*
X012722Y012969D01*
X012821Y012871D02*
X012834Y012871D01*
X012130Y012969D02*
X011981Y012969D01*
X012248Y011984D02*
X009306Y011984D01*
X009306Y011886D02*
X012146Y011886D01*
X012080Y011787D02*
X009306Y011787D01*
X009306Y011689D02*
X012039Y011689D01*
X012026Y011590D02*
X009306Y011590D01*
X009306Y011492D02*
X011971Y011492D01*
X011888Y011393D02*
X009306Y011393D01*
X009306Y011295D02*
X011805Y011295D01*
X011722Y011196D02*
X009306Y011196D01*
X009306Y011098D02*
X011538Y011098D01*
X011470Y010999D02*
X009306Y010999D01*
X009306Y010901D02*
X011454Y010901D01*
X011479Y010802D02*
X009306Y010802D01*
X009306Y010704D02*
X011558Y010704D01*
X008646Y011689D02*
X008007Y011689D01*
X007964Y011787D02*
X008646Y011787D01*
X008646Y011886D02*
X007885Y011886D01*
X007721Y011984D02*
X008646Y011984D01*
X007326Y011984D02*
X007226Y011984D01*
X007226Y011886D02*
X007326Y011886D01*
X007326Y011787D02*
X007226Y011787D01*
X007226Y011689D02*
X007326Y011689D01*
X007326Y011393D02*
X007226Y011393D01*
X007226Y011295D02*
X007326Y011295D01*
X007326Y011196D02*
X007226Y011196D01*
X013035Y016121D02*
X013129Y016121D01*
X013188Y016220D02*
X012937Y016220D01*
X012838Y016318D02*
X013188Y016318D01*
X013188Y016417D02*
X012740Y016417D01*
X014709Y018978D02*
X021626Y018978D01*
X021626Y019076D02*
X014709Y019076D01*
X014709Y019175D02*
X021626Y019175D01*
X021626Y019273D02*
X014709Y019273D01*
X014709Y019372D02*
X021626Y019372D01*
X021626Y019470D02*
X014709Y019470D01*
X014709Y019569D02*
X021626Y019569D01*
X021626Y019667D02*
X014709Y019667D01*
X014709Y019766D02*
X021626Y019766D01*
X021626Y019864D02*
X014709Y019864D01*
X014709Y019963D02*
X021626Y019963D01*
X021626Y020061D02*
X014709Y020061D01*
X014794Y020160D02*
X014807Y020160D01*
X015114Y020160D02*
X015807Y020160D01*
X015657Y020258D02*
X015264Y020258D01*
X015339Y020357D02*
X015582Y020357D01*
X015541Y020455D02*
X015380Y020455D01*
X015387Y020554D02*
X015533Y020554D01*
X015537Y020652D02*
X015383Y020652D01*
X015342Y020751D02*
X015578Y020751D01*
X015648Y020849D02*
X015273Y020849D01*
X015135Y020948D02*
X015785Y020948D01*
X016135Y020948D02*
X016785Y020948D01*
X016648Y020849D02*
X016273Y020849D01*
X016342Y020751D02*
X016578Y020751D01*
X016537Y020652D02*
X016383Y020652D01*
X016387Y020554D02*
X016533Y020554D01*
X016541Y020455D02*
X016380Y020455D01*
X016339Y020357D02*
X016582Y020357D01*
X016657Y020258D02*
X016264Y020258D01*
X016114Y020160D02*
X016807Y020160D01*
X017114Y020160D02*
X017807Y020160D01*
X017657Y020258D02*
X017264Y020258D01*
X017339Y020357D02*
X017582Y020357D01*
X017394Y020455D02*
X017380Y020455D01*
X017480Y020849D02*
X017648Y020849D01*
X017785Y020948D02*
X017382Y020948D01*
X017283Y021046D02*
X021626Y021046D01*
X021626Y020948D02*
X019180Y020948D01*
X019194Y020940D02*
X019132Y020972D01*
X019065Y020994D01*
X019009Y021003D01*
X019009Y020607D01*
X018912Y020607D01*
X018912Y021003D01*
X018856Y020994D01*
X018789Y020972D01*
X018726Y020940D01*
X018669Y020899D01*
X018619Y020849D01*
X018273Y020849D01*
X018342Y020751D02*
X018557Y020751D01*
X018546Y020730D02*
X018524Y020663D01*
X018515Y020606D01*
X018912Y020606D01*
X018912Y020510D01*
X018515Y020510D01*
X018524Y020453D01*
X018546Y020387D01*
X018578Y020324D01*
X018619Y020267D01*
X018669Y020217D01*
X018726Y020176D01*
X018789Y020144D01*
X018856Y020122D01*
X018912Y020113D01*
X018912Y020510D01*
X019009Y020510D01*
X019009Y020606D01*
X019405Y020606D01*
X019396Y020663D01*
X019374Y020730D01*
X019342Y020792D01*
X019301Y020849D01*
X021626Y020849D01*
X021626Y020751D02*
X019364Y020751D01*
X019398Y020652D02*
X021626Y020652D01*
X021626Y020554D02*
X019009Y020554D01*
X019009Y020510D02*
X019405Y020510D01*
X019396Y020453D01*
X019374Y020387D01*
X019342Y020324D01*
X019301Y020267D01*
X019251Y020217D01*
X019194Y020176D01*
X019132Y020144D01*
X019065Y020122D01*
X019009Y020113D01*
X019009Y020510D01*
X019009Y020455D02*
X018912Y020455D01*
X018912Y020357D02*
X019009Y020357D01*
X019009Y020258D02*
X018912Y020258D01*
X018912Y020160D02*
X019009Y020160D01*
X019163Y020160D02*
X021626Y020160D01*
X021626Y020258D02*
X019292Y020258D01*
X019359Y020357D02*
X021626Y020357D01*
X021626Y020455D02*
X019396Y020455D01*
X019301Y020849D02*
X019251Y020899D01*
X019194Y020940D01*
X019009Y020948D02*
X018912Y020948D01*
X018912Y020849D02*
X019009Y020849D01*
X019009Y020751D02*
X018912Y020751D01*
X018912Y020652D02*
X019009Y020652D01*
X018912Y020554D02*
X018387Y020554D01*
X018383Y020652D02*
X018523Y020652D01*
X018546Y020730D02*
X018578Y020792D01*
X018619Y020849D01*
X018741Y020948D02*
X018135Y020948D01*
X018045Y021131D02*
X018202Y021196D01*
X018322Y021316D01*
X018387Y021473D01*
X018387Y021643D01*
X018322Y021800D01*
X018202Y021920D01*
X018045Y021985D01*
X017875Y021985D01*
X017718Y021920D01*
X017598Y021800D01*
X017533Y021643D01*
X017533Y021473D01*
X017598Y021316D01*
X017718Y021196D01*
X017875Y021131D01*
X018045Y021131D01*
X018077Y021145D02*
X018843Y021145D01*
X018875Y021131D02*
X019045Y021131D01*
X019202Y021196D01*
X019322Y021316D01*
X019387Y021473D01*
X019387Y021643D01*
X019322Y021800D01*
X019202Y021920D01*
X019045Y021985D01*
X018875Y021985D01*
X018718Y021920D01*
X018598Y021800D01*
X018533Y021643D01*
X018533Y021473D01*
X018598Y021316D01*
X018718Y021196D01*
X018875Y021131D01*
X019077Y021145D02*
X021626Y021145D01*
X021626Y021243D02*
X019249Y021243D01*
X019333Y021342D02*
X021626Y021342D01*
X021626Y021440D02*
X019373Y021440D01*
X019387Y021539D02*
X021626Y021539D01*
X021626Y021637D02*
X019387Y021637D01*
X019349Y021736D02*
X021626Y021736D01*
X021626Y021834D02*
X019288Y021834D01*
X019171Y021933D02*
X021626Y021933D01*
X021626Y022031D02*
X014291Y022031D01*
X014389Y021933D02*
X014749Y021933D01*
X014633Y021834D02*
X014488Y021834D01*
X014532Y021736D02*
X014572Y021736D01*
X014192Y022130D02*
X021626Y022130D01*
X021626Y022228D02*
X006126Y022228D01*
X006126Y022130D02*
X006638Y022130D01*
X006539Y022031D02*
X006126Y022031D01*
X006126Y021933D02*
X006441Y021933D01*
X006342Y021834D02*
X006126Y021834D01*
X006126Y021736D02*
X006244Y021736D01*
X006145Y021637D02*
X006126Y021637D01*
X006126Y022327D02*
X021626Y022327D01*
X018749Y021933D02*
X018171Y021933D01*
X018288Y021834D02*
X018633Y021834D01*
X018572Y021736D02*
X018349Y021736D01*
X018387Y021637D02*
X018533Y021637D01*
X018533Y021539D02*
X018387Y021539D01*
X018373Y021440D02*
X018547Y021440D01*
X018588Y021342D02*
X018333Y021342D01*
X018249Y021243D02*
X018672Y021243D01*
X017843Y021145D02*
X017185Y021145D01*
X017249Y021243D02*
X017672Y021243D01*
X017588Y021342D02*
X017333Y021342D01*
X017373Y021440D02*
X017547Y021440D01*
X017533Y021539D02*
X017387Y021539D01*
X017387Y021637D02*
X017533Y021637D01*
X017572Y021736D02*
X017349Y021736D01*
X017288Y021834D02*
X017633Y021834D01*
X017749Y021933D02*
X017171Y021933D01*
X016749Y021933D02*
X016205Y021933D01*
X016312Y021834D02*
X016633Y021834D01*
X016572Y021736D02*
X016371Y021736D01*
X016400Y021637D02*
X016533Y021637D01*
X016533Y021539D02*
X016009Y021539D01*
X016009Y021510D02*
X016009Y021299D01*
X015912Y021299D01*
X015912Y021510D01*
X016009Y021510D01*
X016009Y021440D02*
X015912Y021440D01*
X015912Y021342D02*
X016009Y021342D01*
X015912Y021539D02*
X015387Y021539D01*
X015387Y021637D02*
X015520Y021637D01*
X015549Y021736D02*
X015349Y021736D01*
X015288Y021834D02*
X015608Y021834D01*
X015716Y021933D02*
X015171Y021933D01*
X015373Y021440D02*
X015529Y021440D01*
X015569Y021342D02*
X015333Y021342D01*
X015912Y021637D02*
X016009Y021637D01*
X016009Y021736D02*
X015912Y021736D01*
X015912Y021834D02*
X016009Y021834D01*
X016009Y021933D02*
X015912Y021933D01*
X016392Y021440D02*
X016547Y021440D01*
X016588Y021342D02*
X016351Y021342D01*
X014510Y020357D02*
X014339Y020357D01*
X014380Y020455D02*
X014421Y020455D01*
X014412Y020258D02*
X014264Y020258D01*
X014369Y020160D02*
X014114Y020160D01*
X013807Y020160D02*
X013114Y020160D01*
X013264Y020258D02*
X013657Y020258D01*
X013582Y020357D02*
X013339Y020357D01*
X013380Y020455D02*
X013541Y020455D01*
X013533Y020554D02*
X013387Y020554D01*
X013383Y020652D02*
X013537Y020652D01*
X013578Y020751D02*
X013342Y020751D01*
X013165Y021161D02*
X013194Y021176D01*
X013251Y021217D01*
X013301Y021267D01*
X013342Y021324D01*
X013374Y021387D01*
X013396Y021453D01*
X013405Y021510D01*
X013009Y021510D01*
X013009Y021606D01*
X013405Y021606D01*
X013396Y021663D01*
X013374Y021730D01*
X013342Y021792D01*
X013304Y021845D01*
X013643Y021845D01*
X013598Y021800D01*
X013533Y021643D01*
X013533Y021473D01*
X013598Y021316D01*
X013718Y021196D01*
X013803Y021161D01*
X013165Y021161D01*
X013277Y021243D02*
X013672Y021243D01*
X013588Y021342D02*
X013351Y021342D01*
X013392Y021440D02*
X013547Y021440D01*
X013533Y021539D02*
X013009Y021539D01*
X013009Y021510D02*
X013009Y021161D01*
X012912Y021161D01*
X012912Y021510D01*
X012515Y021510D01*
X012524Y021453D01*
X012546Y021387D01*
X012578Y021324D01*
X012619Y021267D01*
X012669Y021217D01*
X012726Y021176D01*
X012755Y021161D01*
X012117Y021161D01*
X012202Y021196D01*
X012322Y021316D01*
X012387Y021473D01*
X012387Y021643D01*
X012322Y021800D01*
X012277Y021845D01*
X012616Y021845D01*
X012578Y021792D01*
X012546Y021730D01*
X012524Y021663D01*
X012515Y021606D01*
X012912Y021606D01*
X012912Y021510D01*
X013009Y021510D01*
X013009Y021440D02*
X012912Y021440D01*
X012912Y021342D02*
X013009Y021342D01*
X013009Y021243D02*
X012912Y021243D01*
X012643Y021243D02*
X012249Y021243D01*
X012333Y021342D02*
X012569Y021342D01*
X012529Y021440D02*
X012373Y021440D01*
X012387Y021539D02*
X012912Y021539D01*
X012912Y021607D02*
X012912Y021845D01*
X013009Y021845D01*
X013009Y021607D01*
X012912Y021607D01*
X012912Y021637D02*
X013009Y021637D01*
X013009Y021736D02*
X012912Y021736D01*
X012912Y021834D02*
X013009Y021834D01*
X013312Y021834D02*
X013633Y021834D01*
X013572Y021736D02*
X013371Y021736D01*
X013400Y021637D02*
X013533Y021637D01*
X012608Y021834D02*
X012288Y021834D01*
X012349Y021736D02*
X012549Y021736D01*
X012520Y021637D02*
X012387Y021637D01*
X012342Y020751D02*
X012578Y020751D01*
X012537Y020652D02*
X012383Y020652D01*
X012387Y020554D02*
X012533Y020554D01*
X012541Y020455D02*
X012380Y020455D01*
X012339Y020357D02*
X012582Y020357D01*
X012657Y020258D02*
X012264Y020258D01*
X012114Y020160D02*
X012807Y020160D01*
X018114Y020160D02*
X018758Y020160D01*
X018628Y020258D02*
X018264Y020258D01*
X018339Y020357D02*
X018561Y020357D01*
X018524Y020455D02*
X018380Y020455D01*
X026326Y020455D02*
X028542Y020455D01*
X028542Y020357D02*
X026326Y020357D01*
X026326Y020258D02*
X028542Y020258D01*
X028542Y020160D02*
X026326Y020160D01*
X026326Y020061D02*
X028535Y020061D01*
X028516Y019963D02*
X026326Y019963D01*
X026326Y019864D02*
X028498Y019864D01*
X028479Y019766D02*
X026326Y019766D01*
X026326Y019667D02*
X028461Y019667D01*
X028442Y019569D02*
X026326Y019569D01*
X026326Y019470D02*
X028424Y019470D01*
X028405Y019372D02*
X026326Y019372D01*
X026326Y019273D02*
X028386Y019273D01*
X028368Y019175D02*
X026326Y019175D01*
X026326Y019076D02*
X028349Y019076D01*
X028331Y018978D02*
X026326Y018978D01*
X026326Y018879D02*
X028312Y018879D01*
X028294Y018781D02*
X026326Y018781D01*
X026326Y018682D02*
X028275Y018682D01*
X028257Y018584D02*
X026326Y018584D01*
X026326Y018485D02*
X028238Y018485D01*
X028220Y018387D02*
X026326Y018387D01*
X026326Y018288D02*
X028201Y018288D01*
X028183Y018190D02*
X026326Y018190D01*
X026326Y018091D02*
X028164Y018091D01*
X028146Y017993D02*
X026326Y017993D01*
X026326Y017894D02*
X028127Y017894D01*
X028109Y017796D02*
X026326Y017796D01*
X026326Y017697D02*
X028090Y017697D01*
X028072Y017599D02*
X026326Y017599D01*
X026326Y020554D02*
X028542Y020554D01*
X028542Y020652D02*
X026326Y020652D01*
X026326Y020751D02*
X028542Y020751D01*
X028542Y020849D02*
X028093Y020849D01*
X028215Y020948D02*
X028465Y020948D01*
X028382Y021046D02*
X028287Y021046D01*
X028330Y021145D02*
X028342Y021145D01*
X028316Y021258D02*
X027876Y021258D01*
X027876Y021358D01*
X028316Y021358D01*
X028316Y021258D01*
X028316Y021342D02*
X027876Y021342D01*
X027876Y021358D02*
X027776Y021358D01*
X027776Y021258D01*
X027336Y021258D01*
X027336Y021358D01*
X027776Y021358D01*
X027776Y021837D01*
X027702Y021825D01*
X027623Y021799D01*
X027548Y021761D01*
X027481Y021712D01*
X027422Y021653D01*
X027373Y021586D01*
X027336Y021514D01*
X027336Y021742D01*
X027260Y021818D01*
X026392Y021818D01*
X026326Y021752D01*
X026326Y022508D01*
X029226Y022508D01*
X029226Y021629D01*
X029115Y021740D01*
X028927Y021818D01*
X028725Y021818D01*
X028537Y021740D01*
X028394Y021597D01*
X028335Y021456D01*
X028317Y021512D01*
X028279Y021586D01*
X028230Y021653D01*
X028171Y021712D01*
X028104Y021761D01*
X028029Y021799D01*
X027950Y021825D01*
X027876Y021837D01*
X027876Y021358D01*
X027876Y021440D02*
X027776Y021440D01*
X027776Y021342D02*
X027336Y021342D01*
X027336Y021539D02*
X027349Y021539D01*
X027336Y021637D02*
X027410Y021637D01*
X027336Y021736D02*
X027513Y021736D01*
X027776Y021736D02*
X027876Y021736D01*
X027876Y021834D02*
X027776Y021834D01*
X027759Y021834D02*
X026326Y021834D01*
X026326Y021933D02*
X029226Y021933D01*
X029226Y022031D02*
X026326Y022031D01*
X026326Y022130D02*
X029226Y022130D01*
X029226Y022228D02*
X026326Y022228D01*
X026326Y022327D02*
X029226Y022327D01*
X029226Y022425D02*
X026326Y022425D01*
X027776Y021637D02*
X027876Y021637D01*
X027876Y021539D02*
X027776Y021539D01*
X027776Y021243D02*
X027876Y021243D01*
X027876Y021145D02*
X027776Y021145D01*
X027776Y021046D02*
X027876Y021046D01*
X027876Y020948D02*
X027776Y020948D01*
X027776Y020849D02*
X027876Y020849D01*
X027559Y020849D02*
X027311Y020849D01*
X027336Y020948D02*
X027437Y020948D01*
X027365Y021046D02*
X027336Y021046D01*
X028242Y021637D02*
X028434Y021637D01*
X028369Y021539D02*
X028303Y021539D01*
X028139Y021736D02*
X028532Y021736D01*
X027893Y021834D02*
X029226Y021834D01*
X029226Y021736D02*
X029120Y021736D01*
X029218Y021637D02*
X029226Y021637D01*
X026341Y020849D02*
X026326Y020849D01*
D31*
X010661Y013334D02*
X008476Y015519D01*
X008476Y019082D01*
X008545Y019151D01*
X008476Y019219D01*
X008476Y020735D01*
X007964Y021247D01*
X007964Y021542D01*
X007960Y021558D01*
X008948Y019554D02*
X008960Y019558D01*
X008948Y019554D02*
X008545Y019151D01*
X010661Y013334D02*
X010661Y013275D01*
X010676Y013258D01*
X018515Y006405D02*
X018666Y006401D01*
D32*
X009830Y008558D02*
X008976Y009412D01*
X008976Y013558D01*
X007976Y014558D01*
X007276Y014558D01*
M02*
