  0
SECTION
  2
HEADER
  9
$ACADVER
  1
AC1009
  9
$MEASUREMENT
 70
     1
  0
ENDSEC
  0
SECTION
  2
ENTITIES
  0
LWPOLYLINE
  8
0
 62
7
 90
5
 70
1
 10
20.621563
 20
9.398000
 10
20.621563
 20
8.899563
 10
21.718438
 20
8.899563
 10
21.718438
 20
9.896437
 10
20.621563
 20
9.896437
  0
LWPOLYLINE
  8
0
 62
7
 90
5
 70
1
 10
18.921563
 20
9.398000
 10
18.921563
 20
8.899563
 10
20.018437
 20
8.899563
 10
20.018437
 20
9.896437
 10
18.921563
 20
9.896437
  0
LWPOLYLINE
  8
0
 62
7
 90
5
 70
1
 10
20.018437
 20
13.208000
 10
20.018437
 20
13.706437
 10
18.921563
 20
13.706437
 10
18.921563
 20
12.709563
 10
20.018437
 20
12.709563
  0
LWPOLYLINE
  8
0
 62
7
 90
5
 70
1
 10
21.718438
 20
13.208000
 10
21.718438
 20
13.706437
 10
20.621563
 20
13.706437
 10
20.621563
 20
12.709563
 10
21.718438
 20
12.709563
  0
LWPOLYLINE
  8
0
 62
7
 90
5
 70
1
 10
20.621563
 20
18.288000
 10
20.621563
 20
17.789562
 10
21.718438
 20
17.789562
 10
21.718438
 20
18.786438
 10
20.621563
 20
18.786438
  0
LWPOLYLINE
  8
0
 62
7
 90
5
 70
1
 10
18.921563
 20
18.288000
 10
18.921563
 20
17.789562
 10
20.018437
 20
17.789562
 10
20.018437
 20
18.786438
 10
18.921563
 20
18.786438
  0
LWPOLYLINE
  8
0
 62
7
 90
5
 70
1
 10
3.454400
 20
14.603438
 10
1.804963
 20
14.603438
 10
1.804963
 20
13.082562
 10
5.103838
 20
13.082562
 10
5.103838
 20
14.603438
  0
LWPOLYLINE
  8
0
 62
7
 90
5
 70
1
 10
3.454400
 20
12.063438
 10
1.804963
 20
12.063438
 10
1.804963
 20
10.542563
 10
5.103838
 20
10.542563
 10
5.103838
 20
12.063438
  0
LWPOLYLINE
  8
0
 62
7
 90
5
 70
1
 10
3.454400
 20
9.523438
 10
1.804963
 20
9.523438
 10
1.804963
 20
8.002562
 10
5.103838
 20
8.002562
 10
5.103838
 20
9.523438
  0
LWPOLYLINE
  8
0
 62
7
 90
5
 70
1
 10
19.968438
 20
15.748000
 10
19.968438
 20
16.296437
 10
18.971562
 20
16.296437
 10
18.971562
 20
15.199562
 10
19.968438
 20
15.199562
  0
LWPOLYLINE
  8
0
 62
7
 90
5
 70
1
 10
21.668438
 20
15.748000
 10
21.668438
 20
16.296437
 10
20.671563
 20
16.296437
 10
20.671563
 20
15.199562
 10
21.668438
 20
15.199562
  0
LWPOLYLINE
  8
0
 62
7
 90
5
 70
1
 10
9.900000
 20
16.867162
 10
10.177838
 20
16.867162
 10
10.177838
 20
18.134037
 10
9.622162
 20
18.134037
 10
9.622162
 20
16.867162
  0
LWPOLYLINE
  8
0
 62
7
 90
5
 70
1
 10
10.700000
 20
16.867162
 10
10.977837
 20
16.867162
 10
10.977837
 20
18.134037
 10
10.422162
 20
18.134037
 10
10.422162
 20
16.867162
  0
LWPOLYLINE
  8
0
 62
7
 90
5
 70
1
 10
11.500000
 20
16.867162
 10
11.777838
 20
16.867162
 10
11.777838
 20
18.134037
 10
11.222162
 20
18.134037
 10
11.222162
 20
16.867162
  0
LWPOLYLINE
  8
0
 62
7
 90
5
 70
1
 10
12.300000
 20
16.867162
 10
12.577838
 20
16.867162
 10
12.577838
 20
18.134037
 10
12.022163
 20
18.134037
 10
12.022163
 20
16.867162
  0
LWPOLYLINE
  8
0
 62
7
 90
5
 70
1
 10
13.100000
 20
16.867162
 10
13.377838
 20
16.867162
 10
13.377838
 20
18.134037
 10
12.822162
 20
18.134037
 10
12.822162
 20
16.867162
  0
LWPOLYLINE
  8
0
 62
7
 90
5
 70
1
 10
13.900000
 20
16.867162
 10
14.177838
 20
16.867162
 10
14.177838
 20
18.134037
 10
13.622162
 20
18.134037
 10
13.622162
 20
16.867162
  0
LWPOLYLINE
  8
0
 62
7
 90
5
 70
1
 10
14.700000
 20
16.867162
 10
14.977837
 20
16.867162
 10
14.977837
 20
18.134037
 10
14.422162
 20
18.134037
 10
14.422162
 20
16.867162
  0
LWPOLYLINE
  8
0
 62
7
 90
5
 70
1
 10
15.500000
 20
16.867162
 10
15.777838
 20
16.867162
 10
15.777838
 20
18.134037
 10
15.222162
 20
18.134037
 10
15.222162
 20
16.867162
  0
LWPOLYLINE
  8
0
 62
7
 90
5
 70
1
 10
16.992600
 20
15.730162
 10
17.626037
 20
15.730162
 10
17.626037
 20
16.285837
 10
16.359163
 20
16.285837
 10
16.359163
 20
15.730162
  0
LWPOLYLINE
  8
0
 62
7
 90
5
 70
1
 10
16.992600
 20
14.930162
 10
17.626037
 20
14.930162
 10
17.626037
 20
15.485838
 10
16.359163
 20
15.485838
 10
16.359163
 20
14.930162
  0
LWPOLYLINE
  8
0
 62
7
 90
5
 70
1
 10
16.992600
 20
14.130162
 10
17.626037
 20
14.130162
 10
17.626037
 20
14.685837
 10
16.359163
 20
14.685837
 10
16.359163
 20
14.130162
  0
LWPOLYLINE
  8
0
 62
7
 90
5
 70
1
 10
16.992600
 20
13.330163
 10
17.626037
 20
13.330163
 10
17.626037
 20
13.885838
 10
16.359163
 20
13.885838
 10
16.359163
 20
13.330163
  0
LWPOLYLINE
  8
0
 62
7
 90
5
 70
1
 10
16.992600
 20
12.530162
 10
17.626037
 20
12.530162
 10
17.626037
 20
13.085838
 10
16.359163
 20
13.085838
 10
16.359163
 20
12.530162
  0
LWPOLYLINE
  8
0
 62
7
 90
5
 70
1
 10
16.992600
 20
11.730162
 10
17.626037
 20
11.730162
 10
17.626037
 20
12.285837
 10
16.359163
 20
12.285837
 10
16.359163
 20
11.730162
  0
LWPOLYLINE
  8
0
 62
7
 90
5
 70
1
 10
16.992600
 20
10.930162
 10
17.626037
 20
10.930162
 10
17.626037
 20
11.485838
 10
16.359163
 20
11.485838
 10
16.359163
 20
10.930162
  0
LWPOLYLINE
  8
0
 62
7
 90
5
 70
1
 10
16.992600
 20
10.130162
 10
17.626037
 20
10.130162
 10
17.626037
 20
10.685837
 10
16.359163
 20
10.685837
 10
16.359163
 20
10.130162
  0
LWPOLYLINE
  8
0
 62
7
 90
5
 70
1
 10
15.500000
 20
8.281963
 10
15.777838
 20
8.281963
 10
15.777838
 20
9.548837
 10
15.222162
 20
9.548837
 10
15.222162
 20
8.281963
  0
LWPOLYLINE
  8
0
 62
7
 90
5
 70
1
 10
14.700000
 20
8.281963
 10
14.977837
 20
8.281963
 10
14.977837
 20
9.548837
 10
14.422162
 20
9.548837
 10
14.422162
 20
8.281963
  0
LWPOLYLINE
  8
0
 62
7
 90
5
 70
1
 10
13.900000
 20
8.281963
 10
14.177838
 20
8.281963
 10
14.177838
 20
9.548837
 10
13.622162
 20
9.548837
 10
13.622162
 20
8.281963
  0
LWPOLYLINE
  8
0
 62
7
 90
5
 70
1
 10
13.100000
 20
8.281963
 10
13.377838
 20
8.281963
 10
13.377838
 20
9.548837
 10
12.822162
 20
9.548837
 10
12.822162
 20
8.281963
  0
LWPOLYLINE
  8
0
 62
7
 90
5
 70
1
 10
12.300000
 20
8.281963
 10
12.577838
 20
8.281963
 10
12.577838
 20
9.548837
 10
12.022163
 20
9.548837
 10
12.022163
 20
8.281963
  0
LWPOLYLINE
  8
0
 62
7
 90
5
 70
1
 10
11.500000
 20
8.281963
 10
11.777838
 20
8.281963
 10
11.777838
 20
9.548837
 10
11.222162
 20
9.548837
 10
11.222162
 20
8.281963
  0
LWPOLYLINE
  8
0
 62
7
 90
5
 70
1
 10
10.700000
 20
8.281963
 10
10.977837
 20
8.281963
 10
10.977837
 20
9.548837
 10
10.422162
 20
9.548837
 10
10.422162
 20
8.281963
  0
LWPOLYLINE
  8
0
 62
7
 90
5
 70
1
 10
9.900000
 20
8.281963
 10
10.177838
 20
8.281963
 10
10.177838
 20
9.548837
 10
9.622162
 20
9.548837
 10
9.622162
 20
8.281963
  0
LWPOLYLINE
  8
0
 62
7
 90
5
 70
1
 10
8.407400
 20
10.130162
 10
9.040838
 20
10.130162
 10
9.040838
 20
10.685837
 10
7.773963
 20
10.685837
 10
7.773963
 20
10.130162
  0
LWPOLYLINE
  8
0
 62
7
 90
5
 70
1
 10
8.407400
 20
10.930162
 10
9.040838
 20
10.930162
 10
9.040838
 20
11.485838
 10
7.773963
 20
11.485838
 10
7.773963
 20
10.930162
  0
LWPOLYLINE
  8
0
 62
7
 90
5
 70
1
 10
8.407400
 20
11.730162
 10
9.040838
 20
11.730162
 10
9.040838
 20
12.285837
 10
7.773963
 20
12.285837
 10
7.773963
 20
11.730162
  0
LWPOLYLINE
  8
0
 62
7
 90
5
 70
1
 10
8.407400
 20
12.530162
 10
9.040838
 20
12.530162
 10
9.040838
 20
13.085838
 10
7.773963
 20
13.085838
 10
7.773963
 20
12.530162
  0
LWPOLYLINE
  8
0
 62
7
 90
5
 70
1
 10
8.407400
 20
13.330163
 10
9.040838
 20
13.330163
 10
9.040838
 20
13.885838
 10
7.773963
 20
13.885838
 10
7.773963
 20
13.330163
  0
LWPOLYLINE
  8
0
 62
7
 90
5
 70
1
 10
8.407400
 20
14.130162
 10
9.040838
 20
14.130162
 10
9.040838
 20
14.685837
 10
7.773963
 20
14.685837
 10
7.773963
 20
14.130162
  0
LWPOLYLINE
  8
0
 62
7
 90
5
 70
1
 10
8.407400
 20
14.930162
 10
9.040838
 20
14.930162
 10
9.040838
 20
15.485838
 10
7.773963
 20
15.485838
 10
7.773963
 20
14.930162
  0
LWPOLYLINE
  8
0
 62
7
 90
5
 70
1
 10
8.407400
 20
15.730162
 10
9.040838
 20
15.730162
 10
9.040838
 20
16.285837
 10
7.773963
 20
16.285837
 10
7.773963
 20
15.730162
  0
ENDSEC
  0
EOF
