  0
SECTION
  2
HEADER
  9
$ACADVER
  1
AC1009
  9
$FILLMODE
 70
0
  9
$EXTMIN
 10
-0.1270
 20
-0.5080
 30
0.0000
  9
$EXTMAX
 10
44.5770
 20
29.3370
 30
0.0000
  0
ENDSEC
  0
SECTION
  2
TABLES
  0
TABLE
  2
LTYPE
 70
1
  0
LTYPE
  2
CONTINUOUS
 70
64
  3
Solid line
 72
65
 73
0
 40
0
  0
ENDTAB
  0
TABLE
  2
LAYER
 70
255
  0
LAYER
  2
32
 70
64
 62
253
  6
CONTINUOUS
  0
ENDTAB
  0
ENDSEC
  0
SECTION
  2
BLOCKS
  0
BLOCK
  8
0
  2
RECT
 70
64
 10
0.0000
 20
0.0000
 30
0.0000
  3
RECT
  0
SOLID
  8
0
 10
-0.5000
 20
-0.5000
 30
0.0000
 11
0.5000
 21
-0.5000
 31
0.0000
 12
-0.5000
 22
0.5000
 32
0.0000
 13
0.5000
 23
0.5000
 33
0.0000
  0
ENDBLK
  8
0
  0
BLOCK
  8
0
  2
PIE
 70
64
 10
0.0000
 20
0.0000
 30
0.0000
  3
PIE
  0
CIRCLE
  8
0
 10
0.0000
 20
0.0000
 30
0.0000
 40
0.5000
  0
ENDBLK
  8
0
  0
BLOCK
  8
0
  2
OCTAGONP
 70
64
 10
0.0000
 20
0.0000
 30
0.0000
  3
OCTAGONP
  0
POLYLINE
  8
0
 66
1
 10
0.0000
 20
0.0000
 30
0.0000
 40
0.0000
 41
0.0000
 70
1
  0
VERTEX
  8
0
 10
-0.5000
 20
-0.2071
 30
0.0000
  0
VERTEX
  8
0
 10
-0.5000
 20
0.2071
 30
0.0000
  0
VERTEX
  8
0
 10
-0.2071
 20
0.5000
 30
0.0000
  0
VERTEX
  8
0
 10
0.2071
 20
0.5000
 30
0.0000
  0
VERTEX
  8
0
 10
0.5000
 20
0.2071
 30
0.0000
  0
VERTEX
  8
0
 10
0.5000
 20
-0.2071
 30
0.0000
  0
VERTEX
  8
0
 10
0.2071
 20
-0.5000
 30
0.0000
  0
VERTEX
  8
0
 10
-0.2071
 20
-0.5000
 30
0.0000
  0
SEQEND
  8
0
  0
ENDBLK
  8
0
  0
BLOCK
  8
0
  2
SQUAREP
 70
64
 10
0.0000
 20
0.0000
 30
0.0000
  3
SQUAREP
  0
SOLID
  8
0
 10
-0.5000
 20
-0.5000
 30
0.0000
 11
0.5000
 21
-0.5000
 31
0.0000
 12
-0.5000
 22
0.5000
 32
0.0000
 13
0.5000
 23
0.5000
 33
0.0000
  0
ENDBLK
  8
0
  0
BLOCK
  8
0
  2
ROUNDP
 70
64
 10
0.0000
 20
0.0000
 30
0.0000
  3
ROUNDP
  0
CIRCLE
  8
0
 10
0.0000
 20
0.0000
 30
0.0000
 40
0.5000
  0
ENDBLK
  8
0
  0
BLOCK
  8
0
  2
ANNULUSP
 70
64
 10
0.0000
 20
0.0000
 30
0.0000
  3
ANNULUSP
  0
CIRCLE
  8
0
 10
0.0000
 20
0.0000
 30
0.0000
 40
0.5000
  0
ENDBLK
  8
0
  0
BLOCK
  8
0
  2
THERMALP
 70
64
 10
0.0000
 20
0.0000
 30
0.0000
  3
THERMALP
  0
LINE
  8
0
 10
-0.2379
 20
0.4500
 30
0.0000
 11
0.2379
 21
0.4500
 31
0.0000
  0
LINE
  8
0
 10
0.4500
 20
0.2379
 30
0.0000
 11
0.4500
 21
-0.2379
 31
0.0000
  0
LINE
  8
0
 10
0.2379
 20
-0.4500
 30
0.0000
 11
-0.2379
 21
-0.4500
 31
0.0000
  0
LINE
  8
0
 10
-0.4500
 20
-0.2379
 30
0.0000
 11
-0.4500
 21
0.2379
 31
0.0000
  0
ENDBLK
  8
0
  0
BLOCK
  8
0
  2
OCTAGONV
 70
64
 10
0.0000
 20
0.0000
 30
0.0000
  3
OCTAGONV
  0
POLYLINE
  8
0
 66
1
 10
0.0000
 20
0.0000
 30
0.0000
 40
0.0000
 41
0.0000
 70
1
  0
VERTEX
  8
0
 10
-0.5000
 20
-0.2071
 30
0.0000
  0
VERTEX
  8
0
 10
-0.5000
 20
0.2071
 30
0.0000
  0
VERTEX
  8
0
 10
-0.2071
 20
0.5000
 30
0.0000
  0
VERTEX
  8
0
 10
0.2071
 20
0.5000
 30
0.0000
  0
VERTEX
  8
0
 10
0.5000
 20
0.2071
 30
0.0000
  0
VERTEX
  8
0
 10
0.5000
 20
-0.2071
 30
0.0000
  0
VERTEX
  8
0
 10
0.2071
 20
-0.5000
 30
0.0000
  0
VERTEX
  8
0
 10
-0.2071
 20
-0.5000
 30
0.0000
  0
SEQEND
  8
0
  0
ENDBLK
  8
0
  0
BLOCK
  8
0
  2
SQUAREV
 70
64
 10
0.0000
 20
0.0000
 30
0.0000
  3
SQUAREV
  0
SOLID
  8
0
 10
-0.5000
 20
-0.5000
 30
0.0000
 11
0.5000
 21
-0.5000
 31
0.0000
 12
-0.5000
 22
0.5000
 32
0.0000
 13
0.5000
 23
0.5000
 33
0.0000
  0
ENDBLK
  8
0
  0
BLOCK
  8
0
  2
ROUNDV
 70
64
 10
0.0000
 20
0.0000
 30
0.0000
  3
ROUNDV
  0
CIRCLE
  8
0
 10
0.0000
 20
0.0000
 30
0.0000
 40
0.5000
  0
ENDBLK
  8
0
  0
BLOCK
  8
0
  2
ANNULUSV
 70
64
 10
0.0000
 20
0.0000
 30
0.0000
  3
ANNULUSV
  0
CIRCLE
  8
0
 10
0.0000
 20
0.0000
 30
0.0000
 40
0.5000
  0
ENDBLK
  8
0
  0
BLOCK
  8
0
  2
THERMALV
 70
64
 10
0.0000
 20
0.0000
 30
0.0000
  3
THERMALV
  0
LINE
  8
0
 10
-0.2379
 20
0.4500
 30
0.0000
 11
0.2379
 21
0.4500
 31
0.0000
  0
LINE
  8
0
 10
0.4500
 20
0.2379
 30
0.0000
 11
0.4500
 21
-0.2379
 31
0.0000
  0
LINE
  8
0
 10
0.2379
 20
-0.4500
 30
0.0000
 11
-0.2379
 21
-0.4500
 31
0.0000
  0
LINE
  8
0
 10
-0.4500
 20
-0.2379
 30
0.0000
 11
-0.4500
 21
0.2379
 31
0.0000
  0
ENDBLK
  8
0
  0
BLOCK
  8
0
  2
LONGP100
 70
64
 10
0.0000
 20
0.0000
 30
0.0000
  3
LONGP100
  0
POLYLINE
  8
0
 66
1
 10
0.0000
 20
0.0000
 30
0.0000
 40
0.0000
 41
0.0000
 70
1
  0
VERTEX
  8
0
 10
-0.5000
 20
-0.5000
 30
0.0000
  0
VERTEX
  8
0
 10
0.5000
 20
-0.5000
 30
0.0000
 42
1.0000
  0
VERTEX
  8
0
 10
0.5000
 20
0.5000
 30
0.0000
  0
VERTEX
  8
0
 10
-0.5000
 20
0.5000
 30
0.0000
 42
1.0000
  0
SEQEND
  8
0
  0
ENDBLK
  8
0
  0
ENDSEC
  0
SECTION
  2
ENTITIES
  0
INSERT
  8
32
  2
RECT
 10
33.7058
 20
19.1262
 30
0.0000
 41
0.2540
 42
0.7112
 43
1.0000
 50
270.0000
  0
INSERT
  8
32
  2
RECT
 10
33.7058
 20
18.6690
 30
0.0000
 41
0.2540
 42
0.7112
 43
1.0000
 50
270.0000
  0
INSERT
  8
32
  2
RECT
 10
33.7058
 20
18.2372
 30
0.0000
 41
0.2540
 42
0.7112
 43
1.0000
 50
270.0000
  0
INSERT
  8
32
  2
RECT
 10
33.7058
 20
17.7800
 30
0.0000
 41
0.2540
 42
0.7112
 43
1.0000
 50
270.0000
  0
INSERT
  8
32
  2
RECT
 10
33.7058
 20
17.3228
 30
0.0000
 41
0.2540
 42
0.7112
 43
1.0000
 50
270.0000
  0
INSERT
  8
32
  2
RECT
 10
33.7058
 20
16.8910
 30
0.0000
 41
0.2540
 42
0.7112
 43
1.0000
 50
270.0000
  0
INSERT
  8
32
  2
RECT
 10
33.7058
 20
16.4338
 30
0.0000
 41
0.2540
 42
0.7112
 43
1.0000
 50
270.0000
  0
INSERT
  8
32
  2
RECT
 10
33.0962
 20
15.8242
 30
0.0000
 41
0.2540
 42
0.7112
 43
1.0000
 50
0.0000
  0
INSERT
  8
32
  2
RECT
 10
32.6390
 20
15.8242
 30
0.0000
 41
0.2540
 42
0.7112
 43
1.0000
 50
0.0000
  0
INSERT
  8
32
  2
RECT
 10
32.2072
 20
15.8242
 30
0.0000
 41
0.2540
 42
0.7112
 43
1.0000
 50
0.0000
  0
INSERT
  8
32
  2
RECT
 10
31.7500
 20
15.8242
 30
0.0000
 41
0.2540
 42
0.7112
 43
1.0000
 50
0.0000
  0
INSERT
  8
32
  2
RECT
 10
31.2928
 20
15.8242
 30
0.0000
 41
0.2540
 42
0.7112
 43
1.0000
 50
0.0000
  0
INSERT
  8
32
  2
RECT
 10
30.8610
 20
15.8242
 30
0.0000
 41
0.2540
 42
0.7112
 43
1.0000
 50
0.0000
  0
INSERT
  8
32
  2
RECT
 10
30.4038
 20
15.8242
 30
0.0000
 41
0.2540
 42
0.7112
 43
1.0000
 50
0.0000
  0
INSERT
  8
32
  2
RECT
 10
29.7942
 20
16.4338
 30
0.0000
 41
0.2540
 42
0.7112
 43
1.0000
 50
270.0000
  0
INSERT
  8
32
  2
RECT
 10
29.7942
 20
16.8910
 30
0.0000
 41
0.2540
 42
0.7112
 43
1.0000
 50
270.0000
  0
INSERT
  8
32
  2
RECT
 10
29.7942
 20
17.3228
 30
0.0000
 41
0.2540
 42
0.7112
 43
1.0000
 50
270.0000
  0
INSERT
  8
32
  2
RECT
 10
29.7942
 20
17.7800
 30
0.0000
 41
0.2540
 42
0.7112
 43
1.0000
 50
270.0000
  0
INSERT
  8
32
  2
RECT
 10
29.7942
 20
18.2372
 30
0.0000
 41
0.2540
 42
0.7112
 43
1.0000
 50
270.0000
  0
INSERT
  8
32
  2
RECT
 10
29.7942
 20
18.6690
 30
0.0000
 41
0.2540
 42
0.7112
 43
1.0000
 50
270.0000
  0
INSERT
  8
32
  2
RECT
 10
29.7942
 20
19.1262
 30
0.0000
 41
0.2540
 42
0.7112
 43
1.0000
 50
270.0000
  0
INSERT
  8
32
  2
RECT
 10
30.4038
 20
19.7358
 30
0.0000
 41
0.2540
 42
0.7112
 43
1.0000
 50
0.0000
  0
INSERT
  8
32
  2
RECT
 10
30.8610
 20
19.7358
 30
0.0000
 41
0.2540
 42
0.7112
 43
1.0000
 50
0.0000
  0
INSERT
  8
32
  2
RECT
 10
31.2928
 20
19.7358
 30
0.0000
 41
0.2540
 42
0.7112
 43
1.0000
 50
0.0000
  0
INSERT
  8
32
  2
RECT
 10
31.7500
 20
19.7358
 30
0.0000
 41
0.2540
 42
0.7112
 43
1.0000
 50
0.0000
  0
INSERT
  8
32
  2
RECT
 10
32.2072
 20
19.7358
 30
0.0000
 41
0.2540
 42
0.7112
 43
1.0000
 50
0.0000
  0
INSERT
  8
32
  2
RECT
 10
32.6390
 20
19.7358
 30
0.0000
 41
0.2540
 42
0.7112
 43
1.0000
 50
0.0000
  0
INSERT
  8
32
  2
RECT
 10
33.0962
 20
19.7358
 30
0.0000
 41
0.2540
 42
0.7112
 43
1.0000
 50
0.0000
  0
INSERT
  8
32
  2
RECT
 10
31.7500
 20
17.7800
 30
0.0000
 41
2.4384
 42
2.4384
 43
1.0000
 50
180.0000
  0
INSERT
  8
32
  2
RECT
 10
35.5600
 20
24.0000
 30
0.0000
 41
2.0000
 42
1.2000
 43
1.0000
 50
90.0000
  0
INSERT
  8
32
  2
RECT
 10
35.5600
 20
26.8000
 30
0.0000
 41
2.0000
 42
1.2000
 43
1.0000
 50
90.0000
  0
INSERT
  8
32
  2
RECT
 10
39.6400
 20
20.9550
 30
0.0000
 41
1.3000
 42
1.6000
 43
1.0000
 50
0.0000
  0
INSERT
  8
32
  2
RECT
 10
41.6400
 20
20.9550
 30
0.0000
 41
1.3000
 42
1.6000
 43
1.0000
 50
0.0000
  0
INSERT
  8
32
  2
RECT
 10
20.6350
 20
1.9050
 30
0.0000
 41
1.3000
 42
1.5000
 43
1.0000
 50
180.0000
  0
INSERT
  8
32
  2
RECT
 10
18.7350
 20
1.9050
 30
0.0000
 41
1.3000
 42
1.5000
 43
1.0000
 50
180.0000
  0
INSERT
  8
32
  2
RECT
 10
25.0800
 20
1.9050
 30
0.0000
 41
1.3000
 42
1.5000
 43
1.0000
 50
180.0000
  0
INSERT
  8
32
  2
RECT
 10
23.1800
 20
1.9050
 30
0.0000
 41
1.3000
 42
1.5000
 43
1.0000
 50
180.0000
  0
INSERT
  8
32
  2
RECT
 10
27.1780
 20
1.9050
 30
0.0000
 41
1.1684
 42
1.6002
 43
1.0000
 50
0.0000
  0
INSERT
  8
32
  2
RECT
 10
28.7020
 20
1.9050
 30
0.0000
 41
1.1684
 42
1.6002
 43
1.0000
 50
0.0000
  0
INSERT
  8
32
  2
RECT
 10
31.7500
 20
6.9850
 30
0.0000
 41
0.5000
 42
0.5000
 43
1.0000
 50
180.0000
  0
INSERT
  8
32
  2
RECT
 10
33.6042
 20
7.9883
 30
0.0000
 41
0.4826
 42
0.2032
 43
1.0000
 50
180.0000
  0
INSERT
  8
32
  2
RECT
 10
33.6042
 20
7.4803
 30
0.0000
 41
0.4826
 42
0.2032
 43
1.0000
 50
180.0000
  0
INSERT
  8
32
  2
RECT
 10
33.6042
 20
6.9850
 30
0.0000
 41
0.4826
 42
0.2032
 43
1.0000
 50
180.0000
  0
INSERT
  8
32
  2
RECT
 10
33.6042
 20
6.4897
 30
0.0000
 41
0.4826
 42
0.2032
 43
1.0000
 50
180.0000
  0
INSERT
  8
32
  2
RECT
 10
33.6042
 20
5.9817
 30
0.0000
 41
0.4826
 42
0.2032
 43
1.0000
 50
180.0000
  0
INSERT
  8
32
  2
RECT
 10
29.8958
 20
7.9883
 30
0.0000
 41
0.4826
 42
0.2032
 43
1.0000
 50
180.0000
  0
INSERT
  8
32
  2
RECT
 10
29.8958
 20
7.4803
 30
0.0000
 41
0.4826
 42
0.2032
 43
1.0000
 50
180.0000
  0
INSERT
  8
32
  2
RECT
 10
29.8958
 20
6.9850
 30
0.0000
 41
0.4826
 42
0.2032
 43
1.0000
 50
180.0000
  0
INSERT
  8
32
  2
RECT
 10
29.8958
 20
6.4897
 30
0.0000
 41
0.4826
 42
0.2032
 43
1.0000
 50
180.0000
  0
INSERT
  8
32
  2
RECT
 10
29.8958
 20
5.9817
 30
0.0000
 41
0.4826
 42
0.2032
 43
1.0000
 50
180.0000
  0
INSERT
  8
32
  2
RECT
 10
32.7533
 20
8.8392
 30
0.0000
 41
0.4826
 42
0.2032
 43
1.0000
 50
90.0000
  0
INSERT
  8
32
  2
RECT
 10
32.2453
 20
8.8392
 30
0.0000
 41
0.4826
 42
0.2032
 43
1.0000
 50
90.0000
  0
INSERT
  8
32
  2
RECT
 10
31.7500
 20
8.8392
 30
0.0000
 41
0.4826
 42
0.2032
 43
1.0000
 50
90.0000
  0
INSERT
  8
32
  2
RECT
 10
31.2547
 20
8.8392
 30
0.0000
 41
0.4826
 42
0.2032
 43
1.0000
 50
90.0000
  0
INSERT
  8
32
  2
RECT
 10
30.7467
 20
8.8392
 30
0.0000
 41
0.4826
 42
0.2032
 43
1.0000
 50
90.0000
  0
INSERT
  8
32
  2
RECT
 10
32.7533
 20
5.1308
 30
0.0000
 41
0.4826
 42
0.2032
 43
1.0000
 50
90.0000
  0
INSERT
  8
32
  2
RECT
 10
32.2453
 20
5.1308
 30
0.0000
 41
0.4826
 42
0.2032
 43
1.0000
 50
90.0000
  0
INSERT
  8
32
  2
RECT
 10
31.7500
 20
5.1308
 30
0.0000
 41
0.4826
 42
0.2032
 43
1.0000
 50
90.0000
  0
INSERT
  8
32
  2
RECT
 10
31.2547
 20
5.1308
 30
0.0000
 41
0.4826
 42
0.2032
 43
1.0000
 50
90.0000
  0
INSERT
  8
32
  2
RECT
 10
30.7467
 20
5.1308
 30
0.0000
 41
0.4826
 42
0.2032
 43
1.0000
 50
90.0000
  0
INSERT
  8
32
  2
RECT
 10
23.9700
 20
22.7800
 30
0.0000
 41
1.5000
 42
3.0000
 43
1.0000
 50
270.0000
  0
INSERT
  8
32
  2
RECT
 10
23.9700
 20
20.7800
 30
0.0000
 41
1.5000
 42
3.0000
 43
1.0000
 50
270.0000
  0
INSERT
  8
32
  2
RECT
 10
23.9700
 20
10.7800
 30
0.0000
 41
1.5000
 42
3.0000
 43
1.0000
 50
270.0000
  0
INSERT
  8
32
  2
RECT
 10
7.9700
 20
10.7800
 30
0.0000
 41
1.5000
 42
3.0000
 43
1.0000
 50
270.0000
  0
INSERT
  8
32
  2
RECT
 10
7.9700
 20
12.7800
 30
0.0000
 41
1.5000
 42
3.0000
 43
1.0000
 50
270.0000
  0
INSERT
  8
32
  2
RECT
 10
7.9700
 20
14.7800
 30
0.0000
 41
1.5000
 42
3.0000
 43
1.0000
 50
270.0000
  0
INSERT
  8
32
  2
RECT
 10
7.9700
 20
18.7800
 30
0.0000
 41
1.5000
 42
3.0000
 43
1.0000
 50
270.0000
  0
INSERT
  8
32
  2
RECT
 10
7.9700
 20
20.7800
 30
0.0000
 41
1.5000
 42
3.0000
 43
1.0000
 50
270.0000
  0
INSERT
  8
32
  2
RECT
 10
7.9700
 20
22.7800
 30
0.0000
 41
1.5000
 42
3.0000
 43
1.0000
 50
270.0000
  0
INSERT
  8
32
  2
RECT
 10
41.9100
 20
13.3350
 30
0.0000
 41
1.5240
 42
3.3020
 43
1.0000
 50
270.0000
  0
INSERT
  8
32
  2
RECT
 10
41.9100
 20
15.8750
 30
0.0000
 41
1.5240
 42
3.3020
 43
1.0000
 50
270.0000
  0
INSERT
  8
32
  2
RECT
 10
41.9100
 20
18.4150
 30
0.0000
 41
1.5240
 42
3.3020
 43
1.0000
 50
270.0000
  0
ENDSEC
  0
EOF
