G75*
%MOIN*%
%OFA0B0*%
%FSLAX24Y24*%
%IPPOS*%
%LPD*%
%AMOC8*
5,1,8,0,0,1.08239X$1,22.5*
%
%ADD10C,0.0030*%
%ADD11C,0.0000*%
%ADD12C,0.0050*%
%ADD13C,0.0080*%
%ADD14C,0.0010*%
%ADD15C,0.0060*%
%ADD16C,0.0040*%
D10*
X000665Y004228D02*
X001035Y004475D01*
X001035Y004597D02*
X000788Y004597D01*
X000665Y004720D01*
X000788Y004844D01*
X001035Y004844D01*
X001035Y004965D02*
X000788Y004965D01*
X000788Y005027D01*
X000850Y005088D01*
X000788Y005150D01*
X000850Y005212D01*
X001035Y005212D01*
X001035Y005333D02*
X001035Y005519D01*
X000973Y005580D01*
X000850Y005580D01*
X000788Y005519D01*
X000788Y005333D01*
X000665Y005333D02*
X001035Y005333D01*
X001035Y005088D02*
X000850Y005088D01*
X000850Y004844D02*
X000850Y004597D01*
X000665Y004475D02*
X001035Y004228D01*
X002065Y004228D02*
X002435Y004475D01*
X002435Y004597D02*
X002435Y004782D01*
X002373Y004844D01*
X002250Y004844D01*
X002188Y004782D01*
X002188Y004597D01*
X002558Y004597D01*
X002435Y004228D02*
X002065Y004475D01*
X002188Y004965D02*
X002188Y005027D01*
X002435Y005027D01*
X002435Y005088D02*
X002435Y004965D01*
X002435Y005211D02*
X002188Y005457D01*
X002188Y005211D02*
X002435Y005457D01*
X002435Y005947D02*
X002065Y005947D01*
X002065Y006132D01*
X002126Y006194D01*
X002373Y006194D01*
X002435Y006132D01*
X002435Y005947D01*
X002373Y006316D02*
X002250Y006316D01*
X002188Y006377D01*
X002188Y006501D01*
X002250Y006562D01*
X002312Y006562D01*
X002312Y006316D01*
X002373Y006316D02*
X002435Y006377D01*
X002435Y006501D01*
X002435Y006807D02*
X002188Y006684D01*
X002188Y006931D02*
X002435Y006807D01*
X002373Y007052D02*
X002250Y007052D01*
X002188Y007114D01*
X002188Y007237D01*
X002250Y007299D01*
X002312Y007299D01*
X002312Y007052D01*
X002373Y007052D02*
X002435Y007114D01*
X002435Y007237D01*
X002435Y007420D02*
X002435Y007544D01*
X002435Y007482D02*
X002065Y007482D01*
X002065Y007420D01*
X002250Y007666D02*
X002373Y007666D01*
X002435Y007728D01*
X002435Y007851D01*
X002373Y007913D01*
X002250Y007913D01*
X002188Y007851D01*
X002188Y007728D01*
X002250Y007666D01*
X002188Y008034D02*
X002188Y008219D01*
X002250Y008281D01*
X002373Y008281D01*
X002435Y008219D01*
X002435Y008034D01*
X002558Y008034D02*
X002188Y008034D01*
X002188Y008403D02*
X002188Y008464D01*
X002250Y008526D01*
X002188Y008588D01*
X002250Y008650D01*
X002435Y008650D01*
X002435Y008526D02*
X002250Y008526D01*
X002188Y008403D02*
X002435Y008403D01*
X002373Y008771D02*
X002250Y008771D01*
X002188Y008833D01*
X002188Y008956D01*
X002250Y009018D01*
X002312Y009018D01*
X002312Y008771D01*
X002373Y008771D02*
X002435Y008833D01*
X002435Y008956D01*
X002435Y009139D02*
X002188Y009139D01*
X002188Y009324D01*
X002250Y009386D01*
X002435Y009386D01*
X002188Y009508D02*
X002188Y009631D01*
X002126Y009569D02*
X002373Y009569D01*
X002435Y009631D01*
X001035Y009692D02*
X000788Y009939D01*
X000726Y009939D01*
X000665Y009877D01*
X000665Y009753D01*
X000726Y009692D01*
X000665Y009570D02*
X001035Y009323D01*
X000973Y009202D02*
X000912Y009202D01*
X000850Y009140D01*
X000850Y008955D01*
X000973Y008955D01*
X001035Y009017D01*
X001035Y009140D01*
X000973Y009202D01*
X000726Y009079D02*
X000850Y008955D01*
X000973Y008834D02*
X000726Y008834D01*
X000973Y008587D01*
X001035Y008649D01*
X001035Y008772D01*
X000973Y008834D01*
X000726Y008834D02*
X000665Y008772D01*
X000665Y008649D01*
X000726Y008587D01*
X000973Y008587D01*
X001035Y008097D02*
X001035Y007850D01*
X000788Y008097D01*
X000726Y008097D01*
X000665Y008035D01*
X000665Y007912D01*
X000726Y007850D01*
X000973Y007728D02*
X001035Y007728D01*
X001035Y007666D01*
X000973Y007666D01*
X000973Y007728D01*
X000973Y007545D02*
X000726Y007545D01*
X000973Y007298D01*
X001035Y007359D01*
X001035Y007483D01*
X000973Y007545D01*
X000726Y007545D02*
X000665Y007483D01*
X000665Y007359D01*
X000726Y007298D01*
X000973Y007298D01*
X001035Y006808D02*
X000665Y006808D01*
X000788Y006808D02*
X000788Y006623D01*
X000850Y006561D01*
X000973Y006561D01*
X001035Y006623D01*
X001035Y006808D01*
X001035Y006439D02*
X001035Y006316D01*
X001035Y006377D02*
X000788Y006377D01*
X000788Y006316D01*
X000665Y006377D02*
X000603Y006377D01*
X000665Y006194D02*
X000912Y005947D01*
X000850Y006009D02*
X001035Y006194D01*
X001035Y005947D02*
X000665Y005947D01*
X000665Y005763D02*
X000603Y005763D01*
X000788Y005763D02*
X001035Y005763D01*
X001035Y005702D02*
X001035Y005825D01*
X000788Y005763D02*
X000788Y005702D01*
X002003Y005027D02*
X002065Y005027D01*
X007165Y001608D02*
X007262Y001705D01*
X007262Y001415D01*
X007358Y001415D02*
X007165Y001415D01*
X007460Y001463D02*
X007653Y001657D01*
X007653Y001463D01*
X007605Y001415D01*
X007508Y001415D01*
X007460Y001463D01*
X007460Y001657D01*
X007508Y001705D01*
X007605Y001705D01*
X007653Y001657D01*
X007754Y001657D02*
X007803Y001705D01*
X007899Y001705D01*
X007948Y001657D01*
X007754Y001463D01*
X007803Y001415D01*
X007899Y001415D01*
X007948Y001463D01*
X007948Y001657D01*
X008049Y001705D02*
X008049Y001415D01*
X008049Y001512D02*
X008194Y001608D01*
X008049Y001512D02*
X008194Y001415D01*
X007754Y001463D02*
X007754Y001657D01*
X007758Y002665D02*
X007710Y002713D01*
X007758Y002665D02*
X007855Y002665D01*
X007903Y002713D01*
X007903Y002762D01*
X007855Y002810D01*
X007806Y002810D01*
X007855Y002810D02*
X007903Y002858D01*
X007903Y002907D01*
X007855Y002955D01*
X007758Y002955D01*
X007710Y002907D01*
X007608Y002907D02*
X007608Y002810D01*
X007560Y002762D01*
X007415Y002762D01*
X007512Y002762D02*
X007608Y002665D01*
X007415Y002665D02*
X007415Y002955D01*
X007560Y002955D01*
X007608Y002907D01*
X010665Y001419D02*
X010955Y001419D01*
X010858Y001419D02*
X010762Y001565D01*
X010858Y001419D02*
X010955Y001565D01*
X010907Y001318D02*
X010713Y001318D01*
X010907Y001125D01*
X010955Y001173D01*
X010955Y001270D01*
X010907Y001318D01*
X010713Y001318D02*
X010665Y001270D01*
X010665Y001173D01*
X010713Y001125D01*
X010907Y001125D01*
X010907Y001024D02*
X010713Y001024D01*
X010907Y000830D01*
X010955Y000879D01*
X010955Y000975D01*
X010907Y001024D01*
X010907Y000830D02*
X010713Y000830D01*
X010665Y000879D01*
X010665Y000975D01*
X010713Y001024D01*
X010955Y000729D02*
X010955Y000536D01*
X010955Y000632D02*
X010665Y000632D01*
X010762Y000536D01*
X011915Y000826D02*
X011915Y000971D01*
X011963Y001019D01*
X012060Y001019D01*
X012108Y000971D01*
X012108Y000826D01*
X012108Y000922D02*
X012205Y001019D01*
X012060Y001120D02*
X012060Y001314D01*
X012205Y001265D02*
X011915Y001265D01*
X012060Y001120D01*
X012205Y000826D02*
X011915Y000826D01*
X014015Y000850D02*
X014015Y000727D01*
X014076Y000665D01*
X014323Y000665D01*
X014385Y000727D01*
X014385Y000850D01*
X014323Y000912D01*
X014200Y000912D01*
X014200Y000788D01*
X014076Y000912D02*
X014015Y000850D01*
X014015Y001033D02*
X014015Y001218D01*
X014076Y001280D01*
X014323Y001280D01*
X014385Y001218D01*
X014385Y001033D01*
X014015Y001033D01*
X014015Y001665D02*
X014015Y001850D01*
X014076Y001912D01*
X014200Y001912D01*
X014262Y001850D01*
X014262Y001665D01*
X014385Y001665D02*
X014015Y001665D01*
X014076Y002033D02*
X014015Y002095D01*
X014015Y002218D01*
X014076Y002280D01*
X014323Y002033D01*
X014385Y002095D01*
X014385Y002218D01*
X014323Y002280D01*
X014076Y002280D01*
X014076Y002033D02*
X014323Y002033D01*
X014262Y002665D02*
X014262Y002850D01*
X014200Y002912D01*
X014076Y002912D01*
X014015Y002850D01*
X014015Y002665D01*
X014385Y002665D01*
X014385Y003033D02*
X014138Y003280D01*
X014076Y003280D01*
X014015Y003218D01*
X014015Y003095D01*
X014076Y003033D01*
X014385Y003033D02*
X014385Y003280D01*
X014385Y003665D02*
X014015Y003665D01*
X014015Y003850D01*
X014076Y003912D01*
X014200Y003912D01*
X014262Y003850D01*
X014262Y003665D01*
X014323Y004033D02*
X014385Y004033D01*
X014323Y004033D02*
X014076Y004280D01*
X014015Y004280D01*
X014015Y004033D01*
X016765Y004095D02*
X016765Y004218D01*
X016826Y004280D01*
X016888Y004280D01*
X016950Y004218D01*
X017012Y004280D01*
X017073Y004280D01*
X017135Y004218D01*
X017135Y004095D01*
X017073Y004033D01*
X016950Y003912D02*
X016826Y003912D01*
X016765Y003850D01*
X016765Y003665D01*
X017135Y003665D01*
X017012Y003665D02*
X017012Y003850D01*
X016950Y003912D01*
X016826Y004033D02*
X016765Y004095D01*
X016950Y004157D02*
X016950Y004218D01*
X017135Y003280D02*
X017135Y003033D01*
X017135Y003157D02*
X016765Y003157D01*
X016888Y003033D01*
X016826Y002912D02*
X016950Y002912D01*
X017012Y002850D01*
X017012Y002665D01*
X017135Y002665D02*
X016765Y002665D01*
X016765Y002850D01*
X016826Y002912D01*
X016765Y002280D02*
X017135Y002280D01*
X017012Y002157D01*
X017135Y002033D01*
X016765Y002033D01*
X016826Y001912D02*
X016950Y001912D01*
X017012Y001850D01*
X017012Y001665D01*
X017135Y001665D02*
X016765Y001665D01*
X016765Y001850D01*
X016826Y001912D01*
X016765Y001280D02*
X017012Y001280D01*
X017135Y001157D01*
X017012Y001033D01*
X016765Y001033D01*
X016826Y000912D02*
X016888Y000912D01*
X016950Y000850D01*
X017012Y000912D01*
X017073Y000912D01*
X017135Y000850D01*
X017135Y000727D01*
X017073Y000665D01*
X016950Y000788D02*
X016950Y000850D01*
X016826Y000912D02*
X016765Y000850D01*
X016765Y000727D01*
X016826Y000665D01*
X016501Y008219D02*
X016308Y008219D01*
X016259Y008268D01*
X016259Y008365D01*
X016308Y008413D01*
X016308Y008514D02*
X016259Y008562D01*
X016259Y008659D01*
X016308Y008708D01*
X016356Y008708D01*
X016404Y008659D01*
X016453Y008708D01*
X016501Y008708D01*
X016549Y008659D01*
X016549Y008562D01*
X016501Y008514D01*
X016501Y008413D02*
X016549Y008365D01*
X016549Y008268D01*
X016501Y008219D01*
X016404Y008611D02*
X016404Y008659D01*
X016014Y009093D02*
X016014Y009383D01*
X016208Y009383D01*
X016111Y009238D02*
X016014Y009238D01*
X015913Y009238D02*
X015913Y009093D01*
X015913Y009238D02*
X015865Y009287D01*
X015719Y009287D01*
X015719Y009093D01*
X015618Y009141D02*
X015570Y009093D01*
X015473Y009093D01*
X015425Y009141D01*
X015618Y009335D01*
X015618Y009141D01*
X015425Y009141D02*
X015425Y009335D01*
X015473Y009383D01*
X015570Y009383D01*
X015618Y009335D01*
X015324Y009335D02*
X015130Y009141D01*
X015178Y009093D01*
X015275Y009093D01*
X015324Y009141D01*
X015324Y009335D01*
X015275Y009383D01*
X015178Y009383D01*
X015130Y009335D01*
X015130Y009141D01*
X015029Y009093D02*
X014835Y009093D01*
X014932Y009093D02*
X014932Y009383D01*
X014835Y009287D01*
X014490Y009415D02*
X014490Y009608D01*
X014587Y009710D02*
X014587Y009758D01*
X014635Y009758D01*
X014635Y009710D01*
X014587Y009710D01*
X014587Y009857D02*
X014635Y009857D01*
X014587Y009857D02*
X014393Y010050D01*
X014345Y010050D01*
X014345Y009857D01*
X014345Y009560D02*
X014490Y009415D01*
X014635Y009560D02*
X014345Y009560D01*
X014490Y010200D02*
X014587Y010200D01*
X014683Y010200D01*
X014732Y010152D01*
X014635Y010248D02*
X014635Y010297D01*
X014587Y010345D01*
X014490Y010345D01*
X014490Y010446D02*
X014490Y010543D01*
X014635Y010446D02*
X014345Y010446D01*
X014345Y010640D01*
X014635Y010248D02*
X014587Y010200D01*
X001035Y010245D02*
X001035Y010122D01*
X000973Y010060D01*
X000726Y010307D01*
X000973Y010307D01*
X001035Y010245D01*
X000973Y010060D02*
X000726Y010060D01*
X000665Y010122D01*
X000665Y010245D01*
X000726Y010307D01*
X000788Y010428D02*
X000665Y010552D01*
X001035Y010552D01*
X001035Y010675D02*
X001035Y010428D01*
X000850Y010797D02*
X000850Y011044D01*
X001035Y010982D02*
X000665Y010982D01*
X000850Y010797D01*
X001035Y009939D02*
X001035Y009692D01*
X000665Y009202D02*
X000726Y009079D01*
D11*
X001900Y002150D02*
X001954Y002148D01*
X002007Y002142D01*
X002059Y002133D01*
X002111Y002120D01*
X002162Y002103D01*
X002212Y002082D01*
X002259Y002058D01*
X002305Y002031D01*
X002349Y002000D01*
X002391Y001967D01*
X002430Y001930D01*
X002467Y001891D01*
X002500Y001849D01*
X002531Y001805D01*
X002558Y001759D01*
X002582Y001712D01*
X002603Y001662D01*
X002620Y001611D01*
X002633Y001559D01*
X002642Y001507D01*
X002648Y001454D01*
X002650Y001400D01*
X002650Y000400D01*
X002652Y000370D01*
X002657Y000340D01*
X002666Y000311D01*
X002679Y000284D01*
X002694Y000258D01*
X002713Y000234D01*
X002734Y000213D01*
X002758Y000194D01*
X002784Y000179D01*
X002811Y000166D01*
X002840Y000157D01*
X002870Y000152D01*
X002900Y000150D01*
X017150Y000150D01*
X017006Y000150D02*
X017045Y000152D01*
X017083Y000158D01*
X017120Y000167D01*
X017157Y000180D01*
X017192Y000197D01*
X017225Y000216D01*
X017256Y000239D01*
X017285Y000265D01*
X017311Y000294D01*
X017334Y000325D01*
X017353Y000358D01*
X017370Y000393D01*
X017383Y000430D01*
X017392Y000467D01*
X017398Y000505D01*
X017400Y000544D01*
X017400Y009650D01*
X015650Y009650D01*
X015596Y009652D01*
X015543Y009658D01*
X015491Y009667D01*
X015439Y009680D01*
X015388Y009697D01*
X015338Y009718D01*
X015291Y009742D01*
X015245Y009769D01*
X015201Y009800D01*
X015159Y009833D01*
X015120Y009870D01*
X015083Y009909D01*
X015050Y009951D01*
X015019Y009995D01*
X014992Y010041D01*
X014968Y010088D01*
X014947Y010138D01*
X014930Y010189D01*
X014917Y010241D01*
X014908Y010293D01*
X014902Y010346D01*
X014900Y010400D01*
X014900Y011400D01*
X014898Y011430D01*
X014893Y011460D01*
X014884Y011489D01*
X014871Y011516D01*
X014856Y011542D01*
X014837Y011566D01*
X014816Y011587D01*
X014792Y011606D01*
X014766Y011621D01*
X014739Y011634D01*
X014710Y011643D01*
X014680Y011648D01*
X014650Y011650D01*
X000650Y011650D01*
X000150Y011256D02*
X000150Y002150D01*
X001900Y002150D01*
X001158Y007650D02*
X001160Y007694D01*
X001166Y007738D01*
X001176Y007781D01*
X001189Y007823D01*
X001207Y007863D01*
X001228Y007902D01*
X001252Y007939D01*
X001279Y007974D01*
X001310Y008006D01*
X001343Y008035D01*
X001379Y008061D01*
X001417Y008083D01*
X001457Y008102D01*
X001498Y008118D01*
X001541Y008130D01*
X001584Y008138D01*
X001628Y008142D01*
X001672Y008142D01*
X001716Y008138D01*
X001759Y008130D01*
X001802Y008118D01*
X001843Y008102D01*
X001883Y008083D01*
X001921Y008061D01*
X001957Y008035D01*
X001990Y008006D01*
X002021Y007974D01*
X002048Y007939D01*
X002072Y007902D01*
X002093Y007863D01*
X002111Y007823D01*
X002124Y007781D01*
X002134Y007738D01*
X002140Y007694D01*
X002142Y007650D01*
X002140Y007606D01*
X002134Y007562D01*
X002124Y007519D01*
X002111Y007477D01*
X002093Y007437D01*
X002072Y007398D01*
X002048Y007361D01*
X002021Y007326D01*
X001990Y007294D01*
X001957Y007265D01*
X001921Y007239D01*
X001883Y007217D01*
X001843Y007198D01*
X001802Y007182D01*
X001759Y007170D01*
X001716Y007162D01*
X001672Y007158D01*
X001628Y007158D01*
X001584Y007162D01*
X001541Y007170D01*
X001498Y007182D01*
X001457Y007198D01*
X001417Y007217D01*
X001379Y007239D01*
X001343Y007265D01*
X001310Y007294D01*
X001279Y007326D01*
X001252Y007361D01*
X001228Y007398D01*
X001207Y007437D01*
X001189Y007477D01*
X001176Y007519D01*
X001166Y007562D01*
X001160Y007606D01*
X001158Y007650D01*
X004382Y010485D02*
X004384Y010529D01*
X004390Y010573D01*
X004400Y010616D01*
X004413Y010658D01*
X004431Y010698D01*
X004452Y010737D01*
X004476Y010774D01*
X004503Y010809D01*
X004534Y010841D01*
X004567Y010870D01*
X004603Y010896D01*
X004641Y010918D01*
X004681Y010937D01*
X004722Y010953D01*
X004765Y010965D01*
X004808Y010973D01*
X004852Y010977D01*
X004896Y010977D01*
X004940Y010973D01*
X004983Y010965D01*
X005026Y010953D01*
X005067Y010937D01*
X005107Y010918D01*
X005145Y010896D01*
X005181Y010870D01*
X005214Y010841D01*
X005245Y010809D01*
X005272Y010774D01*
X005296Y010737D01*
X005317Y010698D01*
X005335Y010658D01*
X005348Y010616D01*
X005358Y010573D01*
X005364Y010529D01*
X005366Y010485D01*
X005364Y010441D01*
X005358Y010397D01*
X005348Y010354D01*
X005335Y010312D01*
X005317Y010272D01*
X005296Y010233D01*
X005272Y010196D01*
X005245Y010161D01*
X005214Y010129D01*
X005181Y010100D01*
X005145Y010074D01*
X005107Y010052D01*
X005067Y010033D01*
X005026Y010017D01*
X004983Y010005D01*
X004940Y009997D01*
X004896Y009993D01*
X004852Y009993D01*
X004808Y009997D01*
X004765Y010005D01*
X004722Y010017D01*
X004681Y010033D01*
X004641Y010052D01*
X004603Y010074D01*
X004567Y010100D01*
X004534Y010129D01*
X004503Y010161D01*
X004476Y010196D01*
X004452Y010233D01*
X004431Y010272D01*
X004413Y010312D01*
X004400Y010354D01*
X004390Y010397D01*
X004384Y010441D01*
X004382Y010485D01*
X000650Y011650D02*
X000606Y011648D01*
X000563Y011642D01*
X000521Y011633D01*
X000479Y011620D01*
X000439Y011603D01*
X000400Y011583D01*
X000363Y011560D01*
X000329Y011533D01*
X000296Y011504D01*
X000267Y011471D01*
X000240Y011437D01*
X000217Y011400D01*
X000197Y011361D01*
X000180Y011321D01*
X000167Y011279D01*
X000158Y011237D01*
X000152Y011194D01*
X000150Y011150D01*
X012256Y001233D02*
X012258Y001277D01*
X012264Y001321D01*
X012274Y001364D01*
X012287Y001406D01*
X012305Y001446D01*
X012326Y001485D01*
X012350Y001522D01*
X012377Y001557D01*
X012408Y001589D01*
X012441Y001618D01*
X012477Y001644D01*
X012515Y001666D01*
X012555Y001685D01*
X012596Y001701D01*
X012639Y001713D01*
X012682Y001721D01*
X012726Y001725D01*
X012770Y001725D01*
X012814Y001721D01*
X012857Y001713D01*
X012900Y001701D01*
X012941Y001685D01*
X012981Y001666D01*
X013019Y001644D01*
X013055Y001618D01*
X013088Y001589D01*
X013119Y001557D01*
X013146Y001522D01*
X013170Y001485D01*
X013191Y001446D01*
X013209Y001406D01*
X013222Y001364D01*
X013232Y001321D01*
X013238Y001277D01*
X013240Y001233D01*
X013238Y001189D01*
X013232Y001145D01*
X013222Y001102D01*
X013209Y001060D01*
X013191Y001020D01*
X013170Y000981D01*
X013146Y000944D01*
X013119Y000909D01*
X013088Y000877D01*
X013055Y000848D01*
X013019Y000822D01*
X012981Y000800D01*
X012941Y000781D01*
X012900Y000765D01*
X012857Y000753D01*
X012814Y000745D01*
X012770Y000741D01*
X012726Y000741D01*
X012682Y000745D01*
X012639Y000753D01*
X012596Y000765D01*
X012555Y000781D01*
X012515Y000800D01*
X012477Y000822D01*
X012441Y000848D01*
X012408Y000877D01*
X012377Y000909D01*
X012350Y000944D01*
X012326Y000981D01*
X012305Y001020D01*
X012287Y001060D01*
X012274Y001102D01*
X012264Y001145D01*
X012258Y001189D01*
X012256Y001233D01*
D12*
X011400Y003650D02*
X013400Y005750D01*
X013400Y006650D01*
X013800Y006650D01*
X013800Y008650D01*
X013400Y008650D01*
X013400Y011450D01*
X011700Y011450D01*
X010700Y010750D01*
X008200Y010750D01*
X007300Y011450D01*
X005400Y011450D01*
X005400Y008650D01*
X005000Y008650D01*
X005000Y006650D01*
X005400Y006650D01*
X005400Y005850D01*
X007500Y003650D01*
X011400Y003650D01*
X014145Y004970D02*
X014220Y004895D01*
X014295Y004895D01*
X014370Y004970D01*
X014370Y005345D01*
X014295Y005345D02*
X014445Y005345D01*
X014605Y005345D02*
X014831Y005345D01*
X014906Y005270D01*
X014906Y005120D01*
X014831Y005045D01*
X014605Y005045D01*
X014605Y004895D02*
X014605Y005345D01*
X015066Y005195D02*
X015216Y005345D01*
X015216Y004895D01*
X015066Y004895D02*
X015366Y004895D01*
X015950Y005000D02*
X015950Y007800D01*
X011794Y008679D02*
X011794Y009086D01*
X011387Y009086D02*
X011387Y008679D01*
X011590Y008475D01*
X011794Y008679D01*
X011186Y008679D02*
X011186Y008577D01*
X011084Y008475D01*
X010881Y008475D01*
X010779Y008577D01*
X010578Y008373D02*
X010171Y008373D01*
X009971Y008475D02*
X009564Y008475D01*
X009971Y008882D01*
X009971Y008984D01*
X009869Y009086D01*
X009665Y009086D01*
X009564Y008984D01*
X009363Y008984D02*
X009363Y008882D01*
X009261Y008780D01*
X009363Y008679D01*
X009363Y008577D01*
X009261Y008475D01*
X009058Y008475D01*
X008956Y008577D01*
X008755Y008577D02*
X008653Y008475D01*
X008450Y008475D01*
X008348Y008577D01*
X008755Y008984D01*
X008755Y008577D01*
X009159Y008780D02*
X009261Y008780D01*
X009363Y008984D02*
X009261Y009086D01*
X009058Y009086D01*
X008956Y008984D01*
X008755Y008984D02*
X008653Y009086D01*
X008450Y009086D01*
X008348Y008984D01*
X008348Y008577D01*
X008147Y008475D02*
X007740Y008475D01*
X008147Y008882D01*
X008147Y008984D01*
X008046Y009086D01*
X007842Y009086D01*
X007740Y008984D01*
X007540Y008984D02*
X007540Y008780D01*
X007438Y008679D01*
X007133Y008679D01*
X007336Y008679D02*
X007540Y008475D01*
X007133Y008475D02*
X007133Y009086D01*
X007438Y009086D01*
X007540Y008984D01*
X006932Y008984D02*
X006830Y009086D01*
X006627Y009086D01*
X006525Y008984D01*
X006525Y008577D01*
X006627Y008475D01*
X006830Y008475D01*
X006932Y008577D01*
X010779Y008984D02*
X010881Y009086D01*
X011084Y009086D01*
X011186Y008984D01*
X011186Y008882D01*
X011084Y008780D01*
X011186Y008679D01*
X011084Y008780D02*
X010983Y008780D01*
D13*
X005689Y002201D02*
X005374Y002201D01*
X005374Y001965D01*
X005374Y001335D02*
X005374Y001099D01*
X005689Y001099D01*
D14*
X005720Y001255D02*
X005570Y001255D01*
X005570Y001355D01*
X005570Y001402D02*
X005720Y001402D01*
X005720Y001502D01*
X005645Y001452D02*
X005645Y001402D01*
X005570Y001402D02*
X005570Y001502D01*
X005570Y001550D02*
X005570Y001650D01*
X005570Y001600D02*
X005720Y001600D01*
X005645Y001697D02*
X005645Y001797D01*
X005670Y001844D02*
X005670Y001919D01*
X005645Y001944D01*
X005595Y001944D01*
X005570Y001919D01*
X005570Y001844D01*
X005720Y001844D01*
X005645Y001305D02*
X005645Y001255D01*
X004945Y001330D02*
X004945Y001405D01*
X004920Y001430D01*
X004895Y001430D01*
X004870Y001405D01*
X004870Y001330D01*
X004945Y001330D02*
X004795Y001330D01*
X004795Y001405D01*
X004820Y001430D01*
X004845Y001430D01*
X004870Y001405D01*
X004845Y001477D02*
X004870Y001502D01*
X004870Y001552D01*
X004895Y001577D01*
X004920Y001577D01*
X004945Y001552D01*
X004945Y001502D01*
X004920Y001477D01*
X004845Y001477D02*
X004820Y001477D01*
X004795Y001502D01*
X004795Y001552D01*
X004820Y001577D01*
X004820Y001625D02*
X004845Y001625D01*
X004870Y001650D01*
X004870Y001700D01*
X004895Y001725D01*
X004920Y001725D01*
X004945Y001700D01*
X004945Y001650D01*
X004920Y001625D01*
X004820Y001625D02*
X004795Y001650D01*
X004795Y001700D01*
X004820Y001725D01*
X004820Y001772D02*
X004795Y001797D01*
X004795Y001847D01*
X004820Y001872D01*
X004845Y001872D01*
X004870Y001847D01*
X004870Y001797D01*
X004845Y001772D01*
X004820Y001772D01*
X004870Y001797D02*
X004895Y001772D01*
X004920Y001772D01*
X004945Y001797D01*
X004945Y001847D01*
X004920Y001872D01*
X004895Y001872D01*
X004870Y001847D01*
X004870Y001919D02*
X004795Y001994D01*
X004945Y001994D01*
X004870Y002019D02*
X004870Y001919D01*
D15*
X014650Y001900D02*
X014650Y002400D01*
X014900Y002650D01*
X016400Y002650D01*
X016650Y002400D01*
X016650Y001900D01*
X016400Y001650D01*
X016650Y001400D01*
X016650Y000900D01*
X016400Y000650D01*
X014900Y000650D01*
X014650Y000900D01*
X014650Y001400D01*
X014900Y001650D01*
X016400Y001650D01*
X016400Y002650D02*
X016650Y002900D01*
X016650Y003400D01*
X016400Y003650D01*
X014900Y003650D01*
X014650Y003400D01*
X014650Y002900D01*
X014900Y002650D01*
X014650Y001900D02*
X014900Y001650D01*
X014900Y003650D02*
X014650Y003900D01*
X014650Y004400D01*
X014900Y004650D01*
X016400Y004650D01*
X016650Y004400D01*
X016650Y003900D01*
X016400Y003650D01*
D16*
X014017Y007920D02*
X013710Y007920D01*
X013863Y007920D02*
X013863Y008380D01*
X013710Y008227D01*
X013556Y008304D02*
X013479Y008380D01*
X013326Y008380D01*
X013249Y008304D01*
X013249Y007997D01*
X013326Y007920D01*
X013479Y007920D01*
X013556Y007997D01*
M02*
