%
M48
M72
T01C0.0120
T02C0.0157
T03C0.0197
T04C0.0400
T05C0.0520
T06C0.0984
%
T01
X11210Y5270
X13260Y5497
X11350Y2330
X10790Y1770
X12658Y5573
X7220Y8910
X14990Y6040
X11840Y6530
X8690Y10030
X10370Y8000
X11490Y6670
X15970Y6040
X14990Y6530
X13310Y9750
X13170Y8700
X12540Y8420
X16670Y5060
X14010Y4430
X13450Y4990
X10563Y7130
X14710Y4570
X15410Y5480
T02
X12650Y2613
T03
X8150Y2800
X12150Y10300
X14900Y9050
X14150Y7050
X10650Y6050
T04
X15150Y4300
X16150Y4300
X15150Y3300
X16150Y3300
X15150Y2300
X16150Y2300
X15150Y1300
X16150Y1300
X1150Y10800
X1150Y9800
T05
X1150Y6050
T06
X12748Y1383
X4874Y10635
M30
