G75*
%MOIN*%
%OFA0B0*%
%FSLAX24Y24*%
%IPPOS*%
%LPD*%
%AMOC8*
5,1,8,0,0,1.08239X$1,22.5*
%
%ADD10C,0.0000*%
%ADD11C,0.0030*%
%ADD12C,0.0050*%
%ADD13C,0.0040*%
%ADD14C,0.0060*%
%ADD15C,0.0080*%
%ADD16C,0.0010*%
%ADD17C,0.0020*%
D10*
X002650Y000550D02*
X002650Y001550D01*
X002663Y001611D01*
X002673Y001672D01*
X002679Y001734D01*
X002681Y001797D01*
X002679Y001859D01*
X002674Y001921D01*
X002665Y001982D01*
X002652Y002043D01*
X002635Y002103D01*
X002615Y002162D01*
X002592Y002220D01*
X002564Y002276D01*
X002534Y002330D01*
X002500Y002383D01*
X002464Y002433D01*
X002424Y002481D01*
X002381Y002527D01*
X002336Y002569D01*
X002289Y002609D01*
X002238Y002647D01*
X002186Y002681D01*
X002132Y002711D01*
X002076Y002739D01*
X002019Y002763D01*
X001960Y002783D01*
X001900Y002800D01*
X000150Y002800D01*
X000150Y011406D01*
X000150Y011300D02*
X000152Y011344D01*
X000158Y011387D01*
X000167Y011429D01*
X000180Y011471D01*
X000197Y011511D01*
X000217Y011550D01*
X000240Y011587D01*
X000267Y011621D01*
X000296Y011654D01*
X000329Y011683D01*
X000363Y011710D01*
X000400Y011733D01*
X000439Y011753D01*
X000479Y011770D01*
X000521Y011783D01*
X000563Y011792D01*
X000606Y011798D01*
X000650Y011800D01*
X014650Y011800D01*
X014680Y011798D01*
X014710Y011793D01*
X014739Y011784D01*
X014766Y011771D01*
X014792Y011756D01*
X014816Y011737D01*
X014837Y011716D01*
X014856Y011692D01*
X014871Y011666D01*
X014884Y011639D01*
X014893Y011610D01*
X014898Y011580D01*
X014900Y011550D01*
X014900Y010550D01*
X014902Y010482D01*
X014907Y010415D01*
X014916Y010348D01*
X014929Y010281D01*
X014946Y010216D01*
X014965Y010151D01*
X014989Y010087D01*
X015016Y010025D01*
X015046Y009964D01*
X015079Y009906D01*
X015115Y009849D01*
X015155Y009794D01*
X015197Y009741D01*
X015243Y009690D01*
X015290Y009643D01*
X015341Y009597D01*
X015394Y009555D01*
X015449Y009515D01*
X015506Y009479D01*
X015564Y009446D01*
X015625Y009416D01*
X015687Y009389D01*
X015751Y009365D01*
X015816Y009346D01*
X015881Y009329D01*
X015948Y009316D01*
X016015Y009307D01*
X016082Y009302D01*
X016150Y009300D01*
X017400Y009300D01*
X017400Y000694D01*
X017398Y000655D01*
X017392Y000617D01*
X017383Y000580D01*
X017370Y000543D01*
X017353Y000508D01*
X017334Y000475D01*
X017311Y000444D01*
X017285Y000415D01*
X017256Y000389D01*
X017225Y000366D01*
X017192Y000347D01*
X017157Y000330D01*
X017120Y000317D01*
X017083Y000308D01*
X017045Y000302D01*
X017006Y000300D01*
X017150Y000300D02*
X002900Y000300D01*
X002870Y000302D01*
X002840Y000307D01*
X002811Y000316D01*
X002784Y000329D01*
X002758Y000344D01*
X002734Y000363D01*
X002713Y000384D01*
X002694Y000408D01*
X002679Y000434D01*
X002666Y000461D01*
X002657Y000490D01*
X002652Y000520D01*
X002650Y000550D01*
X012256Y001383D02*
X012258Y001427D01*
X012264Y001471D01*
X012274Y001514D01*
X012287Y001556D01*
X012305Y001596D01*
X012326Y001635D01*
X012350Y001672D01*
X012377Y001707D01*
X012408Y001739D01*
X012441Y001768D01*
X012477Y001794D01*
X012515Y001816D01*
X012555Y001835D01*
X012596Y001851D01*
X012639Y001863D01*
X012682Y001871D01*
X012726Y001875D01*
X012770Y001875D01*
X012814Y001871D01*
X012857Y001863D01*
X012900Y001851D01*
X012941Y001835D01*
X012981Y001816D01*
X013019Y001794D01*
X013055Y001768D01*
X013088Y001739D01*
X013119Y001707D01*
X013146Y001672D01*
X013170Y001635D01*
X013191Y001596D01*
X013209Y001556D01*
X013222Y001514D01*
X013232Y001471D01*
X013238Y001427D01*
X013240Y001383D01*
X013238Y001339D01*
X013232Y001295D01*
X013222Y001252D01*
X013209Y001210D01*
X013191Y001170D01*
X013170Y001131D01*
X013146Y001094D01*
X013119Y001059D01*
X013088Y001027D01*
X013055Y000998D01*
X013019Y000972D01*
X012981Y000950D01*
X012941Y000931D01*
X012900Y000915D01*
X012857Y000903D01*
X012814Y000895D01*
X012770Y000891D01*
X012726Y000891D01*
X012682Y000895D01*
X012639Y000903D01*
X012596Y000915D01*
X012555Y000931D01*
X012515Y000950D01*
X012477Y000972D01*
X012441Y000998D01*
X012408Y001027D01*
X012377Y001059D01*
X012350Y001094D01*
X012326Y001131D01*
X012305Y001170D01*
X012287Y001210D01*
X012274Y001252D01*
X012264Y001295D01*
X012258Y001339D01*
X012256Y001383D01*
X004382Y010635D02*
X004384Y010679D01*
X004390Y010723D01*
X004400Y010766D01*
X004413Y010808D01*
X004431Y010848D01*
X004452Y010887D01*
X004476Y010924D01*
X004503Y010959D01*
X004534Y010991D01*
X004567Y011020D01*
X004603Y011046D01*
X004641Y011068D01*
X004681Y011087D01*
X004722Y011103D01*
X004765Y011115D01*
X004808Y011123D01*
X004852Y011127D01*
X004896Y011127D01*
X004940Y011123D01*
X004983Y011115D01*
X005026Y011103D01*
X005067Y011087D01*
X005107Y011068D01*
X005145Y011046D01*
X005181Y011020D01*
X005214Y010991D01*
X005245Y010959D01*
X005272Y010924D01*
X005296Y010887D01*
X005317Y010848D01*
X005335Y010808D01*
X005348Y010766D01*
X005358Y010723D01*
X005364Y010679D01*
X005366Y010635D01*
X005364Y010591D01*
X005358Y010547D01*
X005348Y010504D01*
X005335Y010462D01*
X005317Y010422D01*
X005296Y010383D01*
X005272Y010346D01*
X005245Y010311D01*
X005214Y010279D01*
X005181Y010250D01*
X005145Y010224D01*
X005107Y010202D01*
X005067Y010183D01*
X005026Y010167D01*
X004983Y010155D01*
X004940Y010147D01*
X004896Y010143D01*
X004852Y010143D01*
X004808Y010147D01*
X004765Y010155D01*
X004722Y010167D01*
X004681Y010183D01*
X004641Y010202D01*
X004603Y010224D01*
X004567Y010250D01*
X004534Y010279D01*
X004503Y010311D01*
X004476Y010346D01*
X004452Y010383D01*
X004431Y010422D01*
X004413Y010462D01*
X004400Y010504D01*
X004390Y010547D01*
X004384Y010591D01*
X004382Y010635D01*
D11*
X013701Y008227D02*
X014015Y007913D01*
X013858Y007913D02*
X013858Y008227D01*
X014015Y008227D02*
X013701Y007913D01*
X013701Y008070D02*
X014015Y008070D01*
X015001Y008168D02*
X015049Y008119D01*
X015242Y008119D01*
X015291Y008168D01*
X015291Y008265D01*
X015242Y008313D01*
X015242Y008414D02*
X015291Y008462D01*
X015291Y008559D01*
X015242Y008608D01*
X015194Y008608D01*
X015146Y008559D01*
X015097Y008608D01*
X015049Y008608D01*
X015001Y008559D01*
X015001Y008462D01*
X015049Y008414D01*
X015049Y008313D02*
X015001Y008265D01*
X015001Y008168D01*
X015146Y008511D02*
X015146Y008559D01*
X009885Y001855D02*
X009740Y001855D01*
X009692Y001807D01*
X009692Y001710D01*
X009740Y001662D01*
X009885Y001662D01*
X009788Y001662D02*
X009692Y001565D01*
X009590Y001710D02*
X009397Y001710D01*
X009445Y001565D02*
X009445Y001855D01*
X009590Y001710D01*
X009885Y001565D02*
X009885Y001855D01*
X008135Y001855D02*
X008135Y001565D01*
X008135Y001662D02*
X007990Y001662D01*
X007942Y001710D01*
X007942Y001807D01*
X007990Y001855D01*
X008135Y001855D01*
X007840Y001807D02*
X007792Y001855D01*
X007695Y001855D01*
X007647Y001807D01*
X007647Y001758D01*
X007695Y001710D01*
X007647Y001662D01*
X007647Y001613D01*
X007695Y001565D01*
X007792Y001565D01*
X007840Y001613D01*
X007942Y001565D02*
X008038Y001662D01*
X007744Y001710D02*
X007695Y001710D01*
D12*
X009587Y003757D02*
X003288Y003757D01*
X004863Y004741D02*
X005453Y004741D01*
X005453Y005135D01*
X004863Y005135D01*
X004863Y004741D01*
X005847Y004347D02*
X005847Y005135D01*
X006241Y005135D01*
X006241Y004347D01*
X005847Y004347D01*
X007028Y004787D02*
X007028Y009025D01*
X007030Y009066D01*
X007035Y009106D01*
X007045Y009145D01*
X007058Y009184D01*
X007074Y009221D01*
X007094Y009257D01*
X007117Y009290D01*
X007143Y009321D01*
X007172Y009350D01*
X007203Y009376D01*
X007236Y009399D01*
X007272Y009419D01*
X007309Y009435D01*
X007348Y009448D01*
X007387Y009458D01*
X007427Y009463D01*
X007468Y009465D01*
X007572Y009465D01*
X007613Y009463D01*
X007653Y009458D01*
X007692Y009448D01*
X007731Y009435D01*
X007768Y009419D01*
X007804Y009399D01*
X007837Y009376D01*
X007868Y009350D01*
X007897Y009321D01*
X007923Y009290D01*
X007946Y009257D01*
X007966Y009221D01*
X007982Y009184D01*
X007995Y009145D01*
X008005Y009106D01*
X008010Y009066D01*
X008012Y009025D01*
X008012Y004891D01*
X008010Y004846D01*
X008005Y004801D01*
X007995Y004757D01*
X007983Y004714D01*
X007966Y004672D01*
X007946Y004632D01*
X007923Y004593D01*
X007897Y004557D01*
X007868Y004523D01*
X007836Y004491D01*
X007802Y004462D01*
X007766Y004436D01*
X007727Y004413D01*
X007687Y004393D01*
X007645Y004376D01*
X007602Y004364D01*
X007558Y004354D01*
X007513Y004349D01*
X007468Y004347D01*
X007427Y004349D01*
X007387Y004354D01*
X007348Y004364D01*
X007309Y004377D01*
X007272Y004393D01*
X007236Y004413D01*
X007203Y004436D01*
X007172Y004462D01*
X007143Y004491D01*
X007117Y004522D01*
X007094Y004555D01*
X007074Y004591D01*
X007058Y004628D01*
X007045Y004667D01*
X007035Y004706D01*
X007030Y004746D01*
X007028Y004787D01*
X005650Y005528D02*
X005059Y005528D01*
X005059Y005922D01*
X005650Y005922D01*
X005650Y005528D01*
X004916Y007497D02*
X004918Y007559D01*
X004924Y007622D01*
X004934Y007683D01*
X004948Y007744D01*
X004965Y007804D01*
X004986Y007863D01*
X005012Y007920D01*
X005040Y007975D01*
X005072Y008029D01*
X005108Y008080D01*
X005146Y008130D01*
X005188Y008176D01*
X005232Y008220D01*
X005280Y008261D01*
X005329Y008299D01*
X005381Y008333D01*
X005435Y008364D01*
X005491Y008392D01*
X005549Y008416D01*
X005608Y008437D01*
X005668Y008453D01*
X005729Y008466D01*
X005791Y008475D01*
X005853Y008480D01*
X005916Y008481D01*
X005978Y008478D01*
X006040Y008471D01*
X006102Y008460D01*
X006162Y008445D01*
X006222Y008427D01*
X006280Y008405D01*
X006337Y008379D01*
X006392Y008349D01*
X006445Y008316D01*
X006496Y008280D01*
X006544Y008241D01*
X006590Y008198D01*
X006633Y008153D01*
X006673Y008105D01*
X006710Y008055D01*
X006744Y008002D01*
X006775Y007948D01*
X006801Y007892D01*
X006825Y007834D01*
X006844Y007774D01*
X006860Y007714D01*
X006872Y007652D01*
X006880Y007591D01*
X006884Y007528D01*
X006884Y007466D01*
X006880Y007403D01*
X006872Y007342D01*
X006860Y007280D01*
X006844Y007220D01*
X006825Y007160D01*
X006801Y007102D01*
X006775Y007046D01*
X006744Y006992D01*
X006710Y006939D01*
X006673Y006889D01*
X006633Y006841D01*
X006590Y006796D01*
X006544Y006753D01*
X006496Y006714D01*
X006445Y006678D01*
X006392Y006645D01*
X006337Y006615D01*
X006280Y006589D01*
X006222Y006567D01*
X006162Y006549D01*
X006102Y006534D01*
X006040Y006523D01*
X005978Y006516D01*
X005916Y006513D01*
X005853Y006514D01*
X005791Y006519D01*
X005729Y006528D01*
X005668Y006541D01*
X005608Y006557D01*
X005549Y006578D01*
X005491Y006602D01*
X005435Y006630D01*
X005381Y006661D01*
X005329Y006695D01*
X005280Y006733D01*
X005232Y006774D01*
X005188Y006818D01*
X005146Y006864D01*
X005108Y006914D01*
X005072Y006965D01*
X005040Y007019D01*
X005012Y007074D01*
X004986Y007131D01*
X004965Y007190D01*
X004948Y007250D01*
X004934Y007311D01*
X004924Y007372D01*
X004918Y007435D01*
X004916Y007497D01*
X001325Y007496D02*
X001325Y007796D01*
X001175Y007956D02*
X001325Y008106D01*
X000875Y008106D01*
X000875Y007956D02*
X000875Y008256D01*
X000875Y007646D02*
X001325Y007646D01*
X001325Y007336D02*
X000875Y007336D01*
X001325Y007035D01*
X000875Y007035D01*
X000875Y006875D02*
X001175Y006875D01*
X001325Y006725D01*
X001175Y006575D01*
X000875Y006575D01*
X001100Y006575D02*
X001100Y006875D01*
X003288Y010056D02*
X009587Y010056D01*
X017350Y007950D02*
X017350Y005150D01*
D13*
X014083Y006900D02*
X013722Y006900D01*
X013722Y006720D01*
X013782Y006660D01*
X013902Y006660D01*
X013962Y006720D01*
X013962Y006900D01*
X013962Y007028D02*
X014022Y007028D01*
X014083Y007088D01*
X014083Y007208D01*
X014022Y007268D01*
X013962Y007268D01*
X013902Y007208D01*
X013902Y007088D01*
X013962Y007028D01*
X013902Y007088D02*
X013842Y007028D01*
X013782Y007028D01*
X013722Y007088D01*
X013722Y007208D01*
X013782Y007268D01*
X013842Y007268D01*
X013902Y007208D01*
X013842Y007396D02*
X013782Y007396D01*
X013722Y007457D01*
X013722Y007577D01*
X013782Y007637D01*
X013782Y007765D02*
X013842Y007765D01*
X013902Y007825D01*
X013962Y007765D01*
X014022Y007765D01*
X014083Y007825D01*
X014083Y007945D01*
X014022Y008005D01*
X013902Y007885D02*
X013902Y007825D01*
X013782Y007765D02*
X013722Y007825D01*
X013722Y007945D01*
X013782Y008005D01*
X014083Y007637D02*
X013842Y007396D01*
X014083Y007396D02*
X014083Y007637D01*
X014033Y008570D02*
X014340Y008570D01*
X014187Y008570D02*
X014187Y009030D01*
X014340Y008877D01*
X014494Y008954D02*
X014571Y009030D01*
X014724Y009030D01*
X014801Y008954D01*
X014801Y008647D01*
X014724Y008570D01*
X014571Y008570D01*
X014494Y008647D01*
X007705Y007817D02*
X007705Y007663D01*
X007628Y007587D01*
X007705Y007817D02*
X007628Y007894D01*
X007552Y007894D01*
X007245Y007587D01*
X007245Y007894D01*
X007245Y007433D02*
X007245Y007126D01*
X007245Y006973D02*
X007705Y006973D01*
X007552Y006819D01*
X007705Y006666D01*
X007245Y006666D01*
X007475Y006359D02*
X007475Y006206D01*
X007475Y006052D02*
X007398Y005975D01*
X007398Y005745D01*
X007245Y005745D02*
X007705Y005745D01*
X007705Y005975D01*
X007628Y006052D01*
X007475Y006052D01*
X007398Y005899D02*
X007245Y006052D01*
X007245Y006206D02*
X007705Y006206D01*
X007705Y006513D01*
X007552Y007126D02*
X007705Y007280D01*
X007245Y007280D01*
X010317Y001880D02*
X010557Y001880D01*
X010437Y001880D02*
X010437Y001520D01*
X010685Y001520D02*
X010925Y001520D01*
X010925Y001880D01*
X010685Y001880D01*
X010805Y001700D02*
X010925Y001700D01*
X011053Y001640D02*
X011053Y001580D01*
X011113Y001520D01*
X011233Y001520D01*
X011293Y001580D01*
X011233Y001700D02*
X011113Y001700D01*
X011053Y001640D01*
X011233Y001700D02*
X011293Y001760D01*
X011293Y001820D01*
X011233Y001880D01*
X011113Y001880D01*
X011053Y001820D01*
X011421Y001880D02*
X011662Y001880D01*
X011662Y001520D01*
X011421Y001520D01*
X011542Y001700D02*
X011662Y001700D01*
X011790Y001700D02*
X011850Y001640D01*
X012030Y001640D01*
X012030Y001520D02*
X012030Y001880D01*
X011850Y001880D01*
X011790Y001820D01*
X011790Y001700D01*
X011910Y001640D02*
X011790Y001520D01*
D14*
X011700Y001450D02*
X010600Y001450D01*
X010583Y001448D01*
X010566Y001444D01*
X010550Y001437D01*
X010536Y001427D01*
X010523Y001414D01*
X010513Y001400D01*
X010506Y001384D01*
X010502Y001367D01*
X010500Y001350D01*
X010500Y000750D01*
X010502Y000733D01*
X010506Y000716D01*
X010513Y000700D01*
X010523Y000686D01*
X010536Y000673D01*
X010550Y000663D01*
X010566Y000656D01*
X010583Y000652D01*
X010600Y000650D01*
X011700Y000650D01*
X011717Y000652D01*
X011734Y000656D01*
X011750Y000663D01*
X011764Y000673D01*
X011777Y000686D01*
X011787Y000700D01*
X011794Y000716D01*
X011798Y000733D01*
X011800Y000750D01*
X011800Y001350D01*
X011798Y001367D01*
X011794Y001384D01*
X011787Y001400D01*
X011777Y001414D01*
X011764Y001427D01*
X011750Y001437D01*
X011734Y001444D01*
X011717Y001448D01*
X011700Y001450D01*
X011860Y006510D02*
X011860Y006590D01*
X011860Y006510D02*
X011940Y006510D01*
X013360Y006510D02*
X013440Y006510D01*
X013440Y006590D01*
X013440Y008010D02*
X013440Y008090D01*
X013360Y008090D01*
X011940Y008090D02*
X011860Y008090D01*
X011860Y008010D01*
D15*
X013241Y003837D02*
X013437Y003641D01*
D16*
X013145Y003555D02*
X013045Y003555D01*
X012998Y003555D02*
X012948Y003555D01*
X012973Y003555D02*
X012973Y003405D01*
X012998Y003405D02*
X012948Y003405D01*
X012899Y003405D02*
X012899Y003555D01*
X012799Y003405D01*
X012799Y003555D01*
X012752Y003555D02*
X012752Y003530D01*
X012702Y003480D01*
X012702Y003405D01*
X012702Y003480D02*
X012652Y003530D01*
X012652Y003555D01*
X012605Y003530D02*
X012605Y003505D01*
X012580Y003480D01*
X012530Y003480D01*
X012505Y003455D01*
X012505Y003430D01*
X012530Y003405D01*
X012580Y003405D01*
X012605Y003430D01*
X012605Y003455D01*
X012580Y003480D01*
X012530Y003480D02*
X012505Y003505D01*
X012505Y003530D01*
X012530Y003555D01*
X012580Y003555D01*
X012605Y003530D01*
X012457Y003480D02*
X012357Y003480D01*
X012382Y003405D02*
X012382Y003555D01*
X012457Y003480D01*
X013095Y003405D02*
X013095Y003555D01*
D17*
X008880Y004394D02*
X008843Y004357D01*
X008770Y004357D01*
X008733Y004394D01*
X008733Y004467D01*
X008807Y004467D01*
X008880Y004541D02*
X008880Y004394D01*
X008880Y004541D02*
X008843Y004577D01*
X008770Y004577D01*
X008733Y004541D01*
X008659Y004577D02*
X008512Y004357D01*
X008512Y004577D01*
X008438Y004577D02*
X008328Y004577D01*
X008291Y004541D01*
X008291Y004394D01*
X008328Y004357D01*
X008438Y004357D01*
X008438Y004577D01*
X008659Y004577D02*
X008659Y004357D01*
X008659Y005341D02*
X008659Y005562D01*
X008549Y005562D01*
X008512Y005525D01*
X008512Y005452D01*
X008549Y005415D01*
X008659Y005415D01*
X008586Y005415D02*
X008512Y005341D01*
X008438Y005341D02*
X008291Y005341D01*
X008217Y005378D02*
X008180Y005341D01*
X008107Y005341D01*
X008070Y005378D01*
X008070Y005415D01*
X008107Y005452D01*
X008180Y005452D01*
X008217Y005488D01*
X008217Y005525D01*
X008180Y005562D01*
X008107Y005562D01*
X008070Y005525D01*
X008291Y005562D02*
X008438Y005562D01*
X008438Y005341D01*
X008438Y005452D02*
X008365Y005452D01*
X008733Y005452D02*
X008733Y005341D01*
X008733Y005452D02*
X008770Y005488D01*
X008880Y005488D01*
X008880Y005341D01*
X008880Y006719D02*
X008770Y006719D01*
X008733Y006756D01*
X008733Y006903D01*
X008770Y006940D01*
X008880Y006940D01*
X008880Y006719D01*
X008659Y006756D02*
X008659Y006903D01*
X008622Y006940D01*
X008549Y006940D01*
X008512Y006903D01*
X008438Y006940D02*
X008438Y006719D01*
X008291Y006719D01*
X008217Y006719D02*
X008217Y006940D01*
X008180Y006830D02*
X008070Y006719D01*
X008217Y006793D02*
X008070Y006940D01*
X008512Y006756D02*
X008549Y006719D01*
X008622Y006719D01*
X008659Y006756D01*
X008622Y007507D02*
X008659Y007544D01*
X008622Y007507D02*
X008549Y007507D01*
X008512Y007544D01*
X008512Y007580D01*
X008549Y007617D01*
X008622Y007617D01*
X008659Y007654D01*
X008659Y007690D01*
X008622Y007727D01*
X008549Y007727D01*
X008512Y007690D01*
X008438Y007727D02*
X008438Y007507D01*
X008438Y007580D02*
X008291Y007727D01*
X008401Y007617D02*
X008291Y007507D01*
X008733Y007727D02*
X008880Y007727D01*
X008880Y007507D01*
X008880Y007617D02*
X008807Y007617D01*
X008880Y008491D02*
X008880Y008638D01*
X008770Y008638D01*
X008733Y008601D01*
X008733Y008491D01*
X008659Y008491D02*
X008586Y008491D01*
X008622Y008491D02*
X008622Y008711D01*
X008586Y008711D02*
X008659Y008711D01*
X008512Y008711D02*
X008512Y008491D01*
X008512Y008564D02*
X008402Y008564D01*
X008365Y008601D01*
X008365Y008675D01*
X008402Y008711D01*
X008512Y008711D01*
X008438Y008564D02*
X008365Y008491D01*
X008291Y008528D02*
X008254Y008491D01*
X008181Y008491D01*
X008144Y008528D01*
X008144Y008675D01*
X008181Y008711D01*
X008254Y008711D01*
X008291Y008675D01*
X008291Y008528D01*
X008217Y008564D02*
X008144Y008491D01*
X008328Y009082D02*
X008291Y009118D01*
X008291Y009265D01*
X008328Y009302D01*
X008401Y009302D01*
X008438Y009265D01*
X008438Y009118D01*
X008401Y009082D01*
X008328Y009082D01*
X008512Y009118D02*
X008512Y009265D01*
X008549Y009302D01*
X008659Y009302D01*
X008659Y009082D01*
X008549Y009082D01*
X008512Y009118D01*
X008733Y009118D02*
X008770Y009082D01*
X008843Y009082D01*
X008880Y009118D01*
X008843Y009192D02*
X008770Y009192D01*
X008733Y009155D01*
X008733Y009118D01*
X008843Y009192D02*
X008880Y009228D01*
X008880Y009265D01*
X008843Y009302D01*
X008770Y009302D01*
X008733Y009265D01*
X004709Y009228D02*
X004709Y009082D01*
X004709Y009228D02*
X004599Y009228D01*
X004562Y009192D01*
X004562Y009082D01*
X004488Y009118D02*
X004451Y009082D01*
X004378Y009082D01*
X004341Y009118D01*
X004341Y009155D01*
X004378Y009192D01*
X004451Y009192D01*
X004488Y009228D01*
X004488Y009265D01*
X004451Y009302D01*
X004378Y009302D01*
X004341Y009265D01*
X004267Y009302D02*
X004267Y009082D01*
X004120Y009082D01*
X004046Y009082D02*
X003899Y009082D01*
X004046Y009082D02*
X004046Y009302D01*
X004120Y009302D02*
X004267Y009302D01*
X004267Y009192D02*
X004194Y009192D01*
X004181Y008514D02*
X004254Y008514D01*
X004291Y008478D01*
X004291Y008331D01*
X004254Y008294D01*
X004181Y008294D01*
X004144Y008331D01*
X004070Y008368D02*
X003923Y008514D01*
X004070Y008514D02*
X004070Y008294D01*
X004033Y008404D02*
X003923Y008294D01*
X004144Y008478D02*
X004181Y008514D01*
X004365Y008478D02*
X004402Y008514D01*
X004475Y008514D01*
X004512Y008478D01*
X004512Y008441D01*
X004475Y008404D01*
X004402Y008404D01*
X004365Y008368D01*
X004365Y008331D01*
X004402Y008294D01*
X004475Y008294D01*
X004512Y008331D01*
X004475Y007727D02*
X004402Y007727D01*
X004365Y007690D01*
X004402Y007617D02*
X004365Y007580D01*
X004365Y007544D01*
X004402Y007507D01*
X004475Y007507D01*
X004512Y007544D01*
X004475Y007617D02*
X004402Y007617D01*
X004475Y007617D02*
X004512Y007654D01*
X004512Y007690D01*
X004475Y007727D01*
X004291Y007727D02*
X004181Y007727D01*
X004144Y007690D01*
X004144Y007544D01*
X004181Y007507D01*
X004291Y007507D01*
X004291Y007727D01*
X004070Y007727D02*
X003997Y007727D01*
X004033Y007727D02*
X004033Y007507D01*
X003997Y007507D02*
X004070Y007507D01*
X004046Y006940D02*
X004046Y006719D01*
X004194Y006719D02*
X004194Y006940D01*
X004120Y006940D02*
X003973Y006940D01*
X004194Y006719D02*
X004341Y006940D01*
X004341Y006719D01*
X004415Y006719D02*
X004488Y006719D01*
X004451Y006719D02*
X004451Y006940D01*
X004415Y006940D02*
X004488Y006940D01*
X004562Y006830D02*
X004562Y006719D01*
X004562Y006830D02*
X004599Y006866D01*
X004709Y006866D01*
X004709Y006719D01*
X004475Y006152D02*
X004402Y006152D01*
X004365Y006116D01*
X004365Y006042D02*
X004439Y006042D01*
X004365Y006042D02*
X004365Y005969D01*
X004402Y005932D01*
X004475Y005932D01*
X004512Y005969D01*
X004512Y006116D01*
X004475Y006152D01*
X004291Y006152D02*
X004144Y005932D01*
X004144Y006152D01*
X004070Y006152D02*
X003960Y006152D01*
X003923Y006116D01*
X003923Y005969D01*
X003960Y005932D01*
X004070Y005932D01*
X004070Y006152D01*
X004291Y006152D02*
X004291Y005932D01*
X004365Y005365D02*
X004365Y005218D01*
X004439Y005145D01*
X004512Y005218D01*
X004512Y005365D01*
X004291Y005255D02*
X004254Y005291D01*
X004144Y005291D01*
X004144Y005365D02*
X004144Y005145D01*
X004254Y005145D01*
X004291Y005181D01*
X004291Y005255D01*
X004070Y005255D02*
X004033Y005291D01*
X003923Y005291D01*
X003923Y005365D02*
X003923Y005145D01*
X004033Y005145D01*
X004070Y005181D01*
X004070Y005255D01*
X004070Y004577D02*
X003923Y004577D01*
X003997Y004577D02*
X003997Y004357D01*
X004144Y004357D02*
X004144Y004577D01*
X004291Y004577D02*
X004144Y004357D01*
X004291Y004357D02*
X004291Y004577D01*
X004365Y004504D02*
X004439Y004577D01*
X004512Y004504D01*
X004512Y004357D01*
X004512Y004467D02*
X004365Y004467D01*
X004365Y004504D02*
X004365Y004357D01*
M02*
