  0
SECTION
  2
HEADER
  9
$ACADVER
  1
AC1009
  9
$MEASUREMENT
 70
     1
  0
ENDSEC
  0
SECTION
  2
ENTITIES
  0
LWPOLYLINE
  8
0
 62
7
 90
5
 70
1
 10
33.705800
 20
19.000763
 10
34.059838
 20
19.000763
 10
34.059838
 20
19.251638
 10
33.351763
 20
19.251638
 10
33.351763
 20
19.000763
  0
LWPOLYLINE
  8
0
 62
7
 90
5
 70
1
 10
33.705800
 20
18.543563
 10
34.059838
 20
18.543563
 10
34.059838
 20
18.794438
 10
33.351763
 20
18.794438
 10
33.351763
 20
18.543563
  0
LWPOLYLINE
  8
0
 62
7
 90
5
 70
1
 10
33.705800
 20
18.111763
 10
34.059838
 20
18.111763
 10
34.059838
 20
18.362638
 10
33.351763
 20
18.362638
 10
33.351763
 20
18.111763
  0
LWPOLYLINE
  8
0
 62
7
 90
5
 70
1
 10
33.705800
 20
17.654563
 10
34.059838
 20
17.654563
 10
34.059838
 20
17.905438
 10
33.351763
 20
17.905438
 10
33.351763
 20
17.654563
  0
LWPOLYLINE
  8
0
 62
7
 90
5
 70
1
 10
33.705800
 20
17.197363
 10
34.059838
 20
17.197363
 10
34.059838
 20
17.448238
 10
33.351763
 20
17.448238
 10
33.351763
 20
17.197363
  0
LWPOLYLINE
  8
0
 62
7
 90
5
 70
1
 10
33.705800
 20
16.765562
 10
34.059838
 20
16.765562
 10
34.059838
 20
17.016437
 10
33.351763
 20
17.016437
 10
33.351763
 20
16.765562
  0
LWPOLYLINE
  8
0
 62
7
 90
5
 70
1
 10
33.705800
 20
16.308363
 10
34.059838
 20
16.308363
 10
34.059838
 20
16.559238
 10
33.351763
 20
16.559238
 10
33.351763
 20
16.308363
  0
LWPOLYLINE
  8
0
 62
7
 90
5
 70
1
 10
33.221637
 20
15.824200
 10
33.221637
 20
16.178237
 10
32.970763
 20
16.178237
 10
32.970763
 20
15.470162
 10
33.221637
 20
15.470162
  0
LWPOLYLINE
  8
0
 62
7
 90
5
 70
1
 10
32.764437
 20
15.824200
 10
32.764437
 20
16.178237
 10
32.513563
 20
16.178237
 10
32.513563
 20
15.470162
 10
32.764437
 20
15.470162
  0
LWPOLYLINE
  8
0
 62
7
 90
5
 70
1
 10
32.332637
 20
15.824200
 10
32.332637
 20
16.178237
 10
32.081763
 20
16.178237
 10
32.081763
 20
15.470162
 10
32.332637
 20
15.470162
  0
LWPOLYLINE
  8
0
 62
7
 90
5
 70
1
 10
31.875438
 20
15.824200
 10
31.875438
 20
16.178237
 10
31.624562
 20
16.178237
 10
31.624562
 20
15.470162
 10
31.875438
 20
15.470162
  0
LWPOLYLINE
  8
0
 62
7
 90
5
 70
1
 10
31.418238
 20
15.824200
 10
31.418238
 20
16.178237
 10
31.167362
 20
16.178237
 10
31.167362
 20
15.470162
 10
31.418238
 20
15.470162
  0
LWPOLYLINE
  8
0
 62
7
 90
5
 70
1
 10
30.986438
 20
15.824200
 10
30.986438
 20
16.178237
 10
30.735563
 20
16.178237
 10
30.735563
 20
15.470162
 10
30.986438
 20
15.470162
  0
LWPOLYLINE
  8
0
 62
7
 90
5
 70
1
 10
30.529238
 20
15.824200
 10
30.529238
 20
16.178237
 10
30.278363
 20
16.178237
 10
30.278363
 20
15.470162
 10
30.529238
 20
15.470162
  0
LWPOLYLINE
  8
0
 62
7
 90
5
 70
1
 10
29.794200
 20
16.308363
 10
30.148238
 20
16.308363
 10
30.148238
 20
16.559238
 10
29.440162
 20
16.559238
 10
29.440162
 20
16.308363
  0
LWPOLYLINE
  8
0
 62
7
 90
5
 70
1
 10
29.794200
 20
16.765562
 10
30.148238
 20
16.765562
 10
30.148238
 20
17.016437
 10
29.440162
 20
17.016437
 10
29.440162
 20
16.765562
  0
LWPOLYLINE
  8
0
 62
7
 90
5
 70
1
 10
29.794200
 20
17.197363
 10
30.148238
 20
17.197363
 10
30.148238
 20
17.448238
 10
29.440162
 20
17.448238
 10
29.440162
 20
17.197363
  0
LWPOLYLINE
  8
0
 62
7
 90
5
 70
1
 10
29.794200
 20
17.654563
 10
30.148238
 20
17.654563
 10
30.148238
 20
17.905438
 10
29.440162
 20
17.905438
 10
29.440162
 20
17.654563
  0
LWPOLYLINE
  8
0
 62
7
 90
5
 70
1
 10
29.794200
 20
18.111763
 10
30.148238
 20
18.111763
 10
30.148238
 20
18.362638
 10
29.440162
 20
18.362638
 10
29.440162
 20
18.111763
  0
LWPOLYLINE
  8
0
 62
7
 90
5
 70
1
 10
29.794200
 20
18.543563
 10
30.148238
 20
18.543563
 10
30.148238
 20
18.794438
 10
29.440162
 20
18.794438
 10
29.440162
 20
18.543563
  0
LWPOLYLINE
  8
0
 62
7
 90
5
 70
1
 10
29.794200
 20
19.000763
 10
30.148238
 20
19.000763
 10
30.148238
 20
19.251638
 10
29.440162
 20
19.251638
 10
29.440162
 20
19.000763
  0
LWPOLYLINE
  8
0
 62
7
 90
5
 70
1
 10
30.529238
 20
19.735800
 10
30.529238
 20
20.089838
 10
30.278363
 20
20.089838
 10
30.278363
 20
19.381763
 10
30.529238
 20
19.381763
  0
LWPOLYLINE
  8
0
 62
7
 90
5
 70
1
 10
30.986438
 20
19.735800
 10
30.986438
 20
20.089838
 10
30.735563
 20
20.089838
 10
30.735563
 20
19.381763
 10
30.986438
 20
19.381763
  0
LWPOLYLINE
  8
0
 62
7
 90
5
 70
1
 10
31.418238
 20
19.735800
 10
31.418238
 20
20.089838
 10
31.167362
 20
20.089838
 10
31.167362
 20
19.381763
 10
31.418238
 20
19.381763
  0
LWPOLYLINE
  8
0
 62
7
 90
5
 70
1
 10
31.875438
 20
19.735800
 10
31.875438
 20
20.089838
 10
31.624562
 20
20.089838
 10
31.624562
 20
19.381763
 10
31.875438
 20
19.381763
  0
LWPOLYLINE
  8
0
 62
7
 90
5
 70
1
 10
32.332637
 20
19.735800
 10
32.332637
 20
20.089838
 10
32.081763
 20
20.089838
 10
32.081763
 20
19.381763
 10
32.332637
 20
19.381763
  0
LWPOLYLINE
  8
0
 62
7
 90
5
 70
1
 10
32.764437
 20
19.735800
 10
32.764437
 20
20.089838
 10
32.513563
 20
20.089838
 10
32.513563
 20
19.381763
 10
32.764437
 20
19.381763
  0
LWPOLYLINE
  8
0
 62
7
 90
5
 70
1
 10
33.221637
 20
19.735800
 10
33.221637
 20
20.089838
 10
32.970763
 20
20.089838
 10
32.970763
 20
19.381763
 10
33.221637
 20
19.381763
  0
LWPOLYLINE
  8
0
 62
7
 90
5
 70
1
 10
30.532363
 20
17.780000
 10
30.532363
 20
16.562363
 10
32.967638
 20
16.562363
 10
32.967638
 20
18.997637
 10
30.532363
 20
18.997637
  0
LWPOLYLINE
  8
0
 62
7
 90
5
 70
1
 10
35.560000
 20
24.998438
 10
34.961562
 20
24.998438
 10
34.961562
 20
23.001562
 10
36.158438
 20
23.001562
 10
36.158438
 20
24.998438
  0
LWPOLYLINE
  8
0
 62
7
 90
5
 70
1
 10
35.560000
 20
27.798438
 10
34.961562
 20
27.798438
 10
34.961562
 20
25.801562
 10
36.158438
 20
25.801562
 10
36.158438
 20
27.798438
  0
LWPOLYLINE
  8
0
 62
7
 90
5
 70
1
 10
40.288438
 20
20.955000
 10
40.288438
 20
21.753437
 10
38.991563
 20
21.753437
 10
38.991563
 20
20.156562
 10
40.288438
 20
20.156562
  0
LWPOLYLINE
  8
0
 62
7
 90
5
 70
1
 10
42.288438
 20
20.955000
 10
42.288438
 20
21.753437
 10
40.991563
 20
21.753437
 10
40.991563
 20
20.156562
 10
42.288438
 20
20.156562
  0
LWPOLYLINE
  8
0
 62
7
 90
5
 70
1
 10
19.986563
 20
1.905000
 10
19.986563
 20
1.156563
 10
21.283438
 20
1.156563
 10
21.283438
 20
2.653437
 10
19.986563
 20
2.653437
  0
LWPOLYLINE
  8
0
 62
7
 90
5
 70
1
 10
18.086562
 20
1.905000
 10
18.086562
 20
1.156563
 10
19.383437
 20
1.156563
 10
19.383437
 20
2.653437
 10
18.086562
 20
2.653437
  0
LWPOLYLINE
  8
0
 62
7
 90
5
 70
1
 10
24.431562
 20
1.905000
 10
24.431562
 20
1.156563
 10
25.728437
 20
1.156563
 10
25.728437
 20
2.653437
 10
24.431562
 20
2.653437
  0
LWPOLYLINE
  8
0
 62
7
 90
5
 70
1
 10
22.531562
 20
1.905000
 10
22.531562
 20
1.156563
 10
23.828437
 20
1.156563
 10
23.828437
 20
2.653437
 10
22.531562
 20
2.653437
  0
LWPOLYLINE
  8
0
 62
7
 90
5
 70
1
 10
27.760638
 20
1.905000
 10
27.760638
 20
2.703537
 10
26.595363
 20
2.703537
 10
26.595363
 20
1.106463
 10
27.760638
 20
1.106463
  0
LWPOLYLINE
  8
0
 62
7
 90
5
 70
1
 10
29.284638
 20
1.905000
 10
29.284638
 20
2.703537
 10
28.119363
 20
2.703537
 10
28.119363
 20
1.106463
 10
29.284638
 20
1.106463
  0
LWPOLYLINE
  8
0
 62
7
 90
5
 70
1
 10
23.970000
 20
22.031562
 10
25.468438
 20
22.031562
 10
25.468438
 20
23.528438
 10
22.471562
 20
23.528438
 10
22.471562
 20
22.031562
  0
LWPOLYLINE
  8
0
 62
7
 90
5
 70
1
 10
23.970000
 20
20.031562
 10
25.468438
 20
20.031562
 10
25.468438
 20
21.528438
 10
22.471562
 20
21.528438
 10
22.471562
 20
20.031562
  0
LWPOLYLINE
  8
0
 62
7
 90
5
 70
1
 10
23.970000
 20
10.031562
 10
25.468438
 20
10.031562
 10
25.468438
 20
11.528437
 10
22.471562
 20
11.528437
 10
22.471562
 20
10.031562
  0
LWPOLYLINE
  8
0
 62
7
 90
5
 70
1
 10
7.970000
 20
10.031562
 10
9.468438
 20
10.031562
 10
9.468438
 20
11.528437
 10
6.471562
 20
11.528437
 10
6.471562
 20
10.031562
  0
LWPOLYLINE
  8
0
 62
7
 90
5
 70
1
 10
7.970000
 20
12.031562
 10
9.468438
 20
12.031562
 10
9.468438
 20
13.528437
 10
6.471562
 20
13.528437
 10
6.471562
 20
12.031562
  0
LWPOLYLINE
  8
0
 62
7
 90
5
 70
1
 10
7.970000
 20
14.031562
 10
9.468438
 20
14.031562
 10
9.468438
 20
15.528437
 10
6.471562
 20
15.528437
 10
6.471562
 20
14.031562
  0
LWPOLYLINE
  8
0
 62
7
 90
5
 70
1
 10
7.970000
 20
18.031562
 10
9.468438
 20
18.031562
 10
9.468438
 20
19.528438
 10
6.471562
 20
19.528438
 10
6.471562
 20
18.031562
  0
LWPOLYLINE
  8
0
 62
7
 90
5
 70
1
 10
7.970000
 20
20.031562
 10
9.468438
 20
20.031562
 10
9.468438
 20
21.528438
 10
6.471562
 20
21.528438
 10
6.471562
 20
20.031562
  0
LWPOLYLINE
  8
0
 62
7
 90
5
 70
1
 10
7.970000
 20
22.031562
 10
9.468438
 20
22.031562
 10
9.468438
 20
23.528438
 10
6.471562
 20
23.528438
 10
6.471562
 20
22.031562
  0
LWPOLYLINE
  8
0
 62
7
 90
5
 70
1
 10
41.910000
 20
12.574563
 10
43.559437
 20
12.574563
 10
43.559437
 20
14.095438
 10
40.260562
 20
14.095438
 10
40.260562
 20
12.574563
  0
LWPOLYLINE
  8
0
 62
7
 90
5
 70
1
 10
41.910000
 20
15.114562
 10
43.559437
 20
15.114562
 10
43.559437
 20
16.635437
 10
40.260562
 20
16.635437
 10
40.260562
 20
15.114562
  0
LWPOLYLINE
  8
0
 62
7
 90
5
 70
1
 10
41.910000
 20
17.654563
 10
43.559437
 20
17.654563
 10
43.559437
 20
19.175437
 10
40.260562
 20
19.175437
 10
40.260562
 20
17.654563
  0
ENDSEC
  0
EOF
