G75*
%MOIN*%
%OFA0B0*%
%FSLAX24Y24*%
%IPPOS*%
%LPD*%
%AMOC8*
5,1,8,0,0,1.08239X$1,22.5*
%
%ADD10C,0.0000*%
D10*
X002650Y000550D02*
X002650Y001550D01*
X002663Y001611D01*
X002673Y001672D01*
X002679Y001734D01*
X002681Y001797D01*
X002679Y001859D01*
X002674Y001921D01*
X002665Y001982D01*
X002652Y002043D01*
X002635Y002103D01*
X002615Y002162D01*
X002592Y002220D01*
X002564Y002276D01*
X002534Y002330D01*
X002500Y002383D01*
X002464Y002433D01*
X002424Y002481D01*
X002381Y002527D01*
X002336Y002569D01*
X002289Y002609D01*
X002238Y002647D01*
X002186Y002681D01*
X002132Y002711D01*
X002076Y002739D01*
X002019Y002763D01*
X001960Y002783D01*
X001900Y002800D01*
X000150Y002800D01*
X000150Y011406D01*
X000150Y011300D02*
X000152Y011344D01*
X000158Y011387D01*
X000167Y011429D01*
X000180Y011471D01*
X000197Y011511D01*
X000217Y011550D01*
X000240Y011587D01*
X000267Y011621D01*
X000296Y011654D01*
X000329Y011683D01*
X000363Y011710D01*
X000400Y011733D01*
X000439Y011753D01*
X000479Y011770D01*
X000521Y011783D01*
X000563Y011792D01*
X000606Y011798D01*
X000650Y011800D01*
X014650Y011800D01*
X014680Y011798D01*
X014710Y011793D01*
X014739Y011784D01*
X014766Y011771D01*
X014792Y011756D01*
X014816Y011737D01*
X014837Y011716D01*
X014856Y011692D01*
X014871Y011666D01*
X014884Y011639D01*
X014893Y011610D01*
X014898Y011580D01*
X014900Y011550D01*
X014900Y010550D01*
X014902Y010482D01*
X014907Y010415D01*
X014916Y010348D01*
X014929Y010281D01*
X014946Y010216D01*
X014965Y010151D01*
X014989Y010087D01*
X015016Y010025D01*
X015046Y009964D01*
X015079Y009906D01*
X015115Y009849D01*
X015155Y009794D01*
X015197Y009741D01*
X015243Y009690D01*
X015290Y009643D01*
X015341Y009597D01*
X015394Y009555D01*
X015449Y009515D01*
X015506Y009479D01*
X015564Y009446D01*
X015625Y009416D01*
X015687Y009389D01*
X015751Y009365D01*
X015816Y009346D01*
X015881Y009329D01*
X015948Y009316D01*
X016015Y009307D01*
X016082Y009302D01*
X016150Y009300D01*
X017400Y009300D01*
X017400Y000694D01*
X017398Y000655D01*
X017392Y000617D01*
X017383Y000580D01*
X017370Y000543D01*
X017353Y000508D01*
X017334Y000475D01*
X017311Y000444D01*
X017285Y000415D01*
X017256Y000389D01*
X017225Y000366D01*
X017192Y000347D01*
X017157Y000330D01*
X017120Y000317D01*
X017083Y000308D01*
X017045Y000302D01*
X017006Y000300D01*
X017150Y000300D02*
X002900Y000300D01*
X002870Y000302D01*
X002840Y000307D01*
X002811Y000316D01*
X002784Y000329D01*
X002758Y000344D01*
X002734Y000363D01*
X002713Y000384D01*
X002694Y000408D01*
X002679Y000434D01*
X002666Y000461D01*
X002657Y000490D01*
X002652Y000520D01*
X002650Y000550D01*
X012256Y001383D02*
X012258Y001427D01*
X012264Y001471D01*
X012274Y001514D01*
X012287Y001556D01*
X012305Y001596D01*
X012326Y001635D01*
X012350Y001672D01*
X012377Y001707D01*
X012408Y001739D01*
X012441Y001768D01*
X012477Y001794D01*
X012515Y001816D01*
X012555Y001835D01*
X012596Y001851D01*
X012639Y001863D01*
X012682Y001871D01*
X012726Y001875D01*
X012770Y001875D01*
X012814Y001871D01*
X012857Y001863D01*
X012900Y001851D01*
X012941Y001835D01*
X012981Y001816D01*
X013019Y001794D01*
X013055Y001768D01*
X013088Y001739D01*
X013119Y001707D01*
X013146Y001672D01*
X013170Y001635D01*
X013191Y001596D01*
X013209Y001556D01*
X013222Y001514D01*
X013232Y001471D01*
X013238Y001427D01*
X013240Y001383D01*
X013238Y001339D01*
X013232Y001295D01*
X013222Y001252D01*
X013209Y001210D01*
X013191Y001170D01*
X013170Y001131D01*
X013146Y001094D01*
X013119Y001059D01*
X013088Y001027D01*
X013055Y000998D01*
X013019Y000972D01*
X012981Y000950D01*
X012941Y000931D01*
X012900Y000915D01*
X012857Y000903D01*
X012814Y000895D01*
X012770Y000891D01*
X012726Y000891D01*
X012682Y000895D01*
X012639Y000903D01*
X012596Y000915D01*
X012555Y000931D01*
X012515Y000950D01*
X012477Y000972D01*
X012441Y000998D01*
X012408Y001027D01*
X012377Y001059D01*
X012350Y001094D01*
X012326Y001131D01*
X012305Y001170D01*
X012287Y001210D01*
X012274Y001252D01*
X012264Y001295D01*
X012258Y001339D01*
X012256Y001383D01*
X004382Y010635D02*
X004384Y010679D01*
X004390Y010723D01*
X004400Y010766D01*
X004413Y010808D01*
X004431Y010848D01*
X004452Y010887D01*
X004476Y010924D01*
X004503Y010959D01*
X004534Y010991D01*
X004567Y011020D01*
X004603Y011046D01*
X004641Y011068D01*
X004681Y011087D01*
X004722Y011103D01*
X004765Y011115D01*
X004808Y011123D01*
X004852Y011127D01*
X004896Y011127D01*
X004940Y011123D01*
X004983Y011115D01*
X005026Y011103D01*
X005067Y011087D01*
X005107Y011068D01*
X005145Y011046D01*
X005181Y011020D01*
X005214Y010991D01*
X005245Y010959D01*
X005272Y010924D01*
X005296Y010887D01*
X005317Y010848D01*
X005335Y010808D01*
X005348Y010766D01*
X005358Y010723D01*
X005364Y010679D01*
X005366Y010635D01*
X005364Y010591D01*
X005358Y010547D01*
X005348Y010504D01*
X005335Y010462D01*
X005317Y010422D01*
X005296Y010383D01*
X005272Y010346D01*
X005245Y010311D01*
X005214Y010279D01*
X005181Y010250D01*
X005145Y010224D01*
X005107Y010202D01*
X005067Y010183D01*
X005026Y010167D01*
X004983Y010155D01*
X004940Y010147D01*
X004896Y010143D01*
X004852Y010143D01*
X004808Y010147D01*
X004765Y010155D01*
X004722Y010167D01*
X004681Y010183D01*
X004641Y010202D01*
X004603Y010224D01*
X004567Y010250D01*
X004534Y010279D01*
X004503Y010311D01*
X004476Y010346D01*
X004452Y010383D01*
X004431Y010422D01*
X004413Y010462D01*
X004400Y010504D01*
X004390Y010547D01*
X004384Y010591D01*
X004382Y010635D01*
M02*
