G75*
%MOIN*%
%OFA0B0*%
%FSLAX24Y24*%
%IPPOS*%
%LPD*%
%AMOC8*
5,1,8,0,0,1.08239X$1,22.5*
%
%ADD10C,0.0000*%
%ADD11C,0.0060*%
%ADD12C,0.0050*%
%ADD13C,0.0040*%
%ADD14C,0.0020*%
%ADD15C,0.0080*%
%ADD16C,0.0010*%
D10*
X002650Y001400D02*
X002648Y001454D01*
X002642Y001507D01*
X002633Y001559D01*
X002620Y001611D01*
X002603Y001662D01*
X002582Y001712D01*
X002558Y001759D01*
X002531Y001805D01*
X002500Y001849D01*
X002467Y001891D01*
X002430Y001930D01*
X002391Y001967D01*
X002349Y002000D01*
X002305Y002031D01*
X002259Y002058D01*
X002212Y002082D01*
X002162Y002103D01*
X002111Y002120D01*
X002059Y002133D01*
X002007Y002142D01*
X001954Y002148D01*
X001900Y002150D01*
X000150Y002150D01*
X000150Y011256D01*
X000150Y011150D02*
X000152Y011194D01*
X000158Y011237D01*
X000167Y011279D01*
X000180Y011321D01*
X000197Y011361D01*
X000217Y011400D01*
X000240Y011437D01*
X000267Y011471D01*
X000296Y011504D01*
X000329Y011533D01*
X000363Y011560D01*
X000400Y011583D01*
X000439Y011603D01*
X000479Y011620D01*
X000521Y011633D01*
X000563Y011642D01*
X000606Y011648D01*
X000650Y011650D01*
X014650Y011650D01*
X014680Y011648D01*
X014710Y011643D01*
X014739Y011634D01*
X014766Y011621D01*
X014792Y011606D01*
X014816Y011587D01*
X014837Y011566D01*
X014856Y011542D01*
X014871Y011516D01*
X014884Y011489D01*
X014893Y011460D01*
X014898Y011430D01*
X014900Y011400D01*
X014900Y010400D01*
X014902Y010346D01*
X014908Y010293D01*
X014917Y010241D01*
X014930Y010189D01*
X014947Y010138D01*
X014968Y010088D01*
X014992Y010041D01*
X015019Y009995D01*
X015050Y009951D01*
X015083Y009909D01*
X015120Y009870D01*
X015159Y009833D01*
X015201Y009800D01*
X015245Y009769D01*
X015291Y009742D01*
X015338Y009718D01*
X015388Y009697D01*
X015439Y009680D01*
X015491Y009667D01*
X015543Y009658D01*
X015596Y009652D01*
X015650Y009650D01*
X017400Y009650D01*
X017400Y000544D01*
X017398Y000505D01*
X017392Y000467D01*
X017383Y000430D01*
X017370Y000393D01*
X017353Y000358D01*
X017334Y000325D01*
X017311Y000294D01*
X017285Y000265D01*
X017256Y000239D01*
X017225Y000216D01*
X017192Y000197D01*
X017157Y000180D01*
X017120Y000167D01*
X017083Y000158D01*
X017045Y000152D01*
X017006Y000150D01*
X017150Y000150D02*
X002900Y000150D01*
X002870Y000152D01*
X002840Y000157D01*
X002811Y000166D01*
X002784Y000179D01*
X002758Y000194D01*
X002734Y000213D01*
X002713Y000234D01*
X002694Y000258D01*
X002679Y000284D01*
X002666Y000311D01*
X002657Y000340D01*
X002652Y000370D01*
X002650Y000400D01*
X002650Y001400D01*
X001158Y007650D02*
X001160Y007694D01*
X001166Y007738D01*
X001176Y007781D01*
X001189Y007823D01*
X001207Y007863D01*
X001228Y007902D01*
X001252Y007939D01*
X001279Y007974D01*
X001310Y008006D01*
X001343Y008035D01*
X001379Y008061D01*
X001417Y008083D01*
X001457Y008102D01*
X001498Y008118D01*
X001541Y008130D01*
X001584Y008138D01*
X001628Y008142D01*
X001672Y008142D01*
X001716Y008138D01*
X001759Y008130D01*
X001802Y008118D01*
X001843Y008102D01*
X001883Y008083D01*
X001921Y008061D01*
X001957Y008035D01*
X001990Y008006D01*
X002021Y007974D01*
X002048Y007939D01*
X002072Y007902D01*
X002093Y007863D01*
X002111Y007823D01*
X002124Y007781D01*
X002134Y007738D01*
X002140Y007694D01*
X002142Y007650D01*
X002140Y007606D01*
X002134Y007562D01*
X002124Y007519D01*
X002111Y007477D01*
X002093Y007437D01*
X002072Y007398D01*
X002048Y007361D01*
X002021Y007326D01*
X001990Y007294D01*
X001957Y007265D01*
X001921Y007239D01*
X001883Y007217D01*
X001843Y007198D01*
X001802Y007182D01*
X001759Y007170D01*
X001716Y007162D01*
X001672Y007158D01*
X001628Y007158D01*
X001584Y007162D01*
X001541Y007170D01*
X001498Y007182D01*
X001457Y007198D01*
X001417Y007217D01*
X001379Y007239D01*
X001343Y007265D01*
X001310Y007294D01*
X001279Y007326D01*
X001252Y007361D01*
X001228Y007398D01*
X001207Y007437D01*
X001189Y007477D01*
X001176Y007519D01*
X001166Y007562D01*
X001160Y007606D01*
X001158Y007650D01*
X004382Y010485D02*
X004384Y010529D01*
X004390Y010573D01*
X004400Y010616D01*
X004413Y010658D01*
X004431Y010698D01*
X004452Y010737D01*
X004476Y010774D01*
X004503Y010809D01*
X004534Y010841D01*
X004567Y010870D01*
X004603Y010896D01*
X004641Y010918D01*
X004681Y010937D01*
X004722Y010953D01*
X004765Y010965D01*
X004808Y010973D01*
X004852Y010977D01*
X004896Y010977D01*
X004940Y010973D01*
X004983Y010965D01*
X005026Y010953D01*
X005067Y010937D01*
X005107Y010918D01*
X005145Y010896D01*
X005181Y010870D01*
X005214Y010841D01*
X005245Y010809D01*
X005272Y010774D01*
X005296Y010737D01*
X005317Y010698D01*
X005335Y010658D01*
X005348Y010616D01*
X005358Y010573D01*
X005364Y010529D01*
X005366Y010485D01*
X005364Y010441D01*
X005358Y010397D01*
X005348Y010354D01*
X005335Y010312D01*
X005317Y010272D01*
X005296Y010233D01*
X005272Y010196D01*
X005245Y010161D01*
X005214Y010129D01*
X005181Y010100D01*
X005145Y010074D01*
X005107Y010052D01*
X005067Y010033D01*
X005026Y010017D01*
X004983Y010005D01*
X004940Y009997D01*
X004896Y009993D01*
X004852Y009993D01*
X004808Y009997D01*
X004765Y010005D01*
X004722Y010017D01*
X004681Y010033D01*
X004641Y010052D01*
X004603Y010074D01*
X004567Y010100D01*
X004534Y010129D01*
X004503Y010161D01*
X004476Y010196D01*
X004452Y010233D01*
X004431Y010272D01*
X004413Y010312D01*
X004400Y010354D01*
X004390Y010397D01*
X004384Y010441D01*
X004382Y010485D01*
X012256Y001233D02*
X012258Y001277D01*
X012264Y001321D01*
X012274Y001364D01*
X012287Y001406D01*
X012305Y001446D01*
X012326Y001485D01*
X012350Y001522D01*
X012377Y001557D01*
X012408Y001589D01*
X012441Y001618D01*
X012477Y001644D01*
X012515Y001666D01*
X012555Y001685D01*
X012596Y001701D01*
X012639Y001713D01*
X012682Y001721D01*
X012726Y001725D01*
X012770Y001725D01*
X012814Y001721D01*
X012857Y001713D01*
X012900Y001701D01*
X012941Y001685D01*
X012981Y001666D01*
X013019Y001644D01*
X013055Y001618D01*
X013088Y001589D01*
X013119Y001557D01*
X013146Y001522D01*
X013170Y001485D01*
X013191Y001446D01*
X013209Y001406D01*
X013222Y001364D01*
X013232Y001321D01*
X013238Y001277D01*
X013240Y001233D01*
X013238Y001189D01*
X013232Y001145D01*
X013222Y001102D01*
X013209Y001060D01*
X013191Y001020D01*
X013170Y000981D01*
X013146Y000944D01*
X013119Y000909D01*
X013088Y000877D01*
X013055Y000848D01*
X013019Y000822D01*
X012981Y000800D01*
X012941Y000781D01*
X012900Y000765D01*
X012857Y000753D01*
X012814Y000745D01*
X012770Y000741D01*
X012726Y000741D01*
X012682Y000745D01*
X012639Y000753D01*
X012596Y000765D01*
X012555Y000781D01*
X012515Y000800D01*
X012477Y000822D01*
X012441Y000848D01*
X012408Y000877D01*
X012377Y000909D01*
X012350Y000944D01*
X012326Y000981D01*
X012305Y001020D01*
X012287Y001060D01*
X012274Y001102D01*
X012264Y001145D01*
X012258Y001189D01*
X012256Y001233D01*
D11*
X011945Y002970D02*
X013355Y002970D01*
X012135Y003270D02*
X012137Y003299D01*
X012143Y003327D01*
X012152Y003354D01*
X012166Y003379D01*
X012182Y003403D01*
X012202Y003423D01*
X012224Y003442D01*
X012248Y003456D01*
X012275Y003468D01*
X012302Y003476D01*
X012331Y003480D01*
X012359Y003480D01*
X012388Y003476D01*
X012415Y003468D01*
X012442Y003456D01*
X012466Y003442D01*
X012488Y003423D01*
X012508Y003403D01*
X012524Y003379D01*
X012538Y003354D01*
X012547Y003327D01*
X012553Y003299D01*
X012555Y003270D01*
X012553Y003241D01*
X012547Y003213D01*
X012538Y003186D01*
X012524Y003161D01*
X012508Y003137D01*
X012488Y003117D01*
X012466Y003098D01*
X012442Y003084D01*
X012415Y003072D01*
X012388Y003064D01*
X012359Y003060D01*
X012331Y003060D01*
X012302Y003064D01*
X012275Y003072D01*
X012248Y003084D01*
X012224Y003098D01*
X012202Y003117D01*
X012182Y003137D01*
X012166Y003161D01*
X012152Y003186D01*
X012143Y003213D01*
X012137Y003241D01*
X012135Y003270D01*
X011945Y006330D02*
X013355Y006330D01*
D12*
X012850Y006280D02*
X012775Y006205D01*
X012700Y006205D01*
X012625Y006280D01*
X012625Y006430D01*
X012550Y006505D01*
X012475Y006505D01*
X012400Y006430D01*
X012400Y006280D01*
X012475Y006205D01*
X012475Y006045D02*
X012400Y005969D01*
X012400Y005819D01*
X012475Y005744D01*
X012625Y005819D02*
X012625Y005969D01*
X012550Y006045D01*
X012475Y006045D01*
X012775Y006045D02*
X012850Y005969D01*
X012850Y005819D01*
X012775Y005744D01*
X012700Y005744D01*
X012625Y005819D01*
X012625Y005584D02*
X012625Y005284D01*
X012625Y005124D02*
X012625Y004823D01*
X012850Y005049D01*
X012400Y005049D01*
X012475Y004663D02*
X012400Y004588D01*
X012400Y004438D01*
X012475Y004363D01*
X012550Y004363D01*
X012625Y004438D01*
X012625Y004588D01*
X012550Y004663D01*
X012475Y004663D01*
X012625Y004588D02*
X012700Y004663D01*
X012775Y004663D01*
X012850Y004588D01*
X012850Y004438D01*
X012775Y004363D01*
X012700Y004363D01*
X012625Y004438D01*
X012775Y004203D02*
X012850Y004203D01*
X012775Y004203D02*
X012625Y004053D01*
X012400Y004053D01*
X012625Y004053D02*
X012775Y003903D01*
X012850Y003903D01*
X012850Y003743D02*
X012400Y003743D01*
X012850Y003442D01*
X012400Y003442D01*
X012400Y003286D02*
X012400Y003135D01*
X012400Y003210D02*
X012850Y003210D01*
X012850Y003135D02*
X012850Y003286D01*
X012850Y002975D02*
X012850Y002675D01*
X012850Y002825D02*
X012400Y002825D01*
X010087Y000357D02*
X010087Y006656D01*
X003788Y006656D01*
X003788Y000357D01*
X010087Y000357D01*
X008512Y001491D02*
X008512Y005625D01*
X008510Y005666D01*
X008505Y005706D01*
X008495Y005745D01*
X008482Y005784D01*
X008466Y005821D01*
X008446Y005857D01*
X008423Y005890D01*
X008397Y005921D01*
X008368Y005950D01*
X008337Y005976D01*
X008304Y005999D01*
X008268Y006019D01*
X008231Y006035D01*
X008192Y006048D01*
X008153Y006058D01*
X008113Y006063D01*
X008072Y006065D01*
X007968Y006065D01*
X007927Y006063D01*
X007887Y006058D01*
X007848Y006048D01*
X007809Y006035D01*
X007772Y006019D01*
X007736Y005999D01*
X007703Y005976D01*
X007672Y005950D01*
X007643Y005921D01*
X007617Y005890D01*
X007594Y005857D01*
X007574Y005821D01*
X007558Y005784D01*
X007545Y005745D01*
X007535Y005706D01*
X007530Y005666D01*
X007528Y005625D01*
X007528Y001387D01*
X007530Y001346D01*
X007535Y001306D01*
X007545Y001267D01*
X007558Y001228D01*
X007574Y001191D01*
X007594Y001155D01*
X007617Y001122D01*
X007643Y001091D01*
X007672Y001062D01*
X007703Y001036D01*
X007736Y001013D01*
X007772Y000993D01*
X007809Y000977D01*
X007848Y000964D01*
X007887Y000954D01*
X007927Y000949D01*
X007968Y000947D01*
X008013Y000949D01*
X008058Y000954D01*
X008102Y000964D01*
X008145Y000976D01*
X008187Y000993D01*
X008227Y001013D01*
X008266Y001036D01*
X008302Y001062D01*
X008336Y001091D01*
X008368Y001123D01*
X008397Y001157D01*
X008423Y001193D01*
X008446Y001232D01*
X008466Y001272D01*
X008483Y001314D01*
X008495Y001357D01*
X008505Y001401D01*
X008510Y001446D01*
X008512Y001491D01*
X006741Y001735D02*
X006741Y000947D01*
X006347Y000947D01*
X006347Y001735D01*
X006741Y001735D01*
X006150Y002128D02*
X005559Y002128D01*
X005559Y002522D01*
X006150Y002522D01*
X006150Y002128D01*
X005953Y001735D02*
X005363Y001735D01*
X005363Y001341D01*
X005953Y001341D01*
X005953Y001735D01*
X005416Y004097D02*
X005418Y004159D01*
X005424Y004222D01*
X005434Y004283D01*
X005448Y004344D01*
X005465Y004404D01*
X005486Y004463D01*
X005512Y004520D01*
X005540Y004575D01*
X005572Y004629D01*
X005608Y004680D01*
X005646Y004730D01*
X005688Y004776D01*
X005732Y004820D01*
X005780Y004861D01*
X005829Y004899D01*
X005881Y004933D01*
X005935Y004964D01*
X005991Y004992D01*
X006049Y005016D01*
X006108Y005037D01*
X006168Y005053D01*
X006229Y005066D01*
X006291Y005075D01*
X006353Y005080D01*
X006416Y005081D01*
X006478Y005078D01*
X006540Y005071D01*
X006602Y005060D01*
X006662Y005045D01*
X006722Y005027D01*
X006780Y005005D01*
X006837Y004979D01*
X006892Y004949D01*
X006945Y004916D01*
X006996Y004880D01*
X007044Y004841D01*
X007090Y004798D01*
X007133Y004753D01*
X007173Y004705D01*
X007210Y004655D01*
X007244Y004602D01*
X007275Y004548D01*
X007301Y004492D01*
X007325Y004434D01*
X007344Y004374D01*
X007360Y004314D01*
X007372Y004252D01*
X007380Y004191D01*
X007384Y004128D01*
X007384Y004066D01*
X007380Y004003D01*
X007372Y003942D01*
X007360Y003880D01*
X007344Y003820D01*
X007325Y003760D01*
X007301Y003702D01*
X007275Y003646D01*
X007244Y003592D01*
X007210Y003539D01*
X007173Y003489D01*
X007133Y003441D01*
X007090Y003396D01*
X007044Y003353D01*
X006996Y003314D01*
X006945Y003278D01*
X006892Y003245D01*
X006837Y003215D01*
X006780Y003189D01*
X006722Y003167D01*
X006662Y003149D01*
X006602Y003134D01*
X006540Y003123D01*
X006478Y003116D01*
X006416Y003113D01*
X006353Y003114D01*
X006291Y003119D01*
X006229Y003128D01*
X006168Y003141D01*
X006108Y003157D01*
X006049Y003178D01*
X005991Y003202D01*
X005935Y003230D01*
X005881Y003261D01*
X005829Y003295D01*
X005780Y003333D01*
X005732Y003374D01*
X005688Y003418D01*
X005646Y003464D01*
X005608Y003514D01*
X005572Y003565D01*
X005540Y003619D01*
X005512Y003674D01*
X005486Y003731D01*
X005465Y003790D01*
X005448Y003850D01*
X005434Y003911D01*
X005424Y003972D01*
X005418Y004035D01*
X005416Y004097D01*
X001575Y004135D02*
X001125Y004436D01*
X001575Y004436D01*
X001575Y004596D02*
X001575Y004896D01*
X001575Y004746D02*
X001125Y004746D01*
X001125Y005056D02*
X001125Y005356D01*
X001125Y005206D02*
X001575Y005206D01*
X001425Y005056D01*
X001575Y004135D02*
X001125Y004135D01*
X001125Y003975D02*
X001425Y003975D01*
X001575Y003825D01*
X001425Y003675D01*
X001125Y003675D01*
X001350Y003675D02*
X001350Y003975D01*
X012400Y006740D02*
X012400Y006890D01*
X012475Y006965D01*
X012850Y006965D01*
X012850Y006665D02*
X012475Y006665D01*
X012400Y006740D01*
X012775Y006505D02*
X012850Y006430D01*
X012850Y006280D01*
X015950Y005000D02*
X015950Y007800D01*
D13*
X008205Y004417D02*
X008205Y004263D01*
X008128Y004187D01*
X008205Y004417D02*
X008128Y004494D01*
X008052Y004494D01*
X007745Y004187D01*
X007745Y004494D01*
X007745Y004033D02*
X007745Y003726D01*
X007745Y003573D02*
X008205Y003573D01*
X008052Y003419D01*
X008205Y003266D01*
X007745Y003266D01*
X007975Y002959D02*
X007975Y002806D01*
X007975Y002652D02*
X007898Y002575D01*
X007898Y002345D01*
X007745Y002345D02*
X008205Y002345D01*
X008205Y002575D01*
X008128Y002652D01*
X007975Y002652D01*
X007898Y002499D02*
X007745Y002652D01*
X007745Y002806D02*
X008205Y002806D01*
X008205Y003113D01*
X008052Y003726D02*
X008205Y003880D01*
X007745Y003880D01*
D14*
X008570Y003540D02*
X008717Y003393D01*
X008680Y003430D02*
X008570Y003319D01*
X008717Y003319D02*
X008717Y003540D01*
X008938Y003540D02*
X008938Y003319D01*
X008791Y003319D01*
X009012Y003356D02*
X009049Y003319D01*
X009122Y003319D01*
X009159Y003356D01*
X009159Y003503D01*
X009122Y003540D01*
X009049Y003540D01*
X009012Y003503D01*
X009233Y003503D02*
X009233Y003356D01*
X009270Y003319D01*
X009380Y003319D01*
X009380Y003540D01*
X009270Y003540D01*
X009233Y003503D01*
X009122Y004107D02*
X009049Y004107D01*
X009012Y004144D01*
X009012Y004180D01*
X009049Y004217D01*
X009122Y004217D01*
X009159Y004254D01*
X009159Y004290D01*
X009122Y004327D01*
X009049Y004327D01*
X009012Y004290D01*
X008938Y004327D02*
X008938Y004107D01*
X008938Y004180D02*
X008791Y004327D01*
X008901Y004217D02*
X008791Y004107D01*
X009122Y004107D02*
X009159Y004144D01*
X009307Y004217D02*
X009380Y004217D01*
X009380Y004327D02*
X009233Y004327D01*
X009380Y004327D02*
X009380Y004107D01*
X009380Y005091D02*
X009380Y005238D01*
X009270Y005238D01*
X009233Y005201D01*
X009233Y005091D01*
X009159Y005091D02*
X009086Y005091D01*
X009122Y005091D02*
X009122Y005311D01*
X009086Y005311D02*
X009159Y005311D01*
X009012Y005311D02*
X008902Y005311D01*
X008865Y005275D01*
X008865Y005201D01*
X008902Y005164D01*
X009012Y005164D01*
X009012Y005091D02*
X009012Y005311D01*
X008791Y005275D02*
X008754Y005311D01*
X008681Y005311D01*
X008644Y005275D01*
X008644Y005128D01*
X008681Y005091D01*
X008754Y005091D01*
X008791Y005128D01*
X008791Y005275D01*
X008717Y005164D02*
X008644Y005091D01*
X008865Y005091D02*
X008938Y005164D01*
X008901Y005682D02*
X008828Y005682D01*
X008791Y005718D01*
X008791Y005865D01*
X008828Y005902D01*
X008901Y005902D01*
X008938Y005865D01*
X008938Y005718D01*
X008901Y005682D01*
X009012Y005718D02*
X009012Y005865D01*
X009049Y005902D01*
X009159Y005902D01*
X009159Y005682D01*
X009049Y005682D01*
X009012Y005718D01*
X009233Y005718D02*
X009270Y005682D01*
X009343Y005682D01*
X009380Y005718D01*
X009343Y005792D02*
X009270Y005792D01*
X009233Y005755D01*
X009233Y005718D01*
X009343Y005792D02*
X009380Y005828D01*
X009380Y005865D01*
X009343Y005902D01*
X009270Y005902D01*
X009233Y005865D01*
X005209Y005828D02*
X005209Y005682D01*
X005209Y005828D02*
X005099Y005828D01*
X005062Y005792D01*
X005062Y005682D01*
X004988Y005718D02*
X004951Y005682D01*
X004878Y005682D01*
X004841Y005718D01*
X004841Y005755D01*
X004878Y005792D01*
X004951Y005792D01*
X004988Y005828D01*
X004988Y005865D01*
X004951Y005902D01*
X004878Y005902D01*
X004841Y005865D01*
X004767Y005902D02*
X004767Y005682D01*
X004620Y005682D01*
X004546Y005682D02*
X004399Y005682D01*
X004546Y005682D02*
X004546Y005902D01*
X004620Y005902D02*
X004767Y005902D01*
X004767Y005792D02*
X004694Y005792D01*
X004681Y005114D02*
X004754Y005114D01*
X004791Y005078D01*
X004791Y004931D01*
X004754Y004894D01*
X004681Y004894D01*
X004644Y004931D01*
X004570Y004968D02*
X004423Y005114D01*
X004570Y005114D02*
X004570Y004894D01*
X004533Y005004D02*
X004423Y004894D01*
X004644Y005078D02*
X004681Y005114D01*
X004865Y005078D02*
X004902Y005114D01*
X004975Y005114D01*
X005012Y005078D01*
X005012Y005041D01*
X004975Y005004D01*
X004902Y005004D01*
X004865Y004968D01*
X004865Y004931D01*
X004902Y004894D01*
X004975Y004894D01*
X005012Y004931D01*
X004975Y004327D02*
X005012Y004290D01*
X005012Y004254D01*
X004975Y004217D01*
X004902Y004217D01*
X004865Y004180D01*
X004865Y004144D01*
X004902Y004107D01*
X004975Y004107D01*
X005012Y004144D01*
X004975Y004327D02*
X004902Y004327D01*
X004865Y004290D01*
X004791Y004327D02*
X004681Y004327D01*
X004644Y004290D01*
X004644Y004144D01*
X004681Y004107D01*
X004791Y004107D01*
X004791Y004327D01*
X004570Y004327D02*
X004497Y004327D01*
X004533Y004327D02*
X004533Y004107D01*
X004497Y004107D02*
X004570Y004107D01*
X004546Y003540D02*
X004546Y003319D01*
X004694Y003319D02*
X004694Y003540D01*
X004620Y003540D02*
X004473Y003540D01*
X004694Y003319D02*
X004841Y003540D01*
X004841Y003319D01*
X004915Y003319D02*
X004988Y003319D01*
X004951Y003319D02*
X004951Y003540D01*
X004915Y003540D02*
X004988Y003540D01*
X005062Y003430D02*
X005062Y003319D01*
X005062Y003430D02*
X005099Y003466D01*
X005209Y003466D01*
X005209Y003319D01*
X004975Y002752D02*
X005012Y002716D01*
X005012Y002569D01*
X004975Y002532D01*
X004902Y002532D01*
X004865Y002569D01*
X004865Y002642D01*
X004939Y002642D01*
X004865Y002716D02*
X004902Y002752D01*
X004975Y002752D01*
X004791Y002752D02*
X004644Y002532D01*
X004644Y002752D01*
X004570Y002752D02*
X004460Y002752D01*
X004423Y002716D01*
X004423Y002569D01*
X004460Y002532D01*
X004570Y002532D01*
X004570Y002752D01*
X004791Y002752D02*
X004791Y002532D01*
X004865Y001965D02*
X004865Y001818D01*
X004939Y001745D01*
X005012Y001818D01*
X005012Y001965D01*
X004791Y001855D02*
X004754Y001891D01*
X004644Y001891D01*
X004644Y001965D02*
X004644Y001745D01*
X004754Y001745D01*
X004791Y001781D01*
X004791Y001855D01*
X004570Y001855D02*
X004533Y001891D01*
X004423Y001891D01*
X004423Y001965D02*
X004423Y001745D01*
X004533Y001745D01*
X004570Y001781D01*
X004570Y001855D01*
X004570Y001177D02*
X004423Y001177D01*
X004497Y001177D02*
X004497Y000957D01*
X004644Y000957D02*
X004644Y001177D01*
X004791Y001177D02*
X004644Y000957D01*
X004791Y000957D02*
X004791Y001177D01*
X004865Y001104D02*
X004865Y000957D01*
X004865Y001067D02*
X005012Y001067D01*
X005012Y001104D02*
X004939Y001177D01*
X004865Y001104D01*
X005012Y001104D02*
X005012Y000957D01*
X008570Y001978D02*
X008607Y001941D01*
X008680Y001941D01*
X008717Y001978D01*
X008680Y002052D02*
X008607Y002052D01*
X008570Y002015D01*
X008570Y001978D01*
X008680Y002052D02*
X008717Y002088D01*
X008717Y002125D01*
X008680Y002162D01*
X008607Y002162D01*
X008570Y002125D01*
X008791Y002162D02*
X008938Y002162D01*
X008938Y001941D01*
X008791Y001941D01*
X008865Y002052D02*
X008938Y002052D01*
X009012Y002052D02*
X009049Y002015D01*
X009159Y002015D01*
X009086Y002015D02*
X009012Y001941D01*
X009012Y002052D02*
X009012Y002125D01*
X009049Y002162D01*
X009159Y002162D01*
X009159Y001941D01*
X009233Y001941D02*
X009233Y002052D01*
X009270Y002088D01*
X009380Y002088D01*
X009380Y001941D01*
X009343Y002532D02*
X009270Y002532D01*
X009233Y002569D01*
X009159Y002532D02*
X009012Y002532D01*
X008938Y002532D02*
X008938Y002752D01*
X008901Y002642D02*
X008791Y002532D01*
X008938Y002605D02*
X008791Y002752D01*
X009159Y002752D02*
X009159Y002532D01*
X009343Y002532D02*
X009380Y002569D01*
X009380Y002716D01*
X009343Y002752D01*
X009270Y002752D01*
X009233Y002716D01*
X009270Y001177D02*
X009233Y001141D01*
X009270Y001177D02*
X009343Y001177D01*
X009380Y001141D01*
X009380Y000994D01*
X009343Y000957D01*
X009270Y000957D01*
X009233Y000994D01*
X009233Y001067D01*
X009307Y001067D01*
X009159Y000957D02*
X009159Y001177D01*
X009012Y000957D01*
X009012Y001177D01*
X008938Y001177D02*
X008828Y001177D01*
X008791Y001141D01*
X008791Y000994D01*
X008828Y000957D01*
X008938Y000957D01*
X008938Y001177D01*
D15*
X011796Y002144D02*
X011953Y002144D01*
X011953Y002656D01*
X012504Y002656D01*
X011953Y002656D02*
X011796Y002656D01*
X011953Y002144D02*
X012504Y002144D01*
D16*
X012090Y001995D02*
X012090Y001845D01*
X012015Y001845D01*
X011990Y001870D01*
X011990Y001970D01*
X012015Y001995D01*
X012090Y001995D01*
X011942Y001945D02*
X011892Y001995D01*
X011892Y001845D01*
X011942Y001845D02*
X011842Y001845D01*
M02*
