  0
SECTION
  2
HEADER
  9
$ACADVER
  1
AC1009
  9
$MEASUREMENT
 70
     1
  0
ENDSEC
  0
SECTION
  2
ENTITIES
  0
LWPOLYLINE
  8
0
 62
7
 90
5
 70
1
 10
31.943437
 20
5.715000
 10
31.943437
 20
6.128437
 10
31.316562
 20
6.128437
 10
31.316562
 20
5.301563
 10
31.943437
 20
5.301563
  0
LWPOLYLINE
  8
0
 62
7
 90
5
 70
1
 10
29.643437
 20
5.715000
 10
29.643437
 20
6.128437
 10
29.016562
 20
6.128437
 10
29.016562
 20
5.301563
 10
29.643437
 20
5.301563
  0
LWPOLYLINE
  8
0
 62
7
 90
5
 70
1
 10
29.146500
 20
7.923237
 10
28.043163
 20
7.923237
 10
28.043163
 20
7.316763
 10
30.249837
 20
7.316763
 10
30.249837
 20
7.923237
  0
LWPOLYLINE
  8
0
 62
7
 90
5
 70
1
 10
29.146500
 20
9.193238
 10
28.043163
 20
9.193238
 10
28.043163
 20
8.586763
 10
30.249837
 20
8.586763
 10
30.249837
 20
9.193238
  0
LWPOLYLINE
  8
0
 62
7
 90
5
 70
1
 10
29.146500
 20
10.463237
 10
28.043163
 20
10.463237
 10
28.043163
 20
9.856763
 10
30.249837
 20
9.856763
 10
30.249837
 20
10.463237
  0
LWPOLYLINE
  8
0
 62
7
 90
5
 70
1
 10
29.146500
 20
11.733237
 10
28.043163
 20
11.733237
 10
28.043163
 20
11.126762
 10
30.249837
 20
11.126762
 10
30.249837
 20
11.733237
  0
LWPOLYLINE
  8
0
 62
7
 90
5
 70
1
 10
29.146500
 20
13.003237
 10
28.043163
 20
13.003237
 10
28.043163
 20
12.396762
 10
30.249837
 20
12.396762
 10
30.249837
 20
13.003237
  0
LWPOLYLINE
  8
0
 62
7
 90
5
 70
1
 10
29.146500
 20
14.273238
 10
28.043163
 20
14.273238
 10
28.043163
 20
13.666763
 10
30.249837
 20
13.666763
 10
30.249837
 20
14.273238
  0
LWPOLYLINE
  8
0
 62
7
 90
5
 70
1
 10
29.146500
 20
15.543238
 10
28.043163
 20
15.543238
 10
28.043163
 20
14.936763
 10
30.249837
 20
14.936763
 10
30.249837
 20
15.543238
  0
LWPOLYLINE
  8
0
 62
7
 90
5
 70
1
 10
34.353500
 20
15.543238
 10
33.250162
 20
15.543238
 10
33.250162
 20
14.936763
 10
35.456837
 20
14.936763
 10
35.456837
 20
15.543238
  0
LWPOLYLINE
  8
0
 62
7
 90
5
 70
1
 10
34.353500
 20
14.273238
 10
33.250162
 20
14.273238
 10
33.250162
 20
13.666763
 10
35.456837
 20
13.666763
 10
35.456837
 20
14.273238
  0
LWPOLYLINE
  8
0
 62
7
 90
5
 70
1
 10
34.353500
 20
13.003237
 10
33.250162
 20
13.003237
 10
33.250162
 20
12.396762
 10
35.456837
 20
12.396762
 10
35.456837
 20
13.003237
  0
LWPOLYLINE
  8
0
 62
7
 90
5
 70
1
 10
34.353500
 20
11.733237
 10
33.250162
 20
11.733237
 10
33.250162
 20
11.126762
 10
35.456837
 20
11.126762
 10
35.456837
 20
11.733237
  0
LWPOLYLINE
  8
0
 62
7
 90
5
 70
1
 10
34.353500
 20
10.463237
 10
33.250162
 20
10.463237
 10
33.250162
 20
9.856763
 10
35.456837
 20
9.856763
 10
35.456837
 20
10.463237
  0
LWPOLYLINE
  8
0
 62
7
 90
5
 70
1
 10
34.353500
 20
9.193238
 10
33.250162
 20
9.193238
 10
33.250162
 20
8.586763
 10
35.456837
 20
8.586763
 10
35.456837
 20
9.193238
  0
LWPOLYLINE
  8
0
 62
7
 90
5
 70
1
 10
34.353500
 20
7.923237
 10
33.250162
 20
7.923237
 10
33.250162
 20
7.316763
 10
35.456837
 20
7.316763
 10
35.456837
 20
7.923237
  0
LWPOLYLINE
  8
0
 62
7
 90
5
 70
1
 10
25.240000
 20
13.776563
 10
26.738437
 20
13.776563
 10
26.738437
 20
15.273438
 10
23.741562
 20
15.273438
 10
23.741562
 20
13.776563
  0
LWPOLYLINE
  8
0
 62
7
 90
5
 70
1
 10
25.240000
 20
11.776563
 10
26.738437
 20
11.776563
 10
26.738437
 20
13.273438
 10
23.741562
 20
13.273438
 10
23.741562
 20
11.776563
  0
LWPOLYLINE
  8
0
 62
7
 90
5
 70
1
 10
25.240000
 20
9.776563
 10
26.738437
 20
9.776563
 10
26.738437
 20
11.273438
 10
23.741562
 20
11.273438
 10
23.741562
 20
9.776563
  0
LWPOLYLINE
  8
0
 62
7
 90
5
 70
1
 10
25.240000
 20
7.776563
 10
26.738437
 20
7.776563
 10
26.738437
 20
9.273438
 10
23.741562
 20
9.273438
 10
23.741562
 20
7.776563
  0
LWPOLYLINE
  8
0
 62
7
 90
5
 70
1
 10
25.240000
 20
5.776563
 10
26.738437
 20
5.776563
 10
26.738437
 20
7.273438
 10
23.741562
 20
7.273438
 10
23.741562
 20
5.776563
  0
LWPOLYLINE
  8
0
 62
7
 90
5
 70
1
 10
25.240000
 20
3.776563
 10
26.738437
 20
3.776562
 10
26.738437
 20
5.273438
 10
23.741562
 20
5.273438
 10
23.741562
 20
3.776563
  0
LWPOLYLINE
  8
0
 62
7
 90
5
 70
1
 10
25.240000
 20
1.776562
 10
26.738437
 20
1.776562
 10
26.738437
 20
3.273437
 10
23.741562
 20
3.273438
 10
23.741562
 20
1.776563
  0
LWPOLYLINE
  8
0
 62
7
 90
5
 70
1
 10
9.240000
 20
1.776562
 10
10.738437
 20
1.776562
 10
10.738437
 20
3.273437
 10
7.741563
 20
3.273438
 10
7.741563
 20
1.776563
  0
LWPOLYLINE
  8
0
 62
7
 90
5
 70
1
 10
9.240000
 20
3.776563
 10
10.738437
 20
3.776562
 10
10.738437
 20
5.273438
 10
7.741563
 20
5.273438
 10
7.741563
 20
3.776563
  0
LWPOLYLINE
  8
0
 62
7
 90
5
 70
1
 10
9.240000
 20
5.776563
 10
10.738437
 20
5.776563
 10
10.738437
 20
7.273438
 10
7.741563
 20
7.273438
 10
7.741563
 20
5.776563
  0
LWPOLYLINE
  8
0
 62
7
 90
5
 70
1
 10
9.240000
 20
7.776563
 10
10.738437
 20
7.776563
 10
10.738437
 20
9.273438
 10
7.741563
 20
9.273438
 10
7.741563
 20
7.776563
  0
LWPOLYLINE
  8
0
 62
7
 90
5
 70
1
 10
9.240000
 20
9.776563
 10
10.738437
 20
9.776563
 10
10.738437
 20
11.273438
 10
7.741563
 20
11.273438
 10
7.741563
 20
9.776563
  0
LWPOLYLINE
  8
0
 62
7
 90
5
 70
1
 10
9.240000
 20
11.776563
 10
10.738437
 20
11.776563
 10
10.738437
 20
13.273438
 10
7.741563
 20
13.273438
 10
7.741563
 20
11.776563
  0
LWPOLYLINE
  8
0
 62
7
 90
5
 70
1
 10
9.240000
 20
13.776563
 10
10.738437
 20
13.776563
 10
10.738437
 20
15.273438
 10
7.741563
 20
15.273438
 10
7.741563
 20
13.776563
  0
LWPOLYLINE
  8
0
 62
7
 90
5
 70
1
 10
41.910000
 20
19.175437
 10
40.260562
 20
19.175437
 10
40.260562
 20
17.654563
 10
43.559437
 20
17.654563
 10
43.559437
 20
19.175437
  0
LWPOLYLINE
  8
0
 62
7
 90
5
 70
1
 10
41.910000
 20
16.635437
 10
40.260562
 20
16.635437
 10
40.260562
 20
15.114562
 10
43.559437
 20
15.114562
 10
43.559437
 20
16.635437
  0
LWPOLYLINE
  8
0
 62
7
 90
5
 70
1
 10
41.910000
 20
14.095438
 10
40.260562
 20
14.095438
 10
40.260562
 20
12.574563
 10
43.559437
 20
12.574563
 10
43.559437
 20
14.095438
  0
ENDSEC
  0
EOF
