  0
SECTION
  2
HEADER
  9
$ACADVER
  1
AC1009
  9
$MEASUREMENT
 70
     1
  0
ENDSEC
  0
SECTION
  2
ENTITIES
  0
LWPOLYLINE
  8
0
 62
7
 90
5
 70
1
 10
37.008112
 20
15.240000
 10
37.008112
 20
14.440212
 10
38.175888
 20
14.440212
 10
38.175888
 20
16.039787
 10
37.008112
 20
16.039787
  0
LWPOLYLINE
  8
0
 62
7
 90
5
 70
1
 10
35.484112
 20
15.240000
 10
35.484112
 20
14.440212
 10
36.651888
 20
14.440212
 10
36.651888
 20
16.039787
 10
35.484112
 20
16.039787
  0
LWPOLYLINE
  8
0
 62
7
 90
5
 70
1
 10
27.940313
 20
9.525000
 10
27.940313
 20
6.985313
 10
33.019688
 20
6.985313
 10
33.019688
 20
12.064687
 10
27.940313
 20
12.064687
  0
LWPOLYLINE
  8
0
 62
7
 90
5
 70
1
 10
2.540313
 20
9.525000
 10
2.540312
 20
6.985313
 10
7.619687
 20
6.985313
 10
7.619687
 20
12.064687
 10
2.540313
 20
12.064687
  0
LWPOLYLINE
  8
0
 62
7
 90
5
 70
1
 10
15.748313
 20
9.525000
 10
15.748313
 20
7.493313
 10
19.811688
 20
7.493313
 10
19.811688
 20
11.556688
 10
15.748313
 20
11.556688
  0
LWPOLYLINE
  8
0
 62
7
 90
5
 70
1
 10
2.540000
 20
21.289687
 10
1.790313
 20
21.289687
 10
1.790313
 20
19.990313
 10
3.289687
 20
19.990313
 10
3.289687
 20
21.289687
  0
LWPOLYLINE
  8
0
 62
7
 90
5
 70
1
 10
2.540000
 20
23.189687
 10
1.790313
 20
23.189687
 10
1.790313
 20
21.890313
 10
3.289687
 20
21.890313
 10
3.289687
 20
23.189687
  0
LWPOLYLINE
  8
0
 62
7
 90
5
 70
1
 10
41.910000
 20
17.653312
 10
43.560688
 20
17.653312
 10
43.560688
 20
19.176687
 10
40.259312
 20
19.176687
 10
40.259312
 20
17.653312
  0
LWPOLYLINE
  8
0
 62
7
 90
5
 70
1
 10
41.910000
 20
12.573313
 10
43.560688
 20
12.573313
 10
43.560688
 20
14.096688
 10
40.259312
 20
14.096688
 10
40.259312
 20
12.573313
  0
LWPOLYLINE
  8
0
 62
7
 90
5
 70
1
 10
41.910000
 20
15.113312
 10
43.560688
 20
15.113312
 10
43.560688
 20
16.636688
 10
40.259312
 20
16.636688
 10
40.259312
 20
15.113312
  0
ENDSEC
  0
EOF
