%
M48
M72
T01C0.0236
T02C0.0240
T03C0.0400
T04C0.0520
T05C0.0787
T06C0.0984
%
T01
X16650Y8650
T02
X11331Y2748
X15977Y4796
X6725Y2433
X12355Y4126
X15465Y6134
X4678Y5111
X12433Y5937
X4678Y1174
X14993Y6134
X4717Y4323
X12945Y5898
X11331Y2079
X14796Y7394
X12906Y6882
X12355Y4835
X6764Y1252
X4678Y1685
X12945Y4126
T03
X15150Y4150
X16150Y4150
X15150Y3150
X16150Y3150
X15150Y2150
X16150Y2150
X15150Y1150
X16150Y1150
T04
X1400Y3150
T05
X5200Y7650
X13600Y7650
T06
X12748Y1233
X4874Y10485
X1650Y7650
M30
