  0
SECTION
  2
HEADER
  9
$ACADVER
  1
AC1009
  9
$MEASUREMENT
 70
     1
  0
ENDSEC
  0
SECTION
  2
ENTITIES
  0
LWPOLYLINE
  8
0
 62
7
 90
5
 70
1
 10
34.131562
 20
19.989800
 10
34.131562
 20
19.710712
 10
35.451738
 20
19.710712
 10
35.451738
 20
20.268887
 10
34.131562
 20
20.268887
  0
LWPOLYLINE
  8
0
 62
7
 90
5
 70
1
 10
34.131562
 20
19.050000
 10
34.131562
 20
18.770913
 10
35.451738
 20
18.770913
 10
35.451738
 20
19.329087
 10
34.131562
 20
19.329087
  0
LWPOLYLINE
  8
0
 62
7
 90
5
 70
1
 10
34.131562
 20
18.110200
 10
34.131562
 20
17.831112
 10
35.451738
 20
17.831112
 10
35.451738
 20
18.389287
 10
34.131562
 20
18.389287
  0
LWPOLYLINE
  8
0
 62
7
 90
5
 70
1
 10
31.540763
 20
18.110200
 10
31.540763
 20
17.831112
 10
32.860938
 20
17.831112
 10
32.860938
 20
18.389287
 10
31.540763
 20
18.389287
  0
LWPOLYLINE
  8
0
 62
7
 90
5
 70
1
 10
31.540763
 20
19.050000
 10
31.540763
 20
18.770913
 10
32.860938
 20
18.770913
 10
32.860938
 20
19.329087
 10
31.540763
 20
19.329087
  0
LWPOLYLINE
  8
0
 62
7
 90
5
 70
1
 10
31.540763
 20
19.989800
 10
31.540763
 20
19.710712
 10
32.860938
 20
19.710712
 10
32.860938
 20
20.268887
 10
31.540763
 20
20.268887
  0
LWPOLYLINE
  8
0
 62
7
 90
5
 70
1
 10
35.560000
 20
25.800313
 10
36.159688
 20
25.800313
 10
36.159688
 20
27.799688
 10
34.960313
 20
27.799688
 10
34.960313
 20
25.800313
  0
LWPOLYLINE
  8
0
 62
7
 90
5
 70
1
 10
35.560000
 20
23.000312
 10
36.159688
 20
23.000312
 10
36.159688
 20
24.999688
 10
34.960313
 20
24.999688
 10
34.960313
 20
23.000312
  0
LWPOLYLINE
  8
0
 62
7
 90
5
 70
1
 10
27.940000
 20
25.750312
 10
28.739688
 20
25.750312
 10
28.739688
 20
27.049687
 10
27.140313
 20
27.049687
 10
27.140313
 20
25.750312
  0
LWPOLYLINE
  8
0
 62
7
 90
5
 70
1
 10
27.940000
 20
23.750312
 10
28.739688
 20
23.750312
 10
28.739688
 20
25.049687
 10
27.140313
 20
25.049687
 10
27.140313
 20
23.750312
  0
LWPOLYLINE
  8
0
 62
7
 90
5
 70
1
 10
40.289687
 20
20.955000
 10
40.289687
 20
21.754687
 10
38.990313
 20
21.754687
 10
38.990313
 20
20.155312
 10
40.289687
 20
20.155312
  0
LWPOLYLINE
  8
0
 62
7
 90
5
 70
1
 10
42.289687
 20
20.955000
 10
42.289687
 20
21.754687
 10
40.990313
 20
21.754687
 10
40.990313
 20
20.155312
 10
42.289687
 20
20.155312
  0
LWPOLYLINE
  8
0
 62
7
 90
5
 70
1
 10
30.480000
 20
25.750312
 10
31.279688
 20
25.750312
 10
31.279688
 20
27.049687
 10
29.680312
 20
27.049687
 10
29.680312
 20
25.750312
  0
LWPOLYLINE
  8
0
 62
7
 90
5
 70
1
 10
30.480000
 20
23.750312
 10
31.279688
 20
23.750312
 10
31.279688
 20
25.049687
 10
29.680312
 20
25.049687
 10
29.680312
 20
23.750312
  0
LWPOLYLINE
  8
0
 62
7
 90
5
 70
1
 10
33.020000
 20
25.750312
 10
33.819688
 20
25.750312
 10
33.819688
 20
27.049687
 10
32.220313
 20
27.049687
 10
32.220313
 20
25.750312
  0
LWPOLYLINE
  8
0
 62
7
 90
5
 70
1
 10
33.020000
 20
23.750312
 10
33.819688
 20
23.750312
 10
33.819688
 20
25.049687
 10
32.220313
 20
25.049687
 10
32.220313
 20
23.750312
  0
LWPOLYLINE
  8
0
 62
7
 90
5
 70
1
 10
29.510313
 20
21.590000
 10
29.510313
 20
20.840312
 10
30.809687
 20
20.840312
 10
30.809687
 20
22.339688
 10
29.510313
 20
22.339688
  0
LWPOLYLINE
  8
0
 62
7
 90
5
 70
1
 10
27.610313
 20
21.590000
 10
27.610313
 20
20.840312
 10
28.909688
 20
20.840312
 10
28.909688
 20
22.339688
 10
27.610313
 20
22.339688
  0
LWPOLYLINE
  8
0
 62
7
 90
5
 70
1
 10
28.909688
 20
19.050000
 10
28.909688
 20
19.799688
 10
27.610313
 20
19.799688
 10
27.610313
 20
18.300313
 10
28.909688
 20
18.300313
  0
LWPOLYLINE
  8
0
 62
7
 90
5
 70
1
 10
30.809687
 20
19.050000
 10
30.809687
 20
19.799688
 10
29.510313
 20
19.799688
 10
29.510313
 20
18.300313
 10
30.809687
 20
18.300313
  0
LWPOLYLINE
  8
0
 62
7
 90
5
 70
1
 10
12.365312
 20
1.905000
 10
12.365312
 20
1.155312
 10
13.664688
 20
1.155312
 10
13.664688
 20
2.654688
 10
12.365312
 20
2.654688
  0
LWPOLYLINE
  8
0
 62
7
 90
5
 70
1
 10
10.465312
 20
1.905000
 10
10.465312
 20
1.155312
 10
11.764688
 20
1.155312
 10
11.764688
 20
2.654688
 10
10.465312
 20
2.654688
  0
LWPOLYLINE
  8
0
 62
7
 90
5
 70
1
 10
16.810313
 20
1.905000
 10
16.810313
 20
1.155312
 10
18.109687
 20
1.155312
 10
18.109687
 20
2.654688
 10
16.810313
 20
2.654688
  0
LWPOLYLINE
  8
0
 62
7
 90
5
 70
1
 10
14.910312
 20
1.905000
 10
14.910312
 20
1.155312
 10
16.209688
 20
1.155312
 10
16.209688
 20
2.654688
 10
14.910312
 20
2.654688
  0
LWPOLYLINE
  8
0
 62
7
 90
5
 70
1
 10
24.810000
 20
3.539687
 10
24.260312
 20
3.539687
 10
24.260312
 20
1.540313
 10
25.359687
 20
1.540313
 10
25.359687
 20
3.539687
  0
LWPOLYLINE
  8
0
 62
7
 90
5
 70
1
 10
20.910000
 20
3.539687
 10
20.360312
 20
3.539687
 10
20.360312
 20
1.540313
 10
21.459688
 20
1.540313
 10
21.459688
 20
3.539687
  0
LWPOLYLINE
  8
0
 62
7
 90
5
 70
1
 10
23.970000
 20
22.030313
 10
25.469687
 20
22.030313
 10
25.469687
 20
23.529688
 10
22.470312
 20
23.529688
 10
22.470312
 20
22.030313
  0
LWPOLYLINE
  8
0
 62
7
 90
5
 70
1
 10
23.970000
 20
20.030313
 10
25.469687
 20
20.030313
 10
25.469687
 20
21.529688
 10
22.470312
 20
21.529688
 10
22.470312
 20
20.030313
  0
LWPOLYLINE
  8
0
 62
7
 90
5
 70
1
 10
23.970000
 20
10.030312
 10
25.469687
 20
10.030312
 10
25.469687
 20
11.529687
 10
22.470312
 20
11.529687
 10
22.470312
 20
10.030312
  0
LWPOLYLINE
  8
0
 62
7
 90
5
 70
1
 10
7.970000
 20
10.030312
 10
9.469687
 20
10.030312
 10
9.469687
 20
11.529687
 10
6.470312
 20
11.529687
 10
6.470312
 20
10.030312
  0
LWPOLYLINE
  8
0
 62
7
 90
5
 70
1
 10
7.970000
 20
12.030312
 10
9.469687
 20
12.030312
 10
9.469687
 20
13.529687
 10
6.470312
 20
13.529687
 10
6.470312
 20
12.030312
  0
LWPOLYLINE
  8
0
 62
7
 90
5
 70
1
 10
7.970000
 20
14.030312
 10
9.469687
 20
14.030312
 10
9.469687
 20
15.529687
 10
6.470312
 20
15.529687
 10
6.470312
 20
14.030312
  0
LWPOLYLINE
  8
0
 62
7
 90
5
 70
1
 10
7.970000
 20
18.030313
 10
9.469687
 20
18.030313
 10
9.469687
 20
19.529688
 10
6.470312
 20
19.529688
 10
6.470312
 20
18.030313
  0
LWPOLYLINE
  8
0
 62
7
 90
5
 70
1
 10
7.970000
 20
20.030313
 10
9.469687
 20
20.030313
 10
9.469687
 20
21.529688
 10
6.470312
 20
21.529688
 10
6.470312
 20
20.030313
  0
LWPOLYLINE
  8
0
 62
7
 90
5
 70
1
 10
7.970000
 20
22.030313
 10
9.469687
 20
22.030313
 10
9.469687
 20
23.529688
 10
6.470312
 20
23.529688
 10
6.470312
 20
22.030313
  0
LWPOLYLINE
  8
0
 62
7
 90
5
 70
1
 10
41.910000
 20
12.573313
 10
43.560688
 20
12.573313
 10
43.560688
 20
14.096688
 10
40.259312
 20
14.096688
 10
40.259312
 20
12.573313
  0
LWPOLYLINE
  8
0
 62
7
 90
5
 70
1
 10
41.910000
 20
15.113312
 10
43.560688
 20
15.113312
 10
43.560688
 20
16.636688
 10
40.259312
 20
16.636688
 10
40.259312
 20
15.113312
  0
LWPOLYLINE
  8
0
 62
7
 90
5
 70
1
 10
41.910000
 20
17.653312
 10
43.560688
 20
17.653312
 10
43.560688
 20
19.176687
 10
40.259312
 20
19.176687
 10
40.259312
 20
17.653312
  0
ENDSEC
  0
EOF
