  0
SECTION
  2
HEADER
  9
$ACADVER
  1
AC1009
  9
$MEASUREMENT
 70
     1
  0
ENDSEC
  0
SECTION
  2
ENTITIES
  0
LWPOLYLINE
  8
0
 62
7
 90
5
 70
1
 10
27.941562
 20
9.525000
 10
27.941562
 20
6.986562
 10
33.018437
 20
6.986562
 10
33.018437
 20
12.063438
 10
27.941562
 20
12.063438
  0
LWPOLYLINE
  8
0
 62
7
 90
5
 70
1
 10
2.541562
 20
9.525000
 10
2.541562
 20
6.986562
 10
7.618438
 20
6.986562
 10
7.618438
 20
12.063438
 10
2.541563
 20
12.063438
  0
LWPOLYLINE
  8
0
 62
7
 90
5
 70
1
 10
15.749563
 20
9.525000
 10
15.749563
 20
7.494563
 10
19.810438
 20
7.494563
 10
19.810438
 20
11.555438
 10
15.749563
 20
11.555438
  0
LWPOLYLINE
  8
0
 62
7
 90
5
 70
1
 10
41.910000
 20
17.654563
 10
43.559437
 20
17.654563
 10
43.559437
 20
19.175437
 10
40.260562
 20
19.175437
 10
40.260562
 20
17.654563
  0
LWPOLYLINE
  8
0
 62
7
 90
5
 70
1
 10
41.910000
 20
12.574563
 10
43.559437
 20
12.574563
 10
43.559437
 20
14.095438
 10
40.260562
 20
14.095438
 10
40.260562
 20
12.574563
  0
LWPOLYLINE
  8
0
 62
7
 90
5
 70
1
 10
41.910000
 20
15.114562
 10
43.559437
 20
15.114562
 10
43.559437
 20
16.635437
 10
40.260562
 20
16.635437
 10
40.260562
 20
15.114562
  0
ENDSEC
  0
EOF
