G75*
%MOIN*%
%OFA0B0*%
%FSLAX24Y24*%
%IPPOS*%
%LPD*%
%AMOC8*
5,1,8,0,0,1.08239X$1,22.5*
%
%ADD10C,0.0000*%
%ADD11R,0.0870X0.0240*%
%ADD12OC8,0.1500*%
%ADD13R,0.1181X0.0591*%
%ADD14OC8,0.0600*%
%ADD15R,0.0248X0.0327*%
%ADD16OC8,0.1000*%
%ADD17R,0.1300X0.0600*%
%ADD18C,0.0100*%
%ADD19C,0.0356*%
%ADD20C,0.0080*%
%ADD21C,0.0360*%
D10*
X002650Y001400D02*
X002648Y001454D01*
X002642Y001507D01*
X002633Y001559D01*
X002620Y001611D01*
X002603Y001662D01*
X002582Y001712D01*
X002558Y001759D01*
X002531Y001805D01*
X002500Y001849D01*
X002467Y001891D01*
X002430Y001930D01*
X002391Y001967D01*
X002349Y002000D01*
X002305Y002031D01*
X002259Y002058D01*
X002212Y002082D01*
X002162Y002103D01*
X002111Y002120D01*
X002059Y002133D01*
X002007Y002142D01*
X001954Y002148D01*
X001900Y002150D01*
X000150Y002150D01*
X000150Y011256D01*
X000150Y011150D02*
X000152Y011194D01*
X000158Y011237D01*
X000167Y011279D01*
X000180Y011321D01*
X000197Y011361D01*
X000217Y011400D01*
X000240Y011437D01*
X000267Y011471D01*
X000296Y011504D01*
X000329Y011533D01*
X000363Y011560D01*
X000400Y011583D01*
X000439Y011603D01*
X000479Y011620D01*
X000521Y011633D01*
X000563Y011642D01*
X000606Y011648D01*
X000650Y011650D01*
X014650Y011650D01*
X014680Y011648D01*
X014710Y011643D01*
X014739Y011634D01*
X014766Y011621D01*
X014792Y011606D01*
X014816Y011587D01*
X014837Y011566D01*
X014856Y011542D01*
X014871Y011516D01*
X014884Y011489D01*
X014893Y011460D01*
X014898Y011430D01*
X014900Y011400D01*
X014900Y010400D01*
X014902Y010346D01*
X014908Y010293D01*
X014917Y010241D01*
X014930Y010189D01*
X014947Y010138D01*
X014968Y010088D01*
X014992Y010041D01*
X015019Y009995D01*
X015050Y009951D01*
X015083Y009909D01*
X015120Y009870D01*
X015159Y009833D01*
X015201Y009800D01*
X015245Y009769D01*
X015291Y009742D01*
X015338Y009718D01*
X015388Y009697D01*
X015439Y009680D01*
X015491Y009667D01*
X015543Y009658D01*
X015596Y009652D01*
X015650Y009650D01*
X017400Y009650D01*
X017400Y000544D01*
X017398Y000505D01*
X017392Y000467D01*
X017383Y000430D01*
X017370Y000393D01*
X017353Y000358D01*
X017334Y000325D01*
X017311Y000294D01*
X017285Y000265D01*
X017256Y000239D01*
X017225Y000216D01*
X017192Y000197D01*
X017157Y000180D01*
X017120Y000167D01*
X017083Y000158D01*
X017045Y000152D01*
X017006Y000150D01*
X017150Y000150D02*
X002900Y000150D01*
X002870Y000152D01*
X002840Y000157D01*
X002811Y000166D01*
X002784Y000179D01*
X002758Y000194D01*
X002734Y000213D01*
X002713Y000234D01*
X002694Y000258D01*
X002679Y000284D01*
X002666Y000311D01*
X002657Y000340D01*
X002652Y000370D01*
X002650Y000400D01*
X002650Y001400D01*
X001158Y007650D02*
X001160Y007694D01*
X001166Y007738D01*
X001176Y007781D01*
X001189Y007823D01*
X001207Y007863D01*
X001228Y007902D01*
X001252Y007939D01*
X001279Y007974D01*
X001310Y008006D01*
X001343Y008035D01*
X001379Y008061D01*
X001417Y008083D01*
X001457Y008102D01*
X001498Y008118D01*
X001541Y008130D01*
X001584Y008138D01*
X001628Y008142D01*
X001672Y008142D01*
X001716Y008138D01*
X001759Y008130D01*
X001802Y008118D01*
X001843Y008102D01*
X001883Y008083D01*
X001921Y008061D01*
X001957Y008035D01*
X001990Y008006D01*
X002021Y007974D01*
X002048Y007939D01*
X002072Y007902D01*
X002093Y007863D01*
X002111Y007823D01*
X002124Y007781D01*
X002134Y007738D01*
X002140Y007694D01*
X002142Y007650D01*
X002140Y007606D01*
X002134Y007562D01*
X002124Y007519D01*
X002111Y007477D01*
X002093Y007437D01*
X002072Y007398D01*
X002048Y007361D01*
X002021Y007326D01*
X001990Y007294D01*
X001957Y007265D01*
X001921Y007239D01*
X001883Y007217D01*
X001843Y007198D01*
X001802Y007182D01*
X001759Y007170D01*
X001716Y007162D01*
X001672Y007158D01*
X001628Y007158D01*
X001584Y007162D01*
X001541Y007170D01*
X001498Y007182D01*
X001457Y007198D01*
X001417Y007217D01*
X001379Y007239D01*
X001343Y007265D01*
X001310Y007294D01*
X001279Y007326D01*
X001252Y007361D01*
X001228Y007398D01*
X001207Y007437D01*
X001189Y007477D01*
X001176Y007519D01*
X001166Y007562D01*
X001160Y007606D01*
X001158Y007650D01*
X004382Y010485D02*
X004384Y010529D01*
X004390Y010573D01*
X004400Y010616D01*
X004413Y010658D01*
X004431Y010698D01*
X004452Y010737D01*
X004476Y010774D01*
X004503Y010809D01*
X004534Y010841D01*
X004567Y010870D01*
X004603Y010896D01*
X004641Y010918D01*
X004681Y010937D01*
X004722Y010953D01*
X004765Y010965D01*
X004808Y010973D01*
X004852Y010977D01*
X004896Y010977D01*
X004940Y010973D01*
X004983Y010965D01*
X005026Y010953D01*
X005067Y010937D01*
X005107Y010918D01*
X005145Y010896D01*
X005181Y010870D01*
X005214Y010841D01*
X005245Y010809D01*
X005272Y010774D01*
X005296Y010737D01*
X005317Y010698D01*
X005335Y010658D01*
X005348Y010616D01*
X005358Y010573D01*
X005364Y010529D01*
X005366Y010485D01*
X005364Y010441D01*
X005358Y010397D01*
X005348Y010354D01*
X005335Y010312D01*
X005317Y010272D01*
X005296Y010233D01*
X005272Y010196D01*
X005245Y010161D01*
X005214Y010129D01*
X005181Y010100D01*
X005145Y010074D01*
X005107Y010052D01*
X005067Y010033D01*
X005026Y010017D01*
X004983Y010005D01*
X004940Y009997D01*
X004896Y009993D01*
X004852Y009993D01*
X004808Y009997D01*
X004765Y010005D01*
X004722Y010017D01*
X004681Y010033D01*
X004641Y010052D01*
X004603Y010074D01*
X004567Y010100D01*
X004534Y010129D01*
X004503Y010161D01*
X004476Y010196D01*
X004452Y010233D01*
X004431Y010272D01*
X004413Y010312D01*
X004400Y010354D01*
X004390Y010397D01*
X004384Y010441D01*
X004382Y010485D01*
X012256Y001233D02*
X012258Y001277D01*
X012264Y001321D01*
X012274Y001364D01*
X012287Y001406D01*
X012305Y001446D01*
X012326Y001485D01*
X012350Y001522D01*
X012377Y001557D01*
X012408Y001589D01*
X012441Y001618D01*
X012477Y001644D01*
X012515Y001666D01*
X012555Y001685D01*
X012596Y001701D01*
X012639Y001713D01*
X012682Y001721D01*
X012726Y001725D01*
X012770Y001725D01*
X012814Y001721D01*
X012857Y001713D01*
X012900Y001701D01*
X012941Y001685D01*
X012981Y001666D01*
X013019Y001644D01*
X013055Y001618D01*
X013088Y001589D01*
X013119Y001557D01*
X013146Y001522D01*
X013170Y001485D01*
X013191Y001446D01*
X013209Y001406D01*
X013222Y001364D01*
X013232Y001321D01*
X013238Y001277D01*
X013240Y001233D01*
X013238Y001189D01*
X013232Y001145D01*
X013222Y001102D01*
X013209Y001060D01*
X013191Y001020D01*
X013170Y000981D01*
X013146Y000944D01*
X013119Y000909D01*
X013088Y000877D01*
X013055Y000848D01*
X013019Y000822D01*
X012981Y000800D01*
X012941Y000781D01*
X012900Y000765D01*
X012857Y000753D01*
X012814Y000745D01*
X012770Y000741D01*
X012726Y000741D01*
X012682Y000745D01*
X012639Y000753D01*
X012596Y000765D01*
X012555Y000781D01*
X012515Y000800D01*
X012477Y000822D01*
X012441Y000848D01*
X012408Y000877D01*
X012377Y000909D01*
X012350Y000944D01*
X012326Y000981D01*
X012305Y001020D01*
X012287Y001060D01*
X012274Y001102D01*
X012264Y001145D01*
X012258Y001189D01*
X012256Y001233D01*
D11*
X011625Y003150D03*
X011625Y003650D03*
X011625Y004150D03*
X011625Y004650D03*
X011625Y005150D03*
X011625Y005650D03*
X011625Y006150D03*
X013675Y006150D03*
X013675Y005650D03*
X013675Y005150D03*
X013675Y004650D03*
X013675Y004150D03*
X013675Y003650D03*
X013675Y003150D03*
D12*
X013600Y007650D03*
X005200Y007650D03*
D13*
X003788Y005869D03*
X003788Y005081D03*
X003788Y004294D03*
X003788Y003506D03*
X003788Y002719D03*
X003788Y001931D03*
X003788Y001144D03*
X010087Y001144D03*
X010087Y001931D03*
X010087Y002719D03*
X010087Y003506D03*
X010087Y004294D03*
X010087Y005081D03*
X010087Y005869D03*
D14*
X015150Y004150D03*
X016150Y004150D03*
X016150Y003150D03*
X015150Y003150D03*
X015150Y002150D03*
X016150Y002150D03*
X016150Y001150D03*
X015150Y001150D03*
D15*
X012603Y002400D03*
X011697Y002400D03*
D16*
X001400Y003150D03*
D17*
X016650Y005400D03*
X016650Y006400D03*
X016650Y007400D03*
D18*
X016650Y008650D01*
X017250Y008621D02*
X000300Y008621D01*
X000300Y008523D02*
X017250Y008523D01*
X017250Y008424D02*
X014042Y008424D01*
X013956Y008510D02*
X013244Y008510D01*
X012740Y008006D01*
X012740Y007830D01*
X006060Y007830D01*
X006060Y008006D01*
X005556Y008510D01*
X004844Y008510D01*
X004340Y008006D01*
X004340Y007294D01*
X004844Y006790D01*
X005556Y006790D01*
X006060Y007294D01*
X006060Y007510D01*
X012740Y007510D01*
X012740Y007294D01*
X012861Y007172D01*
X012848Y007172D01*
X012742Y007128D01*
X012660Y007047D01*
X012616Y006940D01*
X012616Y006825D01*
X012656Y006727D01*
X011973Y006727D01*
X011626Y006380D01*
X011144Y006380D01*
X011080Y006316D01*
X011080Y006294D01*
X010320Y006294D01*
X010299Y006274D01*
X009451Y006274D01*
X009386Y006209D01*
X009386Y005528D01*
X009439Y005475D01*
X009386Y005422D01*
X009386Y004740D01*
X009439Y004687D01*
X009386Y004635D01*
X009386Y003953D01*
X009439Y003900D01*
X009386Y003847D01*
X009386Y003165D01*
X009439Y003113D01*
X009386Y003060D01*
X009386Y002378D01*
X009439Y002325D01*
X009386Y002272D01*
X009386Y001591D01*
X009413Y001564D01*
X009404Y001559D01*
X009376Y001531D01*
X009357Y001497D01*
X009346Y001459D01*
X009346Y001194D01*
X010037Y001194D01*
X010037Y001094D01*
X010137Y001094D01*
X010137Y000699D01*
X010697Y000699D01*
X010735Y000709D01*
X010770Y000729D01*
X010798Y000757D01*
X010817Y000791D01*
X010828Y000829D01*
X010828Y001094D01*
X010137Y001094D01*
X010137Y001194D01*
X010828Y001194D01*
X010828Y001459D01*
X010817Y001497D01*
X010798Y001531D01*
X010770Y001559D01*
X010761Y001564D01*
X010788Y001591D01*
X010788Y002272D01*
X010735Y002325D01*
X010788Y002378D01*
X010788Y003060D01*
X010735Y003113D01*
X010788Y003165D01*
X010788Y003847D01*
X010735Y003900D01*
X010788Y003953D01*
X010788Y004635D01*
X010735Y004687D01*
X010788Y004740D01*
X010788Y004990D01*
X011080Y004990D01*
X011080Y004984D01*
X011144Y004920D01*
X012076Y004920D01*
X012065Y004893D01*
X012065Y004880D01*
X011144Y004880D01*
X011080Y004816D01*
X011080Y004574D01*
X010817Y004311D01*
X010817Y002525D01*
X010910Y002431D01*
X010910Y002431D01*
X011092Y002250D01*
X011085Y002243D01*
X011041Y002137D01*
X011041Y002021D01*
X011085Y001915D01*
X011167Y001833D01*
X011273Y001789D01*
X011389Y001789D01*
X011495Y001833D01*
X011577Y001915D01*
X011621Y002021D01*
X011621Y002103D01*
X011644Y002127D01*
X011867Y002127D01*
X011931Y002191D01*
X011931Y002609D01*
X011867Y002673D01*
X011614Y002673D01*
X011621Y002691D01*
X011621Y002806D01*
X011619Y002810D01*
X011729Y002920D01*
X012106Y002920D01*
X012170Y002984D01*
X012170Y003316D01*
X012106Y003380D01*
X011144Y003380D01*
X011137Y003372D01*
X011137Y003428D01*
X011144Y003420D01*
X012106Y003420D01*
X012123Y003437D01*
X012638Y002923D01*
X012638Y002687D01*
X012636Y002688D01*
X012596Y002719D01*
X012579Y002717D01*
X012563Y002724D01*
X012515Y002708D01*
X012464Y002701D01*
X012454Y002687D01*
X012438Y002682D01*
X012433Y002673D01*
X012369Y002609D01*
X012369Y002576D01*
X010872Y000611D01*
X009341Y000611D01*
X009090Y001281D01*
X009090Y001319D01*
X009067Y001341D01*
X009056Y001371D01*
X009022Y001386D01*
X008996Y001412D01*
X008964Y001412D01*
X008935Y001425D01*
X008900Y001412D01*
X007012Y001412D01*
X007010Y001417D01*
X006928Y001498D01*
X006822Y001542D01*
X006706Y001542D01*
X006600Y001498D01*
X006518Y001417D01*
X006474Y001310D01*
X006474Y001195D01*
X006518Y001088D01*
X006600Y001007D01*
X006706Y000962D01*
X006822Y000962D01*
X006928Y001007D01*
X007010Y001088D01*
X007012Y001092D01*
X008819Y001092D01*
X009071Y000422D01*
X009071Y000385D01*
X009093Y000363D01*
X009104Y000333D01*
X009138Y000317D01*
X009156Y000300D01*
X002900Y000300D01*
X002874Y000303D01*
X002829Y000329D01*
X002803Y000374D01*
X002800Y000400D01*
X002800Y001543D01*
X002712Y001814D01*
X002544Y002044D01*
X002314Y002212D01*
X002314Y002212D01*
X002043Y002300D01*
X000300Y002300D01*
X000300Y011150D01*
X000307Y011218D01*
X000359Y011344D01*
X000456Y011441D01*
X000582Y011493D01*
X000650Y011500D01*
X014650Y011500D01*
X014676Y011497D01*
X014721Y011471D01*
X014747Y011426D01*
X014750Y011400D01*
X014750Y010257D01*
X014838Y009986D01*
X015006Y009756D01*
X015236Y009588D01*
X015236Y009588D01*
X015507Y009500D01*
X017250Y009500D01*
X017250Y007850D01*
X016700Y007850D01*
X016700Y007450D01*
X016600Y007450D01*
X016600Y007850D01*
X015980Y007850D01*
X015942Y007840D01*
X015908Y007820D01*
X015880Y007792D01*
X015860Y007758D01*
X015850Y007720D01*
X015850Y007450D01*
X016600Y007450D01*
X016600Y007350D01*
X016700Y007350D01*
X016700Y006950D01*
X017250Y006950D01*
X017250Y006810D01*
X015954Y006810D01*
X015890Y006746D01*
X015890Y006570D01*
X015728Y006570D01*
X015664Y006634D01*
X015571Y006727D01*
X014355Y006727D01*
X014734Y007106D01*
X014738Y007104D01*
X014853Y007104D01*
X014960Y007148D01*
X015042Y007230D01*
X015086Y007336D01*
X015086Y007452D01*
X015042Y007558D01*
X014960Y007640D01*
X014853Y007684D01*
X014738Y007684D01*
X014631Y007640D01*
X014550Y007558D01*
X014506Y007452D01*
X014506Y007336D01*
X014507Y007332D01*
X014099Y006924D01*
X014090Y006924D01*
X014460Y007294D01*
X014460Y008006D01*
X013956Y008510D01*
X014141Y008326D02*
X017250Y008326D01*
X017250Y008227D02*
X014239Y008227D01*
X014338Y008129D02*
X017250Y008129D01*
X017250Y008030D02*
X014436Y008030D01*
X014460Y007932D02*
X017250Y007932D01*
X016700Y007833D02*
X016600Y007833D01*
X016600Y007735D02*
X016700Y007735D01*
X016700Y007636D02*
X016600Y007636D01*
X016600Y007538D02*
X016700Y007538D01*
X016600Y007439D02*
X015086Y007439D01*
X015086Y007341D02*
X015850Y007341D01*
X015850Y007350D02*
X015850Y007080D01*
X015860Y007042D01*
X015880Y007008D01*
X015908Y006980D01*
X015942Y006960D01*
X015980Y006950D01*
X016600Y006950D01*
X016600Y007350D01*
X015850Y007350D01*
X015850Y007242D02*
X015047Y007242D01*
X014949Y007144D02*
X015850Y007144D01*
X015859Y007045D02*
X014673Y007045D01*
X014574Y006947D02*
X017250Y006947D01*
X017250Y006848D02*
X014476Y006848D01*
X014377Y006750D02*
X015894Y006750D01*
X015890Y006651D02*
X015647Y006651D01*
X015504Y006567D02*
X012040Y006567D01*
X011646Y006174D01*
X011625Y006150D01*
X011607Y006134D01*
X010386Y006134D01*
X010111Y005859D01*
X010087Y005869D01*
X009386Y005863D02*
X004624Y005863D01*
X004562Y005925D02*
X004488Y005999D01*
X004488Y006209D01*
X004424Y006274D01*
X003152Y006274D01*
X003087Y006209D01*
X003087Y005528D01*
X003140Y005475D01*
X003087Y005422D01*
X003087Y004740D01*
X003140Y004687D01*
X003087Y004635D01*
X003087Y003953D01*
X003140Y003900D01*
X003087Y003847D01*
X003087Y003165D01*
X003114Y003139D01*
X003105Y003134D01*
X003077Y003106D01*
X003057Y003072D01*
X003047Y003034D01*
X003047Y002769D01*
X003738Y002769D01*
X003738Y002669D01*
X003047Y002669D01*
X003047Y002404D01*
X003057Y002366D01*
X003077Y002332D01*
X003105Y002304D01*
X003114Y002299D01*
X003087Y002272D01*
X003087Y001591D01*
X003140Y001538D01*
X003087Y001485D01*
X003087Y000803D01*
X003152Y000739D01*
X004424Y000739D01*
X004488Y000803D01*
X004488Y000953D01*
X004513Y000928D01*
X004620Y000884D01*
X004735Y000884D01*
X004842Y000928D01*
X004923Y001009D01*
X004968Y001116D01*
X004968Y001231D01*
X004923Y001338D01*
X004842Y001419D01*
X004818Y001430D01*
X004842Y001440D01*
X004923Y001521D01*
X004968Y001628D01*
X004968Y001743D01*
X004923Y001850D01*
X004842Y001931D01*
X004735Y001975D01*
X004620Y001975D01*
X004616Y001974D01*
X004601Y001988D01*
X004508Y002082D01*
X004488Y002082D01*
X004488Y002272D01*
X004462Y002299D01*
X004470Y002304D01*
X004498Y002332D01*
X004518Y002366D01*
X004528Y002404D01*
X004528Y002669D01*
X003838Y002669D01*
X003838Y002769D01*
X004528Y002769D01*
X004528Y003034D01*
X004518Y003072D01*
X004498Y003106D01*
X004470Y003134D01*
X004462Y003139D01*
X004488Y003165D01*
X004488Y003847D01*
X004435Y003900D01*
X004488Y003953D01*
X004488Y004142D01*
X004553Y004077D01*
X004659Y004033D01*
X004775Y004033D01*
X004881Y004077D01*
X004963Y004159D01*
X005007Y004266D01*
X005007Y004381D01*
X004963Y004488D01*
X004881Y004569D01*
X004775Y004613D01*
X004659Y004613D01*
X004553Y004569D01*
X004488Y004505D01*
X004488Y004635D01*
X004435Y004687D01*
X004488Y004740D01*
X004488Y004890D01*
X004513Y004865D01*
X004620Y004821D01*
X004735Y004821D01*
X004842Y004865D01*
X004923Y004946D01*
X004968Y005053D01*
X004968Y005067D01*
X006565Y003470D01*
X006565Y002681D01*
X006561Y002679D01*
X006479Y002598D01*
X006435Y002491D01*
X006435Y002376D01*
X006479Y002269D01*
X006561Y002188D01*
X006667Y002143D01*
X006782Y002143D01*
X006889Y002188D01*
X006971Y002269D01*
X007015Y002376D01*
X007015Y002491D01*
X006971Y002598D01*
X006889Y002679D01*
X006885Y002681D01*
X006885Y003470D01*
X006885Y003602D01*
X004562Y005925D01*
X004525Y005962D02*
X009386Y005962D01*
X009386Y006060D02*
X004488Y006060D01*
X004488Y006159D02*
X009386Y006159D01*
X009434Y006257D02*
X004441Y006257D01*
X004402Y005859D02*
X003811Y005859D01*
X003788Y005869D01*
X004402Y005859D02*
X006725Y003536D01*
X006725Y002433D01*
X006459Y002317D02*
X004484Y002317D01*
X004488Y002219D02*
X006530Y002219D01*
X006435Y002416D02*
X004528Y002416D01*
X004528Y002514D02*
X006444Y002514D01*
X006494Y002613D02*
X004528Y002613D01*
X004528Y002810D02*
X006565Y002810D01*
X006565Y002908D02*
X004528Y002908D01*
X004528Y003007D02*
X006565Y003007D01*
X006565Y003105D02*
X004499Y003105D01*
X004488Y003204D02*
X006565Y003204D01*
X006565Y003302D02*
X004488Y003302D01*
X004488Y003401D02*
X006565Y003401D01*
X006535Y003499D02*
X004488Y003499D01*
X004488Y003598D02*
X006437Y003598D01*
X006338Y003696D02*
X004488Y003696D01*
X004488Y003795D02*
X006240Y003795D01*
X006141Y003893D02*
X004442Y003893D01*
X004488Y003992D02*
X006043Y003992D01*
X005944Y004090D02*
X004894Y004090D01*
X004975Y004189D02*
X005846Y004189D01*
X005747Y004287D02*
X005007Y004287D01*
X005005Y004386D02*
X005649Y004386D01*
X005550Y004484D02*
X004964Y004484D01*
X004849Y004583D02*
X005452Y004583D01*
X005353Y004681D02*
X004442Y004681D01*
X004488Y004583D02*
X004585Y004583D01*
X004488Y004780D02*
X005255Y004780D01*
X005156Y004878D02*
X004855Y004878D01*
X004936Y004977D02*
X005058Y004977D01*
X005313Y005174D02*
X009386Y005174D01*
X009386Y005272D02*
X005215Y005272D01*
X005116Y005371D02*
X009386Y005371D01*
X009434Y005469D02*
X005018Y005469D01*
X004919Y005568D02*
X009386Y005568D01*
X009386Y005666D02*
X004821Y005666D01*
X004722Y005765D02*
X009386Y005765D01*
X009386Y005075D02*
X005412Y005075D01*
X005510Y004977D02*
X009386Y004977D01*
X009386Y004878D02*
X005609Y004878D01*
X005707Y004780D02*
X009386Y004780D01*
X009433Y004681D02*
X005806Y004681D01*
X005904Y004583D02*
X009386Y004583D01*
X009386Y004484D02*
X006003Y004484D01*
X006101Y004386D02*
X009386Y004386D01*
X009386Y004287D02*
X006200Y004287D01*
X006298Y004189D02*
X009386Y004189D01*
X009386Y004090D02*
X006397Y004090D01*
X006495Y003992D02*
X009386Y003992D01*
X009432Y003893D02*
X006594Y003893D01*
X006692Y003795D02*
X009386Y003795D01*
X009386Y003696D02*
X006791Y003696D01*
X006885Y003598D02*
X009386Y003598D01*
X009386Y003499D02*
X006885Y003499D01*
X006885Y003401D02*
X009386Y003401D01*
X009386Y003302D02*
X006885Y003302D01*
X006885Y003204D02*
X009386Y003204D01*
X009432Y003105D02*
X006885Y003105D01*
X006885Y003007D02*
X009386Y003007D01*
X009386Y002908D02*
X006885Y002908D01*
X006885Y002810D02*
X009386Y002810D01*
X009386Y002711D02*
X006885Y002711D01*
X006956Y002613D02*
X009386Y002613D01*
X009386Y002514D02*
X007005Y002514D01*
X007015Y002416D02*
X009386Y002416D01*
X009431Y002317D02*
X006990Y002317D01*
X006920Y002219D02*
X009386Y002219D01*
X009386Y002120D02*
X004488Y002120D01*
X004568Y002022D02*
X009386Y002022D01*
X009386Y001923D02*
X004850Y001923D01*
X004934Y001825D02*
X009386Y001825D01*
X009386Y001726D02*
X004968Y001726D01*
X004967Y001628D02*
X009386Y001628D01*
X009375Y001529D02*
X006854Y001529D01*
X006996Y001431D02*
X009346Y001431D01*
X009346Y001332D02*
X009076Y001332D01*
X009108Y001234D02*
X009346Y001234D01*
X009346Y001094D02*
X009346Y000829D01*
X009357Y000791D01*
X009376Y000757D01*
X009404Y000729D01*
X009439Y000709D01*
X009477Y000699D01*
X010037Y000699D01*
X010037Y001094D01*
X009346Y001094D01*
X009346Y001037D02*
X009182Y001037D01*
X009145Y001135D02*
X010037Y001135D01*
X010037Y001037D02*
X010137Y001037D01*
X010137Y001135D02*
X011271Y001135D01*
X011196Y001037D02*
X010828Y001037D01*
X010828Y000938D02*
X011121Y000938D01*
X011046Y000840D02*
X010828Y000840D01*
X010782Y000741D02*
X010971Y000741D01*
X010896Y000643D02*
X009330Y000643D01*
X009293Y000741D02*
X009392Y000741D01*
X009346Y000840D02*
X009256Y000840D01*
X009219Y000938D02*
X009346Y000938D01*
X008951Y000741D02*
X004426Y000741D01*
X004488Y000840D02*
X008914Y000840D01*
X008877Y000938D02*
X004852Y000938D01*
X004935Y001037D02*
X006570Y001037D01*
X006499Y001135D02*
X004968Y001135D01*
X004967Y001234D02*
X006474Y001234D01*
X006483Y001332D02*
X004926Y001332D01*
X004820Y001431D02*
X006532Y001431D01*
X006674Y001529D02*
X004927Y001529D01*
X004678Y001685D02*
X004441Y001922D01*
X003811Y001922D01*
X003788Y001931D01*
X003087Y001923D02*
X002632Y001923D01*
X002561Y002022D02*
X003087Y002022D01*
X003087Y002120D02*
X002440Y002120D01*
X002544Y002044D02*
X002544Y002044D01*
X002544Y002044D01*
X002704Y001825D02*
X003087Y001825D01*
X003087Y001726D02*
X002740Y001726D01*
X002712Y001814D02*
X002712Y001814D01*
X002772Y001628D02*
X003087Y001628D01*
X003131Y001529D02*
X002800Y001529D01*
X002800Y001431D02*
X003087Y001431D01*
X003087Y001332D02*
X002800Y001332D01*
X002800Y001234D02*
X003087Y001234D01*
X003087Y001135D02*
X002800Y001135D01*
X002800Y001037D02*
X003087Y001037D01*
X003087Y000938D02*
X002800Y000938D01*
X002800Y000840D02*
X003087Y000840D01*
X003149Y000741D02*
X002800Y000741D01*
X002800Y000643D02*
X008988Y000643D01*
X009025Y000544D02*
X002800Y000544D01*
X002800Y000446D02*
X009062Y000446D01*
X009099Y000347D02*
X002819Y000347D01*
X003788Y001144D02*
X003811Y001174D01*
X004678Y001174D01*
X004503Y000938D02*
X004488Y000938D01*
X003087Y002219D02*
X002293Y002219D01*
X001653Y002540D02*
X002010Y002897D01*
X002010Y003403D01*
X001653Y003760D01*
X001147Y003760D01*
X000790Y003403D01*
X000790Y002897D01*
X001147Y002540D01*
X001653Y002540D01*
X001725Y002613D02*
X003047Y002613D01*
X003047Y002514D02*
X000300Y002514D01*
X000300Y002416D02*
X003047Y002416D01*
X003092Y002317D02*
X000300Y002317D01*
X000300Y002613D02*
X001075Y002613D01*
X000976Y002711D02*
X000300Y002711D01*
X000300Y002810D02*
X000878Y002810D01*
X000790Y002908D02*
X000300Y002908D01*
X000300Y003007D02*
X000790Y003007D01*
X000790Y003105D02*
X000300Y003105D01*
X000300Y003204D02*
X000790Y003204D01*
X000790Y003302D02*
X000300Y003302D01*
X000300Y003401D02*
X000790Y003401D01*
X000886Y003499D02*
X000300Y003499D01*
X000300Y003598D02*
X000985Y003598D01*
X001083Y003696D02*
X000300Y003696D01*
X000300Y003795D02*
X003087Y003795D01*
X003087Y003696D02*
X001717Y003696D01*
X001815Y003598D02*
X003087Y003598D01*
X003087Y003499D02*
X001914Y003499D01*
X002010Y003401D02*
X003087Y003401D01*
X003087Y003302D02*
X002010Y003302D01*
X002010Y003204D02*
X003087Y003204D01*
X003076Y003105D02*
X002010Y003105D01*
X002010Y003007D02*
X003047Y003007D01*
X003047Y002908D02*
X002010Y002908D01*
X001922Y002810D02*
X003047Y002810D01*
X003738Y002711D02*
X001824Y002711D01*
X003133Y003893D02*
X000300Y003893D01*
X000300Y003992D02*
X003087Y003992D01*
X003087Y004090D02*
X000300Y004090D01*
X000300Y004189D02*
X003087Y004189D01*
X003087Y004287D02*
X000300Y004287D01*
X000300Y004386D02*
X003087Y004386D01*
X003087Y004484D02*
X000300Y004484D01*
X000300Y004583D02*
X003087Y004583D01*
X003134Y004681D02*
X000300Y004681D01*
X000300Y004780D02*
X003087Y004780D01*
X003087Y004878D02*
X000300Y004878D01*
X000300Y004977D02*
X003087Y004977D01*
X003087Y005075D02*
X000300Y005075D01*
X000300Y005174D02*
X003087Y005174D01*
X003087Y005272D02*
X000300Y005272D01*
X000300Y005371D02*
X003087Y005371D01*
X003134Y005469D02*
X000300Y005469D01*
X000300Y005568D02*
X003087Y005568D01*
X003087Y005666D02*
X000300Y005666D01*
X000300Y005765D02*
X003087Y005765D01*
X003087Y005863D02*
X000300Y005863D01*
X000300Y005962D02*
X003087Y005962D01*
X003087Y006060D02*
X000300Y006060D01*
X000300Y006159D02*
X003087Y006159D01*
X003135Y006257D02*
X000300Y006257D01*
X000300Y006356D02*
X011120Y006356D01*
X011090Y005974D02*
X010788Y005974D01*
X010788Y005528D01*
X010735Y005475D01*
X010788Y005422D01*
X010788Y005310D01*
X011080Y005310D01*
X011080Y005316D01*
X011144Y005380D01*
X012106Y005380D01*
X012170Y005316D01*
X012170Y005060D01*
X012190Y005081D01*
X012297Y005125D01*
X012412Y005125D01*
X012519Y005081D01*
X012601Y004999D01*
X012645Y004893D01*
X012645Y004777D01*
X012601Y004671D01*
X012519Y004589D01*
X012412Y004545D01*
X012297Y004545D01*
X012293Y004547D01*
X012264Y004518D01*
X012170Y004518D01*
X012170Y004484D01*
X013130Y004484D01*
X013194Y004420D01*
X014118Y004420D01*
X014399Y004139D01*
X014399Y003666D01*
X014743Y003323D01*
X014740Y003320D01*
X014740Y002980D01*
X014980Y002740D01*
X015320Y002740D01*
X015560Y002980D01*
X015560Y003320D01*
X015320Y003560D01*
X014980Y003560D01*
X014969Y003549D01*
X014719Y003799D01*
X014719Y004271D01*
X014626Y004365D01*
X014237Y004754D01*
X014296Y004754D01*
X014740Y004310D01*
X014740Y003980D01*
X014980Y003740D01*
X015320Y003740D01*
X015560Y003980D01*
X015560Y004320D01*
X015320Y004560D01*
X014980Y004560D01*
X014961Y004541D01*
X014513Y004990D01*
X015084Y004990D01*
X015747Y004327D01*
X015740Y004320D01*
X015740Y003980D01*
X015980Y003740D01*
X016320Y003740D01*
X016560Y003980D01*
X016560Y004320D01*
X016320Y004560D01*
X016151Y004560D01*
X016223Y004631D01*
X016267Y004738D01*
X016267Y004853D01*
X016265Y004858D01*
X016397Y004990D01*
X016565Y004990D01*
X016565Y001791D01*
X016327Y001553D01*
X016320Y001560D01*
X015980Y001560D01*
X015740Y001320D01*
X015740Y000980D01*
X015980Y000740D01*
X016320Y000740D01*
X016560Y000980D01*
X016560Y001320D01*
X016553Y001327D01*
X016791Y001565D01*
X016885Y001659D01*
X016885Y004990D01*
X017250Y004990D01*
X017250Y000544D01*
X011223Y000544D01*
X011148Y000446D02*
X017224Y000446D01*
X017209Y000408D02*
X017142Y000341D01*
X017054Y000305D01*
X017006Y000300D01*
X011027Y000300D01*
X011038Y000301D01*
X011072Y000346D01*
X011111Y000385D01*
X011111Y000397D01*
X012431Y002129D01*
X012433Y002127D01*
X012772Y002127D01*
X012837Y002191D01*
X012837Y002388D01*
X012938Y002489D01*
X012938Y002583D01*
X013946Y001575D01*
X014938Y001575D01*
X014700Y001336D01*
X014700Y001200D01*
X015100Y001200D01*
X015100Y001100D01*
X015200Y001100D01*
X015200Y001200D01*
X015600Y001200D01*
X015600Y001336D01*
X015362Y001575D01*
X015803Y001575D01*
X015891Y001663D01*
X015974Y001746D01*
X015980Y001740D01*
X016320Y001740D01*
X016560Y001980D01*
X016560Y002320D01*
X016320Y002560D01*
X015980Y002560D01*
X015740Y002320D01*
X015740Y001980D01*
X015762Y001958D01*
X015678Y001875D01*
X015455Y001875D01*
X015560Y001980D01*
X015560Y002320D01*
X015320Y002560D01*
X014980Y002560D01*
X014977Y002557D01*
X014719Y002815D01*
X014719Y003327D01*
X014626Y003420D01*
X014271Y003775D01*
X014220Y003775D01*
X014220Y003816D01*
X014156Y003880D01*
X013194Y003880D01*
X013130Y003816D01*
X013130Y003484D01*
X013194Y003420D01*
X014156Y003420D01*
X014164Y003429D01*
X014399Y003194D01*
X014399Y002682D01*
X014751Y002331D01*
X014740Y002320D01*
X014740Y001980D01*
X014845Y001875D01*
X014070Y001875D01*
X012977Y002968D01*
X012938Y003007D01*
X012938Y003047D01*
X012850Y003135D01*
X012220Y003765D01*
X012170Y003765D01*
X012170Y003816D01*
X012106Y003880D01*
X011144Y003880D01*
X011137Y003872D01*
X011137Y003928D01*
X011144Y003920D01*
X012106Y003920D01*
X012128Y003943D01*
X012190Y003881D01*
X012297Y003836D01*
X012412Y003836D01*
X012519Y003881D01*
X012601Y003962D01*
X012645Y004069D01*
X012645Y004184D01*
X012601Y004291D01*
X012519Y004372D01*
X012412Y004416D01*
X012297Y004416D01*
X012190Y004372D01*
X012152Y004334D01*
X012106Y004380D01*
X011339Y004380D01*
X011379Y004420D01*
X012106Y004420D01*
X012170Y004484D01*
X012223Y004386D02*
X011344Y004386D01*
X011080Y004583D02*
X010788Y004583D01*
X010788Y004484D02*
X010990Y004484D01*
X010892Y004386D02*
X010788Y004386D01*
X010788Y004287D02*
X010817Y004287D01*
X010817Y004189D02*
X010788Y004189D01*
X010788Y004090D02*
X010817Y004090D01*
X010817Y003992D02*
X010788Y003992D01*
X010817Y003893D02*
X010742Y003893D01*
X010788Y003795D02*
X010817Y003795D01*
X010817Y003696D02*
X010788Y003696D01*
X010788Y003598D02*
X010817Y003598D01*
X010817Y003499D02*
X010788Y003499D01*
X010788Y003401D02*
X010817Y003401D01*
X010817Y003302D02*
X010788Y003302D01*
X010788Y003204D02*
X010817Y003204D01*
X010817Y003105D02*
X010742Y003105D01*
X010788Y003007D02*
X010817Y003007D01*
X010817Y002908D02*
X010788Y002908D01*
X010788Y002810D02*
X010817Y002810D01*
X010817Y002711D02*
X010788Y002711D01*
X010788Y002613D02*
X010817Y002613D01*
X010827Y002514D02*
X010788Y002514D01*
X010788Y002416D02*
X010926Y002416D01*
X011024Y002317D02*
X010743Y002317D01*
X010788Y002219D02*
X011075Y002219D01*
X011041Y002120D02*
X010788Y002120D01*
X010788Y002022D02*
X011041Y002022D01*
X011082Y001923D02*
X010788Y001923D01*
X010788Y001825D02*
X011188Y001825D01*
X011474Y001825D02*
X011796Y001825D01*
X011871Y001923D02*
X011580Y001923D01*
X011621Y002022D02*
X011947Y002022D01*
X012022Y002120D02*
X011638Y002120D01*
X011410Y002158D02*
X011331Y002079D01*
X011370Y002079D01*
X011685Y002394D01*
X011697Y002400D01*
X011931Y002416D02*
X012247Y002416D01*
X012322Y002514D02*
X011931Y002514D01*
X011928Y002613D02*
X012372Y002613D01*
X012433Y002673D02*
X012433Y002673D01*
X012524Y002711D02*
X011621Y002711D01*
X011620Y002810D02*
X012638Y002810D01*
X012638Y002908D02*
X011717Y002908D01*
X011607Y003024D02*
X011331Y002748D01*
X010977Y002591D02*
X010977Y004244D01*
X011370Y004638D01*
X011607Y004638D01*
X011625Y004650D01*
X011646Y004678D01*
X012197Y004678D01*
X012355Y004835D01*
X012605Y004681D02*
X013130Y004681D01*
X013130Y004754D02*
X013130Y004484D01*
X013130Y004583D02*
X012503Y004583D01*
X012487Y004386D02*
X012813Y004386D01*
X012781Y004372D02*
X012699Y004291D01*
X012655Y004184D01*
X012655Y004069D01*
X012699Y003962D01*
X012781Y003881D01*
X012888Y003836D01*
X013003Y003836D01*
X013110Y003881D01*
X013172Y003943D01*
X013194Y003920D01*
X014156Y003920D01*
X014220Y003984D01*
X014220Y004316D01*
X014156Y004380D01*
X013194Y004380D01*
X013148Y004334D01*
X013110Y004372D01*
X013003Y004416D01*
X012888Y004416D01*
X012781Y004372D01*
X012698Y004287D02*
X012602Y004287D01*
X012643Y004189D02*
X012657Y004189D01*
X012645Y004090D02*
X012655Y004090D01*
X012687Y003992D02*
X012613Y003992D01*
X012531Y003893D02*
X012769Y003893D01*
X012945Y004126D02*
X013654Y004126D01*
X013675Y004150D01*
X014153Y004386D02*
X013077Y004386D01*
X013115Y004754D02*
X013130Y004754D01*
X013115Y004754D02*
X013021Y004848D01*
X012407Y005462D01*
X012148Y005462D01*
X012106Y005420D01*
X011144Y005420D01*
X011080Y005484D01*
X011080Y005816D01*
X011144Y005880D01*
X012106Y005880D01*
X012170Y005816D01*
X012170Y005782D01*
X012184Y005782D01*
X012143Y005880D01*
X012143Y005958D01*
X012106Y005920D01*
X011144Y005920D01*
X011090Y005974D01*
X011103Y005962D02*
X010788Y005962D01*
X010788Y005863D02*
X011127Y005863D01*
X011080Y005765D02*
X010788Y005765D01*
X010788Y005666D02*
X011080Y005666D01*
X011080Y005568D02*
X010788Y005568D01*
X010740Y005469D02*
X011095Y005469D01*
X011135Y005371D02*
X010788Y005371D01*
X010788Y004977D02*
X011088Y004977D01*
X011142Y004878D02*
X010788Y004878D01*
X010788Y004780D02*
X011080Y004780D01*
X011080Y004681D02*
X010741Y004681D01*
X010150Y005150D02*
X010111Y005111D01*
X010087Y005081D01*
X010150Y005150D02*
X011625Y005150D01*
X012115Y005371D02*
X012498Y005371D01*
X012597Y005272D02*
X012170Y005272D01*
X012170Y005174D02*
X012695Y005174D01*
X012794Y005075D02*
X012525Y005075D01*
X012610Y004977D02*
X012892Y004977D01*
X012991Y004878D02*
X012645Y004878D01*
X012645Y004780D02*
X013089Y004780D01*
X013181Y004914D02*
X014363Y004914D01*
X015150Y004126D01*
X015150Y004150D01*
X015560Y004189D02*
X015740Y004189D01*
X015740Y004287D02*
X015560Y004287D01*
X015494Y004386D02*
X015688Y004386D01*
X015590Y004484D02*
X015396Y004484D01*
X015491Y004583D02*
X014920Y004583D01*
X014822Y004681D02*
X015393Y004681D01*
X015294Y004780D02*
X014723Y004780D01*
X014625Y004878D02*
X015196Y004878D01*
X015097Y004977D02*
X014526Y004977D01*
X014369Y004681D02*
X014310Y004681D01*
X014408Y004583D02*
X014468Y004583D01*
X014507Y004484D02*
X014566Y004484D01*
X014605Y004386D02*
X014665Y004386D01*
X014704Y004287D02*
X014740Y004287D01*
X014740Y004189D02*
X014719Y004189D01*
X014719Y004090D02*
X014740Y004090D01*
X014740Y003992D02*
X014719Y003992D01*
X014719Y003893D02*
X014827Y003893D01*
X014926Y003795D02*
X014724Y003795D01*
X014822Y003696D02*
X016565Y003696D01*
X016565Y003598D02*
X014921Y003598D01*
X014665Y003401D02*
X014645Y003401D01*
X014719Y003302D02*
X014740Y003302D01*
X014740Y003204D02*
X014719Y003204D01*
X014719Y003105D02*
X014740Y003105D01*
X014740Y003007D02*
X014719Y003007D01*
X014719Y002908D02*
X014812Y002908D01*
X014725Y002810D02*
X014911Y002810D01*
X014823Y002711D02*
X016565Y002711D01*
X016565Y002613D02*
X014922Y002613D01*
X014666Y002416D02*
X013530Y002416D01*
X013431Y002514D02*
X014568Y002514D01*
X014469Y002613D02*
X013333Y002613D01*
X013234Y002711D02*
X014399Y002711D01*
X014399Y002810D02*
X013136Y002810D01*
X013182Y002890D02*
X013148Y002910D01*
X013120Y002938D01*
X013100Y002972D01*
X013090Y003010D01*
X013090Y003140D01*
X013665Y003140D01*
X013685Y003140D01*
X013685Y003160D01*
X013665Y003160D01*
X013665Y003420D01*
X013220Y003420D01*
X013182Y003410D01*
X013148Y003390D01*
X013120Y003362D01*
X013100Y003328D01*
X013090Y003290D01*
X013090Y003160D01*
X013665Y003160D01*
X013665Y003140D01*
X013665Y002880D01*
X013220Y002880D01*
X013182Y002890D01*
X013151Y002908D02*
X013037Y002908D01*
X013091Y003007D02*
X012939Y003007D01*
X012880Y003105D02*
X013090Y003105D01*
X013090Y003204D02*
X012781Y003204D01*
X012683Y003302D02*
X013093Y003302D01*
X013166Y003401D02*
X012584Y003401D01*
X012486Y003499D02*
X013130Y003499D01*
X013130Y003598D02*
X012387Y003598D01*
X012289Y003696D02*
X013130Y003696D01*
X013130Y003795D02*
X012170Y003795D01*
X012178Y003893D02*
X011137Y003893D01*
X011625Y004150D02*
X011646Y004126D01*
X012355Y004126D01*
X013122Y003893D02*
X014399Y003893D01*
X014399Y003795D02*
X014220Y003795D01*
X014350Y003696D02*
X014399Y003696D01*
X014448Y003598D02*
X014468Y003598D01*
X014547Y003499D02*
X014567Y003499D01*
X014250Y003328D02*
X014230Y003362D01*
X014202Y003390D01*
X014168Y003410D01*
X014130Y003420D01*
X013685Y003420D01*
X013685Y003160D01*
X014260Y003160D01*
X014260Y003290D01*
X014250Y003328D01*
X014257Y003302D02*
X014291Y003302D01*
X014260Y003204D02*
X014390Y003204D01*
X014399Y003105D02*
X014260Y003105D01*
X014260Y003140D02*
X013685Y003140D01*
X013685Y002880D01*
X014130Y002880D01*
X014168Y002890D01*
X014202Y002910D01*
X014230Y002938D01*
X014250Y002972D01*
X014260Y003010D01*
X014260Y003140D01*
X014259Y003007D02*
X014399Y003007D01*
X014399Y002908D02*
X014199Y002908D01*
X014559Y002748D02*
X015150Y002158D01*
X015150Y002150D01*
X015560Y002120D02*
X015740Y002120D01*
X015740Y002022D02*
X015560Y002022D01*
X015503Y001923D02*
X015727Y001923D01*
X015740Y002219D02*
X015560Y002219D01*
X015560Y002317D02*
X015740Y002317D01*
X015836Y002416D02*
X015464Y002416D01*
X015366Y002514D02*
X015934Y002514D01*
X015980Y002740D02*
X016320Y002740D01*
X016560Y002980D01*
X016560Y003320D01*
X016320Y003560D01*
X015980Y003560D01*
X015740Y003320D01*
X015740Y002980D01*
X015980Y002740D01*
X015911Y002810D02*
X015389Y002810D01*
X015488Y002908D02*
X015812Y002908D01*
X015740Y003007D02*
X015560Y003007D01*
X015560Y003105D02*
X015740Y003105D01*
X015740Y003204D02*
X015560Y003204D01*
X015560Y003302D02*
X015740Y003302D01*
X015821Y003401D02*
X015479Y003401D01*
X015381Y003499D02*
X015919Y003499D01*
X015926Y003795D02*
X015374Y003795D01*
X015473Y003893D02*
X015827Y003893D01*
X015740Y003992D02*
X015560Y003992D01*
X015560Y004090D02*
X015740Y004090D01*
X016150Y004150D02*
X015150Y005150D01*
X013675Y005150D01*
X013181Y004914D02*
X012473Y005622D01*
X011646Y005622D01*
X011625Y005650D01*
X012123Y005863D02*
X012150Y005863D01*
X012433Y005937D02*
X012788Y005583D01*
X013615Y005583D01*
X013654Y005622D01*
X013675Y005650D01*
X013693Y005662D01*
X014993Y005662D01*
X015465Y006134D01*
X014993Y006134D02*
X013693Y006134D01*
X013675Y006150D01*
X013654Y006134D01*
X013181Y006134D01*
X012945Y005898D01*
X012185Y005075D02*
X012170Y005075D01*
X013675Y004650D02*
X013693Y004638D01*
X014126Y004638D01*
X014559Y004205D01*
X014559Y003733D01*
X015150Y003142D01*
X015150Y003150D01*
X014559Y003260D02*
X014559Y002748D01*
X014740Y002317D02*
X013628Y002317D01*
X013727Y002219D02*
X014740Y002219D01*
X014740Y002120D02*
X013825Y002120D01*
X013924Y002022D02*
X014740Y002022D01*
X014797Y001923D02*
X014022Y001923D01*
X013795Y001726D02*
X013163Y001726D01*
X013112Y001777D02*
X012876Y001875D01*
X012621Y001875D01*
X012385Y001777D01*
X012204Y001596D01*
X012106Y001360D01*
X012106Y001105D01*
X012204Y000869D01*
X012385Y000688D01*
X012621Y000591D01*
X012876Y000591D01*
X013112Y000688D01*
X013293Y000869D01*
X013391Y001105D01*
X013391Y001360D01*
X013293Y001596D01*
X013112Y001777D01*
X012998Y001825D02*
X013696Y001825D01*
X013598Y001923D02*
X012274Y001923D01*
X012349Y002022D02*
X013499Y002022D01*
X013401Y002120D02*
X012424Y002120D01*
X012499Y001825D02*
X012199Y001825D01*
X012124Y001726D02*
X012334Y001726D01*
X012235Y001628D02*
X012049Y001628D01*
X011974Y001529D02*
X012176Y001529D01*
X012135Y001431D02*
X011899Y001431D01*
X011823Y001332D02*
X012106Y001332D01*
X012106Y001234D02*
X011748Y001234D01*
X011673Y001135D02*
X012106Y001135D01*
X012135Y001037D02*
X011598Y001037D01*
X011523Y000938D02*
X012175Y000938D01*
X012233Y000840D02*
X011448Y000840D01*
X011373Y000741D02*
X012332Y000741D01*
X012495Y000643D02*
X011298Y000643D01*
X010951Y000451D02*
X012552Y002552D01*
X012603Y002400D01*
X012837Y002317D02*
X013204Y002317D01*
X013302Y002219D02*
X012837Y002219D01*
X012864Y002416D02*
X013105Y002416D01*
X013007Y002514D02*
X012938Y002514D01*
X012638Y002711D02*
X012606Y002711D01*
X012554Y003007D02*
X012170Y003007D01*
X012170Y003105D02*
X012455Y003105D01*
X012357Y003204D02*
X012170Y003204D01*
X012170Y003302D02*
X012258Y003302D01*
X012160Y003401D02*
X011137Y003401D01*
X011607Y003142D02*
X011607Y003024D01*
X011607Y003142D02*
X011625Y003150D01*
X010977Y002591D02*
X011410Y002158D01*
X011931Y002219D02*
X012097Y002219D01*
X012172Y002317D02*
X011931Y002317D01*
X011721Y001726D02*
X010788Y001726D01*
X010788Y001628D02*
X011646Y001628D01*
X011571Y001529D02*
X010799Y001529D01*
X010828Y001431D02*
X011496Y001431D01*
X011421Y001332D02*
X010828Y001332D01*
X010828Y001234D02*
X011346Y001234D01*
X010951Y000451D02*
X009231Y000451D01*
X008930Y001252D01*
X006764Y001252D01*
X006958Y001037D02*
X008840Y001037D01*
X010037Y000938D02*
X010137Y000938D01*
X010137Y000840D02*
X010037Y000840D01*
X010037Y000741D02*
X010137Y000741D01*
X011073Y000347D02*
X017148Y000347D01*
X017209Y000408D02*
X017245Y000496D01*
X017250Y000544D01*
X017250Y000643D02*
X013002Y000643D01*
X013165Y000741D02*
X014923Y000741D01*
X014964Y000700D02*
X015100Y000700D01*
X015100Y001100D01*
X014700Y001100D01*
X014700Y000964D01*
X014964Y000700D01*
X015100Y000741D02*
X015200Y000741D01*
X015200Y000700D02*
X015336Y000700D01*
X015600Y000964D01*
X015600Y001100D01*
X015200Y001100D01*
X015200Y000700D01*
X015377Y000741D02*
X015979Y000741D01*
X015881Y000840D02*
X015476Y000840D01*
X015574Y000938D02*
X015782Y000938D01*
X015740Y001037D02*
X015600Y001037D01*
X015740Y001135D02*
X015200Y001135D01*
X015200Y001037D02*
X015100Y001037D01*
X015100Y001135D02*
X013391Y001135D01*
X013391Y001234D02*
X014700Y001234D01*
X014700Y001332D02*
X013391Y001332D01*
X013362Y001431D02*
X014794Y001431D01*
X014893Y001529D02*
X013321Y001529D01*
X013262Y001628D02*
X013893Y001628D01*
X013362Y001037D02*
X014700Y001037D01*
X014726Y000938D02*
X013321Y000938D01*
X013263Y000840D02*
X014824Y000840D01*
X015100Y000840D02*
X015200Y000840D01*
X015200Y000938D02*
X015100Y000938D01*
X015600Y001234D02*
X015740Y001234D01*
X015752Y001332D02*
X015600Y001332D01*
X015506Y001431D02*
X015851Y001431D01*
X015949Y001529D02*
X015407Y001529D01*
X015855Y001628D02*
X016401Y001628D01*
X016500Y001726D02*
X015954Y001726D01*
X016404Y001825D02*
X016565Y001825D01*
X016565Y001923D02*
X016503Y001923D01*
X016560Y002022D02*
X016565Y002022D01*
X016560Y002120D02*
X016565Y002120D01*
X016560Y002219D02*
X016565Y002219D01*
X016560Y002317D02*
X016565Y002317D01*
X016565Y002416D02*
X016464Y002416D01*
X016366Y002514D02*
X016565Y002514D01*
X016885Y002514D02*
X017250Y002514D01*
X017250Y002416D02*
X016885Y002416D01*
X016885Y002317D02*
X017250Y002317D01*
X017250Y002219D02*
X016885Y002219D01*
X016885Y002120D02*
X017250Y002120D01*
X017250Y002022D02*
X016885Y002022D01*
X016885Y001923D02*
X017250Y001923D01*
X017250Y001825D02*
X016885Y001825D01*
X016885Y001726D02*
X017250Y001726D01*
X017250Y001628D02*
X016854Y001628D01*
X016755Y001529D02*
X017250Y001529D01*
X017250Y001431D02*
X016657Y001431D01*
X016558Y001332D02*
X017250Y001332D01*
X017250Y001234D02*
X016560Y001234D01*
X016560Y001135D02*
X017250Y001135D01*
X017250Y001037D02*
X016560Y001037D01*
X016518Y000938D02*
X017250Y000938D01*
X017250Y000840D02*
X016419Y000840D01*
X016321Y000741D02*
X017250Y000741D01*
X016725Y001725D02*
X016150Y001150D01*
X016725Y001725D02*
X016725Y005071D01*
X016489Y005307D01*
X016650Y005400D01*
X016410Y005386D01*
X016489Y005307D01*
X015977Y004796D01*
X016243Y004681D02*
X016565Y004681D01*
X016565Y004583D02*
X016174Y004583D01*
X016267Y004780D02*
X016565Y004780D01*
X016565Y004878D02*
X016285Y004878D01*
X016384Y004977D02*
X016565Y004977D01*
X016885Y004977D02*
X017250Y004977D01*
X017250Y004878D02*
X016885Y004878D01*
X016885Y004780D02*
X017250Y004780D01*
X017250Y004681D02*
X016885Y004681D01*
X016885Y004583D02*
X017250Y004583D01*
X017250Y004484D02*
X016885Y004484D01*
X016885Y004386D02*
X017250Y004386D01*
X017250Y004287D02*
X016885Y004287D01*
X016885Y004189D02*
X017250Y004189D01*
X017250Y004090D02*
X016885Y004090D01*
X016885Y003992D02*
X017250Y003992D01*
X017250Y003893D02*
X016885Y003893D01*
X016885Y003795D02*
X017250Y003795D01*
X017250Y003696D02*
X016885Y003696D01*
X016885Y003598D02*
X017250Y003598D01*
X017250Y003499D02*
X016885Y003499D01*
X016885Y003401D02*
X017250Y003401D01*
X017250Y003302D02*
X016885Y003302D01*
X016885Y003204D02*
X017250Y003204D01*
X017250Y003105D02*
X016885Y003105D01*
X016885Y003007D02*
X017250Y003007D01*
X017250Y002908D02*
X016885Y002908D01*
X016885Y002810D02*
X017250Y002810D01*
X017250Y002711D02*
X016885Y002711D01*
X016885Y002613D02*
X017250Y002613D01*
X016565Y002810D02*
X016389Y002810D01*
X016488Y002908D02*
X016565Y002908D01*
X016560Y003007D02*
X016565Y003007D01*
X016560Y003105D02*
X016565Y003105D01*
X016560Y003204D02*
X016565Y003204D01*
X016560Y003302D02*
X016565Y003302D01*
X016565Y003401D02*
X016479Y003401D01*
X016565Y003499D02*
X016381Y003499D01*
X016374Y003795D02*
X016565Y003795D01*
X016565Y003893D02*
X016473Y003893D01*
X016560Y003992D02*
X016565Y003992D01*
X016560Y004090D02*
X016565Y004090D01*
X016560Y004189D02*
X016565Y004189D01*
X016560Y004287D02*
X016565Y004287D01*
X016565Y004386D02*
X016494Y004386D01*
X016565Y004484D02*
X016396Y004484D01*
X014559Y003260D02*
X014205Y003615D01*
X013693Y003615D01*
X013675Y003650D01*
X013665Y003401D02*
X013685Y003401D01*
X013685Y003302D02*
X013665Y003302D01*
X013665Y003204D02*
X013685Y003204D01*
X013685Y003105D02*
X013665Y003105D01*
X013665Y003007D02*
X013685Y003007D01*
X013685Y002908D02*
X013665Y002908D01*
X014184Y003401D02*
X014193Y003401D01*
X014220Y003992D02*
X014399Y003992D01*
X014399Y004090D02*
X014220Y004090D01*
X014220Y004189D02*
X014350Y004189D01*
X014251Y004287D02*
X014220Y004287D01*
X015662Y006410D02*
X015504Y006567D01*
X015662Y006410D02*
X016370Y006410D01*
X016650Y006400D01*
X016600Y007045D02*
X016700Y007045D01*
X016700Y007144D02*
X016600Y007144D01*
X016600Y007242D02*
X016700Y007242D01*
X016700Y007341D02*
X016600Y007341D01*
X015850Y007538D02*
X015050Y007538D01*
X014964Y007636D02*
X015850Y007636D01*
X015854Y007735D02*
X014460Y007735D01*
X014460Y007833D02*
X015930Y007833D01*
X014796Y007394D02*
X014166Y006764D01*
X013024Y006764D01*
X012906Y006882D01*
X012647Y006750D02*
X000300Y006750D01*
X000300Y006848D02*
X004786Y006848D01*
X004687Y006947D02*
X000300Y006947D01*
X000300Y007045D02*
X001433Y007045D01*
X001522Y007008D02*
X001778Y007008D01*
X002014Y007106D01*
X002194Y007286D01*
X002292Y007522D01*
X002292Y007778D01*
X002194Y008014D01*
X002014Y008194D01*
X001778Y008292D01*
X001522Y008292D01*
X001286Y008194D01*
X001106Y008014D01*
X001008Y007778D01*
X001008Y007522D01*
X001106Y007286D01*
X001286Y007106D01*
X001522Y007008D01*
X001248Y007144D02*
X000300Y007144D01*
X000300Y007242D02*
X001150Y007242D01*
X001083Y007341D02*
X000300Y007341D01*
X000300Y007439D02*
X001042Y007439D01*
X001008Y007538D02*
X000300Y007538D01*
X000300Y007636D02*
X001008Y007636D01*
X001008Y007735D02*
X000300Y007735D01*
X000300Y007833D02*
X001031Y007833D01*
X001072Y007932D02*
X000300Y007932D01*
X000300Y008030D02*
X001122Y008030D01*
X001220Y008129D02*
X000300Y008129D01*
X000300Y008227D02*
X001365Y008227D01*
X001935Y008227D02*
X004561Y008227D01*
X004659Y008326D02*
X000300Y008326D01*
X000300Y008424D02*
X004758Y008424D01*
X004462Y008129D02*
X002080Y008129D01*
X002178Y008030D02*
X004364Y008030D01*
X004340Y007932D02*
X002228Y007932D01*
X002269Y007833D02*
X004340Y007833D01*
X004340Y007735D02*
X002292Y007735D01*
X002292Y007636D02*
X004340Y007636D01*
X004340Y007538D02*
X002292Y007538D01*
X002258Y007439D02*
X004340Y007439D01*
X004340Y007341D02*
X002217Y007341D01*
X002150Y007242D02*
X004392Y007242D01*
X004490Y007144D02*
X002052Y007144D01*
X001867Y007045D02*
X004589Y007045D01*
X005200Y007650D02*
X005229Y007670D01*
X013575Y007670D01*
X013600Y007650D01*
X014310Y007144D02*
X014319Y007144D01*
X014408Y007242D02*
X014417Y007242D01*
X014460Y007341D02*
X014506Y007341D01*
X014506Y007439D02*
X014460Y007439D01*
X014460Y007538D02*
X014541Y007538D01*
X014460Y007636D02*
X014627Y007636D01*
X014220Y007045D02*
X014211Y007045D01*
X014122Y006947D02*
X014113Y006947D01*
X012779Y007144D02*
X005910Y007144D01*
X006008Y007242D02*
X012792Y007242D01*
X012740Y007341D02*
X006060Y007341D01*
X006060Y007439D02*
X012740Y007439D01*
X012740Y007833D02*
X006060Y007833D01*
X006060Y007932D02*
X012740Y007932D01*
X012764Y008030D02*
X006036Y008030D01*
X005938Y008129D02*
X012862Y008129D01*
X012961Y008227D02*
X005839Y008227D01*
X005741Y008326D02*
X013059Y008326D01*
X013158Y008424D02*
X005642Y008424D01*
X005811Y007045D02*
X012659Y007045D01*
X012619Y006947D02*
X005713Y006947D01*
X005614Y006848D02*
X012616Y006848D01*
X011897Y006651D02*
X000300Y006651D01*
X000300Y006553D02*
X011799Y006553D01*
X011700Y006454D02*
X000300Y006454D01*
X000300Y008720D02*
X017250Y008720D01*
X017250Y008818D02*
X000300Y008818D01*
X000300Y008917D02*
X017250Y008917D01*
X017250Y009015D02*
X000300Y009015D01*
X000300Y009114D02*
X017250Y009114D01*
X017250Y009212D02*
X000300Y009212D01*
X000300Y009311D02*
X017250Y009311D01*
X017250Y009409D02*
X000300Y009409D01*
X000300Y009508D02*
X015484Y009508D01*
X015212Y009606D02*
X000300Y009606D01*
X000300Y009705D02*
X015076Y009705D01*
X015006Y009756D02*
X015006Y009756D01*
X015006Y009756D01*
X014971Y009803D02*
X000300Y009803D01*
X000300Y009902D02*
X004604Y009902D01*
X004511Y009940D02*
X004747Y009843D01*
X005002Y009843D01*
X005238Y009940D01*
X005419Y010121D01*
X005517Y010357D01*
X005517Y010612D01*
X005419Y010848D01*
X005238Y011029D01*
X005002Y011127D01*
X004747Y011127D01*
X004511Y011029D01*
X004330Y010848D01*
X004232Y010612D01*
X004232Y010357D01*
X004330Y010121D01*
X004511Y009940D01*
X004451Y010000D02*
X000300Y010000D01*
X000300Y010099D02*
X004352Y010099D01*
X004299Y010197D02*
X000300Y010197D01*
X000300Y010296D02*
X004258Y010296D01*
X004232Y010394D02*
X000300Y010394D01*
X000300Y010493D02*
X004232Y010493D01*
X004232Y010591D02*
X000300Y010591D01*
X000300Y010690D02*
X004264Y010690D01*
X004305Y010788D02*
X000300Y010788D01*
X000300Y010887D02*
X004368Y010887D01*
X004467Y010985D02*
X000300Y010985D01*
X000300Y011084D02*
X004642Y011084D01*
X005107Y011084D02*
X014750Y011084D01*
X014750Y011182D02*
X000303Y011182D01*
X000333Y011281D02*
X014750Y011281D01*
X014750Y011379D02*
X000394Y011379D01*
X000544Y011478D02*
X014709Y011478D01*
X014750Y010985D02*
X005282Y010985D01*
X005381Y010887D02*
X014750Y010887D01*
X014750Y010788D02*
X005444Y010788D01*
X005485Y010690D02*
X014750Y010690D01*
X014750Y010591D02*
X005517Y010591D01*
X005517Y010493D02*
X014750Y010493D01*
X014750Y010394D02*
X005517Y010394D01*
X005491Y010296D02*
X014750Y010296D01*
X014770Y010197D02*
X005450Y010197D01*
X005396Y010099D02*
X014802Y010099D01*
X014834Y010000D02*
X005298Y010000D01*
X005145Y009902D02*
X014900Y009902D01*
X014838Y009986D02*
X014838Y009986D01*
X004678Y005111D02*
X003811Y005111D01*
X003788Y005081D01*
X004488Y004878D02*
X004500Y004878D01*
X004717Y004323D02*
X003811Y004323D01*
X003788Y004294D01*
X004488Y004090D02*
X004540Y004090D01*
X003838Y002711D02*
X006565Y002711D01*
D19*
X016650Y008650D03*
D20*
X012158Y003615D02*
X011646Y003615D01*
X011625Y003650D01*
X012158Y003615D02*
X012788Y002985D01*
X012788Y002906D01*
X012827Y002906D01*
X014008Y001725D01*
X015741Y001725D01*
X016134Y002119D01*
X016150Y002150D01*
X012788Y002552D02*
X012630Y002394D01*
X012603Y002400D01*
X012788Y002552D02*
X012788Y002906D01*
X000977Y003615D02*
X000975Y003616D01*
D21*
X004717Y004323D03*
X004678Y005111D03*
X006725Y002433D03*
X006764Y001252D03*
X004678Y001174D03*
X004678Y001685D03*
X011331Y002079D03*
X011331Y002748D03*
X012355Y004126D03*
X012945Y004126D03*
X012355Y004835D03*
X012945Y005898D03*
X012433Y005937D03*
X012906Y006882D03*
X014796Y007394D03*
X014993Y006134D03*
X015465Y006134D03*
X015977Y004796D03*
M02*
