  0
SECTION
  2
HEADER
  9
$ACADVER
  1
AC1009
  9
$MEASUREMENT
 70
     1
  0
ENDSEC
  0
SECTION
  2
ENTITIES
  0
LWPOLYLINE
  8
0
 62
7
 90
5
 70
1
 10
14.970000
 20
3.258437
 10
14.521562
 20
3.258437
 10
14.521562
 20
2.461562
 10
15.418438
 20
2.461562
 10
15.418438
 20
3.258437
  0
LWPOLYLINE
  8
0
 62
7
 90
5
 70
1
 10
14.970000
 20
5.158437
 10
14.521562
 20
5.158437
 10
14.521562
 20
4.361562
 10
15.418438
 20
4.361562
 10
15.418438
 20
5.158437
  0
LWPOLYLINE
  8
0
 62
7
 90
5
 70
1
 10
12.870000
 20
4.208438
 10
12.421562
 20
4.208438
 10
12.421562
 20
3.411563
 10
13.318437
 20
3.411563
 10
13.318437
 20
4.208438
  0
LWPOLYLINE
  8
0
 62
7
 90
5
 70
1
 10
34.925000
 20
23.728438
 10
34.326562
 20
23.728438
 10
34.326562
 20
21.731562
 10
35.523438
 20
21.731562
 10
35.523438
 20
23.728438
  0
LWPOLYLINE
  8
0
 62
7
 90
5
 70
1
 10
34.925000
 20
26.528438
 10
34.326562
 20
26.528438
 10
34.326562
 20
24.531562
 10
35.523438
 20
24.531562
 10
35.523438
 20
26.528438
  0
LWPOLYLINE
  8
0
 62
7
 90
5
 70
1
 10
39.086562
 20
21.590000
 10
39.086562
 20
20.791563
 10
40.383437
 20
20.791563
 10
40.383437
 20
22.388437
 10
39.086562
 20
22.388437
  0
LWPOLYLINE
  8
0
 62
7
 90
5
 70
1
 10
37.086562
 20
21.590000
 10
37.086562
 20
20.791563
 10
38.383437
 20
20.791563
 10
38.383437
 20
22.388437
 10
37.086562
 20
22.388437
  0
LWPOLYLINE
  8
0
 62
7
 90
5
 70
1
 10
28.573438
 20
19.050000
 10
28.573438
 20
24.128438
 10
18.416563
 20
24.128438
 10
18.416563
 20
13.971563
 10
28.573438
 20
13.971563
  0
LWPOLYLINE
  8
0
 62
7
 90
5
 70
1
 10
18.748438
 20
5.080000
 10
18.748438
 20
5.828437
 10
17.451563
 20
5.828437
 10
17.451563
 20
4.331563
 10
18.748438
 20
4.331563
  0
LWPOLYLINE
  8
0
 62
7
 90
5
 70
1
 10
20.648438
 20
5.080000
 10
20.648438
 20
5.828437
 10
19.351562
 20
5.828437
 10
19.351562
 20
4.331563
 10
20.648438
 20
4.331563
  0
LWPOLYLINE
  8
0
 62
7
 90
5
 70
1
 10
28.575000
 20
2.841563
 10
29.323438
 20
2.841563
 10
29.323438
 20
4.138438
 10
27.826562
 20
4.138438
 10
27.826562
 20
2.841563
  0
LWPOLYLINE
  8
0
 62
7
 90
5
 70
1
 10
28.575000
 20
0.941563
 10
29.323438
 20
0.941562
 10
29.323438
 20
2.238437
 10
27.826562
 20
2.238437
 10
27.826562
 20
0.941563
  0
LWPOLYLINE
  8
0
 62
7
 90
5
 70
1
 10
41.910000
 20
14.095438
 10
40.260562
 20
14.095438
 10
40.260562
 20
12.574563
 10
43.559437
 20
12.574563
 10
43.559437
 20
14.095438
  0
LWPOLYLINE
  8
0
 62
7
 90
5
 70
1
 10
41.910000
 20
19.175437
 10
40.260562
 20
19.175437
 10
40.260562
 20
17.654563
 10
43.559437
 20
17.654563
 10
43.559437
 20
19.175437
  0
LWPOLYLINE
  8
0
 62
7
 90
5
 70
1
 10
41.910000
 20
16.635437
 10
40.260562
 20
16.635437
 10
40.260562
 20
15.114562
 10
43.559437
 20
15.114562
 10
43.559437
 20
16.635437
  0
ENDSEC
  0
EOF
