G75*
%MOIN*%
%OFA0B0*%
%FSLAX24Y24*%
%IPPOS*%
%LPD*%
%AMOC8*
5,1,8,0,0,1.08239X$1,22.5*
%
%ADD10C,0.0000*%
%ADD11OC8,0.1500*%
%ADD12C,0.4000*%
%ADD13R,0.0512X0.0630*%
%ADD14R,0.0512X0.0591*%
%ADD15R,0.0591X0.0512*%
%ADD16R,0.0354X0.0315*%
%ADD17OC8,0.0600*%
%ADD18OC8,0.1000*%
%ADD19R,0.0472X0.0787*%
%ADD20R,0.1300X0.0600*%
%ADD21C,0.0100*%
%ADD22C,0.0356*%
%ADD23C,0.0360*%
D10*
X002650Y001400D02*
X002648Y001454D01*
X002642Y001507D01*
X002633Y001559D01*
X002620Y001611D01*
X002603Y001662D01*
X002582Y001712D01*
X002558Y001759D01*
X002531Y001805D01*
X002500Y001849D01*
X002467Y001891D01*
X002430Y001930D01*
X002391Y001967D01*
X002349Y002000D01*
X002305Y002031D01*
X002259Y002058D01*
X002212Y002082D01*
X002162Y002103D01*
X002111Y002120D01*
X002059Y002133D01*
X002007Y002142D01*
X001954Y002148D01*
X001900Y002150D01*
X000150Y002150D01*
X000150Y011256D01*
X000150Y011150D02*
X000152Y011194D01*
X000158Y011237D01*
X000167Y011279D01*
X000180Y011321D01*
X000197Y011361D01*
X000217Y011400D01*
X000240Y011437D01*
X000267Y011471D01*
X000296Y011504D01*
X000329Y011533D01*
X000363Y011560D01*
X000400Y011583D01*
X000439Y011603D01*
X000479Y011620D01*
X000521Y011633D01*
X000563Y011642D01*
X000606Y011648D01*
X000650Y011650D01*
X014650Y011650D01*
X014680Y011648D01*
X014710Y011643D01*
X014739Y011634D01*
X014766Y011621D01*
X014792Y011606D01*
X014816Y011587D01*
X014837Y011566D01*
X014856Y011542D01*
X014871Y011516D01*
X014884Y011489D01*
X014893Y011460D01*
X014898Y011430D01*
X014900Y011400D01*
X014900Y010400D01*
X014902Y010346D01*
X014908Y010293D01*
X014917Y010241D01*
X014930Y010189D01*
X014947Y010138D01*
X014968Y010088D01*
X014992Y010041D01*
X015019Y009995D01*
X015050Y009951D01*
X015083Y009909D01*
X015120Y009870D01*
X015159Y009833D01*
X015201Y009800D01*
X015245Y009769D01*
X015291Y009742D01*
X015338Y009718D01*
X015388Y009697D01*
X015439Y009680D01*
X015491Y009667D01*
X015543Y009658D01*
X015596Y009652D01*
X015650Y009650D01*
X017400Y009650D01*
X017400Y000544D01*
X017398Y000505D01*
X017392Y000467D01*
X017383Y000430D01*
X017370Y000393D01*
X017353Y000358D01*
X017334Y000325D01*
X017311Y000294D01*
X017285Y000265D01*
X017256Y000239D01*
X017225Y000216D01*
X017192Y000197D01*
X017157Y000180D01*
X017120Y000167D01*
X017083Y000158D01*
X017045Y000152D01*
X017006Y000150D01*
X017150Y000150D02*
X002900Y000150D01*
X002870Y000152D01*
X002840Y000157D01*
X002811Y000166D01*
X002784Y000179D01*
X002758Y000194D01*
X002734Y000213D01*
X002713Y000234D01*
X002694Y000258D01*
X002679Y000284D01*
X002666Y000311D01*
X002657Y000340D01*
X002652Y000370D01*
X002650Y000400D01*
X002650Y001400D01*
X001158Y007650D02*
X001160Y007694D01*
X001166Y007738D01*
X001176Y007781D01*
X001189Y007823D01*
X001207Y007863D01*
X001228Y007902D01*
X001252Y007939D01*
X001279Y007974D01*
X001310Y008006D01*
X001343Y008035D01*
X001379Y008061D01*
X001417Y008083D01*
X001457Y008102D01*
X001498Y008118D01*
X001541Y008130D01*
X001584Y008138D01*
X001628Y008142D01*
X001672Y008142D01*
X001716Y008138D01*
X001759Y008130D01*
X001802Y008118D01*
X001843Y008102D01*
X001883Y008083D01*
X001921Y008061D01*
X001957Y008035D01*
X001990Y008006D01*
X002021Y007974D01*
X002048Y007939D01*
X002072Y007902D01*
X002093Y007863D01*
X002111Y007823D01*
X002124Y007781D01*
X002134Y007738D01*
X002140Y007694D01*
X002142Y007650D01*
X002140Y007606D01*
X002134Y007562D01*
X002124Y007519D01*
X002111Y007477D01*
X002093Y007437D01*
X002072Y007398D01*
X002048Y007361D01*
X002021Y007326D01*
X001990Y007294D01*
X001957Y007265D01*
X001921Y007239D01*
X001883Y007217D01*
X001843Y007198D01*
X001802Y007182D01*
X001759Y007170D01*
X001716Y007162D01*
X001672Y007158D01*
X001628Y007158D01*
X001584Y007162D01*
X001541Y007170D01*
X001498Y007182D01*
X001457Y007198D01*
X001417Y007217D01*
X001379Y007239D01*
X001343Y007265D01*
X001310Y007294D01*
X001279Y007326D01*
X001252Y007361D01*
X001228Y007398D01*
X001207Y007437D01*
X001189Y007477D01*
X001176Y007519D01*
X001166Y007562D01*
X001160Y007606D01*
X001158Y007650D01*
X004382Y010485D02*
X004384Y010529D01*
X004390Y010573D01*
X004400Y010616D01*
X004413Y010658D01*
X004431Y010698D01*
X004452Y010737D01*
X004476Y010774D01*
X004503Y010809D01*
X004534Y010841D01*
X004567Y010870D01*
X004603Y010896D01*
X004641Y010918D01*
X004681Y010937D01*
X004722Y010953D01*
X004765Y010965D01*
X004808Y010973D01*
X004852Y010977D01*
X004896Y010977D01*
X004940Y010973D01*
X004983Y010965D01*
X005026Y010953D01*
X005067Y010937D01*
X005107Y010918D01*
X005145Y010896D01*
X005181Y010870D01*
X005214Y010841D01*
X005245Y010809D01*
X005272Y010774D01*
X005296Y010737D01*
X005317Y010698D01*
X005335Y010658D01*
X005348Y010616D01*
X005358Y010573D01*
X005364Y010529D01*
X005366Y010485D01*
X005364Y010441D01*
X005358Y010397D01*
X005348Y010354D01*
X005335Y010312D01*
X005317Y010272D01*
X005296Y010233D01*
X005272Y010196D01*
X005245Y010161D01*
X005214Y010129D01*
X005181Y010100D01*
X005145Y010074D01*
X005107Y010052D01*
X005067Y010033D01*
X005026Y010017D01*
X004983Y010005D01*
X004940Y009997D01*
X004896Y009993D01*
X004852Y009993D01*
X004808Y009997D01*
X004765Y010005D01*
X004722Y010017D01*
X004681Y010033D01*
X004641Y010052D01*
X004603Y010074D01*
X004567Y010100D01*
X004534Y010129D01*
X004503Y010161D01*
X004476Y010196D01*
X004452Y010233D01*
X004431Y010272D01*
X004413Y010312D01*
X004400Y010354D01*
X004390Y010397D01*
X004384Y010441D01*
X004382Y010485D01*
X012256Y001233D02*
X012258Y001277D01*
X012264Y001321D01*
X012274Y001364D01*
X012287Y001406D01*
X012305Y001446D01*
X012326Y001485D01*
X012350Y001522D01*
X012377Y001557D01*
X012408Y001589D01*
X012441Y001618D01*
X012477Y001644D01*
X012515Y001666D01*
X012555Y001685D01*
X012596Y001701D01*
X012639Y001713D01*
X012682Y001721D01*
X012726Y001725D01*
X012770Y001725D01*
X012814Y001721D01*
X012857Y001713D01*
X012900Y001701D01*
X012941Y001685D01*
X012981Y001666D01*
X013019Y001644D01*
X013055Y001618D01*
X013088Y001589D01*
X013119Y001557D01*
X013146Y001522D01*
X013170Y001485D01*
X013191Y001446D01*
X013209Y001406D01*
X013222Y001364D01*
X013232Y001321D01*
X013238Y001277D01*
X013240Y001233D01*
X013238Y001189D01*
X013232Y001145D01*
X013222Y001102D01*
X013209Y001060D01*
X013191Y001020D01*
X013170Y000981D01*
X013146Y000944D01*
X013119Y000909D01*
X013088Y000877D01*
X013055Y000848D01*
X013019Y000822D01*
X012981Y000800D01*
X012941Y000781D01*
X012900Y000765D01*
X012857Y000753D01*
X012814Y000745D01*
X012770Y000741D01*
X012726Y000741D01*
X012682Y000745D01*
X012639Y000753D01*
X012596Y000765D01*
X012555Y000781D01*
X012515Y000800D01*
X012477Y000822D01*
X012441Y000848D01*
X012408Y000877D01*
X012377Y000909D01*
X012350Y000944D01*
X012326Y000981D01*
X012305Y001020D01*
X012287Y001060D01*
X012274Y001102D01*
X012264Y001145D01*
X012258Y001189D01*
X012256Y001233D01*
D11*
X013600Y007650D03*
X005200Y007650D03*
D12*
X009400Y007650D03*
D13*
X015006Y008650D03*
X015794Y008650D03*
D14*
X008024Y002150D03*
X007276Y002150D03*
D15*
X011400Y001524D03*
X011400Y000776D03*
D16*
X006044Y001276D03*
X005217Y001650D03*
X006044Y002024D03*
D17*
X015150Y002150D03*
X016150Y002150D03*
X016150Y003150D03*
X015150Y003150D03*
X015150Y004150D03*
X016150Y004150D03*
X016150Y001150D03*
X015150Y001150D03*
D18*
X001400Y003150D03*
D19*
X013900Y009099D03*
X013900Y010201D03*
D20*
X016650Y007400D03*
X016650Y006400D03*
X016650Y005400D03*
D21*
X016370Y005426D01*
X015701Y005426D01*
X014993Y006134D01*
X014890Y005863D02*
X014821Y005863D01*
X014828Y005888D02*
X014935Y005844D01*
X015050Y005844D01*
X015054Y005846D01*
X015635Y005266D01*
X015890Y005266D01*
X015890Y005074D01*
X015812Y005042D01*
X015731Y004960D01*
X015729Y004956D01*
X015728Y004956D01*
X013894Y006790D01*
X013956Y006790D01*
X014460Y007294D01*
X014460Y008006D01*
X014319Y008148D01*
X014562Y008391D01*
X014562Y008494D01*
X014640Y008494D01*
X014640Y008289D01*
X014705Y008225D01*
X015308Y008225D01*
X015372Y008289D01*
X015372Y009011D01*
X015308Y009075D01*
X014705Y009075D01*
X014640Y009011D01*
X014640Y008814D01*
X014468Y008814D01*
X014246Y009036D01*
X014246Y009538D01*
X014182Y009603D01*
X013618Y009603D01*
X013554Y009538D01*
X013554Y008660D01*
X013618Y008595D01*
X014182Y008595D01*
X014208Y008621D01*
X014209Y008621D01*
X014208Y008621D02*
X014242Y008588D01*
X014242Y008523D01*
X014092Y008374D01*
X013956Y008510D01*
X013244Y008510D01*
X012740Y008006D01*
X012740Y007294D01*
X012861Y007172D01*
X012848Y007172D01*
X012742Y007128D01*
X012660Y007047D01*
X012616Y006940D01*
X012616Y006825D01*
X012660Y006718D01*
X012742Y006636D01*
X012746Y006635D01*
X012746Y006344D01*
X012901Y006188D01*
X012888Y006188D01*
X012781Y006144D01*
X012699Y006062D01*
X012698Y006058D01*
X012679Y006102D01*
X012598Y006183D01*
X012491Y006227D01*
X012376Y006227D01*
X012269Y006183D01*
X012188Y006102D01*
X012143Y005995D01*
X012143Y005880D01*
X012145Y005875D01*
X011540Y005271D01*
X004925Y005271D01*
X004923Y005275D01*
X004842Y005356D01*
X004735Y005401D01*
X004620Y005401D01*
X004513Y005356D01*
X004432Y005275D01*
X004388Y005168D01*
X004388Y005053D01*
X004432Y004946D01*
X004513Y004865D01*
X004620Y004821D01*
X004735Y004821D01*
X004842Y004865D01*
X004923Y004946D01*
X004925Y004951D01*
X011673Y004951D01*
X012372Y005649D01*
X012376Y005647D01*
X012468Y005647D01*
X011304Y004483D01*
X004965Y004483D01*
X004963Y004488D01*
X004881Y004569D01*
X004775Y004613D01*
X004659Y004613D01*
X004553Y004569D01*
X004471Y004488D01*
X004427Y004381D01*
X004427Y004266D01*
X004471Y004159D01*
X004553Y004077D01*
X004659Y004033D01*
X004775Y004033D01*
X004881Y004077D01*
X004963Y004159D01*
X004965Y004163D01*
X010748Y004163D01*
X008312Y001727D01*
X007697Y001727D01*
X007628Y001796D01*
X007642Y001809D01*
X007642Y002491D01*
X007577Y002555D01*
X006988Y002555D01*
X006975Y002588D01*
X007564Y002588D01*
X007660Y002493D01*
X007658Y002491D01*
X007658Y001809D01*
X007723Y001745D01*
X008325Y001745D01*
X008390Y001809D01*
X008390Y002491D01*
X008325Y002555D01*
X008050Y002555D01*
X007790Y002815D01*
X007697Y002908D01*
X009493Y002908D01*
X009591Y003007D02*
X002480Y003007D01*
X002382Y003105D02*
X009690Y003105D01*
X009788Y003204D02*
X002283Y003204D01*
X002279Y003208D02*
X002185Y003302D01*
X009887Y003302D01*
X009985Y003401D02*
X002010Y003401D01*
X002010Y003403D02*
X001653Y003760D01*
X001147Y003760D01*
X000790Y003403D01*
X000790Y002897D01*
X001147Y002540D01*
X001653Y002540D01*
X002010Y002897D01*
X002010Y002982D01*
X002052Y002982D01*
X004021Y001014D01*
X004430Y001014D01*
X004432Y001009D01*
X004513Y000928D01*
X004620Y000884D01*
X004735Y000884D01*
X004842Y000928D01*
X004923Y001009D01*
X004968Y001116D01*
X004968Y001231D01*
X004923Y001338D01*
X004842Y001419D01*
X004818Y001430D01*
X004842Y001440D01*
X004923Y001521D01*
X004925Y001525D01*
X004930Y001525D01*
X004930Y001447D01*
X004994Y001383D01*
X005440Y001383D01*
X005504Y001447D01*
X005504Y001853D01*
X005440Y001917D01*
X005411Y001917D01*
X006082Y002588D01*
X006475Y002588D01*
X006435Y002491D01*
X006435Y002376D01*
X006479Y002269D01*
X006561Y002188D01*
X006667Y002143D01*
X006782Y002143D01*
X006787Y002145D01*
X006910Y002022D01*
X006910Y001809D01*
X006975Y001745D01*
X007227Y001745D01*
X007564Y001407D01*
X008445Y001407D01*
X008538Y001501D01*
X011004Y003966D01*
X012107Y003966D01*
X012109Y003962D01*
X012190Y003881D01*
X012297Y003836D01*
X012412Y003836D01*
X012519Y003881D01*
X012601Y003962D01*
X012645Y004069D01*
X012645Y004184D01*
X012601Y004291D01*
X012519Y004372D01*
X012412Y004416D01*
X012297Y004416D01*
X012190Y004372D01*
X012109Y004291D01*
X012107Y004286D01*
X011560Y004286D01*
X012065Y004791D01*
X012065Y004777D01*
X012109Y004671D01*
X012190Y004589D01*
X012297Y004545D01*
X012412Y004545D01*
X012519Y004589D01*
X012601Y004671D01*
X012645Y004777D01*
X012645Y004893D01*
X012643Y004897D01*
X013420Y005674D01*
X013420Y006122D01*
X013327Y006216D01*
X013066Y006476D01*
X013066Y006635D01*
X013070Y006636D01*
X013152Y006718D01*
X013196Y006825D01*
X013196Y006838D01*
X013244Y006790D01*
X013455Y006790D01*
X013455Y006777D01*
X015502Y004729D01*
X015596Y004636D01*
X015729Y004636D01*
X015731Y004631D01*
X015812Y004550D01*
X015919Y004506D01*
X015926Y004506D01*
X015740Y004320D01*
X015740Y003980D01*
X015980Y003740D01*
X016320Y003740D01*
X016560Y003980D01*
X016560Y004320D01*
X016320Y004560D01*
X016151Y004560D01*
X016223Y004631D01*
X016267Y004738D01*
X016267Y004853D01*
X016223Y004960D01*
X016193Y004990D01*
X017250Y004990D01*
X017250Y000544D01*
X011805Y000544D01*
X011805Y000475D02*
X011805Y001077D01*
X011741Y001142D01*
X011059Y001142D01*
X010995Y001077D01*
X010995Y000940D01*
X009749Y000940D01*
X011269Y002460D01*
X011273Y002458D01*
X011389Y002458D01*
X011495Y002503D01*
X011577Y002584D01*
X011579Y002588D01*
X012764Y002588D01*
X013897Y001531D01*
X013942Y001486D01*
X013945Y001486D01*
X013948Y001484D01*
X014011Y001486D01*
X014850Y001486D01*
X014700Y001336D01*
X014700Y001200D01*
X015100Y001200D01*
X015100Y001100D01*
X015200Y001100D01*
X015200Y001200D01*
X015600Y001200D01*
X015600Y001336D01*
X015450Y001486D01*
X015666Y001486D01*
X015775Y001355D01*
X015740Y001320D01*
X015740Y000980D01*
X015980Y000740D01*
X016320Y000740D01*
X016560Y000980D01*
X016560Y001320D01*
X016320Y001560D01*
X016021Y001560D01*
X015901Y001704D01*
X015901Y001712D01*
X015859Y001754D01*
X015821Y001799D01*
X015813Y001800D01*
X015807Y001806D01*
X015748Y001806D01*
X015689Y001811D01*
X015683Y001806D01*
X015386Y001806D01*
X015560Y001980D01*
X015560Y002320D01*
X015320Y002560D01*
X014980Y002560D01*
X014740Y002320D01*
X014740Y001980D01*
X014914Y001806D01*
X014071Y001806D01*
X012938Y002864D01*
X012893Y002908D01*
X012890Y002908D01*
X012888Y002911D01*
X012824Y002908D01*
X011579Y002908D01*
X011577Y002913D01*
X011495Y002994D01*
X011389Y003038D01*
X011273Y003038D01*
X011167Y002994D01*
X011085Y002913D01*
X011041Y002806D01*
X011041Y002691D01*
X011043Y002686D01*
X009296Y000940D01*
X007775Y000940D01*
X006555Y002160D01*
X006331Y002160D01*
X006331Y002227D01*
X006266Y002291D01*
X005821Y002291D01*
X005757Y002227D01*
X005757Y001821D01*
X005821Y001757D01*
X006266Y001757D01*
X006331Y001821D01*
X006331Y001840D01*
X006422Y001840D01*
X006720Y001542D01*
X006706Y001542D01*
X006600Y001498D01*
X006518Y001417D01*
X006517Y001412D01*
X006331Y001412D01*
X006331Y001479D01*
X006266Y001543D01*
X005821Y001543D01*
X005757Y001479D01*
X005757Y001073D01*
X005821Y001009D01*
X006266Y001009D01*
X006331Y001073D01*
X006331Y001092D01*
X006517Y001092D01*
X006518Y001088D01*
X006600Y001007D01*
X006706Y000962D01*
X006822Y000962D01*
X006928Y001007D01*
X007010Y001088D01*
X007054Y001195D01*
X007054Y001209D01*
X007549Y000714D01*
X007643Y000620D01*
X010995Y000620D01*
X010995Y000475D01*
X011059Y000410D01*
X011741Y000410D01*
X011805Y000475D01*
X011776Y000446D02*
X017224Y000446D01*
X017209Y000408D02*
X017142Y000341D01*
X017054Y000305D01*
X017006Y000300D01*
X002900Y000300D01*
X002874Y000303D01*
X002829Y000329D01*
X002803Y000374D01*
X002800Y000400D01*
X002800Y001543D01*
X002712Y001814D01*
X002544Y002044D01*
X002314Y002212D01*
X002314Y002212D01*
X002043Y002300D01*
X000300Y002300D01*
X000300Y011150D01*
X000307Y011218D01*
X000359Y011344D01*
X000456Y011441D01*
X000582Y011493D01*
X000650Y011500D01*
X014650Y011500D01*
X014676Y011497D01*
X014721Y011471D01*
X014747Y011426D01*
X014750Y011400D01*
X014750Y010257D01*
X014838Y009986D01*
X015006Y009756D01*
X015236Y009588D01*
X015236Y009588D01*
X015507Y009500D01*
X017250Y009500D01*
X017250Y007810D01*
X015954Y007810D01*
X015890Y007746D01*
X015890Y007554D01*
X015043Y007554D01*
X015042Y007558D01*
X014960Y007640D01*
X014853Y007684D01*
X014738Y007684D01*
X014631Y007640D01*
X014550Y007558D01*
X014506Y007452D01*
X014506Y007336D01*
X014550Y007230D01*
X014631Y007148D01*
X014738Y007104D01*
X014853Y007104D01*
X014960Y007148D01*
X015042Y007230D01*
X015043Y007234D01*
X015890Y007234D01*
X015890Y007054D01*
X015954Y006990D01*
X017250Y006990D01*
X017250Y006810D01*
X015954Y006810D01*
X015890Y006746D01*
X015890Y006530D01*
X015635Y006530D01*
X015541Y006437D01*
X015527Y006422D01*
X015523Y006424D01*
X015407Y006424D01*
X015301Y006380D01*
X015229Y006308D01*
X015157Y006380D01*
X015050Y006424D01*
X014935Y006424D01*
X014828Y006380D01*
X014747Y006299D01*
X014703Y006192D01*
X014703Y006077D01*
X014747Y005970D01*
X014828Y005888D01*
X014755Y005962D02*
X014722Y005962D01*
X014709Y006060D02*
X014624Y006060D01*
X014703Y006159D02*
X014525Y006159D01*
X014427Y006257D02*
X014729Y006257D01*
X014804Y006356D02*
X014328Y006356D01*
X014230Y006454D02*
X015558Y006454D01*
X015701Y006370D02*
X016370Y006370D01*
X016650Y006400D01*
X017250Y006848D02*
X014014Y006848D01*
X013934Y006750D02*
X015894Y006750D01*
X015890Y006651D02*
X014033Y006651D01*
X014131Y006553D02*
X015890Y006553D01*
X015701Y006370D02*
X015465Y006134D01*
X015276Y006356D02*
X015181Y006356D01*
X015136Y005765D02*
X014919Y005765D01*
X015018Y005666D02*
X015234Y005666D01*
X015333Y005568D02*
X015116Y005568D01*
X015215Y005469D02*
X015431Y005469D01*
X015530Y005371D02*
X015313Y005371D01*
X015412Y005272D02*
X015628Y005272D01*
X015510Y005174D02*
X015890Y005174D01*
X015890Y005075D02*
X015609Y005075D01*
X015707Y004977D02*
X015747Y004977D01*
X015662Y004796D02*
X015977Y004796D01*
X016243Y004681D02*
X017250Y004681D01*
X017250Y004583D02*
X016174Y004583D01*
X015904Y004484D02*
X015396Y004484D01*
X015320Y004560D02*
X014980Y004560D01*
X014740Y004320D01*
X014740Y004014D01*
X014471Y004244D01*
X014429Y004286D01*
X014422Y004286D01*
X014416Y004291D01*
X014356Y004286D01*
X013193Y004286D01*
X013191Y004291D01*
X013110Y004372D01*
X013003Y004416D01*
X012888Y004416D01*
X012781Y004372D01*
X012699Y004291D01*
X012655Y004184D01*
X012655Y004069D01*
X012699Y003962D01*
X012781Y003881D01*
X012888Y003836D01*
X013003Y003836D01*
X013110Y003881D01*
X013191Y003962D01*
X013193Y003966D01*
X014303Y003966D01*
X014805Y003536D01*
X014848Y003494D01*
X014855Y003494D01*
X014860Y003489D01*
X014914Y003493D01*
X014740Y003320D01*
X014740Y002980D01*
X014980Y002740D01*
X015320Y002740D01*
X015560Y002980D01*
X015560Y003320D01*
X015386Y003494D01*
X015627Y003494D01*
X015759Y003338D01*
X015740Y003320D01*
X015740Y002980D01*
X015980Y002740D01*
X016320Y002740D01*
X016560Y002980D01*
X016560Y003320D01*
X016320Y003560D01*
X015990Y003560D01*
X015861Y003713D01*
X015861Y003720D01*
X015819Y003762D01*
X015781Y003808D01*
X015773Y003809D01*
X015767Y003814D01*
X015708Y003814D01*
X015648Y003819D01*
X015643Y003814D01*
X015394Y003814D01*
X015560Y003980D01*
X015560Y004320D01*
X015320Y004560D01*
X015494Y004386D02*
X015806Y004386D01*
X015740Y004287D02*
X015560Y004287D01*
X015560Y004189D02*
X015740Y004189D01*
X015740Y004090D02*
X015560Y004090D01*
X015560Y003992D02*
X015740Y003992D01*
X015827Y003893D02*
X015473Y003893D01*
X015701Y003654D02*
X016134Y003142D01*
X016150Y003150D01*
X015740Y003105D02*
X015560Y003105D01*
X015560Y003007D02*
X015740Y003007D01*
X015812Y002908D02*
X015488Y002908D01*
X015389Y002810D02*
X015911Y002810D01*
X015980Y002560D02*
X015740Y002320D01*
X015740Y001980D01*
X015980Y001740D01*
X016320Y001740D01*
X016560Y001980D01*
X016560Y002320D01*
X016320Y002560D01*
X015980Y002560D01*
X015934Y002514D02*
X015366Y002514D01*
X015464Y002416D02*
X015836Y002416D01*
X015740Y002317D02*
X015560Y002317D01*
X015560Y002219D02*
X015740Y002219D01*
X015740Y002120D02*
X015560Y002120D01*
X015560Y002022D02*
X015740Y002022D01*
X015797Y001923D02*
X015503Y001923D01*
X015404Y001825D02*
X015896Y001825D01*
X015887Y001726D02*
X017250Y001726D01*
X017250Y001628D02*
X015964Y001628D01*
X015741Y001646D02*
X014008Y001646D01*
X012827Y002748D01*
X011331Y002748D01*
X009402Y000819D01*
X009402Y000780D01*
X007709Y000780D01*
X006489Y002000D01*
X006056Y002000D01*
X006044Y002024D01*
X005757Y002022D02*
X005515Y002022D01*
X005614Y002120D02*
X005757Y002120D01*
X005757Y002219D02*
X005712Y002219D01*
X005811Y002317D02*
X006459Y002317D01*
X006435Y002416D02*
X005909Y002416D01*
X006008Y002514D02*
X006444Y002514D01*
X006725Y002433D02*
X007000Y002158D01*
X007276Y002158D01*
X007276Y002150D01*
X007079Y002119D01*
X007630Y001567D01*
X008378Y001567D01*
X010937Y004126D01*
X012355Y004126D01*
X012613Y003992D02*
X012687Y003992D01*
X012655Y004090D02*
X012645Y004090D01*
X012643Y004189D02*
X012657Y004189D01*
X012698Y004287D02*
X012602Y004287D01*
X012487Y004386D02*
X012813Y004386D01*
X012503Y004583D02*
X015780Y004583D01*
X015550Y004681D02*
X012605Y004681D01*
X012645Y004780D02*
X015452Y004780D01*
X015353Y004878D02*
X012645Y004878D01*
X012722Y004977D02*
X015255Y004977D01*
X015156Y005075D02*
X012821Y005075D01*
X012919Y005174D02*
X015058Y005174D01*
X014959Y005272D02*
X013018Y005272D01*
X013116Y005371D02*
X014861Y005371D01*
X014762Y005469D02*
X013215Y005469D01*
X013313Y005568D02*
X014664Y005568D01*
X014565Y005666D02*
X013412Y005666D01*
X013420Y005765D02*
X014467Y005765D01*
X014368Y005863D02*
X013420Y005863D01*
X013420Y005962D02*
X014270Y005962D01*
X014171Y006060D02*
X013420Y006060D01*
X013384Y006159D02*
X014073Y006159D01*
X013974Y006257D02*
X013285Y006257D01*
X013187Y006356D02*
X013876Y006356D01*
X013777Y006454D02*
X013088Y006454D01*
X013066Y006553D02*
X013679Y006553D01*
X013580Y006651D02*
X013085Y006651D01*
X013165Y006750D02*
X013482Y006750D01*
X013615Y006843D02*
X015662Y004796D01*
X016206Y004977D02*
X017250Y004977D01*
X017250Y004878D02*
X016257Y004878D01*
X016267Y004780D02*
X017250Y004780D01*
X017250Y004484D02*
X016396Y004484D01*
X016494Y004386D02*
X017250Y004386D01*
X017250Y004287D02*
X016560Y004287D01*
X016560Y004189D02*
X017250Y004189D01*
X017250Y004090D02*
X016560Y004090D01*
X016560Y003992D02*
X017250Y003992D01*
X017250Y003893D02*
X016473Y003893D01*
X016374Y003795D02*
X017250Y003795D01*
X017250Y003696D02*
X015875Y003696D01*
X015926Y003795D02*
X015792Y003795D01*
X015701Y003654D02*
X014914Y003654D01*
X014363Y004126D01*
X012945Y004126D01*
X012769Y003893D02*
X012531Y003893D01*
X012178Y003893D02*
X010930Y003893D01*
X010832Y003795D02*
X014504Y003795D01*
X014389Y003893D02*
X013122Y003893D01*
X013193Y004287D02*
X014365Y004287D01*
X014421Y004287D02*
X014740Y004287D01*
X014740Y004189D02*
X014536Y004189D01*
X014651Y004090D02*
X014740Y004090D01*
X014806Y004386D02*
X013077Y004386D01*
X012355Y004835D02*
X013260Y005741D01*
X013260Y006056D01*
X012906Y006410D01*
X012906Y006882D01*
X012647Y006750D02*
X011354Y006750D01*
X011354Y006749D02*
X011419Y006905D01*
X011471Y007066D01*
X011510Y007230D01*
X011537Y007397D01*
X011550Y007566D01*
X011550Y007600D01*
X009450Y007600D01*
X009450Y007700D01*
X011550Y007700D01*
X011550Y007734D01*
X011537Y007903D01*
X011510Y008070D01*
X011471Y008234D01*
X011419Y008395D01*
X011354Y008551D01*
X011277Y008701D01*
X011189Y008845D01*
X011090Y008982D01*
X010980Y009111D01*
X010861Y009230D01*
X010732Y009340D01*
X010595Y009439D01*
X010451Y009527D01*
X010301Y009604D01*
X010145Y009669D01*
X009984Y009721D01*
X009820Y009760D01*
X009653Y009787D01*
X009484Y009800D01*
X009450Y009800D01*
X009450Y007700D01*
X009350Y007700D01*
X009350Y009800D01*
X009316Y009800D01*
X009147Y009787D01*
X008980Y009760D01*
X008816Y009721D01*
X008655Y009669D01*
X008499Y009604D01*
X008349Y009527D01*
X008205Y009439D01*
X008068Y009340D01*
X007939Y009230D01*
X007820Y009111D01*
X007710Y008982D01*
X007611Y008845D01*
X007523Y008701D01*
X007446Y008551D01*
X007381Y008395D01*
X007329Y008234D01*
X007290Y008070D01*
X007263Y007903D01*
X007250Y007734D01*
X007250Y007700D01*
X009350Y007700D01*
X009350Y007600D01*
X009450Y007600D01*
X009450Y005500D01*
X009484Y005500D01*
X009653Y005513D01*
X009820Y005540D01*
X009984Y005579D01*
X010145Y005631D01*
X010301Y005696D01*
X010451Y005773D01*
X010595Y005861D01*
X010732Y005960D01*
X010861Y006070D01*
X010980Y006189D01*
X011090Y006318D01*
X011189Y006455D01*
X011277Y006599D01*
X011354Y006749D01*
X011395Y006848D02*
X012616Y006848D01*
X012619Y006947D02*
X011432Y006947D01*
X011464Y007045D02*
X012659Y007045D01*
X012779Y007144D02*
X011489Y007144D01*
X011512Y007242D02*
X012792Y007242D01*
X012740Y007341D02*
X011528Y007341D01*
X011540Y007439D02*
X012740Y007439D01*
X012740Y007538D02*
X011548Y007538D01*
X011550Y007735D02*
X012740Y007735D01*
X012740Y007833D02*
X011542Y007833D01*
X011532Y007932D02*
X012740Y007932D01*
X012764Y008030D02*
X011517Y008030D01*
X011496Y008129D02*
X012862Y008129D01*
X012961Y008227D02*
X011473Y008227D01*
X011441Y008326D02*
X013059Y008326D01*
X013158Y008424D02*
X011407Y008424D01*
X011366Y008523D02*
X014241Y008523D01*
X014143Y008424D02*
X014042Y008424D01*
X014402Y008457D02*
X014402Y008654D01*
X013930Y009126D01*
X013900Y009099D01*
X014246Y009114D02*
X015513Y009114D01*
X015518Y009115D02*
X015480Y009105D01*
X015446Y009085D01*
X015418Y009057D01*
X015398Y009023D01*
X015388Y008985D01*
X015388Y008700D01*
X015744Y008700D01*
X015744Y009115D01*
X015518Y009115D01*
X015396Y009015D02*
X015368Y009015D01*
X015372Y008917D02*
X015388Y008917D01*
X015388Y008818D02*
X015372Y008818D01*
X015372Y008720D02*
X015388Y008720D01*
X015372Y008621D02*
X015744Y008621D01*
X015744Y008600D02*
X015744Y008700D01*
X015844Y008700D01*
X016200Y008700D01*
X016200Y008985D01*
X016189Y009023D01*
X016170Y009057D01*
X016142Y009085D01*
X016108Y009105D01*
X016069Y009115D01*
X015844Y009115D01*
X015844Y008700D01*
X015844Y008600D01*
X016200Y008600D01*
X016200Y008315D01*
X016189Y008277D01*
X016170Y008243D01*
X016142Y008215D01*
X016108Y008195D01*
X016069Y008185D01*
X015844Y008185D01*
X015844Y008600D01*
X015744Y008600D01*
X015744Y008185D01*
X015518Y008185D01*
X015480Y008195D01*
X015446Y008215D01*
X015418Y008243D01*
X015398Y008277D01*
X015388Y008315D01*
X015388Y008600D01*
X015744Y008600D01*
X015794Y008650D02*
X016650Y008650D01*
X016200Y008720D02*
X017250Y008720D01*
X017250Y008818D02*
X016200Y008818D01*
X016200Y008917D02*
X017250Y008917D01*
X017250Y009015D02*
X016191Y009015D01*
X016075Y009114D02*
X017250Y009114D01*
X017250Y009212D02*
X014246Y009212D01*
X014246Y009311D02*
X017250Y009311D01*
X017250Y009409D02*
X014246Y009409D01*
X014246Y009508D02*
X015484Y009508D01*
X015212Y009606D02*
X010296Y009606D01*
X010484Y009508D02*
X013554Y009508D01*
X013554Y009409D02*
X010637Y009409D01*
X010766Y009311D02*
X013554Y009311D01*
X013554Y009212D02*
X010879Y009212D01*
X010977Y009114D02*
X013554Y009114D01*
X013554Y009015D02*
X011062Y009015D01*
X011137Y008917D02*
X013554Y008917D01*
X013554Y008818D02*
X011206Y008818D01*
X011266Y008720D02*
X013554Y008720D01*
X013592Y008621D02*
X011318Y008621D01*
X010034Y009705D02*
X013555Y009705D01*
X013544Y009715D02*
X013572Y009687D01*
X013606Y009668D01*
X013644Y009657D01*
X013850Y009657D01*
X013850Y010151D01*
X013950Y010151D01*
X013950Y009657D01*
X014156Y009657D01*
X014194Y009668D01*
X014228Y009687D01*
X014256Y009715D01*
X014276Y009750D01*
X014286Y009788D01*
X014286Y010151D01*
X013950Y010151D01*
X013950Y010251D01*
X014286Y010251D01*
X014286Y010615D01*
X014276Y010653D01*
X014256Y010687D01*
X014228Y010715D01*
X014194Y010735D01*
X014156Y010745D01*
X013950Y010745D01*
X013950Y010251D01*
X013850Y010251D01*
X013850Y010151D01*
X013514Y010151D01*
X013514Y009788D01*
X013524Y009750D01*
X013544Y009715D01*
X013514Y009803D02*
X000300Y009803D01*
X000300Y009705D02*
X008766Y009705D01*
X008504Y009606D02*
X000300Y009606D01*
X000300Y009508D02*
X008316Y009508D01*
X008163Y009409D02*
X000300Y009409D01*
X000300Y009311D02*
X008034Y009311D01*
X007921Y009212D02*
X000300Y009212D01*
X000300Y009114D02*
X007823Y009114D01*
X007738Y009015D02*
X000300Y009015D01*
X000300Y008917D02*
X007663Y008917D01*
X007594Y008818D02*
X000300Y008818D01*
X000300Y008720D02*
X007534Y008720D01*
X007482Y008621D02*
X000300Y008621D01*
X000300Y008523D02*
X007434Y008523D01*
X007393Y008424D02*
X005642Y008424D01*
X005556Y008510D02*
X004844Y008510D01*
X004340Y008006D01*
X004340Y007294D01*
X004844Y006790D01*
X005556Y006790D01*
X006060Y007294D01*
X006060Y008006D01*
X005556Y008510D01*
X005741Y008326D02*
X007359Y008326D01*
X007327Y008227D02*
X005839Y008227D01*
X005938Y008129D02*
X007304Y008129D01*
X007283Y008030D02*
X006036Y008030D01*
X006060Y007932D02*
X007268Y007932D01*
X007258Y007833D02*
X006060Y007833D01*
X006060Y007735D02*
X007250Y007735D01*
X007250Y007600D02*
X007250Y007566D01*
X007263Y007397D01*
X007290Y007230D01*
X007329Y007066D01*
X007381Y006905D01*
X007446Y006749D01*
X007523Y006599D01*
X007611Y006455D01*
X007710Y006318D01*
X007820Y006189D01*
X007939Y006070D01*
X008068Y005960D01*
X008205Y005861D01*
X008349Y005773D01*
X008499Y005696D01*
X008655Y005631D01*
X008816Y005579D01*
X008980Y005540D01*
X009147Y005513D01*
X009316Y005500D01*
X009350Y005500D01*
X009350Y007600D01*
X007250Y007600D01*
X007252Y007538D02*
X006060Y007538D01*
X006060Y007636D02*
X009350Y007636D01*
X009350Y007538D02*
X009450Y007538D01*
X009450Y007636D02*
X012740Y007636D01*
X013600Y007650D02*
X013615Y007630D01*
X013615Y006843D01*
X014113Y006947D02*
X017250Y006947D01*
X016650Y007400D02*
X016370Y007394D01*
X014796Y007394D01*
X014541Y007538D02*
X014460Y007538D01*
X014460Y007636D02*
X014627Y007636D01*
X014460Y007735D02*
X015890Y007735D01*
X015890Y007636D02*
X014964Y007636D01*
X014506Y007439D02*
X014460Y007439D01*
X014460Y007341D02*
X014506Y007341D01*
X014545Y007242D02*
X014408Y007242D01*
X014310Y007144D02*
X014643Y007144D01*
X014949Y007144D02*
X015890Y007144D01*
X015899Y007045D02*
X014211Y007045D01*
X013600Y007650D02*
X013615Y007670D01*
X014402Y008457D01*
X014497Y008326D02*
X014640Y008326D01*
X014640Y008424D02*
X014562Y008424D01*
X014703Y008227D02*
X014398Y008227D01*
X014338Y008129D02*
X017250Y008129D01*
X017250Y008227D02*
X016154Y008227D01*
X016200Y008326D02*
X017250Y008326D01*
X017250Y008424D02*
X016200Y008424D01*
X016200Y008523D02*
X017250Y008523D01*
X017250Y008621D02*
X015844Y008621D01*
X015844Y008523D02*
X015744Y008523D01*
X015744Y008424D02*
X015844Y008424D01*
X015844Y008326D02*
X015744Y008326D01*
X015744Y008227D02*
X015844Y008227D01*
X015434Y008227D02*
X015310Y008227D01*
X015372Y008326D02*
X015388Y008326D01*
X015388Y008424D02*
X015372Y008424D01*
X015372Y008523D02*
X015388Y008523D01*
X015006Y008650D02*
X014993Y008654D01*
X014402Y008654D01*
X014464Y008818D02*
X014640Y008818D01*
X014640Y008917D02*
X014366Y008917D01*
X014267Y009015D02*
X014645Y009015D01*
X014245Y009705D02*
X015076Y009705D01*
X015006Y009756D02*
X015006Y009756D01*
X015006Y009756D01*
X014971Y009803D02*
X014286Y009803D01*
X014286Y009902D02*
X014900Y009902D01*
X014838Y009986D02*
X014838Y009986D01*
X014834Y010000D02*
X014286Y010000D01*
X014286Y010099D02*
X014802Y010099D01*
X014770Y010197D02*
X013950Y010197D01*
X013950Y010099D02*
X013850Y010099D01*
X013850Y010197D02*
X005450Y010197D01*
X005419Y010121D02*
X005517Y010357D01*
X005517Y010612D01*
X005419Y010848D01*
X005238Y011029D01*
X005002Y011127D01*
X004747Y011127D01*
X004511Y011029D01*
X004330Y010848D01*
X004232Y010612D01*
X004232Y010357D01*
X004330Y010121D01*
X004511Y009940D01*
X004747Y009843D01*
X005002Y009843D01*
X005238Y009940D01*
X005419Y010121D01*
X005396Y010099D02*
X013514Y010099D01*
X013514Y010000D02*
X005298Y010000D01*
X005145Y009902D02*
X013514Y009902D01*
X013850Y009902D02*
X013950Y009902D01*
X013950Y010000D02*
X013850Y010000D01*
X013850Y009803D02*
X013950Y009803D01*
X013950Y009705D02*
X013850Y009705D01*
X013850Y010251D02*
X013514Y010251D01*
X013514Y010615D01*
X013524Y010653D01*
X013544Y010687D01*
X013572Y010715D01*
X013606Y010735D01*
X013644Y010745D01*
X013850Y010745D01*
X013850Y010251D01*
X013850Y010296D02*
X013950Y010296D01*
X013950Y010394D02*
X013850Y010394D01*
X013850Y010493D02*
X013950Y010493D01*
X013950Y010591D02*
X013850Y010591D01*
X013850Y010690D02*
X013950Y010690D01*
X014254Y010690D02*
X014750Y010690D01*
X014750Y010788D02*
X005444Y010788D01*
X005485Y010690D02*
X013546Y010690D01*
X013514Y010591D02*
X005517Y010591D01*
X005517Y010493D02*
X013514Y010493D01*
X013514Y010394D02*
X005517Y010394D01*
X005491Y010296D02*
X013514Y010296D01*
X014286Y010296D02*
X014750Y010296D01*
X014750Y010394D02*
X014286Y010394D01*
X014286Y010493D02*
X014750Y010493D01*
X014750Y010591D02*
X014286Y010591D01*
X014750Y010887D02*
X005381Y010887D01*
X005282Y010985D02*
X014750Y010985D01*
X014750Y011084D02*
X005107Y011084D01*
X004642Y011084D02*
X000300Y011084D01*
X000303Y011182D02*
X014750Y011182D01*
X014750Y011281D02*
X000333Y011281D01*
X000394Y011379D02*
X014750Y011379D01*
X014709Y011478D02*
X000544Y011478D01*
X000300Y010985D02*
X004467Y010985D01*
X004368Y010887D02*
X000300Y010887D01*
X000300Y010788D02*
X004305Y010788D01*
X004264Y010690D02*
X000300Y010690D01*
X000300Y010591D02*
X004232Y010591D01*
X004232Y010493D02*
X000300Y010493D01*
X000300Y010394D02*
X004232Y010394D01*
X004258Y010296D02*
X000300Y010296D01*
X000300Y010197D02*
X004299Y010197D01*
X004352Y010099D02*
X000300Y010099D01*
X000300Y010000D02*
X004451Y010000D01*
X004604Y009902D02*
X000300Y009902D01*
X000300Y008424D02*
X004758Y008424D01*
X004659Y008326D02*
X000300Y008326D01*
X000300Y008227D02*
X001365Y008227D01*
X001286Y008194D02*
X001106Y008014D01*
X001008Y007778D01*
X001008Y007522D01*
X001106Y007286D01*
X001286Y007106D01*
X001522Y007008D01*
X001778Y007008D01*
X002014Y007106D01*
X002194Y007286D01*
X002292Y007522D01*
X002292Y007778D01*
X002194Y008014D01*
X002014Y008194D01*
X001778Y008292D01*
X001522Y008292D01*
X001286Y008194D01*
X001220Y008129D02*
X000300Y008129D01*
X000300Y008030D02*
X001122Y008030D01*
X001072Y007932D02*
X000300Y007932D01*
X000300Y007833D02*
X001031Y007833D01*
X001008Y007735D02*
X000300Y007735D01*
X000300Y007636D02*
X001008Y007636D01*
X001008Y007538D02*
X000300Y007538D01*
X000300Y007439D02*
X001042Y007439D01*
X001083Y007341D02*
X000300Y007341D01*
X000300Y007242D02*
X001150Y007242D01*
X001248Y007144D02*
X000300Y007144D01*
X000300Y007045D02*
X001433Y007045D01*
X001867Y007045D02*
X004589Y007045D01*
X004687Y006947D02*
X000300Y006947D01*
X000300Y006848D02*
X004786Y006848D01*
X004490Y007144D02*
X002052Y007144D01*
X002150Y007242D02*
X004392Y007242D01*
X004340Y007341D02*
X002217Y007341D01*
X002258Y007439D02*
X004340Y007439D01*
X004340Y007538D02*
X002292Y007538D01*
X002292Y007636D02*
X004340Y007636D01*
X004340Y007735D02*
X002292Y007735D01*
X002269Y007833D02*
X004340Y007833D01*
X004340Y007932D02*
X002228Y007932D01*
X002178Y008030D02*
X004364Y008030D01*
X004462Y008129D02*
X002080Y008129D01*
X001935Y008227D02*
X004561Y008227D01*
X006008Y007242D02*
X007288Y007242D01*
X007272Y007341D02*
X006060Y007341D01*
X006060Y007439D02*
X007260Y007439D01*
X007311Y007144D02*
X005910Y007144D01*
X005811Y007045D02*
X007336Y007045D01*
X007368Y006947D02*
X005713Y006947D01*
X005614Y006848D02*
X007405Y006848D01*
X007446Y006750D02*
X000300Y006750D01*
X000300Y006651D02*
X007496Y006651D01*
X007551Y006553D02*
X000300Y006553D01*
X000300Y006454D02*
X007611Y006454D01*
X007683Y006356D02*
X000300Y006356D01*
X000300Y006257D02*
X007762Y006257D01*
X007851Y006159D02*
X000300Y006159D01*
X000300Y006060D02*
X007951Y006060D01*
X008066Y005962D02*
X000300Y005962D01*
X000300Y005863D02*
X008202Y005863D01*
X008365Y005765D02*
X000300Y005765D01*
X000300Y005666D02*
X008572Y005666D01*
X008864Y005568D02*
X000300Y005568D01*
X000300Y005469D02*
X011739Y005469D01*
X011837Y005568D02*
X009936Y005568D01*
X010228Y005666D02*
X011936Y005666D01*
X012034Y005765D02*
X010435Y005765D01*
X010598Y005863D02*
X012133Y005863D01*
X012143Y005962D02*
X010734Y005962D01*
X010849Y006060D02*
X012170Y006060D01*
X012244Y006159D02*
X010949Y006159D01*
X011038Y006257D02*
X012832Y006257D01*
X012816Y006159D02*
X012622Y006159D01*
X012697Y006060D02*
X012698Y006060D01*
X012433Y005937D02*
X011607Y005111D01*
X004678Y005111D01*
X004925Y005272D02*
X011542Y005272D01*
X011640Y005371D02*
X004808Y005371D01*
X004547Y005371D02*
X000300Y005371D01*
X000300Y005272D02*
X004431Y005272D01*
X004390Y005174D02*
X000300Y005174D01*
X000300Y005075D02*
X004388Y005075D01*
X004419Y004977D02*
X000300Y004977D01*
X000300Y004878D02*
X004500Y004878D01*
X004855Y004878D02*
X011699Y004878D01*
X011699Y004977D02*
X011797Y004977D01*
X011797Y005075D02*
X011896Y005075D01*
X011896Y005174D02*
X011994Y005174D01*
X011994Y005272D02*
X012093Y005272D01*
X012093Y005371D02*
X012191Y005371D01*
X012191Y005469D02*
X012290Y005469D01*
X012290Y005568D02*
X012388Y005568D01*
X012945Y005898D02*
X011370Y004323D01*
X004717Y004323D01*
X004459Y004189D02*
X000300Y004189D01*
X000300Y004287D02*
X004427Y004287D01*
X004429Y004386D02*
X000300Y004386D01*
X000300Y004484D02*
X004470Y004484D01*
X004585Y004583D02*
X000300Y004583D01*
X000300Y004681D02*
X011502Y004681D01*
X011600Y004780D02*
X000300Y004780D01*
X000300Y004090D02*
X004540Y004090D01*
X004894Y004090D02*
X010675Y004090D01*
X010576Y003992D02*
X000300Y003992D01*
X000300Y003893D02*
X010478Y003893D01*
X010379Y003795D02*
X000300Y003795D01*
X000300Y003696D02*
X001083Y003696D01*
X000985Y003598D02*
X000300Y003598D01*
X000300Y003499D02*
X000886Y003499D01*
X000790Y003401D02*
X000300Y003401D01*
X000300Y003302D02*
X000790Y003302D01*
X000790Y003204D02*
X000300Y003204D01*
X000300Y003105D02*
X000790Y003105D01*
X000790Y003007D02*
X000300Y003007D01*
X000300Y002908D02*
X000790Y002908D01*
X000878Y002810D02*
X000300Y002810D01*
X000300Y002711D02*
X000976Y002711D01*
X001075Y002613D02*
X000300Y002613D01*
X000300Y002514D02*
X002520Y002514D01*
X002422Y002613D02*
X001725Y002613D01*
X001824Y002711D02*
X002323Y002711D01*
X002225Y002810D02*
X001922Y002810D01*
X002010Y002908D02*
X002126Y002908D01*
X002119Y003142D02*
X001410Y003142D01*
X001400Y003150D01*
X001914Y003499D02*
X010084Y003499D01*
X010182Y003598D02*
X001815Y003598D01*
X001717Y003696D02*
X010281Y003696D01*
X010536Y003499D02*
X014842Y003499D01*
X014821Y003401D02*
X010438Y003401D01*
X010339Y003302D02*
X014740Y003302D01*
X014740Y003204D02*
X010241Y003204D01*
X010142Y003105D02*
X014740Y003105D01*
X014740Y003007D02*
X011466Y003007D01*
X011196Y003007D02*
X010044Y003007D01*
X009945Y002908D02*
X011083Y002908D01*
X011043Y002810D02*
X009847Y002810D01*
X009748Y002711D02*
X011041Y002711D01*
X010969Y002613D02*
X009650Y002613D01*
X009551Y002514D02*
X010870Y002514D01*
X010772Y002416D02*
X009453Y002416D01*
X009354Y002317D02*
X010673Y002317D01*
X010575Y002219D02*
X009256Y002219D01*
X009157Y002120D02*
X010476Y002120D01*
X010378Y002022D02*
X009059Y002022D01*
X008960Y001923D02*
X010279Y001923D01*
X010181Y001825D02*
X008862Y001825D01*
X008763Y001726D02*
X010082Y001726D01*
X009984Y001628D02*
X008665Y001628D01*
X008566Y001529D02*
X009885Y001529D01*
X009787Y001431D02*
X008468Y001431D01*
X008409Y001825D02*
X008390Y001825D01*
X008390Y001923D02*
X008508Y001923D01*
X008606Y002022D02*
X008390Y002022D01*
X008390Y002120D02*
X008705Y002120D01*
X008803Y002219D02*
X008390Y002219D01*
X008390Y002317D02*
X008902Y002317D01*
X009000Y002416D02*
X008390Y002416D01*
X008367Y002514D02*
X009099Y002514D01*
X009197Y002613D02*
X007993Y002613D01*
X007894Y002711D02*
X009296Y002711D01*
X009394Y002810D02*
X007796Y002810D01*
X007697Y002908D02*
X005950Y002908D01*
X005162Y002121D01*
X005069Y002027D01*
X005069Y001917D01*
X004994Y001917D01*
X004930Y001853D01*
X004930Y001845D01*
X004925Y001845D01*
X004923Y001850D01*
X004842Y001931D01*
X004735Y001975D01*
X004620Y001975D01*
X004513Y001931D01*
X004432Y001850D01*
X004388Y001743D01*
X004388Y001628D01*
X004432Y001521D01*
X004513Y001440D01*
X004538Y001430D01*
X004513Y001419D01*
X004432Y001338D01*
X004430Y001334D01*
X004153Y001334D01*
X002279Y003208D01*
X002185Y003302D02*
X002010Y003302D01*
X002010Y003403D01*
X002119Y003142D02*
X004087Y001174D01*
X004678Y001174D01*
X004935Y001037D02*
X005793Y001037D01*
X005757Y001135D02*
X004968Y001135D01*
X004967Y001234D02*
X005757Y001234D01*
X005757Y001332D02*
X004926Y001332D01*
X004946Y001431D02*
X004820Y001431D01*
X004535Y001431D02*
X004056Y001431D01*
X003958Y001529D02*
X004428Y001529D01*
X004388Y001628D02*
X003859Y001628D01*
X003761Y001726D02*
X004388Y001726D01*
X004421Y001825D02*
X003662Y001825D01*
X003564Y001923D02*
X004505Y001923D01*
X004678Y001685D02*
X005189Y001685D01*
X005217Y001650D01*
X005229Y001685D01*
X005229Y001961D01*
X006016Y002748D01*
X007630Y002748D01*
X008024Y002355D01*
X008024Y002150D01*
X007658Y002120D02*
X007642Y002120D01*
X007642Y002022D02*
X007658Y002022D01*
X007658Y001923D02*
X007642Y001923D01*
X007642Y001825D02*
X007658Y001825D01*
X007344Y001628D02*
X007088Y001628D01*
X006989Y001726D02*
X007245Y001726D01*
X007186Y001529D02*
X007442Y001529D01*
X007541Y001431D02*
X007285Y001431D01*
X007383Y001332D02*
X009688Y001332D01*
X009590Y001234D02*
X007482Y001234D01*
X007580Y001135D02*
X009491Y001135D01*
X009393Y001037D02*
X007679Y001037D01*
X007423Y000840D02*
X002800Y000840D01*
X002800Y000938D02*
X004503Y000938D01*
X004852Y000938D02*
X007325Y000938D01*
X007226Y001037D02*
X006958Y001037D01*
X007029Y001135D02*
X007128Y001135D01*
X006764Y001252D02*
X006056Y001252D01*
X006044Y001276D01*
X006331Y001431D02*
X006532Y001431D01*
X006674Y001529D02*
X006281Y001529D01*
X006537Y001726D02*
X005504Y001726D01*
X005504Y001628D02*
X006635Y001628D01*
X006438Y001825D02*
X006331Y001825D01*
X006595Y002120D02*
X006812Y002120D01*
X006910Y002022D02*
X006694Y002022D01*
X006792Y001923D02*
X006910Y001923D01*
X006910Y001825D02*
X006891Y001825D01*
X006530Y002219D02*
X006331Y002219D01*
X005757Y001923D02*
X005417Y001923D01*
X005504Y001825D02*
X005757Y001825D01*
X005807Y001529D02*
X005504Y001529D01*
X005488Y001431D02*
X005757Y001431D01*
X006294Y001037D02*
X006570Y001037D01*
X007522Y000741D02*
X002800Y000741D01*
X002800Y000643D02*
X007620Y000643D01*
X009402Y000780D02*
X011370Y000780D01*
X011400Y000776D01*
X011805Y000741D02*
X012332Y000741D01*
X012385Y000688D02*
X012204Y000869D01*
X012106Y001105D01*
X012106Y001360D01*
X012204Y001596D01*
X012385Y001777D01*
X012621Y001875D01*
X012876Y001875D01*
X013112Y001777D01*
X013293Y001596D01*
X013391Y001360D01*
X013391Y001105D01*
X013293Y000869D01*
X013112Y000688D01*
X012876Y000591D01*
X012621Y000591D01*
X012385Y000688D01*
X012495Y000643D02*
X011805Y000643D01*
X011805Y000840D02*
X012233Y000840D01*
X012175Y000938D02*
X011805Y000938D01*
X011805Y001037D02*
X012135Y001037D01*
X012106Y001135D02*
X011748Y001135D01*
X011741Y001158D02*
X011805Y001223D01*
X011805Y001825D01*
X011741Y001890D01*
X011552Y001890D01*
X011577Y001915D01*
X011621Y002021D01*
X011621Y002137D01*
X011577Y002243D01*
X011495Y002325D01*
X011389Y002369D01*
X011273Y002369D01*
X011167Y002325D01*
X011085Y002243D01*
X011041Y002137D01*
X011041Y002021D01*
X011085Y001915D01*
X011110Y001890D01*
X011059Y001890D01*
X010995Y001825D01*
X010995Y001223D01*
X011059Y001158D01*
X011741Y001158D01*
X011805Y001234D02*
X012106Y001234D01*
X012106Y001332D02*
X011805Y001332D01*
X011805Y001431D02*
X012135Y001431D01*
X012176Y001529D02*
X011805Y001529D01*
X011805Y001628D02*
X012235Y001628D01*
X012334Y001726D02*
X011805Y001726D01*
X011805Y001825D02*
X012499Y001825D01*
X012998Y001825D02*
X013583Y001825D01*
X013477Y001923D02*
X011580Y001923D01*
X011621Y002022D02*
X013372Y002022D01*
X013266Y002120D02*
X011621Y002120D01*
X011587Y002219D02*
X013160Y002219D01*
X013055Y002317D02*
X011503Y002317D01*
X011224Y002416D02*
X012949Y002416D01*
X012844Y002514D02*
X011507Y002514D01*
X011159Y002317D02*
X011126Y002317D01*
X011075Y002219D02*
X011027Y002219D01*
X011041Y002120D02*
X010929Y002120D01*
X010830Y002022D02*
X011041Y002022D01*
X011082Y001923D02*
X010732Y001923D01*
X010633Y001825D02*
X010995Y001825D01*
X010995Y001726D02*
X010535Y001726D01*
X010436Y001628D02*
X010995Y001628D01*
X010995Y001529D02*
X010338Y001529D01*
X010239Y001431D02*
X010995Y001431D01*
X010995Y001332D02*
X010141Y001332D01*
X010042Y001234D02*
X010995Y001234D01*
X011052Y001135D02*
X009944Y001135D01*
X009845Y001037D02*
X010995Y001037D01*
X010995Y000544D02*
X002800Y000544D01*
X002800Y000446D02*
X011024Y000446D01*
X011370Y001528D02*
X011400Y001524D01*
X011370Y001528D02*
X011331Y001567D01*
X011331Y002079D01*
X012894Y002908D02*
X014812Y002908D01*
X014911Y002810D02*
X012996Y002810D01*
X013102Y002711D02*
X017250Y002711D01*
X017250Y002613D02*
X013207Y002613D01*
X013313Y002514D02*
X014934Y002514D01*
X014836Y002416D02*
X013418Y002416D01*
X013524Y002317D02*
X014740Y002317D01*
X014740Y002219D02*
X013629Y002219D01*
X013735Y002120D02*
X014740Y002120D01*
X014740Y002022D02*
X013841Y002022D01*
X013946Y001923D02*
X014797Y001923D01*
X014896Y001825D02*
X014052Y001825D01*
X013794Y001628D02*
X013262Y001628D01*
X013321Y001529D02*
X013899Y001529D01*
X013688Y001726D02*
X013163Y001726D01*
X013362Y001431D02*
X014794Y001431D01*
X014700Y001332D02*
X013391Y001332D01*
X013391Y001234D02*
X014700Y001234D01*
X014700Y001100D02*
X014700Y000964D01*
X014964Y000700D01*
X015100Y000700D01*
X015100Y001100D01*
X014700Y001100D01*
X014700Y001037D02*
X013362Y001037D01*
X013391Y001135D02*
X015100Y001135D01*
X015100Y001037D02*
X015200Y001037D01*
X015200Y001100D02*
X015200Y000700D01*
X015336Y000700D01*
X015600Y000964D01*
X015600Y001100D01*
X015200Y001100D01*
X015200Y001135D02*
X015740Y001135D01*
X015740Y001037D02*
X015600Y001037D01*
X015574Y000938D02*
X015782Y000938D01*
X015881Y000840D02*
X015476Y000840D01*
X015377Y000741D02*
X015979Y000741D01*
X016321Y000741D02*
X017250Y000741D01*
X017250Y000643D02*
X013002Y000643D01*
X013165Y000741D02*
X014923Y000741D01*
X014824Y000840D02*
X013263Y000840D01*
X013321Y000938D02*
X014726Y000938D01*
X015100Y000938D02*
X015200Y000938D01*
X015200Y000840D02*
X015100Y000840D01*
X015100Y000741D02*
X015200Y000741D01*
X015600Y001234D02*
X015740Y001234D01*
X015752Y001332D02*
X015600Y001332D01*
X015506Y001431D02*
X015712Y001431D01*
X015741Y001646D02*
X016134Y001174D01*
X016150Y001150D01*
X016419Y000840D02*
X017250Y000840D01*
X017250Y000938D02*
X016518Y000938D01*
X016560Y001037D02*
X017250Y001037D01*
X017250Y001135D02*
X016560Y001135D01*
X016560Y001234D02*
X017250Y001234D01*
X017250Y001332D02*
X016548Y001332D01*
X016449Y001431D02*
X017250Y001431D01*
X017250Y001529D02*
X016351Y001529D01*
X016404Y001825D02*
X017250Y001825D01*
X017250Y001923D02*
X016503Y001923D01*
X016560Y002022D02*
X017250Y002022D01*
X017250Y002120D02*
X016560Y002120D01*
X016560Y002219D02*
X017250Y002219D01*
X017250Y002317D02*
X016560Y002317D01*
X016464Y002416D02*
X017250Y002416D01*
X017250Y002514D02*
X016366Y002514D01*
X016389Y002810D02*
X017250Y002810D01*
X017250Y002908D02*
X016488Y002908D01*
X016560Y003007D02*
X017250Y003007D01*
X017250Y003105D02*
X016560Y003105D01*
X016560Y003204D02*
X017250Y003204D01*
X017250Y003302D02*
X016560Y003302D01*
X016479Y003401D02*
X017250Y003401D01*
X017250Y003499D02*
X016381Y003499D01*
X015959Y003598D02*
X017250Y003598D01*
X015740Y003302D02*
X015560Y003302D01*
X015560Y003204D02*
X015740Y003204D01*
X015706Y003401D02*
X015479Y003401D01*
X014734Y003598D02*
X010635Y003598D01*
X010733Y003696D02*
X014619Y003696D01*
X014904Y004484D02*
X011758Y004484D01*
X011856Y004583D02*
X012207Y004583D01*
X012105Y004681D02*
X011955Y004681D01*
X012053Y004780D02*
X012065Y004780D01*
X012223Y004386D02*
X011659Y004386D01*
X011561Y004287D02*
X012107Y004287D01*
X011403Y004583D02*
X004849Y004583D01*
X004964Y004484D02*
X011305Y004484D01*
X009450Y005568D02*
X009350Y005568D01*
X009350Y005666D02*
X009450Y005666D01*
X009450Y005765D02*
X009350Y005765D01*
X009350Y005863D02*
X009450Y005863D01*
X009450Y005962D02*
X009350Y005962D01*
X009350Y006060D02*
X009450Y006060D01*
X009450Y006159D02*
X009350Y006159D01*
X009350Y006257D02*
X009450Y006257D01*
X009450Y006356D02*
X009350Y006356D01*
X009350Y006454D02*
X009450Y006454D01*
X009450Y006553D02*
X009350Y006553D01*
X009350Y006651D02*
X009450Y006651D01*
X009450Y006750D02*
X009350Y006750D01*
X009350Y006848D02*
X009450Y006848D01*
X009450Y006947D02*
X009350Y006947D01*
X009350Y007045D02*
X009450Y007045D01*
X009450Y007144D02*
X009350Y007144D01*
X009350Y007242D02*
X009450Y007242D01*
X009450Y007341D02*
X009350Y007341D01*
X009350Y007439D02*
X009450Y007439D01*
X009450Y007735D02*
X009350Y007735D01*
X009350Y007833D02*
X009450Y007833D01*
X009450Y007932D02*
X009350Y007932D01*
X009350Y008030D02*
X009450Y008030D01*
X009450Y008129D02*
X009350Y008129D01*
X009350Y008227D02*
X009450Y008227D01*
X009450Y008326D02*
X009350Y008326D01*
X009350Y008424D02*
X009450Y008424D01*
X009450Y008523D02*
X009350Y008523D01*
X009350Y008621D02*
X009450Y008621D01*
X009450Y008720D02*
X009350Y008720D01*
X009350Y008818D02*
X009450Y008818D01*
X009450Y008917D02*
X009350Y008917D01*
X009350Y009015D02*
X009450Y009015D01*
X009450Y009114D02*
X009350Y009114D01*
X009350Y009212D02*
X009450Y009212D01*
X009450Y009311D02*
X009350Y009311D01*
X009350Y009409D02*
X009450Y009409D01*
X009450Y009508D02*
X009350Y009508D01*
X009350Y009606D02*
X009450Y009606D01*
X009450Y009705D02*
X009350Y009705D01*
X011304Y006651D02*
X012727Y006651D01*
X012746Y006553D02*
X011249Y006553D01*
X011189Y006454D02*
X012746Y006454D01*
X012746Y006356D02*
X011117Y006356D01*
X014460Y007833D02*
X017250Y007833D01*
X017250Y007932D02*
X014460Y007932D01*
X014436Y008030D02*
X017250Y008030D01*
X015844Y008720D02*
X015744Y008720D01*
X015744Y008818D02*
X015844Y008818D01*
X015844Y008917D02*
X015744Y008917D01*
X015744Y009015D02*
X015844Y009015D01*
X015844Y009114D02*
X015744Y009114D01*
X005949Y002908D02*
X002579Y002908D01*
X002677Y002810D02*
X005851Y002810D01*
X005752Y002711D02*
X002776Y002711D01*
X002874Y002613D02*
X005654Y002613D01*
X005555Y002514D02*
X002973Y002514D01*
X003071Y002416D02*
X005457Y002416D01*
X005358Y002317D02*
X003170Y002317D01*
X003268Y002219D02*
X005260Y002219D01*
X005161Y002120D02*
X003367Y002120D01*
X003465Y002022D02*
X005069Y002022D01*
X005069Y001923D02*
X004850Y001923D01*
X003801Y001234D02*
X002800Y001234D01*
X002800Y001332D02*
X003702Y001332D01*
X003604Y001431D02*
X002800Y001431D01*
X002800Y001529D02*
X003505Y001529D01*
X003407Y001628D02*
X002772Y001628D01*
X002740Y001726D02*
X003308Y001726D01*
X003210Y001825D02*
X002704Y001825D01*
X002712Y001814D02*
X002712Y001814D01*
X002632Y001923D02*
X003111Y001923D01*
X003013Y002022D02*
X002561Y002022D01*
X002544Y002044D02*
X002544Y002044D01*
X002544Y002044D01*
X002440Y002120D02*
X002914Y002120D01*
X002816Y002219D02*
X002293Y002219D01*
X002619Y002416D02*
X000300Y002416D01*
X000300Y002317D02*
X002717Y002317D01*
X002800Y001135D02*
X003899Y001135D01*
X003998Y001037D02*
X002800Y001037D01*
X002819Y000347D02*
X017148Y000347D01*
X017209Y000408D02*
X017245Y000496D01*
X017250Y000544D01*
X007658Y002219D02*
X007642Y002219D01*
X007642Y002317D02*
X007658Y002317D01*
X007658Y002416D02*
X007642Y002416D01*
X007638Y002514D02*
X007619Y002514D01*
D22*
X016650Y008650D03*
D23*
X014796Y007394D03*
X014993Y006134D03*
X015465Y006134D03*
X015977Y004796D03*
X012945Y004126D03*
X012355Y004126D03*
X012355Y004835D03*
X012945Y005898D03*
X012433Y005937D03*
X012906Y006882D03*
X011331Y002748D03*
X011331Y002079D03*
X006764Y001252D03*
X006725Y002433D03*
X004678Y001685D03*
X004678Y001174D03*
X004717Y004323D03*
X004678Y005111D03*
M02*
