G75*
%MOIN*%
%OFA0B0*%
%FSLAX24Y24*%
%IPPOS*%
%LPD*%
%AMOC8*
5,1,8,0,0,1.08239X$1,22.5*
%
%ADD10C,0.0030*%
%ADD11C,0.0000*%
%ADD12C,0.0060*%
%ADD13C,0.0050*%
%ADD14C,0.0080*%
%ADD15R,0.0079X0.0079*%
%ADD16C,0.0040*%
D10*
X014265Y003227D02*
X014326Y003165D01*
X014573Y003165D01*
X014635Y003227D01*
X014635Y003350D01*
X014573Y003412D01*
X014450Y003412D01*
X014450Y003288D01*
X014326Y003412D02*
X014265Y003350D01*
X014265Y003227D01*
X014265Y003533D02*
X014265Y003718D01*
X014326Y003780D01*
X014573Y003780D01*
X014635Y003718D01*
X014635Y003533D01*
X014265Y003533D01*
X014265Y004165D02*
X014265Y004350D01*
X014326Y004412D01*
X014450Y004412D01*
X014512Y004350D01*
X014512Y004165D01*
X014635Y004165D02*
X014265Y004165D01*
X014326Y004533D02*
X014265Y004595D01*
X014265Y004718D01*
X014326Y004780D01*
X014573Y004533D01*
X014635Y004595D01*
X014635Y004718D01*
X014573Y004780D01*
X014326Y004780D01*
X014326Y004533D02*
X014573Y004533D01*
X014415Y005165D02*
X014415Y005535D01*
X014600Y005535D01*
X014662Y005474D01*
X014662Y005350D01*
X014600Y005288D01*
X014415Y005288D01*
X014783Y005165D02*
X015030Y005165D01*
X014907Y005165D02*
X014907Y005535D01*
X014783Y005412D01*
X014783Y005915D02*
X015030Y006162D01*
X015030Y006224D01*
X014968Y006285D01*
X014845Y006285D01*
X014783Y006224D01*
X014662Y006224D02*
X014662Y006100D01*
X014600Y006038D01*
X014415Y006038D01*
X014415Y005915D02*
X014415Y006285D01*
X014600Y006285D01*
X014662Y006224D01*
X014783Y005915D02*
X015030Y005915D01*
X014968Y006665D02*
X014845Y006665D01*
X014783Y006727D01*
X014662Y006850D02*
X014600Y006788D01*
X014415Y006788D01*
X014415Y006665D02*
X014415Y007035D01*
X014600Y007035D01*
X014662Y006974D01*
X014662Y006850D01*
X014783Y006974D02*
X014845Y007035D01*
X014968Y007035D01*
X015030Y006974D01*
X015030Y006912D01*
X014968Y006850D01*
X015030Y006788D01*
X015030Y006727D01*
X014968Y006665D01*
X014968Y006850D02*
X014907Y006850D01*
X014783Y007415D02*
X014783Y007477D01*
X015030Y007724D01*
X015030Y007785D01*
X014783Y007785D01*
X014662Y007724D02*
X014662Y007600D01*
X014600Y007538D01*
X014415Y007538D01*
X014415Y007415D02*
X014415Y007785D01*
X014600Y007785D01*
X014662Y007724D01*
X014783Y008165D02*
X014907Y008288D01*
X015030Y008165D01*
X015030Y008535D01*
X014783Y008535D02*
X014783Y008165D01*
X014600Y008288D02*
X014415Y008288D01*
X014415Y008165D02*
X014415Y008535D01*
X014600Y008535D01*
X014662Y008474D01*
X014662Y008350D01*
X014600Y008288D01*
X014600Y008915D02*
X014477Y008915D01*
X014415Y008977D01*
X014538Y009100D02*
X014600Y009100D01*
X014662Y009038D01*
X014662Y008977D01*
X014600Y008915D01*
X014783Y009038D02*
X014907Y008915D01*
X015030Y009038D01*
X015030Y009285D01*
X014783Y009285D02*
X014783Y009038D01*
X014662Y009162D02*
X014600Y009100D01*
X014662Y009162D02*
X014662Y009224D01*
X014600Y009285D01*
X014477Y009285D01*
X014415Y009224D01*
X014277Y010165D02*
X014216Y010227D01*
X014216Y010474D01*
X014277Y010412D02*
X014154Y010412D01*
X014033Y010350D02*
X014033Y010165D01*
X014033Y010350D02*
X013971Y010412D01*
X013786Y010412D01*
X013786Y010165D01*
X013664Y010288D02*
X013417Y010288D01*
X013417Y010227D02*
X013417Y010350D01*
X013479Y010412D01*
X013603Y010412D01*
X013664Y010350D01*
X013664Y010288D01*
X013603Y010165D02*
X013479Y010165D01*
X013417Y010227D01*
X013296Y010165D02*
X013296Y010350D01*
X013234Y010412D01*
X013173Y010350D01*
X013173Y010165D01*
X013049Y010165D02*
X013049Y010412D01*
X013111Y010412D01*
X013173Y010350D01*
X012928Y010350D02*
X012928Y010227D01*
X012866Y010165D01*
X012681Y010165D01*
X012681Y010042D02*
X012681Y010412D01*
X012866Y010412D01*
X012928Y010350D01*
X012559Y010350D02*
X012559Y010227D01*
X012498Y010165D01*
X012374Y010165D01*
X012312Y010227D01*
X012312Y010350D01*
X012374Y010412D01*
X012498Y010412D01*
X012559Y010350D01*
X012190Y010165D02*
X012067Y010165D01*
X012129Y010165D02*
X012129Y010535D01*
X012067Y010535D01*
X011884Y010412D02*
X011946Y010350D01*
X011946Y010288D01*
X011699Y010288D01*
X011699Y010227D02*
X011699Y010350D01*
X011760Y010412D01*
X011884Y010412D01*
X011577Y010412D02*
X011454Y010165D01*
X011330Y010412D01*
X011209Y010350D02*
X011209Y010288D01*
X010962Y010288D01*
X010962Y010227D02*
X010962Y010350D01*
X011024Y010412D01*
X011147Y010412D01*
X011209Y010350D01*
X011147Y010165D02*
X011024Y010165D01*
X010962Y010227D01*
X010841Y010227D02*
X010841Y010474D01*
X010779Y010535D01*
X010594Y010535D01*
X010594Y010165D01*
X010779Y010165D01*
X010841Y010227D01*
X010839Y010645D02*
X011024Y010645D01*
X011086Y010707D01*
X011024Y010768D01*
X010901Y010768D01*
X010839Y010830D01*
X010901Y010892D01*
X011086Y010892D01*
X011208Y010830D02*
X011208Y010707D01*
X011269Y010645D01*
X011393Y010645D01*
X011454Y010707D01*
X011454Y010830D01*
X011393Y010892D01*
X011269Y010892D01*
X011208Y010830D01*
X010718Y010830D02*
X010718Y010645D01*
X010718Y010830D02*
X010656Y010892D01*
X010471Y010892D01*
X010471Y010645D01*
X010349Y010768D02*
X010103Y010768D01*
X010103Y010707D02*
X010103Y010830D01*
X010164Y010892D01*
X010288Y010892D01*
X010349Y010830D01*
X010349Y010768D01*
X010288Y010645D02*
X010164Y010645D01*
X010103Y010707D01*
X009981Y010707D02*
X009919Y010645D01*
X009796Y010645D01*
X009734Y010707D01*
X009673Y010597D02*
X009673Y010535D01*
X009673Y010412D02*
X009612Y010412D01*
X009673Y010412D02*
X009673Y010165D01*
X009612Y010165D02*
X009735Y010165D01*
X009857Y010165D02*
X010104Y010412D01*
X009857Y010412D02*
X010104Y010165D01*
X009490Y010227D02*
X009428Y010165D01*
X009243Y010165D01*
X009122Y010165D02*
X008875Y010535D01*
X008876Y010645D02*
X008752Y010645D01*
X008814Y010645D02*
X008814Y010892D01*
X008752Y010892D01*
X008814Y011015D02*
X008814Y011077D01*
X008631Y011015D02*
X008384Y010768D01*
X008446Y010830D02*
X008631Y010645D01*
X008384Y010645D02*
X008384Y011015D01*
X008200Y011015D02*
X008200Y011077D01*
X008200Y010892D02*
X008138Y010892D01*
X008200Y010892D02*
X008200Y010645D01*
X008138Y010645D02*
X008262Y010645D01*
X008323Y010535D02*
X008138Y010350D01*
X008385Y010350D01*
X008323Y010165D02*
X008323Y010535D01*
X008017Y010707D02*
X008017Y010830D01*
X007955Y010892D01*
X007770Y010892D01*
X007770Y011015D02*
X007770Y010645D01*
X007955Y010645D01*
X008017Y010707D01*
X007893Y010535D02*
X007893Y010165D01*
X007770Y010165D02*
X008017Y010165D01*
X007770Y010412D02*
X007893Y010535D01*
X007649Y010535D02*
X007402Y010165D01*
X007280Y010227D02*
X007280Y010288D01*
X007218Y010350D01*
X007033Y010350D01*
X007033Y010227D01*
X007095Y010165D01*
X007218Y010165D01*
X007280Y010227D01*
X007157Y010474D02*
X007033Y010350D01*
X006912Y010227D02*
X006850Y010165D01*
X006727Y010165D01*
X006665Y010227D01*
X006912Y010474D01*
X006912Y010227D01*
X006665Y010227D02*
X006665Y010474D01*
X006727Y010535D01*
X006850Y010535D01*
X006912Y010474D01*
X006912Y010645D02*
X006665Y011015D01*
X006912Y011015D02*
X006665Y010645D01*
X007033Y010645D02*
X007033Y010892D01*
X007157Y011015D01*
X007280Y010892D01*
X007280Y010645D01*
X007280Y010535D02*
X007157Y010474D01*
X007402Y010645D02*
X007402Y010892D01*
X007463Y010892D01*
X007525Y010830D01*
X007587Y010892D01*
X007649Y010830D01*
X007649Y010645D01*
X007525Y010645D02*
X007525Y010830D01*
X007280Y010830D02*
X007033Y010830D01*
X008875Y010165D02*
X009122Y010535D01*
X009059Y010645D02*
X008998Y010707D01*
X008998Y010830D01*
X009059Y010892D01*
X009245Y010892D01*
X009245Y011015D02*
X009245Y010645D01*
X009059Y010645D01*
X009243Y010412D02*
X009428Y010412D01*
X009490Y010350D01*
X009490Y010227D01*
X009243Y010042D02*
X009243Y010412D01*
X009734Y010892D02*
X009796Y010830D01*
X009919Y010830D01*
X009981Y010768D01*
X009981Y010707D01*
X009981Y010954D02*
X009919Y011015D01*
X009796Y011015D01*
X009734Y010954D01*
X009734Y010892D01*
X011576Y010892D02*
X011576Y010645D01*
X011576Y010768D02*
X011699Y010892D01*
X011761Y010892D01*
X012251Y010954D02*
X012251Y010707D01*
X012498Y010954D01*
X012498Y010707D01*
X012436Y010645D01*
X012313Y010645D01*
X012251Y010707D01*
X012251Y010954D02*
X012313Y011015D01*
X012436Y011015D01*
X012498Y010954D01*
X012804Y010892D02*
X012927Y011015D01*
X012927Y010645D01*
X012804Y010645D02*
X013050Y010645D01*
X012681Y010645D02*
X012619Y010645D01*
X012619Y010707D01*
X012681Y010707D01*
X012681Y010645D01*
X011884Y010165D02*
X011760Y010165D01*
X011699Y010227D01*
D11*
X002650Y001400D02*
X002648Y001454D01*
X002642Y001507D01*
X002633Y001559D01*
X002620Y001611D01*
X002603Y001662D01*
X002582Y001712D01*
X002558Y001759D01*
X002531Y001805D01*
X002500Y001849D01*
X002467Y001891D01*
X002430Y001930D01*
X002391Y001967D01*
X002349Y002000D01*
X002305Y002031D01*
X002259Y002058D01*
X002212Y002082D01*
X002162Y002103D01*
X002111Y002120D01*
X002059Y002133D01*
X002007Y002142D01*
X001954Y002148D01*
X001900Y002150D01*
X000150Y002150D01*
X000150Y011256D01*
X000150Y011150D02*
X000152Y011194D01*
X000158Y011237D01*
X000167Y011279D01*
X000180Y011321D01*
X000197Y011361D01*
X000217Y011400D01*
X000240Y011437D01*
X000267Y011471D01*
X000296Y011504D01*
X000329Y011533D01*
X000363Y011560D01*
X000400Y011583D01*
X000439Y011603D01*
X000479Y011620D01*
X000521Y011633D01*
X000563Y011642D01*
X000606Y011648D01*
X000650Y011650D01*
X014650Y011650D01*
X014680Y011648D01*
X014710Y011643D01*
X014739Y011634D01*
X014766Y011621D01*
X014792Y011606D01*
X014816Y011587D01*
X014837Y011566D01*
X014856Y011542D01*
X014871Y011516D01*
X014884Y011489D01*
X014893Y011460D01*
X014898Y011430D01*
X014900Y011400D01*
X014900Y010400D01*
X014902Y010346D01*
X014908Y010293D01*
X014917Y010241D01*
X014930Y010189D01*
X014947Y010138D01*
X014968Y010088D01*
X014992Y010041D01*
X015019Y009995D01*
X015050Y009951D01*
X015083Y009909D01*
X015120Y009870D01*
X015159Y009833D01*
X015201Y009800D01*
X015245Y009769D01*
X015291Y009742D01*
X015338Y009718D01*
X015388Y009697D01*
X015439Y009680D01*
X015491Y009667D01*
X015543Y009658D01*
X015596Y009652D01*
X015650Y009650D01*
X017400Y009650D01*
X017400Y000544D01*
X017398Y000505D01*
X017392Y000467D01*
X017383Y000430D01*
X017370Y000393D01*
X017353Y000358D01*
X017334Y000325D01*
X017311Y000294D01*
X017285Y000265D01*
X017256Y000239D01*
X017225Y000216D01*
X017192Y000197D01*
X017157Y000180D01*
X017120Y000167D01*
X017083Y000158D01*
X017045Y000152D01*
X017006Y000150D01*
X017150Y000150D02*
X002900Y000150D01*
X002870Y000152D01*
X002840Y000157D01*
X002811Y000166D01*
X002784Y000179D01*
X002758Y000194D01*
X002734Y000213D01*
X002713Y000234D01*
X002694Y000258D01*
X002679Y000284D01*
X002666Y000311D01*
X002657Y000340D01*
X002652Y000370D01*
X002650Y000400D01*
X002650Y001400D01*
X001158Y007650D02*
X001160Y007694D01*
X001166Y007738D01*
X001176Y007781D01*
X001189Y007823D01*
X001207Y007863D01*
X001228Y007902D01*
X001252Y007939D01*
X001279Y007974D01*
X001310Y008006D01*
X001343Y008035D01*
X001379Y008061D01*
X001417Y008083D01*
X001457Y008102D01*
X001498Y008118D01*
X001541Y008130D01*
X001584Y008138D01*
X001628Y008142D01*
X001672Y008142D01*
X001716Y008138D01*
X001759Y008130D01*
X001802Y008118D01*
X001843Y008102D01*
X001883Y008083D01*
X001921Y008061D01*
X001957Y008035D01*
X001990Y008006D01*
X002021Y007974D01*
X002048Y007939D01*
X002072Y007902D01*
X002093Y007863D01*
X002111Y007823D01*
X002124Y007781D01*
X002134Y007738D01*
X002140Y007694D01*
X002142Y007650D01*
X002140Y007606D01*
X002134Y007562D01*
X002124Y007519D01*
X002111Y007477D01*
X002093Y007437D01*
X002072Y007398D01*
X002048Y007361D01*
X002021Y007326D01*
X001990Y007294D01*
X001957Y007265D01*
X001921Y007239D01*
X001883Y007217D01*
X001843Y007198D01*
X001802Y007182D01*
X001759Y007170D01*
X001716Y007162D01*
X001672Y007158D01*
X001628Y007158D01*
X001584Y007162D01*
X001541Y007170D01*
X001498Y007182D01*
X001457Y007198D01*
X001417Y007217D01*
X001379Y007239D01*
X001343Y007265D01*
X001310Y007294D01*
X001279Y007326D01*
X001252Y007361D01*
X001228Y007398D01*
X001207Y007437D01*
X001189Y007477D01*
X001176Y007519D01*
X001166Y007562D01*
X001160Y007606D01*
X001158Y007650D01*
X004382Y010485D02*
X004384Y010529D01*
X004390Y010573D01*
X004400Y010616D01*
X004413Y010658D01*
X004431Y010698D01*
X004452Y010737D01*
X004476Y010774D01*
X004503Y010809D01*
X004534Y010841D01*
X004567Y010870D01*
X004603Y010896D01*
X004641Y010918D01*
X004681Y010937D01*
X004722Y010953D01*
X004765Y010965D01*
X004808Y010973D01*
X004852Y010977D01*
X004896Y010977D01*
X004940Y010973D01*
X004983Y010965D01*
X005026Y010953D01*
X005067Y010937D01*
X005107Y010918D01*
X005145Y010896D01*
X005181Y010870D01*
X005214Y010841D01*
X005245Y010809D01*
X005272Y010774D01*
X005296Y010737D01*
X005317Y010698D01*
X005335Y010658D01*
X005348Y010616D01*
X005358Y010573D01*
X005364Y010529D01*
X005366Y010485D01*
X005364Y010441D01*
X005358Y010397D01*
X005348Y010354D01*
X005335Y010312D01*
X005317Y010272D01*
X005296Y010233D01*
X005272Y010196D01*
X005245Y010161D01*
X005214Y010129D01*
X005181Y010100D01*
X005145Y010074D01*
X005107Y010052D01*
X005067Y010033D01*
X005026Y010017D01*
X004983Y010005D01*
X004940Y009997D01*
X004896Y009993D01*
X004852Y009993D01*
X004808Y009997D01*
X004765Y010005D01*
X004722Y010017D01*
X004681Y010033D01*
X004641Y010052D01*
X004603Y010074D01*
X004567Y010100D01*
X004534Y010129D01*
X004503Y010161D01*
X004476Y010196D01*
X004452Y010233D01*
X004431Y010272D01*
X004413Y010312D01*
X004400Y010354D01*
X004390Y010397D01*
X004384Y010441D01*
X004382Y010485D01*
X012256Y001233D02*
X012258Y001277D01*
X012264Y001321D01*
X012274Y001364D01*
X012287Y001406D01*
X012305Y001446D01*
X012326Y001485D01*
X012350Y001522D01*
X012377Y001557D01*
X012408Y001589D01*
X012441Y001618D01*
X012477Y001644D01*
X012515Y001666D01*
X012555Y001685D01*
X012596Y001701D01*
X012639Y001713D01*
X012682Y001721D01*
X012726Y001725D01*
X012770Y001725D01*
X012814Y001721D01*
X012857Y001713D01*
X012900Y001701D01*
X012941Y001685D01*
X012981Y001666D01*
X013019Y001644D01*
X013055Y001618D01*
X013088Y001589D01*
X013119Y001557D01*
X013146Y001522D01*
X013170Y001485D01*
X013191Y001446D01*
X013209Y001406D01*
X013222Y001364D01*
X013232Y001321D01*
X013238Y001277D01*
X013240Y001233D01*
X013238Y001189D01*
X013232Y001145D01*
X013222Y001102D01*
X013209Y001060D01*
X013191Y001020D01*
X013170Y000981D01*
X013146Y000944D01*
X013119Y000909D01*
X013088Y000877D01*
X013055Y000848D01*
X013019Y000822D01*
X012981Y000800D01*
X012941Y000781D01*
X012900Y000765D01*
X012857Y000753D01*
X012814Y000745D01*
X012770Y000741D01*
X012726Y000741D01*
X012682Y000745D01*
X012639Y000753D01*
X012596Y000765D01*
X012555Y000781D01*
X012515Y000800D01*
X012477Y000822D01*
X012441Y000848D01*
X012408Y000877D01*
X012377Y000909D01*
X012350Y000944D01*
X012326Y000981D01*
X012305Y001020D01*
X012287Y001060D01*
X012274Y001102D01*
X012264Y001145D01*
X012258Y001189D01*
X012256Y001233D01*
D12*
X012337Y002487D02*
X012564Y002487D01*
X012451Y002487D02*
X012451Y002827D01*
X012337Y002714D01*
X012705Y002714D02*
X012819Y002827D01*
X012819Y002487D01*
X012932Y002487D02*
X012705Y002487D01*
X013337Y002487D02*
X013564Y002487D01*
X013451Y002487D02*
X013451Y002827D01*
X013337Y002714D01*
X013705Y002770D02*
X013762Y002827D01*
X013876Y002827D01*
X013932Y002770D01*
X013932Y002714D01*
X013705Y002487D01*
X013932Y002487D01*
X014650Y002400D02*
X014650Y001900D01*
X014900Y001650D01*
X014650Y001400D01*
X014650Y000900D01*
X014900Y000650D01*
X016400Y000650D01*
X016650Y000900D01*
X016650Y001400D01*
X016400Y001650D01*
X014900Y001650D01*
X014650Y002400D02*
X014900Y002650D01*
X016400Y002650D01*
X016650Y002400D01*
X016650Y001900D01*
X016400Y001650D01*
X016400Y002650D02*
X016650Y002900D01*
X016650Y003400D01*
X016400Y003650D01*
X014900Y003650D01*
X014650Y003400D01*
X014650Y002900D01*
X014900Y002650D01*
X014900Y003650D02*
X014650Y003900D01*
X014650Y004400D01*
X014900Y004650D01*
X016400Y004650D01*
X016650Y004400D01*
X016650Y003900D01*
X016400Y003650D01*
X011932Y002770D02*
X011932Y002543D01*
X011876Y002487D01*
X011762Y002487D01*
X011705Y002543D01*
X011932Y002770D01*
X011876Y002827D01*
X011762Y002827D01*
X011705Y002770D01*
X011705Y002543D01*
X011564Y002487D02*
X011337Y002487D01*
X011451Y002487D02*
X011451Y002827D01*
X011337Y002714D01*
X010932Y002770D02*
X010932Y002543D01*
X010876Y002487D01*
X010762Y002487D01*
X010705Y002543D01*
X010762Y002657D02*
X010932Y002657D01*
X010932Y002770D02*
X010876Y002827D01*
X010762Y002827D01*
X010705Y002770D01*
X010705Y002714D01*
X010762Y002657D01*
X009932Y002714D02*
X009876Y002657D01*
X009762Y002657D01*
X009705Y002714D01*
X009705Y002770D01*
X009762Y002827D01*
X009876Y002827D01*
X009932Y002770D01*
X009932Y002714D01*
X009876Y002657D02*
X009932Y002600D01*
X009932Y002543D01*
X009876Y002487D01*
X009762Y002487D01*
X009705Y002543D01*
X009705Y002600D01*
X009762Y002657D01*
X008932Y002770D02*
X008705Y002543D01*
X008705Y002487D01*
X008705Y002827D02*
X008932Y002827D01*
X008932Y002770D01*
X007932Y002827D02*
X007819Y002770D01*
X007705Y002657D01*
X007876Y002657D01*
X007932Y002600D01*
X007932Y002543D01*
X007876Y002487D01*
X007762Y002487D01*
X007705Y002543D01*
X007705Y002657D01*
X006932Y002657D02*
X006932Y002543D01*
X006876Y002487D01*
X006762Y002487D01*
X006705Y002543D01*
X006705Y002657D02*
X006819Y002714D01*
X006876Y002714D01*
X006932Y002657D01*
X006932Y002827D02*
X006705Y002827D01*
X006705Y002657D01*
X005932Y002657D02*
X005705Y002657D01*
X005876Y002827D01*
X005876Y002487D01*
X004932Y002543D02*
X004876Y002487D01*
X004762Y002487D01*
X004705Y002543D01*
X004819Y002657D02*
X004876Y002657D01*
X004932Y002600D01*
X004932Y002543D01*
X004876Y002657D02*
X004932Y002714D01*
X004932Y002770D01*
X004876Y002827D01*
X004762Y002827D01*
X004705Y002770D01*
X003932Y002770D02*
X003932Y002714D01*
X003705Y002487D01*
X003932Y002487D01*
X003932Y002770D02*
X003876Y002827D01*
X003762Y002827D01*
X003705Y002770D01*
X002932Y002487D02*
X002705Y002487D01*
X002819Y002487D02*
X002819Y002827D01*
X002705Y002714D01*
D13*
X013705Y001716D02*
X014155Y001716D01*
X014155Y001566D02*
X014155Y001866D01*
X013855Y001566D02*
X013705Y001716D01*
X013780Y001406D02*
X013705Y001331D01*
X013705Y001105D01*
X014155Y001105D01*
X014005Y001105D02*
X014005Y001331D01*
X013930Y001406D01*
X013780Y001406D01*
X013705Y000945D02*
X013705Y000795D01*
X013705Y000870D02*
X014080Y000870D01*
X014155Y000795D01*
X014155Y000720D01*
X014080Y000645D01*
D14*
X014142Y003152D02*
X013158Y003152D01*
X013158Y009648D01*
X014142Y009648D01*
X014142Y003152D01*
X013142Y003152D02*
X012158Y003152D01*
X012158Y009648D01*
X013142Y009648D01*
X013142Y003152D01*
X012142Y003152D02*
X011158Y003152D01*
X011158Y009648D01*
X012142Y009648D01*
X012142Y003152D01*
X011142Y003152D02*
X010158Y003152D01*
X010158Y009648D01*
X011142Y009648D01*
X011142Y003152D01*
X010142Y003152D02*
X009158Y003152D01*
X009158Y009648D01*
X010142Y009648D01*
X010142Y003152D01*
X009142Y003152D02*
X008158Y003152D01*
X008158Y009648D01*
X009142Y009648D01*
X009142Y003152D01*
X008142Y003152D02*
X007158Y003152D01*
X007158Y009648D01*
X008142Y009648D01*
X008142Y003152D01*
X007142Y003152D02*
X006158Y003152D01*
X006158Y009648D01*
X007142Y009648D01*
X007142Y003152D01*
X006142Y003152D02*
X005158Y003152D01*
X005158Y009648D01*
X006142Y009648D01*
X006142Y003152D01*
X005142Y003152D02*
X004158Y003152D01*
X004158Y009648D01*
X005142Y009648D01*
X005142Y003152D01*
X004142Y003152D02*
X003158Y003152D01*
X003158Y009648D01*
X004142Y009648D01*
X004142Y003152D01*
X003142Y003152D02*
X002158Y003152D01*
X002158Y009648D01*
X003142Y009648D01*
X003142Y003152D01*
D15*
X004111Y000650D03*
D16*
X004091Y001170D02*
X004321Y001170D01*
X004398Y001247D01*
X004398Y001554D01*
X004321Y001630D01*
X004091Y001630D01*
X004091Y001170D01*
X003937Y001170D02*
X003630Y001170D01*
X003630Y001630D01*
X003937Y001630D01*
X003784Y001400D02*
X003630Y001400D01*
X003477Y001170D02*
X003170Y001170D01*
X003170Y001630D01*
X004551Y001477D02*
X004705Y001630D01*
X004705Y001170D01*
X004858Y001170D02*
X004551Y001170D01*
X005420Y001170D02*
X005420Y001630D01*
X005650Y001630D01*
X005727Y001554D01*
X005727Y001400D01*
X005650Y001323D01*
X005420Y001323D01*
X005573Y001323D02*
X005727Y001170D01*
X005880Y001170D02*
X006187Y001170D01*
X006034Y001170D02*
X006034Y001630D01*
X005880Y001477D01*
M02*
