%
M48
M72
T01C0.0360
T02C0.0400
T03C0.0984
%
T01
X2650Y3644
X2650Y4431
X2650Y5219
X2650Y6006
X2650Y6794
X2650Y7581
X2650Y8369
X2650Y9156
X3650Y3644
X3650Y4431
X3650Y5219
X3650Y6006
X3650Y6794
X3650Y7581
X3650Y8369
X3650Y9156
X4650Y3644
X4650Y4431
X4650Y5219
X4650Y6006
X4650Y6794
X4650Y7581
X4650Y8369
X4650Y9156
X5650Y3644
X5650Y4431
X5650Y5219
X5650Y6006
X5650Y6794
X5650Y7581
X5650Y8369
X5650Y9156
X6650Y3644
X6650Y4431
X6650Y5219
X6650Y6006
X6650Y6794
X6650Y7581
X6650Y8369
X6650Y9156
X7650Y3644
X7650Y4431
X7650Y5219
X7650Y6006
X7650Y6794
X7650Y7581
X7650Y8369
X7650Y9156
X8650Y3644
X8650Y4431
X8650Y5219
X8650Y6006
X8650Y6794
X8650Y7581
X8650Y8369
X8650Y9156
X9650Y3644
X9650Y4431
X9650Y5219
X9650Y6006
X9650Y6794
X9650Y7581
X9650Y8369
X9650Y9156
X10650Y3644
X10650Y4431
X10650Y5219
X10650Y6006
X10650Y6794
X10650Y7581
X10650Y8369
X10650Y9156
X13650Y3644
X13650Y4431
X13650Y5219
X13650Y6006
X13650Y6794
X13650Y7581
X13650Y8369
X13650Y9156
X11650Y3644
X11650Y4431
X11650Y5219
X11650Y6006
X11650Y6794
X11650Y7581
X11650Y8369
X11650Y9156
X12650Y3644
X12650Y4431
X12650Y5219
X12650Y6006
X12650Y6794
X12650Y7581
X12650Y8369
X12650Y9156
T02
X15150Y4150
X16150Y4150
X15150Y3150
X16150Y3150
X15150Y2150
X16150Y2150
X15150Y1150
X16150Y1150
T03
X12748Y1233
X4874Y10485
X1650Y7650
M30
