G75*
%MOIN*%
%OFA0B0*%
%FSLAX24Y24*%
%IPPOS*%
%LPD*%
%AMOC8*
5,1,8,0,0,1.08239X$1,22.5*
%
%ADD10C,0.0000*%
%ADD11OC8,0.0600*%
%ADD12R,0.0560X0.0560*%
%ADD13C,0.0560*%
%ADD14R,0.0472X0.0472*%
%ADD15R,0.0512X0.0591*%
%ADD16C,0.0100*%
%ADD17C,0.0080*%
D10*
X002650Y001400D02*
X002648Y001454D01*
X002642Y001507D01*
X002633Y001559D01*
X002620Y001611D01*
X002603Y001662D01*
X002582Y001712D01*
X002558Y001759D01*
X002531Y001805D01*
X002500Y001849D01*
X002467Y001891D01*
X002430Y001930D01*
X002391Y001967D01*
X002349Y002000D01*
X002305Y002031D01*
X002259Y002058D01*
X002212Y002082D01*
X002162Y002103D01*
X002111Y002120D01*
X002059Y002133D01*
X002007Y002142D01*
X001954Y002148D01*
X001900Y002150D01*
X000150Y002150D01*
X000150Y011256D01*
X000150Y011150D02*
X000152Y011194D01*
X000158Y011237D01*
X000167Y011279D01*
X000180Y011321D01*
X000197Y011361D01*
X000217Y011400D01*
X000240Y011437D01*
X000267Y011471D01*
X000296Y011504D01*
X000329Y011533D01*
X000363Y011560D01*
X000400Y011583D01*
X000439Y011603D01*
X000479Y011620D01*
X000521Y011633D01*
X000563Y011642D01*
X000606Y011648D01*
X000650Y011650D01*
X014650Y011650D01*
X014680Y011648D01*
X014710Y011643D01*
X014739Y011634D01*
X014766Y011621D01*
X014792Y011606D01*
X014816Y011587D01*
X014837Y011566D01*
X014856Y011542D01*
X014871Y011516D01*
X014884Y011489D01*
X014893Y011460D01*
X014898Y011430D01*
X014900Y011400D01*
X014900Y010400D01*
X014902Y010346D01*
X014908Y010293D01*
X014917Y010241D01*
X014930Y010189D01*
X014947Y010138D01*
X014968Y010088D01*
X014992Y010041D01*
X015019Y009995D01*
X015050Y009951D01*
X015083Y009909D01*
X015120Y009870D01*
X015159Y009833D01*
X015201Y009800D01*
X015245Y009769D01*
X015291Y009742D01*
X015338Y009718D01*
X015388Y009697D01*
X015439Y009680D01*
X015491Y009667D01*
X015543Y009658D01*
X015596Y009652D01*
X015650Y009650D01*
X017400Y009650D01*
X017400Y000544D01*
X017398Y000505D01*
X017392Y000467D01*
X017383Y000430D01*
X017370Y000393D01*
X017353Y000358D01*
X017334Y000325D01*
X017311Y000294D01*
X017285Y000265D01*
X017256Y000239D01*
X017225Y000216D01*
X017192Y000197D01*
X017157Y000180D01*
X017120Y000167D01*
X017083Y000158D01*
X017045Y000152D01*
X017006Y000150D01*
X017150Y000150D02*
X002900Y000150D01*
X002870Y000152D01*
X002840Y000157D01*
X002811Y000166D01*
X002784Y000179D01*
X002758Y000194D01*
X002734Y000213D01*
X002713Y000234D01*
X002694Y000258D01*
X002679Y000284D01*
X002666Y000311D01*
X002657Y000340D01*
X002652Y000370D01*
X002650Y000400D01*
X002650Y001400D01*
X001158Y007650D02*
X001160Y007694D01*
X001166Y007738D01*
X001176Y007781D01*
X001189Y007823D01*
X001207Y007863D01*
X001228Y007902D01*
X001252Y007939D01*
X001279Y007974D01*
X001310Y008006D01*
X001343Y008035D01*
X001379Y008061D01*
X001417Y008083D01*
X001457Y008102D01*
X001498Y008118D01*
X001541Y008130D01*
X001584Y008138D01*
X001628Y008142D01*
X001672Y008142D01*
X001716Y008138D01*
X001759Y008130D01*
X001802Y008118D01*
X001843Y008102D01*
X001883Y008083D01*
X001921Y008061D01*
X001957Y008035D01*
X001990Y008006D01*
X002021Y007974D01*
X002048Y007939D01*
X002072Y007902D01*
X002093Y007863D01*
X002111Y007823D01*
X002124Y007781D01*
X002134Y007738D01*
X002140Y007694D01*
X002142Y007650D01*
X002140Y007606D01*
X002134Y007562D01*
X002124Y007519D01*
X002111Y007477D01*
X002093Y007437D01*
X002072Y007398D01*
X002048Y007361D01*
X002021Y007326D01*
X001990Y007294D01*
X001957Y007265D01*
X001921Y007239D01*
X001883Y007217D01*
X001843Y007198D01*
X001802Y007182D01*
X001759Y007170D01*
X001716Y007162D01*
X001672Y007158D01*
X001628Y007158D01*
X001584Y007162D01*
X001541Y007170D01*
X001498Y007182D01*
X001457Y007198D01*
X001417Y007217D01*
X001379Y007239D01*
X001343Y007265D01*
X001310Y007294D01*
X001279Y007326D01*
X001252Y007361D01*
X001228Y007398D01*
X001207Y007437D01*
X001189Y007477D01*
X001176Y007519D01*
X001166Y007562D01*
X001160Y007606D01*
X001158Y007650D01*
X004382Y010485D02*
X004384Y010529D01*
X004390Y010573D01*
X004400Y010616D01*
X004413Y010658D01*
X004431Y010698D01*
X004452Y010737D01*
X004476Y010774D01*
X004503Y010809D01*
X004534Y010841D01*
X004567Y010870D01*
X004603Y010896D01*
X004641Y010918D01*
X004681Y010937D01*
X004722Y010953D01*
X004765Y010965D01*
X004808Y010973D01*
X004852Y010977D01*
X004896Y010977D01*
X004940Y010973D01*
X004983Y010965D01*
X005026Y010953D01*
X005067Y010937D01*
X005107Y010918D01*
X005145Y010896D01*
X005181Y010870D01*
X005214Y010841D01*
X005245Y010809D01*
X005272Y010774D01*
X005296Y010737D01*
X005317Y010698D01*
X005335Y010658D01*
X005348Y010616D01*
X005358Y010573D01*
X005364Y010529D01*
X005366Y010485D01*
X005364Y010441D01*
X005358Y010397D01*
X005348Y010354D01*
X005335Y010312D01*
X005317Y010272D01*
X005296Y010233D01*
X005272Y010196D01*
X005245Y010161D01*
X005214Y010129D01*
X005181Y010100D01*
X005145Y010074D01*
X005107Y010052D01*
X005067Y010033D01*
X005026Y010017D01*
X004983Y010005D01*
X004940Y009997D01*
X004896Y009993D01*
X004852Y009993D01*
X004808Y009997D01*
X004765Y010005D01*
X004722Y010017D01*
X004681Y010033D01*
X004641Y010052D01*
X004603Y010074D01*
X004567Y010100D01*
X004534Y010129D01*
X004503Y010161D01*
X004476Y010196D01*
X004452Y010233D01*
X004431Y010272D01*
X004413Y010312D01*
X004400Y010354D01*
X004390Y010397D01*
X004384Y010441D01*
X004382Y010485D01*
X012256Y001233D02*
X012258Y001277D01*
X012264Y001321D01*
X012274Y001364D01*
X012287Y001406D01*
X012305Y001446D01*
X012326Y001485D01*
X012350Y001522D01*
X012377Y001557D01*
X012408Y001589D01*
X012441Y001618D01*
X012477Y001644D01*
X012515Y001666D01*
X012555Y001685D01*
X012596Y001701D01*
X012639Y001713D01*
X012682Y001721D01*
X012726Y001725D01*
X012770Y001725D01*
X012814Y001721D01*
X012857Y001713D01*
X012900Y001701D01*
X012941Y001685D01*
X012981Y001666D01*
X013019Y001644D01*
X013055Y001618D01*
X013088Y001589D01*
X013119Y001557D01*
X013146Y001522D01*
X013170Y001485D01*
X013191Y001446D01*
X013209Y001406D01*
X013222Y001364D01*
X013232Y001321D01*
X013238Y001277D01*
X013240Y001233D01*
X013238Y001189D01*
X013232Y001145D01*
X013222Y001102D01*
X013209Y001060D01*
X013191Y001020D01*
X013170Y000981D01*
X013146Y000944D01*
X013119Y000909D01*
X013088Y000877D01*
X013055Y000848D01*
X013019Y000822D01*
X012981Y000800D01*
X012941Y000781D01*
X012900Y000765D01*
X012857Y000753D01*
X012814Y000745D01*
X012770Y000741D01*
X012726Y000741D01*
X012682Y000745D01*
X012639Y000753D01*
X012596Y000765D01*
X012555Y000781D01*
X012515Y000800D01*
X012477Y000822D01*
X012441Y000848D01*
X012408Y000877D01*
X012377Y000909D01*
X012350Y000944D01*
X012326Y000981D01*
X012305Y001020D01*
X012287Y001060D01*
X012274Y001102D01*
X012264Y001145D01*
X012258Y001189D01*
X012256Y001233D01*
D11*
X015150Y001150D03*
X016150Y001150D03*
X016150Y002150D03*
X015150Y002150D03*
X015150Y003150D03*
X016150Y003150D03*
X016150Y004150D03*
X015150Y004150D03*
D12*
X013650Y003644D03*
X012650Y003644D03*
X011650Y003644D03*
X010650Y003644D03*
X009650Y003644D03*
X008650Y003644D03*
X007650Y003644D03*
X006650Y003644D03*
X005650Y003644D03*
X004650Y003644D03*
X003650Y003644D03*
X002650Y003644D03*
D13*
X002650Y004431D03*
X003650Y004431D03*
X004650Y004431D03*
X005650Y004431D03*
X006650Y004431D03*
X007650Y004431D03*
X008650Y004431D03*
X009650Y004431D03*
X010650Y004431D03*
X011650Y004431D03*
X012650Y004431D03*
X013650Y004431D03*
X013650Y005219D03*
X012650Y005219D03*
X012650Y006006D03*
X013650Y006006D03*
X013650Y006794D03*
X012650Y006794D03*
X011650Y006794D03*
X010650Y006794D03*
X009650Y006794D03*
X008650Y006794D03*
X007650Y006794D03*
X006650Y006794D03*
X005650Y006794D03*
X004650Y006794D03*
X003650Y006794D03*
X002650Y006794D03*
X002650Y007581D03*
X002650Y008369D03*
X003650Y008369D03*
X003650Y007581D03*
X004650Y007581D03*
X005650Y007581D03*
X005650Y008369D03*
X004650Y008369D03*
X004650Y009156D03*
X005650Y009156D03*
X006650Y009156D03*
X007650Y009156D03*
X008650Y009156D03*
X009650Y009156D03*
X010650Y009156D03*
X011650Y009156D03*
X012650Y009156D03*
X013650Y009156D03*
X013650Y008369D03*
X012650Y008369D03*
X012650Y007581D03*
X013650Y007581D03*
X011650Y007581D03*
X011650Y008369D03*
X010650Y008369D03*
X009650Y008369D03*
X009650Y007581D03*
X010650Y007581D03*
X008650Y007581D03*
X008650Y008369D03*
X007650Y008369D03*
X006650Y008369D03*
X006650Y007581D03*
X007650Y007581D03*
X007650Y006006D03*
X006650Y006006D03*
X006650Y005219D03*
X007650Y005219D03*
X008650Y005219D03*
X008650Y006006D03*
X009650Y006006D03*
X010650Y006006D03*
X010650Y005219D03*
X009650Y005219D03*
X011650Y005219D03*
X011650Y006006D03*
X005650Y006006D03*
X004650Y006006D03*
X004650Y005219D03*
X005650Y005219D03*
X003650Y005219D03*
X003650Y006006D03*
X002650Y006006D03*
X002650Y005219D03*
X002650Y009156D03*
X003650Y009156D03*
D14*
X003737Y000650D03*
X004563Y000650D03*
D15*
X005276Y000650D03*
X006024Y000650D03*
D16*
X005658Y000643D02*
X005642Y000643D01*
X005642Y000741D02*
X005658Y000741D01*
X005658Y000840D02*
X005642Y000840D01*
X005642Y000938D02*
X005658Y000938D01*
X005658Y000991D02*
X005658Y000309D01*
X005667Y000300D01*
X005633Y000300D01*
X005642Y000309D01*
X005642Y000991D01*
X005577Y001055D01*
X004975Y001055D01*
X004910Y000991D01*
X004910Y000812D01*
X004910Y000812D01*
X004910Y000932D01*
X004845Y000996D01*
X004282Y000996D01*
X004217Y000932D01*
X004217Y000368D01*
X004282Y000304D01*
X004845Y000304D01*
X004910Y000368D01*
X004910Y000512D01*
X004910Y000309D01*
X004919Y000300D01*
X004071Y000300D01*
X004093Y000322D01*
X004113Y000356D01*
X004123Y000394D01*
X004123Y000600D01*
X003787Y000600D01*
X003787Y000700D01*
X004123Y000700D01*
X004123Y000906D01*
X004113Y000944D01*
X004093Y000978D01*
X004065Y001006D01*
X004031Y001026D01*
X003993Y001036D01*
X003787Y001036D01*
X003787Y000700D01*
X003687Y000700D01*
X003687Y001036D01*
X003481Y001036D01*
X003442Y001026D01*
X003408Y001006D01*
X003380Y000978D01*
X003361Y000944D01*
X003350Y000906D01*
X003350Y000700D01*
X003687Y000700D01*
X003687Y000600D01*
X003350Y000600D01*
X003350Y000394D01*
X003361Y000356D01*
X003380Y000322D01*
X003402Y000300D01*
X002900Y000300D01*
X002874Y000303D01*
X002829Y000329D01*
X002803Y000374D01*
X002800Y000400D01*
X002800Y001543D01*
X002712Y001814D01*
X002544Y002044D01*
X002314Y002212D01*
X002314Y002212D01*
X002043Y002300D01*
X000300Y002300D01*
X000300Y011150D01*
X000307Y011218D01*
X000359Y011344D01*
X000456Y011441D01*
X000582Y011493D01*
X000650Y011500D01*
X014650Y011500D01*
X014676Y011497D01*
X014721Y011471D01*
X014747Y011426D01*
X014750Y011400D01*
X014750Y010257D01*
X014838Y009986D01*
X015006Y009756D01*
X015236Y009588D01*
X015236Y009588D01*
X015507Y009500D01*
X017250Y009500D01*
X017250Y000544D01*
X006390Y000544D01*
X006390Y000446D02*
X017224Y000446D01*
X017209Y000408D02*
X017142Y000341D01*
X017054Y000305D01*
X017006Y000300D01*
X006381Y000300D01*
X006390Y000309D01*
X006390Y000991D01*
X006325Y001055D01*
X006032Y001055D01*
X003961Y003126D01*
X003874Y003213D01*
X002299Y003213D01*
X002190Y003322D01*
X002190Y004537D01*
X002508Y004855D01*
X002572Y004829D01*
X002728Y004829D01*
X002871Y004888D01*
X002981Y004998D01*
X003014Y005079D01*
X003286Y005079D01*
X003319Y004998D01*
X003429Y004888D01*
X003572Y004829D01*
X003728Y004829D01*
X003871Y004888D01*
X003981Y004998D01*
X004014Y005079D01*
X004286Y005079D01*
X004319Y004998D01*
X004429Y004888D01*
X004572Y004829D01*
X004728Y004829D01*
X004871Y004888D01*
X004981Y004998D01*
X005014Y005079D01*
X005286Y005079D01*
X005319Y004998D01*
X005429Y004888D01*
X005572Y004829D01*
X005728Y004829D01*
X005871Y004888D01*
X005981Y004998D01*
X005998Y005039D01*
X006302Y005039D01*
X006319Y004998D01*
X006429Y004888D01*
X006572Y004829D01*
X006728Y004829D01*
X006871Y004888D01*
X006981Y004998D01*
X007014Y005079D01*
X007286Y005079D01*
X007319Y004998D01*
X007429Y004888D01*
X007572Y004829D01*
X007728Y004829D01*
X007871Y004888D01*
X007981Y004998D01*
X008014Y005079D01*
X008286Y005079D01*
X008319Y004998D01*
X008429Y004888D01*
X008572Y004829D01*
X008728Y004829D01*
X008871Y004888D01*
X008981Y004998D01*
X009014Y005079D01*
X009286Y005079D01*
X009319Y004998D01*
X009429Y004888D01*
X009572Y004829D01*
X009728Y004829D01*
X009871Y004888D01*
X009981Y004998D01*
X010014Y005079D01*
X010286Y005079D01*
X010319Y004998D01*
X010429Y004888D01*
X010572Y004829D01*
X010728Y004829D01*
X010871Y004888D01*
X010981Y004998D01*
X010998Y005039D01*
X011302Y005039D01*
X011319Y004998D01*
X011429Y004888D01*
X011572Y004829D01*
X011728Y004829D01*
X011871Y004888D01*
X011981Y004998D01*
X012014Y005079D01*
X012286Y005079D01*
X012319Y004998D01*
X012429Y004888D01*
X012572Y004829D01*
X012728Y004829D01*
X012871Y004888D01*
X012981Y004998D01*
X013014Y005079D01*
X013286Y005079D01*
X013319Y004998D01*
X013429Y004888D01*
X013572Y004829D01*
X013728Y004829D01*
X013871Y004888D01*
X013981Y004998D01*
X014040Y005141D01*
X014040Y005296D01*
X013981Y005440D01*
X013871Y005550D01*
X013728Y005609D01*
X013572Y005609D01*
X013429Y005550D01*
X013319Y005440D01*
X013294Y005379D01*
X013006Y005379D01*
X012981Y005440D01*
X012871Y005550D01*
X012728Y005609D01*
X012572Y005609D01*
X012429Y005550D01*
X012319Y005440D01*
X012294Y005379D01*
X012006Y005379D01*
X011981Y005440D01*
X011871Y005550D01*
X011728Y005609D01*
X011572Y005609D01*
X011429Y005550D01*
X011319Y005440D01*
X011278Y005339D01*
X011022Y005339D01*
X010981Y005440D01*
X010871Y005550D01*
X010728Y005609D01*
X010572Y005609D01*
X010429Y005550D01*
X010319Y005440D01*
X010294Y005379D01*
X010006Y005379D01*
X009981Y005440D01*
X009871Y005550D01*
X009728Y005609D01*
X009572Y005609D01*
X009429Y005550D01*
X009319Y005440D01*
X009294Y005379D01*
X009006Y005379D01*
X008981Y005440D01*
X008871Y005550D01*
X008728Y005609D01*
X008572Y005609D01*
X008429Y005550D01*
X008319Y005440D01*
X008294Y005379D01*
X008006Y005379D01*
X007981Y005440D01*
X007871Y005550D01*
X007728Y005609D01*
X007572Y005609D01*
X007429Y005550D01*
X007319Y005440D01*
X007294Y005379D01*
X007006Y005379D01*
X006981Y005440D01*
X006871Y005550D01*
X006728Y005609D01*
X006572Y005609D01*
X006429Y005550D01*
X006319Y005440D01*
X006278Y005339D01*
X006022Y005339D01*
X005981Y005440D01*
X005871Y005550D01*
X005728Y005609D01*
X005572Y005609D01*
X005429Y005550D01*
X005319Y005440D01*
X005294Y005379D01*
X005006Y005379D01*
X004981Y005440D01*
X004871Y005550D01*
X004728Y005609D01*
X004572Y005609D01*
X004429Y005550D01*
X004319Y005440D01*
X004294Y005379D01*
X004006Y005379D01*
X003981Y005440D01*
X003871Y005550D01*
X003728Y005609D01*
X003572Y005609D01*
X003429Y005550D01*
X003319Y005440D01*
X003294Y005379D01*
X003006Y005379D01*
X002981Y005440D01*
X002871Y005550D01*
X002728Y005609D01*
X002572Y005609D01*
X002429Y005550D01*
X002319Y005440D01*
X002260Y005296D01*
X002260Y005141D01*
X002292Y005063D01*
X001890Y004661D01*
X001890Y003198D01*
X001978Y003110D01*
X002174Y002913D01*
X003749Y002913D01*
X005665Y000998D01*
X005658Y000991D01*
X005626Y001037D02*
X005596Y001037D01*
X005528Y001135D02*
X002800Y001135D01*
X002800Y001037D02*
X004956Y001037D01*
X004910Y000938D02*
X004903Y000938D01*
X004910Y000840D02*
X004910Y000840D01*
X004910Y000512D02*
X004910Y000512D01*
X004910Y000446D02*
X004910Y000446D01*
X004910Y000347D02*
X004888Y000347D01*
X004238Y000347D02*
X004107Y000347D01*
X004123Y000446D02*
X004217Y000446D01*
X004217Y000544D02*
X004123Y000544D01*
X004217Y000643D02*
X003787Y000643D01*
X003787Y000741D02*
X003687Y000741D01*
X003687Y000643D02*
X002800Y000643D01*
X002800Y000741D02*
X003350Y000741D01*
X003350Y000840D02*
X002800Y000840D01*
X002800Y000938D02*
X003359Y000938D01*
X003687Y000938D02*
X003787Y000938D01*
X003787Y000840D02*
X003687Y000840D01*
X004123Y000840D02*
X004217Y000840D01*
X004223Y000938D02*
X004114Y000938D01*
X004123Y000741D02*
X004217Y000741D01*
X003350Y000544D02*
X002800Y000544D01*
X002800Y000446D02*
X003350Y000446D01*
X003366Y000347D02*
X002819Y000347D01*
X002800Y001234D02*
X005429Y001234D01*
X005331Y001332D02*
X002800Y001332D01*
X002800Y001431D02*
X005232Y001431D01*
X005134Y001529D02*
X002800Y001529D01*
X002772Y001628D02*
X005035Y001628D01*
X004937Y001726D02*
X002740Y001726D01*
X002712Y001814D02*
X002712Y001814D01*
X002704Y001825D02*
X004838Y001825D01*
X004740Y001923D02*
X002632Y001923D01*
X002561Y002022D02*
X004641Y002022D01*
X004543Y002120D02*
X002440Y002120D01*
X002544Y002044D02*
X002544Y002044D01*
X002544Y002044D01*
X002293Y002219D02*
X004444Y002219D01*
X004346Y002317D02*
X000300Y002317D01*
X000300Y002416D02*
X004247Y002416D01*
X004149Y002514D02*
X000300Y002514D01*
X000300Y002613D02*
X004050Y002613D01*
X003952Y002711D02*
X000300Y002711D01*
X000300Y002810D02*
X003853Y002810D01*
X003755Y002908D02*
X000300Y002908D01*
X000300Y003007D02*
X002081Y003007D01*
X001983Y003105D02*
X000300Y003105D01*
X000300Y003204D02*
X001890Y003204D01*
X001890Y003302D02*
X000300Y003302D01*
X000300Y003401D02*
X001890Y003401D01*
X001890Y003499D02*
X000300Y003499D01*
X000300Y003598D02*
X001890Y003598D01*
X001890Y003696D02*
X000300Y003696D01*
X000300Y003795D02*
X001890Y003795D01*
X001890Y003893D02*
X000300Y003893D01*
X000300Y003992D02*
X001890Y003992D01*
X001890Y004090D02*
X000300Y004090D01*
X000300Y004189D02*
X001890Y004189D01*
X001890Y004287D02*
X000300Y004287D01*
X000300Y004386D02*
X001890Y004386D01*
X001890Y004484D02*
X000300Y004484D01*
X000300Y004583D02*
X001890Y004583D01*
X001910Y004681D02*
X000300Y004681D01*
X000300Y004780D02*
X002008Y004780D01*
X002107Y004878D02*
X000300Y004878D01*
X000300Y004977D02*
X002205Y004977D01*
X002287Y005075D02*
X000300Y005075D01*
X000300Y005174D02*
X002260Y005174D01*
X002260Y005272D02*
X000300Y005272D01*
X000300Y005371D02*
X002291Y005371D01*
X002349Y005469D02*
X000300Y005469D01*
X000300Y005568D02*
X002473Y005568D01*
X002452Y005666D02*
X000300Y005666D01*
X000300Y005765D02*
X002340Y005765D01*
X002319Y005785D02*
X002429Y005676D01*
X002572Y005616D01*
X002728Y005616D01*
X002871Y005676D01*
X002981Y005785D01*
X002998Y005827D01*
X003302Y005827D01*
X003319Y005785D01*
X003429Y005676D01*
X003572Y005616D01*
X003728Y005616D01*
X003871Y005676D01*
X003981Y005785D01*
X003998Y005827D01*
X004302Y005827D01*
X004319Y005785D01*
X004429Y005676D01*
X004572Y005616D01*
X004728Y005616D01*
X004871Y005676D01*
X004981Y005785D01*
X005014Y005866D01*
X005286Y005866D01*
X005319Y005785D01*
X005429Y005676D01*
X005572Y005616D01*
X005728Y005616D01*
X005871Y005676D01*
X005981Y005785D01*
X006014Y005866D01*
X006286Y005866D01*
X006319Y005785D01*
X006429Y005676D01*
X006572Y005616D01*
X006728Y005616D01*
X006871Y005676D01*
X006981Y005785D01*
X007014Y005866D01*
X007286Y005866D01*
X007319Y005785D01*
X007429Y005676D01*
X007572Y005616D01*
X007728Y005616D01*
X007871Y005676D01*
X007981Y005785D01*
X008014Y005866D01*
X008286Y005866D01*
X008319Y005785D01*
X008429Y005676D01*
X008572Y005616D01*
X008728Y005616D01*
X008871Y005676D01*
X008981Y005785D01*
X009014Y005866D01*
X009286Y005866D01*
X009319Y005785D01*
X009429Y005676D01*
X009572Y005616D01*
X009728Y005616D01*
X009871Y005676D01*
X009981Y005785D01*
X010014Y005866D01*
X010286Y005866D01*
X010319Y005785D01*
X010429Y005676D01*
X010572Y005616D01*
X010728Y005616D01*
X010871Y005676D01*
X010981Y005785D01*
X010998Y005827D01*
X011302Y005827D01*
X011319Y005785D01*
X011429Y005676D01*
X011572Y005616D01*
X011728Y005616D01*
X011871Y005676D01*
X011981Y005785D01*
X012014Y005866D01*
X012286Y005866D01*
X012319Y005785D01*
X012429Y005676D01*
X012572Y005616D01*
X012728Y005616D01*
X012871Y005676D01*
X012981Y005785D01*
X013014Y005866D01*
X013286Y005866D01*
X013319Y005785D01*
X013429Y005676D01*
X013572Y005616D01*
X013728Y005616D01*
X013864Y005673D01*
X014055Y005482D01*
X014055Y004064D01*
X014143Y003976D01*
X014770Y003350D01*
X014740Y003320D01*
X014740Y002980D01*
X014980Y002740D01*
X015320Y002740D01*
X015560Y002980D01*
X015560Y003320D01*
X015320Y003560D01*
X014984Y003560D01*
X014355Y004189D01*
X014740Y004189D01*
X014740Y004287D02*
X014355Y004287D01*
X014355Y004189D02*
X014355Y005606D01*
X014038Y005923D01*
X014040Y005929D01*
X014040Y006084D01*
X013981Y006227D01*
X013871Y006337D01*
X013728Y006396D01*
X013572Y006396D01*
X013429Y006337D01*
X013319Y006227D01*
X013294Y006166D01*
X013006Y006166D01*
X012981Y006227D01*
X012871Y006337D01*
X012728Y006396D01*
X012572Y006396D01*
X012429Y006337D01*
X012319Y006227D01*
X012294Y006166D01*
X012006Y006166D01*
X011981Y006227D01*
X011871Y006337D01*
X011728Y006396D01*
X011572Y006396D01*
X011429Y006337D01*
X011319Y006227D01*
X011278Y006127D01*
X011022Y006127D01*
X010981Y006227D01*
X010871Y006337D01*
X010728Y006396D01*
X010572Y006396D01*
X010429Y006337D01*
X010319Y006227D01*
X010294Y006166D01*
X010006Y006166D01*
X009981Y006227D01*
X009871Y006337D01*
X009728Y006396D01*
X009572Y006396D01*
X009429Y006337D01*
X009319Y006227D01*
X009294Y006166D01*
X009006Y006166D01*
X008981Y006227D01*
X008871Y006337D01*
X008728Y006396D01*
X008572Y006396D01*
X008429Y006337D01*
X008319Y006227D01*
X008294Y006166D01*
X008006Y006166D01*
X007981Y006227D01*
X007871Y006337D01*
X007728Y006396D01*
X007572Y006396D01*
X007429Y006337D01*
X007319Y006227D01*
X007294Y006166D01*
X007006Y006166D01*
X006981Y006227D01*
X006871Y006337D01*
X006728Y006396D01*
X006572Y006396D01*
X006429Y006337D01*
X006319Y006227D01*
X006294Y006166D01*
X006006Y006166D01*
X005981Y006227D01*
X005871Y006337D01*
X005728Y006396D01*
X005572Y006396D01*
X005429Y006337D01*
X005319Y006227D01*
X005294Y006166D01*
X005006Y006166D01*
X004981Y006227D01*
X004871Y006337D01*
X004728Y006396D01*
X004572Y006396D01*
X004429Y006337D01*
X004319Y006227D01*
X004278Y006127D01*
X004022Y006127D01*
X003981Y006227D01*
X003871Y006337D01*
X003728Y006396D01*
X003572Y006396D01*
X003429Y006337D01*
X003319Y006227D01*
X003278Y006127D01*
X003022Y006127D01*
X002981Y006227D01*
X002871Y006337D01*
X002728Y006396D01*
X002572Y006396D01*
X002429Y006337D01*
X002319Y006227D01*
X002260Y006084D01*
X002260Y005929D01*
X002319Y005785D01*
X002287Y005863D02*
X000300Y005863D01*
X000300Y005962D02*
X002260Y005962D01*
X002260Y006060D02*
X000300Y006060D01*
X000300Y006159D02*
X002291Y006159D01*
X002349Y006257D02*
X000300Y006257D01*
X000300Y006356D02*
X002474Y006356D01*
X002451Y006454D02*
X000300Y006454D01*
X000300Y006553D02*
X002340Y006553D01*
X002319Y006573D02*
X002429Y006463D01*
X002572Y006404D01*
X002728Y006404D01*
X002871Y006463D01*
X002981Y006573D01*
X002998Y006614D01*
X003302Y006614D01*
X003319Y006573D01*
X003429Y006463D01*
X003572Y006404D01*
X003728Y006404D01*
X003871Y006463D01*
X003981Y006573D01*
X003998Y006614D01*
X004302Y006614D01*
X004319Y006573D01*
X004429Y006463D01*
X004572Y006404D01*
X004728Y006404D01*
X004871Y006463D01*
X004981Y006573D01*
X005014Y006654D01*
X005286Y006654D01*
X005319Y006573D01*
X005429Y006463D01*
X005572Y006404D01*
X005728Y006404D01*
X005871Y006463D01*
X005981Y006573D01*
X006014Y006654D01*
X006286Y006654D01*
X006319Y006573D01*
X006429Y006463D01*
X006572Y006404D01*
X006728Y006404D01*
X006871Y006463D01*
X006981Y006573D01*
X007014Y006654D01*
X007286Y006654D01*
X007319Y006573D01*
X007429Y006463D01*
X007572Y006404D01*
X007728Y006404D01*
X007871Y006463D01*
X007981Y006573D01*
X008014Y006654D01*
X008286Y006654D01*
X008319Y006573D01*
X008429Y006463D01*
X008572Y006404D01*
X008728Y006404D01*
X008871Y006463D01*
X008981Y006573D01*
X009014Y006654D01*
X009286Y006654D01*
X009319Y006573D01*
X009429Y006463D01*
X009572Y006404D01*
X009728Y006404D01*
X009871Y006463D01*
X009981Y006573D01*
X010014Y006654D01*
X010286Y006654D01*
X010319Y006573D01*
X010429Y006463D01*
X010572Y006404D01*
X010728Y006404D01*
X010871Y006463D01*
X010981Y006573D01*
X010998Y006614D01*
X011302Y006614D01*
X011319Y006573D01*
X011429Y006463D01*
X011572Y006404D01*
X011728Y006404D01*
X011871Y006463D01*
X011981Y006573D01*
X012014Y006654D01*
X012286Y006654D01*
X012319Y006573D01*
X012429Y006463D01*
X012572Y006404D01*
X012728Y006404D01*
X012871Y006463D01*
X012981Y006573D01*
X013014Y006654D01*
X013286Y006654D01*
X013319Y006573D01*
X013429Y006463D01*
X013572Y006404D01*
X013728Y006404D01*
X013871Y006463D01*
X013981Y006573D01*
X014040Y006716D01*
X014040Y006871D01*
X013981Y007015D01*
X013871Y007124D01*
X013728Y007184D01*
X013572Y007184D01*
X013429Y007124D01*
X013319Y007015D01*
X013294Y006954D01*
X013006Y006954D01*
X012981Y007015D01*
X012871Y007124D01*
X012728Y007184D01*
X012572Y007184D01*
X012429Y007124D01*
X012319Y007015D01*
X012294Y006954D01*
X012006Y006954D01*
X011981Y007015D01*
X011871Y007124D01*
X011728Y007184D01*
X011572Y007184D01*
X011429Y007124D01*
X011319Y007015D01*
X011278Y006914D01*
X011022Y006914D01*
X010981Y007015D01*
X010871Y007124D01*
X010728Y007184D01*
X010572Y007184D01*
X010429Y007124D01*
X010319Y007015D01*
X010294Y006954D01*
X010006Y006954D01*
X009981Y007015D01*
X009871Y007124D01*
X009728Y007184D01*
X009572Y007184D01*
X009429Y007124D01*
X009319Y007015D01*
X009294Y006954D01*
X009006Y006954D01*
X008981Y007015D01*
X008871Y007124D01*
X008728Y007184D01*
X008572Y007184D01*
X008429Y007124D01*
X008319Y007015D01*
X008294Y006954D01*
X008006Y006954D01*
X007981Y007015D01*
X007871Y007124D01*
X007728Y007184D01*
X007572Y007184D01*
X007429Y007124D01*
X007319Y007015D01*
X007294Y006954D01*
X007006Y006954D01*
X006981Y007015D01*
X006871Y007124D01*
X006728Y007184D01*
X006572Y007184D01*
X006429Y007124D01*
X006319Y007015D01*
X006294Y006954D01*
X006006Y006954D01*
X005981Y007015D01*
X005871Y007124D01*
X005728Y007184D01*
X005572Y007184D01*
X005429Y007124D01*
X005319Y007015D01*
X005294Y006954D01*
X005006Y006954D01*
X004981Y007015D01*
X004871Y007124D01*
X004728Y007184D01*
X004572Y007184D01*
X004429Y007124D01*
X004319Y007015D01*
X004278Y006914D01*
X004022Y006914D01*
X003981Y007015D01*
X003871Y007124D01*
X003728Y007184D01*
X003572Y007184D01*
X003429Y007124D01*
X003319Y007015D01*
X003278Y006914D01*
X003022Y006914D01*
X002981Y007015D01*
X002871Y007124D01*
X002728Y007184D01*
X002572Y007184D01*
X002429Y007124D01*
X002319Y007015D01*
X002260Y006871D01*
X002260Y006716D01*
X002319Y006573D01*
X002287Y006651D02*
X000300Y006651D01*
X000300Y006750D02*
X002260Y006750D01*
X002260Y006848D02*
X000300Y006848D01*
X000300Y006947D02*
X002291Y006947D01*
X002350Y007045D02*
X001867Y007045D01*
X001778Y007008D02*
X002014Y007106D01*
X002194Y007286D01*
X002272Y007474D01*
X002319Y007360D01*
X002429Y007250D01*
X002572Y007191D01*
X002728Y007191D01*
X002871Y007250D01*
X002981Y007360D01*
X002998Y007402D01*
X003302Y007402D01*
X003319Y007360D01*
X003429Y007250D01*
X003572Y007191D01*
X003728Y007191D01*
X003871Y007250D01*
X003981Y007360D01*
X003998Y007402D01*
X004302Y007402D01*
X004319Y007360D01*
X004429Y007250D01*
X004572Y007191D01*
X004728Y007191D01*
X004871Y007250D01*
X004981Y007360D01*
X005014Y007441D01*
X005286Y007441D01*
X005319Y007360D01*
X005429Y007250D01*
X005572Y007191D01*
X005728Y007191D01*
X005871Y007250D01*
X005981Y007360D01*
X006014Y007441D01*
X006286Y007441D01*
X006319Y007360D01*
X006429Y007250D01*
X006572Y007191D01*
X006728Y007191D01*
X006871Y007250D01*
X006981Y007360D01*
X007014Y007441D01*
X007286Y007441D01*
X007319Y007360D01*
X007429Y007250D01*
X007572Y007191D01*
X007728Y007191D01*
X007871Y007250D01*
X007981Y007360D01*
X008014Y007441D01*
X008286Y007441D01*
X008319Y007360D01*
X008429Y007250D01*
X008572Y007191D01*
X008728Y007191D01*
X008871Y007250D01*
X008981Y007360D01*
X009014Y007441D01*
X009286Y007441D01*
X009319Y007360D01*
X009429Y007250D01*
X009572Y007191D01*
X009728Y007191D01*
X009871Y007250D01*
X009981Y007360D01*
X010014Y007441D01*
X010286Y007441D01*
X010319Y007360D01*
X010429Y007250D01*
X010572Y007191D01*
X010728Y007191D01*
X010871Y007250D01*
X010981Y007360D01*
X010998Y007402D01*
X011302Y007402D01*
X011319Y007360D01*
X011429Y007250D01*
X011572Y007191D01*
X011728Y007191D01*
X011871Y007250D01*
X011981Y007360D01*
X012014Y007441D01*
X012286Y007441D01*
X012319Y007360D01*
X012429Y007250D01*
X012572Y007191D01*
X012728Y007191D01*
X012871Y007250D01*
X012981Y007360D01*
X013014Y007441D01*
X013286Y007441D01*
X013319Y007360D01*
X013429Y007250D01*
X013572Y007191D01*
X013728Y007191D01*
X013864Y007248D01*
X015000Y006111D01*
X015000Y004560D01*
X014980Y004560D01*
X014740Y004320D01*
X014740Y003980D01*
X014980Y003740D01*
X015320Y003740D01*
X015560Y003980D01*
X015560Y004320D01*
X015320Y004560D01*
X015300Y004560D01*
X015300Y006236D01*
X014038Y007498D01*
X014040Y007504D01*
X014040Y007659D01*
X013981Y007802D01*
X013871Y007912D01*
X013728Y007971D01*
X013572Y007971D01*
X013429Y007912D01*
X013319Y007802D01*
X013294Y007741D01*
X013006Y007741D01*
X012981Y007802D01*
X012871Y007912D01*
X012728Y007971D01*
X012572Y007971D01*
X012429Y007912D01*
X012319Y007802D01*
X012294Y007741D01*
X012006Y007741D01*
X011981Y007802D01*
X011871Y007912D01*
X011728Y007971D01*
X011572Y007971D01*
X011429Y007912D01*
X011319Y007802D01*
X011278Y007702D01*
X011022Y007702D01*
X010981Y007802D01*
X010871Y007912D01*
X010728Y007971D01*
X010572Y007971D01*
X010429Y007912D01*
X010319Y007802D01*
X010294Y007741D01*
X010006Y007741D01*
X009981Y007802D01*
X009871Y007912D01*
X009728Y007971D01*
X009572Y007971D01*
X009429Y007912D01*
X009319Y007802D01*
X009294Y007741D01*
X009006Y007741D01*
X008981Y007802D01*
X008871Y007912D01*
X008728Y007971D01*
X008572Y007971D01*
X008429Y007912D01*
X008319Y007802D01*
X008294Y007741D01*
X008006Y007741D01*
X007981Y007802D01*
X007871Y007912D01*
X007728Y007971D01*
X007572Y007971D01*
X007429Y007912D01*
X007319Y007802D01*
X007294Y007741D01*
X007006Y007741D01*
X006981Y007802D01*
X006871Y007912D01*
X006728Y007971D01*
X006572Y007971D01*
X006429Y007912D01*
X006319Y007802D01*
X006294Y007741D01*
X006006Y007741D01*
X005981Y007802D01*
X005871Y007912D01*
X005728Y007971D01*
X005572Y007971D01*
X005429Y007912D01*
X005319Y007802D01*
X005294Y007741D01*
X005006Y007741D01*
X004981Y007802D01*
X004871Y007912D01*
X004728Y007971D01*
X004572Y007971D01*
X004429Y007912D01*
X004319Y007802D01*
X004278Y007702D01*
X004022Y007702D01*
X003981Y007802D01*
X003871Y007912D01*
X003728Y007971D01*
X003572Y007971D01*
X003429Y007912D01*
X003319Y007802D01*
X003278Y007702D01*
X003022Y007702D01*
X002981Y007802D01*
X002871Y007912D01*
X002728Y007971D01*
X002572Y007971D01*
X002429Y007912D01*
X002319Y007802D01*
X002292Y007736D01*
X002292Y007778D01*
X002194Y008014D01*
X002014Y008194D01*
X001778Y008292D01*
X001522Y008292D01*
X001286Y008194D01*
X001106Y008014D01*
X001008Y007778D01*
X001008Y007522D01*
X001106Y007286D01*
X001286Y007106D01*
X001522Y007008D01*
X001778Y007008D01*
X001433Y007045D02*
X000300Y007045D01*
X000300Y007144D02*
X001248Y007144D01*
X001150Y007242D02*
X000300Y007242D01*
X000300Y007341D02*
X001083Y007341D01*
X001042Y007439D02*
X000300Y007439D01*
X000300Y007538D02*
X001008Y007538D01*
X001008Y007636D02*
X000300Y007636D01*
X000300Y007735D02*
X001008Y007735D01*
X001031Y007833D02*
X000300Y007833D01*
X000300Y007932D02*
X001072Y007932D01*
X001122Y008030D02*
X000300Y008030D01*
X000300Y008129D02*
X001220Y008129D01*
X001365Y008227D02*
X000300Y008227D01*
X000300Y008326D02*
X002260Y008326D01*
X002260Y008291D02*
X002319Y008148D01*
X002429Y008038D01*
X002572Y007979D01*
X002728Y007979D01*
X002871Y008038D01*
X002981Y008148D01*
X002998Y008189D01*
X003302Y008189D01*
X003319Y008148D01*
X003429Y008038D01*
X003572Y007979D01*
X003728Y007979D01*
X003871Y008038D01*
X003981Y008148D01*
X003998Y008189D01*
X004302Y008189D01*
X004319Y008148D01*
X004429Y008038D01*
X004572Y007979D01*
X004728Y007979D01*
X004871Y008038D01*
X004981Y008148D01*
X005014Y008228D01*
X005286Y008228D01*
X005319Y008148D01*
X005429Y008038D01*
X005572Y007979D01*
X005728Y007979D01*
X005871Y008038D01*
X005981Y008148D01*
X006014Y008228D01*
X006286Y008228D01*
X006319Y008148D01*
X006429Y008038D01*
X006572Y007979D01*
X006728Y007979D01*
X006871Y008038D01*
X006981Y008148D01*
X007014Y008228D01*
X007286Y008228D01*
X007319Y008148D01*
X007429Y008038D01*
X007572Y007979D01*
X007728Y007979D01*
X007871Y008038D01*
X007981Y008148D01*
X008014Y008228D01*
X008286Y008228D01*
X008319Y008148D01*
X008429Y008038D01*
X008572Y007979D01*
X008728Y007979D01*
X008871Y008038D01*
X008981Y008148D01*
X009014Y008228D01*
X009286Y008228D01*
X009319Y008148D01*
X009429Y008038D01*
X009572Y007979D01*
X009728Y007979D01*
X009871Y008038D01*
X009981Y008148D01*
X010014Y008228D01*
X010286Y008228D01*
X010319Y008148D01*
X010429Y008038D01*
X010572Y007979D01*
X010728Y007979D01*
X010871Y008038D01*
X010981Y008148D01*
X011014Y008228D01*
X011286Y008228D01*
X011319Y008148D01*
X011429Y008038D01*
X011572Y007979D01*
X011728Y007979D01*
X011871Y008038D01*
X011981Y008148D01*
X012014Y008228D01*
X012286Y008228D01*
X012319Y008148D01*
X012429Y008038D01*
X012572Y007979D01*
X012728Y007979D01*
X012871Y008038D01*
X012981Y008148D01*
X013014Y008228D01*
X013286Y008228D01*
X013319Y008148D01*
X013429Y008038D01*
X013572Y007979D01*
X013728Y007979D01*
X013864Y008035D01*
X016575Y005324D01*
X016575Y002771D01*
X016342Y002538D01*
X016320Y002560D01*
X015980Y002560D01*
X015740Y002320D01*
X015740Y001980D01*
X015980Y001740D01*
X016320Y001740D01*
X016560Y001980D01*
X016560Y002320D01*
X016554Y002326D01*
X016787Y002559D01*
X016875Y002647D01*
X016875Y005448D01*
X014038Y008285D01*
X014040Y008291D01*
X014040Y008446D01*
X013981Y008589D01*
X013871Y008699D01*
X013728Y008759D01*
X013572Y008759D01*
X013429Y008699D01*
X013319Y008589D01*
X013294Y008528D01*
X013006Y008528D01*
X012981Y008589D01*
X012871Y008699D01*
X012728Y008759D01*
X012572Y008759D01*
X012429Y008699D01*
X012319Y008589D01*
X012294Y008528D01*
X012006Y008528D01*
X011981Y008589D01*
X011871Y008699D01*
X011728Y008759D01*
X011572Y008759D01*
X011429Y008699D01*
X011319Y008589D01*
X011294Y008528D01*
X011006Y008528D01*
X010981Y008589D01*
X010871Y008699D01*
X010728Y008759D01*
X010572Y008759D01*
X010429Y008699D01*
X010319Y008589D01*
X010294Y008528D01*
X010006Y008528D01*
X009981Y008589D01*
X009871Y008699D01*
X009728Y008759D01*
X009572Y008759D01*
X009429Y008699D01*
X009319Y008589D01*
X009294Y008528D01*
X009006Y008528D01*
X008981Y008589D01*
X008871Y008699D01*
X008728Y008759D01*
X008572Y008759D01*
X008429Y008699D01*
X008319Y008589D01*
X008294Y008528D01*
X008006Y008528D01*
X007981Y008589D01*
X007871Y008699D01*
X007728Y008759D01*
X007572Y008759D01*
X007429Y008699D01*
X007319Y008589D01*
X007294Y008528D01*
X007006Y008528D01*
X006981Y008589D01*
X006871Y008699D01*
X006728Y008759D01*
X006572Y008759D01*
X006429Y008699D01*
X006319Y008589D01*
X006294Y008528D01*
X006006Y008528D01*
X005981Y008589D01*
X005871Y008699D01*
X005728Y008759D01*
X005572Y008759D01*
X005429Y008699D01*
X005319Y008589D01*
X005294Y008528D01*
X005006Y008528D01*
X004981Y008589D01*
X004871Y008699D01*
X004728Y008759D01*
X004572Y008759D01*
X004429Y008699D01*
X004319Y008589D01*
X004278Y008489D01*
X004022Y008489D01*
X003981Y008589D01*
X003871Y008699D01*
X003728Y008759D01*
X003572Y008759D01*
X003429Y008699D01*
X003319Y008589D01*
X003278Y008489D01*
X003022Y008489D01*
X002981Y008589D01*
X002871Y008699D01*
X002728Y008759D01*
X002572Y008759D01*
X002429Y008699D01*
X002319Y008589D01*
X002260Y008446D01*
X002260Y008291D01*
X002286Y008227D02*
X001935Y008227D01*
X002080Y008129D02*
X002338Y008129D01*
X002448Y008030D02*
X002178Y008030D01*
X002228Y007932D02*
X002477Y007932D01*
X002350Y007833D02*
X002269Y007833D01*
X002258Y007439D02*
X002287Y007439D01*
X002339Y007341D02*
X002217Y007341D01*
X002150Y007242D02*
X002450Y007242D01*
X002475Y007144D02*
X002052Y007144D01*
X002825Y007144D02*
X003475Y007144D01*
X003450Y007242D02*
X002850Y007242D01*
X002961Y007341D02*
X003339Y007341D01*
X003350Y007045D02*
X002950Y007045D01*
X003009Y006947D02*
X003291Y006947D01*
X003340Y006553D02*
X002960Y006553D01*
X002849Y006454D02*
X003451Y006454D01*
X003474Y006356D02*
X002826Y006356D01*
X002951Y006257D02*
X003349Y006257D01*
X003291Y006159D02*
X003009Y006159D01*
X002960Y005765D02*
X003340Y005765D01*
X003452Y005666D02*
X002848Y005666D01*
X002827Y005568D02*
X003473Y005568D01*
X003349Y005469D02*
X002951Y005469D01*
X003013Y005075D02*
X003287Y005075D01*
X003341Y004977D02*
X002959Y004977D01*
X002846Y004878D02*
X003454Y004878D01*
X003471Y004780D02*
X002829Y004780D01*
X002871Y004762D02*
X002728Y004821D01*
X002572Y004821D01*
X002429Y004762D01*
X002319Y004652D01*
X002260Y004509D01*
X002260Y004354D01*
X002319Y004211D01*
X002429Y004101D01*
X002494Y004074D01*
X002350Y004074D01*
X002312Y004064D01*
X002278Y004044D01*
X002250Y004016D01*
X002230Y003982D01*
X002220Y003944D01*
X002220Y003684D01*
X002610Y003684D01*
X002610Y003604D01*
X002690Y003604D01*
X002690Y003214D01*
X002950Y003214D01*
X002988Y003224D01*
X003022Y003244D01*
X003050Y003272D01*
X003070Y003306D01*
X003080Y003344D01*
X003080Y003604D01*
X002690Y003604D01*
X002690Y003684D01*
X003080Y003684D01*
X003080Y003944D01*
X003070Y003982D01*
X003050Y004016D01*
X003022Y004044D01*
X002988Y004064D01*
X002950Y004074D01*
X002806Y004074D01*
X002871Y004101D01*
X002981Y004211D01*
X002998Y004252D01*
X003302Y004252D01*
X003319Y004211D01*
X003429Y004101D01*
X003494Y004074D01*
X003350Y004074D01*
X003312Y004064D01*
X003278Y004044D01*
X003250Y004016D01*
X003230Y003982D01*
X003220Y003944D01*
X003220Y003684D01*
X003610Y003684D01*
X003610Y003604D01*
X003690Y003604D01*
X003690Y003214D01*
X003950Y003214D01*
X003988Y003224D01*
X004022Y003244D01*
X004050Y003272D01*
X004070Y003306D01*
X004080Y003344D01*
X004080Y003604D01*
X003690Y003604D01*
X003690Y003684D01*
X004080Y003684D01*
X004080Y003944D01*
X004070Y003982D01*
X004050Y004016D01*
X004022Y004044D01*
X003988Y004064D01*
X003950Y004074D01*
X003806Y004074D01*
X003871Y004101D01*
X003981Y004211D01*
X003998Y004252D01*
X004302Y004252D01*
X004319Y004211D01*
X004429Y004101D01*
X004494Y004074D01*
X004350Y004074D01*
X004312Y004064D01*
X004278Y004044D01*
X004250Y004016D01*
X004230Y003982D01*
X004220Y003944D01*
X004220Y003684D01*
X004610Y003684D01*
X004610Y003604D01*
X004690Y003604D01*
X004690Y003214D01*
X004950Y003214D01*
X004988Y003224D01*
X005022Y003244D01*
X005050Y003272D01*
X005070Y003306D01*
X005080Y003344D01*
X005080Y003604D01*
X004690Y003604D01*
X004690Y003684D01*
X005080Y003684D01*
X005080Y003944D01*
X005070Y003982D01*
X005050Y004016D01*
X005022Y004044D01*
X004988Y004064D01*
X004950Y004074D01*
X004806Y004074D01*
X004871Y004101D01*
X004981Y004211D01*
X005014Y004291D01*
X005286Y004291D01*
X005319Y004211D01*
X005429Y004101D01*
X005494Y004074D01*
X005350Y004074D01*
X005312Y004064D01*
X005278Y004044D01*
X005250Y004016D01*
X005230Y003982D01*
X005220Y003944D01*
X005220Y003684D01*
X005610Y003684D01*
X005610Y003604D01*
X005690Y003604D01*
X005690Y003214D01*
X005950Y003214D01*
X005988Y003224D01*
X006022Y003244D01*
X006050Y003272D01*
X006070Y003306D01*
X006080Y003344D01*
X006080Y003604D01*
X005690Y003604D01*
X005690Y003684D01*
X006080Y003684D01*
X006080Y003944D01*
X006070Y003982D01*
X006050Y004016D01*
X006022Y004044D01*
X005988Y004064D01*
X005950Y004074D01*
X005806Y004074D01*
X005871Y004101D01*
X005981Y004211D01*
X006014Y004291D01*
X006286Y004291D01*
X006319Y004211D01*
X006429Y004101D01*
X006494Y004074D01*
X006350Y004074D01*
X006312Y004064D01*
X006278Y004044D01*
X006250Y004016D01*
X006230Y003982D01*
X006220Y003944D01*
X006220Y003684D01*
X006610Y003684D01*
X006610Y003604D01*
X006690Y003604D01*
X006690Y003214D01*
X006950Y003214D01*
X006988Y003224D01*
X007022Y003244D01*
X007050Y003272D01*
X007070Y003306D01*
X007080Y003344D01*
X007080Y003604D01*
X006690Y003604D01*
X006690Y003684D01*
X007080Y003684D01*
X007080Y003944D01*
X007070Y003982D01*
X007050Y004016D01*
X007022Y004044D01*
X006988Y004064D01*
X006950Y004074D01*
X006806Y004074D01*
X006871Y004101D01*
X006981Y004211D01*
X007014Y004291D01*
X007286Y004291D01*
X007319Y004211D01*
X007429Y004101D01*
X007494Y004074D01*
X007350Y004074D01*
X007312Y004064D01*
X007278Y004044D01*
X007250Y004016D01*
X007230Y003982D01*
X007220Y003944D01*
X007220Y003684D01*
X007610Y003684D01*
X007610Y003604D01*
X007690Y003604D01*
X007690Y003214D01*
X007950Y003214D01*
X007988Y003224D01*
X008022Y003244D01*
X008050Y003272D01*
X008070Y003306D01*
X008080Y003344D01*
X008080Y003604D01*
X007690Y003604D01*
X007690Y003684D01*
X008080Y003684D01*
X008080Y003944D01*
X008070Y003982D01*
X008050Y004016D01*
X008022Y004044D01*
X007988Y004064D01*
X007950Y004074D01*
X007806Y004074D01*
X007871Y004101D01*
X007981Y004211D01*
X008014Y004291D01*
X008286Y004291D01*
X008319Y004211D01*
X008429Y004101D01*
X008494Y004074D01*
X008350Y004074D01*
X008312Y004064D01*
X008278Y004044D01*
X008250Y004016D01*
X008230Y003982D01*
X008220Y003944D01*
X008220Y003684D01*
X008610Y003684D01*
X008610Y003604D01*
X008690Y003604D01*
X008690Y003214D01*
X008950Y003214D01*
X008988Y003224D01*
X009022Y003244D01*
X009050Y003272D01*
X009070Y003306D01*
X009080Y003344D01*
X009080Y003604D01*
X008690Y003604D01*
X008690Y003684D01*
X009080Y003684D01*
X009080Y003944D01*
X009070Y003982D01*
X009050Y004016D01*
X009022Y004044D01*
X008988Y004064D01*
X008950Y004074D01*
X008806Y004074D01*
X008871Y004101D01*
X008981Y004211D01*
X009014Y004291D01*
X009286Y004291D01*
X009319Y004211D01*
X009429Y004101D01*
X009494Y004074D01*
X009350Y004074D01*
X009312Y004064D01*
X009278Y004044D01*
X009250Y004016D01*
X009230Y003982D01*
X009220Y003944D01*
X009220Y003684D01*
X009610Y003684D01*
X009610Y003604D01*
X009690Y003604D01*
X009690Y003214D01*
X009950Y003214D01*
X009988Y003224D01*
X010022Y003244D01*
X010050Y003272D01*
X010070Y003306D01*
X010080Y003344D01*
X010080Y003604D01*
X009690Y003604D01*
X009690Y003684D01*
X010080Y003684D01*
X010080Y003944D01*
X010070Y003982D01*
X010050Y004016D01*
X010022Y004044D01*
X009988Y004064D01*
X009950Y004074D01*
X009806Y004074D01*
X009871Y004101D01*
X009981Y004211D01*
X010014Y004291D01*
X010286Y004291D01*
X010319Y004211D01*
X010429Y004101D01*
X010494Y004074D01*
X010350Y004074D01*
X010312Y004064D01*
X010278Y004044D01*
X010250Y004016D01*
X010230Y003982D01*
X010220Y003944D01*
X010220Y003684D01*
X010610Y003684D01*
X010610Y003604D01*
X010690Y003604D01*
X010690Y003214D01*
X010950Y003214D01*
X010988Y003224D01*
X011022Y003244D01*
X011050Y003272D01*
X011070Y003306D01*
X011080Y003344D01*
X011080Y003604D01*
X010690Y003604D01*
X010690Y003684D01*
X011080Y003684D01*
X011080Y003944D01*
X011070Y003982D01*
X011050Y004016D01*
X011022Y004044D01*
X010988Y004064D01*
X010950Y004074D01*
X010806Y004074D01*
X010871Y004101D01*
X010981Y004211D01*
X010998Y004252D01*
X011302Y004252D01*
X011319Y004211D01*
X011429Y004101D01*
X011494Y004074D01*
X011350Y004074D01*
X011312Y004064D01*
X011278Y004044D01*
X011250Y004016D01*
X011230Y003982D01*
X011220Y003944D01*
X011220Y003684D01*
X011610Y003684D01*
X011610Y003604D01*
X011690Y003604D01*
X011690Y003214D01*
X011950Y003214D01*
X011988Y003224D01*
X012022Y003244D01*
X012050Y003272D01*
X012070Y003306D01*
X012080Y003344D01*
X012080Y003604D01*
X011690Y003604D01*
X011690Y003684D01*
X012080Y003684D01*
X012080Y003944D01*
X012070Y003982D01*
X012050Y004016D01*
X012022Y004044D01*
X011988Y004064D01*
X011950Y004074D01*
X011806Y004074D01*
X011871Y004101D01*
X011981Y004211D01*
X012014Y004291D01*
X012286Y004291D01*
X012319Y004211D01*
X012429Y004101D01*
X012494Y004074D01*
X012350Y004074D01*
X012312Y004064D01*
X012278Y004044D01*
X012250Y004016D01*
X012230Y003982D01*
X012220Y003944D01*
X012220Y003684D01*
X012610Y003684D01*
X012610Y003604D01*
X012690Y003604D01*
X012690Y003214D01*
X012950Y003214D01*
X012988Y003224D01*
X013022Y003244D01*
X013050Y003272D01*
X013070Y003306D01*
X013080Y003344D01*
X013080Y003604D01*
X012690Y003604D01*
X012690Y003684D01*
X013080Y003684D01*
X013080Y003944D01*
X013070Y003982D01*
X013050Y004016D01*
X013022Y004044D01*
X012988Y004064D01*
X012950Y004074D01*
X012806Y004074D01*
X012871Y004101D01*
X012981Y004211D01*
X013014Y004291D01*
X013286Y004291D01*
X013319Y004211D01*
X013429Y004101D01*
X013494Y004074D01*
X013350Y004074D01*
X013312Y004064D01*
X013278Y004044D01*
X013250Y004016D01*
X013230Y003982D01*
X013220Y003944D01*
X013220Y003684D01*
X013610Y003684D01*
X013610Y003604D01*
X013690Y003604D01*
X013690Y003214D01*
X013950Y003214D01*
X013988Y003224D01*
X014022Y003244D01*
X014050Y003272D01*
X014070Y003306D01*
X014080Y003344D01*
X014080Y003604D01*
X013690Y003604D01*
X013690Y003684D01*
X014080Y003684D01*
X014080Y003944D01*
X014070Y003982D01*
X014050Y004016D01*
X014022Y004044D01*
X013988Y004064D01*
X013950Y004074D01*
X013806Y004074D01*
X013871Y004101D01*
X013981Y004211D01*
X014040Y004354D01*
X014040Y004509D01*
X013981Y004652D01*
X013871Y004762D01*
X013728Y004821D01*
X013572Y004821D01*
X013429Y004762D01*
X013319Y004652D01*
X013294Y004591D01*
X013006Y004591D01*
X012981Y004652D01*
X012871Y004762D01*
X012728Y004821D01*
X012572Y004821D01*
X012429Y004762D01*
X012319Y004652D01*
X012294Y004591D01*
X012006Y004591D01*
X011981Y004652D01*
X011871Y004762D01*
X011728Y004821D01*
X011572Y004821D01*
X011429Y004762D01*
X011319Y004652D01*
X011278Y004552D01*
X011022Y004552D01*
X010981Y004652D01*
X010871Y004762D01*
X010728Y004821D01*
X010572Y004821D01*
X010429Y004762D01*
X010319Y004652D01*
X010294Y004591D01*
X010006Y004591D01*
X009981Y004652D01*
X009871Y004762D01*
X009728Y004821D01*
X009572Y004821D01*
X009429Y004762D01*
X009319Y004652D01*
X009294Y004591D01*
X009006Y004591D01*
X008981Y004652D01*
X008871Y004762D01*
X008728Y004821D01*
X008572Y004821D01*
X008429Y004762D01*
X008319Y004652D01*
X008294Y004591D01*
X008006Y004591D01*
X007981Y004652D01*
X007871Y004762D01*
X007728Y004821D01*
X007572Y004821D01*
X007429Y004762D01*
X007319Y004652D01*
X007294Y004591D01*
X007006Y004591D01*
X006981Y004652D01*
X006871Y004762D01*
X006728Y004821D01*
X006572Y004821D01*
X006429Y004762D01*
X006319Y004652D01*
X006294Y004591D01*
X006006Y004591D01*
X005981Y004652D01*
X005871Y004762D01*
X005728Y004821D01*
X005572Y004821D01*
X005429Y004762D01*
X005319Y004652D01*
X005294Y004591D01*
X005006Y004591D01*
X004981Y004652D01*
X004871Y004762D01*
X004728Y004821D01*
X004572Y004821D01*
X004429Y004762D01*
X004319Y004652D01*
X004278Y004552D01*
X004022Y004552D01*
X003981Y004652D01*
X003871Y004762D01*
X003728Y004821D01*
X003572Y004821D01*
X003429Y004762D01*
X003319Y004652D01*
X003278Y004552D01*
X003022Y004552D01*
X002981Y004652D01*
X002871Y004762D01*
X002952Y004681D02*
X003348Y004681D01*
X003290Y004583D02*
X003010Y004583D01*
X002959Y004189D02*
X003341Y004189D01*
X003455Y004090D02*
X002845Y004090D01*
X003064Y003992D02*
X003236Y003992D01*
X003220Y003893D02*
X003080Y003893D01*
X003080Y003795D02*
X003220Y003795D01*
X003220Y003696D02*
X003080Y003696D01*
X003080Y003598D02*
X003220Y003598D01*
X003220Y003604D02*
X003220Y003344D01*
X003230Y003306D01*
X003250Y003272D01*
X003278Y003244D01*
X003312Y003224D01*
X003350Y003214D01*
X003610Y003214D01*
X003610Y003604D01*
X003220Y003604D01*
X003220Y003499D02*
X003080Y003499D01*
X003080Y003401D02*
X003220Y003401D01*
X003233Y003302D02*
X003067Y003302D01*
X002690Y003302D02*
X002610Y003302D01*
X002610Y003214D02*
X002610Y003604D01*
X002220Y003604D01*
X002220Y003344D01*
X002230Y003306D01*
X002250Y003272D01*
X002278Y003244D01*
X002312Y003224D01*
X002350Y003214D01*
X002610Y003214D01*
X002610Y003401D02*
X002690Y003401D01*
X002690Y003499D02*
X002610Y003499D01*
X002610Y003598D02*
X002690Y003598D01*
X002220Y003598D02*
X002190Y003598D01*
X002190Y003696D02*
X002220Y003696D01*
X002220Y003795D02*
X002190Y003795D01*
X002190Y003893D02*
X002220Y003893D01*
X002236Y003992D02*
X002190Y003992D01*
X002190Y004090D02*
X002455Y004090D01*
X002341Y004189D02*
X002190Y004189D01*
X002190Y004287D02*
X002288Y004287D01*
X002260Y004386D02*
X002190Y004386D01*
X002190Y004484D02*
X002260Y004484D01*
X002236Y004583D02*
X002290Y004583D01*
X002334Y004681D02*
X002348Y004681D01*
X002433Y004780D02*
X002471Y004780D01*
X003829Y004780D02*
X004471Y004780D01*
X004454Y004878D02*
X003846Y004878D01*
X003959Y004977D02*
X004341Y004977D01*
X004287Y005075D02*
X004013Y005075D01*
X003951Y005469D02*
X004349Y005469D01*
X004473Y005568D02*
X003827Y005568D01*
X003848Y005666D02*
X004452Y005666D01*
X004340Y005765D02*
X003960Y005765D01*
X004009Y006159D02*
X004291Y006159D01*
X004349Y006257D02*
X003951Y006257D01*
X003826Y006356D02*
X004474Y006356D01*
X004451Y006454D02*
X003849Y006454D01*
X003960Y006553D02*
X004340Y006553D01*
X004291Y006947D02*
X004009Y006947D01*
X003950Y007045D02*
X004350Y007045D01*
X004475Y007144D02*
X003825Y007144D01*
X003850Y007242D02*
X004450Y007242D01*
X004339Y007341D02*
X003961Y007341D01*
X004009Y007735D02*
X004291Y007735D01*
X004350Y007833D02*
X003950Y007833D01*
X003823Y007932D02*
X004477Y007932D01*
X004448Y008030D02*
X003852Y008030D01*
X003962Y008129D02*
X004338Y008129D01*
X004852Y008030D02*
X005448Y008030D01*
X005477Y007932D02*
X004823Y007932D01*
X004950Y007833D02*
X005350Y007833D01*
X005338Y008129D02*
X004962Y008129D01*
X005014Y008227D02*
X005286Y008227D01*
X005852Y008030D02*
X006448Y008030D01*
X006477Y007932D02*
X005823Y007932D01*
X005950Y007833D02*
X006350Y007833D01*
X006338Y008129D02*
X005962Y008129D01*
X006014Y008227D02*
X006286Y008227D01*
X006852Y008030D02*
X007448Y008030D01*
X007477Y007932D02*
X006823Y007932D01*
X006950Y007833D02*
X007350Y007833D01*
X007338Y008129D02*
X006962Y008129D01*
X007014Y008227D02*
X007286Y008227D01*
X007823Y007932D02*
X008477Y007932D01*
X008448Y008030D02*
X007852Y008030D01*
X007962Y008129D02*
X008338Y008129D01*
X008286Y008227D02*
X008014Y008227D01*
X007950Y007833D02*
X008350Y007833D01*
X008287Y007439D02*
X008013Y007439D01*
X007961Y007341D02*
X008339Y007341D01*
X008450Y007242D02*
X007850Y007242D01*
X007825Y007144D02*
X008475Y007144D01*
X008350Y007045D02*
X007950Y007045D01*
X008013Y006651D02*
X008287Y006651D01*
X008340Y006553D02*
X007960Y006553D01*
X007849Y006454D02*
X008451Y006454D01*
X008474Y006356D02*
X007826Y006356D01*
X007951Y006257D02*
X008349Y006257D01*
X008826Y006356D02*
X009474Y006356D01*
X009451Y006454D02*
X008849Y006454D01*
X008960Y006553D02*
X009340Y006553D01*
X009287Y006651D02*
X009013Y006651D01*
X008951Y006257D02*
X009349Y006257D01*
X009826Y006356D02*
X010474Y006356D01*
X010451Y006454D02*
X009849Y006454D01*
X009960Y006553D02*
X010340Y006553D01*
X010287Y006651D02*
X010013Y006651D01*
X009951Y006257D02*
X010349Y006257D01*
X010826Y006356D02*
X011474Y006356D01*
X011451Y006454D02*
X010849Y006454D01*
X010960Y006553D02*
X011340Y006553D01*
X011349Y006257D02*
X010951Y006257D01*
X011009Y006159D02*
X011291Y006159D01*
X011826Y006356D02*
X012474Y006356D01*
X012451Y006454D02*
X011849Y006454D01*
X011960Y006553D02*
X012340Y006553D01*
X012287Y006651D02*
X012013Y006651D01*
X011951Y006257D02*
X012349Y006257D01*
X012826Y006356D02*
X013474Y006356D01*
X013451Y006454D02*
X012849Y006454D01*
X012960Y006553D02*
X013340Y006553D01*
X013287Y006651D02*
X013013Y006651D01*
X012951Y006257D02*
X013349Y006257D01*
X013826Y006356D02*
X014756Y006356D01*
X014657Y006454D02*
X013849Y006454D01*
X013960Y006553D02*
X014559Y006553D01*
X014460Y006651D02*
X014013Y006651D01*
X014040Y006750D02*
X014362Y006750D01*
X014263Y006848D02*
X014040Y006848D01*
X014009Y006947D02*
X014165Y006947D01*
X014066Y007045D02*
X013950Y007045D01*
X013968Y007144D02*
X013825Y007144D01*
X013850Y007242D02*
X013869Y007242D01*
X014097Y007439D02*
X014460Y007439D01*
X014558Y007341D02*
X014195Y007341D01*
X014294Y007242D02*
X014657Y007242D01*
X014755Y007144D02*
X014392Y007144D01*
X014491Y007045D02*
X014854Y007045D01*
X014952Y006947D02*
X014589Y006947D01*
X014688Y006848D02*
X015051Y006848D01*
X015149Y006750D02*
X014786Y006750D01*
X014885Y006651D02*
X015248Y006651D01*
X015346Y006553D02*
X014983Y006553D01*
X015082Y006454D02*
X015445Y006454D01*
X015543Y006356D02*
X015180Y006356D01*
X015279Y006257D02*
X015642Y006257D01*
X015740Y006159D02*
X015300Y006159D01*
X015300Y006060D02*
X015839Y006060D01*
X015937Y005962D02*
X015300Y005962D01*
X015300Y005863D02*
X016036Y005863D01*
X016134Y005765D02*
X015300Y005765D01*
X015300Y005666D02*
X016233Y005666D01*
X016331Y005568D02*
X015300Y005568D01*
X015300Y005469D02*
X016430Y005469D01*
X016528Y005371D02*
X015300Y005371D01*
X015300Y005272D02*
X016575Y005272D01*
X016575Y005174D02*
X015300Y005174D01*
X015300Y005075D02*
X016575Y005075D01*
X016575Y004977D02*
X015300Y004977D01*
X015300Y004878D02*
X016575Y004878D01*
X016575Y004780D02*
X015300Y004780D01*
X015300Y004681D02*
X016575Y004681D01*
X016575Y004583D02*
X015300Y004583D01*
X015396Y004484D02*
X015904Y004484D01*
X015980Y004560D02*
X015740Y004320D01*
X015740Y003980D01*
X015980Y003740D01*
X016320Y003740D01*
X016560Y003980D01*
X016560Y004320D01*
X016320Y004560D01*
X015980Y004560D01*
X015806Y004386D02*
X015494Y004386D01*
X015560Y004287D02*
X015740Y004287D01*
X015740Y004189D02*
X015560Y004189D01*
X015560Y004090D02*
X015740Y004090D01*
X015740Y003992D02*
X015560Y003992D01*
X015473Y003893D02*
X015827Y003893D01*
X015926Y003795D02*
X015374Y003795D01*
X015381Y003499D02*
X015919Y003499D01*
X015980Y003560D02*
X015740Y003320D01*
X015740Y002980D01*
X015980Y002740D01*
X016320Y002740D01*
X016560Y002980D01*
X016560Y003320D01*
X016320Y003560D01*
X015980Y003560D01*
X015821Y003401D02*
X015479Y003401D01*
X015560Y003302D02*
X015740Y003302D01*
X015740Y003204D02*
X015560Y003204D01*
X015560Y003105D02*
X015740Y003105D01*
X015740Y003007D02*
X015560Y003007D01*
X015488Y002908D02*
X015812Y002908D01*
X015911Y002810D02*
X015389Y002810D01*
X015320Y002560D02*
X014980Y002560D01*
X014740Y002320D01*
X014740Y001980D01*
X014980Y001740D01*
X015320Y001740D01*
X015560Y001980D01*
X015560Y002320D01*
X015320Y002560D01*
X015366Y002514D02*
X015934Y002514D01*
X015836Y002416D02*
X015464Y002416D01*
X015560Y002317D02*
X015740Y002317D01*
X015740Y002219D02*
X015560Y002219D01*
X015560Y002120D02*
X015740Y002120D01*
X015740Y002022D02*
X015560Y002022D01*
X015503Y001923D02*
X015797Y001923D01*
X015896Y001825D02*
X015404Y001825D01*
X015336Y001600D02*
X015200Y001600D01*
X015200Y001200D01*
X015100Y001200D01*
X015100Y001600D01*
X014964Y001600D01*
X014700Y001336D01*
X014700Y001200D01*
X015100Y001200D01*
X015100Y001100D01*
X014700Y001100D01*
X014700Y000964D01*
X014964Y000700D01*
X015100Y000700D01*
X015100Y001100D01*
X015200Y001100D01*
X015200Y001200D01*
X015600Y001200D01*
X015600Y001336D01*
X015336Y001600D01*
X015407Y001529D02*
X015949Y001529D01*
X015980Y001560D02*
X015740Y001320D01*
X015740Y000980D01*
X015980Y000740D01*
X016320Y000740D01*
X016560Y000980D01*
X016560Y001320D01*
X016320Y001560D01*
X015980Y001560D01*
X015851Y001431D02*
X015506Y001431D01*
X015600Y001332D02*
X015752Y001332D01*
X015740Y001234D02*
X015600Y001234D01*
X015600Y001100D02*
X015200Y001100D01*
X015200Y000700D01*
X015336Y000700D01*
X015600Y000964D01*
X015600Y001100D01*
X015600Y001037D02*
X015740Y001037D01*
X015740Y001135D02*
X015200Y001135D01*
X015200Y001037D02*
X015100Y001037D01*
X015100Y001135D02*
X013391Y001135D01*
X013391Y001105D02*
X013293Y000869D01*
X013112Y000688D01*
X012876Y000591D01*
X012621Y000591D01*
X012385Y000688D01*
X012204Y000869D01*
X012106Y001105D01*
X012106Y001360D01*
X012204Y001596D01*
X012385Y001777D01*
X012621Y001875D01*
X012876Y001875D01*
X013112Y001777D01*
X013293Y001596D01*
X013391Y001360D01*
X013391Y001105D01*
X013362Y001037D02*
X014700Y001037D01*
X014726Y000938D02*
X013321Y000938D01*
X013263Y000840D02*
X014824Y000840D01*
X014923Y000741D02*
X013165Y000741D01*
X013002Y000643D02*
X017250Y000643D01*
X017250Y000741D02*
X016321Y000741D01*
X016419Y000840D02*
X017250Y000840D01*
X017250Y000938D02*
X016518Y000938D01*
X016560Y001037D02*
X017250Y001037D01*
X017250Y001135D02*
X016560Y001135D01*
X016560Y001234D02*
X017250Y001234D01*
X017250Y001332D02*
X016548Y001332D01*
X016449Y001431D02*
X017250Y001431D01*
X017250Y001529D02*
X016351Y001529D01*
X016404Y001825D02*
X017250Y001825D01*
X017250Y001923D02*
X016503Y001923D01*
X016560Y002022D02*
X017250Y002022D01*
X017250Y002120D02*
X016560Y002120D01*
X016560Y002219D02*
X017250Y002219D01*
X017250Y002317D02*
X016560Y002317D01*
X016643Y002416D02*
X017250Y002416D01*
X017250Y002514D02*
X016742Y002514D01*
X016840Y002613D02*
X017250Y002613D01*
X017250Y002711D02*
X016875Y002711D01*
X016875Y002810D02*
X017250Y002810D01*
X017250Y002908D02*
X016875Y002908D01*
X016875Y003007D02*
X017250Y003007D01*
X017250Y003105D02*
X016875Y003105D01*
X016875Y003204D02*
X017250Y003204D01*
X017250Y003302D02*
X016875Y003302D01*
X016875Y003401D02*
X017250Y003401D01*
X017250Y003499D02*
X016875Y003499D01*
X016875Y003598D02*
X017250Y003598D01*
X017250Y003696D02*
X016875Y003696D01*
X016875Y003795D02*
X017250Y003795D01*
X017250Y003893D02*
X016875Y003893D01*
X016875Y003992D02*
X017250Y003992D01*
X017250Y004090D02*
X016875Y004090D01*
X016875Y004189D02*
X017250Y004189D01*
X017250Y004287D02*
X016875Y004287D01*
X016875Y004386D02*
X017250Y004386D01*
X017250Y004484D02*
X016875Y004484D01*
X016875Y004583D02*
X017250Y004583D01*
X017250Y004681D02*
X016875Y004681D01*
X016875Y004780D02*
X017250Y004780D01*
X017250Y004878D02*
X016875Y004878D01*
X016875Y004977D02*
X017250Y004977D01*
X017250Y005075D02*
X016875Y005075D01*
X016875Y005174D02*
X017250Y005174D01*
X017250Y005272D02*
X016875Y005272D01*
X016875Y005371D02*
X017250Y005371D01*
X017250Y005469D02*
X016854Y005469D01*
X016756Y005568D02*
X017250Y005568D01*
X017250Y005666D02*
X016657Y005666D01*
X016559Y005765D02*
X017250Y005765D01*
X017250Y005863D02*
X016460Y005863D01*
X016362Y005962D02*
X017250Y005962D01*
X017250Y006060D02*
X016263Y006060D01*
X016165Y006159D02*
X017250Y006159D01*
X017250Y006257D02*
X016066Y006257D01*
X015968Y006356D02*
X017250Y006356D01*
X017250Y006454D02*
X015869Y006454D01*
X015771Y006553D02*
X017250Y006553D01*
X017250Y006651D02*
X015672Y006651D01*
X015574Y006750D02*
X017250Y006750D01*
X017250Y006848D02*
X015475Y006848D01*
X015377Y006947D02*
X017250Y006947D01*
X017250Y007045D02*
X015278Y007045D01*
X015180Y007144D02*
X017250Y007144D01*
X017250Y007242D02*
X015081Y007242D01*
X014983Y007341D02*
X017250Y007341D01*
X017250Y007439D02*
X014884Y007439D01*
X014786Y007538D02*
X017250Y007538D01*
X017250Y007636D02*
X014687Y007636D01*
X014589Y007735D02*
X017250Y007735D01*
X017250Y007833D02*
X014490Y007833D01*
X014392Y007932D02*
X017250Y007932D01*
X017250Y008030D02*
X014293Y008030D01*
X014195Y008129D02*
X017250Y008129D01*
X017250Y008227D02*
X014096Y008227D01*
X014040Y008326D02*
X017250Y008326D01*
X017250Y008424D02*
X014040Y008424D01*
X014008Y008523D02*
X017250Y008523D01*
X017250Y008621D02*
X013949Y008621D01*
X013822Y008720D02*
X017250Y008720D01*
X017250Y008818D02*
X013853Y008818D01*
X013871Y008825D02*
X013981Y008935D01*
X014040Y009078D01*
X014040Y009233D01*
X013981Y009377D01*
X013871Y009487D01*
X013728Y009546D01*
X013572Y009546D01*
X013429Y009487D01*
X013319Y009377D01*
X013294Y009316D01*
X013006Y009316D01*
X012981Y009377D01*
X012871Y009487D01*
X012728Y009546D01*
X012572Y009546D01*
X012429Y009487D01*
X012319Y009377D01*
X012294Y009316D01*
X012006Y009316D01*
X011981Y009377D01*
X011871Y009487D01*
X011728Y009546D01*
X011572Y009546D01*
X011429Y009487D01*
X011319Y009377D01*
X011294Y009316D01*
X011006Y009316D01*
X010981Y009377D01*
X010871Y009487D01*
X010728Y009546D01*
X010572Y009546D01*
X010429Y009487D01*
X010319Y009377D01*
X010294Y009316D01*
X010006Y009316D01*
X009981Y009377D01*
X009871Y009487D01*
X009728Y009546D01*
X009572Y009546D01*
X009429Y009487D01*
X009319Y009377D01*
X009294Y009316D01*
X009006Y009316D01*
X008981Y009377D01*
X008871Y009487D01*
X008728Y009546D01*
X008572Y009546D01*
X008429Y009487D01*
X008319Y009377D01*
X008294Y009316D01*
X008006Y009316D01*
X007981Y009377D01*
X007871Y009487D01*
X007728Y009546D01*
X007572Y009546D01*
X007429Y009487D01*
X007319Y009377D01*
X007294Y009316D01*
X007006Y009316D01*
X006981Y009377D01*
X006871Y009487D01*
X006728Y009546D01*
X006572Y009546D01*
X006429Y009487D01*
X006319Y009377D01*
X006294Y009316D01*
X006006Y009316D01*
X005981Y009377D01*
X005871Y009487D01*
X005728Y009546D01*
X005572Y009546D01*
X005429Y009487D01*
X005319Y009377D01*
X005294Y009316D01*
X005006Y009316D01*
X004981Y009377D01*
X004871Y009487D01*
X004728Y009546D01*
X004572Y009546D01*
X004429Y009487D01*
X004319Y009377D01*
X004278Y009276D01*
X004022Y009276D01*
X003981Y009377D01*
X003871Y009487D01*
X003728Y009546D01*
X003572Y009546D01*
X003429Y009487D01*
X003319Y009377D01*
X003278Y009276D01*
X003022Y009276D01*
X002981Y009377D01*
X002871Y009487D01*
X002728Y009546D01*
X002572Y009546D01*
X002429Y009487D01*
X002319Y009377D01*
X002260Y009233D01*
X002260Y009078D01*
X002319Y008935D01*
X002429Y008825D01*
X002572Y008766D01*
X002728Y008766D01*
X002871Y008825D01*
X002981Y008935D01*
X002998Y008976D01*
X003302Y008976D01*
X003319Y008935D01*
X003429Y008825D01*
X003572Y008766D01*
X003728Y008766D01*
X003871Y008825D01*
X003981Y008935D01*
X003998Y008976D01*
X004302Y008976D01*
X004319Y008935D01*
X004429Y008825D01*
X004572Y008766D01*
X004728Y008766D01*
X004871Y008825D01*
X004981Y008935D01*
X005014Y009016D01*
X005286Y009016D01*
X005319Y008935D01*
X005429Y008825D01*
X005572Y008766D01*
X005728Y008766D01*
X005871Y008825D01*
X005981Y008935D01*
X006014Y009016D01*
X006286Y009016D01*
X006319Y008935D01*
X006429Y008825D01*
X006572Y008766D01*
X006728Y008766D01*
X006871Y008825D01*
X006981Y008935D01*
X007014Y009016D01*
X007286Y009016D01*
X007319Y008935D01*
X007429Y008825D01*
X007572Y008766D01*
X007728Y008766D01*
X007871Y008825D01*
X007981Y008935D01*
X008014Y009016D01*
X008286Y009016D01*
X008319Y008935D01*
X008429Y008825D01*
X008572Y008766D01*
X008728Y008766D01*
X008871Y008825D01*
X008981Y008935D01*
X009014Y009016D01*
X009286Y009016D01*
X009319Y008935D01*
X009429Y008825D01*
X009572Y008766D01*
X009728Y008766D01*
X009871Y008825D01*
X009981Y008935D01*
X010014Y009016D01*
X010286Y009016D01*
X010319Y008935D01*
X010429Y008825D01*
X010572Y008766D01*
X010728Y008766D01*
X010871Y008825D01*
X010981Y008935D01*
X011014Y009016D01*
X011286Y009016D01*
X011319Y008935D01*
X011429Y008825D01*
X011572Y008766D01*
X011728Y008766D01*
X011871Y008825D01*
X011981Y008935D01*
X012014Y009016D01*
X012286Y009016D01*
X012319Y008935D01*
X012429Y008825D01*
X012572Y008766D01*
X012728Y008766D01*
X012871Y008825D01*
X012981Y008935D01*
X013014Y009016D01*
X013286Y009016D01*
X013319Y008935D01*
X013429Y008825D01*
X013572Y008766D01*
X013728Y008766D01*
X013871Y008825D01*
X013962Y008917D02*
X017250Y008917D01*
X017250Y009015D02*
X014014Y009015D01*
X014040Y009114D02*
X017250Y009114D01*
X017250Y009212D02*
X014040Y009212D01*
X014008Y009311D02*
X017250Y009311D01*
X017250Y009409D02*
X013948Y009409D01*
X013820Y009508D02*
X015484Y009508D01*
X015212Y009606D02*
X000300Y009606D01*
X000300Y009508D02*
X002480Y009508D01*
X002352Y009409D02*
X000300Y009409D01*
X000300Y009311D02*
X002292Y009311D01*
X002260Y009212D02*
X000300Y009212D01*
X000300Y009114D02*
X002260Y009114D01*
X002286Y009015D02*
X000300Y009015D01*
X000300Y008917D02*
X002338Y008917D01*
X002447Y008818D02*
X000300Y008818D01*
X000300Y008720D02*
X002478Y008720D01*
X002351Y008621D02*
X000300Y008621D01*
X000300Y008523D02*
X002292Y008523D01*
X002260Y008424D02*
X000300Y008424D01*
X000300Y009705D02*
X015076Y009705D01*
X015006Y009756D02*
X015006Y009756D01*
X015006Y009756D01*
X014971Y009803D02*
X000300Y009803D01*
X000300Y009902D02*
X004604Y009902D01*
X004511Y009940D02*
X004747Y009843D01*
X005002Y009843D01*
X005238Y009940D01*
X005419Y010121D01*
X005517Y010357D01*
X005517Y010612D01*
X005419Y010848D01*
X005238Y011029D01*
X005002Y011127D01*
X004747Y011127D01*
X004511Y011029D01*
X004330Y010848D01*
X004232Y010612D01*
X004232Y010357D01*
X004330Y010121D01*
X004511Y009940D01*
X004451Y010000D02*
X000300Y010000D01*
X000300Y010099D02*
X004352Y010099D01*
X004299Y010197D02*
X000300Y010197D01*
X000300Y010296D02*
X004258Y010296D01*
X004232Y010394D02*
X000300Y010394D01*
X000300Y010493D02*
X004232Y010493D01*
X004232Y010591D02*
X000300Y010591D01*
X000300Y010690D02*
X004264Y010690D01*
X004305Y010788D02*
X000300Y010788D01*
X000300Y010887D02*
X004368Y010887D01*
X004467Y010985D02*
X000300Y010985D01*
X000300Y011084D02*
X004642Y011084D01*
X005107Y011084D02*
X014750Y011084D01*
X014750Y011182D02*
X000303Y011182D01*
X000333Y011281D02*
X014750Y011281D01*
X014750Y011379D02*
X000394Y011379D01*
X000544Y011478D02*
X014709Y011478D01*
X014750Y010985D02*
X005282Y010985D01*
X005381Y010887D02*
X014750Y010887D01*
X014750Y010788D02*
X005444Y010788D01*
X005485Y010690D02*
X014750Y010690D01*
X014750Y010591D02*
X005517Y010591D01*
X005517Y010493D02*
X014750Y010493D01*
X014750Y010394D02*
X005517Y010394D01*
X005491Y010296D02*
X014750Y010296D01*
X014770Y010197D02*
X005450Y010197D01*
X005396Y010099D02*
X014802Y010099D01*
X014834Y010000D02*
X005298Y010000D01*
X005145Y009902D02*
X014900Y009902D01*
X014838Y009986D02*
X014838Y009986D01*
X013480Y009508D02*
X012820Y009508D01*
X012948Y009409D02*
X013352Y009409D01*
X013286Y009015D02*
X013014Y009015D01*
X012962Y008917D02*
X013338Y008917D01*
X013447Y008818D02*
X012853Y008818D01*
X012822Y008720D02*
X013478Y008720D01*
X013351Y008621D02*
X012949Y008621D01*
X012478Y008720D02*
X011822Y008720D01*
X011853Y008818D02*
X012447Y008818D01*
X012338Y008917D02*
X011962Y008917D01*
X012014Y009015D02*
X012286Y009015D01*
X012351Y008621D02*
X011949Y008621D01*
X011478Y008720D02*
X010822Y008720D01*
X010853Y008818D02*
X011447Y008818D01*
X011338Y008917D02*
X010962Y008917D01*
X011014Y009015D02*
X011286Y009015D01*
X011351Y008621D02*
X010949Y008621D01*
X010478Y008720D02*
X009822Y008720D01*
X009853Y008818D02*
X010447Y008818D01*
X010338Y008917D02*
X009962Y008917D01*
X010014Y009015D02*
X010286Y009015D01*
X010351Y008621D02*
X009949Y008621D01*
X009478Y008720D02*
X008822Y008720D01*
X008853Y008818D02*
X009447Y008818D01*
X009338Y008917D02*
X008962Y008917D01*
X009014Y009015D02*
X009286Y009015D01*
X009351Y008621D02*
X008949Y008621D01*
X008478Y008720D02*
X007822Y008720D01*
X007853Y008818D02*
X008447Y008818D01*
X008338Y008917D02*
X007962Y008917D01*
X008014Y009015D02*
X008286Y009015D01*
X008351Y008621D02*
X007949Y008621D01*
X007478Y008720D02*
X006822Y008720D01*
X006853Y008818D02*
X007447Y008818D01*
X007338Y008917D02*
X006962Y008917D01*
X007014Y009015D02*
X007286Y009015D01*
X007351Y008621D02*
X006949Y008621D01*
X006478Y008720D02*
X005822Y008720D01*
X005853Y008818D02*
X006447Y008818D01*
X006338Y008917D02*
X005962Y008917D01*
X006014Y009015D02*
X006286Y009015D01*
X006351Y008621D02*
X005949Y008621D01*
X005478Y008720D02*
X004822Y008720D01*
X004853Y008818D02*
X005447Y008818D01*
X005338Y008917D02*
X004962Y008917D01*
X005014Y009015D02*
X005286Y009015D01*
X005351Y008621D02*
X004949Y008621D01*
X004478Y008720D02*
X003822Y008720D01*
X003853Y008818D02*
X004447Y008818D01*
X004338Y008917D02*
X003962Y008917D01*
X003949Y008621D02*
X004351Y008621D01*
X004292Y008523D02*
X004008Y008523D01*
X003478Y008720D02*
X002822Y008720D01*
X002853Y008818D02*
X003447Y008818D01*
X003338Y008917D02*
X002962Y008917D01*
X002949Y008621D02*
X003351Y008621D01*
X003292Y008523D02*
X003008Y008523D01*
X002962Y008129D02*
X003338Y008129D01*
X003448Y008030D02*
X002852Y008030D01*
X002823Y007932D02*
X003477Y007932D01*
X003350Y007833D02*
X002950Y007833D01*
X003009Y007735D02*
X003291Y007735D01*
X004850Y007242D02*
X005450Y007242D01*
X005475Y007144D02*
X004825Y007144D01*
X004950Y007045D02*
X005350Y007045D01*
X005825Y007144D02*
X006475Y007144D01*
X006450Y007242D02*
X005850Y007242D01*
X005961Y007341D02*
X006339Y007341D01*
X006287Y007439D02*
X006013Y007439D01*
X005950Y007045D02*
X006350Y007045D01*
X006287Y006651D02*
X006013Y006651D01*
X005960Y006553D02*
X006340Y006553D01*
X006451Y006454D02*
X005849Y006454D01*
X005826Y006356D02*
X006474Y006356D01*
X006349Y006257D02*
X005951Y006257D01*
X005474Y006356D02*
X004826Y006356D01*
X004849Y006454D02*
X005451Y006454D01*
X005340Y006553D02*
X004960Y006553D01*
X005013Y006651D02*
X005287Y006651D01*
X005349Y006257D02*
X004951Y006257D01*
X005013Y005863D02*
X005287Y005863D01*
X005340Y005765D02*
X004960Y005765D01*
X004848Y005666D02*
X005452Y005666D01*
X005473Y005568D02*
X004827Y005568D01*
X004951Y005469D02*
X005349Y005469D01*
X005827Y005568D02*
X006473Y005568D01*
X006452Y005666D02*
X005848Y005666D01*
X005960Y005765D02*
X006340Y005765D01*
X006287Y005863D02*
X006013Y005863D01*
X005951Y005469D02*
X006349Y005469D01*
X006291Y005371D02*
X006009Y005371D01*
X005959Y004977D02*
X006341Y004977D01*
X006454Y004878D02*
X005846Y004878D01*
X005829Y004780D02*
X006471Y004780D01*
X006348Y004681D02*
X005952Y004681D01*
X006012Y004287D02*
X006288Y004287D01*
X006341Y004189D02*
X005959Y004189D01*
X005845Y004090D02*
X006455Y004090D01*
X006236Y003992D02*
X006064Y003992D01*
X006080Y003893D02*
X006220Y003893D01*
X006220Y003795D02*
X006080Y003795D01*
X006080Y003696D02*
X006220Y003696D01*
X006220Y003604D02*
X006220Y003344D01*
X006230Y003306D01*
X006250Y003272D01*
X006278Y003244D01*
X006312Y003224D01*
X006350Y003214D01*
X006610Y003214D01*
X006610Y003604D01*
X006220Y003604D01*
X006220Y003598D02*
X006080Y003598D01*
X006080Y003499D02*
X006220Y003499D01*
X006220Y003401D02*
X006080Y003401D01*
X006067Y003302D02*
X006233Y003302D01*
X006610Y003302D02*
X006690Y003302D01*
X006690Y003401D02*
X006610Y003401D01*
X006610Y003499D02*
X006690Y003499D01*
X006690Y003598D02*
X006610Y003598D01*
X007080Y003598D02*
X007220Y003598D01*
X007220Y003604D02*
X007220Y003344D01*
X007230Y003306D01*
X007250Y003272D01*
X007278Y003244D01*
X007312Y003224D01*
X007350Y003214D01*
X007610Y003214D01*
X007610Y003604D01*
X007220Y003604D01*
X007220Y003696D02*
X007080Y003696D01*
X007080Y003795D02*
X007220Y003795D01*
X007220Y003893D02*
X007080Y003893D01*
X007064Y003992D02*
X007236Y003992D01*
X007455Y004090D02*
X006845Y004090D01*
X006959Y004189D02*
X007341Y004189D01*
X007288Y004287D02*
X007012Y004287D01*
X006952Y004681D02*
X007348Y004681D01*
X007471Y004780D02*
X006829Y004780D01*
X006846Y004878D02*
X007454Y004878D01*
X007341Y004977D02*
X006959Y004977D01*
X007013Y005075D02*
X007287Y005075D01*
X007349Y005469D02*
X006951Y005469D01*
X006827Y005568D02*
X007473Y005568D01*
X007452Y005666D02*
X006848Y005666D01*
X006960Y005765D02*
X007340Y005765D01*
X007287Y005863D02*
X007013Y005863D01*
X006951Y006257D02*
X007349Y006257D01*
X007474Y006356D02*
X006826Y006356D01*
X006849Y006454D02*
X007451Y006454D01*
X007340Y006553D02*
X006960Y006553D01*
X007013Y006651D02*
X007287Y006651D01*
X007350Y007045D02*
X006950Y007045D01*
X006825Y007144D02*
X007475Y007144D01*
X007450Y007242D02*
X006850Y007242D01*
X006961Y007341D02*
X007339Y007341D01*
X007287Y007439D02*
X007013Y007439D01*
X005339Y007341D02*
X004961Y007341D01*
X005013Y007439D02*
X005287Y007439D01*
X004292Y009311D02*
X004008Y009311D01*
X003948Y009409D02*
X004352Y009409D01*
X004480Y009508D02*
X003820Y009508D01*
X003480Y009508D02*
X002820Y009508D01*
X002948Y009409D02*
X003352Y009409D01*
X003292Y009311D02*
X003008Y009311D01*
X004820Y009508D02*
X005480Y009508D01*
X005352Y009409D02*
X004948Y009409D01*
X005820Y009508D02*
X006480Y009508D01*
X006352Y009409D02*
X005948Y009409D01*
X006820Y009508D02*
X007480Y009508D01*
X007352Y009409D02*
X006948Y009409D01*
X007820Y009508D02*
X008480Y009508D01*
X008352Y009409D02*
X007948Y009409D01*
X008820Y009508D02*
X009480Y009508D01*
X009352Y009409D02*
X008948Y009409D01*
X009820Y009508D02*
X010480Y009508D01*
X010352Y009409D02*
X009948Y009409D01*
X010820Y009508D02*
X011480Y009508D01*
X011352Y009409D02*
X010948Y009409D01*
X011820Y009508D02*
X012480Y009508D01*
X012352Y009409D02*
X011948Y009409D01*
X012014Y008227D02*
X012286Y008227D01*
X012338Y008129D02*
X011962Y008129D01*
X011852Y008030D02*
X012448Y008030D01*
X012477Y007932D02*
X011823Y007932D01*
X011950Y007833D02*
X012350Y007833D01*
X012287Y007439D02*
X012013Y007439D01*
X011961Y007341D02*
X012339Y007341D01*
X012450Y007242D02*
X011850Y007242D01*
X011825Y007144D02*
X012475Y007144D01*
X012350Y007045D02*
X011950Y007045D01*
X011475Y007144D02*
X010825Y007144D01*
X010850Y007242D02*
X011450Y007242D01*
X011339Y007341D02*
X010961Y007341D01*
X010950Y007045D02*
X011350Y007045D01*
X011291Y006947D02*
X011009Y006947D01*
X010475Y007144D02*
X009825Y007144D01*
X009850Y007242D02*
X010450Y007242D01*
X010339Y007341D02*
X009961Y007341D01*
X010013Y007439D02*
X010287Y007439D01*
X010350Y007833D02*
X009950Y007833D01*
X009823Y007932D02*
X010477Y007932D01*
X010448Y008030D02*
X009852Y008030D01*
X009962Y008129D02*
X010338Y008129D01*
X010286Y008227D02*
X010014Y008227D01*
X009448Y008030D02*
X008852Y008030D01*
X008823Y007932D02*
X009477Y007932D01*
X009350Y007833D02*
X008950Y007833D01*
X008962Y008129D02*
X009338Y008129D01*
X009286Y008227D02*
X009014Y008227D01*
X009013Y007439D02*
X009287Y007439D01*
X009339Y007341D02*
X008961Y007341D01*
X008850Y007242D02*
X009450Y007242D01*
X009475Y007144D02*
X008825Y007144D01*
X008950Y007045D02*
X009350Y007045D01*
X009950Y007045D02*
X010350Y007045D01*
X011009Y007735D02*
X011291Y007735D01*
X011350Y007833D02*
X010950Y007833D01*
X010823Y007932D02*
X011477Y007932D01*
X011448Y008030D02*
X010852Y008030D01*
X010962Y008129D02*
X011338Y008129D01*
X011286Y008227D02*
X011014Y008227D01*
X012823Y007932D02*
X013477Y007932D01*
X013448Y008030D02*
X012852Y008030D01*
X012962Y008129D02*
X013338Y008129D01*
X013286Y008227D02*
X013014Y008227D01*
X012950Y007833D02*
X013350Y007833D01*
X013823Y007932D02*
X013967Y007932D01*
X013950Y007833D02*
X014066Y007833D01*
X014009Y007735D02*
X014164Y007735D01*
X014263Y007636D02*
X014040Y007636D01*
X014040Y007538D02*
X014361Y007538D01*
X013869Y008030D02*
X013852Y008030D01*
X013287Y007439D02*
X013013Y007439D01*
X012961Y007341D02*
X013339Y007341D01*
X013450Y007242D02*
X012850Y007242D01*
X012825Y007144D02*
X013475Y007144D01*
X013350Y007045D02*
X012950Y007045D01*
X013951Y006257D02*
X014854Y006257D01*
X014953Y006159D02*
X014009Y006159D01*
X014040Y006060D02*
X015000Y006060D01*
X015000Y005962D02*
X014040Y005962D01*
X014098Y005863D02*
X015000Y005863D01*
X015000Y005765D02*
X014196Y005765D01*
X014295Y005666D02*
X015000Y005666D01*
X015000Y005568D02*
X014355Y005568D01*
X014355Y005469D02*
X015000Y005469D01*
X015000Y005371D02*
X014355Y005371D01*
X014355Y005272D02*
X015000Y005272D01*
X015000Y005174D02*
X014355Y005174D01*
X014355Y005075D02*
X015000Y005075D01*
X015000Y004977D02*
X014355Y004977D01*
X014355Y004878D02*
X015000Y004878D01*
X015000Y004780D02*
X014355Y004780D01*
X014355Y004681D02*
X015000Y004681D01*
X015000Y004583D02*
X014355Y004583D01*
X014355Y004484D02*
X014904Y004484D01*
X014806Y004386D02*
X014355Y004386D01*
X014055Y004386D02*
X014040Y004386D01*
X014040Y004484D02*
X014055Y004484D01*
X014055Y004583D02*
X014010Y004583D01*
X014055Y004681D02*
X013952Y004681D01*
X014055Y004780D02*
X013829Y004780D01*
X013846Y004878D02*
X014055Y004878D01*
X014055Y004977D02*
X013959Y004977D01*
X014013Y005075D02*
X014055Y005075D01*
X014055Y005174D02*
X014040Y005174D01*
X014040Y005272D02*
X014055Y005272D01*
X014055Y005371D02*
X014009Y005371D01*
X014055Y005469D02*
X013951Y005469D01*
X013969Y005568D02*
X013827Y005568D01*
X013848Y005666D02*
X013871Y005666D01*
X013473Y005568D02*
X012827Y005568D01*
X012848Y005666D02*
X013452Y005666D01*
X013340Y005765D02*
X012960Y005765D01*
X013013Y005863D02*
X013287Y005863D01*
X013349Y005469D02*
X012951Y005469D01*
X012473Y005568D02*
X011827Y005568D01*
X011848Y005666D02*
X012452Y005666D01*
X012340Y005765D02*
X011960Y005765D01*
X012013Y005863D02*
X012287Y005863D01*
X012349Y005469D02*
X011951Y005469D01*
X012013Y005075D02*
X012287Y005075D01*
X012341Y004977D02*
X011959Y004977D01*
X011846Y004878D02*
X012454Y004878D01*
X012471Y004780D02*
X011829Y004780D01*
X011952Y004681D02*
X012348Y004681D01*
X012288Y004287D02*
X012012Y004287D01*
X011959Y004189D02*
X012341Y004189D01*
X012455Y004090D02*
X011845Y004090D01*
X012064Y003992D02*
X012236Y003992D01*
X012220Y003893D02*
X012080Y003893D01*
X012080Y003795D02*
X012220Y003795D01*
X012220Y003696D02*
X012080Y003696D01*
X012080Y003598D02*
X012220Y003598D01*
X012220Y003604D02*
X012220Y003344D01*
X012230Y003306D01*
X012250Y003272D01*
X012278Y003244D01*
X012312Y003224D01*
X012350Y003214D01*
X012610Y003214D01*
X012610Y003604D01*
X012220Y003604D01*
X012220Y003499D02*
X012080Y003499D01*
X012080Y003401D02*
X012220Y003401D01*
X012233Y003302D02*
X012067Y003302D01*
X011690Y003302D02*
X011610Y003302D01*
X011610Y003214D02*
X011610Y003604D01*
X011220Y003604D01*
X011220Y003344D01*
X011230Y003306D01*
X011250Y003272D01*
X011278Y003244D01*
X011312Y003224D01*
X011350Y003214D01*
X011610Y003214D01*
X011610Y003401D02*
X011690Y003401D01*
X011690Y003499D02*
X011610Y003499D01*
X011610Y003598D02*
X011690Y003598D01*
X011220Y003598D02*
X011080Y003598D01*
X011080Y003696D02*
X011220Y003696D01*
X011220Y003795D02*
X011080Y003795D01*
X011080Y003893D02*
X011220Y003893D01*
X011236Y003992D02*
X011064Y003992D01*
X010959Y004189D02*
X011341Y004189D01*
X011455Y004090D02*
X010845Y004090D01*
X010455Y004090D02*
X009845Y004090D01*
X009959Y004189D02*
X010341Y004189D01*
X010288Y004287D02*
X010012Y004287D01*
X010064Y003992D02*
X010236Y003992D01*
X010220Y003893D02*
X010080Y003893D01*
X010080Y003795D02*
X010220Y003795D01*
X010220Y003696D02*
X010080Y003696D01*
X010080Y003598D02*
X010220Y003598D01*
X010220Y003604D02*
X010220Y003344D01*
X010230Y003306D01*
X010250Y003272D01*
X010278Y003244D01*
X010312Y003224D01*
X010350Y003214D01*
X010610Y003214D01*
X010610Y003604D01*
X010220Y003604D01*
X010220Y003499D02*
X010080Y003499D01*
X010080Y003401D02*
X010220Y003401D01*
X010233Y003302D02*
X010067Y003302D01*
X009690Y003302D02*
X009610Y003302D01*
X009610Y003214D02*
X009610Y003604D01*
X009220Y003604D01*
X009220Y003344D01*
X009230Y003306D01*
X009250Y003272D01*
X009278Y003244D01*
X009312Y003224D01*
X009350Y003214D01*
X009610Y003214D01*
X009610Y003401D02*
X009690Y003401D01*
X009690Y003499D02*
X009610Y003499D01*
X009610Y003598D02*
X009690Y003598D01*
X009220Y003598D02*
X009080Y003598D01*
X009080Y003696D02*
X009220Y003696D01*
X009220Y003795D02*
X009080Y003795D01*
X009080Y003893D02*
X009220Y003893D01*
X009236Y003992D02*
X009064Y003992D01*
X008845Y004090D02*
X009455Y004090D01*
X009341Y004189D02*
X008959Y004189D01*
X009012Y004287D02*
X009288Y004287D01*
X009348Y004681D02*
X008952Y004681D01*
X008829Y004780D02*
X009471Y004780D01*
X009454Y004878D02*
X008846Y004878D01*
X008959Y004977D02*
X009341Y004977D01*
X009287Y005075D02*
X009013Y005075D01*
X008951Y005469D02*
X009349Y005469D01*
X009473Y005568D02*
X008827Y005568D01*
X008848Y005666D02*
X009452Y005666D01*
X009340Y005765D02*
X008960Y005765D01*
X009013Y005863D02*
X009287Y005863D01*
X009848Y005666D02*
X010452Y005666D01*
X010473Y005568D02*
X009827Y005568D01*
X009951Y005469D02*
X010349Y005469D01*
X010340Y005765D02*
X009960Y005765D01*
X010013Y005863D02*
X010287Y005863D01*
X010848Y005666D02*
X011452Y005666D01*
X011473Y005568D02*
X010827Y005568D01*
X010951Y005469D02*
X011349Y005469D01*
X011291Y005371D02*
X011009Y005371D01*
X010960Y005765D02*
X011340Y005765D01*
X011341Y004977D02*
X010959Y004977D01*
X010846Y004878D02*
X011454Y004878D01*
X011471Y004780D02*
X010829Y004780D01*
X010952Y004681D02*
X011348Y004681D01*
X011290Y004583D02*
X011010Y004583D01*
X010471Y004780D02*
X009829Y004780D01*
X009846Y004878D02*
X010454Y004878D01*
X010341Y004977D02*
X009959Y004977D01*
X010013Y005075D02*
X010287Y005075D01*
X010348Y004681D02*
X009952Y004681D01*
X008471Y004780D02*
X007829Y004780D01*
X007846Y004878D02*
X008454Y004878D01*
X008341Y004977D02*
X007959Y004977D01*
X008013Y005075D02*
X008287Y005075D01*
X008349Y005469D02*
X007951Y005469D01*
X007827Y005568D02*
X008473Y005568D01*
X008452Y005666D02*
X007848Y005666D01*
X007960Y005765D02*
X008340Y005765D01*
X008287Y005863D02*
X008013Y005863D01*
X007952Y004681D02*
X008348Y004681D01*
X008288Y004287D02*
X008012Y004287D01*
X007959Y004189D02*
X008341Y004189D01*
X008455Y004090D02*
X007845Y004090D01*
X008064Y003992D02*
X008236Y003992D01*
X008220Y003893D02*
X008080Y003893D01*
X008080Y003795D02*
X008220Y003795D01*
X008220Y003696D02*
X008080Y003696D01*
X008080Y003598D02*
X008220Y003598D01*
X008220Y003604D02*
X008220Y003344D01*
X008230Y003306D01*
X008250Y003272D01*
X008278Y003244D01*
X008312Y003224D01*
X008350Y003214D01*
X008610Y003214D01*
X008610Y003604D01*
X008220Y003604D01*
X008220Y003499D02*
X008080Y003499D01*
X008080Y003401D02*
X008220Y003401D01*
X008233Y003302D02*
X008067Y003302D01*
X007690Y003302D02*
X007610Y003302D01*
X007610Y003401D02*
X007690Y003401D01*
X007690Y003499D02*
X007610Y003499D01*
X007610Y003598D02*
X007690Y003598D01*
X007220Y003499D02*
X007080Y003499D01*
X007080Y003401D02*
X007220Y003401D01*
X007233Y003302D02*
X007067Y003302D01*
X005690Y003302D02*
X005610Y003302D01*
X005610Y003214D02*
X005610Y003604D01*
X005220Y003604D01*
X005220Y003344D01*
X005230Y003306D01*
X005250Y003272D01*
X005278Y003244D01*
X005312Y003224D01*
X005350Y003214D01*
X005610Y003214D01*
X005610Y003401D02*
X005690Y003401D01*
X005690Y003499D02*
X005610Y003499D01*
X005610Y003598D02*
X005690Y003598D01*
X005220Y003598D02*
X005080Y003598D01*
X005080Y003696D02*
X005220Y003696D01*
X005220Y003795D02*
X005080Y003795D01*
X005080Y003893D02*
X005220Y003893D01*
X005236Y003992D02*
X005064Y003992D01*
X004845Y004090D02*
X005455Y004090D01*
X005341Y004189D02*
X004959Y004189D01*
X005012Y004287D02*
X005288Y004287D01*
X005348Y004681D02*
X004952Y004681D01*
X004829Y004780D02*
X005471Y004780D01*
X005454Y004878D02*
X004846Y004878D01*
X004959Y004977D02*
X005341Y004977D01*
X005287Y005075D02*
X005013Y005075D01*
X004348Y004681D02*
X003952Y004681D01*
X004010Y004583D02*
X004290Y004583D01*
X004341Y004189D02*
X003959Y004189D01*
X003845Y004090D02*
X004455Y004090D01*
X004236Y003992D02*
X004064Y003992D01*
X004080Y003893D02*
X004220Y003893D01*
X004220Y003795D02*
X004080Y003795D01*
X004080Y003696D02*
X004220Y003696D01*
X004220Y003604D02*
X004220Y003344D01*
X004230Y003306D01*
X004250Y003272D01*
X004278Y003244D01*
X004312Y003224D01*
X004350Y003214D01*
X004610Y003214D01*
X004610Y003604D01*
X004220Y003604D01*
X004220Y003598D02*
X004080Y003598D01*
X004080Y003499D02*
X004220Y003499D01*
X004220Y003401D02*
X004080Y003401D01*
X004067Y003302D02*
X004233Y003302D01*
X003982Y003105D02*
X014740Y003105D01*
X014740Y003007D02*
X004080Y003007D01*
X004179Y002908D02*
X014812Y002908D01*
X014911Y002810D02*
X004277Y002810D01*
X004376Y002711D02*
X016515Y002711D01*
X016575Y002810D02*
X016389Y002810D01*
X016488Y002908D02*
X016575Y002908D01*
X016575Y003007D02*
X016560Y003007D01*
X016560Y003105D02*
X016575Y003105D01*
X016575Y003204D02*
X016560Y003204D01*
X016560Y003302D02*
X016575Y003302D01*
X016575Y003401D02*
X016479Y003401D01*
X016575Y003499D02*
X016381Y003499D01*
X016575Y003598D02*
X014946Y003598D01*
X014848Y003696D02*
X016575Y003696D01*
X016575Y003795D02*
X016374Y003795D01*
X016473Y003893D02*
X016575Y003893D01*
X016575Y003992D02*
X016560Y003992D01*
X016560Y004090D02*
X016575Y004090D01*
X016575Y004189D02*
X016560Y004189D01*
X016560Y004287D02*
X016575Y004287D01*
X016575Y004386D02*
X016494Y004386D01*
X016575Y004484D02*
X016396Y004484D01*
X014926Y003795D02*
X014749Y003795D01*
X014827Y003893D02*
X014651Y003893D01*
X014740Y003992D02*
X014552Y003992D01*
X014454Y004090D02*
X014740Y004090D01*
X014325Y003795D02*
X014080Y003795D01*
X014080Y003893D02*
X014226Y003893D01*
X014128Y003992D02*
X014064Y003992D01*
X014055Y004090D02*
X013845Y004090D01*
X013959Y004189D02*
X014055Y004189D01*
X014055Y004287D02*
X014012Y004287D01*
X013455Y004090D02*
X012845Y004090D01*
X012959Y004189D02*
X013341Y004189D01*
X013288Y004287D02*
X013012Y004287D01*
X013064Y003992D02*
X013236Y003992D01*
X013220Y003893D02*
X013080Y003893D01*
X013080Y003795D02*
X013220Y003795D01*
X013220Y003696D02*
X013080Y003696D01*
X013080Y003598D02*
X013220Y003598D01*
X013220Y003604D02*
X013220Y003344D01*
X013230Y003306D01*
X013250Y003272D01*
X013278Y003244D01*
X013312Y003224D01*
X013350Y003214D01*
X013610Y003214D01*
X013610Y003604D01*
X013220Y003604D01*
X013220Y003499D02*
X013080Y003499D01*
X013080Y003401D02*
X013220Y003401D01*
X013233Y003302D02*
X013067Y003302D01*
X012690Y003302D02*
X012610Y003302D01*
X012610Y003401D02*
X012690Y003401D01*
X012690Y003499D02*
X012610Y003499D01*
X012610Y003598D02*
X012690Y003598D01*
X013610Y003598D02*
X013690Y003598D01*
X013690Y003499D02*
X013610Y003499D01*
X013610Y003401D02*
X013690Y003401D01*
X013690Y003302D02*
X013610Y003302D01*
X014067Y003302D02*
X014740Y003302D01*
X014740Y003204D02*
X003883Y003204D01*
X003690Y003302D02*
X003610Y003302D01*
X003610Y003401D02*
X003690Y003401D01*
X003690Y003499D02*
X003610Y003499D01*
X003610Y003598D02*
X003690Y003598D01*
X004610Y003598D02*
X004690Y003598D01*
X004690Y003499D02*
X004610Y003499D01*
X004610Y003401D02*
X004690Y003401D01*
X004690Y003302D02*
X004610Y003302D01*
X005067Y003302D02*
X005233Y003302D01*
X005220Y003401D02*
X005080Y003401D01*
X005080Y003499D02*
X005220Y003499D01*
X004474Y002613D02*
X016416Y002613D01*
X017250Y001726D02*
X013163Y001726D01*
X013262Y001628D02*
X017250Y001628D01*
X015979Y000741D02*
X015377Y000741D01*
X015476Y000840D02*
X015881Y000840D01*
X015782Y000938D02*
X015574Y000938D01*
X015200Y000938D02*
X015100Y000938D01*
X015100Y000840D02*
X015200Y000840D01*
X015200Y000741D02*
X015100Y000741D01*
X015100Y001234D02*
X015200Y001234D01*
X015200Y001332D02*
X015100Y001332D01*
X015100Y001431D02*
X015200Y001431D01*
X015200Y001529D02*
X015100Y001529D01*
X014893Y001529D02*
X013321Y001529D01*
X013362Y001431D02*
X014794Y001431D01*
X014700Y001332D02*
X013391Y001332D01*
X013391Y001234D02*
X014700Y001234D01*
X014896Y001825D02*
X012998Y001825D01*
X012499Y001825D02*
X005262Y001825D01*
X005164Y001923D02*
X014797Y001923D01*
X014740Y002022D02*
X005065Y002022D01*
X004967Y002120D02*
X014740Y002120D01*
X014740Y002219D02*
X004868Y002219D01*
X004770Y002317D02*
X014740Y002317D01*
X014836Y002416D02*
X004671Y002416D01*
X004573Y002514D02*
X014934Y002514D01*
X014719Y003401D02*
X014080Y003401D01*
X014080Y003499D02*
X014620Y003499D01*
X014522Y003598D02*
X014080Y003598D01*
X014080Y003696D02*
X014423Y003696D01*
X013348Y004681D02*
X012952Y004681D01*
X012829Y004780D02*
X013471Y004780D01*
X013454Y004878D02*
X012846Y004878D01*
X012959Y004977D02*
X013341Y004977D01*
X013287Y005075D02*
X013013Y005075D01*
X010690Y003598D02*
X010610Y003598D01*
X010610Y003499D02*
X010690Y003499D01*
X010690Y003401D02*
X010610Y003401D01*
X010610Y003302D02*
X010690Y003302D01*
X011067Y003302D02*
X011233Y003302D01*
X011220Y003401D02*
X011080Y003401D01*
X011080Y003499D02*
X011220Y003499D01*
X009233Y003302D02*
X009067Y003302D01*
X009080Y003401D02*
X009220Y003401D01*
X009220Y003499D02*
X009080Y003499D01*
X008690Y003499D02*
X008610Y003499D01*
X008610Y003401D02*
X008690Y003401D01*
X008690Y003302D02*
X008610Y003302D01*
X008610Y003598D02*
X008690Y003598D01*
X005656Y001431D02*
X012135Y001431D01*
X012106Y001332D02*
X005755Y001332D01*
X005853Y001234D02*
X012106Y001234D01*
X012106Y001135D02*
X005952Y001135D01*
X006344Y001037D02*
X012135Y001037D01*
X012175Y000938D02*
X006390Y000938D01*
X006390Y000840D02*
X012233Y000840D01*
X012332Y000741D02*
X006390Y000741D01*
X006390Y000643D02*
X012495Y000643D01*
X012176Y001529D02*
X005558Y001529D01*
X005459Y001628D02*
X012235Y001628D01*
X012334Y001726D02*
X005361Y001726D01*
X005642Y000544D02*
X005658Y000544D01*
X005658Y000446D02*
X005642Y000446D01*
X005642Y000347D02*
X005658Y000347D01*
X006390Y000347D02*
X017148Y000347D01*
X017209Y000408D02*
X017245Y000496D01*
X017250Y000544D01*
X002233Y003302D02*
X002210Y003302D01*
X002220Y003401D02*
X002190Y003401D01*
X002190Y003499D02*
X002220Y003499D01*
D17*
X002040Y003260D02*
X002040Y004599D01*
X002630Y005189D01*
X002650Y005219D01*
X002670Y005229D01*
X003615Y005229D01*
X003650Y005219D01*
X003654Y005229D01*
X004638Y005229D01*
X004650Y005219D01*
X004678Y005229D01*
X005622Y005229D01*
X005650Y005219D01*
X005662Y005189D01*
X006646Y005189D01*
X006650Y005219D01*
X006685Y005229D01*
X007630Y005229D01*
X007650Y005219D01*
X007670Y005229D01*
X008615Y005229D01*
X008650Y005219D01*
X008654Y005229D01*
X009638Y005229D01*
X009650Y005219D01*
X009678Y005229D01*
X010622Y005229D01*
X010650Y005219D01*
X010662Y005189D01*
X011646Y005189D01*
X011650Y005219D01*
X011685Y005229D01*
X012630Y005229D01*
X012650Y005219D01*
X012670Y005229D01*
X013615Y005229D01*
X013650Y005219D01*
X014205Y005544D02*
X013772Y005977D01*
X013654Y005977D01*
X013650Y006006D01*
X013615Y006016D01*
X012670Y006016D01*
X012650Y006006D01*
X012630Y006016D01*
X011685Y006016D01*
X011650Y006006D01*
X011646Y005977D01*
X010662Y005977D01*
X010650Y006006D01*
X010622Y006016D01*
X009678Y006016D01*
X009650Y006006D01*
X009638Y006016D01*
X008654Y006016D01*
X008650Y006006D01*
X008615Y006016D01*
X007670Y006016D01*
X007650Y006006D01*
X007630Y006016D01*
X006685Y006016D01*
X006650Y006006D01*
X006646Y006016D01*
X005662Y006016D01*
X005650Y006006D01*
X005622Y006016D01*
X004678Y006016D01*
X004650Y006006D01*
X004638Y005977D01*
X003654Y005977D01*
X003650Y006006D01*
X003615Y005977D01*
X002670Y005977D01*
X002650Y006006D01*
X002670Y006764D02*
X002650Y006794D01*
X002670Y006764D02*
X003615Y006764D01*
X003650Y006794D01*
X003654Y006764D01*
X004638Y006764D01*
X004650Y006794D01*
X004678Y006804D01*
X005622Y006804D01*
X005650Y006794D01*
X005662Y006804D01*
X006646Y006804D01*
X006650Y006794D01*
X006685Y006804D01*
X007630Y006804D01*
X007650Y006794D01*
X007670Y006804D01*
X008615Y006804D01*
X008650Y006794D01*
X008654Y006804D01*
X009638Y006804D01*
X009650Y006794D01*
X009678Y006804D01*
X010622Y006804D01*
X010650Y006794D01*
X010662Y006764D01*
X011646Y006764D01*
X011650Y006794D01*
X011685Y006804D01*
X012630Y006804D01*
X012650Y006794D01*
X012670Y006804D01*
X013615Y006804D01*
X013650Y006794D01*
X013654Y007552D02*
X013650Y007581D01*
X013615Y007591D01*
X012670Y007591D01*
X012650Y007581D01*
X012630Y007591D01*
X011685Y007591D01*
X011650Y007581D01*
X011646Y007552D01*
X010662Y007552D01*
X010650Y007581D01*
X010622Y007591D01*
X009678Y007591D01*
X009650Y007581D01*
X009638Y007591D01*
X008654Y007591D01*
X008650Y007581D01*
X008615Y007591D01*
X007670Y007591D01*
X007650Y007581D01*
X007630Y007591D01*
X006685Y007591D01*
X006650Y007581D01*
X006646Y007591D01*
X005662Y007591D01*
X005650Y007581D01*
X005622Y007591D01*
X004678Y007591D01*
X004650Y007581D01*
X004638Y007552D01*
X003654Y007552D01*
X003650Y007581D01*
X003615Y007552D01*
X002670Y007552D01*
X002650Y007581D01*
X002670Y008339D02*
X002650Y008369D01*
X002670Y008339D02*
X003615Y008339D01*
X003650Y008369D01*
X003654Y008339D01*
X004638Y008339D01*
X004650Y008369D01*
X004678Y008378D01*
X005622Y008378D01*
X005650Y008369D01*
X005662Y008378D01*
X006646Y008378D01*
X006650Y008369D01*
X006685Y008378D01*
X007630Y008378D01*
X007650Y008369D01*
X007670Y008378D01*
X008615Y008378D01*
X008650Y008369D01*
X008654Y008378D01*
X009638Y008378D01*
X009650Y008369D01*
X009678Y008378D01*
X010622Y008378D01*
X010650Y008369D01*
X010662Y008378D01*
X011646Y008378D01*
X011650Y008369D01*
X011685Y008378D01*
X012630Y008378D01*
X012650Y008369D01*
X012670Y008378D01*
X013615Y008378D01*
X013650Y008369D01*
X013654Y008339D01*
X013772Y008339D01*
X016725Y005386D01*
X016725Y002709D01*
X016174Y002158D01*
X016150Y002150D01*
X015150Y003150D02*
X015150Y003181D01*
X014205Y004126D01*
X014205Y005544D01*
X015150Y006174D02*
X013772Y007552D01*
X013654Y007552D01*
X015150Y006174D02*
X015150Y004150D01*
X013650Y004431D02*
X013615Y004441D01*
X012670Y004441D01*
X012650Y004431D01*
X012630Y004441D01*
X011685Y004441D01*
X011650Y004431D01*
X011646Y004402D01*
X010662Y004402D01*
X010650Y004431D01*
X010622Y004441D01*
X009678Y004441D01*
X009650Y004431D01*
X009638Y004441D01*
X008654Y004441D01*
X008650Y004431D01*
X008615Y004441D01*
X007670Y004441D01*
X007650Y004431D01*
X007630Y004441D01*
X006685Y004441D01*
X006650Y004431D01*
X006646Y004441D01*
X005662Y004441D01*
X005650Y004431D01*
X005622Y004441D01*
X004678Y004441D01*
X004650Y004431D01*
X004638Y004402D01*
X003654Y004402D01*
X003650Y004431D01*
X003615Y004402D01*
X002670Y004402D01*
X002650Y004431D01*
X002040Y003260D02*
X002237Y003063D01*
X003811Y003063D01*
X006016Y000859D01*
X006016Y000662D01*
X006024Y000650D01*
X005276Y000650D02*
X005268Y000662D01*
X004599Y000662D01*
X004563Y000650D01*
X004638Y009126D02*
X003654Y009126D01*
X003650Y009156D01*
X003615Y009126D01*
X002670Y009126D01*
X002650Y009156D01*
X004638Y009126D02*
X004650Y009156D01*
X004678Y009166D01*
X005622Y009166D01*
X005650Y009156D01*
X005662Y009166D01*
X006646Y009166D01*
X006650Y009156D01*
X006685Y009166D01*
X007630Y009166D01*
X007650Y009156D01*
X007670Y009166D01*
X008615Y009166D01*
X008650Y009156D01*
X008654Y009166D01*
X009638Y009166D01*
X009650Y009156D01*
X009678Y009166D01*
X010622Y009166D01*
X010650Y009156D01*
X010662Y009166D01*
X011646Y009166D01*
X011650Y009156D01*
X011685Y009166D01*
X012630Y009166D01*
X012650Y009156D01*
X012670Y009166D01*
X013615Y009166D01*
X013650Y009156D01*
M02*
