  0
SECTION
  2
HEADER
  9
$ACADVER
  1
AC1009
  9
$MEASUREMENT
 70
     1
  0
ENDSEC
  0
SECTION
  2
ENTITIES
  0
LWPOLYLINE
  8
0
 62
7
 90
5
 70
1
 10
16.511563
 20
0.965200
 10
16.511563
 20
0.687363
 10
17.829238
 20
0.687362
 10
17.829238
 20
1.243037
 10
16.511563
 20
1.243038
  0
LWPOLYLINE
  8
0
 62
7
 90
5
 70
1
 10
16.511563
 20
1.905000
 10
16.511563
 20
1.627163
 10
17.829238
 20
1.627163
 10
17.829238
 20
2.182837
 10
16.511563
 20
2.182837
  0
LWPOLYLINE
  8
0
 62
7
 90
5
 70
1
 10
16.511563
 20
2.844800
 10
16.511563
 20
2.566963
 10
17.829238
 20
2.566963
 10
17.829238
 20
3.122638
 10
16.511563
 20
3.122638
  0
LWPOLYLINE
  8
0
 62
7
 90
5
 70
1
 10
13.920762
 20
2.844800
 10
13.920762
 20
2.566963
 10
15.238437
 20
2.566963
 10
15.238437
 20
3.122638
 10
13.920762
 20
3.122638
  0
LWPOLYLINE
  8
0
 62
7
 90
5
 70
1
 10
13.920762
 20
1.905000
 10
13.920762
 20
1.627163
 10
15.238437
 20
1.627163
 10
15.238437
 20
2.182837
 10
13.920762
 20
2.182837
  0
LWPOLYLINE
  8
0
 62
7
 90
5
 70
1
 10
13.920762
 20
0.965200
 10
13.920762
 20
0.687363
 10
15.238437
 20
0.687362
 10
15.238437
 20
1.243037
 10
13.920762
 20
1.243038
  0
LWPOLYLINE
  8
0
 62
7
 90
5
 70
1
 10
41.910000
 20
15.060638
 10
41.111462
 20
15.060638
 10
41.111462
 20
13.895362
 10
42.708537
 20
13.895362
 10
42.708537
 20
15.060638
  0
LWPOLYLINE
  8
0
 62
7
 90
5
 70
1
 10
41.910000
 20
16.584637
 10
41.111462
 20
16.584637
 10
41.111462
 20
15.419362
 10
42.708537
 20
15.419362
 10
42.708537
 20
16.584637
  0
LWPOLYLINE
  8
0
 62
7
 90
5
 70
1
 10
14.371562
 20
5.080000
 10
14.371562
 20
4.481562
 10
16.368437
 20
4.481562
 10
16.368437
 20
5.678438
 10
14.371562
 20
5.678438
  0
LWPOLYLINE
  8
0
 62
7
 90
5
 70
1
 10
11.571563
 20
5.080000
 10
11.571563
 20
4.481562
 10
13.568437
 20
4.481562
 10
13.568437
 20
5.678438
 10
11.571563
 20
5.678438
  0
LWPOLYLINE
  8
0
 62
7
 90
5
 70
1
 10
9.241563
 20
5.080000
 10
9.241563
 20
4.281562
 10
10.538438
 20
4.281562
 10
10.538438
 20
5.878438
 10
9.241563
 20
5.878438
  0
LWPOLYLINE
  8
0
 62
7
 90
5
 70
1
 10
7.241562
 20
5.080000
 10
7.241562
 20
4.281562
 10
8.538438
 20
4.281562
 10
8.538438
 20
5.878438
 10
7.241562
 20
5.878438
  0
LWPOLYLINE
  8
0
 62
7
 90
5
 70
1
 10
21.991562
 20
2.540000
 10
21.991562
 20
1.941563
 10
23.988437
 20
1.941563
 10
23.988437
 20
3.138438
 10
21.991562
 20
3.138438
  0
LWPOLYLINE
  8
0
 62
7
 90
5
 70
1
 10
19.191562
 20
2.540000
 10
19.191562
 20
1.941563
 10
21.188438
 20
1.941563
 10
21.188438
 20
3.138438
 10
19.191562
 20
3.138438
  0
LWPOLYLINE
  8
0
 62
7
 90
5
 70
1
 10
1.490000
 20
10.831563
 10
2.088437
 20
10.831563
 10
2.088437
 20
12.028437
 10
0.891563
 20
12.028437
 10
0.891563
 20
10.831563
  0
LWPOLYLINE
  8
0
 62
7
 90
5
 70
1
 10
3.590000
 20
10.831563
 10
4.188438
 20
10.831563
 10
4.188438
 20
12.028437
 10
2.991562
 20
12.028437
 10
2.991562
 20
10.831563
  0
LWPOLYLINE
  8
0
 62
7
 90
5
 70
1
 10
2.238437
 20
13.970000
 10
2.238437
 20
14.718438
 10
0.941563
 20
14.718438
 10
0.941563
 20
13.221563
 10
2.238437
 20
13.221563
  0
LWPOLYLINE
  8
0
 62
7
 90
5
 70
1
 10
4.138438
 20
13.970000
 10
4.138438
 20
14.718438
 10
2.841563
 20
14.718438
 10
2.841563
 20
13.221563
 10
4.138438
 20
13.221563
  0
LWPOLYLINE
  8
0
 62
7
 90
5
 70
1
 10
9.525000
 20
2.206562
 10
10.273438
 20
2.206562
 10
10.273438
 20
3.503437
 10
8.776563
 20
3.503437
 10
8.776563
 20
2.206562
  0
LWPOLYLINE
  8
0
 62
7
 90
5
 70
1
 10
9.525000
 20
0.306562
 10
10.273438
 20
0.306562
 10
10.273438
 20
1.603437
 10
8.776563
 20
1.603438
 10
8.776563
 20
0.306563
  0
LWPOLYLINE
  8
0
 62
7
 90
5
 70
1
 10
12.065000
 20
1.603438
 10
11.316562
 20
1.603438
 10
11.316562
 20
0.306563
 10
12.813437
 20
0.306562
 10
12.813437
 20
1.603438
  0
LWPOLYLINE
  8
0
 62
7
 90
5
 70
1
 10
12.065000
 20
3.503437
 10
11.316562
 20
3.503437
 10
11.316562
 20
2.206562
 10
12.813437
 20
2.206562
 10
12.813437
 20
3.503437
  0
ENDSEC
  0
EOF
