  0
SECTION
  2
HEADER
  9
$ACADVER
  1
AC1009
  9
$MEASUREMENT
 70
     1
  0
ENDSEC
  0
SECTION
  2
ENTITIES
  0
LWPOLYLINE
  8
0
 62
7
 90
5
 70
1
 10
22.258437
 20
26.670000
 10
22.258437
 20
27.568438
 10
20.661563
 20
27.568438
 10
20.661563
 20
25.771563
 10
22.258437
 20
25.771563
  0
LWPOLYLINE
  8
0
 62
7
 90
5
 70
1
 10
25.058438
 20
26.670000
 10
25.058438
 20
27.568438
 10
23.461563
 20
27.568438
 10
23.461563
 20
25.771563
 10
25.058438
 20
25.771563
  0
LWPOLYLINE
  8
0
 62
7
 90
5
 70
1
 10
19.718438
 20
9.906000
 10
19.718438
 20
10.804438
 10
18.121563
 20
10.804438
 10
18.121563
 20
9.007563
 10
19.718438
 20
9.007563
  0
LWPOLYLINE
  8
0
 62
7
 90
5
 70
1
 10
22.518437
 20
9.906000
 10
22.518437
 20
10.804438
 10
20.921563
 20
10.804438
 10
20.921563
 20
9.007563
 10
22.518437
 20
9.007563
  0
LWPOLYLINE
  8
0
 62
7
 90
5
 70
1
 10
32.016000
 20
6.713563
 10
32.414437
 20
6.713563
 10
32.414437
 20
7.510438
 10
31.617562
 20
7.510438
 10
31.617562
 20
6.713563
  0
LWPOLYLINE
  8
0
 62
7
 90
5
 70
1
 10
33.516000
 20
6.713563
 10
33.914437
 20
6.713563
 10
33.914437
 20
7.510438
 10
33.117562
 20
7.510438
 10
33.117562
 20
6.713563
  0
LWPOLYLINE
  8
0
 62
7
 90
5
 70
1
 10
9.894000
 20
26.560437
 10
9.495563
 20
26.560437
 10
9.495563
 20
25.763562
 10
10.292438
 20
25.763562
 10
10.292438
 20
26.560437
  0
LWPOLYLINE
  8
0
 62
7
 90
5
 70
1
 10
8.394000
 20
26.560437
 10
7.995563
 20
26.560437
 10
7.995563
 20
25.763562
 10
8.792438
 20
25.763562
 10
8.792438
 20
26.560437
  0
LWPOLYLINE
  8
0
 62
7
 90
5
 70
1
 10
11.430000
 20
27.638437
 10
10.681563
 20
27.638437
 10
10.681563
 20
26.341562
 10
12.178437
 20
26.341562
 10
12.178437
 20
27.638437
  0
LWPOLYLINE
  8
0
 62
7
 90
5
 70
1
 10
11.430000
 20
29.538438
 10
10.681563
 20
29.538438
 10
10.681563
 20
28.241563
 10
12.178437
 20
28.241563
 10
12.178437
 20
29.538438
  0
LWPOLYLINE
  8
0
 62
7
 90
5
 70
1
 10
29.511563
 20
7.620000
 10
29.511563
 20
6.871563
 10
30.808438
 20
6.871563
 10
30.808438
 20
8.368438
 10
29.511563
 20
8.368438
  0
LWPOLYLINE
  8
0
 62
7
 90
5
 70
1
 10
27.611563
 20
7.620000
 10
27.611563
 20
6.871563
 10
28.908438
 20
6.871563
 10
28.908438
 20
8.368438
 10
27.611563
 20
8.368438
  0
LWPOLYLINE
  8
0
 62
7
 90
5
 70
1
 10
29.030638
 20
26.670000
 10
29.030638
 20
27.468538
 10
27.865362
 20
27.468538
 10
27.865362
 20
25.871463
 10
29.030638
 20
25.871463
  0
LWPOLYLINE
  8
0
 62
7
 90
5
 70
1
 10
30.554638
 20
26.670000
 10
30.554638
 20
27.468538
 10
29.389363
 20
27.468538
 10
29.389363
 20
25.871463
 10
30.554638
 20
25.871463
  0
LWPOLYLINE
  8
0
 62
7
 90
5
 70
1
 10
41.750000
 20
10.988437
 10
40.251562
 20
10.988437
 10
40.251562
 20
9.491563
 10
43.248438
 20
9.491563
 10
43.248438
 20
10.988437
  0
LWPOLYLINE
  8
0
 62
7
 90
5
 70
1
 10
41.750000
 20
12.988437
 10
40.251562
 20
12.988437
 10
40.251562
 20
11.491563
 10
43.248438
 20
11.491563
 10
43.248438
 20
12.988437
  0
LWPOLYLINE
  8
0
 62
7
 90
5
 70
1
 10
41.750000
 20
14.988437
 10
40.251562
 20
14.988437
 10
40.251562
 20
13.491563
 10
43.248438
 20
13.491563
 10
43.248438
 20
14.988437
  0
LWPOLYLINE
  8
0
 62
7
 90
5
 70
1
 10
41.750000
 20
16.988437
 10
40.251562
 20
16.988437
 10
40.251562
 20
15.491562
 10
43.248438
 20
15.491562
 10
43.248438
 20
16.988437
  0
LWPOLYLINE
  8
0
 62
7
 90
5
 70
1
 10
41.750000
 20
18.988437
 10
40.251562
 20
18.988437
 10
40.251562
 20
17.491562
 10
43.248438
 20
17.491562
 10
43.248438
 20
18.988437
  0
LWPOLYLINE
  8
0
 62
7
 90
5
 70
1
 10
41.750000
 20
20.988437
 10
40.251562
 20
20.988437
 10
40.251562
 20
19.491562
 10
43.248438
 20
19.491562
 10
43.248438
 20
20.988437
  0
LWPOLYLINE
  8
0
 62
7
 90
5
 70
1
 10
41.750000
 20
22.988437
 10
40.251562
 20
22.988437
 10
40.251562
 20
21.491562
 10
43.248438
 20
21.491562
 10
43.248438
 20
22.988437
  0
LWPOLYLINE
  8
0
 62
7
 90
5
 70
1
 10
25.750000
 20
22.988437
 10
24.251562
 20
22.988437
 10
24.251562
 20
21.491562
 10
27.248438
 20
21.491562
 10
27.248438
 20
22.988437
  0
LWPOLYLINE
  8
0
 62
7
 90
5
 70
1
 10
25.750000
 20
20.988437
 10
24.251562
 20
20.988437
 10
24.251562
 20
19.491562
 10
27.248438
 20
19.491562
 10
27.248438
 20
20.988437
  0
LWPOLYLINE
  8
0
 62
7
 90
5
 70
1
 10
25.750000
 20
18.988437
 10
24.251562
 20
18.988437
 10
24.251562
 20
17.491562
 10
27.248438
 20
17.491562
 10
27.248438
 20
18.988437
  0
LWPOLYLINE
  8
0
 62
7
 90
5
 70
1
 10
25.750000
 20
16.988437
 10
24.251562
 20
16.988437
 10
24.251562
 20
15.491562
 10
27.248438
 20
15.491562
 10
27.248438
 20
16.988437
  0
LWPOLYLINE
  8
0
 62
7
 90
5
 70
1
 10
25.750000
 20
14.988437
 10
24.251562
 20
14.988437
 10
24.251562
 20
13.491563
 10
27.248438
 20
13.491563
 10
27.248438
 20
14.988437
  0
LWPOLYLINE
  8
0
 62
7
 90
5
 70
1
 10
25.750000
 20
12.988437
 10
24.251562
 20
12.988437
 10
24.251562
 20
11.491563
 10
27.248438
 20
11.491563
 10
27.248438
 20
12.988437
  0
LWPOLYLINE
  8
0
 62
7
 90
5
 70
1
 10
25.750000
 20
10.988437
 10
24.251562
 20
10.988437
 10
24.251562
 20
9.491563
 10
27.248438
 20
9.491563
 10
27.248438
 20
10.988437
  0
ENDSEC
  0
EOF
