  0
SECTION
  2
HEADER
  9
$ACADVER
  1
AC1009
  9
$MEASUREMENT
 70
     1
  0
ENDSEC
  0
SECTION
  2
ENTITIES
  0
LWPOLYLINE
  8
0
 62
7
 90
5
 70
1
 10
3.454400
 20
9.523438
 10
1.804963
 20
9.523438
 10
1.804963
 20
8.002562
 10
5.103838
 20
8.002562
 10
5.103838
 20
9.523438
  0
LWPOLYLINE
  8
0
 62
7
 90
5
 70
1
 10
3.454400
 20
14.603438
 10
1.804963
 20
14.603438
 10
1.804963
 20
13.082562
 10
5.103838
 20
13.082562
 10
5.103838
 20
14.603438
  0
LWPOLYLINE
  8
0
 62
7
 90
5
 70
1
 10
3.454400
 20
12.063438
 10
1.804963
 20
12.063438
 10
1.804963
 20
10.542563
 10
5.103838
 20
10.542563
 10
5.103838
 20
12.063438
  0
LWPOLYLINE
  8
0
 62
7
 90
5
 70
1
 10
3.329962
 20
17.094200
 10
3.329962
 20
16.495763
 10
4.526838
 20
16.495763
 10
4.526838
 20
17.692638
 10
3.329962
 20
17.692638
  0
LWPOLYLINE
  8
0
 62
7
 90
5
 70
1
 10
5.429963
 20
17.094200
 10
5.429963
 20
16.495763
 10
6.626838
 20
16.495763
 10
6.626838
 20
17.692638
 10
5.429963
 20
17.692638
  0
LWPOLYLINE
  8
0
 62
7
 90
5
 70
1
 10
4.525237
 20
19.532600
 10
4.525237
 20
20.081037
 10
3.528362
 20
20.081037
 10
3.528362
 20
18.984163
 10
4.525237
 20
18.984163
  0
LWPOLYLINE
  8
0
 62
7
 90
5
 70
1
 10
6.225237
 20
19.532600
 10
6.225237
 20
20.081037
 10
5.228363
 20
20.081037
 10
5.228363
 20
18.984163
 10
6.225237
 20
18.984163
  0
LWPOLYLINE
  8
0
 62
7
 90
5
 70
1
 10
19.491562
 20
19.245600
 10
19.491562
 20
17.747162
 10
20.988437
 20
17.747162
 10
20.988437
 20
20.744038
 10
19.491562
 20
20.744038
  0
LWPOLYLINE
  8
0
 62
7
 90
5
 70
1
 10
17.491562
 20
19.245600
 10
17.491562
 20
17.747162
 10
18.988437
 20
17.747162
 10
18.988437
 20
20.744038
 10
17.491562
 20
20.744038
  0
LWPOLYLINE
  8
0
 62
7
 90
5
 70
1
 10
7.491563
 20
19.245600
 10
7.491563
 20
17.747162
 10
8.988437
 20
17.747162
 10
8.988437
 20
20.744038
 10
7.491563
 20
20.744038
  0
LWPOLYLINE
  8
0
 62
7
 90
5
 70
1
 10
7.491563
 20
3.245600
 10
7.491563
 20
1.747162
 10
8.988437
 20
1.747162
 10
8.988437
 20
4.744038
 10
7.491563
 20
4.744038
  0
LWPOLYLINE
  8
0
 62
7
 90
5
 70
1
 10
9.491563
 20
3.245600
 10
9.491563
 20
1.747162
 10
10.988437
 20
1.747162
 10
10.988437
 20
4.744038
 10
9.491563
 20
4.744038
  0
LWPOLYLINE
  8
0
 62
7
 90
5
 70
1
 10
11.491563
 20
3.245600
 10
11.491563
 20
1.747162
 10
12.988437
 20
1.747162
 10
12.988437
 20
4.744038
 10
11.491563
 20
4.744038
  0
LWPOLYLINE
  8
0
 62
7
 90
5
 70
1
 10
15.491562
 20
3.245600
 10
15.491562
 20
1.747162
 10
16.988437
 20
1.747162
 10
16.988437
 20
4.744038
 10
15.491562
 20
4.744038
  0
LWPOLYLINE
  8
0
 62
7
 90
5
 70
1
 10
17.491562
 20
3.245600
 10
17.491562
 20
1.747162
 10
18.988437
 20
1.747162
 10
18.988437
 20
4.744038
 10
17.491562
 20
4.744038
  0
LWPOLYLINE
  8
0
 62
7
 90
5
 70
1
 10
19.491562
 20
3.245600
 10
19.491562
 20
1.747162
 10
20.988437
 20
1.747162
 10
20.988437
 20
4.744038
 10
19.491562
 20
4.744038
  0
ENDSEC
  0
EOF
