  0
SECTION
  2
HEADER
  9
$ACADVER
  1
AC1009
  9
$MEASUREMENT
 70
     1
  0
ENDSEC
  0
SECTION
  2
ENTITIES
  0
LWPOLYLINE
  8
0
 62
7
 90
5
 70
1
 10
23.700000
 20
35.156125
 10
24.585875
 20
35.156125
 10
24.585875
 20
37.689875
 10
22.814125
 20
37.689875
 10
22.814125
 20
35.156125
  0
LWPOLYLINE
  8
0
 62
7
 90
5
 70
1
 10
1.700000
 20
35.156125
 10
2.585875
 20
35.156125
 10
2.585875
 20
37.689875
 10
0.814125
 20
37.689875
 10
0.814125
 20
35.156125
  0
LWPOLYLINE
  8
0
 62
7
 90
5
 70
1
 10
23.700000
 20
38.256125
 10
24.585875
 20
38.256125
 10
24.585875
 20
40.789875
 10
22.814125
 20
40.789875
 10
22.814125
 20
38.256125
  0
LWPOLYLINE
  8
0
 62
7
 90
5
 70
1
 10
1.700000
 20
38.256125
 10
2.585875
 20
38.256125
 10
2.585875
 20
40.789875
 10
0.814125
 20
40.789875
 10
0.814125
 20
38.256125
  0
LWPOLYLINE
  8
0
 62
7
 90
5
 70
1
  0
LWPOLYLINE
  8
0
 62
7
 90
5
 70
1
 10
10.703125
 20
37.973000
 10
10.703125
 20
35.976125
 10
14.696875
 20
35.976125
 10
14.696875
 20
39.969875
 10
10.703125
 20
39.969875
  0
LWPOLYLINE
  8
0
 62
7
 90
5
 70
1
 10
16.206875
 20
10.160000
 10
16.206875
 20
10.656875
 10
15.113125
 20
10.656875
 10
15.113125
 20
9.663125
 10
16.206875
 20
9.663125
  0
LWPOLYLINE
  8
0
 62
7
 90
5
 70
1
 10
17.906875
 20
10.160000
 10
17.906875
 20
10.656875
 10
16.813125
 20
10.656875
 10
16.813125
 20
9.663125
 10
17.906875
 20
9.663125
  0
LWPOLYLINE
  8
0
 62
7
 90
5
 70
1
 10
20.320000
 20
13.666875
 10
19.823125
 20
13.666875
 10
19.823125
 20
12.573125
 10
20.816875
 20
12.573125
 10
20.816875
 20
13.666875
  0
LWPOLYLINE
  8
0
 62
7
 90
5
 70
1
 10
20.320000
 20
15.366875
 10
19.823125
 20
15.366875
 10
19.823125
 20
14.273125
 10
20.816875
 20
14.273125
 10
20.816875
 20
15.366875
  0
LWPOLYLINE
  8
0
 62
7
 90
5
 70
1
 10
21.590000
 20
13.003125
 10
22.086875
 20
13.003125
 10
22.086875
 20
14.096875
 10
21.093125
 20
14.096875
 10
21.093125
 20
13.003125
  0
LWPOLYLINE
  8
0
 62
7
 90
5
 70
1
 10
21.590000
 20
11.303125
 10
22.086875
 20
11.303125
 10
22.086875
 20
12.396875
 10
21.093125
 20
12.396875
 10
21.093125
 20
11.303125
  0
LWPOLYLINE
  8
0
 62
7
 90
5
 70
1
 10
12.700000
 20
14.273125
 10
13.196875
 20
14.273125
 10
13.196875
 20
15.366875
 10
12.203125
 20
15.366875
 10
12.203125
 20
14.273125
  0
LWPOLYLINE
  8
0
 62
7
 90
5
 70
1
 10
12.700000
 20
12.573125
 10
13.196875
 20
12.573125
 10
13.196875
 20
13.666875
 10
12.203125
 20
13.666875
 10
12.203125
 20
12.573125
  0
LWPOLYLINE
  8
0
 62
7
 90
5
 70
1
 10
15.543125
 20
17.780000
 10
15.543125
 20
17.283125
 10
16.636875
 20
17.283125
 10
16.636875
 20
18.276875
 10
15.543125
 20
18.276875
  0
LWPOLYLINE
  8
0
 62
7
 90
5
 70
1
 10
13.843125
 20
17.780000
 10
13.843125
 20
17.283125
 10
14.936875
 20
17.283125
 10
14.936875
 20
18.276875
 10
13.843125
 20
18.276875
  0
LWPOLYLINE
  8
0
 62
7
 90
5
 70
1
 10
14.773125
 20
22.990000
 10
14.773125
 20
22.693125
 10
15.166875
 20
22.693125
 10
15.166875
 20
23.286875
 10
14.773125
 20
23.286875
  0
LWPOLYLINE
  8
0
 62
7
 90
5
 70
1
 10
13.773125
 20
22.990000
 10
13.773125
 20
22.693125
 10
14.166875
 20
22.693125
 10
14.166875
 20
23.286875
 10
13.773125
 20
23.286875
  0
LWPOLYLINE
  8
0
 62
7
 90
5
 70
1
 10
12.773125
 20
22.990000
 10
12.773125
 20
22.693125
 10
13.166875
 20
22.693125
 10
13.166875
 20
23.286875
 10
12.773125
 20
23.286875
  0
LWPOLYLINE
  8
0
 62
7
 90
5
 70
1
 10
12.773125
 20
20.190000
 10
12.773125
 20
19.893125
 10
13.166875
 20
19.893125
 10
13.166875
 20
20.486875
 10
12.773125
 20
20.486875
  0
LWPOLYLINE
  8
0
 62
7
 90
5
 70
1
 10
13.773125
 20
20.190000
 10
13.773125
 20
19.893125
 10
14.166875
 20
19.893125
 10
14.166875
 20
20.486875
 10
13.773125
 20
20.486875
  0
LWPOLYLINE
  8
0
 62
7
 90
5
 70
1
 10
14.773125
 20
20.190000
 10
14.773125
 20
19.893125
 10
15.166875
 20
19.893125
 10
15.166875
 20
20.486875
 10
14.773125
 20
20.486875
  0
LWPOLYLINE
  8
0
 62
7
 90
5
 70
1
 10
12.773125
 20
21.590000
 10
12.773125
 20
20.793125
 10
15.166875
 20
20.793125
 10
15.166875
 20
22.386875
 10
12.773125
 20
22.386875
  0
LWPOLYLINE
  8
0
 62
7
 90
5
 70
1
 10
15.461875
 20
14.720000
 10
15.461875
 20
14.856875
 10
14.818125
 20
14.856875
 10
14.818125
 20
14.583125
 10
15.461875
 20
14.583125
  0
LWPOLYLINE
  8
0
 62
7
 90
5
 70
1
 10
15.461875
 20
14.220000
 10
15.461875
 20
14.356875
 10
14.818125
 20
14.356875
 10
14.818125
 20
14.083125
 10
15.461875
 20
14.083125
  0
LWPOLYLINE
  8
0
 62
7
 90
5
 70
1
 10
15.461875
 20
13.720000
 10
15.461875
 20
13.856875
 10
14.818125
 20
13.856875
 10
14.818125
 20
13.583125
 10
15.461875
 20
13.583125
  0
LWPOLYLINE
  8
0
 62
7
 90
5
 70
1
 10
15.461875
 20
13.220000
 10
15.461875
 20
13.356875
 10
14.818125
 20
13.356875
 10
14.818125
 20
13.083125
 10
15.461875
 20
13.083125
  0
LWPOLYLINE
  8
0
 62
7
 90
5
 70
1
 10
15.760000
 20
12.278125
 10
15.896875
 20
12.278125
 10
15.896875
 20
12.921875
 10
15.623125
 20
12.921875
 10
15.623125
 20
12.278125
  0
LWPOLYLINE
  8
0
 62
7
 90
5
 70
1
 10
16.260000
 20
12.921875
 10
16.123125
 20
12.921875
 10
16.123125
 20
12.278125
 10
16.396875
 20
12.278125
 10
16.396875
 20
12.921875
  0
LWPOLYLINE
  8
0
 62
7
 90
5
 70
1
 10
16.760000
 20
12.921875
 10
16.623125
 20
12.921875
 10
16.623125
 20
12.278125
 10
16.896875
 20
12.278125
 10
16.896875
 20
12.921875
  0
LWPOLYLINE
  8
0
 62
7
 90
5
 70
1
 10
17.260000
 20
12.921875
 10
17.123125
 20
12.921875
 10
17.123125
 20
12.278125
 10
17.396875
 20
12.278125
 10
17.396875
 20
12.921875
  0
LWPOLYLINE
  8
0
 62
7
 90
5
 70
1
 10
18.201875
 20
13.220000
 10
18.201875
 20
13.356875
 10
17.558125
 20
13.356875
 10
17.558125
 20
13.083125
 10
18.201875
 20
13.083125
  0
LWPOLYLINE
  8
0
 62
7
 90
5
 70
1
 10
18.201875
 20
13.720000
 10
18.201875
 20
13.856875
 10
17.558125
 20
13.856875
 10
17.558125
 20
13.583125
 10
18.201875
 20
13.583125
  0
LWPOLYLINE
  8
0
 62
7
 90
5
 70
1
 10
18.201875
 20
14.220000
 10
18.201875
 20
14.356875
 10
17.558125
 20
14.356875
 10
17.558125
 20
14.083125
 10
18.201875
 20
14.083125
  0
LWPOLYLINE
  8
0
 62
7
 90
5
 70
1
 10
18.201875
 20
14.720000
 10
18.201875
 20
14.856875
 10
17.558125
 20
14.856875
 10
17.558125
 20
14.583125
 10
18.201875
 20
14.583125
  0
LWPOLYLINE
  8
0
 62
7
 90
5
 70
1
 10
17.260000
 20
15.661875
 10
17.123125
 20
15.661875
 10
17.123125
 20
15.018125
 10
17.396875
 20
15.018125
 10
17.396875
 20
15.661875
  0
LWPOLYLINE
  8
0
 62
7
 90
5
 70
1
 10
16.760000
 20
15.661875
 10
16.623125
 20
15.661875
 10
16.623125
 20
15.018125
 10
16.896875
 20
15.018125
 10
16.896875
 20
15.661875
  0
LWPOLYLINE
  8
0
 62
7
 90
5
 70
1
 10
16.260000
 20
15.661875
 10
16.123125
 20
15.661875
 10
16.123125
 20
15.018125
 10
16.396875
 20
15.018125
 10
16.396875
 20
15.661875
  0
LWPOLYLINE
  8
0
 62
7
 90
5
 70
1
 10
15.760000
 20
15.661875
 10
15.623125
 20
15.661875
 10
15.623125
 20
15.018125
 10
15.896875
 20
15.018125
 10
15.896875
 20
15.661875
  0
ENDSEC
  0
EOF
