  0
SECTION
  2
HEADER
  9
$ACADVER
  1
AC1009
  9
$MEASUREMENT
 70
     1
  0
ENDSEC
  0
SECTION
  2
ENTITIES
  0
LWPOLYLINE
  8
0
 62
7
 90
5
 70
1
 10
8.204000
 20
31.865875
 10
7.953125
 20
31.865875
 10
7.953125
 20
29.856125
 10
8.454875
 20
29.856125
 10
8.454875
 20
31.865875
  0
LWPOLYLINE
  8
0
 62
7
 90
5
 70
1
 10
9.474000
 20
31.865875
 10
9.223125
 20
31.865875
 10
9.223125
 20
29.856125
 10
9.724875
 20
29.856125
 10
9.724875
 20
31.865875
  0
LWPOLYLINE
  8
0
 62
7
 90
5
 70
1
 10
10.744000
 20
31.865875
 10
10.493125
 20
31.865875
 10
10.493125
 20
29.856125
 10
10.994875
 20
29.856125
 10
10.994875
 20
31.865875
  0
LWPOLYLINE
  8
0
 62
7
 90
5
 70
1
 10
12.014000
 20
31.865875
 10
11.763125
 20
31.865875
 10
11.763125
 20
29.856125
 10
12.264875
 20
29.856125
 10
12.264875
 20
31.865875
  0
LWPOLYLINE
  8
0
 62
7
 90
5
 70
1
 10
13.284000
 20
31.865875
 10
13.033125
 20
31.865875
 10
13.033125
 20
29.856125
 10
13.534875
 20
29.856125
 10
13.534875
 20
31.865875
  0
LWPOLYLINE
  8
0
 62
7
 90
5
 70
1
 10
14.554000
 20
31.865875
 10
14.303125
 20
31.865875
 10
14.303125
 20
29.856125
 10
14.804875
 20
29.856125
 10
14.804875
 20
31.865875
  0
LWPOLYLINE
  8
0
 62
7
 90
5
 70
1
 10
15.824000
 20
31.865875
 10
15.573125
 20
31.865875
 10
15.573125
 20
29.856125
 10
16.074875
 20
29.856125
 10
16.074875
 20
31.865875
  0
LWPOLYLINE
  8
0
 62
7
 90
5
 70
1
 10
17.094000
 20
31.865875
 10
16.843125
 20
31.865875
 10
16.843125
 20
29.856125
 10
17.344875
 20
29.856125
 10
17.344875
 20
31.865875
  0
LWPOLYLINE
  8
0
 62
7
 90
5
 70
1
 10
16.171875
 20
8.950000
 10
16.171875
 20
10.046875
 10
15.578125
 20
10.046875
 10
15.578125
 20
7.853125
 10
16.171875
 20
7.853125
  0
LWPOLYLINE
  8
0
 62
7
 90
5
 70
1
 10
17.441875
 20
8.950000
 10
17.441875
 20
10.046875
 10
16.848125
 20
10.046875
 10
16.848125
 20
7.853125
 10
17.441875
 20
7.853125
  0
LWPOLYLINE
  8
0
 62
7
 90
5
 70
1
 10
18.711875
 20
8.950000
 10
18.711875
 20
10.046875
 10
18.118125
 20
10.046875
 10
18.118125
 20
7.853125
 10
18.711875
 20
7.853125
  0
LWPOLYLINE
  8
0
 62
7
 90
5
 70
1
 10
19.981875
 20
8.950000
 10
19.981875
 20
10.046875
 10
19.388125
 20
10.046875
 10
19.388125
 20
7.853125
 10
19.981875
 20
7.853125
  0
LWPOLYLINE
  8
0
 62
7
 90
5
 70
1
 10
19.981875
 20
3.750000
 10
19.981875
 20
4.846875
 10
19.388125
 20
4.846875
 10
19.388125
 20
2.653125
 10
19.981875
 20
2.653125
  0
LWPOLYLINE
  8
0
 62
7
 90
5
 70
1
 10
18.711875
 20
3.750000
 10
18.711875
 20
4.846875
 10
18.118125
 20
4.846875
 10
18.118125
 20
2.653125
 10
18.711875
 20
2.653125
  0
LWPOLYLINE
  8
0
 62
7
 90
5
 70
1
 10
17.441875
 20
3.750000
 10
17.441875
 20
4.846875
 10
16.848125
 20
4.846875
 10
16.848125
 20
2.653125
 10
17.441875
 20
2.653125
  0
LWPOLYLINE
  8
0
 62
7
 90
5
 70
1
 10
16.171875
 20
3.750000
 10
16.171875
 20
4.846875
 10
15.578125
 20
4.846875
 10
15.578125
 20
2.653125
 10
16.171875
 20
2.653125
  0
LWPOLYLINE
  8
0
 62
7
 90
5
 70
1
 10
0.528125
 20
28.544000
 10
0.528125
 20
27.912125
 10
2.521875
 20
27.912125
 10
2.521875
 20
29.175875
 10
0.528125
 20
29.175875
  0
LWPOLYLINE
  8
0
 62
7
 90
5
 70
1
 10
0.528125
 20
32.544000
 10
0.528125
 20
31.912125
 10
2.521875
 20
31.912125
 10
2.521875
 20
33.175875
 10
0.528125
 20
33.175875
  0
LWPOLYLINE
  8
0
 62
7
 90
5
 70
1
 10
16.528125
 20
38.544000
 10
16.528125
 20
37.912125
 10
18.521875
 20
37.912125
 10
18.521875
 20
39.175875
 10
16.528125
 20
39.175875
  0
LWPOLYLINE
  8
0
 62
7
 90
5
 70
1
 10
0.528125
 20
38.544000
 10
0.528125
 20
37.912125
 10
2.521875
 20
37.912125
 10
2.521875
 20
39.175875
 10
0.528125
 20
39.175875
  0
LWPOLYLINE
  8
0
 62
7
 90
5
 70
1
 10
0.528125
 20
36.544000
 10
0.528125
 20
35.912125
 10
2.521875
 20
35.912125
 10
2.521875
 20
37.175875
 10
0.528125
 20
37.175875
  0
LWPOLYLINE
  8
0
 62
7
 90
5
 70
1
 10
16.530125
 20
28.543000
 10
16.530125
 20
27.911125
 10
18.523875
 20
27.911125
 10
18.523875
 20
29.174875
 10
16.530125
 20
29.174875
  0
LWPOLYLINE
  8
0
 62
7
 90
5
 70
1
 10
16.528125
 20
40.544000
 10
16.528125
 20
39.912125
 10
18.521875
 20
39.912125
 10
18.521875
 20
41.175875
 10
16.528125
 20
41.175875
  0
LWPOLYLINE
  8
0
 62
7
 90
5
 70
1
 10
0.528125
 20
40.544000
 10
0.528125
 20
39.912125
 10
2.521875
 20
39.912125
 10
2.521875
 20
41.175875
 10
0.528125
 20
41.175875
  0
LWPOLYLINE
  8
0
 62
7
 90
5
 70
1
 10
0.528125
 20
30.544000
 10
0.528125
 20
29.912125
 10
2.521875
 20
29.912125
 10
2.521875
 20
31.175875
 10
0.528125
 20
31.175875
  0
LWPOLYLINE
  8
0
 62
7
 90
5
 70
1
 10
3.195125
 20
30.560000
 10
3.195125
 20
29.928125
 10
5.188875
 20
29.928125
 10
5.188875
 20
31.191875
 10
3.195125
 20
31.191875
  0
LWPOLYLINE
  8
0
 62
7
 90
5
 70
1
 10
22.695125
 20
40.560000
 10
22.695125
 20
39.928125
 10
24.688875
 20
39.928125
 10
24.688875
 20
41.191875
 10
22.695125
 20
41.191875
  0
LWPOLYLINE
  8
0
 62
7
 90
5
 70
1
 10
3.195125
 20
28.560000
 10
3.195125
 20
27.928125
 10
5.188875
 20
27.928125
 10
5.188875
 20
29.191875
 10
3.195125
 20
29.191875
  0
LWPOLYLINE
  8
0
 62
7
 90
5
 70
1
 10
3.195125
 20
36.560000
 10
3.195125
 20
35.928125
 10
5.188875
 20
35.928125
 10
5.188875
 20
37.191875
 10
3.195125
 20
37.191875
  0
LWPOLYLINE
  8
0
 62
7
 90
5
 70
1
 10
3.195125
 20
38.560000
 10
3.195125
 20
37.928125
 10
5.188875
 20
37.928125
 10
5.188875
 20
39.191875
 10
3.195125
 20
39.191875
  0
LWPOLYLINE
  8
0
 62
7
 90
5
 70
1
 10
3.195125
 20
40.560000
 10
3.195125
 20
39.928125
 10
5.188875
 20
39.928125
 10
5.188875
 20
41.191875
 10
3.195125
 20
41.191875
  0
LWPOLYLINE
  8
0
 62
7
 90
5
 70
1
 10
3.195125
 20
34.560000
 10
3.195125
 20
33.928125
 10
5.188875
 20
33.928125
 10
5.188875
 20
35.191875
 10
3.195125
 20
35.191875
  0
LWPOLYLINE
  8
0
 62
7
 90
5
 70
1
 10
22.695125
 20
28.560000
 10
22.695125
 20
27.928125
 10
24.688875
 20
27.928125
 10
24.688875
 20
29.191875
 10
22.695125
 20
29.191875
  0
ENDSEC
  0
EOF
